# Converted by Daum Communications 
# Date/time of export: 08/22/2013 14:53:58
#
# Bounding box of geometry = (202142,444802,-1.77117) to (202201,444844,59.6864).

mtllib 11009905.mtl

# Coordinates for object 'IndexedFaceSet'
v  202195.453125 444836.406250 53.765579 
v  202195.453125 444836.406250 56.008995 
v  202198.234375 444828.687500 53.765583 
v  202198.234375 444828.687500 56.008991 
# 4 vertices

vt 0.0 0.000074 0.0
vt 0.000019 1.000000 0.0
vt 0.998705 0.999812 0.0
vt 1.000000 0.0 0.0
# 4 texture vertices

vn  0.940790 0.338989 0.0 
# 1 normals

usemtl surface

o IndexedFaceSet
g IndexedFaceSet

s off
f 2/3/1 4/2/1 3/1/1
f 3/1/1 1/4/1 2/3/1
# 2 polygons

# Coordinates for object 'IndexedFaceSet #1'
v  202193.906250 444835.843750 56.008995 
v  202193.906250 444835.875000 53.765579 
v  202196.687500 444828.125000 53.765583 
v  202196.687500 444828.125000 56.008987 
# 4 vertices

vt 0.0 0.000076 0.0
vt 0.000031 1.000000 0.0
vt 0.998710 0.999957 0.0
vt 1.000000 0.0 0.0
# 4 texture vertices

vn  -0.941215 -0.337775 -0.004705 
vn  -0.940790 -0.338989 0.0 
# 2 normals

usemtl surface__2

o IndexedFaceSet__1_0
g IndexedFaceSet__1_0

s off
f 6/8/2 7/5/2 5/7/2
f 8/6/3 5/7/3 7/5/3
# 2 polygons

# Coordinates for object 'IndexedFaceSet #2'
v  202150.453125 444802.156250 -1.771133 
v  202150.453125 444802.156250 53.750519 
v  202168.906250 444808.750000 -1.771139 
v  202168.906250 444808.750000 53.750511 
# 4 vertices

vt 0.0 1.000000 0.0
vt 0.000376 0.001521 0.0
vt 0.999904 0.0 0.0
vt 1.000000 0.998793 0.0
# 4 texture vertices

vn  0.336488 -0.941688 0.0 
# 1 normals

usemtl surface__3

o IndexedFaceSet__2_0
g IndexedFaceSet__2_0

s off
f 12/9/4 10/10/4 9/11/4
f 9/11/4 11/12/4 12/9/4
# 2 polygons

# Coordinates for object 'IndexedFaceSet #3'
v  202142.062500 444825.500000 -1.771169 
v  202142.062500 444825.500000 53.750488 
v  202150.453125 444802.156250 -1.771133 
v  202150.453125 444802.156250 53.750519 
# 4 vertices

vt 0.0 0.0 0.0
vt 0.0 1.000000 0.0
vt 0.999996 0.0 0.0
vt 1.000000 0.999986 0.0
# 4 texture vertices

vn  -0.941056 -0.338251 0.0 
# 1 normals

usemtl surface__4

o IndexedFaceSet__3_0
g IndexedFaceSet__3_0

s off
f 13/16/5 15/15/5 14/14/5
f 16/13/5 14/14/5 15/15/5
# 2 polygons

# Coordinates for object 'IndexedFaceSet #4'
v  202142.062500 444825.500000 -1.771169 
v  202142.062500 444825.500000 53.750488 
v  202160.765625 444832.218750 -1.771161 
v  202160.765625 444832.218750 53.750492 
# 4 vertices

vt 0.0 1.000000 0.0
vt 0.000199 0.000054 0.0
vt 0.999846 0.999927 0.0
vt 1.000000 0.0 0.0
# 4 texture vertices

vn  -0.338079 0.941118 0.0 
# 1 normals

usemtl surface__5

o IndexedFaceSet__4_0
g IndexedFaceSet__4_0

s off
f 18/17/6 20/18/6 19/20/6
f 19/20/6 17/19/6 18/17/6
# 2 polygons

# Coordinates for object 'IndexedFaceSet #5'
v  202160.765625 444832.218750 -1.771161 
v  202160.765625 444832.218750 53.750492 
v  202163.515625 444824.531250 -1.771169 
v  202163.515625 444824.531250 53.750484 
# 4 vertices

vt 0.0 1.000000 0.0
vt 0.0 0.001117 0.0
vt 0.999996 0.0 0.0
vt 1.000000 0.999207 0.0
# 4 texture vertices

vn  0.941569 0.336821 0.0 
# 1 normals

usemtl surface__6

o IndexedFaceSet__5_0
g IndexedFaceSet__5_0

s off
f 22/21/7 24/22/7 21/24/7
f 23/23/7 21/24/7 24/22/7
# 2 polygons

# Coordinates for object 'IndexedFaceSet #6'
v  202163.515625 444824.531250 -1.771169 
v  202163.515625 444824.531250 53.750484 
v  202177.281250 444829.468750 -1.771171 
v  202177.281250 444829.468750 53.750481 
# 4 vertices

vt 0.0 1.000000 0.0
vt 0.000171 0.000605 0.0
vt 0.999971 0.999339 0.0
vt 1.000000 0.0 0.0
# 4 texture vertices

vn  -0.337622 0.941282 0.0 
# 1 normals

usemtl surface__7

o IndexedFaceSet__6_0
g IndexedFaceSet__6_0

s off
f 26/25/8 28/26/8 25/27/8
f 27/28/8 25/27/8 28/26/8
# 2 polygons

# Coordinates for object 'IndexedFaceSet #7'
v  202193.906250 444835.843750 56.008995 
v  202193.906250 444835.875000 53.765579 
v  202195.453125 444836.406250 53.765579 
v  202195.453125 444836.406250 56.008995 
# 4 vertices

vt 0.0 0.0 0.0
vt 0.0 1.000000 0.0
vt 0.999998 1.000000 0.0
vt 0.999999 0.0 0.0
# 4 texture vertices

vn  -0.341743 0.939793 0.0 
vn  -0.324785 0.945696 0.013173 
# 2 normals

usemtl surface__8

o IndexedFaceSet__7_0
g IndexedFaceSet__7_0

s off
f 29/31/9 32/30/9 31/29/9
f 31/29/10 30/32/10 29/31/10
# 2 polygons

# Coordinates for object 'IndexedFaceSet #8'
v  202174.453125 444837.343750 -1.771154 
v  202174.453125 444837.343750 53.750496 
v  202177.281250 444829.468750 -1.771171 
v  202177.281250 444829.468750 53.750481 
# 4 vertices

vt 0.0 1.000000 0.0
vt 0.0 0.001117 0.0
vt 0.999996 0.0 0.0
vt 1.000000 0.999207 0.0
# 4 texture vertices

vn  -0.941149 -0.337992 0.0 
# 1 normals

usemtl surface__6

o IndexedFaceSet__8_0
g IndexedFaceSet__8_0

s off
f 33/36/11 35/35/11 36/34/11
f 36/34/11 34/33/11 33/36/11
# 2 polygons

# Coordinates for object 'IndexedFaceSet #9'
v  202174.453125 444837.343750 -1.771154 
v  202174.453125 444837.343750 53.750496 
v  202192.765625 444843.906250 -1.771134 
v  202192.765625 444843.906250 53.750519 
# 4 vertices

vt 0.0 1.000000 0.0
vt 0.000145 0.000177 0.0
vt 0.999963 0.999790 0.0
vt 1.000000 0.0 0.0
# 4 texture vertices

vn  -0.337354 0.941378 0.0 
# 1 normals

usemtl surface__9

o IndexedFaceSet__9_0
g IndexedFaceSet__9_0

s off
f 38/37/12 40/38/12 39/40/12
f 39/40/12 37/39/12 38/37/12
# 2 polygons

# Coordinates for object 'IndexedFaceSet #10'
v  202192.765625 444843.906250 -1.771134 
v  202192.765625 444843.906250 53.750519 
v  202201.109375 444820.625000 -1.771126 
v  202201.109375 444820.625000 53.750519 
# 4 vertices

vt 0.0 0.0 0.0
vt 0.0 1.000000 0.0
vt 0.999996 0.0 0.0
vt 1.000000 0.999986 0.0
# 4 texture vertices

vn  0.941370 0.337377 0.0 
# 1 normals

usemtl surface__4

o IndexedFaceSet__10_0
g IndexedFaceSet__10_0

s off
f 42/42/13 44/41/13 41/44/13
f 43/43/13 41/44/13 44/41/13
# 2 polygons

# Coordinates for object 'IndexedFaceSet #11'
v  202182.546875 444813.968750 -1.771140 
v  202182.546875 444813.968750 53.750504 
v  202201.109375 444820.625000 -1.771126 
v  202201.109375 444820.625000 53.750519 
# 4 vertices

vt 0.0 1.000000 0.0
vt 0.000503 0.001739 0.0
vt 0.999700 0.0 0.0
vt 1.000000 0.998769 0.0
# 4 texture vertices

vn  0.337541 -0.941311 0.0 
# 1 normals

usemtl surface__10

o IndexedFaceSet__11_0
g IndexedFaceSet__11_0

s off
f 48/45/14 46/46/14 47/48/14
f 45/47/14 47/48/14 46/46/14
# 2 polygons

# Coordinates for object 'IndexedFaceSet #12'
v  202182.093750 444815.218750 -1.771139 
v  202182.093750 444815.218750 53.750511 
v  202182.546875 444813.968750 -1.771140 
v  202182.546875 444813.968750 53.750504 
# 4 vertices

vt 0.0 0.000067 0.0
vt 0.0 1.000000 0.0
vt 0.999997 0.0 0.0
vt 1.000000 0.999918 0.0
# 4 texture vertices

vn  -0.940136 -0.340799 0.0 
# 1 normals

usemtl surface__11

o IndexedFaceSet__12_0
g IndexedFaceSet__12_0

s off
f 49/52/15 51/51/15 52/49/15
f 52/49/15 50/50/15 49/52/15
# 2 polygons

# Coordinates for object 'IndexedFaceSet #13'
v  202168.359375 444810.312500 -1.771142 
v  202168.359375 444810.312500 53.750511 
v  202182.093750 444815.218750 -1.771139 
v  202182.093750 444815.218750 53.750511 
# 4 vertices

vt 0.0 0.000136 0.0
vt 0.000079 1.000000 0.0
vt 0.999905 0.0 0.0
vt 1.000000 0.999879 0.0
# 4 texture vertices

vn  0.336404 -0.941718 0.0 
# 1 normals

usemtl surface__12

o IndexedFaceSet__13_0
g IndexedFaceSet__13_0

s off
f 56/54/16 54/53/16 55/56/16
f 53/55/16 55/56/16 54/53/16
# 2 polygons

# Coordinates for object 'IndexedFaceSet #14'
v  202168.359375 444810.312500 -1.771142 
v  202168.359375 444810.312500 53.750511 
v  202168.906250 444808.750000 -1.771139 
v  202168.906250 444808.750000 53.750511 
# 4 vertices

vt 0.0 0.004502 0.0
vt 0.0 1.000000 0.0
vt 0.999995 0.0 0.0
vt 1.000000 0.995616 0.0
# 4 texture vertices

vn  0.943858 0.330350 0.0 
# 1 normals

usemtl surface__13

o IndexedFaceSet__14_0
g IndexedFaceSet__14_0

s off
f 58/58/17 60/57/17 59/59/17
f 59/59/17 57/60/17 58/58/17
# 2 polygons

# Coordinates for object 'IndexedFaceSet #15'
v  202193.906250 444835.843750 56.604183 
v  202196.687500 444828.125000 56.604183 
v  202197.171875 444837.000000 56.604187 
v  202199.937500 444829.281250 56.604183 
# 4 vertices

vt 0.0 0.0 0.0
vt 0.0 1.000000 0.0
vt 0.999999 0.0 0.0
vt 1.000000 0.996786 0.0
# 4 texture vertices

vn  -0.000001 0.0 1.0 
# 1 normals

usemtl surface__8

o IndexedFaceSet__15_0
g IndexedFaceSet__15_0

s off
f 61/62/18 62/61/18 63/64/18
f 64/63/18 63/64/18 62/61/18
# 2 polygons

# Coordinates for object 'IndexedFaceSet #16'
v  202196.687500 444828.125000 53.765583 
v  202196.687500 444828.125000 56.008987 
v  202198.234375 444828.687500 53.765583 
v  202198.234375 444828.687500 56.008991 
# 4 vertices

vt 0.0 0.0 0.0
vt 0.0 1.000000 0.0
vt 0.999999 0.0 0.0
vt 1.000000 1.000000 0.0
# 4 texture vertices

vn  0.341743 -0.939793 0.0 
# 1 normals

usemtl surface__8

o IndexedFaceSet__16_0
g IndexedFaceSet__16_0

s off
f 68/68/19 66/66/19 67/67/19
f 65/65/19 67/67/19 66/66/19
# 2 polygons

# Coordinates for object 'IndexedFaceSet #17'
v  202193.906250 444835.843750 56.008995 
v  202193.906250 444835.843750 56.604183 
v  202197.171875 444837.000000 56.008995 
v  202197.171875 444837.000000 56.604187 
# 4 vertices

vt 0.0 0.0 0.0
vt 0.0 1.000000 0.0
vt 1.000000 0.0 0.0
vt 1.000000 1.000000 0.0
# 4 texture vertices

vn  -0.333764 0.942657 0.0 
# 1 normals

usemtl surface__8

o IndexedFaceSet__17_0
g IndexedFaceSet__17_0

s off
f 72/70/20 71/69/20 69/71/20
f 69/71/20 70/72/20 72/70/20
# 2 polygons

# Coordinates for object 'IndexedFaceSet #18'
v  202193.906250 444835.843750 56.008995 
v  202196.687500 444828.125000 56.008987 
v  202197.171875 444837.000000 56.008995 
v  202199.937500 444829.281250 56.008991 
# 4 vertices

vt 0.0 0.0 0.0
# 1 texture vertices

vn  0.0 0.0 -1.0 
# 1 normals

usemtl surface__14

o IndexedFaceSet__18_0
g IndexedFaceSet__18_0

s off
f 74/73/21 75/73/21 76/73/21
f 75/73/21 74/73/21 73/73/21
# 2 polygons

# Coordinates for object 'IndexedFaceSet #19'
v  202193.906250 444835.843750 56.008995 
v  202193.906250 444835.843750 56.604183 
v  202196.687500 444828.125000 56.008987 
v  202196.687500 444828.125000 56.604183 
# 4 vertices

vt 0.0 0.000067 0.0
vt 0.000011 1.000000 0.0
vt 0.999989 0.0 0.0
vt 1.000000 0.999945 0.0
# 4 texture vertices

vn  -0.940790 -0.338989 0.0 
# 1 normals

usemtl surface__15

o IndexedFaceSet__19_0
g IndexedFaceSet__19_0

s off
f 77/76/22 79/74/22 78/77/22
f 80/75/22 78/77/22 79/74/22
# 2 polygons

# Coordinates for object 'IndexedFaceSet #20'
v  202196.687500 444828.125000 56.008987 
v  202196.687500 444828.125000 56.604183 
v  202199.937500 444829.281250 56.008991 
v  202199.937500 444829.281250 56.604183 
# 4 vertices

vt 0.0 0.0 0.0
vt 0.0 1.000000 0.0
vt 1.000000 0.0 0.0
vt 1.000000 0.999989 0.0
# 4 texture vertices

vn  0.335188 -0.942151 0.0 
# 1 normals

usemtl surface__8

o IndexedFaceSet__20_0
g IndexedFaceSet__20_0

s off
f 83/80/23 84/81/23 81/78/23
f 82/79/23 81/78/23 84/81/23
# 2 polygons

# Coordinates for object 'IndexedFaceSet #21'
v  202197.171875 444837.000000 56.008995 
v  202197.171875 444837.000000 56.604187 
v  202199.937500 444829.281250 56.008991 
v  202199.937500 444829.281250 56.604183 
# 4 vertices

vt 0.0 0.000067 0.0
vt 0.000011 1.000000 0.0
vt 0.999989 0.0 0.0
vt 1.000000 0.999945 0.0
# 4 texture vertices

vn  0.941396 0.337302 0.0 
# 1 normals

usemtl surface__15

o IndexedFaceSet__21_0
g IndexedFaceSet__21_0

s off
f 86/85/24 88/83/24 85/84/24
f 87/82/24 85/84/24 88/83/24
# 2 polygons

# Coordinates for object 'IndexedFaceSet #22'
v  202155.609375 444822.781250 59.686390 
v  202158.828125 444813.781250 59.686398 
v  202163.187500 444825.468750 59.686382 
v  202163.515625 444824.531250 59.686382 
v  202164.531250 444824.906250 59.686382 
v  202167.421875 444816.843750 59.686405 
# 6 vertices

vt 0.0 0.0 0.0
vt 0.000716 1.000000 0.0
vt 0.892330 0.000294 0.0
vt 0.892330 0.118407 0.0
vt 0.996233 0.118407 0.0
vt 1.000000 0.998222 0.0
# 6 texture vertices

vn  0.0 0.000001 1.0 
# 1 normals

usemtl surface__16

o IndexedFaceSet__22_0
g IndexedFaceSet__22_0

s off
f 90/87/25 92/89/25 89/91/25
f 92/89/25 90/87/25 94/86/25
f 89/91/25 92/89/25 91/90/25
f 93/88/25 92/89/25 94/86/25
# 4 polygons

# Coordinates for object 'IndexedFaceSet #23'
v  202142.062500 444825.500000 53.750488 
v  202150.453125 444802.156250 53.750519 
v  202160.765625 444832.218750 53.750492 
v  202163.515625 444824.531250 53.750484 
v  202168.359375 444810.312500 53.750511 
v  202168.906250 444808.750000 53.750511 
v  202174.453125 444837.343750 53.750496 
v  202177.281250 444829.468750 53.750481 
v  202182.093750 444815.218750 53.750511 
v  202182.546875 444813.968750 53.750504 
v  202192.765625 444843.906250 53.750519 
v  202201.109375 444820.625000 53.750519 
# 12 vertices

vt 0.0 0.0 0.0
vt 0.0 0.988489 0.0
vt 0.360464 0.334206 0.0
vt 0.360565 0.0 0.0
vt 0.365849 0.934590 0.0
vt 0.365849 0.988489 0.0
vt 0.631714 0.007941 0.0
vt 0.631714 0.334206 0.0
vt 0.636319 0.934589 0.0
vt 0.636319 1.000000 0.0
vt 0.999950 0.007940 0.0
vt 1.000000 1.000000 0.0
# 12 texture vertices

vn  0.0 0.0 1.0 
# 1 normals

usemtl surface__17

o IndexedFaceSet__23_0
g IndexedFaceSet__23_0

s off
f 96/103/26 100/101/26 99/100/26
f 98/99/26 99/100/26 103/96/26
f 96/103/26 99/100/26 98/99/26
f 95/102/26 98/99/26 97/98/26
f 98/99/26 95/102/26 96/103/26
f 104/97/26 106/93/26 103/96/26
f 103/96/26 106/93/26 102/94/26
f 102/94/26 105/92/26 101/95/26
f 105/92/26 102/94/26 106/93/26
f 102/94/26 98/99/26 103/96/26
# 10 polygons

# Coordinates for object 'IndexedFaceSet #24'
v  202163.515625 444824.531250 53.750484 
v  202163.515625 444824.531250 59.686382 
v  202164.531250 444824.906250 53.775269 
v  202164.531250 444824.906250 59.686382 
# 4 vertices

vt 0.0 0.887826 0.0
vt 0.004355 0.0 0.0
vt 0.999793 1.000000 0.0
vt 1.000000 0.111719 0.0
# 4 texture vertices

vn  -0.346374 0.938096 0.0 
# 1 normals

usemtl surface__18

o IndexedFaceSet__24_0
g IndexedFaceSet__24_0

s off
f 108/104/27 110/105/27 109/107/27
f 109/107/27 107/106/27 108/104/27
# 2 polygons

# Coordinates for object 'IndexedFaceSet #25'
v  202164.531250 444824.906250 53.775269 
v  202164.531250 444824.906250 59.686382 
v  202167.421875 444816.843750 53.720264 
v  202167.421875 444816.843750 59.686405 
# 4 vertices

vt 0.0 0.000026 0.0
vt 0.004578 1.000000 0.0
vt 0.995479 0.0 0.0
vt 1.000000 0.990878 0.0
# 4 texture vertices

vn  0.941328 0.337492 0.0 
# 1 normals

usemtl surface__19

o IndexedFaceSet__25_0
g IndexedFaceSet__25_0

s off
f 112/111/28 114/109/28 111/110/28
f 113/108/28 111/110/28 114/109/28
# 2 polygons

# Coordinates for object 'IndexedFaceSet #26'
v  202158.828125 444813.781250 53.829365 
v  202158.828125 444813.781250 59.686398 
v  202167.421875 444816.843750 53.720264 
v  202167.421875 444816.843750 59.686405 
# 4 vertices

vt 0.0 0.000026 0.0
vt 0.004578 1.000000 0.0
vt 0.995479 0.0 0.0
vt 1.000000 0.990878 0.0
# 4 texture vertices

vn  0.335685 -0.941974 0.0 
# 1 normals

usemtl surface__19

o IndexedFaceSet__26_0
g IndexedFaceSet__26_0

s off
f 118/113/29 116/115/29 115/114/29
f 115/114/29 117/112/29 118/113/29
# 2 polygons

# Coordinates for object 'IndexedFaceSet #27'
v  202155.609375 444822.781250 53.791004 
v  202155.609375 444822.781250 59.686390 
v  202158.828125 444813.781250 53.829365 
v  202158.828125 444813.781250 59.686398 
# 4 vertices

vt 0.0 0.000026 0.0
vt 0.004578 1.000000 0.0
vt 0.995479 0.0 0.0
vt 1.000000 0.990878 0.0
# 4 texture vertices

vn  -0.941594 -0.336751 0.0 
# 1 normals

usemtl surface__19

o IndexedFaceSet__27_0
g IndexedFaceSet__27_0

s off
f 119/118/30 121/116/30 120/119/30
f 122/117/30 120/119/30 121/116/30
# 2 polygons

# Coordinates for object 'IndexedFaceSet #28'
v  202155.609375 444822.781250 53.791004 
v  202155.609375 444822.781250 59.686390 
v  202163.187500 444825.468750 53.759857 
v  202163.187500 444825.468750 59.686382 
# 4 vertices

vt 0.0 0.000026 0.0
vt 0.004578 1.000000 0.0
vt 0.995479 0.0 0.0
vt 1.000000 0.990878 0.0
# 4 texture vertices

vn  -0.334243 0.942487 0.0 
# 1 normals

usemtl surface__19

o IndexedFaceSet__28_0
g IndexedFaceSet__28_0

s off
f 124/123/31 126/121/31 123/122/31
f 125/120/31 123/122/31 126/121/31
# 2 polygons

# Coordinates for object 'IndexedFaceSet #29'
v  202163.187500 444825.468750 53.759857 
v  202163.187500 444825.468750 59.686382 
v  202163.515625 444824.531250 53.750484 
v  202163.515625 444824.531250 59.686382 
# 4 vertices

vt 0.0 0.053803 0.0
vt 0.001476 1.000000 0.0
vt 0.999947 0.945638 0.0
vt 1.000000 0.0 0.0
# 4 texture vertices

vn  0.943858 0.330350 0.0 
# 1 normals

usemtl surface__20

o IndexedFaceSet__29_0
g IndexedFaceSet__29_0

s off
f 128/125/32 130/124/32 127/126/32
f 129/127/32 127/126/32 130/124/32
# 2 polygons
