# Converted by Daum Communications 
# Date/time of export: 08/22/2013 14:52:39
#
# Bounding box of geometry = (203303,443569,-0.206691) to (203316,443583,12.7109).

mtllib 3687516.mtl

# Coordinates for object 'IndexedFaceSet'
v  203303.156250 443579.343750 -0.206689 
v  203303.156250 443579.343750 3.004830 
v  203303.234375 443579.375000 3.004819 
v  203303.234375 443579.375000 6.548687 
v  203312.234375 443582.812500 6.533820 
v  203312.265625 443582.843750 2.993659 
v  203312.375000 443582.875000 -0.206691 
v  203312.375000 443582.875000 3.003641 
# 8 vertices

vt 0.0 0.0 0.0
vt 0.0 0.475226 0.0
vt 0.011477 0.473749 0.0
vt 0.014809 0.997799 0.0
vt 0.991138 0.475400 0.0
vt 0.991138 1.000000 0.0
vt 1.000000 0.0 0.0
vt 1.000000 0.475402 0.0
# 8 texture vertices

vn  -0.371391 0.928477 0.0 
vn  -0.358546 0.933512 -0.000361 
vn  -0.358536 0.933502 0.005075 
vn  -0.357704 0.933830 -0.003106 
vn  -0.356805 0.934179 0.0 
vn  -0.274721 0.961524 0.0 
# 6 normals

usemtl surface

o IndexedFaceSet
g IndexedFaceSet

s off
f 6/3/4 7/1/4 1/7/4
f 7/1/6 6/3/6 8/2/6
f 6/3/3 3/5/3 5/4/3
f 3/5/1 1/7/1 2/8/1
f 1/7/2 3/5/2 6/3/2
f 3/5/5 4/6/5 5/4/5
# 6 polygons

# Coordinates for object 'IndexedFaceSet #1'
v  203303.156250 443579.343750 -0.206689 
v  203303.156250 443579.343750 3.004830 
v  203307.078125 443569.125000 -0.206687 
v  203307.078125 443569.125000 3.004832 
# 4 vertices

vt 0.0 0.999475 0.0
vt 0.000035 0.0 0.0
vt 0.999974 1.000000 0.0
vt 1.000000 0.000601 0.0
# 4 texture vertices

vn  -0.933603 -0.358309 0.0 
# 1 normals

usemtl surface__2

o IndexedFaceSet__1_0
g IndexedFaceSet__1_0

s off
f 10/9/7 9/10/7 11/12/7
f 11/12/7 12/11/7 10/9/7
# 2 polygons

# Coordinates for object 'IndexedFaceSet #2'
v  203303.156250 443579.343750 3.004830 
v  203303.234375 443579.375000 3.004819 
v  203307.078125 443569.125000 3.004832 
v  203307.156250 443569.156250 3.004821 
# 4 vertices

vt 0.0 0.999475 0.0
vt 0.000035 0.0 0.0
vt 0.999974 1.000000 0.0
vt 1.000000 0.000601 0.0
# 4 texture vertices

vn  0.000122 0.000047 1.0 
# 1 normals

usemtl surface__2

o IndexedFaceSet__2_0
g IndexedFaceSet__2_0

s off
f 15/13/8 16/15/8 14/16/8
f 14/16/8 13/14/8 15/13/8
# 2 polygons

# Coordinates for object 'IndexedFaceSet #3'
v  203303.234375 443579.375000 3.004819 
v  203303.234375 443579.375000 6.548687 
v  203303.828125 443577.843750 6.548686 
v  203303.828125 443577.843750 10.738936 
v  203304.187500 443576.875000 10.738936 
v  203304.187500 443576.875000 12.507441 
v  203307.156250 443569.156250 3.004821 
v  203307.156250 443569.156250 12.507442 
# 8 vertices

vt 0.0 0.243100 0.0
vt 0.0 1.000000 0.0
vt 0.186655 0.150449 0.0
vt 0.186655 0.244011 0.0
vt 0.627042 0.149413 0.0
vt 0.627046 0.000050 0.0
vt 0.999962 0.999945 0.0
vt 1.000000 0.0 0.0
# 8 texture vertices

vn  -0.937566 -0.347807 0.0 
vn  -0.934144 -0.356888 -0.002393 
vn  -0.933602 -0.358309 0.001599 
vn  -0.933346 -0.358979 0.0 
vn  -0.932361 -0.361528 0.0 
# 5 normals

usemtl surface__3

o IndexedFaceSet__3_0
g IndexedFaceSet__3_0

s off
f 23/23/11 19/21/11 17/24/11
f 19/21/10 23/23/10 21/20/10
f 18/22/13 17/24/13 19/21/13
f 21/20/12 24/18/12 22/17/12
f 24/18/12 21/20/12 23/23/12
f 21/20/9 20/19/9 19/21/9
# 6 polygons

# Coordinates for object 'IndexedFaceSet #4'
v  203312.234375 443582.812500 6.533820 
v  203312.265625 443582.843750 2.993659 
v  203312.828125 443581.281250 6.533819 
v  203312.828125 443581.312500 10.724070 
v  203313.171875 443580.343750 12.507439 
v  203313.203125 443580.343750 10.724070 
v  203316.140625 443572.625000 12.507442 
v  203316.171875 443572.625000 3.002949 
# 8 vertices

vt 0.0 0.243100 0.0
vt 0.0 1.000000 0.0
vt 0.186655 0.150449 0.0
vt 0.186655 0.244011 0.0
vt 0.627042 0.149413 0.0
vt 0.627046 0.000050 0.0
vt 0.999962 0.999945 0.0
vt 1.000000 0.0 0.0
# 8 texture vertices

vn  0.932301 0.361504 0.011421 
vn  0.932461 0.361262 -0.002623 
vn  0.932565 0.360993 -0.002692 
vn  0.933221 0.358931 0.016353 
vn  0.934038 0.357056 0.009182 
vn  0.934367 0.356299 0.003072 
# 6 normals

usemtl surface__3

o IndexedFaceSet__4_0
g IndexedFaceSet__4_0

s off
f 26/32/14 25/30/14 27/29/14
f 27/29/18 32/31/18 26/32/18
f 32/31/15 27/29/15 30/28/15
f 30/28/19 31/26/19 32/31/19
f 31/26/17 30/28/17 29/25/17
f 28/27/16 30/28/16 27/29/16
# 6 polygons

# Coordinates for object 'IndexedFaceSet #5'
v  203312.265625 443582.843750 2.993659 
v  203312.375000 443582.875000 3.003641 
v  203316.171875 443572.625000 3.002949 
v  203316.296875 443572.656250 3.003643 
# 4 vertices

vt 0.0 0.999475 0.0
vt 0.000035 0.0 0.0
vt 0.999974 1.000000 0.0
vt 1.000000 0.000601 0.0
# 4 texture vertices

vn  -0.081927 -0.031443 0.996142 
vn  -0.005275 -0.001107 0.999985 
# 2 normals

usemtl surface__2

o IndexedFaceSet__5_0
g IndexedFaceSet__5_0

s off
f 35/33/21 36/35/21 33/34/21
f 34/36/20 33/34/20 36/35/20
# 2 polygons

# Coordinates for object 'IndexedFaceSet #6'
v  203312.375000 443582.875000 -0.206691 
v  203312.375000 443582.875000 3.003641 
v  203316.296875 443572.656250 -0.206689 
v  203316.296875 443572.656250 3.003643 
# 4 vertices

vt 0.0 0.999475 0.0
vt 0.000035 0.0 0.0
vt 0.999974 1.000000 0.0
vt 1.000000 0.000601 0.0
# 4 texture vertices

vn  0.933603 0.358309 0.0 
# 1 normals

usemtl surface__2

o IndexedFaceSet__6_0
g IndexedFaceSet__6_0

s off
f 37/38/22 38/37/22 39/40/22
f 40/39/22 39/40/22 38/37/22
# 2 polygons

# Coordinates for object 'IndexedFaceSet #7'
v  203304.187500 443576.875000 12.710897 
v  203307.265625 443568.875000 12.710899 
v  203313.171875 443580.343750 12.710896 
v  203316.250000 443572.312500 12.710897 
# 4 vertices

vt 0.0 0.999853 0.0
vt 0.000185 0.0 0.0
vt 0.999815 1.000000 0.0
vt 1.000000 0.0 0.0
# 4 texture vertices

vn  0.0 0.0 1.0 
# 1 normals

usemtl surface

o IndexedFaceSet__7_0
g IndexedFaceSet__7_0

s off
f 42/41/23 44/42/23 41/43/23
f 43/44/23 41/43/23 44/42/23
# 2 polygons

# Coordinates for object 'IndexedFaceSet #8'
v  203304.187500 443576.875000 10.738936 
v  203304.187500 443576.875000 12.507441 
v  203313.171875 443580.343750 12.507439 
v  203313.203125 443580.343750 10.724070 
# 4 vertices

vt 0.0 0.0 0.0
vt 0.002390 1.000000 0.0
vt 0.999049 0.0 0.0
vt 1.000000 0.991677 0.0
# 4 texture vertices

vn  -0.360175 0.932885 0.0 
vn  -0.359089 0.933282 -0.006292 
# 2 normals

usemtl surface

o IndexedFaceSet__8_0
g IndexedFaceSet__8_0

s off
f 47/46/25 48/45/25 45/47/25
f 45/47/24 46/48/24 47/46/24
# 2 polygons

# Coordinates for object 'IndexedFaceSet #9'
v  203313.171875 443580.343750 12.507439 
v  203313.171875 443580.343750 12.710896 
v  203316.250000 443572.312500 12.507442 
v  203316.250000 443572.312500 12.710897 
# 4 vertices

vt 0.0 0.993991 0.0
vt 0.0 0.0 0.0
vt 0.999998 1.000000 0.0
vt 1.000000 0.006017 0.0
# 4 texture vertices

vn  0.933766 0.357883 0.0 
# 1 normals

usemtl surface__4

o IndexedFaceSet__9_0
g IndexedFaceSet__9_0

s off
f 49/50/26 50/49/26 52/51/26
f 52/51/26 51/52/26 49/50/26
# 2 polygons

# Coordinates for object 'IndexedFaceSet #10'
v  203307.078125 443569.125000 -0.206687 
v  203307.078125 443569.125000 3.004832 
v  203307.156250 443569.156250 3.004821 
v  203307.156250 443569.156250 12.507442 
v  203316.140625 443572.625000 12.507442 
v  203316.171875 443572.625000 3.002949 
v  203316.296875 443572.656250 -0.206689 
v  203316.296875 443572.656250 3.003643 
# 8 vertices

vt 0.0 0.008804 0.0
vt 0.000016 0.983691 0.0
vt 0.747401 0.0 0.0
vt 0.747402 0.008861 0.0
vt 0.747499 0.999975 0.0
vt 0.747553 0.987321 0.0
vt 0.999999 0.000019 0.0
vt 1.000000 1.000000 0.0
# 8 texture vertices

vn  0.242536 -0.970142 0.0 
vn  0.357702 -0.933823 0.004839 
vn  0.359087 -0.933303 0.001181 
vn  0.359087 -0.933304 0.000346 
vn  0.360175 -0.932885 0.0 
vn  0.371391 -0.928477 0.0 
# 6 normals

usemtl surface__5

o IndexedFaceSet__10_0
g IndexedFaceSet__10_0

s off
f 59/60/27 60/57/27 58/58/27
f 53/59/30 58/58/30 55/56/30
f 58/58/28 53/59/28 59/60/28
f 57/54/31 56/53/31 55/56/31
f 55/56/32 54/55/32 53/59/32
f 57/54/29 55/56/29 58/58/29
# 6 polygons

# Coordinates for object 'IndexedFaceSet #11'
v  203304.187500 443576.875000 12.507441 
v  203304.187500 443576.875000 12.710897 
v  203313.171875 443580.343750 12.507439 
v  203313.171875 443580.343750 12.710896 
# 4 vertices

vt 0.0 0.0 0.0
vt 0.0 1.000000 0.0
vt 1.000000 0.0 0.0
vt 1.000000 1.000000 0.0
# 4 texture vertices

vn  -0.360175 0.932885 0.0 
# 1 normals

usemtl surface

o IndexedFaceSet__11_0
g IndexedFaceSet__11_0

s off
f 64/62/33 63/61/33 62/64/33
f 61/63/33 62/64/33 63/61/33
# 2 polygons

# Coordinates for object 'IndexedFaceSet #12'
v  203304.187500 443576.875000 12.507441 
v  203304.187500 443576.875000 12.710897 
v  203307.265625 443568.875000 12.507442 
v  203307.265625 443568.875000 12.710899 
# 4 vertices

vt 0.0 0.993991 0.0
vt 0.0 0.0 0.0
vt 0.999998 1.000000 0.0
vt 1.000000 0.006017 0.0
# 4 texture vertices

vn  -0.933299 -0.359101 0.0 
# 1 normals

usemtl surface__4

o IndexedFaceSet__12_0
g IndexedFaceSet__12_0

s off
f 66/65/34 65/66/34 68/67/34
f 67/68/34 68/67/34 65/66/34
# 2 polygons

# Coordinates for object 'IndexedFaceSet #13'
v  203303.828125 443577.843750 10.738936 
v  203304.187500 443576.875000 10.738936 
v  203312.828125 443581.312500 10.724070 
v  203313.203125 443580.343750 10.724070 
# 4 vertices

vt 0.0 0.0 0.0
vt 0.0 1.000000 0.0
vt 0.998175 0.0 0.0
vt 1.000000 1.000000 0.0
# 4 texture vertices

vn  0.001435 0.000556 0.999999 
vn  0.001445 0.000536 0.999999 
# 2 normals

usemtl surface

o IndexedFaceSet__13_0
g IndexedFaceSet__13_0

s off
f 69/72/36 70/70/36 71/71/36
f 72/69/35 71/71/35 70/70/35
# 2 polygons

# Coordinates for object 'IndexedFaceSet #14'
v  203303.234375 443579.375000 6.548687 
v  203303.828125 443577.843750 6.548686 
v  203312.234375 443582.812500 6.533820 
v  203312.828125 443581.281250 6.533819 
# 4 vertices

vt 0.0 0.0 0.0
vt 0.001139 1.000000 0.0
vt 0.999997 1.000000 0.0
vt 1.000000 0.0 0.0
# 4 texture vertices

vn  0.001439 0.000557 0.999999 
# 1 normals

usemtl surface

o IndexedFaceSet__14_0
g IndexedFaceSet__14_0

s off
f 73/75/37 74/74/37 75/76/37
f 76/73/37 75/76/37 74/74/37
# 2 polygons

# Coordinates for object 'IndexedFaceSet #15'
v  203303.828125 443577.843750 6.548686 
v  203303.828125 443577.843750 10.738936 
v  203312.828125 443581.281250 6.533819 
v  203312.828125 443581.312500 10.724070 
# 4 vertices

vt 0.0 0.0 0.0
vt 0.0 1.000000 0.0
vt 1.000000 0.0 0.0
vt 1.000000 1.000000 0.0
# 4 texture vertices

vn  -0.359630 0.933095 0.0 
vn  -0.356806 0.934153 -0.006967 
# 2 normals

usemtl surface

o IndexedFaceSet__15_0
g IndexedFaceSet__15_0

s off
f 80/78/39 79/77/39 77/79/39
f 77/79/38 78/80/38 80/78/38
# 2 polygons

# Coordinates for object 'IndexedFaceSet #16'
v  203307.265625 443568.875000 12.507442 
v  203307.265625 443568.875000 12.710899 
v  203316.250000 443572.312500 12.507442 
v  203316.250000 443572.312500 12.710897 
# 4 vertices

vt 0.0 0.000211 0.0
vt 0.0 1.000000 0.0
vt 0.999997 0.999795 0.0
vt 1.000000 0.0 0.0
# 4 texture vertices

vn  0.357346 -0.933972 0.0 
# 1 normals

usemtl surface__6

o IndexedFaceSet__16_0
g IndexedFaceSet__16_0

s off
f 81/81/40 83/84/40 82/82/40
f 84/83/40 82/82/40 83/84/40
# 2 polygons

# Coordinates for object 'IndexedFaceSet #17'
v  203307.156250 443569.156250 12.507442 
v  203307.265625 443568.875000 12.507442 
v  203316.140625 443572.625000 12.507442 
v  203316.250000 443572.312500 12.507442 
# 4 vertices

vt 0.0 1.000000 0.0
vt 0.000147 0.000055 0.0
vt 0.999996 0.0 0.0
vt 1.000000 0.999951 0.0
# 4 texture vertices

vn  0.0 0.0 -1.0 
# 1 normals

usemtl surface__7

o IndexedFaceSet__17_0
g IndexedFaceSet__17_0

s off
f 87/85/41 88/86/41 85/88/41
f 86/87/41 85/88/41 88/86/41
# 2 polygons
