# Converted by Daum Communications 
# Date/time of export: 08/22/2013 14:52:39
#
# Bounding box of geometry = (203495,443573,-0.849515) to (203534,443600,26.1439).

mtllib 3687502.mtl

# Coordinates for object 'IndexedFaceSet'
v  203499.453125 443589.750000 23.307487 
v  203505.359375 443573.468750 23.307482 
v  203528.281250 443600.187500 23.307484 
v  203534.218750 443583.906250 23.307478 
# 4 vertices

vt 0.0 1.000000 0.0
vt 0.000119 0.0 0.0
vt 0.998395 1.000000 0.0
vt 1.000000 0.0 0.0
# 4 texture vertices

vn  0.0 0.0 1.0 
# 1 normals

usemtl surface

o IndexedFaceSet
g IndexedFaceSet

s off
f 4/4/1 3/3/1 2/2/1
f 1/1/1 2/2/1 3/3/1
# 2 polygons

# Coordinates for object 'IndexedFaceSet #1'
v  203499.453125 443589.750000 -0.837524 
v  203499.453125 443589.750000 23.307487 
v  203505.359375 443573.468750 -0.837532 
v  203505.359375 443573.468750 23.307482 
# 4 vertices

vt 0.0 1.000000 0.0
vt 0.000114 0.0 0.0
vt 0.999841 0.999892 0.0
vt 1.000000 0.000051 0.0
# 4 texture vertices

vn  -0.940057 -0.341019 0.0 
# 1 normals

usemtl surface__2

o IndexedFaceSet__1_0
g IndexedFaceSet__1_0

s off
f 6/5/2 5/6/2 7/8/2
f 7/8/2 8/7/2 6/5/2
# 2 polygons

# Coordinates for object 'IndexedFaceSet #2'
v  203505.359375 443573.468750 -0.837532 
v  203505.359375 443573.468750 23.307482 
v  203534.218750 443583.906250 -0.837535 
v  203534.218750 443583.906250 23.307478 
# 4 vertices

vt 0.0 0.999989 0.0
vt 0.0 0.0 0.0
vt 0.999997 1.000000 0.0
vt 1.000000 0.000011 0.0
# 4 texture vertices

vn  0.340107 -0.940387 0.0 
# 1 normals

usemtl surface__3

o IndexedFaceSet__2_0
g IndexedFaceSet__2_0

s off
f 9/12/3 11/10/3 10/11/3
f 12/9/3 10/11/3 11/10/3
# 2 polygons

# Coordinates for object 'IndexedFaceSet #3'
v  203528.281250 443600.187500 -0.837528 
v  203528.281250 443600.187500 23.307484 
v  203534.218750 443583.906250 -0.837535 
v  203534.218750 443583.906250 23.307478 
# 4 vertices

vt 0.0 1.000000 0.0
vt 0.000498 0.0 0.0
vt 0.999667 0.999491 0.0
vt 1.000000 0.000032 0.0
# 4 texture vertices

vn  0.939477 0.342612 0.0 
# 1 normals

usemtl surface__4

o IndexedFaceSet__3_0
g IndexedFaceSet__3_0

s off
f 16/13/4 15/14/4 13/16/4
f 13/16/4 14/15/4 16/13/4
# 2 polygons

# Coordinates for object 'IndexedFaceSet #4'
v  203499.453125 443589.750000 -0.837524 
v  203499.453125 443589.750000 23.307487 
v  203528.281250 443600.187500 -0.837528 
v  203528.281250 443600.187500 23.307484 
# 4 vertices

vt 0.0 0.999989 0.0
vt 0.0 0.0 0.0
vt 0.999997 1.000000 0.0
vt 1.000000 0.000011 0.0
# 4 texture vertices

vn  -0.340433 0.940269 0.0 
# 1 normals

usemtl surface__3

o IndexedFaceSet__4_0
g IndexedFaceSet__4_0

s off
f 20/17/5 19/18/5 18/19/5
f 17/20/5 18/19/5 19/18/5
# 2 polygons

# Coordinates for object 'IndexedFaceSet #5'
v  203498.125000 443577.906250 11.574894 
v  203498.125000 443577.906250 19.025721 
v  203503.093750 443579.687500 11.573267 
v  203503.093750 443579.718750 19.025719 
# 4 vertices

vt 0.0 0.999779 0.0
vt 0.001146 0.0 0.0
vt 0.998892 1.000000 0.0
vt 1.000000 0.0 0.0
# 4 texture vertices

vn  0.337460 -0.941332 0.003947 
vn  0.342692 -0.939448 0.0 
# 2 normals

usemtl surface__5

o IndexedFaceSet__5_0
g IndexedFaceSet__5_0

s off
f 21/22/6 23/24/6 24/23/6
f 24/23/7 22/21/7 21/22/7
# 2 polygons

# Coordinates for object 'IndexedFaceSet #6'
v  203499.562500 443573.875000 -0.847888 
v  203499.578125 443573.875000 11.568802 
v  203504.562500 443575.687500 -0.849515 
v  203504.562500 443575.687500 11.567176 
# 4 vertices

vt 0.0 1.000000 0.0
vt 0.000182 0.0 0.0
vt 0.999782 0.999984 0.0
vt 1.000000 0.000072 0.0
# 4 texture vertices

vn  0.340799 -0.940136 0.0 
vn  0.341743 -0.939793 -0.000430 
# 2 normals

usemtl surface__6

o IndexedFaceSet__6_0
g IndexedFaceSet__6_0

s off
f 25/28/8 27/26/8 28/25/8
f 28/25/9 26/27/9 25/28/9
# 2 polygons

# Coordinates for object 'IndexedFaceSet #7'
v  203498.125000 443577.906250 11.574894 
v  203499.578125 443573.875000 11.568802 
v  203503.093750 443579.687500 11.573267 
v  203504.562500 443575.687500 11.567176 
# 4 vertices

vt 0.0 0.0 0.0
vt 0.0 1.000000 0.0
vt 0.995625 0.999988 0.0
vt 0.999999 0.0 0.0
# 4 texture vertices

vn  0.000776 -0.001238 0.999999 
# 1 normals

usemtl surface

o IndexedFaceSet__7_0
g IndexedFaceSet__7_0

s off
f 32/32/10 31/31/10 30/29/10
f 29/30/10 30/29/10 31/31/10
# 2 polygons

# Coordinates for object 'IndexedFaceSet #8'
v  203499.593750 443587.968750 19.018148 
v  203499.625000 443587.968750 24.809679 
v  203502.390625 443580.250000 19.018145 
v  203502.421875 443580.281250 24.809679 
# 4 vertices

vt 0.0 0.999778 0.0
vt 0.0 0.0 0.0
vt 0.999994 1.000000 0.0
vt 1.000000 0.000222 0.0
# 4 texture vertices

vn  -0.940170 -0.340669 0.005073 
vn  -0.939715 -0.341888 0.006915 
# 2 normals

usemtl surface__7

o IndexedFaceSet__8_0
g IndexedFaceSet__8_0

s off
f 34/33/11 33/34/11 35/36/11
f 35/36/12 36/35/12 34/33/12
# 2 polygons

# Coordinates for object 'IndexedFaceSet #9'
v  203494.890625 443586.843750 19.025721 
v  203496.078125 443589.125000 19.025721 
v  203498.125000 443577.906250 19.025721 
v  203499.265625 443590.281250 19.025721 
v  203499.453125 443589.750000 19.025724 
v  203503.093750 443579.718750 19.025719 
# 6 vertices

vt 0.0 0.357560 0.0
vt 0.0 1.000000 0.0
vt 0.049018 1.000000 0.0
vt 0.155481 0.0 0.0
vt 1.000000 0.0 0.0
vt 1.000000 0.998600 0.0
# 6 texture vertices

vn  -0.000002 0.000006 1.0 
# 1 normals

usemtl surface

o IndexedFaceSet__9_0
g IndexedFaceSet__9_0

s off
f 40/38/13 38/37/13 41/39/13
f 41/39/13 38/37/13 37/40/13
f 42/42/13 37/40/13 39/41/13
f 37/40/13 42/42/13 41/39/13
# 4 polygons

# Coordinates for object 'IndexedFaceSet #10'
v  203499.265625 443590.281250 -0.841792 
v  203499.265625 443590.281250 19.025721 
v  203499.453125 443589.750000 -0.841790 
v  203499.453125 443589.750000 19.025724 
# 4 vertices

vt 0.0 1.000000 0.0
vt 0.000727 0.0 0.0
vt 0.999136 0.999998 0.0
vt 1.000000 0.0 0.0
# 4 texture vertices

vn  0.942990 0.332820 0.0 
# 1 normals

usemtl surface__8

o IndexedFaceSet__10_0
g IndexedFaceSet__10_0

s off
f 44/45/14 46/43/14 45/44/14
f 45/44/14 43/46/14 44/45/14
# 2 polygons

# Coordinates for object 'IndexedFaceSet #11'
v  203496.078125 443589.125000 -0.841791 
v  203496.078125 443589.125000 19.025721 
v  203499.265625 443590.281250 -0.841792 
v  203499.265625 443590.281250 19.025721 
# 4 vertices

vt 0.0 1.000000 0.0
vt 0.000209 0.0 0.0
vt 0.999789 0.999999 0.0
vt 1.000000 0.0 0.0
# 4 texture vertices

vn  -0.341003 0.940062 0.0 
# 1 normals

usemtl surface__9

o IndexedFaceSet__11_0
g IndexedFaceSet__11_0

s off
f 50/47/15 49/48/15 48/49/15
f 47/50/15 48/49/15 49/48/15
# 2 polygons

# Coordinates for object 'IndexedFaceSet #12'
v  203494.890625 443586.843750 -0.841792 
v  203494.890625 443586.843750 19.025721 
v  203496.078125 443589.125000 -0.841791 
v  203496.078125 443589.125000 19.025721 
# 4 vertices

vt 0.0 0.999992 0.0
vt 0.000118 0.0 0.0
vt 0.999882 1.000000 0.0
vt 1.000000 0.0 0.0
# 4 texture vertices

vn  -0.887018 0.461735 0.0 
# 1 normals

usemtl surface__10

o IndexedFaceSet__12_0
g IndexedFaceSet__12_0

s off
f 54/51/16 53/52/16 52/53/16
f 51/54/16 52/53/16 53/52/16
# 2 polygons

# Coordinates for object 'IndexedFaceSet #13'
v  203494.890625 443586.843750 -0.841792 
v  203494.890625 443586.843750 19.025721 
v  203498.125000 443577.906250 -0.841794 
v  203498.125000 443577.906250 19.025721 
# 4 vertices

vt 0.0 1.000000 0.0
vt 0.000182 0.0 0.0
vt 0.999782 0.999984 0.0
vt 1.000000 0.000072 0.0
# 4 texture vertices

vn  -0.940320 -0.340291 0.0 
# 1 normals

usemtl surface__6

o IndexedFaceSet__13_0
g IndexedFaceSet__13_0

s off
f 56/55/17 55/56/17 58/57/17
f 57/58/17 58/57/17 55/56/17
# 2 polygons

# Coordinates for object 'IndexedFaceSet #14'
v  203502.390625 443580.250000 19.018145 
v  203502.421875 443580.281250 24.809679 
v  203502.812500 443580.406250 19.014759 
v  203502.843750 443580.437500 23.307486 
v  203503.281250 443580.593750 23.310871 
v  203503.281250 443580.593750 24.809679 
# 6 vertices

vt 0.0 0.998806 0.0
vt 0.012267 0.0 0.0
vt 0.495921 0.740333 0.0
vt 0.496055 0.0 0.0
vt 0.987865 1.000000 0.0
vt 0.999999 0.741527 0.0
# 6 texture vertices

vn  0.336336 -0.941742 0.0 
vn  0.341743 -0.939792 -0.001777 
vn  0.347341 -0.937729 0.004298 
vn  0.357043 -0.934083 0.003114 
# 4 normals

usemtl surface__5

o IndexedFaceSet__14_0
g IndexedFaceSet__14_0

s off
f 59/60/20 61/62/20 62/61/20
f 59/60/21 62/61/21 60/59/21
f 64/63/19 60/59/19 62/61/19
f 64/63/18 62/61/18 63/64/18
# 4 polygons

# Coordinates for object 'IndexedFaceSet #15'
v  203498.125000 443577.906250 -0.841794 
v  203498.125000 443577.906250 11.574894 
v  203499.562500 443573.875000 -0.847888 
v  203499.578125 443573.875000 11.568802 
# 4 vertices

vt 0.0 1.000000 0.0
vt 0.000182 0.0 0.0
vt 0.999782 0.999984 0.0
vt 1.000000 0.000072 0.0
# 4 texture vertices

vn  -0.941906 -0.335875 0.001185 
vn  -0.940748 -0.339107 0.0 
# 2 normals

usemtl surface__6

o IndexedFaceSet__15_0
g IndexedFaceSet__15_0

s off
f 66/65/23 65/66/23 68/67/23
f 67/68/22 68/67/22 65/66/22
# 2 polygons

# Coordinates for object 'IndexedFaceSet #16'
v  203528.890625 443587.687500 25.222036 
v  203530.703125 443582.656250 25.222034 
v  203532.375000 443588.937500 25.222036 
v  203534.218750 443583.906250 25.222034 
# 4 vertices

vt 0.0 0.995437 0.0
vt 0.000346 0.0 0.0
vt 0.997267 0.0 0.0
vt 1.000000 0.999999 0.0
# 4 texture vertices

vn  0.0 0.0 1.0 
# 1 normals

usemtl surface

o IndexedFaceSet__16_0
g IndexedFaceSet__16_0

s off
f 72/72/24 71/69/24 70/71/24
f 69/70/24 70/71/24 71/69/24
# 2 polygons

# Coordinates for object 'IndexedFaceSet #17'
v  203528.890625 443587.687500 23.307480 
v  203528.890625 443587.687500 25.222036 
v  203532.375000 443588.937500 23.307480 
v  203532.375000 443588.937500 25.222036 
# 4 vertices

vt 0.0 0.0 0.0
vt 0.0 1.000000 0.0
vt 1.000000 0.0 0.0
vt 1.000000 0.999999 0.0
# 4 texture vertices

vn  -0.337673 0.941263 0.0 
# 1 normals

usemtl surface__5

o IndexedFaceSet__17_0
g IndexedFaceSet__17_0

s off
f 76/74/25 75/73/25 73/75/25
f 73/75/25 74/76/25 76/74/25
# 2 polygons

# Coordinates for object 'IndexedFaceSet #18'
v  203528.890625 443587.687500 23.307480 
v  203528.890625 443587.687500 25.222036 
v  203530.703125 443582.656250 23.307476 
v  203530.703125 443582.656250 25.222034 
# 4 vertices

vt 0.0 0.0 0.0
vt 0.0 1.000000 0.0
vt 1.000000 0.0 0.0
vt 1.000000 0.999998 0.0
# 4 texture vertices

vn  -0.940813 -0.338926 0.0 
# 1 normals

usemtl surface__5

o IndexedFaceSet__18_0
g IndexedFaceSet__18_0

s off
f 78/78/26 77/77/26 80/80/26
f 79/79/26 80/80/26 77/77/26
# 2 polygons

# Coordinates for object 'IndexedFaceSet #19'
v  203530.703125 443582.656250 23.307476 
v  203530.703125 443582.656250 25.222034 
v  203534.218750 443583.906250 23.307478 
v  203534.218750 443583.906250 25.222034 
# 4 vertices

vt 0.0 0.0 0.0
vt 0.0 1.000000 0.0
vt 1.000000 0.0 0.0
vt 1.000000 1.000000 0.0
# 4 texture vertices

vn  0.335010 -0.942215 0.0 
# 1 normals

usemtl surface__5

o IndexedFaceSet__19_0
g IndexedFaceSet__19_0

s off
f 82/82/27 81/81/27 84/84/27
f 83/83/27 84/84/27 81/81/27
# 2 polygons

# Coordinates for object 'IndexedFaceSet #20'
v  203532.375000 443588.937500 23.307480 
v  203532.375000 443588.937500 25.222036 
v  203534.218750 443583.906250 23.307478 
v  203534.218750 443583.906250 25.222034 
# 4 vertices

vt 0.0 0.0 0.0
vt 0.0 1.000000 0.0
vt 1.000000 0.0 0.0
vt 1.000000 1.000000 0.0
# 4 texture vertices

vn  0.938939 0.344083 0.0 
# 1 normals

usemtl surface__5

o IndexedFaceSet__20_0
g IndexedFaceSet__20_0

s off
f 88/86/28 87/85/28 85/87/28
f 85/87/28 86/88/28 88/86/28
# 2 polygons

# Coordinates for object 'IndexedFaceSet #21'
v  203499.421875 443587.906250 18.995190 
v  203499.421875 443587.906250 26.143717 
v  203500.046875 443588.156250 18.995188 
v  203500.046875 443588.156250 23.307325 
v  203502.843750 443589.125000 23.307081 
v  203502.843750 443589.125000 26.143717 
# 6 vertices

vt 0.0 0.0 0.0
vt 0.0 0.999999 0.0
vt 0.182778 0.0 0.0
vt 0.182778 0.603220 0.0
vt 0.999999 1.000000 0.0
vt 1.000000 0.603187 0.0
# 6 texture vertices

vn  0.327292 -0.944923 0.0 
vn  0.335505 -0.941995 -0.009099 
vn  0.371391 -0.928477 0.0 
# 3 normals

usemtl surface

o IndexedFaceSet__21_0
g IndexedFaceSet__21_0

s off
f 89/89/31 91/91/31 92/92/31
f 89/89/31 92/92/31 90/90/31
f 94/93/30 90/90/30 92/92/30
f 94/93/29 92/92/29 93/94/29
# 4 polygons

# Coordinates for object 'IndexedFaceSet #22'
v  203499.218750 443588.468750 26.143877 
v  203499.421875 443587.906250 26.143717 
v  203502.640625 443589.687500 26.143877 
v  203502.843750 443589.125000 26.143717 
# 4 vertices

vt 0.0 0.999999 0.0
vt 0.000338 0.0 0.0
vt 0.999661 1.000000 0.0
vt 1.000000 0.0 0.0
# 4 texture vertices

vn  0.000090 -0.000252 1.000000 
# 1 normals

usemtl surface__5

o IndexedFaceSet__22_0
g IndexedFaceSet__22_0

s off
f 98/98/32 97/97/32 96/96/32
f 95/95/32 96/96/32 97/97/32
# 2 polygons

# Coordinates for object 'IndexedFaceSet #23'
v  203499.218750 443588.468750 18.995352 
v  203499.218750 443588.468750 26.143877 
v  203499.421875 443587.906250 18.995190 
v  203499.421875 443587.906250 26.143717 
# 4 vertices

vt 0.0 1.000000 0.0
vt 0.003461 0.0 0.0
vt 0.996546 1.000000 0.0
vt 1.000000 0.0 0.0
# 4 texture vertices

vn  -0.940554 -0.339644 0.0 
# 1 normals

usemtl surface__5

o IndexedFaceSet__23_0
g IndexedFaceSet__23_0

s off
f 99/100/33 101/102/33 102/101/33
f 102/101/33 100/99/33 99/100/33
# 2 polygons

# Coordinates for object 'IndexedFaceSet #24'
v  203499.625000 443587.968750 24.809679 
v  203500.500000 443588.281250 24.809679 
v  203502.421875 443580.281250 24.809679 
v  203503.281250 443580.593750 24.809679 
# 4 vertices

vt 0.0 0.0 0.0
vt 0.0 1.000000 0.0
vt 0.999811 1.000000 0.0
vt 1.000000 0.0 0.0
# 4 texture vertices

vn  0.0 0.0 1.0 
# 1 normals

usemtl surface__5

o IndexedFaceSet__24_0
g IndexedFaceSet__24_0

s off
f 104/104/34 103/103/34 106/105/34
f 105/106/34 106/105/34 103/103/34
# 2 polygons

# Coordinates for object 'IndexedFaceSet #25'
v  203499.218750 443588.468750 18.995352 
v  203499.218750 443588.468750 26.143877 
v  203499.843750 443588.687500 18.995352 
v  203499.843750 443588.687500 23.307487 
v  203502.640625 443589.687500 23.307243 
v  203502.640625 443589.687500 26.143877 
# 6 vertices

vt 0.0 0.998540 0.0
vt 0.0 0.601889 0.0
vt 0.817289 0.0 0.0
vt 0.817292 0.603206 0.0
vt 0.999977 0.0 0.0
vt 1.000000 1.000000 0.0
# 6 texture vertices

vn  -0.336670 0.941623 0.0 
vn  -0.335519 0.942033 -0.001280 
vn  -0.330350 0.943858 0.0 
# 3 normals

usemtl surface__11

o IndexedFaceSet__25_0
g IndexedFaceSet__25_0

s off
f 112/107/35 111/108/35 110/110/35
f 112/107/36 110/110/36 108/112/36
f 107/111/37 108/112/37 110/110/37
f 107/111/37 110/110/37 109/109/37
# 4 polygons

# Coordinates for object 'IndexedFaceSet #26'
v  203500.500000 443588.281250 23.310875 
v  203500.500000 443588.281250 24.809679 
v  203503.281250 443580.593750 23.310871 
v  203503.281250 443580.593750 24.809679 
# 4 vertices

vt 0.0 0.0 0.0
vt 0.0 0.999999 0.0
vt 1.000000 0.0 0.0
vt 1.000000 0.999992 0.0
# 4 texture vertices

vn  0.940350 0.340208 0.0 
# 1 normals

usemtl surface

o IndexedFaceSet__26_0
g IndexedFaceSet__26_0

s off
f 116/114/38 115/113/38 114/116/38
f 113/115/38 114/116/38 115/113/38
# 2 polygons

# Coordinates for object 'IndexedFaceSet #27'
v  203502.640625 443589.687500 23.307243 
v  203502.640625 443589.687500 26.143877 
v  203502.843750 443589.125000 23.307081 
v  203502.843750 443589.125000 26.143717 
# 4 vertices

vt 0.0 0.0 0.0
vt 0.001384 1.000000 0.0
vt 0.998621 0.0 0.0
vt 1.000000 1.000000 0.0
# 4 texture vertices

vn  0.940554 0.339644 0.0 
# 1 normals

usemtl surface__5

o IndexedFaceSet__27_0
g IndexedFaceSet__27_0

s off
f 118/120/39 120/118/39 117/119/39
f 119/117/39 117/119/39 120/118/39
# 2 polygons

# Coordinates for object 'IndexedFaceSet #28'
v  203521.968750 443598.250000 -0.835234 
v  203521.968750 443598.250000 24.306223 
v  203522.078125 443597.937500 -0.835237 
v  203522.078125 443597.937500 23.307487 
v  203522.078125 443597.937500 24.306223 
# 5 vertices

vt 0.0 0.999999 0.0
vt 0.001844 0.0 0.0
vt 0.991328 0.0 0.0
vt 0.999884 1.000000 0.0
vt 1.000000 0.960278 0.0
# 5 texture vertices

vn  -0.943858 -0.330350 0.0 
# 1 normals

usemtl surface__12

o IndexedFaceSet__28_0
g IndexedFaceSet__28_0

s off
f 121/122/40 123/123/40 124/125/40
f 122/121/40 124/125/40 125/124/40
f 124/125/40 122/121/40 121/122/40
# 3 polygons

# Coordinates for object 'IndexedFaceSet #29'
v  203526.375000 443599.843750 -0.835232 
v  203526.375000 443599.843750 24.306225 
v  203526.484375 443599.531250 -0.835232 
v  203526.484375 443599.531250 23.307486 
v  203526.484375 443599.531250 24.306225 
# 5 vertices

vt 0.0 1.000000 0.0
vt 0.000771 0.960281 0.0
vt 0.018189 0.0 0.0
vt 0.992048 0.999997 0.0
vt 1.000000 0.0 0.0
# 5 texture vertices

vn  0.943858 0.330350 0.0 
# 1 normals

usemtl surface__13

o IndexedFaceSet__29_0
g IndexedFaceSet__29_0

s off
f 130/126/41 129/127/41 127/129/41
f 129/127/41 126/130/41 127/129/41
f 126/130/41 129/127/41 128/128/41
# 3 polygons

# Coordinates for object 'IndexedFaceSet #30'
v  203522.078125 443597.937500 23.307487 
v  203522.078125 443597.937500 24.306223 
v  203526.484375 443599.531250 23.307486 
v  203526.484375 443599.531250 24.306225 
# 4 vertices

vt 0.0 0.0 0.0
vt 0.0 0.999996 0.0
vt 1.000000 0.0 0.0
vt 1.000000 0.999999 0.0
# 4 texture vertices

vn  0.340136 -0.940376 0.0 
# 1 normals

usemtl surface__5

o IndexedFaceSet__30_0
g IndexedFaceSet__30_0

s off
f 132/132/42 131/131/42 134/134/42
f 133/133/42 134/134/42 131/131/42
# 2 polygons

# Coordinates for object 'IndexedFaceSet #31'
v  203521.968750 443598.250000 24.306223 
v  203522.078125 443597.937500 24.306223 
v  203526.375000 443599.843750 24.306225 
v  203526.484375 443599.531250 24.306225 
# 4 vertices

vt 0.0 0.0 0.0
vt 0.0 1.000000 0.0
vt 1.000000 0.0 0.0
vt 1.000000 0.999979 0.0
# 4 texture vertices

vn  0.0 0.0 1.0 
# 1 normals

usemtl surface__5

o IndexedFaceSet__31_0
g IndexedFaceSet__31_0

s off
f 138/137/43 137/138/43 136/135/43
f 135/136/43 136/135/43 137/138/43
# 2 polygons

# Coordinates for object 'IndexedFaceSet #32'
v  203521.968750 443598.250000 -0.835234 
v  203521.968750 443598.250000 24.306223 
v  203526.375000 443599.843750 -0.835232 
v  203526.375000 443599.843750 24.306225 
# 4 vertices

vt 0.0 1.000000 0.0
vt 0.000182 0.0 0.0
vt 0.999814 1.000000 0.0
vt 1.000000 0.0 0.0
# 4 texture vertices

vn  -0.340136 0.940376 0.0 
# 1 normals

usemtl surface__14

o IndexedFaceSet__32_0
g IndexedFaceSet__32_0

s off
f 142/139/44 141/140/44 140/141/44
f 139/142/44 140/141/44 141/140/44
# 2 polygons
