# Converted by Daum Communications 
# Date/time of export: 08/22/2013 14:52:36
#
# Bounding box of geometry = (202782,443443,-1.8747) to (202833,443488,95.6109).

mtllib 3687251.mtl

# Coordinates for object 'IndexedFaceSet'
v  202782.312500 443473.031250 -1.874679 
v  202782.312500 443473.031250 89.743774 
v  202792.937500 443444.250000 -1.874700 
v  202792.937500 443444.250000 90.682228 
# 4 vertices

vt 0.0 1.000000 0.0
vt 0.010122 0.000110 0.0
vt 0.999998 0.999876 0.0
vt 1.000000 0.0 0.0
# 4 texture vertices

vn  -0.938117 -0.346319 0.0 
# 1 normals

usemtl surface

o IndexedFaceSet
g IndexedFaceSet

s off
f 4/1/1 2/2/1 3/3/1
f 1/4/1 3/3/1 2/2/1
# 2 polygons

# Coordinates for object 'IndexedFaceSet #1'
v  202821.515625 443487.468750 -1.874671 
v  202821.750000 443486.843750 89.743774 
v  202832.343750 443458.125000 -1.874693 
v  202832.375000 443458.062500 90.682228 
# 4 vertices

vt 0.0 1.000000 0.0
vt 0.009948 0.000096 0.0
vt 0.999997 0.999869 0.0
vt 1.000000 0.0 0.0
# 4 texture vertices

vn  0.938118 0.346317 -0.000083 
vn  0.938164 0.346191 -0.000038 
# 2 normals

usemtl surface__2

o IndexedFaceSet__1_0
g IndexedFaceSet__1_0

s off
f 7/7/3 5/8/3 6/6/3
f 6/6/2 8/5/2 7/7/2
# 2 polygons

# Coordinates for object 'IndexedFaceSet #2'
v  202782.312500 443473.031250 -1.874679 
v  202782.312500 443473.031250 89.743774 
v  202821.515625 443487.468750 -1.874671 
v  202821.750000 443486.843750 89.743774 
# 4 vertices

vt 0.0 0.000273 0.0
vt 0.025815 0.974819 0.0
vt 0.987284 1.000000 0.0
vt 1.000000 0.0 0.0
# 4 texture vertices

vn  -0.345584 0.938388 0.0 
vn  -0.330542 0.943763 0.007284 
# 2 normals

usemtl surface__3

o IndexedFaceSet__2_0
g IndexedFaceSet__2_0

s off
f 10/11/5 12/10/5 11/9/5
f 11/9/4 9/12/4 10/11/4
# 2 polygons

# Coordinates for object 'IndexedFaceSet #3'
v  202792.937500 443444.250000 -1.874700 
v  202792.937500 443444.250000 90.682228 
v  202832.343750 443458.125000 -1.874693 
v  202832.375000 443458.062500 90.682228 
# 4 vertices

vt 0.0 0.997602 0.0
vt 0.000916 0.0 0.0
vt 0.997509 0.000060 0.0
vt 1.000000 1.000000 0.0
# 4 texture vertices

vn  0.330550 -0.943788 -0.000749 
vn  0.332116 -0.943239 0.0 
# 2 normals

usemtl surface__4

o IndexedFaceSet__3_0
g IndexedFaceSet__3_0

s off
f 16/16/6 14/13/6 15/15/6
f 13/14/7 15/15/7 14/13/7
# 2 polygons

# Coordinates for object 'IndexedFaceSet #4'
v  202782.312500 443473.031250 89.743774 
v  202792.937500 443444.250000 90.682228 
v  202821.750000 443486.843750 89.743774 
v  202832.375000 443458.062500 90.682228 
# 4 vertices

vt 0.0 0.0 0.0
vt 0.012039 1.000000 0.0
vt 0.987947 0.000095 0.0
vt 1.000000 0.999835 0.0
# 4 texture vertices

vn  0.010108 -0.028860 -0.999532 
# 1 normals

usemtl surface__5

o IndexedFaceSet__4_0
g IndexedFaceSet__4_0

s off
f 18/18/8 17/17/8 19/19/8
f 19/19/8 20/20/8 18/18/8
# 2 polygons

# Coordinates for object 'IndexedFaceSet #5'
v  202781.640625 443473.500000 90.412064 
v  202792.765625 443443.312500 91.385887 
v  202821.703125 443487.656250 90.412056 
v  202832.921875 443457.281250 91.385887 
# 4 vertices

vt 0.0 0.0 0.0
vt 0.0 1.000000 0.0
vt 1.000000 0.0 0.0
vt 1.000000 1.000000 0.0
# 4 texture vertices

vn  -0.010081 0.028529 0.999542 
vn  -0.009878 0.028397 0.999548 
# 2 normals

usemtl surface__6

o IndexedFaceSet__5_0
g IndexedFaceSet__5_0

s off
f 24/22/10 23/21/10 22/24/10
f 21/23/9 22/24/9 23/21/9
# 2 polygons

# Coordinates for object 'IndexedFaceSet #6'
v  202781.640625 443473.500000 90.412064 
v  202782.312500 443473.031250 89.743774 
v  202792.765625 443443.312500 91.385887 
v  202792.937500 443444.250000 90.682228 
# 4 vertices

vt 0.0 1.000000 0.0
vt 0.020467 0.0 0.0
vt 0.974630 0.001114 0.0
vt 1.000000 0.995641 0.0
# 4 texture vertices

vn  -0.769930 -0.302550 -0.561847 
vn  -0.757022 -0.297747 -0.581605 
# 2 normals

usemtl surface__7

o IndexedFaceSet__6_0
g IndexedFaceSet__6_0

s off
f 27/28/12 25/25/12 28/27/12
f 26/26/11 28/27/11 25/25/11
# 2 polygons

# Coordinates for object 'IndexedFaceSet #7'
v  202792.765625 443443.312500 91.385887 
v  202792.937500 443444.250000 90.682228 
v  202832.375000 443458.062500 90.682228 
v  202832.921875 443457.281250 91.385887 
# 4 vertices

vt 0.0 0.874559 0.0
vt 0.011281 0.0 0.0
vt 0.993166 0.032874 0.0
vt 1.000000 1.000000 0.0
# 4 texture vertices

vn  0.201077 -0.574117 -0.793699 
vn  0.212612 -0.611201 -0.762384 
# 2 normals

usemtl surface__8

o IndexedFaceSet__7_0
g IndexedFaceSet__7_0

s off
f 29/29/14 30/30/14 32/32/14
f 31/31/13 32/32/13 30/30/13
# 2 polygons

# Coordinates for object 'IndexedFaceSet #8'
v  202821.703125 443487.656250 90.412056 
v  202821.750000 443486.843750 89.743774 
v  202832.375000 443458.062500 90.682228 
v  202832.921875 443457.281250 91.385887 
# 4 vertices

vt 0.0 0.0 0.0
vt 0.0 0.999590 0.0
vt 0.999996 0.000404 0.0
vt 1.000000 1.000000 0.0
# 4 texture vertices

vn  0.886500 0.316602 -0.337463 
vn  0.890754 0.318255 -0.324456 
# 2 normals

usemtl surface__9

o IndexedFaceSet__8_0
g IndexedFaceSet__8_0

s off
f 35/35/16 34/33/16 33/34/16
f 33/34/15 36/36/15 35/35/15
# 2 polygons

# Coordinates for object 'IndexedFaceSet #9'
v  202781.640625 443473.500000 90.412064 
v  202782.312500 443473.031250 89.743774 
v  202821.703125 443487.656250 90.412056 
v  202821.750000 443486.843750 89.743774 
# 4 vertices

vt 0.0 0.0 0.0
vt 0.011899 0.866512 0.0
vt 0.993453 1.000000 0.0
vt 1.000000 0.002331 0.0
# 4 texture vertices

vn  -0.236021 0.667943 -0.705795 
vn  -0.214697 0.613002 -0.760351 
# 2 normals

usemtl surface__10

o IndexedFaceSet__9_0
g IndexedFaceSet__9_0

s off
f 38/38/17 37/37/17 39/40/17
f 39/40/18 40/39/18 38/38/18
# 2 polygons

# Coordinates for object 'IndexedFaceSet #10'
v  202782.265625 443473.156250 94.672485 
v  202792.890625 443444.375000 95.610931 
v  202821.703125 443486.968750 94.672478 
v  202832.328125 443458.187500 95.610931 
# 4 vertices

vt 0.0 0.0 0.0
vt 0.0 1.000000 0.0
vt 1.000000 0.0 0.0
vt 1.000000 1.000000 0.0
# 4 texture vertices

vn  -0.010108 0.028860 0.999532 
# 1 normals

usemtl surface__6

o IndexedFaceSet__10_0
g IndexedFaceSet__10_0

s off
f 44/42/19 43/41/19 42/44/19
f 41/43/19 42/44/19 43/41/19
# 2 polygons

# Coordinates for object 'IndexedFaceSet #11'
v  202821.703125 443486.968750 94.672478 
v  202821.750000 443486.843750 89.743774 
v  202832.328125 443458.187500 95.610931 
v  202832.375000 443458.062500 90.682228 
# 4 vertices

vt 0.0 0.0 0.0
vt 0.000017 0.999868 0.0
vt 0.999980 0.000113 0.0
vt 1.000000 1.000000 0.0
# 4 texture vertices

vn  0.938115 0.346323 0.000139 
# 1 normals

usemtl surface__11

o IndexedFaceSet__11_0
g IndexedFaceSet__11_0

s off
f 48/47/20 46/45/20 45/46/20
f 45/46/20 47/48/20 48/47/20
# 2 polygons

# Coordinates for object 'IndexedFaceSet #12'
v  202792.890625 443444.375000 95.610931 
v  202792.937500 443444.250000 90.682228 
v  202832.328125 443458.187500 95.610931 
v  202832.375000 443458.062500 90.682228 
# 4 vertices

vt 0.0 0.988826 0.0
vt 0.000155 0.0 0.0
vt 0.999937 1.000000 0.0
vt 1.000000 0.010716 0.0
# 4 texture vertices

vn  0.330429 -0.943443 0.027070 
# 1 normals

usemtl surface__12

o IndexedFaceSet__12_0
g IndexedFaceSet__12_0

s off
f 49/52/21 50/51/21 51/50/21
f 52/49/21 51/50/21 50/51/21
# 2 polygons

# Coordinates for object 'IndexedFaceSet #13'
v  202782.265625 443473.156250 94.672485 
v  202782.312500 443473.031250 89.743774 
v  202792.890625 443444.375000 95.610931 
v  202792.937500 443444.250000 90.682228 
# 4 vertices

vt 0.0 1.000000 0.0
vt 0.000118 0.000017 0.0
vt 0.999954 0.999980 0.0
vt 1.000000 0.0 0.0
# 4 texture vertices

vn  -0.938115 -0.346323 -0.000139 
# 1 normals

usemtl surface__13

o IndexedFaceSet__13_0
g IndexedFaceSet__13_0

s off
f 55/53/22 53/54/22 54/56/22
f 54/56/22 56/55/22 55/53/22
# 2 polygons

# Coordinates for object 'IndexedFaceSet #14'
v  202782.265625 443473.156250 94.672485 
v  202782.312500 443473.031250 89.743774 
v  202821.703125 443486.968750 94.672478 
v  202821.750000 443486.843750 89.743774 
# 4 vertices

vt 0.0 0.999967 0.0
vt 0.004153 0.0 0.0
vt 0.995547 1.000000 0.0
vt 1.000000 0.0 0.0
# 4 texture vertices

vn  -0.330429 0.943443 -0.027070 
# 1 normals

usemtl surface__14

o IndexedFaceSet__14_0
g IndexedFaceSet__14_0

s off
f 58/58/23 57/60/23 59/59/23
f 59/59/23 60/57/23 58/58/23
# 2 polygons
