# Converted by Daum Communications 
# Date/time of export: 08/22/2013 14:52:38
#
# Bounding box of geometry = (203842,443776,-1.49283) to (203862,443798,23.1143).

mtllib 3687459.mtl

# Coordinates for object 'IndexedFaceSet'
v  203841.953125 443793.000000 20.608473 
v  203843.625000 443787.812500 20.608473 
v  203843.984375 443787.937500 20.608477 
v  203846.796875 443779.906250 20.608469 
v  203847.031250 443780.000000 20.608469 
v  203848.812500 443775.593750 20.608465 
v  203852.234375 443776.968750 20.608473 
v  203854.703125 443798.125000 20.608477 
v  203856.750000 443793.062500 20.608477 
v  203857.171875 443793.218750 20.608477 
v  203859.953125 443785.187500 20.608477 
v  203860.328125 443785.343750 20.608477 
v  203861.734375 443780.781250 20.608477 
# 13 vertices

vt 0.0 0.968405 0.0
vt 0.000991 0.026698 0.0
vt 0.291036 0.0 0.0
vt 0.291036 0.026698 0.0
vt 0.292482 0.968405 0.0
vt 0.292482 1.000000 0.0
vt 0.745057 0.971909 0.0
vt 0.745057 1.000000 0.0
vt 0.745629 0.018167 0.0
vt 0.745630 0.0 0.0
vt 0.999680 0.018167 0.0
vt 0.999999 0.971909 0.0
vt 1.000000 0.270279 0.0
# 13 texture vertices

vn  0.0 0.0 1.0 
# 1 normals

usemtl surface

o IndexedFaceSet
g IndexedFaceSet

s off
f 9/5/1 3/4/1 11/7/1
f 1/2/1 3/4/1 8/1/1
f 9/5/1 8/1/1 3/4/1
f 10/6/1 9/5/1 11/7/1
f 3/4/1 2/3/1 5/9/1
f 5/9/1 11/7/1 3/4/1
f 5/9/1 6/11/1 7/13/1
f 11/7/1 12/8/1 10/6/1
f 7/13/1 13/12/1 11/7/1
f 11/7/1 5/9/1 7/13/1
f 5/9/1 2/3/1 4/10/1
# 11 polygons

# Coordinates for object 'IndexedFaceSet #1'
v  203847.031250 443780.000000 -1.492830 
v  203847.031250 443780.000000 20.608469 
v  203848.812500 443775.593750 -1.492822 
v  203848.812500 443775.593750 20.608465 
# 4 vertices

vt 0.0 1.000000 0.0
vt 0.000153 0.000751 0.0
vt 0.999987 0.999129 0.0
vt 1.000000 0.0 0.0
# 4 texture vertices

vn  -0.927110 -0.374789 0.0 
# 1 normals

usemtl surface__2

o IndexedFaceSet__1_0
g IndexedFaceSet__1_0

s off
f 17/15/2 15/14/2 16/17/2
f 14/16/2 16/17/2 15/14/2
# 2 polygons

# Coordinates for object 'IndexedFaceSet #2'
v  203846.796875 443779.906250 -1.492825 
v  203846.796875 443779.906250 20.608469 
v  203847.031250 443780.000000 -1.492830 
v  203847.031250 443780.000000 20.608469 
# 4 vertices

vt 0.0 0.004296 0.0
vt 0.0 1.000000 0.0
vt 1.000000 0.0 0.0
vt 1.000000 0.995687 0.0
# 4 texture vertices

vn  0.371391 -0.928477 0.0 
# 1 normals

usemtl surface__3

o IndexedFaceSet__2_0
g IndexedFaceSet__2_0

s off
f 21/19/3 19/18/3 18/20/3
f 18/20/3 20/21/3 21/19/3
# 2 polygons

# Coordinates for object 'IndexedFaceSet #3'
v  203843.625000 443787.812500 -1.492826 
v  203843.625000 443787.812500 20.608473 
v  203846.796875 443779.906250 -1.492825 
v  203846.796875 443779.906250 20.608469 
# 4 vertices

vt 0.0 1.000000 0.0
vt 0.000141 0.000085 0.0
vt 0.999912 0.999893 0.0
vt 1.000000 0.0 0.0
# 4 texture vertices

vn  -0.928097 -0.372339 0.0 
# 1 normals

usemtl surface__4

o IndexedFaceSet__3_0
g IndexedFaceSet__3_0

s off
f 25/23/4 23/22/4 22/24/4
f 22/24/4 24/25/4 25/23/4
# 2 polygons

# Coordinates for object 'IndexedFaceSet #4'
v  203843.625000 443787.812500 -1.492826 
v  203843.625000 443787.812500 20.608473 
v  203843.984375 443787.937500 -1.492817 
v  203843.984375 443787.937500 20.608477 
# 4 vertices

vt 0.0 0.000320 0.0
vt 0.0 1.000000 0.0
vt 1.000000 0.0 0.0
vt 1.000000 0.999675 0.0
# 4 texture vertices

vn  -0.328521 0.944497 0.0 
# 1 normals

usemtl surface__5

o IndexedFaceSet__4_0
g IndexedFaceSet__4_0

s off
f 28/29/5 26/28/5 27/26/5
f 27/26/5 29/27/5 28/29/5
# 2 polygons

# Coordinates for object 'IndexedFaceSet #5'
v  203841.953125 443793.000000 -1.492819 
v  203841.953125 443793.000000 20.608473 
v  203843.984375 443787.937500 -1.492817 
v  203843.984375 443787.937500 20.608477 
# 4 vertices

vt 0.0 1.000000 0.0
vt 0.000191 0.000816 0.0
vt 0.999951 0.999084 0.0
vt 1.000000 0.0 0.0
# 4 texture vertices

vn  -0.928081 -0.372378 0.0 
# 1 normals

usemtl surface__6

o IndexedFaceSet__5_0
g IndexedFaceSet__5_0

s off
f 33/31/6 31/30/6 32/33/6
f 30/32/6 32/33/6 31/30/6
# 2 polygons

# Coordinates for object 'IndexedFaceSet #6'
v  203841.953125 443793.000000 -1.492819 
v  203841.953125 443793.000000 20.608473 
v  203854.703125 443798.125000 -1.492821 
v  203854.703125 443798.125000 20.608477 
# 4 vertices

vt 0.0 1.000000 0.0
vt 0.000191 0.000816 0.0
vt 0.999951 0.999084 0.0
vt 1.000000 0.0 0.0
# 4 texture vertices

vn  -0.372959 0.927848 0.0 
# 1 normals

usemtl surface__6

o IndexedFaceSet__6_0
g IndexedFaceSet__6_0

s off
f 34/37/7 35/35/7 36/36/7
f 37/34/7 36/36/7 35/35/7
# 2 polygons

# Coordinates for object 'IndexedFaceSet #7'
v  203854.703125 443798.125000 -1.492821 
v  203854.703125 443798.125000 20.608477 
v  203856.750000 443793.062500 -1.492820 
v  203856.750000 443793.062500 20.608477 
# 4 vertices

vt 0.0 1.000000 0.0
vt 0.000191 0.000816 0.0
vt 0.999951 0.999084 0.0
vt 1.000000 0.0 0.0
# 4 texture vertices

vn  0.927089 0.374842 0.0 
# 1 normals

usemtl surface__6

o IndexedFaceSet__7_0
g IndexedFaceSet__7_0

s off
f 39/38/8 41/39/8 40/41/8
f 40/41/8 38/40/8 39/38/8
# 2 polygons

# Coordinates for object 'IndexedFaceSet #8'
v  203856.750000 443793.062500 -1.492820 
v  203856.750000 443793.062500 20.608477 
v  203857.171875 443793.218750 -1.492821 
v  203857.171875 443793.218750 20.608477 
# 4 vertices

vt 0.0 0.002601 0.0
vt 0.0 1.000000 0.0
vt 0.999999 0.0 0.0
vt 1.000000 0.997403 0.0
# 4 texture vertices

vn  -0.347314 0.937749 0.0 
# 1 normals

usemtl surface__7

o IndexedFaceSet__8_0
g IndexedFaceSet__8_0

s off
f 44/45/9 42/44/9 45/43/9
f 43/42/9 45/43/9 42/44/9
# 2 polygons

# Coordinates for object 'IndexedFaceSet #9'
v  203857.171875 443793.218750 -1.492821 
v  203857.171875 443793.218750 20.608477 
v  203860.328125 443785.343750 -1.492820 
v  203860.328125 443785.343750 20.608477 
# 4 vertices

vt 0.0 1.000000 0.0
vt 0.000141 0.000085 0.0
vt 0.999912 0.999893 0.0
vt 1.000000 0.0 0.0
# 4 texture vertices

vn  0.928222 0.372026 0.0 
# 1 normals

usemtl surface__4

o IndexedFaceSet__9_0
g IndexedFaceSet__9_0

s off
f 47/46/10 49/47/10 46/48/10
f 48/49/10 46/48/10 49/47/10
# 2 polygons

# Coordinates for object 'IndexedFaceSet #10'
v  203859.953125 443785.187500 -1.492821 
v  203859.953125 443785.187500 20.608477 
v  203860.328125 443785.343750 -1.492820 
v  203860.328125 443785.343750 20.608477 
# 4 vertices

vt 0.0 0.002601 0.0
vt 0.0 1.000000 0.0
vt 0.999999 0.0 0.0
vt 1.000000 0.997403 0.0
# 4 texture vertices

vn  0.384615 -0.923077 0.0 
# 1 normals

usemtl surface__7

o IndexedFaceSet__10_0
g IndexedFaceSet__10_0

s off
f 53/51/11 51/50/11 52/53/11
f 50/52/11 52/53/11 51/50/11
# 2 polygons

# Coordinates for object 'IndexedFaceSet #11'
v  203859.953125 443785.187500 -1.492821 
v  203859.953125 443785.187500 20.608477 
v  203861.734375 443780.781250 -1.492821 
v  203861.734375 443780.781250 20.608477 
# 4 vertices

vt 0.0 1.000000 0.0
vt 0.000153 0.000751 0.0
vt 0.999987 0.999129 0.0
vt 1.000000 0.0 0.0
# 4 texture vertices

vn  0.927110 0.374789 0.0 
# 1 normals

usemtl surface__2

o IndexedFaceSet__11_0
g IndexedFaceSet__11_0

s off
f 55/54/12 57/55/12 56/57/12
f 56/57/12 54/56/12 55/54/12
# 2 polygons

# Coordinates for object 'IndexedFaceSet #12'
v  203848.812500 443775.593750 -1.492822 
v  203848.812500 443775.593750 20.608465 
v  203852.234375 443776.968750 20.608473 
v  203861.734375 443780.781250 -1.492821 
v  203861.734375 443780.781250 20.608477 
# 5 vertices

vt 0.0 0.264431 0.0
vt 0.000118 0.000073 0.0
vt 0.000213 1.000000 0.0
vt 0.999974 0.999912 0.0
vt 1.000000 0.0 0.0
# 5 texture vertices

vn  0.372443 -0.928055 0.0 
vn  0.372551 -0.928012 0.000054 
vn  0.372851 -0.927891 0.0 
# 3 normals

usemtl surface__8

o IndexedFaceSet__12_0
g IndexedFaceSet__12_0

s off
f 60/58/15 59/59/15 58/62/15
f 60/58/13 61/61/13 62/60/13
f 61/61/14 60/58/14 58/62/14
# 3 polygons

# Coordinates for object 'IndexedFaceSet #13'
v  203847.031250 443780.000000 23.114275 
v  203848.812500 443775.593750 23.114273 
v  203850.468750 443781.343750 23.114281 
v  203852.234375 443776.968750 23.114283 
# 4 vertices

vt 0.0 0.0 0.0
vt 0.007910 0.999999 0.0
vt 0.998742 0.0 0.0
vt 1.000000 1.000000 0.0
# 4 texture vertices

vn  -0.000001 0.0 1.0 
# 1 normals

usemtl surface__9

o IndexedFaceSet__13_0
g IndexedFaceSet__13_0

s off
f 65/64/16 63/63/16 64/65/16
f 64/65/16 66/66/16 65/64/16
# 2 polygons

# Coordinates for object 'IndexedFaceSet #14'
v  203847.031250 443780.000000 20.608469 
v  203847.031250 443780.000000 23.114275 
v  203850.468750 443781.343750 20.608473 
v  203850.468750 443781.343750 23.114281 
# 4 vertices

vt 0.0 0.0 0.0
vt 0.000034 0.999959 0.0
vt 0.999963 0.000040 0.0
vt 1.000000 1.000000 0.0
# 4 texture vertices

vn  -0.364080 0.931368 0.0 
# 1 normals

usemtl surface__10

o IndexedFaceSet__14_0
g IndexedFaceSet__14_0

s off
f 67/67/17 68/68/17 70/70/17
f 70/70/17 69/69/17 67/67/17
# 2 polygons

# Coordinates for object 'IndexedFaceSet #15'
v  203850.468750 443781.343750 20.608473 
v  203850.468750 443781.343750 23.114281 
v  203852.234375 443776.968750 20.608473 
v  203852.234375 443776.968750 23.114283 
# 4 vertices

vt 0.0 0.0 0.0
vt 0.000012 0.999593 0.0
vt 0.999985 0.000385 0.0
vt 1.000000 1.000000 0.0
# 4 texture vertices

vn  0.927330 0.374244 0.0 
# 1 normals

usemtl surface__11

o IndexedFaceSet__15_0
g IndexedFaceSet__15_0

s off
f 72/74/18 74/72/18 73/71/18
f 73/71/18 71/73/18 72/74/18
# 2 polygons

# Coordinates for object 'IndexedFaceSet #16'
v  203848.812500 443775.593750 20.608465 
v  203848.812500 443775.593750 23.114273 
v  203852.234375 443776.968750 20.608473 
v  203852.234375 443776.968750 23.114283 
# 4 vertices

vt 0.0 0.0 0.0
vt 0.000034 0.999959 0.0
vt 0.999963 0.000040 0.0
vt 1.000000 1.000000 0.0
# 4 texture vertices

vn  0.372851 -0.927891 0.0 
# 1 normals

usemtl surface__10

o IndexedFaceSet__16_0
g IndexedFaceSet__16_0

s off
f 78/78/19 76/76/19 77/77/19
f 75/75/19 77/77/19 76/76/19
# 2 polygons

# Coordinates for object 'IndexedFaceSet #17'
v  203847.031250 443780.000000 20.608469 
v  203847.031250 443780.000000 23.114275 
v  203848.812500 443775.593750 20.608465 
v  203848.812500 443775.593750 23.114273 
# 4 vertices

vt 0.0 0.0 0.0
vt 0.000012 0.999593 0.0
vt 0.999985 0.000385 0.0
vt 1.000000 1.000000 0.0
# 4 texture vertices

vn  -0.927110 -0.374789 0.0 
# 1 normals

usemtl surface__11

o IndexedFaceSet__17_0
g IndexedFaceSet__17_0

s off
f 82/80/20 80/82/20 81/79/20
f 79/81/20 81/79/20 80/82/20
# 2 polygons
