# Converted by Daum Communications 
# Date/time of export: 08/22/2013 14:52:41
#
# Bounding box of geometry = (203307,443498,-0.20713) to (203323,443515,5.56706).

mtllib 3687561.mtl

# Coordinates for object 'IndexedFaceSet'
v  203307.375000 443510.125000 -0.207128 
v  203307.375000 443510.125000 3.032748 
v  203317.359375 443514.437500 -0.207127 
v  203317.359375 443514.437500 3.043294 
# 4 vertices

vt 0.0 0.0 0.0
vt 0.000134 1.000000 0.0
vt 1.000000 0.000035 0.0
vt 1.000000 0.996791 0.0
# 4 texture vertices

vn  -0.396519 0.918027 0.0 
# 1 normals

usemtl surface

o IndexedFaceSet
g IndexedFaceSet

s off
f 4/2/1 3/1/1 2/4/1
f 1/3/1 2/4/1 3/1/1
# 2 polygons

# Coordinates for object 'IndexedFaceSet #1'
v  203317.359375 443514.437500 -0.207127 
v  203317.359375 443514.437500 2.552645 
v  203322.640625 443502.187500 -0.207129 
v  203322.640625 443502.187500 2.631217 
# 4 vertices

vt 0.0 0.0 0.0
vt 0.0 1.000000 0.0
vt 1.000000 0.0 0.0
vt 1.000000 0.972316 0.0
# 4 texture vertices

vn  0.918295 0.395897 0.0 
# 1 normals

usemtl surface__2

o IndexedFaceSet__1_0
g IndexedFaceSet__1_0

s off
f 8/6/2 7/5/2 6/8/2
f 5/7/2 6/8/2 7/5/2
# 2 polygons

# Coordinates for object 'IndexedFaceSet #2'
v  203312.640625 443497.875000 -0.207130 
v  203312.640625 443497.875000 2.656106 
v  203322.640625 443502.187500 -0.207129 
v  203322.640625 443502.187500 2.631217 
# 4 vertices

vt 0.0 0.0 0.0
vt 0.0 1.000000 0.0
vt 0.999893 0.991306 0.0
vt 1.000000 0.0 0.0
# 4 texture vertices

vn  0.395996 -0.918252 0.0 
# 1 normals

usemtl surface__2

o IndexedFaceSet__2_0
g IndexedFaceSet__2_0

s off
f 10/10/3 9/9/3 12/11/3
f 11/12/3 12/11/3 9/9/3
# 2 polygons

# Coordinates for object 'IndexedFaceSet #3'
v  203307.375000 443510.125000 -0.207128 
v  203307.375000 443510.125000 2.577547 
v  203312.640625 443497.875000 -0.207130 
v  203312.640625 443497.875000 2.656106 
# 4 vertices

vt 0.0 0.0 0.0
vt 0.0 0.972562 0.0
vt 0.999850 0.0 0.0
vt 1.000000 0.999999 0.0
# 4 texture vertices

vn  -0.918720 -0.394909 0.0 
# 1 normals

usemtl surface__2

o IndexedFaceSet__3_0
g IndexedFaceSet__3_0

s off
f 14/14/4 13/13/4 15/15/4
f 15/15/4 16/16/4 14/14/4
# 2 polygons

# Coordinates for object 'IndexedFaceSet #4'
v  203314.546875 443506.968750 5.567057 
v  203315.296875 443505.250000 5.567057 
v  203318.000000 443514.687500 3.040331 
v  203323.265625 443502.468750 3.118903 
# 4 vertices

vt 0.0 0.0 0.0
vt 0.427884 0.999394 0.0
vt 0.567943 1.000000 0.0
vt 1.000000 0.0 0.0
# 4 texture vertices

vn  0.337024 0.147065 0.929939 
vn  0.339194 0.152144 0.928332 
# 2 normals

usemtl surface__3

o IndexedFaceSet__4_0
g IndexedFaceSet__4_0

s off
f 20/17/6 19/20/6 17/19/6
f 17/19/5 18/18/5 20/17/5
# 2 polygons

# Coordinates for object 'IndexedFaceSet #5'
v  203306.718750 443509.843750 3.032748 
v  203312.000000 443497.593750 3.111307 
v  203314.546875 443506.968750 5.567057 
v  203315.296875 443505.250000 5.567057 
# 4 vertices

vt 0.0 0.0 0.0
vt 0.431985 1.000000 0.0
vt 0.572021 0.999364 0.0
vt 1.000000 0.0 0.0
# 4 texture vertices

vn  -0.352893 -0.146214 0.924169 
vn  -0.343070 -0.149703 0.927303 
# 2 normals

usemtl surface__3

o IndexedFaceSet__5_0
g IndexedFaceSet__5_0

s off
f 24/23/8 23/22/8 22/24/8
f 21/21/7 22/24/7 23/22/7
# 2 polygons

# Coordinates for object 'IndexedFaceSet #6'
v  203307.187500 443510.531250 2.577548 
v  203307.187500 443510.531250 3.745324 
v  203316.906250 443514.718750 2.577549 
v  203316.906250 443514.718750 3.745324 
# 4 vertices

vt 0.0 0.999953 0.0
vt 0.0 0.0 0.0
vt 0.999958 1.000000 0.0
vt 1.000000 0.000048 0.0
# 4 texture vertices

vn  -0.395701 0.918380 0.0 
# 1 normals

usemtl surface__4

o IndexedFaceSet__6_0
g IndexedFaceSet__6_0

s off
f 28/25/9 27/26/9 26/27/9
f 25/28/9 26/27/9 27/26/9
# 2 polygons

# Coordinates for object 'IndexedFaceSet #7'
v  203307.375000 443510.125000 3.032748 
v  203307.375000 443510.125000 3.742037 
v  203317.078125 443514.312500 3.042992 
v  203317.093750 443514.312500 3.745324 
# 4 vertices

vt 0.0 0.0 0.0
vt 0.0 1.000000 0.0
vt 0.998779 0.0 0.0
vt 1.000000 0.990173 0.0
# 4 texture vertices

vn  0.395688 -0.918343 -0.008803 
vn  0.396238 -0.918148 0.0 
# 2 normals

usemtl surface__5

o IndexedFaceSet__7_0
g IndexedFaceSet__7_0

s off
f 30/30/11 29/29/11 31/31/11
f 31/31/10 32/32/10 30/30/10
# 2 polygons

# Coordinates for object 'IndexedFaceSet #8'
v  203312.000000 443497.593750 2.641339 
v  203312.000000 443497.593750 3.111307 
v  203323.265625 443502.468750 2.631217 
v  203323.265625 443502.468750 3.118903 
# 4 vertices

vt 0.0 0.0 0.0
vt 0.0 0.963669 0.0
vt 0.999967 0.999990 0.0
vt 1.000000 0.0 0.0
# 4 texture vertices

vn  0.397143 -0.917757 0.0 
# 1 normals

usemtl surface__3

o IndexedFaceSet__8_0
g IndexedFaceSet__8_0

s off
f 34/34/12 33/33/12 36/35/12
f 35/36/12 36/35/12 33/33/12
# 2 polygons

# Coordinates for object 'IndexedFaceSet #9'
v  203307.187500 443510.531250 3.745324 
v  203307.375000 443510.125000 3.742037 
v  203316.906250 443514.718750 3.745324 
v  203317.093750 443514.312500 3.745324 
# 4 vertices

vt 0.0 0.0 0.0
vt 0.0 1.000000 0.0
vt 0.999592 0.0 0.0
vt 1.000000 0.999980 0.0
# 4 texture vertices

vn  0.0 0.0 1.0 
vn  0.002626 -0.006879 0.999973 
# 2 normals

usemtl surface__3

o IndexedFaceSet__9_0
g IndexedFaceSet__9_0

s off
f 40/39/13 39/40/13 37/38/13
f 37/38/14 38/37/14 40/39/14
# 2 polygons

# Coordinates for object 'IndexedFaceSet #10'
v  203307.187500 443510.531250 2.577548 
v  203307.187500 443510.531250 3.745324 
v  203307.375000 443510.125000 2.577547 
v  203307.375000 443510.125000 3.032748 
v  203307.375000 443510.125000 3.742037 
# 5 vertices

vt 0.0 0.0 0.0
vt 0.0 1.000000 0.0
vt 0.999992 0.997186 0.0
vt 0.999994 0.0 0.0
vt 0.999999 0.389802 0.0
# 5 texture vertices

vn  -0.907959 -0.419058 0.0 
# 1 normals

usemtl surface__3

o IndexedFaceSet__10_0
g IndexedFaceSet__10_0

s off
f 42/42/15 41/41/15 44/45/15
f 44/45/15 45/43/15 42/42/15
f 44/45/15 41/41/15 43/44/15
# 3 polygons

# Coordinates for object 'IndexedFaceSet #11'
v  203316.906250 443514.718750 2.577549 
v  203316.906250 443514.718750 3.745324 
v  203317.093750 443514.312500 2.563986 
v  203317.093750 443514.312500 3.745324 
# 4 vertices

vt 0.0 0.0 0.0
vt 0.071114 1.000000 0.0
vt 0.929702 0.0 0.0
vt 0.999999 0.988520 0.0
# 4 texture vertices

vn  0.907959 0.419058 0.0 
# 1 normals

usemtl surface__3

o IndexedFaceSet__11_0
g IndexedFaceSet__11_0

s off
f 49/47/16 48/46/16 46/48/16
f 46/48/16 47/49/16 49/47/16
# 2 polygons

# Coordinates for object 'IndexedFaceSet #12'
v  203307.187500 443510.531250 2.577548 
v  203307.375000 443510.125000 2.577547 
v  203316.906250 443514.718750 2.577549 
v  203317.093750 443514.312500 2.563986 
# 4 vertices

vt 0.0 0.004268 0.0
vt 0.002511 1.000000 0.0
vt 0.999734 0.0 0.0
vt 1.000000 0.766003 0.0
# 4 texture vertices

vn  -0.011993 0.027835 -0.999541 
vn  -0.001165 -0.000535 -0.999999 
# 2 normals

usemtl surface__6

o IndexedFaceSet__12_0
g IndexedFaceSet__12_0

s off
f 52/51/17 53/50/17 50/53/17
f 51/52/18 50/53/18 53/50/18
# 2 polygons

# Coordinates for object 'IndexedFaceSet #13'
v  203317.359375 443514.437500 2.552645 
v  203317.359375 443514.437500 3.043294 
v  203318.000000 443514.687500 2.552645 
v  203318.000000 443514.687500 3.040331 
# 4 vertices

vt 0.0 0.0 0.0
vt 0.0 0.993947 0.0
vt 0.999558 0.000011 0.0
vt 1.000000 1.000000 0.0
# 4 texture vertices

vn  -0.363542 0.931578 0.0 
# 1 normals

usemtl surface__7

o IndexedFaceSet__13_0
g IndexedFaceSet__13_0

s off
f 57/55/19 56/54/19 54/56/19
f 54/56/19 55/57/19 57/55/19
# 2 polygons

# Coordinates for object 'IndexedFaceSet #14'
v  203318.000000 443514.687500 2.552645 
v  203318.000000 443514.687500 3.040331 
v  203323.265625 443502.468750 2.631217 
v  203323.265625 443502.468750 3.118903 
# 4 vertices

vt 0.0 1.000000 0.0
vt 0.000216 0.0 0.0
vt 0.999784 1.000000 0.0
vt 1.000000 0.0 0.0
# 4 texture vertices

vn  0.918353 0.395761 0.0 
# 1 normals

usemtl surface__3

o IndexedFaceSet__14_0
g IndexedFaceSet__14_0

s off
f 61/58/20 60/59/20 59/60/20
f 58/61/20 59/60/20 60/59/20
# 2 polygons

# Coordinates for object 'IndexedFaceSet #15'
v  203317.359375 443514.437500 2.552645 
v  203318.000000 443514.687500 2.552645 
v  203322.640625 443502.187500 2.631217 
v  203323.265625 443502.468750 2.631217 
# 4 vertices

vt 0.0 0.0 0.0
vt 0.000321 0.996630 0.0
vt 0.999677 0.003487 0.0
vt 1.000000 1.000000 0.0
# 4 texture vertices

vn  0.002148 -0.005505 -0.999983 
vn  0.002417 -0.005372 -0.999983 
# 2 normals

usemtl surface__8

o IndexedFaceSet__15_0
g IndexedFaceSet__15_0

s off
f 62/62/21 63/63/21 65/65/21
f 65/65/22 64/64/22 62/62/22
# 2 polygons

# Coordinates for object 'IndexedFaceSet #16'
v  203306.718750 443509.843750 2.562780 
v  203306.718750 443509.843750 3.032748 
v  203307.375000 443510.125000 2.577547 
v  203307.375000 443510.125000 3.032748 
# 4 vertices

vt 0.0 0.968574 0.0
vt 0.013804 0.000014 0.0
vt 0.986365 1.000000 0.0
vt 1.000000 0.0 0.0
# 4 texture vertices

vn  -0.393919 0.919145 0.0 
# 1 normals

usemtl surface__9

o IndexedFaceSet__16_0
g IndexedFaceSet__16_0

s off
f 69/66/23 68/67/23 67/68/23
f 66/69/23 67/68/23 68/67/23
# 2 polygons

# Coordinates for object 'IndexedFaceSet #17'
v  203306.718750 443509.843750 2.562780 
v  203306.718750 443509.843750 3.032748 
v  203312.000000 443497.593750 2.641339 
v  203312.000000 443497.593750 3.111307 
# 4 vertices

vt 0.0 0.0 0.0
vt 0.000208 1.000000 0.0
vt 0.999792 0.0 0.0
vt 1.000000 1.000000 0.0
# 4 texture vertices

vn  -0.918295 -0.395897 0.0 
# 1 normals

usemtl surface__3

o IndexedFaceSet__17_0
g IndexedFaceSet__17_0

s off
f 71/71/24 70/70/24 72/72/24
f 72/72/24 73/73/24 71/71/24
# 2 polygons

# Coordinates for object 'IndexedFaceSet #18'
v  203306.718750 443509.843750 2.562780 
v  203307.375000 443510.125000 2.577547 
v  203312.000000 443497.593750 2.641339 
v  203312.640625 443497.875000 2.656106 
# 4 vertices

vt 0.0 1.000000 0.0
vt 0.000315 0.002138 0.0
vt 0.999687 0.997435 0.0
vt 1.000000 0.0 0.0
# 4 texture vertices

vn  0.021308 0.002775 -0.999769 
vn  0.021755 0.002940 -0.999759 
# 2 normals

usemtl surface__10

o IndexedFaceSet__18_0
g IndexedFaceSet__18_0

s off
f 74/77/25 75/76/25 76/75/25
f 77/74/26 76/75/26 75/76/26
# 2 polygons

# Coordinates for object 'IndexedFaceSet #19'
v  203306.718750 443509.843750 3.032748 
v  203314.546875 443506.968750 5.567057 
v  203318.000000 443514.687500 3.040331 
# 3 vertices

vt 0.0 0.0 0.0
vt 0.506850 1.000000 0.0
vt 1.000000 0.0 0.0
# 3 texture vertices

vn  -0.159902 0.370984 0.914769 
# 1 normals

usemtl surface__3

o IndexedFaceSet__19_0
g IndexedFaceSet__19_0

s off
f 80/78/27 78/80/27 79/79/27
# 1 polygons

# Coordinates for object 'IndexedFaceSet #20'
v  203312.000000 443497.593750 3.111307 
v  203315.296875 443505.250000 5.567057 
v  203323.265625 443502.468750 3.118903 
# 3 vertices

vt 0.0 0.0 0.0
vt 0.493233 1.000000 0.0
vt 1.000000 0.0 0.0
# 3 texture vertices

vn  0.156015 -0.361966 0.919043 
# 1 normals

usemtl surface__3

o IndexedFaceSet__20_0
g IndexedFaceSet__20_0

s off
f 83/83/28 82/82/28 81/81/28
# 1 polygons
