# Converted by Daum Communications 
# Date/time of export: 08/22/2013 14:52:38
#
# Bounding box of geometry = (203379,443594,-0.354754) to (203397,443611,25.3458).

mtllib 3687501.mtl

# Coordinates for object 'IndexedFaceSet'
v  203380.390625 443601.812500 18.786524 
v  203380.390625 443601.812500 20.259930 
v  203393.875000 443607.250000 18.791735 
v  203393.875000 443607.250000 20.259930 
# 4 vertices

vt 0.0 0.0 0.0
vt 0.0 0.996497 0.0
vt 0.999964 1.000000 0.0
vt 1.000000 0.0 0.0
# 4 texture vertices

vn  -0.373983 0.927435 0.0 
# 1 normals

usemtl surface

o IndexedFaceSet
g IndexedFaceSet

s off
f 1/4/1 2/3/1 3/1/1
f 4/2/1 3/1/1 2/3/1
# 2 polygons

# Coordinates for object 'IndexedFaceSet #1'
v  203393.828125 443607.218750 -0.346564 
v  203393.875000 443607.250000 20.259930 
v  203396.828125 443599.781250 -0.346560 
v  203396.890625 443599.781250 20.259933 
# 4 vertices

vt 0.0 0.0 0.0
vt 0.000151 0.999628 0.0
vt 0.999949 0.000304 0.0
vt 1.000000 1.000000 0.0
# 4 texture vertices

vn  0.927264 0.374398 -0.002677 
vn  0.927394 0.374075 -0.002813 
# 2 normals

usemtl surface__2

o IndexedFaceSet__1_0
g IndexedFaceSet__1_0

s off
f 7/7/3 5/8/3 8/5/3
f 6/6/2 8/5/2 5/8/2
# 2 polygons

# Coordinates for object 'IndexedFaceSet #2'
v  203380.390625 443601.812500 20.259930 
v  203383.390625 443594.343750 20.259932 
v  203393.875000 443607.250000 20.259930 
v  203396.890625 443599.781250 20.259933 
# 4 vertices

vt 0.0 0.0 0.0
vt 0.0 1.000000 0.0
vt 1.000000 0.0 0.0
vt 1.000000 1.000000 0.0
# 4 texture vertices

vn  0.0 0.0 1.0 
# 1 normals

usemtl surface__3

o IndexedFaceSet__2_0
g IndexedFaceSet__2_0

s off
f 10/12/4 12/10/4 9/11/4
f 11/9/4 9/11/4 12/10/4
# 2 polygons

# Coordinates for object 'IndexedFaceSet #3'
v  203380.390625 443601.812500 -0.346566 
v  203380.390625 443601.812500 20.259930 
v  203383.390625 443594.343750 -0.346564 
v  203383.390625 443594.343750 20.259932 
# 4 vertices

vt 0.0 0.0 0.0
vt 0.000151 0.999628 0.0
vt 0.999949 0.000304 0.0
vt 1.000000 1.000000 0.0
# 4 texture vertices

vn  -0.927940 -0.372729 0.0 
# 1 normals

usemtl surface__2

o IndexedFaceSet__3_0
g IndexedFaceSet__3_0

s off
f 13/16/5 15/15/5 14/14/5
f 16/13/5 14/14/5 15/15/5
# 2 polygons

# Coordinates for object 'IndexedFaceSet #4'
v  203392.375000 443610.968750 -0.354754 
v  203392.375000 443610.968750 10.517736 
v  203393.515625 443608.125000 18.791735 
v  203393.828125 443607.218750 -0.346564 
v  203393.875000 443607.250000 18.791735 
# 5 vertices

vt 0.0 0.013087 0.0
vt 0.000814 0.246185 0.0
vt 0.433630 0.991393 0.0
vt 0.999979 0.0 0.0
vt 1.000000 1.000000 0.0
# 5 texture vertices

vn  0.925016 0.379917 0.003057 
vn  0.929600 0.368560 -0.002879 
vn  0.932441 0.361321 0.0 
# 3 normals

usemtl surface__4

o IndexedFaceSet__4_0
g IndexedFaceSet__4_0

s off
f 20/20/8 17/21/8 18/19/8
f 18/19/6 19/18/6 21/17/6
f 18/19/7 21/17/7 20/20/7
# 3 polygons

# Coordinates for object 'IndexedFaceSet #5'
v  203383.390625 443594.343750 -0.346564 
v  203383.390625 443594.343750 20.259932 
v  203396.828125 443599.781250 -0.346560 
v  203396.890625 443599.781250 20.259933 
# 4 vertices

vt 0.0 0.0 0.0
vt 0.0 1.000000 0.0
vt 1.000000 0.000053 0.0
vt 1.000000 0.996060 0.0
# 4 texture vertices

vn  0.373611 -0.927585 -0.001133 
vn  0.375105 -0.926983 0.0 
# 2 normals

usemtl surface__5

o IndexedFaceSet__5_0
g IndexedFaceSet__5_0

s off
f 22/24/10 24/25/10 23/22/10
f 25/23/9 23/22/9 24/25/9
# 2 polygons

# Coordinates for object 'IndexedFaceSet #6'
v  203390.390625 443597.156250 20.259169 
v  203390.390625 443597.156250 20.704008 
v  203392.390625 443597.968750 21.840446 
v  203394.343750 443598.750000 20.259933 
v  203394.343750 443598.750000 20.719879 
# 5 vertices

vt 0.0 0.0 0.0
vt 0.000017 0.281388 0.0
vt 0.506531 1.000000 0.0
vt 0.999983 0.0 0.0
vt 1.000000 0.290944 0.0
# 5 texture vertices

vn  0.371391 -0.928477 0.0 
vn  0.373914 -0.927456 0.003623 
vn  0.376377 -0.926467 0.0 
# 3 normals

usemtl surface__6

o IndexedFaceSet__6_0
g IndexedFaceSet__6_0

s off
f 26/26/12 29/29/12 28/28/12
f 26/26/13 28/28/13 27/27/13
f 28/28/11 29/29/11 30/30/11
# 3 polygons

# Coordinates for object 'IndexedFaceSet #7'
v  203390.281250 443597.437500 20.259169 
v  203390.281250 443597.437500 20.704008 
v  203392.281250 443598.250000 21.840445 
v  203394.234375 443599.031250 20.259933 
v  203394.234375 443599.031250 20.719877 
# 5 vertices

vt 0.0 0.0 0.0
vt 0.0 0.290940 0.0
vt 0.493470 1.000000 0.0
vt 0.999981 0.281386 0.0
vt 1.000000 0.0 0.0
# 5 texture vertices

vn  -0.376377 0.926467 0.0 
vn  -0.373914 0.927456 -0.003623 
vn  -0.371391 0.928477 0.0 
# 3 normals

usemtl surface__7

o IndexedFaceSet__7_0
g IndexedFaceSet__7_0

s off
f 31/35/14 32/34/14 33/33/14
f 33/33/16 35/32/16 34/31/16
f 33/33/15 34/31/15 31/35/15
# 3 polygons

# Coordinates for object 'IndexedFaceSet #8'
v  203394.234375 443599.031250 20.259933 
v  203394.234375 443599.031250 20.719877 
v  203394.343750 443598.750000 20.259933 
v  203394.343750 443598.750000 20.719879 
# 4 vertices

vt 0.0 0.0 0.0
vt 0.0 1.000000 0.0
vt 0.999999 0.0 0.0
vt 1.000000 1.000000 0.0
# 4 texture vertices

vn  0.932005 0.362446 0.0 
# 1 normals

usemtl surface

o IndexedFaceSet__8_0
g IndexedFaceSet__8_0

s off
f 38/36/17 36/38/17 37/39/17
f 37/39/17 39/37/17 38/36/17
# 2 polygons

# Coordinates for object 'IndexedFaceSet #9'
v  203392.281250 443598.250000 21.840445 
v  203392.390625 443597.968750 21.840446 
v  203394.234375 443599.031250 20.719877 
v  203394.343750 443598.750000 20.719879 
# 4 vertices

vt 0.0 0.0 0.0
vt 0.0 1.000000 0.0
vt 0.999988 0.0 0.0
vt 1.000000 1.000000 0.0
# 4 texture vertices

vn  0.438196 0.170415 0.882578 
# 1 normals

usemtl surface

o IndexedFaceSet__9_0
g IndexedFaceSet__9_0

s off
f 43/40/18 42/42/18 40/43/18
f 40/43/18 41/41/18 43/40/18
# 2 polygons

# Coordinates for object 'IndexedFaceSet #10'
v  203390.281250 443597.437500 20.704008 
v  203390.390625 443597.156250 20.704008 
v  203392.281250 443598.250000 21.840445 
v  203392.390625 443597.968750 21.840446 
# 4 vertices

vt 0.0 0.0 0.0
vt 0.0 1.000000 0.0
vt 1.000000 0.0 0.0
vt 1.000000 1.000000 0.0
# 4 texture vertices

vn  -0.434193 -0.168853 0.884853 
# 1 normals

usemtl surface

o IndexedFaceSet__10_0
g IndexedFaceSet__10_0

s off
f 44/44/19 45/46/19 46/45/19
f 47/47/19 46/45/19 45/46/19
# 2 polygons

# Coordinates for object 'IndexedFaceSet #11'
v  203390.281250 443597.437500 20.259169 
v  203390.281250 443597.437500 20.704008 
v  203390.390625 443597.156250 20.259169 
v  203390.390625 443597.156250 20.704008 
# 4 vertices

vt 0.0 0.0 0.0
vt 0.0 1.000000 0.0
vt 0.999999 0.999998 0.0
vt 1.000000 0.0 0.0
# 4 texture vertices

vn  -0.932005 -0.362446 0.0 
# 1 normals

usemtl surface

o IndexedFaceSet__11_0
g IndexedFaceSet__11_0

s off
f 48/48/20 50/51/20 49/49/20
f 51/50/20 49/49/20 50/51/20
# 2 polygons

# Coordinates for object 'IndexedFaceSet #12'
v  203383.390625 443594.343750 20.259932 
v  203383.390625 443594.343750 24.059362 
v  203385.546875 443595.218750 25.345816 
v  203387.921875 443596.187500 23.980545 
v  203387.937500 443596.187500 20.259933 
# 5 vertices

vt 0.0 0.747194 0.0
vt 0.000085 0.0 0.0
vt 0.473936 1.000000 0.0
vt 0.999593 0.731303 0.0
vt 1.000000 0.0 0.0
# 5 texture vertices

vn  0.375779 -0.926708 0.001578 
vn  0.376866 -0.926266 -0.001659 
vn  0.376891 -0.926258 0.0 
# 3 normals

usemtl surface__8

o IndexedFaceSet__12_0
g IndexedFaceSet__12_0

s off
f 52/53/21 56/56/21 55/55/21
f 53/52/22 55/55/22 54/54/22
f 55/55/23 53/52/23 52/53/23
# 3 polygons

# Coordinates for object 'IndexedFaceSet #13'
v  203381.765625 443598.406250 20.258867 
v  203381.765625 443598.406250 24.058300 
v  203383.906250 443599.250000 25.344753 
v  203386.296875 443600.218750 20.258869 
v  203386.296875 443600.218750 23.979483 
# 5 vertices

vt 0.0 0.747194 0.0
vt 0.000085 0.0 0.0
vt 0.473936 1.000000 0.0
vt 0.999593 0.731303 0.0
vt 1.000000 0.0 0.0
# 5 texture vertices

vn  -0.371391 0.928477 0.0 
vn  -0.371245 0.928494 0.008768 
# 2 normals

usemtl surface__8

o IndexedFaceSet__13_0
g IndexedFaceSet__13_0

s off
f 57/58/24 58/57/24 61/60/24
f 57/58/24 61/60/24 60/61/24
f 61/60/25 58/57/25 59/59/25
# 3 polygons

# Coordinates for object 'IndexedFaceSet #14'
v  203386.296875 443600.218750 20.258869 
v  203386.296875 443600.218750 23.979483 
v  203387.921875 443596.187500 23.980545 
v  203387.937500 443596.187500 20.259933 
# 4 vertices

vt 0.0 0.000324 0.0
vt 0.000273 1.000000 0.0
vt 0.999767 0.0 0.0
vt 1.000000 0.999681 0.0
# 4 texture vertices

vn  0.926224 0.376953 0.003890 
vn  0.927482 0.373869 0.0 
# 2 normals

usemtl surface__9

o IndexedFaceSet__14_0
g IndexedFaceSet__14_0

s off
f 65/64/26 62/65/26 64/62/26
f 63/63/27 64/62/27 62/65/27
# 2 polygons

# Coordinates for object 'IndexedFaceSet #15'
v  203383.906250 443599.250000 25.344753 
v  203385.546875 443595.218750 25.345816 
v  203386.296875 443600.218750 23.979483 
v  203387.921875 443596.187500 23.980545 
# 4 vertices

vt 0.0 1.000000 0.0
vt 0.000185 0.0 0.0
vt 0.999815 1.000000 0.0
vt 1.000000 0.0 0.0
# 4 texture vertices

vn  0.433797 0.175097 0.883833 
vn  0.435118 0.177316 0.882741 
# 2 normals

usemtl surface__10

o IndexedFaceSet__15_0
g IndexedFaceSet__15_0

s off
f 67/66/29 69/67/29 66/68/29
f 68/69/28 66/68/28 69/67/28
# 2 polygons

# Coordinates for object 'IndexedFaceSet #16'
v  203381.765625 443598.406250 24.058300 
v  203383.390625 443594.343750 24.059362 
v  203383.906250 443599.250000 25.344753 
v  203385.546875 443595.218750 25.345816 
# 4 vertices

vt 0.0 0.0 0.0
vt 0.0 1.000000 0.0
vt 0.999973 1.000000 0.0
vt 1.000000 0.0 0.0
# 4 texture vertices

vn  -0.452109 -0.183768 0.872827 
vn  -0.449300 -0.179491 0.875164 
# 2 normals

usemtl surface__10

o IndexedFaceSet__16_0
g IndexedFaceSet__16_0

s off
f 71/73/31 73/72/31 70/70/31
f 72/71/30 70/70/30 73/72/30
# 2 polygons

# Coordinates for object 'IndexedFaceSet #17'
v  203381.765625 443598.406250 20.258867 
v  203381.765625 443598.406250 24.058300 
v  203383.390625 443594.343750 20.259932 
v  203383.390625 443594.343750 24.059362 
# 4 vertices

vt 0.0 0.000324 0.0
vt 0.000273 1.000000 0.0
vt 0.999767 0.0 0.0
vt 1.000000 0.999681 0.0
# 4 texture vertices

vn  -0.928477 -0.371391 0.0 
# 1 normals

usemtl surface__9

o IndexedFaceSet__17_0
g IndexedFaceSet__17_0

s off
f 74/77/32 76/76/32 75/75/32
f 77/74/32 75/75/32 76/76/32
# 2 polygons

# Coordinates for object 'IndexedFaceSet #18'
v  203380.265625 443602.781250 18.791733 
v  203380.390625 443601.812500 18.786524 
v  203393.515625 443608.125000 18.791735 
v  203393.875000 443607.250000 18.791735 
# 4 vertices

vt 0.0 0.0 0.0
vt 0.017447 0.991698 0.0
vt 0.999963 0.999996 0.0
vt 1.000000 0.0 0.0
# 4 texture vertices

vn  0.0 0.0 1.0 
vn  0.001694 -0.005158 0.999985 
# 2 normals

usemtl surface__7

o IndexedFaceSet__18_0
g IndexedFaceSet__18_0

s off
f 81/81/33 80/80/33 78/79/33
f 78/79/34 79/78/34 81/81/34
# 2 polygons

# Coordinates for object 'IndexedFaceSet #19'
v  203378.890625 443605.500000 -0.346566 
v  203378.890625 443605.531250 10.525923 
v  203380.265625 443602.781250 18.791733 
v  203380.390625 443601.812500 -0.346566 
v  203380.390625 443601.812500 18.786524 
# 5 vertices

vt 0.0 0.013087 0.0
vt 0.000814 0.246185 0.0
vt 0.433630 0.991393 0.0
vt 0.999979 0.0 0.0
vt 1.000000 1.000000 0.0
# 5 texture vertices

vn  -0.984375 -0.127668 0.121274 
vn  -0.927398 -0.374076 0.0 
vn  -0.926295 -0.376798 0.001083 
# 3 normals

usemtl surface__4

o IndexedFaceSet__19_0
g IndexedFaceSet__19_0

s off
f 82/86/37 85/85/37 83/84/37
f 83/84/35 86/82/35 84/83/35
f 86/82/36 83/84/36 85/85/36
# 3 polygons

# Coordinates for object 'IndexedFaceSet #20'
v  203378.890625 443605.531250 10.525923 
v  203380.265625 443602.781250 18.791733 
v  203392.375000 443610.968750 10.517736 
v  203393.515625 443608.125000 18.791735 
# 4 vertices

vt 0.0 0.0 0.0
vt 0.0 1.000000 0.0
vt 1.000000 0.000053 0.0
vt 1.000000 0.996060 0.0
# 4 texture vertices

vn  -0.350752 0.869700 0.347267 
vn  -0.350476 0.869665 0.347635 
# 2 normals

usemtl surface__5

o IndexedFaceSet__20_0
g IndexedFaceSet__20_0

s off
f 89/90/39 87/89/39 88/87/39
f 88/87/38 90/88/38 89/90/38
# 2 polygons

# Coordinates for object 'IndexedFaceSet #21'
v  203378.890625 443605.500000 -0.346566 
v  203378.890625 443605.531250 10.525923 
v  203392.375000 443610.968750 -0.354754 
v  203392.375000 443610.968750 10.517736 
# 4 vertices

vt 0.0 0.0 0.0
vt 0.0 1.000000 0.0
vt 1.000000 0.000053 0.0
vt 1.000000 0.996060 0.0
# 4 texture vertices

vn  -0.375830 0.926689 0.0 
vn  -0.373983 0.927432 -0.002666 
# 2 normals

usemtl surface__5

o IndexedFaceSet__21_0
g IndexedFaceSet__21_0

s off
f 91/93/41 92/91/41 94/92/41
f 94/92/40 93/94/40 91/93/40
# 2 polygons
