# Converted by Daum Communications 
# Date/time of export: 08/22/2013 14:52:34
#
# Bounding box of geometry = (202877,443400,-0.172729) to (202897,443422,46.5021).

mtllib 3687241.mtl

# Coordinates for object 'IndexedFaceSet'
v  202882.859375 443399.687500 46.502129 
v  202882.875000 443399.687500 3.393126 
v  202897.171875 443405.312500 3.393129 
v  202897.171875 443405.312500 46.502129 
# 4 vertices

vt 0.0 0.000126 0.0
vt 0.000178 1.000000 0.0
vt 0.999823 0.0 0.0
vt 1.000000 0.998471 0.0
# 4 texture vertices

vn  0.365778 -0.930702 0.000133 
vn  0.366124 -0.930566 0.0 
# 2 normals

usemtl surface

o IndexedFaceSet
g IndexedFaceSet

s off
f 4/2/1 1/1/1 2/3/1
f 2/3/2 3/4/2 4/2/2
# 2 polygons

# Coordinates for object 'IndexedFaceSet #1'
v  202876.734375 443415.312500 46.502129 
v  202876.765625 443415.312500 3.393126 
v  202890.890625 443420.843750 3.393124 
v  202890.890625 443420.843750 46.502129 
# 4 vertices

vt 0.0 0.000126 0.0
vt 0.000178 1.000000 0.0
vt 0.999823 0.0 0.0
vt 1.000000 0.998471 0.0
# 4 texture vertices

vn  -0.364632 0.931152 0.0 
vn  -0.363934 0.931425 -0.000264 
# 2 normals

usemtl surface

o IndexedFaceSet__1_0
g IndexedFaceSet__1_0

s off
f 6/7/4 5/5/4 8/6/4
f 8/6/3 7/8/3 6/7/3
# 2 polygons

# Coordinates for object 'IndexedFaceSet #2'
v  202876.765625 443415.312500 3.393126 
v  202882.875000 443399.687500 3.393126 
v  202890.890625 443420.843750 3.393124 
v  202897.171875 443405.312500 3.393129 
# 4 vertices

vt 0.0 0.0 0.0
vt 0.0 1.000000 0.0
vt 1.000000 0.0 0.0
vt 1.000000 1.000000 0.0
# 4 texture vertices

vn  0.0 0.0 -1.0 
# 1 normals

usemtl surface__2

o IndexedFaceSet__2_0
g IndexedFaceSet__2_0

s off
f 12/9/5 10/11/5 11/10/5
f 9/12/5 11/10/5 10/11/5
# 2 polygons

# Coordinates for object 'IndexedFaceSet #3'
v  202876.734375 443415.312500 46.502129 
v  202882.859375 443399.687500 46.502129 
v  202893.687500 443413.937500 46.502129 
v  202893.906250 443422.031250 46.502129 
v  202896.703125 443415.125000 46.502129 
v  202897.171875 443405.312500 46.502129 
# 6 vertices

vt 0.0 0.174019 0.0
vt 0.009657 1.000000 0.0
vt 0.548941 0.0 0.0
vt 0.550976 0.174019 0.0
vt 0.989027 0.0 0.0
vt 1.000000 0.990437 0.0
# 6 texture vertices

vn  0.0 0.0 1.0 
# 1 normals

usemtl surface__3

o IndexedFaceSet__3_0
g IndexedFaceSet__3_0

s off
f 16/17/6 15/16/6 17/15/6
f 15/16/6 16/17/6 13/18/6
f 14/14/6 18/13/6 15/16/6
f 14/14/6 15/16/6 13/18/6
# 4 polygons

# Coordinates for object 'IndexedFaceSet #4'
v  202893.687500 443413.937500 46.502129 
v  202893.937500 443413.593750 3.393129 
v  202897.171875 443405.312500 3.393129 
v  202897.171875 443405.312500 46.502129 
# 4 vertices

vt 0.0 0.000975 0.0
vt 0.004343 1.000000 0.0
vt 0.999795 0.987824 0.0
vt 1.000000 0.0 0.0
# 4 texture vertices

vn  0.927194 0.374573 0.002390 
vn  0.931476 0.363803 0.0 
# 2 normals

usemtl surface__4

o IndexedFaceSet__4_0
g IndexedFaceSet__4_0

s off
f 19/20/7 22/19/7 20/21/7
f 21/22/8 20/21/8 22/19/8
# 2 polygons

# Coordinates for object 'IndexedFaceSet #5'
v  202876.734375 443415.312500 46.502129 
v  202876.765625 443415.312500 3.393126 
v  202882.859375 443399.687500 46.502129 
v  202882.875000 443399.687500 3.393126 
# 4 vertices

vt 0.0 1.000000 0.0
vt 0.000143 0.000778 0.0
vt 0.999980 0.0 0.0
vt 1.000000 0.999452 0.0
# 4 texture vertices

vn  -0.931339 -0.364153 -0.000675 
vn  -0.931023 -0.364961 -0.000337 
# 2 normals

usemtl surface__5

o IndexedFaceSet__5_0
g IndexedFaceSet__5_0

s off
f 25/23/10 23/24/10 26/26/10
f 24/25/9 26/26/9 23/24/9
# 2 polygons

# Coordinates for object 'IndexedFaceSet #6'
v  202893.562500 443403.875000 -0.172729 
v  202893.562500 443403.875000 3.393128 
v  202894.312500 443404.187500 -0.172729 
v  202894.312500 443404.187500 3.393128 
# 4 vertices

vt 0.0 0.000331 0.0
vt 0.000011 1.000000 0.0
vt 0.999989 0.0 0.0
vt 1.000000 0.999671 0.0
# 4 texture vertices

vn  0.384615 -0.923077 0.0 
# 1 normals

usemtl surface__6

o IndexedFaceSet__6_0
g IndexedFaceSet__6_0

s off
f 30/28/11 28/27/11 29/30/11
f 27/29/11 29/30/11 28/27/11
# 2 polygons

# Coordinates for object 'IndexedFaceSet #7'
v  202893.218750 443404.718750 -0.172728 
v  202893.218750 443404.718750 3.393132 
v  202893.562500 443403.875000 -0.172729 
v  202893.562500 443403.875000 3.393128 
# 4 vertices

vt 0.0 0.000354 0.0
vt 0.000025 1.000000 0.0
vt 0.999973 0.0 0.0
vt 1.000000 0.999655 0.0
# 4 texture vertices

vn  -0.926092 -0.377297 0.0 
# 1 normals

usemtl surface__7

o IndexedFaceSet__7_0
g IndexedFaceSet__7_0

s off
f 34/32/12 32/31/12 31/33/12
f 31/33/12 33/34/12 34/32/12
# 2 polygons

# Coordinates for object 'IndexedFaceSet #8'
v  202893.218750 443404.718750 -0.172728 
v  202893.218750 443404.718750 3.393132 
v  202894.000000 443405.031250 -0.172727 
v  202894.000000 443405.031250 3.393115 
# 4 vertices

vt 0.0 0.000331 0.0
vt 0.000011 1.000000 0.0
vt 0.999989 0.0 0.0
vt 1.000000 0.999671 0.0
# 4 texture vertices

vn  -0.371391 0.928477 0.0 
# 1 normals

usemtl surface__6

o IndexedFaceSet__8_0
g IndexedFaceSet__8_0

s off
f 35/37/13 36/35/13 38/36/13
f 38/36/13 37/38/13 35/37/13
# 2 polygons

# Coordinates for object 'IndexedFaceSet #9'
v  202894.000000 443405.031250 -0.172727 
v  202894.000000 443405.031250 3.393115 
v  202894.312500 443404.187500 -0.172729 
v  202894.312500 443404.187500 3.393128 
# 4 vertices

vt 0.0 1.000000 0.0
vt 0.000049 0.000651 0.0
vt 0.999960 0.999377 0.0
vt 1.000000 0.0 0.0
# 4 texture vertices

vn  0.937749 0.347314 0.0 
# 1 normals

usemtl surface__8

o IndexedFaceSet__9_0
g IndexedFaceSet__9_0

s off
f 40/39/14 42/40/14 41/42/14
f 41/42/14 39/41/14 40/39/14
# 2 polygons

# Coordinates for object 'IndexedFaceSet #10'
v  202883.281250 443400.843750 0.253247 
v  202883.281250 443400.843750 3.393123 
v  202883.625000 443400.000000 0.253249 
v  202883.625000 443400.000000 3.393126 
# 4 vertices

vt 0.0 1.000000 0.0
vt 0.000054 0.000246 0.0
vt 0.999953 0.999749 0.0
vt 1.000000 0.0 0.0
# 4 texture vertices

vn  0.926092 0.377297 0.0 
# 1 normals

usemtl surface__9

o IndexedFaceSet__10_0
g IndexedFaceSet__10_0

s off
f 44/43/15 46/44/15 45/46/15
f 45/46/15 43/45/15 44/43/15
# 2 polygons

# Coordinates for object 'IndexedFaceSet #11'
v  202882.531250 443400.562500 0.253247 
v  202882.531250 443400.562500 3.393124 
v  202883.281250 443400.843750 0.253247 
v  202883.281250 443400.843750 3.393123 
# 4 vertices

vt 0.0 1.000000 0.0
vt 0.0 0.000456 0.0
vt 0.999994 0.999544 0.0
vt 1.000000 0.0 0.0
# 4 texture vertices

vn  -0.351123 0.936329 0.0 
# 1 normals

usemtl surface__10

o IndexedFaceSet__11_0
g IndexedFaceSet__11_0

s off
f 47/50/16 48/48/16 49/49/16
f 50/47/16 49/49/16 48/48/16
# 2 polygons

# Coordinates for object 'IndexedFaceSet #12'
v  202882.531250 443400.562500 0.253247 
v  202882.531250 443400.562500 3.393124 
v  202882.875000 443399.687500 0.253250 
v  202882.875000 443399.687500 3.393126 
# 4 vertices

vt 0.0 1.000000 0.0
vt 0.0 0.000562 0.0
vt 0.999994 0.0 0.0
vt 1.000000 0.999455 0.0
# 4 texture vertices

vn  -0.930752 -0.365652 0.0 
# 1 normals

usemtl surface__11

o IndexedFaceSet__12_0
g IndexedFaceSet__12_0

s off
f 54/51/17 52/52/17 53/54/17
f 51/53/17 53/54/17 52/52/17
# 2 polygons

# Coordinates for object 'IndexedFaceSet #13'
v  202882.875000 443399.687500 0.253250 
v  202882.875000 443399.687500 3.393126 
v  202883.625000 443400.000000 0.253249 
v  202883.625000 443400.000000 3.393126 
# 4 vertices

vt 0.0 1.000000 0.0
vt 0.0 0.000456 0.0
vt 0.999994 0.999544 0.0
vt 1.000000 0.0 0.0
# 4 texture vertices

vn  0.384615 -0.923077 0.0 
# 1 normals

usemtl surface__10

o IndexedFaceSet__13_0
g IndexedFaceSet__13_0

s off
f 58/55/18 56/56/18 55/58/18
f 55/58/18 57/57/18 58/55/18
# 2 polygons

# Coordinates for object 'IndexedFaceSet #14'
v  202881.718750 443402.625000 0.100117 
v  202881.718750 443402.625000 3.393130 
v  202888.109375 443405.125000 0.100119 
v  202888.109375 443405.125000 3.393131 
# 4 vertices

vt 0.0 1.000000 0.0
vt 0.0 0.000043 0.0
vt 0.999998 0.999954 0.0
vt 1.000000 0.0 0.0
# 4 texture vertices

vn  0.364313 -0.931276 0.0 
# 1 normals

usemtl surface__12

o IndexedFaceSet__14_0
g IndexedFaceSet__14_0

s off
f 62/59/19 60/60/19 59/62/19
f 59/62/19 61/61/19 62/59/19
# 2 polygons

# Coordinates for object 'IndexedFaceSet #15'
v  202876.765625 443415.312500 0.100113 
v  202876.765625 443415.312500 3.393126 
v  202881.718750 443402.625000 0.100117 
v  202881.718750 443402.625000 3.393130 
# 4 vertices

vt 0.0 0.000099 0.0
vt 0.000443 1.000000 0.0
vt 0.999382 0.0 0.0
vt 1.000000 0.999925 0.0
# 4 texture vertices

vn  -0.931530 -0.363664 0.0 
# 1 normals

usemtl surface__13

o IndexedFaceSet__15_0
g IndexedFaceSet__15_0

s off
f 65/66/20 66/64/20 63/65/20
f 64/63/20 63/65/20 66/64/20
# 2 polygons

# Coordinates for object 'IndexedFaceSet #16'
v  202876.765625 443415.312500 0.100113 
v  202876.765625 443415.312500 3.393126 
v  202890.890625 443420.843750 3.393124 
v  202891.062500 443420.906250 0.100115 
# 4 vertices

vt 0.0 0.000099 0.0
vt 0.000443 1.000000 0.0
vt 0.999382 0.0 0.0
vt 1.000000 0.999925 0.0
# 4 texture vertices

vn  -0.364632 0.931152 0.0 
vn  -0.364361 0.931257 -0.001343 
# 2 normals

usemtl surface__13

o IndexedFaceSet__16_0
g IndexedFaceSet__16_0

s off
f 67/70/21 68/68/21 69/67/21
f 69/67/22 70/69/22 67/70/22
# 2 polygons

# Coordinates for object 'IndexedFaceSet #17'
v  202890.890625 443420.843750 3.393124 
v  202891.062500 443420.906250 0.100115 
v  202893.937500 443413.593750 0.100113 
v  202893.937500 443413.593750 3.393129 
# 4 vertices

vt 0.0 0.000044 0.0
vt 0.004058 0.911677 0.0
vt 0.996310 0.0 0.0
vt 1.000000 1.000000 0.0
# 4 texture vertices

vn  0.920482 0.386840 0.055386 
vn  0.930655 0.365898 0.0 
# 2 normals

usemtl surface__14

o IndexedFaceSet__17_0
g IndexedFaceSet__17_0

s off
f 74/71/24 73/73/24 72/74/24
f 72/74/23 71/72/23 74/71/23
# 2 polygons

# Coordinates for object 'IndexedFaceSet #18'
v  202886.000000 443410.500000 0.100111 
v  202886.000000 443410.500000 3.393128 
v  202893.937500 443413.593750 0.100113 
v  202893.937500 443413.593750 3.393129 
# 4 vertices

vt 0.0 0.000046 0.0
vt 0.000252 1.000000 0.0
vt 0.999746 0.0 0.0
vt 1.000000 0.999952 0.0
# 4 texture vertices

vn  0.363154 -0.931729 0.0 
# 1 normals

usemtl surface__15

o IndexedFaceSet__18_0
g IndexedFaceSet__18_0

s off
f 78/76/25 76/75/25 77/78/25
f 75/77/25 77/78/25 76/75/25
# 2 polygons

# Coordinates for object 'IndexedFaceSet #19'
v  202886.000000 443410.500000 0.100111 
v  202886.000000 443410.500000 3.393128 
v  202888.109375 443405.125000 0.100119 
v  202888.109375 443405.125000 3.393131 
# 4 vertices

vt 0.0 1.000000 0.0
vt 0.000466 0.000117 0.0
vt 0.999606 0.999868 0.0
vt 1.000000 0.0 0.0
# 4 texture vertices

vn  0.930883 0.365317 0.0 
# 1 normals

usemtl surface__16

o IndexedFaceSet__19_0
g IndexedFaceSet__19_0

s off
f 82/80/26 81/82/26 80/79/26
f 79/81/26 80/79/26 81/82/26
# 2 polygons

# Coordinates for object 'IndexedFaceSet #20'
v  202893.687500 443413.937500 46.502129 
v  202893.937500 443413.593750 0.100113 
v  202896.703125 443415.125000 -0.014308 
v  202896.703125 443415.125000 46.502129 
# 4 vertices

vt 0.0 1.000000 0.0
vt 0.005352 0.001002 0.0
vt 0.997645 0.0 0.0
vt 1.000000 0.997149 0.0
# 4 texture vertices

vn  0.366384 -0.930422 0.008867 
vn  0.484383 -0.874856 0.0 
# 2 normals

usemtl surface__17

o IndexedFaceSet__20_0
g IndexedFaceSet__20_0

s off
f 86/83/27 83/84/27 84/85/27
f 84/85/28 85/86/28 86/83/28
# 2 polygons

# Coordinates for object 'IndexedFaceSet #21'
v  202890.890625 443420.843750 46.502129 
v  202891.140625 443420.500000 0.100111 
v  202893.906250 443422.031250 -0.014308 
v  202893.906250 443422.031250 46.502129 
# 4 vertices

vt 0.0 1.000000 0.0
vt 0.005352 0.001002 0.0
vt 0.997645 0.0 0.0
vt 1.000000 0.997149 0.0
# 4 texture vertices

vn  -0.484383 0.874856 0.0 
vn  -0.366384 0.930422 -0.008867 
# 2 normals

usemtl surface__17

o IndexedFaceSet__21_0
g IndexedFaceSet__21_0

s off
f 87/88/30 90/87/30 88/89/30
f 89/90/29 88/89/29 90/87/29
# 2 polygons

# Coordinates for object 'IndexedFaceSet #22'
v  202891.140625 443420.500000 0.100111 
v  202893.906250 443422.031250 -0.014308 
v  202893.937500 443413.593750 0.100113 
v  202896.703125 443415.125000 -0.014308 
# 4 vertices

vt 0.0 0.0 0.0
# 1 texture vertices

vn  -0.033772 -0.013677 -0.999336 
# 1 normals

usemtl surface__18

o IndexedFaceSet__22_0
g IndexedFaceSet__22_0

s off
f 94/91/31 93/91/31 91/91/31
f 91/91/31 92/91/31 94/91/31
# 2 polygons

# Coordinates for object 'IndexedFaceSet #23'
v  202893.906250 443422.031250 -0.014308 
v  202893.906250 443422.031250 46.502129 
v  202896.703125 443415.125000 -0.014308 
v  202896.703125 443415.125000 46.502129 
# 4 vertices

vt 0.0 1.000000 0.0
vt 0.000123 0.002027 0.0
vt 0.999997 0.0 0.0
vt 1.000000 0.997606 0.0
# 4 texture vertices

vn  0.926877 0.375364 0.0 
# 1 normals

usemtl surface__19

o IndexedFaceSet__23_0
g IndexedFaceSet__23_0

s off
f 96/92/32 98/93/32 95/95/32
f 97/94/32 95/95/32 98/93/32
# 2 polygons
