# Converted by Daum Communications 
# Date/time of export: 08/22/2013 14:52:37
#
# Bounding box of geometry = (202660,443247,-0.304946) to (202694,443283,16.2572).

mtllib 3687261.mtl

# Coordinates for object 'IndexedFaceSet'
v  202660.234375 443273.875000 16.257198 
v  202660.390625 443274.312500 16.257195 
v  202660.468750 443274.062500 16.257195 
v  202670.218750 443246.812500 16.257206 
v  202684.312500 443283.031250 16.257191 
v  202694.390625 443255.718750 16.257202 
# 6 vertices

vt 0.0 0.996484 0.0
vt 0.004482 0.0 0.0
vt 0.987938 0.0 0.0
vt 0.989096 0.009155 0.0
vt 0.995559 1.000000 0.0
vt 1.000000 0.012314 0.0
# 6 texture vertices

vn  0.0 0.0 1.0 
vn  0.000012 0.000005 1.0 
# 2 normals

usemtl surface

o IndexedFaceSet
g IndexedFaceSet

s off
f 6/1/1 3/4/1 4/5/1
f 1/6/2 4/5/2 3/4/2
f 6/1/1 5/2/1 3/4/1
f 2/3/1 3/4/1 5/2/1
# 4 polygons

# Coordinates for object 'IndexedFaceSet #1'
v  202660.390625 443274.312500 -0.304945 
v  202660.390625 443274.312500 16.257195 
v  202660.468750 443274.062500 -0.304946 
v  202660.468750 443274.062500 16.257195 
# 4 vertices

vt 0.0 0.999999 0.0
vt 0.000211 0.0 0.0
vt 0.999802 1.000000 0.0
vt 1.000000 0.0 0.0
# 4 texture vertices

vn  -0.954480 -0.298275 0.0 
# 1 normals

usemtl surface__2

o IndexedFaceSet__1_0
g IndexedFaceSet__1_0

s off
f 7/8/3 9/10/3 10/9/3
f 10/9/3 8/7/3 7/8/3
# 2 polygons

# Coordinates for object 'IndexedFaceSet #2'
v  202660.390625 443274.312500 -0.304945 
v  202660.390625 443274.312500 16.257195 
v  202684.312500 443283.031250 -0.304946 
v  202684.312500 443283.031250 16.257191 
# 4 vertices

vt 0.0 1.000000 0.0
vt 0.000139 0.000243 0.0
vt 0.999952 0.999440 0.0
vt 1.000000 0.0 0.0
# 4 texture vertices

vn  -0.342433 0.939542 0.0 
# 1 normals

usemtl surface__3

o IndexedFaceSet__2_0
g IndexedFaceSet__2_0

s off
f 14/11/4 13/12/4 12/13/4
f 11/14/4 12/13/4 13/12/4
# 2 polygons

# Coordinates for object 'IndexedFaceSet #3'
v  202684.312500 443283.031250 -0.304946 
v  202684.312500 443283.031250 16.257191 
v  202694.390625 443255.718750 -0.304937 
v  202694.390625 443255.718750 16.257202 
# 4 vertices

vt 0.0 1.000000 0.0
vt 0.000054 0.0 0.0
vt 0.999882 0.999834 0.0
vt 1.000000 0.000079 0.0
# 4 texture vertices

vn  0.938169 0.346178 0.0 
# 1 normals

usemtl surface__4

o IndexedFaceSet__3_0
g IndexedFaceSet__3_0

s off
f 16/15/5 18/17/5 17/18/5
f 17/18/5 15/16/5 16/15/5
# 2 polygons

# Coordinates for object 'IndexedFaceSet #4'
v  202670.218750 443246.812500 -0.304933 
v  202670.218750 443246.812500 16.257206 
v  202694.390625 443255.718750 -0.304937 
v  202694.390625 443255.718750 16.257202 
# 4 vertices

vt 0.0 1.000000 0.0
vt 0.000139 0.000243 0.0
vt 0.999952 0.999440 0.0
vt 1.000000 0.0 0.0
# 4 texture vertices

vn  0.345733 -0.938333 0.0 
# 1 normals

usemtl surface__3

o IndexedFaceSet__4_0
g IndexedFaceSet__4_0

s off
f 20/21/6 19/22/6 21/20/6
f 21/20/6 22/19/6 20/21/6
# 2 polygons

# Coordinates for object 'IndexedFaceSet #5'
v  202660.234375 443273.875000 -0.304941 
v  202660.234375 443273.875000 16.257198 
v  202670.218750 443246.812500 -0.304933 
v  202670.218750 443246.812500 16.257206 
# 4 vertices

vt 0.0 1.000000 0.0
vt 0.000054 0.0 0.0
vt 0.999882 0.999834 0.0
vt 1.000000 0.000079 0.0
# 4 texture vertices

vn  -0.938186 -0.346132 0.0 
# 1 normals

usemtl surface__4

o IndexedFaceSet__5_0
g IndexedFaceSet__5_0

s off
f 24/23/7 23/24/7 25/26/7
f 25/26/7 26/25/7 24/23/7
# 2 polygons

# Coordinates for object 'IndexedFaceSet #6'
v  202660.234375 443273.875000 -0.304941 
v  202660.234375 443273.875000 16.257198 
v  202660.468750 443274.062500 -0.304946 
v  202660.468750 443274.062500 16.257195 
# 4 vertices

vt 0.0 0.0 0.0
vt 0.000274 1.000000 0.0
vt 0.999726 0.0 0.0
vt 1.000000 1.000000 0.0
# 4 texture vertices

vn  -0.624695 0.780869 0.0 
# 1 normals

usemtl surface__5

o IndexedFaceSet__6_0
g IndexedFaceSet__6_0

s off
f 28/30/8 30/28/8 27/29/8
f 29/27/8 27/29/8 30/28/8
# 2 polygons
