# Converted by Daum Communications 
# Date/time of export: 08/22/2013 14:52:41
#
# Bounding box of geometry = (203344,443527,-0.234346) to (203352,443536,17.847).

mtllib 3687571.mtl

# Coordinates for object 'IndexedFaceSet'
v  203343.968750 443534.218750 -0.234346 
v  203344.046875 443534.250000 17.340309 
v  203349.156250 443536.375000 -0.169001 
v  203349.156250 443536.375000 17.564503 
# 4 vertices

vt 0.0 0.0 0.0
vt 0.005134 1.000000 0.0
vt 0.985975 0.000303 0.0
vt 1.000000 0.985550 0.0
# 4 texture vertices

vn  -0.384014 0.923327 0.0 
vn  -0.383826 0.923405 0.000064 
# 2 normals

usemtl surface

o IndexedFaceSet
g IndexedFaceSet

s off
f 3/2/2 1/1/2 2/3/2
f 2/3/1 4/4/1 3/2/1
# 2 polygons

# Coordinates for object 'IndexedFaceSet #1'
v  203347.000000 443526.937500 -0.234340 
v  203347.078125 443526.968750 17.340313 
v  203352.187500 443529.093750 -0.169000 
v  203352.187500 443529.093750 17.564507 
# 4 vertices

vt 0.0 0.0 0.0
vt 0.0 0.874341 0.0
vt 0.999999 0.113663 0.0
vt 1.000000 1.000000 0.0
# 4 texture vertices

vn  0.383826 -0.923405 -0.000064 
vn  0.384014 -0.923327 0.0 
# 2 normals

usemtl surface__2

o IndexedFaceSet__1_0
g IndexedFaceSet__1_0

s off
f 8/5/4 6/6/4 7/7/4
f 5/8/3 7/7/3 6/6/3
# 2 polygons

# Coordinates for object 'IndexedFaceSet #2'
v  203343.906250 443534.187500 17.611683 
v  203344.046875 443534.250000 17.340309 
v  203349.156250 443536.375000 17.564503 
v  203349.265625 443536.406250 17.846979 
# 4 vertices

vt 0.0 1.000000 0.0
vt 0.022468 0.0 0.0
vt 0.975288 0.0 0.0
vt 1.000000 0.999990 0.0
# 4 texture vertices

vn  -0.385352 0.921559 0.047258 
vn  -0.383006 0.923636 0.014250 
# 2 normals

usemtl surface__3

o IndexedFaceSet__2_0
g IndexedFaceSet__2_0

s off
f 11/10/5 10/11/5 12/9/5
f 9/12/6 12/9/6 10/11/6
# 2 polygons

# Coordinates for object 'IndexedFaceSet #3'
v  203343.968750 443534.218750 -0.234346 
v  203344.046875 443534.250000 17.340309 
v  203347.000000 443526.937500 -0.234340 
v  203347.078125 443526.968750 17.340313 
# 4 vertices

vt 0.0 0.0 0.0
vt 0.000042 0.999671 0.0
vt 0.999940 1.000000 0.0
vt 1.000000 0.000462 0.0
# 4 texture vertices

vn  -0.923184 -0.384330 0.004787 
# 1 normals

usemtl surface__4

o IndexedFaceSet__3_0
g IndexedFaceSet__3_0

s off
f 13/15/7 15/16/7 14/14/7
f 16/13/7 14/14/7 15/16/7
# 2 polygons

# Coordinates for object 'IndexedFaceSet #4'
v  203349.156250 443536.375000 -0.169001 
v  203349.156250 443536.375000 17.564503 
v  203352.187500 443529.093750 -0.169000 
v  203352.187500 443529.093750 17.564507 
# 4 vertices

vt 0.0 0.999937 0.0
vt 0.000084 0.0 0.0
vt 0.999887 1.000000 0.0
vt 1.000000 0.000104 0.0
# 4 texture vertices

vn  0.923194 0.384334 0.0 
# 1 normals

usemtl surface__5

o IndexedFaceSet__4_0
g IndexedFaceSet__4_0

s off
f 19/17/8 17/18/8 18/20/8
f 18/20/8 20/19/8 19/17/8
# 2 polygons

# Coordinates for object 'IndexedFaceSet #5'
v  203349.156250 443536.375000 -0.169001 
v  203349.156250 443536.375000 17.564503 
v  203352.187500 443529.093750 -0.169000 
v  203352.187500 443529.093750 17.564507 
# 4 vertices

vt 0.0 0.999937 0.0
vt 0.000084 0.0 0.0
vt 0.999887 1.000000 0.0
vt 1.000000 0.000104 0.0
# 4 texture vertices

vn  0.923194 0.384334 0.0 
# 1 normals

usemtl surface__5

o IndexedFaceSet__5_0
g IndexedFaceSet__5_0

s off
f 23/21/9 21/22/9 22/24/9
f 22/24/9 24/23/9 23/21/9
# 2 polygons

# Coordinates for object 'IndexedFaceSet #6'
v  203346.937500 443526.906250 17.611731 
v  203347.078125 443526.968750 17.340355 
v  203352.187500 443529.093750 17.564548 
v  203352.296875 443529.125000 17.847027 
# 4 vertices

vt 0.0 1.000000 0.0
vt 0.024712 0.0 0.0
vt 0.977532 0.0 0.0
vt 1.000000 1.000000 0.0
# 4 texture vertices

vn  0.383006 -0.923636 -0.014250 
vn  0.385352 -0.921559 -0.047257 
# 2 normals

usemtl surface__3

o IndexedFaceSet__6_0
g IndexedFaceSet__6_0

s off
f 25/25/10 26/26/10 28/28/10
f 27/27/11 28/28/11 26/26/11
# 2 polygons

# Coordinates for object 'IndexedFaceSet #7'
v  203343.906250 443534.187500 17.611683 
v  203344.046875 443534.250000 17.340309 
v  203346.937500 443526.906250 17.611731 
v  203347.078125 443526.968750 17.340355 
# 4 vertices

vt 0.0 0.0 0.0
vt 0.0 1.000000 0.0
vt 1.000000 0.0 0.0
vt 1.000000 1.000000 0.0
# 4 texture vertices

vn  -0.803115 -0.334347 -0.493172 
# 1 normals

usemtl surface__3

o IndexedFaceSet__7_0
g IndexedFaceSet__7_0

s off
f 32/31/12 31/32/12 30/29/12
f 29/30/12 30/29/12 31/32/12
# 2 polygons

# Coordinates for object 'IndexedFaceSet #8'
v  203343.906250 443534.187500 17.611683 
v  203346.937500 443526.906250 17.611731 
v  203349.265625 443536.406250 17.846979 
v  203352.296875 443529.125000 17.847027 
# 4 vertices

vt 0.0 0.0 0.0
vt 0.0 1.000000 0.0
vt 1.000000 0.0 0.0
vt 1.000000 1.000000 0.0
# 4 texture vertices

vn  -0.037421 -0.015572 0.999178 
# 1 normals

usemtl surface__6

o IndexedFaceSet__8_0
g IndexedFaceSet__8_0

s off
f 35/33/13 33/35/13 36/34/13
f 34/36/13 36/34/13 33/35/13
# 2 polygons

# Coordinates for object 'IndexedFaceSet #9'
v  203349.156250 443536.375000 17.564503 
v  203349.265625 443536.406250 17.846979 
v  203352.187500 443529.093750 17.564548 
v  203352.296875 443529.125000 17.847027 
# 4 vertices

vt 0.0 0.0 0.0
vt 0.0 0.999999 0.0
vt 1.000000 0.0 0.0
vt 1.000000 1.000000 0.0
# 4 texture vertices

vn  0.857172 0.356846 -0.371372 
# 1 normals

usemtl surface__3

o IndexedFaceSet__9_0
g IndexedFaceSet__9_0

s off
f 40/38/14 39/37/14 38/40/14
f 37/39/14 38/40/14 39/37/14
# 2 polygons
