# Converted by Daum Communications 
# Date/time of export: 08/22/2013 14:52:44
#
# Bounding box of geometry = (203834,443707,-0.476986) to (203849,443719,5.5516).

mtllib 3695130.mtl

# Coordinates for object 'IndexedFaceSet'
v  203833.859375 443714.343750 4.778613 
v  203833.859375 443714.343750 5.502031 
v  203833.984375 443714.406250 -0.450242 
v  203833.984375 443714.406250 4.778613 
v  203846.468750 443718.781250 -0.450244 
v  203846.468750 443718.781250 4.793310 
v  203846.546875 443718.812500 4.793310 
v  203846.562500 443718.812500 5.551595 
# 8 vertices

vt 0.0 1.000000 0.0
vt 0.001187 0.873674 0.0
vt 0.007301 0.873674 0.0
vt 0.007303 0.000134 0.0
vt 0.990370 0.0 0.0
vt 0.990373 0.871081 0.0
vt 1.000000 0.871080 0.0
vt 1.000000 0.991595 0.0
# 8 texture vertices

vn  -0.447214 0.894427 0.0 
vn  -0.371380 0.928450 0.007653 
vn  -0.331836 0.943028 0.024135 
vn  -0.330720 0.943727 0.001996 
vn  -0.330719 0.943729 0.0 
# 5 normals

usemtl surface

o IndexedFaceSet
g IndexedFaceSet

s off
f 8/1/4 6/3/4 4/6/4
f 6/3/2 8/1/2 7/2/2
f 5/4/5 4/6/5 6/3/5
f 3/5/5 4/6/5 5/4/5
f 1/7/1 2/8/1 4/6/1
f 4/6/3 2/8/3 8/1/3
# 6 polygons

# Coordinates for object 'IndexedFaceSet #1'
v  203836.390625 443707.187500 4.619750 
v  203836.390625 443707.187500 5.343168 
v  203836.515625 443707.218750 -0.476984 
v  203836.515625 443707.218750 4.619750 
v  203849.000000 443711.593750 -0.476986 
v  203849.000000 443711.593750 4.634448 
v  203849.078125 443711.625000 4.634448 
v  203849.078125 443711.625000 5.392733 
# 8 vertices

vt 0.0 1.000000 0.0
vt 0.001187 0.873674 0.0
vt 0.007301 0.873674 0.0
vt 0.007303 0.000134 0.0
vt 0.990370 0.0 0.0
vt 0.990373 0.871081 0.0
vt 1.000000 0.871080 0.0
vt 1.000000 0.991595 0.0
# 8 texture vertices

vn  0.242536 -0.970142 0.0 
vn  0.330043 -0.943826 0.016257 
vn  0.330710 -0.943720 0.004819 
vn  0.330719 -0.943729 0.0 
vn  0.371391 -0.928477 0.0 
# 5 normals

usemtl surface

o IndexedFaceSet__1_0
g IndexedFaceSet__1_0

s off
f 14/11/10 15/10/10 16/9/10
f 12/14/9 11/13/9 13/12/9
f 13/12/9 14/11/9 12/14/9
f 16/9/8 12/14/8 14/11/8
f 12/14/7 16/9/7 10/16/7
f 10/16/6 9/15/6 12/14/6
# 6 polygons

# Coordinates for object 'IndexedFaceSet #2'
v  203846.468750 443718.781250 4.793310 
v  203846.546875 443718.812500 4.793310 
v  203849.000000 443711.593750 4.634448 
v  203849.078125 443711.625000 4.634448 
# 4 vertices

vt 0.0 1.000000 0.0
vt 0.027552 0.0 0.0
vt 0.972748 1.000000 0.0
vt 1.000000 0.0 0.0
# 4 texture vertices

vn  -0.007748 0.019369 -0.999782 
# 1 normals

usemtl surface__2

o IndexedFaceSet__2_0
g IndexedFaceSet__2_0

s off
f 17/19/11 18/17/11 20/18/11
f 20/18/11 19/20/11 17/19/11
# 2 polygons

# Coordinates for object 'IndexedFaceSet #3'
v  203846.468750 443718.781250 -0.450244 
v  203846.468750 443718.781250 4.793310 
v  203849.000000 443711.593750 -0.476986 
v  203849.000000 443711.593750 4.634448 
# 4 vertices

vt 0.0 0.0 0.0
vt 0.0 1.000000 0.0
vt 0.999999 1.000000 0.0
vt 1.000000 0.0 0.0
# 4 texture vertices

vn  0.943217 0.332177 0.0 
# 1 normals

usemtl surface__3

o IndexedFaceSet__3_0
g IndexedFaceSet__3_0

s off
f 24/22/12 23/21/12 21/24/12
f 21/24/12 22/23/12 24/22/12
# 2 polygons

# Coordinates for object 'IndexedFaceSet #4'
v  203833.984375 443714.406250 -0.450242 
v  203833.984375 443714.406250 4.778613 
v  203836.515625 443707.218750 -0.476984 
v  203836.515625 443707.218750 4.619750 
# 4 vertices

vt 0.0 0.0 0.0
vt 0.0 1.000000 0.0
vt 0.999999 0.0 0.0
vt 1.000000 1.000000 0.0
# 4 texture vertices

vn  -0.943217 -0.332177 0.0 
# 1 normals

usemtl surface__3

o IndexedFaceSet__4_0
g IndexedFaceSet__4_0

s off
f 26/26/13 25/25/13 28/28/13
f 27/27/13 28/28/13 25/25/13
# 2 polygons

# Coordinates for object 'IndexedFaceSet #5'
v  203833.859375 443714.343750 4.778613 
v  203833.984375 443714.406250 4.778613 
v  203836.390625 443707.187500 4.619750 
v  203836.515625 443707.218750 4.619750 
# 4 vertices

vt 0.0 0.0 0.0
vt 0.010769 1.000000 0.0
vt 0.988822 0.0 0.0
vt 1.000000 0.999995 0.0
# 4 texture vertices

vn  -0.009429 0.018859 -0.999778 
vn  -0.005077 0.020310 -0.999781 
# 2 normals

usemtl surface__4

o IndexedFaceSet__5_0
g IndexedFaceSet__5_0

s off
f 29/32/14 30/30/14 31/31/14
f 32/29/15 31/31/15 30/30/15
# 2 polygons

# Coordinates for object 'IndexedFaceSet #6'
v  203833.859375 443714.343750 4.778613 
v  203833.859375 443714.343750 5.502031 
v  203836.390625 443707.187500 4.619750 
v  203836.390625 443707.187500 5.343168 
# 4 vertices

vt 0.0 0.0 0.0
vt 0.0 1.000000 0.0
vt 1.000000 0.0 0.0
vt 1.000000 1.000000 0.0
# 4 texture vertices

vn  -0.942762 -0.333466 0.0 
# 1 normals

usemtl surface__5

o IndexedFaceSet__6_0
g IndexedFaceSet__6_0

s off
f 34/34/16 33/33/16 36/36/16
f 35/35/16 36/36/16 33/33/16
# 2 polygons

# Coordinates for object 'IndexedFaceSet #7'
v  203833.859375 443714.343750 5.502031 
v  203836.390625 443707.187500 5.343168 
v  203846.562500 443718.812500 5.551595 
v  203849.078125 443711.625000 5.392733 
# 4 vertices

vt 0.0 0.0 0.0
vt 0.0 1.000000 0.0
vt 0.999997 0.0 0.0
vt 1.000000 1.000000 0.0
# 4 texture vertices

vn  0.003432 -0.020980 0.999774 
vn  0.003448 -0.020891 0.999776 
# 2 normals

usemtl surface__5

o IndexedFaceSet__7_0
g IndexedFaceSet__7_0

s off
f 40/40/18 39/38/18 37/37/18
f 37/37/17 38/39/17 40/40/17
# 2 polygons

# Coordinates for object 'IndexedFaceSet #8'
v  203846.546875 443718.812500 4.793310 
v  203846.562500 443718.812500 5.551595 
v  203849.078125 443711.625000 4.634448 
v  203849.078125 443711.625000 5.392733 
# 4 vertices

vt 0.0 0.0 0.0
vt 0.0 1.000000 0.0
vt 1.000000 0.0 0.0
vt 1.000000 1.000000 0.0
# 4 texture vertices

vn  0.943217 0.332177 0.0 
vn  0.943546 0.330671 -0.019442 
# 2 normals

usemtl surface__5

o IndexedFaceSet__8_0
g IndexedFaceSet__8_0

s off
f 44/42/19 43/41/19 41/43/19
f 41/43/20 42/44/20 44/42/20
# 2 polygons
