# Converted by Daum Communications 
# Date/time of export: 08/22/2013 14:53:19
#
# Bounding box of geometry = (203561,443602,-0.264879) to (203582,443621,13.9358).

mtllib 3725746.mtl

# Coordinates for object 'IndexedFaceSet'
v  203562.312500 443615.468750 -0.209528 
v  203562.312500 443615.468750 13.924545 
v  203576.828125 443621.093750 -0.209473 
v  203576.828125 443621.093750 13.935766 
# 4 vertices

vt 0.0 0.000156 0.0
vt 0.000668 1.000000 0.0
vt 0.999903 0.0 0.0
vt 1.000000 0.999912 0.0
# 4 texture vertices

vn  -0.361332 0.932437 0.0 
# 1 normals

usemtl surface

o IndexedFaceSet
g IndexedFaceSet

s off
f 2/2/1 4/1/1 3/3/1
f 3/3/1 1/4/1 2/2/1
# 2 polygons

# Coordinates for object 'IndexedFaceSet #1'
v  203567.671875 443601.593750 -0.264879 
v  203567.671875 443601.593750 13.924520 
v  203582.203125 443607.218750 -0.264830 
v  203582.203125 443607.218750 13.935742 
# 4 vertices

vt 0.0 0.000156 0.0
vt 0.000668 1.000000 0.0
vt 0.999903 0.0 0.0
vt 1.000000 0.999912 0.0
# 4 texture vertices

vn  0.360994 -0.932568 0.0 
# 1 normals

usemtl surface

o IndexedFaceSet__1_0
g IndexedFaceSet__1_0

s off
f 6/6/2 5/8/2 7/7/2
f 7/7/2 8/5/2 6/6/2
# 2 polygons

# Coordinates for object 'IndexedFaceSet #2'
v  203576.828125 443621.093750 -0.209473 
v  203576.828125 443621.093750 13.935766 
v  203582.203125 443607.218750 -0.264830 
v  203582.203125 443607.218750 13.935742 
# 4 vertices

vt 0.0 1.000000 0.0
vt 0.000534 0.000112 0.0
vt 0.996235 0.0 0.0
vt 1.000000 0.999696 0.0
# 4 texture vertices

vn  0.932477 0.361230 0.0 
# 1 normals

usemtl surface__2

o IndexedFaceSet__2_0
g IndexedFaceSet__2_0

s off
f 10/10/3 12/9/3 9/11/3
f 11/12/3 9/11/3 12/9/3
# 2 polygons

# Coordinates for object 'IndexedFaceSet #3'
v  203562.312500 443615.468750 -0.209528 
v  203562.312500 443615.468750 13.924545 
v  203567.671875 443601.593750 -0.264879 
v  203567.671875 443601.593750 13.924520 
# 4 vertices

vt 0.0 1.000000 0.0
vt 0.000534 0.000112 0.0
vt 0.996235 0.0 0.0
vt 1.000000 0.999696 0.0
# 4 texture vertices

vn  -0.932830 -0.360316 0.0 
# 1 normals

usemtl surface__2

o IndexedFaceSet__3_0
g IndexedFaceSet__3_0

s off
f 16/13/4 14/14/4 13/15/4
f 13/15/4 15/16/4 16/13/4
# 2 polygons

# Coordinates for object 'IndexedFaceSet #4'
v  203562.312500 443615.468750 13.924545 
v  203567.671875 443601.593750 13.924520 
v  203576.828125 443621.093750 13.935766 
v  203582.203125 443607.218750 13.935742 
# 4 vertices

vt 0.0 0.0 0.0
vt 0.0 1.000000 0.0
vt 1.000000 0.0 0.0
vt 1.000000 1.000000 0.0
# 4 texture vertices

vn  -0.000671 -0.000261 1.000000 
# 1 normals

usemtl surface__3

o IndexedFaceSet__4_0
g IndexedFaceSet__4_0

s off
f 18/19/5 20/20/5 17/17/5
f 19/18/5 17/17/5 20/20/5
# 2 polygons

# Coordinates for object 'IndexedFaceSet #5'
v  203561.421875 443615.843750 6.264080 
v  203562.312500 443615.468750 6.264080 
v  203562.703125 443612.531250 6.264089 
v  203563.343750 443612.781250 6.264085 
v  203565.640625 443617.500000 6.264078 
v  203565.890625 443616.843750 6.264079 
# 6 vertices

vt 0.0 1.000000 0.0
vt 0.000156 0.000195 0.0
vt 0.153208 0.999048 0.0
vt 0.153352 0.189138 0.0
vt 0.999951 0.188934 0.0
vt 1.000000 0.0 0.0
# 6 texture vertices

vn  0.0 0.0 -1.0 
# 1 normals

usemtl surface__4

o IndexedFaceSet__5_0
g IndexedFaceSet__5_0

s off
f 21/22/6 25/26/6 22/24/6
f 22/24/6 25/26/6 26/25/6
f 21/22/6 22/24/6 23/21/6
f 24/23/6 23/21/6 22/24/6
# 4 polygons

# Coordinates for object 'IndexedFaceSet #6'
v  203561.421875 443615.843750 6.986522 
v  203562.312500 443615.468750 6.986524 
v  203562.703125 443612.531250 6.986532 
v  203563.343750 443612.781250 6.986527 
v  203565.640625 443617.500000 6.986522 
v  203565.890625 443616.843750 6.986522 
# 6 vertices

vt 0.0 1.000000 0.0
vt 0.000156 0.000195 0.0
vt 0.153208 0.999048 0.0
vt 0.153352 0.189138 0.0
vt 0.999951 0.188934 0.0
vt 1.000000 0.0 0.0
# 6 texture vertices

vn  0.000007 0.000004 1.0 
# 1 normals

usemtl surface__4

o IndexedFaceSet__6_0
g IndexedFaceSet__6_0

s off
f 29/27/7 30/29/7 28/30/7
f 31/32/7 27/28/7 28/30/7
f 28/30/7 27/28/7 29/27/7
f 31/32/7 28/30/7 32/31/7
# 4 polygons

# Coordinates for object 'IndexedFaceSet #7'
v  203561.421875 443615.843750 6.264080 
v  203561.421875 443615.843750 6.986522 
v  203562.703125 443612.531250 6.264089 
v  203562.703125 443612.531250 6.986532 
# 4 vertices

vt 0.0 0.0 0.0
vt 0.000012 0.999236 0.0
vt 0.999967 0.000607 0.0
vt 1.000000 1.000000 0.0
# 4 texture vertices

vn  -0.932664 -0.360747 0.0 
# 1 normals

usemtl surface__5

o IndexedFaceSet__7_0
g IndexedFaceSet__7_0

s off
f 34/34/8 33/33/8 35/35/8
f 35/35/8 36/36/8 34/34/8
# 2 polygons

# Coordinates for object 'IndexedFaceSet #8'
v  203561.421875 443615.843750 6.264080 
v  203561.421875 443615.843750 6.986522 
v  203565.640625 443617.500000 6.264078 
v  203565.640625 443617.500000 6.986522 
# 4 vertices

vt 0.0 0.0 0.0
vt 0.000034 0.999631 0.0
vt 0.999977 0.000324 0.0
vt 1.000000 1.000000 0.0
# 4 texture vertices

vn  -0.365439 0.930835 0.0 
# 1 normals

usemtl surface__6

o IndexedFaceSet__8_0
g IndexedFaceSet__8_0

s off
f 38/40/9 40/38/9 39/37/9
f 39/37/9 37/39/9 38/40/9
# 2 polygons

# Coordinates for object 'IndexedFaceSet #9'
v  203565.640625 443617.500000 6.264078 
v  203565.640625 443617.500000 6.986522 
v  203565.890625 443616.843750 6.264079 
v  203565.890625 443616.843750 6.986522 
# 4 vertices

vt 0.0 0.0 0.0
# 1 texture vertices

vn  0.934488 0.355995 0.0 
# 1 normals

usemtl surface__7

o IndexedFaceSet__9_0
g IndexedFaceSet__9_0

s off
f 42/41/10 44/41/10 43/41/10
f 43/41/10 41/41/10 42/41/10
# 2 polygons

# Coordinates for object 'IndexedFaceSet #10'
v  203562.703125 443612.531250 6.264089 
v  203562.703125 443612.531250 6.986532 
v  203563.343750 443612.781250 6.264085 
v  203563.343750 443612.781250 6.986527 
# 4 vertices

vt 0.0 0.0 0.0
# 1 texture vertices

vn  0.363542 -0.931578 0.0 
# 1 normals

usemtl surface__7

o IndexedFaceSet__10_0
g IndexedFaceSet__10_0

s off
f 46/42/11 45/42/11 48/42/11
f 47/42/11 48/42/11 45/42/11
# 2 polygons

# Coordinates for object 'IndexedFaceSet #11'
v  203561.406250 443615.750000 2.554107 
v  203562.312500 443615.468750 2.549223 
v  203562.796875 443612.156250 2.618391 
v  203563.484375 443612.406250 2.618388 
v  203566.000000 443617.531250 2.548038 
v  203566.218750 443616.937500 2.548271 
# 6 vertices

vt 0.0 0.0 0.0
vt 0.022383 0.977373 0.0
vt 0.174402 0.000070 0.0
vt 0.185797 0.827919 0.0
vt 0.993553 0.858126 0.0
vt 1.000000 1.000000 0.0
# 6 texture vertices

vn  -0.012430 -0.022691 -0.999665 
vn  -0.003581 0.005827 -0.999977 
vn  -0.000084 -0.000423 -1.000000 
vn  0.007204 -0.019823 -0.999778 
# 4 normals

usemtl surface__8

o IndexedFaceSet__11_0
g IndexedFaceSet__11_0

s off
f 49/44/13 53/43/13 50/46/13
f 50/46/14 53/43/14 54/45/14
f 49/44/12 50/46/12 51/48/12
f 52/47/15 51/48/15 50/46/15
# 4 polygons

# Coordinates for object 'IndexedFaceSet #12'
v  203561.421875 443615.750000 4.088536 
v  203562.312500 443615.500000 4.083652 
v  203562.812500 443612.156250 4.215935 
v  203563.484375 443612.437500 4.152817 
v  203566.078125 443617.562500 4.082467 
v  203566.234375 443616.937500 4.082699 
# 6 vertices

vt 0.0 0.909558 0.0
vt 0.019541 0.761973 0.0
vt 0.757228 0.839122 0.0
vt 0.856851 0.0 0.0
vt 0.867312 1.000000 0.0
vt 1.000000 0.0 0.0
# 6 texture vertices

vn  0.000098 0.000395 1.000000 
vn  0.003732 -0.006239 0.999974 
vn  0.017297 0.042107 0.998963 
vn  0.072541 0.050254 0.996099 
# 4 normals

usemtl surface__9

o IndexedFaceSet__12_0
g IndexedFaceSet__12_0

s off
f 57/49/19 58/50/19 56/51/19
f 59/54/17 55/53/17 56/51/17
f 56/51/18 55/53/18 57/49/18
f 59/54/16 56/51/16 60/52/16
# 4 polygons

# Coordinates for object 'IndexedFaceSet #13'
v  203562.796875 443612.156250 2.618391 
v  203562.812500 443612.156250 4.215935 
v  203563.484375 443612.406250 2.618388 
v  203563.484375 443612.437500 4.152817 
# 4 vertices

vt 0.0 0.0 0.0
# 1 texture vertices

vn  0.341681 -0.939621 0.019136 
vn  0.385834 -0.922561 -0.003774 
# 2 normals

usemtl surface__7

o IndexedFaceSet__13_0
g IndexedFaceSet__13_0

s off
f 62/55/21 61/55/21 64/55/21
f 63/55/20 64/55/20 61/55/20
# 2 polygons

# Coordinates for object 'IndexedFaceSet #14'
v  203561.406250 443615.750000 2.554107 
v  203561.421875 443615.750000 4.088536 
v  203562.796875 443612.156250 2.618391 
v  203562.812500 443612.156250 4.215935 
# 4 vertices

vt 0.0 0.0 0.0
vt 0.003464 0.960201 0.0
vt 0.996066 0.000056 0.0
vt 1.000000 1.000000 0.0
# 4 texture vertices

vn  -0.932682 -0.360584 0.009122 
vn  -0.932627 -0.360716 0.009497 
# 2 normals

usemtl surface__10

o IndexedFaceSet__14_0
g IndexedFaceSet__14_0

s off
f 68/59/22 66/57/22 67/58/22
f 65/56/23 67/58/23 66/57/23
# 2 polygons

# Coordinates for object 'IndexedFaceSet #15'
v  203561.406250 443615.750000 2.554107 
v  203561.421875 443615.750000 4.088536 
v  203566.000000 443617.531250 2.548038 
v  203566.078125 443617.562500 4.082467 
# 4 vertices

vt 0.0 1.000000 0.0
vt 0.016044 0.000495 0.0
vt 0.998783 0.999453 0.0
vt 1.000000 0.0 0.0
# 4 texture vertices

vn  -0.362749 0.931887 -0.000509 
vn  -0.361521 0.932357 0.003681 
# 2 normals

usemtl surface__11

o IndexedFaceSet__15_0
g IndexedFaceSet__15_0

s off
f 70/62/24 72/60/24 71/61/24
f 71/61/25 69/63/25 70/62/25
# 2 polygons

# Coordinates for object 'IndexedFaceSet #16'
v  203566.000000 443617.531250 2.548038 
v  203566.078125 443617.562500 4.082467 
v  203566.218750 443616.937500 2.548271 
v  203566.234375 443616.937500 4.082699 
# 4 vertices

vt 0.0 0.0 0.0
# 1 texture vertices

vn  0.938302 0.345686 -0.009555 
vn  0.968718 0.242159 -0.054254 
# 2 normals

usemtl surface__7

o IndexedFaceSet__16_0
g IndexedFaceSet__16_0

s off
f 74/64/27 76/64/27 73/64/27
f 75/64/26 73/64/26 76/64/26
# 2 polygons

# Coordinates for object 'IndexedFaceSet #17'
v  203566.750000 443617.406250 10.340219 
v  203566.765625 443617.406250 9.146514 
v  203566.828125 443617.218750 9.146513 
v  203566.843750 443617.250000 10.357544 
# 4 vertices

vt 0.0 0.931733 0.0
vt 0.000341 0.0 0.0
vt 0.999997 0.080318 0.0
vt 1.000000 1.000000 0.0
# 4 texture vertices

vn  -0.948610 -0.316203 -0.012417 
vn  -0.858426 -0.512362 0.024297 
# 2 normals

usemtl surface__12

o IndexedFaceSet__17_0
g IndexedFaceSet__17_0

s off
f 80/65/29 77/66/29 79/68/29
f 78/67/28 79/68/28 77/66/28
# 2 polygons

# Coordinates for object 'IndexedFaceSet #18'
v  203576.031250 443621.000000 10.347388 
v  203576.046875 443621.000000 9.153685 
v  203576.109375 443620.812500 9.153684 
v  203576.125000 443620.843750 10.364715 
# 4 vertices

vt 0.0 0.931733 0.0
vt 0.000341 0.0 0.0
vt 0.999997 0.080318 0.0
vt 1.000000 1.000000 0.0
# 4 texture vertices

vn  0.858426 0.512361 -0.024297 
vn  0.948610 0.316203 0.012417 
# 2 normals

usemtl surface__12

o IndexedFaceSet__18_0
g IndexedFaceSet__18_0

s off
f 81/70/30 84/69/30 83/72/30
f 83/72/31 82/71/31 81/70/31
# 2 polygons

# Coordinates for object 'IndexedFaceSet #19'
v  203566.750000 443617.406250 10.340219 
v  203566.765625 443617.406250 9.146514 
v  203576.031250 443621.000000 10.347388 
v  203576.046875 443621.000000 9.153685 
# 4 vertices

vt 0.0 0.001718 0.0
vt 0.0 1.000000 0.0
vt 0.999911 0.998469 0.0
vt 1.000000 0.0 0.0
# 4 texture vertices

vn  -0.361075 0.932525 -0.004726 
# 1 normals

usemtl surface__13

o IndexedFaceSet__19_0
g IndexedFaceSet__19_0

s off
f 85/75/32 87/74/32 88/73/32
f 88/73/32 86/76/32 85/75/32
# 2 polygons

# Coordinates for object 'IndexedFaceSet #20'
v  203566.765625 443617.406250 9.146514 
v  203566.828125 443617.218750 9.146513 
v  203576.046875 443621.000000 9.153685 
v  203576.109375 443620.812500 9.153684 
# 4 vertices

vt 0.0 0.0 0.0
vt 0.001381 0.999965 0.0
vt 0.998004 0.0 0.0
vt 1.000000 1.000000 0.0
# 4 texture vertices

vn  0.000683 0.000233 -1.000000 
# 1 normals

usemtl surface__14

o IndexedFaceSet__20_0
g IndexedFaceSet__20_0

s off
f 90/77/33 89/79/33 91/80/33
f 91/80/33 92/78/33 90/77/33
# 2 polygons

# Coordinates for object 'IndexedFaceSet #21'
v  203566.750000 443617.406250 10.340219 
v  203566.843750 443617.250000 10.357544 
v  203576.031250 443621.000000 10.347388 
v  203576.125000 443620.843750 10.364715 
# 4 vertices

vt 0.0 0.001718 0.0
vt 0.0 1.000000 0.0
vt 0.999911 0.998469 0.0
vt 1.000000 0.0 0.0
# 4 texture vertices

vn  -0.035305 0.089194 0.995388 
# 1 normals

usemtl surface__13

o IndexedFaceSet__21_0
g IndexedFaceSet__21_0

s off
f 96/81/34 95/82/34 94/84/34
f 93/83/34 94/84/34 95/82/34
# 2 polygons
