# Converted by Daum Communications 
# Date/time of export: 08/22/2013 14:53:20
#
# Bounding box of geometry = (203161,443507,-0.386688) to (203178,443522,22.352).

mtllib 3725759.mtl

# Coordinates for object 'IndexedFaceSet'
v  203164.343750 443507.093750 -0.386684 
v  203164.500000 443507.156250 17.727087 
v  203178.296875 443512.187500 -0.386684 
v  203178.406250 443512.218750 17.727087 
# 4 vertices

vt 0.0 0.0 0.0
vt 0.010991 0.999931 0.0
vt 0.993180 0.000073 0.0
vt 1.000000 1.000000 0.0
# 4 texture vertices

vn  0.342082 -0.939670 -0.000444 
vn  0.342925 -0.939363 0.000283 
# 2 normals

usemtl surface

o IndexedFaceSet
g IndexedFaceSet

s off
f 2/2/2 1/1/2 3/3/2
f 3/3/1 4/4/1 2/2/1
# 2 polygons

# Coordinates for object 'IndexedFaceSet #1'
v  203160.625000 443517.343750 -0.386687 
v  203160.781250 443517.406250 17.727083 
v  203174.578125 443522.406250 -0.386688 
v  203174.671875 443522.468750 17.727085 
# 4 vertices

vt 0.0 0.0 0.0
vt 0.010991 0.999931 0.0
vt 0.993180 0.000073 0.0
vt 1.000000 1.000000 0.0
# 4 texture vertices

vn  -0.342421 0.939545 -0.001470 
vn  -0.341067 0.940039 -0.000301 
# 2 normals

usemtl surface

o IndexedFaceSet__1_0
g IndexedFaceSet__1_0

s off
f 6/6/3 8/8/3 7/7/3
f 7/7/4 5/5/4 6/6/4
# 2 polygons

# Coordinates for object 'IndexedFaceSet #2'
v  203174.578125 443522.406250 -0.386688 
v  203174.671875 443522.468750 17.727085 
v  203178.296875 443512.187500 -0.386684 
v  203178.406250 443512.218750 17.727087 
# 4 vertices

vt 0.0 1.000000 0.0
vt 0.000264 0.000081 0.0
vt 0.999806 0.999798 0.0
vt 1.000000 0.0 0.0
# 4 texture vertices

vn  0.939567 0.342312 -0.006044 
vn  0.939691 0.341967 -0.006264 
# 2 normals

usemtl surface__2

o IndexedFaceSet__2_0
g IndexedFaceSet__2_0

s off
f 12/11/6 11/12/6 9/10/6
f 9/10/5 10/9/5 12/11/5
# 2 polygons

# Coordinates for object 'IndexedFaceSet #3'
v  203160.781250 443517.406250 17.727083 
v  203164.500000 443507.156250 17.727087 
v  203174.671875 443522.468750 17.727085 
v  203178.406250 443512.218750 17.727087 
# 4 vertices

vt 0.0 0.0 0.0
vt 0.0 1.000000 0.0
vt 1.000000 0.0 0.0
vt 1.000000 1.000000 0.0
# 4 texture vertices

vn  0.0 0.0 1.0 
# 1 normals

usemtl surface__3

o IndexedFaceSet__3_0
g IndexedFaceSet__3_0

s off
f 13/15/7 14/16/7 15/13/7
f 16/14/7 15/13/7 14/16/7
# 2 polygons

# Coordinates for object 'IndexedFaceSet #4'
v  203160.625000 443517.343750 -0.386687 
v  203160.781250 443517.406250 17.727083 
v  203164.343750 443507.093750 -0.386684 
v  203164.500000 443507.156250 17.727087 
# 4 vertices

vt 0.0 1.000000 0.0
vt 0.000264 0.000081 0.0
vt 0.999806 0.999798 0.0
vt 1.000000 0.0 0.0
# 4 texture vertices

vn  -0.940004 -0.341038 0.009285 
# 1 normals

usemtl surface__2

o IndexedFaceSet__4_0
g IndexedFaceSet__4_0

s off
f 18/17/8 17/18/8 19/20/8
f 19/20/8 20/19/8 18/17/8
# 2 polygons

# Coordinates for object 'IndexedFaceSet #5'
v  203171.781250 443509.812500 17.727087 
v  203171.781250 443509.812500 22.352013 
v  203174.796875 443510.906250 17.726934 
v  203174.875000 443510.937500 22.352011 
# 4 vertices

vt 0.0 0.999918 0.0
vt 0.000171 0.0 0.0
vt 0.976133 0.000045 0.0
vt 1.000000 1.000000 0.0
# 4 texture vertices

vn  0.340961 -0.940078 0.0 
vn  0.341743 -0.939793 0.000577 
# 2 normals

usemtl surface__4

o IndexedFaceSet__5_0
g IndexedFaceSet__5_0

s off
f 22/21/9 21/22/9 23/23/9
f 23/23/10 24/24/10 22/21/10
# 2 polygons

# Coordinates for object 'IndexedFaceSet #6'
v  203169.250000 443516.750000 17.727087 
v  203169.250000 443516.750000 22.352011 
v  203172.265625 443517.843750 17.726936 
v  203172.343750 443517.875000 22.352011 
# 4 vertices

vt 0.0 0.999922 0.0
vt 0.000175 0.0 0.0
vt 0.999827 1.000000 0.0
vt 1.000000 0.000046 0.0
# 4 texture vertices

vn  -0.341743 0.939793 -0.000577 
vn  -0.340961 0.940078 0.0 
# 2 normals

usemtl surface__5

o IndexedFaceSet__6_0
g IndexedFaceSet__6_0

s off
f 26/25/11 28/27/11 27/28/11
f 27/28/12 25/26/12 26/25/12
# 2 polygons

# Coordinates for object 'IndexedFaceSet #7'
v  203172.265625 443517.843750 17.726936 
v  203172.343750 443517.875000 22.352011 
v  203174.796875 443510.906250 17.726934 
v  203174.875000 443510.937500 22.352011 
# 4 vertices

vt 0.0 1.000000 0.0
vt 0.000070 0.000495 0.0
vt 0.999943 0.999444 0.0
vt 1.000000 0.0 0.0
# 4 texture vertices

vn  0.939267 0.342706 -0.018181 
# 1 normals

usemtl surface__6

o IndexedFaceSet__7_0
g IndexedFaceSet__7_0

s off
f 32/31/13 31/32/13 29/30/13
f 29/30/13 30/29/13 32/31/13
# 2 polygons

# Coordinates for object 'IndexedFaceSet #8'
v  203169.250000 443516.750000 22.352011 
v  203171.781250 443509.812500 22.352013 
v  203172.343750 443517.875000 22.352011 
v  203174.875000 443510.937500 22.352011 
# 4 vertices

vt 0.0 0.0 0.0
vt 0.0 1.000000 0.0
vt 0.999999 1.000000 0.0
vt 1.000000 0.0 0.0
# 4 texture vertices

vn  0.0 0.0 1.0 
# 1 normals

usemtl surface__7

o IndexedFaceSet__8_0
g IndexedFaceSet__8_0

s off
f 35/33/14 33/36/14 34/35/14
f 34/35/14 36/34/14 35/33/14
# 2 polygons

# Coordinates for object 'IndexedFaceSet #9'
v  203169.250000 443516.750000 17.727087 
v  203169.250000 443516.750000 22.352011 
v  203171.781250 443509.812500 17.727087 
v  203171.781250 443509.812500 22.352013 
# 4 vertices

vt 0.0 1.000000 0.0
vt 0.000070 0.000495 0.0
vt 0.999943 0.999444 0.0
vt 1.000000 0.0 0.0
# 4 texture vertices

vn  -0.939422 -0.342762 0.0 
# 1 normals

usemtl surface__6

o IndexedFaceSet__9_0
g IndexedFaceSet__9_0

s off
f 38/37/15 37/38/15 40/39/15
f 39/40/15 40/39/15 37/38/15
# 2 polygons
