# Converted by Daum Communications 
# Date/time of export: 08/22/2013 14:53:17
#
# Bounding box of geometry = (202680,443326,-0.317879) to (202708,443362,10.8974).

mtllib 3725502.mtl

# Coordinates for object 'IndexedFaceSet'
v  202680.328125 443355.500000 10.897381 
v  202691.609375 443326.250000 10.897388 
v  202691.921875 443326.375000 10.897404 
v  202692.031250 443326.093750 10.897405 
v  202696.718750 443361.875000 10.897381 
v  202708.296875 443332.250000 10.897404 
# 6 vertices

vt 0.0 0.0 0.0
vt 0.0 1.000000 0.0
vt 0.981635 0.985103 0.0
vt 0.981635 0.994273 0.0
vt 0.992773 0.0 0.0
vt 1.000000 0.984343 0.0
# 6 texture vertices

vn  -0.000042 -0.000016 1.0 
vn  0.0 0.0 1.0 
# 2 normals

usemtl surface

o IndexedFaceSet
g IndexedFaceSet

s off
f 5/1/2 3/3/2 6/2/2
f 4/4/2 6/2/2 3/3/2
f 5/1/2 1/5/2 3/3/2
f 3/3/1 1/5/1 2/6/1
# 4 polygons

# Coordinates for object 'IndexedFaceSet #1'
v  202680.328125 443355.500000 -0.317878 
v  202680.328125 443355.500000 10.897381 
v  202691.609375 443326.250000 -0.317871 
v  202691.609375 443326.250000 10.897388 
# 4 vertices

vt 0.0 1.000000 0.0
vt 0.000125 0.000296 0.0
vt 0.999963 0.998960 0.0
vt 1.000000 0.0 0.0
# 4 texture vertices

vn  -0.933011 -0.359847 0.0 
# 1 normals

usemtl surface__2

o IndexedFaceSet__1_0
g IndexedFaceSet__1_0

s off
f 8/7/3 7/8/3 10/9/3
f 9/10/3 10/9/3 7/8/3
# 2 polygons

# Coordinates for object 'IndexedFaceSet #2'
v  202680.328125 443355.500000 -0.317878 
v  202680.328125 443355.500000 10.897381 
v  202696.718750 443361.875000 -0.317879 
v  202696.718750 443361.875000 10.897381 
# 4 vertices

vt 0.0 1.000000 0.0
vt 0.000052 0.0 0.0
vt 0.999895 0.999901 0.0
vt 1.000000 0.000111 0.0
# 4 texture vertices

vn  -0.362489 0.931988 0.0 
# 1 normals

usemtl surface__3

o IndexedFaceSet__2_0
g IndexedFaceSet__2_0

s off
f 14/13/4 13/14/4 11/12/4
f 11/12/4 12/11/4 14/13/4
# 2 polygons

# Coordinates for object 'IndexedFaceSet #3'
v  202696.718750 443361.875000 -0.317879 
v  202696.718750 443361.875000 10.897381 
v  202708.296875 443332.250000 -0.317853 
v  202708.296875 443332.250000 10.897404 
# 4 vertices

vt 0.0 1.000000 0.0
vt 0.000125 0.000296 0.0
vt 0.999963 0.998960 0.0
vt 1.000000 0.0 0.0
# 4 texture vertices

vn  0.931395 0.364010 0.0 
# 1 normals

usemtl surface__2

o IndexedFaceSet__3_0
g IndexedFaceSet__3_0

s off
f 18/17/5 17/18/5 16/15/5
f 15/16/5 16/15/5 17/18/5
# 2 polygons

# Coordinates for object 'IndexedFaceSet #4'
v  202692.031250 443326.093750 -0.317854 
v  202692.031250 443326.093750 10.897405 
v  202708.296875 443332.250000 -0.317853 
v  202708.296875 443332.250000 10.897404 
# 4 vertices

vt 0.0 1.000000 0.0
vt 0.000052 0.0 0.0
vt 0.999895 0.999901 0.0
vt 1.000000 0.000111 0.0
# 4 texture vertices

vn  0.353977 -0.935254 0.0 
# 1 normals

usemtl surface__3

o IndexedFaceSet__4_0
g IndexedFaceSet__4_0

s off
f 20/19/6 19/20/6 22/21/6
f 21/22/6 22/21/6 19/20/6
# 2 polygons

# Coordinates for object 'IndexedFaceSet #5'
v  202691.921875 443326.375000 -0.317854 
v  202691.921875 443326.375000 10.897404 
v  202692.031250 443326.093750 -0.317854 
v  202692.031250 443326.093750 10.897405 
# 4 vertices

vt 0.0 1.000000 0.0
vt 0.001062 0.0 0.0
vt 0.998973 0.999996 0.0
vt 1.000000 0.0 0.0
# 4 texture vertices

vn  -0.932005 -0.362446 0.0 
# 1 normals

usemtl surface__4

o IndexedFaceSet__5_0
g IndexedFaceSet__5_0

s off
f 26/25/7 24/23/7 25/26/7
f 23/24/7 25/26/7 24/23/7
# 2 polygons

# Coordinates for object 'IndexedFaceSet #6'
v  202691.609375 443326.250000 -0.317871 
v  202691.609375 443326.250000 10.897388 
v  202691.921875 443326.375000 -0.317854 
v  202691.921875 443326.375000 10.897404 
# 4 vertices

vt 0.0 1.000000 0.0
vt 0.003184 0.0 0.0
vt 0.996732 0.999999 0.0
vt 1.000000 0.0 0.0
# 4 texture vertices

vn  0.371391 -0.928477 0.0 
# 1 normals

usemtl surface__5

o IndexedFaceSet__6_0
g IndexedFaceSet__6_0

s off
f 27/28/8 29/30/8 28/27/8
f 30/29/8 28/27/8 29/30/8
# 2 polygons
