# Converted by Daum Communications 
# Date/time of export: 08/22/2013 14:53:17
#
# Bounding box of geometry = (202661,443525,-0.948962) to (202693,443552,68.9519).

mtllib 3725468.mtl

# Coordinates for object 'IndexedFaceSet'
v  202686.515625 443552.062500 8.239808 
v  202686.515625 443552.062500 68.951843 
v  202687.656250 443549.093750 -0.602157 
v  202687.656250 443549.093750 8.239806 
v  202693.000000 443535.312500 -0.602153 
v  202693.187500 443534.812500 68.951851 
# 6 vertices

vt 0.0 0.0 0.0
vt 0.0 1.000000 0.0
vt 0.872877 0.828710 0.0
vt 0.872877 0.999668 0.0
vt 0.999996 0.029427 0.0
vt 1.000000 0.828648 0.0
# 6 texture vertices

vn  0.932361 0.361528 0.0 
vn  0.932380 0.361480 0.000085 
vn  0.932669 0.360733 -0.000117 
vn  0.933472 0.358650 0.0 
# 4 normals

usemtl surface

o IndexedFaceSet
g IndexedFaceSet

s off
f 6/1/3 4/3/3 2/2/3
f 4/3/2 6/1/2 5/5/2
f 2/2/4 4/3/4 1/4/4
f 3/6/1 4/3/1 5/5/1
# 4 polygons

# Coordinates for object 'IndexedFaceSet #1'
v  202660.578125 443542.000000 8.239816 
v  202660.578125 443542.000000 68.951851 
v  202661.718750 443539.062500 -0.602149 
v  202661.718750 443539.062500 8.239817 
v  202667.062500 443525.281250 -0.602145 
v  202667.250000 443524.750000 68.951859 
# 6 vertices

vt 0.0 0.0 0.0
vt 0.0 1.000000 0.0
vt 0.872877 0.828710 0.0
vt 0.872877 0.999668 0.0
vt 0.999996 0.029427 0.0
vt 1.000000 0.828648 0.0
# 6 texture vertices

vn  -0.932669 -0.360733 -0.000069 
vn  -0.932415 -0.361390 -0.000247 
vn  -0.932361 -0.361528 0.0 
vn  -0.932191 -0.361968 0.0 
# 4 normals

usemtl surface

o IndexedFaceSet__1_0
g IndexedFaceSet__1_0

s off
f 10/9/7 9/12/7 11/11/7
f 10/9/5 12/7/5 8/8/5
f 12/7/6 10/9/6 11/11/6
f 10/9/8 8/8/8 7/10/8
# 4 polygons

# Coordinates for object 'IndexedFaceSet #2'
v  202661.718750 443539.062500 -0.602149 
v  202661.718750 443539.062500 8.239817 
v  202687.656250 443549.093750 -0.602157 
v  202687.656250 443549.093750 8.239806 
# 4 vertices

vt 0.0 0.0 0.0
vt 0.000055 0.999123 0.0
vt 0.999906 0.000234 0.0
vt 1.000000 1.000000 0.0
# 4 texture vertices

vn  -0.360710 0.932678 0.0 
# 1 normals

usemtl surface__2

o IndexedFaceSet__2_0
g IndexedFaceSet__2_0

s off
f 14/16/9 16/14/9 13/15/9
f 15/13/9 13/15/9 16/14/9
# 2 polygons

# Coordinates for object 'IndexedFaceSet #3'
v  202660.578125 443542.000000 8.239816 
v  202661.718750 443539.062500 8.239817 
v  202686.515625 443552.062500 8.239808 
v  202687.656250 443549.093750 8.239806 
# 4 vertices

vt 0.0 0.0 0.0
vt 0.0 1.000000 0.0
vt 0.999996 1.000000 0.0
vt 1.000000 0.0 0.0
# 4 texture vertices

vn  0.0 0.0 -1.0 
# 1 normals

usemtl surface__3

o IndexedFaceSet__3_0
g IndexedFaceSet__3_0

s off
f 19/17/10 20/20/10 18/19/10
f 18/19/10 17/18/10 19/17/10
# 2 polygons

# Coordinates for object 'IndexedFaceSet #4'
v  202660.578125 443542.000000 8.239816 
v  202660.578125 443542.000000 68.951851 
v  202686.515625 443552.062500 8.239808 
v  202686.515625 443552.062500 68.951843 
# 4 vertices

vt 0.0 1.000000 0.0
vt 0.000715 0.000235 0.0
vt 0.999733 0.999574 0.0
vt 1.000000 0.0 0.0
# 4 texture vertices

vn  -0.361687 0.932299 0.0 
# 1 normals

usemtl surface__4

o IndexedFaceSet__4_0
g IndexedFaceSet__4_0

s off
f 22/21/11 24/22/11 23/24/11
f 23/24/11 21/23/11 22/21/11
# 2 polygons

# Coordinates for object 'IndexedFaceSet #5'
v  202660.578125 443542.000000 68.951851 
v  202667.250000 443524.750000 68.951859 
v  202686.515625 443552.062500 68.951843 
v  202693.187500 443534.812500 68.951851 
# 4 vertices

vt 0.0 0.0 0.0
vt 0.0 1.000000 0.0
vt 1.000000 0.0 0.0
vt 1.000000 1.000000 0.0
# 4 texture vertices

vn  0.0 0.0 1.0 
# 1 normals

usemtl surface__5

o IndexedFaceSet__5_0
g IndexedFaceSet__5_0

s off
f 25/27/12 26/28/12 28/26/12
f 28/26/12 27/25/12 25/27/12
# 2 polygons

# Coordinates for object 'IndexedFaceSet #6'
v  202667.062500 443525.281250 -0.602145 
v  202667.250000 443524.750000 68.951859 
v  202693.000000 443535.312500 -0.602153 
v  202693.187500 443534.812500 68.951851 
# 4 vertices

vt 0.0 1.000000 0.0
vt 0.000228 0.000301 0.0
vt 0.999982 0.0 0.0
vt 1.000000 0.999811 0.0
# 4 texture vertices

vn  0.360699 -0.932647 -0.008096 
vn  0.361677 -0.932272 -0.007677 
# 2 normals

usemtl surface__6

o IndexedFaceSet__6_0
g IndexedFaceSet__6_0

s off
f 32/29/14 30/30/14 31/32/14
f 29/31/13 31/32/13 30/30/13
# 2 polygons

# Coordinates for object 'IndexedFaceSet #7'
v  202684.328125 443549.218750 -0.948962 
v  202684.328125 443549.218750 8.239807 
v  202685.750000 443549.781250 -0.948961 
v  202685.750000 443549.781250 8.239805 
# 4 vertices

vt 0.0 0.0 0.0
vt 0.0 1.000000 0.0
vt 0.999995 0.0 0.0
vt 1.000000 1.000000 0.0
# 4 texture vertices

vn  0.367864 -0.929879 0.0 
# 1 normals

usemtl surface__3

o IndexedFaceSet__7_0
g IndexedFaceSet__7_0

s off
f 36/36/15 34/34/15 33/33/15
f 33/33/15 35/35/15 36/36/15
# 2 polygons

# Coordinates for object 'IndexedFaceSet #8'
v  202683.843750 443550.468750 -0.948959 
v  202683.843750 443550.468750 8.239808 
v  202684.328125 443549.218750 -0.948962 
v  202684.328125 443549.218750 8.239807 
# 4 vertices

vt 0.0 0.0 0.0
vt 0.0 1.000000 0.0
vt 1.000000 0.0 0.0
vt 1.000000 1.000000 0.0
# 4 texture vertices

vn  -0.932441 -0.361321 0.0 
# 1 normals

usemtl surface__3

o IndexedFaceSet__8_0
g IndexedFaceSet__8_0

s off
f 37/37/16 39/39/16 40/40/16
f 40/40/16 38/38/16 37/37/16
# 2 polygons

# Coordinates for object 'IndexedFaceSet #9'
v  202683.843750 443550.468750 -0.948959 
v  202683.843750 443550.468750 8.239808 
v  202685.281250 443551.031250 -0.948959 
v  202685.281250 443551.031250 8.239808 
# 4 vertices

vt 0.0 0.0 0.0
vt 0.0 1.000000 0.0
vt 0.999996 1.000000 0.0
vt 1.000000 0.0 0.0
# 4 texture vertices

vn  -0.364399 0.931243 0.0 
# 1 normals

usemtl surface__3

o IndexedFaceSet__9_0
g IndexedFaceSet__9_0

s off
f 42/43/17 44/42/17 43/41/17
f 43/41/17 41/44/17 42/43/17
# 2 polygons

# Coordinates for object 'IndexedFaceSet #10'
v  202685.281250 443551.031250 -0.948959 
v  202685.281250 443551.031250 8.239808 
v  202685.750000 443549.781250 -0.948961 
v  202685.750000 443549.781250 8.239805 
# 4 vertices

vt 0.0 0.0 0.0
vt 0.0 1.000000 0.0
vt 1.000000 0.0 0.0
vt 1.000000 1.000000 0.0
# 4 texture vertices

vn  0.936329 0.351123 0.0 
# 1 normals

usemtl surface__3

o IndexedFaceSet__10_0
g IndexedFaceSet__10_0

s off
f 46/48/18 48/46/18 47/45/18
f 47/45/18 45/47/18 46/48/18
# 2 polygons

# Coordinates for object 'IndexedFaceSet #11'
v  202661.640625 443541.937500 -0.791190 
v  202661.640625 443541.937500 8.239811 
v  202664.140625 443542.906250 -0.791191 
v  202664.140625 443542.906250 8.239811 
# 4 vertices

vt 0.0 0.0 0.0
vt 0.0 1.000000 0.0
vt 1.000000 0.0 0.0
vt 1.000000 1.000000 0.0
# 4 texture vertices

vn  -0.361321 0.932441 0.0 
# 1 normals

usemtl surface__3

o IndexedFaceSet__11_0
g IndexedFaceSet__11_0

s off
f 50/52/19 52/50/19 51/49/19
f 51/49/19 49/51/19 50/52/19
# 2 polygons

# Coordinates for object 'IndexedFaceSet #12'
v  202664.140625 443542.906250 -0.791191 
v  202664.140625 443542.906250 8.239811 
v  202664.656250 443541.593750 -0.791191 
v  202664.656250 443541.593750 8.239811 
# 4 vertices

vt 0.0 0.0 0.0
vt 0.0 1.000000 0.0
vt 0.999998 0.0 0.0
vt 1.000000 1.000000 0.0
# 4 texture vertices

vn  0.930752 0.365652 0.0 
# 1 normals

usemtl surface__3

o IndexedFaceSet__12_0
g IndexedFaceSet__12_0

s off
f 54/56/20 56/54/20 55/53/20
f 55/53/20 53/55/20 54/56/20
# 2 polygons

# Coordinates for object 'IndexedFaceSet #13'
v  202662.046875 443540.593750 -0.791191 
v  202662.046875 443540.593750 8.239808 
v  202664.656250 443541.593750 -0.791191 
v  202664.656250 443541.593750 8.239811 
# 4 vertices

vt 0.0 0.0 0.0
vt 0.0 1.000000 0.0
vt 1.000000 0.0 0.0
vt 1.000000 1.000000 0.0
# 4 texture vertices

vn  0.357855 -0.933777 0.0 
# 1 normals

usemtl surface__3

o IndexedFaceSet__13_0
g IndexedFaceSet__13_0

s off
f 60/60/21 58/58/21 59/59/21
f 57/57/21 59/59/21 58/58/21
# 2 polygons

# Coordinates for object 'IndexedFaceSet #14'
v  202661.640625 443541.937500 -0.791190 
v  202661.640625 443541.937500 8.239811 
v  202662.046875 443540.593750 -0.791191 
v  202662.046875 443540.593750 8.239808 
# 4 vertices

vt 0.0 0.0 0.0
vt 0.0 1.000000 0.0
vt 0.999995 0.0 0.0
vt 0.999996 1.000000 0.0
# 4 texture vertices

vn  -0.957211 -0.289389 0.0 
# 1 normals

usemtl surface__3

o IndexedFaceSet__14_0
g IndexedFaceSet__14_0

s off
f 61/61/22 63/63/22 64/64/22
f 64/64/22 62/62/22 61/61/22
# 2 polygons
