# Converted by Daum Communications 
# Date/time of export: 08/22/2013 14:53:17
#
# Bounding box of geometry = (202313,444445,-1.8172) to (202339,444469,44.992).

mtllib 3725460.mtl

# Coordinates for object 'IndexedFaceSet'
v  202312.531250 444461.250000 44.992043 
v  202317.546875 444447.062500 44.992031 
v  202328.828125 444467.031250 44.992039 
v  202328.921875 444466.781250 44.992039 
v  202332.218750 444468.125000 44.992043 
v  202332.265625 444467.968750 44.992039 
v  202334.015625 444468.750000 44.992031 
v  202334.156250 444466.593750 44.992039 
v  202334.328125 444466.125000 44.992031 
v  202334.718750 444466.781250 44.992039 
v  202334.890625 444466.312500 44.992043 
v  202337.453125 444457.250000 44.992039 
v  202337.625000 444456.812500 44.992039 
v  202338.015625 444457.468750 44.992039 
v  202338.125000 444457.000000 44.992039 
v  202338.953125 444454.625000 44.992031 
# 16 vertices

vt 0.0 1.000000 0.0
vt 0.0 0.002450 0.0
vt 0.165520 0.002450 0.0
vt 0.165520 0.026217 0.0
vt 0.197210 0.000390 0.0
vt 0.197210 0.026217 0.0
vt 0.822464 0.0 0.0
vt 0.822464 0.026028 0.0
vt 0.855173 0.000158 0.0
vt 0.855173 0.026028 0.0
vt 0.983190 0.084503 0.0
vt 0.983190 0.240541 0.0
vt 0.993984 0.000158 0.0
vt 0.993984 0.084503 0.0
vt 1.000000 0.240541 0.0
vt 1.000000 1.000000 0.0
# 16 texture vertices

vn  -0.000018 -0.000007 1.0 
vn  -0.000016 -0.000022 1.0 
vn  0.000001 -0.000003 1.0 
vn  0.000013 -0.000020 1.0 
# 4 normals

usemtl surface

o IndexedFaceSet
g IndexedFaceSet

s off
f 6/11/3 4/12/3 9/8/3
f 12/6/3 4/12/3 2/1/3
f 13/4/3 12/6/3 2/1/3
f 2/1/3 16/2/3 13/4/3
f 5/14/4 6/11/4 7/13/4
f 1/16/3 4/12/3 3/15/3
f 4/12/3 1/16/3 2/1/3
f 9/8/3 4/12/3 12/6/3
f 14/5/3 9/8/3 12/6/3
f 9/8/1 14/5/1 11/7/1
f 9/8/2 8/10/2 6/11/2
f 10/9/3 7/13/3 8/10/3
f 8/10/3 7/13/3 6/11/3
f 15/3/3 13/4/3 16/2/3
# 14 polygons

# Coordinates for object 'IndexedFaceSet #1'
v  202337.453125 444457.250000 -1.352130 
v  202337.453125 444457.250000 44.992039 
v  202338.015625 444457.468750 -1.352130 
v  202338.015625 444457.468750 44.992039 
# 4 vertices

vt 0.0 1.000000 0.0
vt 0.0 0.005537 0.0
vt 0.999998 0.0 0.0
vt 1.000000 0.993781 0.0
# 4 texture vertices

vn  0.362446 -0.932005 0.0 
# 1 normals

usemtl surface__2

o IndexedFaceSet__1_0
g IndexedFaceSet__1_0

s off
f 20/17/5 18/18/5 19/20/5
f 17/19/5 19/20/5 18/18/5
# 2 polygons

# Coordinates for object 'IndexedFaceSet #2'
v  202337.453125 444457.250000 -1.352130 
v  202337.453125 444457.250000 44.992039 
v  202337.625000 444456.812500 -1.352130 
v  202337.625000 444456.812500 44.992039 
# 4 vertices

vt 0.0 1.000000 0.0
vt 0.0 0.012599 0.0
vt 0.999999 0.0 0.0
vt 1.000000 0.986994 0.0
# 4 texture vertices

vn  0.930752 0.365652 0.0 
# 1 normals

usemtl surface__3

o IndexedFaceSet__2_0
g IndexedFaceSet__2_0

s off
f 22/21/6 24/22/6 21/24/6
f 23/23/6 21/24/6 24/22/6
# 2 polygons

# Coordinates for object 'IndexedFaceSet #3'
v  202337.625000 444456.812500 -1.352130 
v  202337.625000 444456.812500 44.992039 
v  202338.125000 444457.000000 -1.352130 
v  202338.125000 444457.000000 44.992039 
# 4 vertices

vt 0.0 0.013523 0.0
vt 0.000016 1.000000 0.0
vt 0.999999 0.987385 0.0
vt 1.000000 0.0 0.0
# 4 texture vertices

vn  -0.351123 0.936329 0.0 
# 1 normals

usemtl surface__4

o IndexedFaceSet__3_0
g IndexedFaceSet__3_0

s off
f 26/26/7 28/25/7 27/28/7
f 27/28/7 25/27/7 26/26/7
# 2 polygons

# Coordinates for object 'IndexedFaceSet #4'
v  202338.125000 444457.000000 -1.352130 
v  202338.125000 444457.000000 44.992039 
v  202338.953125 444454.625000 -1.352132 
v  202338.953125 444454.625000 44.992031 
# 4 vertices

vt 0.0 0.002981 0.0
vt 0.000017 1.000000 0.0
vt 0.999999 0.0 0.0
vt 1.000000 0.996972 0.0
# 4 texture vertices

vn  0.944245 0.329243 0.0 
# 1 normals

usemtl surface__5

o IndexedFaceSet__4_0
g IndexedFaceSet__4_0

s off
f 30/30/8 32/29/8 29/32/8
f 31/31/8 29/32/8 32/29/8
# 2 polygons

# Coordinates for object 'IndexedFaceSet #5'
v  202317.546875 444447.062500 -1.352133 
v  202317.546875 444447.062500 44.992031 
v  202338.953125 444454.625000 -1.352132 
v  202338.953125 444454.625000 44.992031 
# 4 vertices

vt 0.0 1.000000 0.0
vt 0.000432 0.000603 0.0
vt 0.999827 0.0 0.0
vt 1.000000 0.999667 0.0
# 4 texture vertices

vn  0.333108 -0.942889 0.0 
# 1 normals

usemtl surface__6

o IndexedFaceSet__5_0
g IndexedFaceSet__5_0

s off
f 36/33/9 34/34/9 35/36/9
f 33/35/9 35/36/9 34/34/9
# 2 polygons

# Coordinates for object 'IndexedFaceSet #6'
v  202312.531250 444461.250000 -1.352132 
v  202312.531250 444461.250000 44.992043 
v  202317.546875 444447.062500 -1.352133 
v  202317.546875 444447.062500 44.992031 
# 4 vertices

vt 0.0 0.000758 0.0
vt 0.0 1.000000 0.0
vt 0.999998 0.0 0.0
vt 1.000000 0.999228 0.0
# 4 texture vertices

vn  -0.942818 -0.333309 0.0 
# 1 normals

usemtl surface__7

o IndexedFaceSet__6_0
g IndexedFaceSet__6_0

s off
f 37/40/10 39/39/10 38/38/10
f 40/37/10 38/38/10 39/39/10
# 2 polygons

# Coordinates for object 'IndexedFaceSet #7'
v  202312.531250 444461.250000 -1.352132 
v  202312.531250 444461.250000 44.992043 
v  202328.828125 444467.031250 -1.352129 
v  202328.828125 444467.031250 44.992039 
# 4 vertices

vt 0.0 0.000023 0.0
vt 0.000850 0.999339 0.0
vt 0.998736 0.0 0.0
vt 1.000000 1.000000 0.0
# 4 texture vertices

vn  -0.334332 0.942455 0.0 
# 1 normals

usemtl surface__8

o IndexedFaceSet__7_0
g IndexedFaceSet__7_0

s off
f 42/44/11 44/42/11 43/41/11
f 43/41/11 41/43/11 42/44/11
# 2 polygons

# Coordinates for object 'IndexedFaceSet #8'
v  202328.828125 444467.031250 -1.352129 
v  202328.828125 444467.031250 44.992039 
v  202328.921875 444466.781250 -1.352128 
v  202328.921875 444466.781250 44.992039 
# 4 vertices

vt 0.0 1.000000 0.0
vt 0.0 0.024908 0.0
vt 1.000000 0.0 0.0
vt 1.000000 0.975115 0.0
# 4 texture vertices

vn  0.936329 0.351123 0.0 
# 1 normals

usemtl surface__9

o IndexedFaceSet__8_0
g IndexedFaceSet__8_0

s off
f 46/45/12 48/46/12 47/47/12
f 47/47/12 45/48/12 46/45/12
# 2 polygons

# Coordinates for object 'IndexedFaceSet #9'
v  202328.921875 444466.781250 -1.352128 
v  202328.921875 444466.781250 44.992039 
v  202332.265625 444467.968750 -1.352130 
v  202332.265625 444467.968750 44.992039 
# 4 vertices

vt 0.0 0.0 0.0
vt 0.002886 0.999881 0.0
vt 0.996828 0.0 0.0
vt 1.000000 1.000000 0.0
# 4 texture vertices

vn  -0.334662 0.942338 0.0 
# 1 normals

usemtl surface__10

o IndexedFaceSet__9_0
g IndexedFaceSet__9_0

s off
f 50/52/13 52/50/13 49/51/13
f 51/49/13 49/51/13 52/50/13
# 2 polygons

# Coordinates for object 'IndexedFaceSet #10'
v  202332.218750 444468.125000 -1.352130 
v  202332.218750 444468.125000 44.992043 
v  202332.265625 444467.968750 -1.352130 
v  202332.265625 444467.968750 44.992039 
# 4 vertices

vt 0.0 0.002394 0.0
vt 0.0 1.000000 0.0
vt 0.999999 0.0 0.0
vt 1.000000 0.997592 0.0
# 4 texture vertices

vn  -0.957826 -0.287348 0.0 
# 1 normals

usemtl surface__11

o IndexedFaceSet__10_0
g IndexedFaceSet__10_0

s off
f 53/53/14 55/55/14 56/56/14
f 56/56/14 54/54/14 53/53/14
# 2 polygons

# Coordinates for object 'IndexedFaceSet #11'
v  202332.218750 444468.125000 -1.352130 
v  202332.218750 444468.125000 44.992043 
v  202334.015625 444468.750000 -1.352130 
v  202334.015625 444468.750000 44.992031 
# 4 vertices

vt 0.0 1.000000 0.0
vt 0.000055 0.001558 0.0
vt 0.999976 0.998320 0.0
vt 1.000000 0.0 0.0
# 4 texture vertices

vn  -0.328521 0.944497 0.0 
# 1 normals

usemtl surface__12

o IndexedFaceSet__11_0
g IndexedFaceSet__11_0

s off
f 58/57/15 60/58/15 57/59/15
f 59/60/15 57/59/15 60/58/15
# 2 polygons

# Coordinates for object 'IndexedFaceSet #12'
v  202334.015625 444468.750000 -1.352130 
v  202334.015625 444468.750000 44.992031 
v  202334.718750 444466.781250 -1.352131 
v  202334.718750 444466.781250 44.992039 
# 4 vertices

vt 0.0 0.001170 0.0
vt 0.0 1.000000 0.0
vt 1.000000 0.0 0.0
vt 1.000000 0.998801 0.0
# 4 texture vertices

vn  0.941742 0.336336 0.0 
# 1 normals

usemtl surface__13

o IndexedFaceSet__12_0
g IndexedFaceSet__12_0

s off
f 62/62/16 64/61/16 63/63/16
f 63/63/16 61/64/16 62/62/16
# 2 polygons

# Coordinates for object 'IndexedFaceSet #13'
v  202334.156250 444466.593750 -1.352130 
v  202334.156250 444466.593750 44.992039 
v  202334.718750 444466.781250 -1.352131 
v  202334.718750 444466.781250 44.992039 
# 4 vertices

vt 0.0 0.003090 0.0
vt 0.0 1.000000 0.0
vt 0.999995 0.0 0.0
vt 1.000000 0.997426 0.0
# 4 texture vertices

vn  0.316228 -0.948683 0.0 
# 1 normals

usemtl surface__14

o IndexedFaceSet__13_0
g IndexedFaceSet__13_0

s off
f 68/66/17 66/65/17 67/68/17
f 65/67/17 67/68/17 66/65/17
# 2 polygons

# Coordinates for object 'IndexedFaceSet #14'
v  202334.156250 444466.593750 -1.352130 
v  202334.156250 444466.593750 44.992039 
v  202334.328125 444466.125000 -1.352131 
v  202334.328125 444466.125000 44.992031 
# 4 vertices

vt 0.0 0.012994 0.0
vt 0.000012 1.000000 0.0
vt 1.000000 0.0 0.0
vt 1.000000 0.987014 0.0
# 4 texture vertices

vn  0.938876 0.344255 0.0 
# 1 normals

usemtl surface__15

o IndexedFaceSet__14_0
g IndexedFaceSet__14_0

s off
f 70/70/18 72/69/18 71/71/18
f 71/71/18 69/72/18 70/70/18
# 2 polygons

# Coordinates for object 'IndexedFaceSet #15'
v  202334.328125 444466.125000 -1.352131 
v  202334.328125 444466.125000 44.992031 
v  202334.890625 444466.312500 -1.352130 
v  202334.890625 444466.312500 44.992043 
# 4 vertices

vt 0.0 1.000000 0.0
vt 0.000011 0.000728 0.0
vt 0.999995 0.999292 0.0
vt 1.000000 0.0 0.0
# 4 texture vertices

vn  -0.316228 0.948683 0.0 
# 1 normals

usemtl surface__16

o IndexedFaceSet__15_0
g IndexedFaceSet__15_0

s off
f 74/73/19 76/74/19 75/76/19
f 75/76/19 73/75/19 74/73/19
# 2 polygons

# Coordinates for object 'IndexedFaceSet #16'
v  202334.890625 444466.312500 -1.352130 
v  202334.890625 444466.312500 44.992043 
v  202338.015625 444457.468750 -1.352130 
v  202338.015625 444457.468750 44.992039 
# 4 vertices

vt 0.0 0.000758 0.0
vt 0.0 1.000000 0.0
vt 0.999998 0.0 0.0
vt 1.000000 0.999228 0.0
# 4 texture vertices

vn  0.942867 0.333169 0.0 
# 1 normals

usemtl surface__7

o IndexedFaceSet__16_0
g IndexedFaceSet__16_0

s off
f 78/78/20 80/77/20 79/79/20
f 79/79/20 77/80/20 78/78/20
# 2 polygons

# Coordinates for object 'IndexedFaceSet #17'
v  202320.218750 444450.125000 18.897539 
v  202321.937500 444445.250000 18.897539 
v  202336.046875 444450.250000 18.897539 
v  202336.515625 444453.781250 18.897539 
v  202336.765625 444450.625000 18.897539 
v  202336.828125 444452.906250 18.897539 
v  202337.078125 444452.093750 18.897539 
v  202337.093750 444451.250000 18.897539 
# 8 vertices

vt 0.0 0.0 0.0
vt 0.192779 1.000000 0.0
vt 0.283044 0.999992 0.0
vt 0.365349 0.998588 0.0
vt 0.441710 0.982395 0.0
vt 0.489474 0.950586 0.0
vt 0.500000 0.0 0.0
vt 0.500000 0.902771 0.0
# 8 texture vertices

vn  0.0 0.0 1.0 
# 1 normals

usemtl surface__17

o IndexedFaceSet__17_0
g IndexedFaceSet__17_0

s off
f 85/86/21 88/85/21 83/88/21
f 83/88/21 81/81/21 82/87/21
f 84/82/21 81/81/21 83/88/21
f 88/85/21 87/84/21 83/88/21
f 86/83/21 84/82/21 83/88/21
f 83/88/21 87/84/21 86/83/21
# 6 polygons

# Coordinates for object 'IndexedFaceSet #18'
v  202336.515625 444453.781250 -1.817200 
v  202336.515625 444453.781250 18.897539 
v  202336.828125 444452.906250 -1.817200 
v  202336.828125 444452.906250 18.897539 
# 4 vertices

vt 0.0 0.000603 0.0
vt 0.0 1.000000 0.0
vt 0.999999 0.0 0.0
vt 1.000000 0.999379 0.0
# 4 texture vertices

vn  0.941742 0.336336 0.0 
# 1 normals

usemtl surface__18

o IndexedFaceSet__18_0
g IndexedFaceSet__18_0

s off
f 90/90/22 92/89/22 91/91/22
f 91/91/22 89/92/22 90/90/22
# 2 polygons

# Coordinates for object 'IndexedFaceSet #19'
v  202336.828125 444452.906250 -1.817200 
v  202336.828125 444452.906250 18.897539 
v  202337.078125 444452.093750 -1.817200 
v  202337.078125 444452.093750 18.897539 
# 4 vertices

vt 0.0 0.002431 0.0
vt 0.0 1.000000 0.0
vt 0.999999 0.997556 0.0
vt 1.000000 0.0 0.0
# 4 texture vertices

vn  0.955779 0.294086 0.0 
# 1 normals

usemtl surface__19

o IndexedFaceSet__19_0
g IndexedFaceSet__19_0

s off
f 94/94/23 96/93/23 93/95/23
f 95/96/23 93/95/23 96/93/23
# 2 polygons

# Coordinates for object 'IndexedFaceSet #20'
v  202337.078125 444452.093750 -1.817200 
v  202337.078125 444452.093750 18.897539 
v  202337.093750 444451.250000 -1.817200 
v  202337.093750 444451.250000 18.897539 
# 4 vertices

vt 0.0 0.001916 0.0
vt 0.0 1.000000 0.0
vt 0.999994 0.0 0.0
vt 1.000000 0.998325 0.0
# 4 texture vertices

vn  0.999829 0.018515 0.0 
# 1 normals

usemtl surface__20

o IndexedFaceSet__20_0
g IndexedFaceSet__20_0

s off
f 98/98/24 100/97/24 99/99/24
f 99/99/24 97/100/24 98/98/24
# 2 polygons

# Coordinates for object 'IndexedFaceSet #21'
v  202336.765625 444450.625000 -1.817200 
v  202336.765625 444450.625000 18.897539 
v  202337.093750 444451.250000 -1.817200 
v  202337.093750 444451.250000 18.897539 
# 4 vertices

vt 0.0 0.002006 0.0
vt 0.000013 1.000000 0.0
vt 0.999985 0.0 0.0
vt 1.000000 0.998191 0.0
# 4 texture vertices

vn  0.885398 -0.464834 0.0 
# 1 normals

usemtl surface__21

o IndexedFaceSet__21_0
g IndexedFaceSet__21_0

s off
f 104/102/25 102/101/25 101/103/25
f 101/103/25 103/104/25 104/102/25
# 2 polygons

# Coordinates for object 'IndexedFaceSet #22'
v  202336.046875 444450.250000 -1.817200 
v  202336.046875 444450.250000 18.897539 
v  202336.765625 444450.625000 -1.817200 
v  202336.765625 444450.625000 18.897539 
# 4 vertices

vt 0.0 1.000000 0.0
vt 0.0 0.002631 0.0
vt 0.999997 0.0 0.0
vt 1.000000 0.997233 0.0
# 4 texture vertices

vn  0.462566 -0.886585 0.0 
# 1 normals

usemtl surface__22

o IndexedFaceSet__22_0
g IndexedFaceSet__22_0

s off
f 108/105/26 106/106/26 107/108/26
f 105/107/26 107/108/26 106/106/26
# 2 polygons

# Coordinates for object 'IndexedFaceSet #23'
v  202321.937500 444445.250000 -1.817200 
v  202321.937500 444445.250000 18.897539 
v  202336.046875 444450.250000 -1.817200 
v  202336.046875 444450.250000 18.897539 
# 4 vertices

vt 0.0 0.000328 0.0
vt 0.000282 1.000000 0.0
vt 0.999407 0.0 0.0
vt 1.000000 0.999754 0.0
# 4 texture vertices

vn  0.334021 -0.942566 0.0 
# 1 normals

usemtl surface__23

o IndexedFaceSet__23_0
g IndexedFaceSet__23_0

s off
f 112/110/27 110/109/27 111/112/27
f 109/111/27 111/112/27 110/109/27
# 2 polygons

# Coordinates for object 'IndexedFaceSet #24'
v  202320.218750 444450.125000 -1.817199 
v  202320.218750 444450.125000 18.897539 
v  202321.937500 444445.250000 -1.817200 
v  202321.937500 444445.250000 18.897539 
# 4 vertices

vt 0.0 0.002006 0.0
vt 0.000013 1.000000 0.0
vt 0.999985 0.0 0.0
vt 1.000000 0.998191 0.0
# 4 texture vertices

vn  -0.943102 -0.332504 0.0 
# 1 normals

usemtl surface__21

o IndexedFaceSet__24_0
g IndexedFaceSet__24_0

s off
f 113/116/28 115/115/28 116/113/28
f 116/113/28 114/114/28 113/116/28
# 2 polygons

# Coordinates for object 'IndexedFaceSet #25'
v  202337.093750 444451.250000 3.256661 
v  202337.093750 444451.250000 12.060027 
v  202338.593750 444454.500000 3.419127 
v  202338.609375 444454.531250 11.854949 
# 4 vertices

vt 0.0 0.000088 0.0
vt 0.023054 1.000000 0.0
vt 0.981822 0.999260 0.0
vt 1.000000 0.0 0.0
# 4 texture vertices

vn  0.907833 -0.419332 0.0 
vn  0.907962 -0.419053 -0.000129 
# 2 normals

usemtl surface__24

o IndexedFaceSet__25_0
g IndexedFaceSet__25_0

s off
f 120/118/29 118/117/29 117/120/29
f 117/120/30 119/119/30 120/118/30
# 2 polygons

# Coordinates for object 'IndexedFaceSet #26'
v  202336.343750 444453.343750 12.060027 
v  202337.093750 444451.250000 12.060027 
v  202338.609375 444454.531250 11.854949 
# 3 vertices

vt 0.0 0.0 0.0
vt 0.441198 0.999999 0.0
vt 1.000000 0.0 0.0
# 3 texture vertices

vn  0.075960 0.027210 0.996740 
# 1 normals

usemtl surface__17

o IndexedFaceSet__26_0
g IndexedFaceSet__26_0

s off
f 122/121/31 123/123/31 121/122/31
# 1 polygons

# Coordinates for object 'IndexedFaceSet #27'
v  202336.265625 444453.593750 3.256661 
v  202337.093750 444451.250000 3.256661 
v  202338.593750 444454.500000 3.419127 
# 3 vertices

vt 0.0 0.0 0.0
vt 0.970441 0.0 0.0
vt 1.000000 1.000000 0.0
# 3 texture vertices

vn  0.061217 0.021630 -0.997890 
# 1 normals

usemtl surface__17

o IndexedFaceSet__27_0
g IndexedFaceSet__27_0

s off
f 126/126/32 125/124/32 124/125/32
# 1 polygons
