# Converted by Daum Communications 
# Date/time of export: 08/22/2013 14:53:23
#
# Bounding box of geometry = (203863,443724,-0.632789) to (203882,443741,21.6809).

mtllib 3726678.mtl

# Coordinates for object 'IndexedFaceSet'
v  203862.937500 443734.843750 18.830551 
v  203866.218750 443736.218750 18.830551 
v  203866.312500 443736.000000 18.830549 
v  203867.562500 443723.843750 18.830551 
v  203877.000000 443740.468750 18.830547 
v  203881.531250 443729.718750 18.830551 
# 6 vertices

vt 0.0 1.000000 0.0
vt 0.000623 0.020582 0.0
vt 0.765353 0.0 0.0
vt 0.765353 0.020582 0.0
vt 1.000000 0.0 0.0
vt 1.000000 1.000000 0.0
# 6 texture vertices

vn  0.0 0.0 1.0 
# 1 normals

usemtl surface

o IndexedFaceSet
g IndexedFaceSet

s off
f 1/5/1 4/6/1 3/4/1
f 3/4/1 4/6/1 6/1/1
f 5/2/1 3/4/1 6/1/1
f 3/4/1 2/3/1 1/5/1
# 4 polygons

# Coordinates for object 'IndexedFaceSet #1'
v  203867.562500 443723.843750 -0.632785 
v  203867.562500 443723.843750 18.830551 
v  203881.531250 443729.718750 -0.632788 
v  203881.531250 443729.718750 18.830551 
# 4 vertices

vt 0.0 1.000000 0.0
vt 0.000015 0.000058 0.0
vt 0.999995 0.999932 0.0
vt 1.000000 0.0 0.0
# 4 texture vertices

vn  0.387688 -0.921791 0.0 
# 1 normals

usemtl surface__2

o IndexedFaceSet__1_0
g IndexedFaceSet__1_0

s off
f 10/8/2 8/7/2 7/9/2
f 7/9/2 9/10/2 10/8/2
# 2 polygons

# Coordinates for object 'IndexedFaceSet #2'
v  203862.937500 443734.843750 -0.632787 
v  203862.937500 443734.843750 18.830551 
v  203867.562500 443723.843750 -0.632785 
v  203867.562500 443723.843750 18.830551 
# 4 vertices

vt 0.0 1.000000 0.0
vt 0.000025 0.000050 0.0
vt 0.999987 0.0 0.0
vt 1.000000 0.999961 0.0
# 4 texture vertices

vn  -0.921832 -0.387589 0.0 
# 1 normals

usemtl surface__3

o IndexedFaceSet__2_0
g IndexedFaceSet__2_0

s off
f 14/12/3 12/11/3 13/13/3
f 11/14/3 13/13/3 12/11/3
# 2 polygons

# Coordinates for object 'IndexedFaceSet #3'
v  203862.937500 443734.843750 -0.632787 
v  203862.937500 443734.843750 18.830551 
v  203866.218750 443736.218750 -0.632787 
v  203866.218750 443736.218750 18.830551 
# 4 vertices

vt 0.0 1.000000 0.0
vt 0.000012 0.000155 0.0
vt 0.999991 0.999834 0.0
vt 1.000000 0.0 0.0
# 4 texture vertices

vn  -0.386486 0.922295 0.0 
# 1 normals

usemtl surface__4

o IndexedFaceSet__3_0
g IndexedFaceSet__3_0

s off
f 16/15/4 18/16/4 17/18/4
f 17/18/4 15/17/4 16/15/4
# 2 polygons

# Coordinates for object 'IndexedFaceSet #4'
v  203866.218750 443736.218750 -0.632787 
v  203866.218750 443736.218750 18.830551 
v  203866.312500 443736.000000 -0.632788 
v  203866.312500 443736.000000 18.830549 
# 4 vertices

vt 0.0 0.002377 0.0
vt 0.0 1.000000 0.0
vt 0.999997 0.0 0.0
vt 1.000000 0.997631 0.0
# 4 texture vertices

vn  0.919145 0.393919 0.0 
# 1 normals

usemtl surface__5

o IndexedFaceSet__4_0
g IndexedFaceSet__4_0

s off
f 20/20/5 22/19/5 19/22/5
f 21/21/5 19/22/5 22/19/5
# 2 polygons

# Coordinates for object 'IndexedFaceSet #5'
v  203866.312500 443736.000000 -0.632788 
v  203866.312500 443736.000000 18.830549 
v  203877.000000 443740.468750 -0.632789 
v  203877.000000 443740.468750 18.830547 
# 4 vertices

vt 0.0 1.000000 0.0
vt 0.000015 0.000058 0.0
vt 0.999995 0.999932 0.0
vt 1.000000 0.0 0.0
# 4 texture vertices

vn  -0.385764 0.922597 0.0 
# 1 normals

usemtl surface__2

o IndexedFaceSet__5_0
g IndexedFaceSet__5_0

s off
f 24/23/6 26/24/6 25/26/6
f 25/26/6 23/25/6 24/23/6
# 2 polygons

# Coordinates for object 'IndexedFaceSet #6'
v  203877.000000 443740.468750 -0.632789 
v  203877.000000 443740.468750 18.830547 
v  203881.531250 443729.718750 -0.632788 
v  203881.531250 443729.718750 18.830551 
# 4 vertices

vt 0.0 1.000000 0.0
vt 0.000025 0.000050 0.0
vt 0.999987 0.0 0.0
vt 1.000000 0.999961 0.0
# 4 texture vertices

vn  0.921484 0.388416 0.0 
# 1 normals

usemtl surface__3

o IndexedFaceSet__6_0
g IndexedFaceSet__6_0

s off
f 28/27/7 30/28/7 29/29/7
f 29/29/7 27/30/7 28/27/7
# 2 polygons

# Coordinates for object 'IndexedFaceSet #7'
v  203877.015625 443740.906250 12.903722 
v  203877.015625 443740.906250 17.271931 
v  203877.156250 443740.562500 12.903723 
v  203877.156250 443740.562500 17.271933 
# 4 vertices

vt 0.0 1.000000 0.0
vt 0.0 0.000886 0.0
vt 0.999995 0.999114 0.0
vt 1.000000 0.0 0.0
# 4 texture vertices

vn  0.925547 0.378633 0.0 
# 1 normals

usemtl surface__6

o IndexedFaceSet__7_0
g IndexedFaceSet__7_0

s off
f 32/31/8 34/32/8 33/34/8
f 33/34/8 31/33/8 32/31/8
# 2 polygons

# Coordinates for object 'IndexedFaceSet #8'
v  203866.156250 443736.343750 12.903724 
v  203866.312500 443736.000000 12.903724 
v  203877.015625 443740.906250 12.903722 
v  203877.156250 443740.562500 12.903723 
# 4 vertices

vt 0.0 0.0 0.0
vt 0.0 0.991559 0.0
vt 0.999998 0.008365 0.0
vt 1.000000 1.000000 0.0
# 4 texture vertices

vn  0.0 -0.000002 -1.0 
# 1 normals

usemtl surface__7

o IndexedFaceSet__8_0
g IndexedFaceSet__8_0

s off
f 37/37/9 38/38/9 35/35/9
f 36/36/9 35/35/9 38/38/9
# 2 polygons

# Coordinates for object 'IndexedFaceSet #9'
v  203866.156250 443736.343750 12.903724 
v  203866.156250 443736.343750 17.271933 
v  203866.312500 443736.000000 12.903724 
v  203866.312500 443736.000000 17.271933 
# 4 vertices

vt 0.0 0.000042 0.0
vt 0.000020 1.000000 0.0
vt 0.999980 0.0 0.0
vt 1.000000 0.999961 0.0
# 4 texture vertices

vn  -0.910366 -0.413803 0.0 
# 1 normals

usemtl surface__8

o IndexedFaceSet__9_0
g IndexedFaceSet__9_0

s off
f 42/39/10 40/40/10 39/42/10
f 39/42/10 41/41/10 42/39/10
# 2 polygons

# Coordinates for object 'IndexedFaceSet #10'
v  203866.156250 443736.343750 17.271933 
v  203866.312500 443736.000000 17.271933 
v  203877.015625 443740.906250 17.271931 
v  203877.156250 443740.562500 17.271933 
# 4 vertices

vt 0.0 0.800000 0.0
vt 0.0 1.000000 0.0
vt 1.000000 0.800004 0.0
vt 1.000000 1.000000 0.0
# 4 texture vertices

vn  0.0 0.0 1.0 
# 1 normals

usemtl surface__9

o IndexedFaceSet__10_0
g IndexedFaceSet__10_0

s off
f 43/45/11 44/46/11 46/44/11
f 46/44/11 45/43/11 43/45/11
# 2 polygons

# Coordinates for object 'IndexedFaceSet #11'
v  203866.156250 443736.343750 12.903724 
v  203866.156250 443736.343750 17.271933 
v  203877.015625 443740.906250 12.903722 
v  203877.015625 443740.906250 17.271931 
# 4 vertices

vt 0.0 0.0 0.0
vt 0.000015 0.999723 0.0
vt 0.999981 0.000258 0.0
vt 1.000000 1.000000 0.0
# 4 texture vertices

vn  -0.387345 0.921935 0.0 
# 1 normals

usemtl surface__10

o IndexedFaceSet__11_0
g IndexedFaceSet__11_0

s off
f 48/50/12 50/48/12 47/49/12
f 49/47/12 47/49/12 50/48/12
# 2 polygons

# Coordinates for object 'IndexedFaceSet #12'
v  203877.000000 443740.468750 12.907447 
v  203877.000000 443740.468750 17.271933 
v  203877.156250 443740.562500 12.903723 
v  203877.156250 443740.562500 17.271933 
# 4 vertices

vt 0.0 0.0 0.0
# 1 texture vertices

vn  -0.514496 0.857493 0.0 
# 1 normals

usemtl surface__11

o IndexedFaceSet__12_0
g IndexedFaceSet__12_0

s off
f 54/51/13 53/51/13 51/51/13
f 51/51/13 52/51/13 54/51/13
# 2 polygons

# Coordinates for object 'IndexedFaceSet #13'
v  203880.468750 443732.250000 12.907448 
v  203880.468750 443732.250000 17.271933 
v  203880.625000 443732.312500 12.903723 
v  203880.625000 443732.312500 17.271933 
# 4 vertices

vt 0.0 0.0 0.0
# 1 texture vertices

vn  0.371391 -0.928477 0.0 
# 1 normals

usemtl surface__11

o IndexedFaceSet__13_0
g IndexedFaceSet__13_0

s off
f 58/52/14 56/52/14 55/52/14
f 55/52/14 57/52/14 58/52/14
# 2 polygons

# Coordinates for object 'IndexedFaceSet #14'
v  203877.000000 443740.468750 17.271933 
v  203877.156250 443740.562500 17.271933 
v  203880.468750 443732.250000 17.271933 
v  203880.625000 443732.312500 17.271933 
# 4 vertices

vt 0.0 0.998970 0.0
vt 0.0 0.0 0.0
vt 0.999997 1.000000 0.0
vt 1.000000 0.001151 0.0
# 4 texture vertices

vn  0.0 0.0 1.0 
# 1 normals

usemtl surface__12

o IndexedFaceSet__14_0
g IndexedFaceSet__14_0

s off
f 61/55/15 62/56/15 59/53/15
f 60/54/15 59/53/15 62/56/15
# 2 polygons

# Coordinates for object 'IndexedFaceSet #15'
v  203877.000000 443740.468750 12.907447 
v  203877.156250 443740.562500 12.903723 
v  203880.468750 443732.250000 12.907448 
v  203880.625000 443732.312500 12.903723 
# 4 vertices

vt 0.0 0.998970 0.0
vt 0.0 0.0 0.0
vt 0.999997 1.000000 0.0
vt 1.000000 0.001151 0.0
# 4 texture vertices

vn  -0.020392 -0.008607 -0.999755 
vn  -0.019029 -0.008001 -0.999787 
# 2 normals

usemtl surface__12

o IndexedFaceSet__15_0
g IndexedFaceSet__15_0

s off
f 63/57/17 64/58/17 66/60/17
f 66/60/16 65/59/16 63/57/16
# 2 polygons

# Coordinates for object 'IndexedFaceSet #16'
v  203877.156250 443740.562500 12.903723 
v  203877.156250 443740.562500 17.271933 
v  203880.625000 443732.312500 12.903723 
v  203880.625000 443732.312500 17.271933 
# 4 vertices

vt 0.0 0.000409 0.0
vt 0.0 1.000000 0.0
vt 0.999999 0.0 0.0
vt 1.000000 0.999587 0.0
# 4 texture vertices

vn  0.921832 0.387589 0.0 
# 1 normals

usemtl surface__13

o IndexedFaceSet__16_0
g IndexedFaceSet__16_0

s off
f 68/64/18 70/62/18 69/61/18
f 69/61/18 67/63/18 68/64/18
# 2 polygons

# Coordinates for object 'IndexedFaceSet #17'
v  203863.171875 443734.937500 18.831867 
v  203863.171875 443734.937500 21.680944 
v  203865.890625 443736.062500 18.830551 
v  203865.890625 443736.062500 21.680944 
# 4 vertices

vt 0.0 0.000478 0.0
vt 0.000382 1.000000 0.0
vt 0.999922 0.999521 0.0
vt 1.000000 0.0 0.0
# 4 texture vertices

vn  -0.382352 0.924017 0.0 
# 1 normals

usemtl surface__14

o IndexedFaceSet__17_0
g IndexedFaceSet__17_0

s off
f 72/66/19 74/65/19 71/67/19
f 73/68/19 71/67/19 74/65/19
# 2 polygons

# Coordinates for object 'IndexedFaceSet #18'
v  203865.546875 443729.281250 18.831867 
v  203865.546875 443729.281250 21.680946 
v  203868.265625 443730.406250 18.830551 
v  203868.265625 443730.406250 21.680944 
# 4 vertices

vt 0.0 0.000478 0.0
vt 0.000382 1.000000 0.0
vt 0.999922 0.999521 0.0
vt 1.000000 0.0 0.0
# 4 texture vertices

vn  0.382352 -0.924017 0.0 
# 1 normals

usemtl surface__14

o IndexedFaceSet__18_0
g IndexedFaceSet__18_0

s off
f 78/69/20 76/70/20 75/71/20
f 75/71/20 77/72/20 78/69/20
# 2 polygons

# Coordinates for object 'IndexedFaceSet #19'
v  203863.171875 443734.937500 18.831867 
v  203863.171875 443734.937500 21.680944 
v  203865.546875 443729.281250 18.831867 
v  203865.546875 443729.281250 21.680946 
# 4 vertices

vt 0.0 0.000478 0.0
vt 0.000382 1.000000 0.0
vt 0.999922 0.999521 0.0
vt 1.000000 0.0 0.0
# 4 texture vertices

vn  -0.922018 -0.387146 0.0 
# 1 normals

usemtl surface__14

o IndexedFaceSet__19_0
g IndexedFaceSet__19_0

s off
f 82/74/21 80/73/21 79/76/21
f 79/76/21 81/75/21 82/74/21
# 2 polygons

# Coordinates for object 'IndexedFaceSet #20'
v  203863.171875 443734.937500 21.680944 
v  203865.546875 443729.281250 21.680946 
v  203865.890625 443736.062500 21.680944 
v  203868.265625 443730.406250 21.680944 
# 4 vertices

vt 0.0 0.0 0.0
vt 0.0 1.000000 0.0
vt 1.000000 0.0 0.0
vt 1.000000 1.000000 0.0
# 4 texture vertices

vn  0.0 0.0 1.0 
# 1 normals

usemtl surface__15

o IndexedFaceSet__20_0
g IndexedFaceSet__20_0

s off
f 84/80/22 86/78/22 85/77/22
f 85/77/22 83/79/22 84/80/22
# 2 polygons

# Coordinates for object 'IndexedFaceSet #21'
v  203865.890625 443736.062500 18.830551 
v  203865.890625 443736.062500 21.680944 
v  203868.265625 443730.406250 18.830551 
v  203868.265625 443730.406250 21.680944 
# 4 vertices

vt 0.0 0.000478 0.0
vt 0.000382 1.000000 0.0
vt 0.999922 0.999521 0.0
vt 1.000000 0.0 0.0
# 4 texture vertices

vn  0.922018 0.387146 0.0 
# 1 normals

usemtl surface__14

o IndexedFaceSet__21_0
g IndexedFaceSet__21_0

s off
f 88/81/23 90/82/23 89/83/23
f 89/83/23 87/84/23 88/81/23
# 2 polygons

# Coordinates for object 'IndexedFaceSet #22'
v  203867.250000 443736.562500 20.022049 
v  203867.671875 443735.562500 20.022049 
v  203876.531250 443739.312500 20.022047 
v  203877.093750 443740.687500 20.022045 
v  203880.671875 443729.187500 20.022047 
v  203881.625000 443729.593750 20.022047 
# 6 vertices

vt 0.0 0.089789 0.0
vt 0.0 0.0 0.0
vt 0.890844 0.999986 0.0
vt 0.901495 0.089889 0.0
vt 0.988603 1.000000 0.0
vt 1.000000 0.000106 0.0
# 6 texture vertices

vn  0.0 -0.000001 -1.0 
# 1 normals

usemtl surface__16

o IndexedFaceSet__22_0
g IndexedFaceSet__22_0

s off
f 94/90/24 93/88/24 91/86/24
f 93/88/24 94/90/24 96/89/24
f 91/86/24 93/88/24 92/85/24
f 95/87/24 93/88/24 96/89/24
# 4 polygons

# Coordinates for object 'IndexedFaceSet #23'
v  203867.250000 443736.562500 20.457991 
v  203867.671875 443735.562500 20.457991 
v  203876.531250 443739.312500 20.457991 
v  203877.093750 443740.687500 20.457991 
v  203880.671875 443729.187500 20.457991 
v  203881.625000 443729.593750 20.457991 
# 6 vertices

vt 0.0 0.910205 0.0
vt 0.0 1.000000 0.0
vt 0.890937 0.0 0.0
vt 0.901506 0.910205 0.0
vt 0.988703 0.0 0.0
vt 1.000000 1.000000 0.0
# 6 texture vertices

vn  0.0 0.0 1.0 
# 1 normals

usemtl surface__17

o IndexedFaceSet__23_0
g IndexedFaceSet__23_0

s off
f 99/94/25 101/93/25 102/95/25
f 97/92/25 99/94/25 100/96/25
f 99/94/25 97/92/25 98/91/25
f 100/96/25 99/94/25 102/95/25
# 4 polygons

# Coordinates for object 'IndexedFaceSet #24'
v  203880.671875 443729.187500 20.022047 
v  203880.671875 443729.187500 20.457991 
v  203881.625000 443729.593750 20.022047 
v  203881.625000 443729.593750 20.457991 
# 4 vertices

vt 0.0 0.0 0.0
# 1 texture vertices

vn  0.392098 -0.919923 0.0 
# 1 normals

usemtl surface__11

o IndexedFaceSet__24_0
g IndexedFaceSet__24_0

s off
f 105/97/26 106/97/26 104/97/26
f 104/97/26 103/97/26 105/97/26
# 2 polygons

# Coordinates for object 'IndexedFaceSet #25'
v  203876.531250 443739.312500 20.022047 
v  203876.531250 443739.312500 20.457991 
v  203880.671875 443729.187500 20.022047 
v  203880.671875 443729.187500 20.457991 
# 4 vertices

vt 0.0 0.0 0.0
vt 0.0 0.997638 0.0
vt 0.999998 0.002333 0.0
vt 1.000000 1.000000 0.0
# 4 texture vertices

vn  -0.925592 -0.378522 0.0 
# 1 normals

usemtl surface__18

o IndexedFaceSet__25_0
g IndexedFaceSet__25_0

s off
f 108/99/27 107/98/27 109/100/27
f 109/100/27 110/101/27 108/99/27
# 2 polygons

# Coordinates for object 'IndexedFaceSet #26'
v  203867.671875 443735.562500 20.022049 
v  203867.671875 443735.562500 20.457991 
v  203876.531250 443739.312500 20.022047 
v  203876.531250 443739.312500 20.457991 
# 4 vertices

vt 0.0 0.0 0.0
vt 0.0 0.997638 0.0
vt 0.999998 0.002333 0.0
vt 1.000000 1.000000 0.0
# 4 texture vertices

vn  0.389799 -0.920900 0.0 
# 1 normals

usemtl surface__18

o IndexedFaceSet__26_0
g IndexedFaceSet__26_0

s off
f 113/102/28 114/103/28 111/104/28
f 112/105/28 111/104/28 114/103/28
# 2 polygons

# Coordinates for object 'IndexedFaceSet #27'
v  203867.250000 443736.562500 20.022049 
v  203867.250000 443736.562500 20.457991 
v  203867.671875 443735.562500 20.022049 
v  203867.671875 443735.562500 20.457991 
# 4 vertices

vt 0.0 0.0 0.0
# 1 texture vertices

vn  -0.921364 -0.388701 0.0 
# 1 normals

usemtl surface__11

o IndexedFaceSet__27_0
g IndexedFaceSet__27_0

s off
f 118/106/29 116/106/29 117/106/29
f 115/106/29 117/106/29 116/106/29
# 2 polygons

# Coordinates for object 'IndexedFaceSet #28'
v  203867.250000 443736.562500 20.022049 
v  203867.250000 443736.562500 20.457991 
v  203877.093750 443740.687500 20.022045 
v  203877.093750 443740.687500 20.457991 
# 4 vertices

vt 0.0 0.0 0.0
vt 0.0 0.997638 0.0
vt 0.999998 0.002333 0.0
vt 1.000000 1.000000 0.0
# 4 texture vertices

vn  -0.386486 0.922295 0.0 
# 1 normals

usemtl surface__18

o IndexedFaceSet__28_0
g IndexedFaceSet__28_0

s off
f 120/110/30 122/108/30 121/107/30
f 121/107/30 119/109/30 120/110/30
# 2 polygons

# Coordinates for object 'IndexedFaceSet #29'
v  203877.093750 443740.687500 20.022045 
v  203877.093750 443740.687500 20.457991 
v  203881.625000 443729.593750 20.022047 
v  203881.625000 443729.593750 20.457991 
# 4 vertices

vt 0.0 1.000000 0.0
vt 0.0 0.005159 0.0
vt 1.000000 0.0 0.0
vt 1.000000 0.994846 0.0
# 4 texture vertices

vn  0.925754 0.378125 0.0 
# 1 normals

usemtl surface__19

o IndexedFaceSet__29_0
g IndexedFaceSet__29_0

s off
f 123/113/31 124/114/31 125/112/31
f 126/111/31 125/112/31 124/114/31
# 2 polygons

# Coordinates for object 'IndexedFaceSet #30'
v  203876.703125 443739.781250 18.686663 
v  203876.703125 443739.781250 20.022045 
v  203877.031250 443739.937500 18.686663 
v  203877.031250 443739.937500 20.022045 
# 4 vertices

vt 0.0 1.000000 0.0
vt 0.0 0.000065 0.0
vt 0.999990 0.999937 0.0
vt 1.000000 0.0 0.0
# 4 texture vertices

vn  0.429934 -0.902861 0.0 
# 1 normals

usemtl surface__20

o IndexedFaceSet__30_0
g IndexedFaceSet__30_0

s off
f 130/116/32 128/115/32 129/118/32
f 127/117/32 129/118/32 128/115/32
# 2 polygons

# Coordinates for object 'IndexedFaceSet #31'
v  203876.562500 443740.125000 18.686663 
v  203876.562500 443740.125000 20.022045 
v  203876.703125 443739.781250 18.686663 
v  203876.703125 443739.781250 20.022045 
# 4 vertices

vt 0.0 1.000000 0.0
vt 0.0 0.000065 0.0
vt 0.999990 0.999937 0.0
vt 1.000000 0.0 0.0
# 4 texture vertices

vn  -0.925547 -0.378633 0.0 
# 1 normals

usemtl surface__20

o IndexedFaceSet__31_0
g IndexedFaceSet__31_0

s off
f 134/119/33 132/120/33 131/122/33
f 131/122/33 133/121/33 134/119/33
# 2 polygons

# Coordinates for object 'IndexedFaceSet #32'
v  203876.562500 443740.125000 18.686663 
v  203876.562500 443740.125000 20.022045 
v  203876.890625 443740.250000 18.686663 
v  203876.890625 443740.250000 20.022045 
# 4 vertices

vt 0.0 1.000000 0.0
vt 0.0 0.000065 0.0
vt 0.999990 0.999937 0.0
vt 1.000000 0.0 0.0
# 4 texture vertices

vn  -0.355995 0.934488 0.0 
# 1 normals

usemtl surface__20

o IndexedFaceSet__32_0
g IndexedFaceSet__32_0

s off
f 136/123/34 138/124/34 137/126/34
f 137/126/34 135/125/34 136/123/34
# 2 polygons

# Coordinates for object 'IndexedFaceSet #33'
v  203876.890625 443740.250000 18.686663 
v  203876.890625 443740.250000 20.022045 
v  203877.031250 443739.937500 18.686663 
v  203877.031250 443739.937500 20.022045 
# 4 vertices

vt 0.0 0.000110 0.0
vt 0.000023 1.000000 0.0
vt 0.999974 0.0 0.0
vt 1.000000 0.999915 0.0
# 4 texture vertices

vn  0.911922 0.410365 0.0 
# 1 normals

usemtl surface__21

o IndexedFaceSet__33_0
g IndexedFaceSet__33_0

s off
f 140/128/35 142/127/35 139/130/35
f 141/129/35 139/130/35 142/127/35
# 2 polygons

# Coordinates for object 'IndexedFaceSet #34'
v  203869.015625 443736.531250 18.655167 
v  203869.015625 443736.531250 20.022049 
v  203869.328125 443736.656250 18.655165 
v  203869.328125 443736.656250 20.022047 
# 4 vertices

vt 0.0 1.000000 0.0
vt 0.0 0.000113 0.0
vt 0.999993 0.999887 0.0
vt 1.000000 0.0 0.0
# 4 texture vertices

vn  0.371391 -0.928477 0.0 
# 1 normals

usemtl surface__22

o IndexedFaceSet__34_0
g IndexedFaceSet__34_0

s off
f 146/132/36 144/131/36 143/133/36
f 143/133/36 145/134/36 146/132/36
# 2 polygons

# Coordinates for object 'IndexedFaceSet #35'
v  203868.875000 443736.843750 18.655167 
v  203868.875000 443736.843750 20.022047 
v  203869.015625 443736.531250 18.655167 
v  203869.015625 443736.531250 20.022049 
# 4 vertices

vt 0.0 1.000000 0.0
vt 0.0 0.000113 0.0
vt 0.999993 0.999887 0.0
vt 1.000000 0.0 0.0
# 4 texture vertices

vn  -0.911922 -0.410365 0.0 
# 1 normals

usemtl surface__22

o IndexedFaceSet__35_0
g IndexedFaceSet__35_0

s off
f 150/135/37 148/136/37 147/138/37
f 147/138/37 149/137/37 150/135/37
# 2 polygons

# Coordinates for object 'IndexedFaceSet #36'
v  203868.875000 443736.843750 18.655167 
v  203868.875000 443736.843750 20.022047 
v  203869.203125 443736.968750 18.655165 
v  203869.203125 443736.968750 20.022047 
# 4 vertices

vt 0.0 1.000000 0.0
vt 0.0 0.000113 0.0
vt 0.999993 0.999887 0.0
vt 1.000000 0.0 0.0
# 4 texture vertices

vn  -0.355995 0.934488 0.0 
# 1 normals

usemtl surface__22

o IndexedFaceSet__36_0
g IndexedFaceSet__36_0

s off
f 152/139/38 154/140/38 153/142/38
f 153/142/38 151/141/38 152/139/38
# 2 polygons

# Coordinates for object 'IndexedFaceSet #37'
v  203869.203125 443736.968750 18.655165 
v  203869.203125 443736.968750 20.022047 
v  203869.328125 443736.656250 18.655165 
v  203869.328125 443736.656250 20.022047 
# 4 vertices

vt 0.0 0.000131 0.0
vt 0.000037 1.000000 0.0
vt 0.999959 0.0 0.0
vt 1.000000 0.999881 0.0
# 4 texture vertices

vn  0.928477 0.371391 0.0 
# 1 normals

usemtl surface__23

o IndexedFaceSet__37_0
g IndexedFaceSet__37_0

s off
f 156/144/39 158/143/39 155/146/39
f 157/145/39 155/146/39 158/143/39
# 2 polygons

# Coordinates for object 'IndexedFaceSet #38'
v  203878.906250 443734.656250 18.792137 
v  203878.906250 443734.656250 20.022049 
v  203879.171875 443734.781250 18.792137 
v  203879.171875 443734.781250 20.022047 
# 4 vertices

vt 0.0 1.000000 0.0
vt 0.000023 0.000132 0.0
vt 0.999975 0.999858 0.0
vt 1.000000 0.0 0.0
# 4 texture vertices

vn  0.425797 -0.904819 0.0 
# 1 normals

usemtl surface__24

o IndexedFaceSet__38_0
g IndexedFaceSet__38_0

s off
f 162/148/40 160/147/40 159/149/40
f 159/149/40 161/150/40 162/148/40
# 2 polygons

# Coordinates for object 'IndexedFaceSet #39'
v  203878.703125 443735.125000 18.792137 
v  203878.703125 443735.125000 20.022047 
v  203878.906250 443734.656250 18.792137 
v  203878.906250 443734.656250 20.022049 
# 4 vertices

vt 0.0 1.000000 0.0
vt 0.000023 0.000132 0.0
vt 0.999975 0.999858 0.0
vt 1.000000 0.0 0.0
# 4 texture vertices

vn  -0.917556 -0.397607 0.0 
# 1 normals

usemtl surface__24

o IndexedFaceSet__39_0
g IndexedFaceSet__39_0

s off
f 166/152/41 164/154/41 165/151/41
f 163/153/41 165/151/41 164/154/41
# 2 polygons

# Coordinates for object 'IndexedFaceSet #40'
v  203878.703125 443735.125000 18.792137 
v  203878.703125 443735.125000 20.022047 
v  203878.984375 443735.218750 18.792137 
v  203878.984375 443735.218750 20.022047 
# 4 vertices

vt 0.0 1.000000 0.0
vt 0.000023 0.000132 0.0
vt 0.999975 0.999858 0.0
vt 1.000000 0.0 0.0
# 4 texture vertices

vn  -0.316228 0.948683 0.0 
# 1 normals

usemtl surface__24

o IndexedFaceSet__40_0
g IndexedFaceSet__40_0

s off
f 168/155/42 170/156/42 169/158/42
f 169/158/42 167/157/42 168/155/42
# 2 polygons

# Coordinates for object 'IndexedFaceSet #41'
v  203878.984375 443735.218750 18.792137 
v  203878.984375 443735.218750 20.022047 
v  203879.171875 443734.781250 18.792137 
v  203879.171875 443734.781250 20.022047 
# 4 vertices

vt 0.0 0.000182 0.0
vt 0.000037 1.000000 0.0
vt 0.999959 0.0 0.0
vt 1.000000 0.999821 0.0
# 4 texture vertices

vn  0.919145 0.393919 0.0 
# 1 normals

usemtl surface__25

o IndexedFaceSet__41_0
g IndexedFaceSet__41_0

s off
f 172/160/43 174/159/43 173/161/43
f 173/161/43 171/162/43 172/160/43
# 2 polygons

# Coordinates for object 'IndexedFaceSet #42'
v  203880.906250 443729.937500 18.786446 
v  203880.906250 443729.937500 20.022049 
v  203881.062500 443729.562500 18.786444 
v  203881.062500 443729.562500 20.022049 
# 4 vertices

vt 0.0 1.000000 0.0
vt 0.0 0.0 0.0
vt 0.999995 0.999983 0.0
vt 1.000000 0.0 0.0
# 4 texture vertices

vn  -0.923077 -0.384615 0.0 
# 1 normals

usemtl surface__26

o IndexedFaceSet__42_0
g IndexedFaceSet__42_0

s off
f 178/164/44 176/166/44 175/165/44
f 175/165/44 177/163/44 178/164/44
# 2 polygons

# Coordinates for object 'IndexedFaceSet #43'
v  203880.906250 443729.937500 18.786446 
v  203880.906250 443729.937500 20.022049 
v  203881.156250 443730.062500 18.786446 
v  203881.156250 443730.062500 20.022049 
# 4 vertices

vt 0.0 1.000000 0.0
vt 0.0 0.0 0.0
vt 0.999995 0.999983 0.0
vt 1.000000 0.0 0.0
# 4 texture vertices

vn  -0.447214 0.894427 0.0 
# 1 normals

usemtl surface__26

o IndexedFaceSet__43_0
g IndexedFaceSet__43_0

s off
f 180/167/45 182/168/45 181/170/45
f 181/170/45 179/169/45 180/167/45
# 2 polygons

# Coordinates for object 'IndexedFaceSet #44'
v  203881.156250 443730.062500 18.786446 
v  203881.156250 443730.062500 20.022049 
v  203881.328125 443729.656250 18.786444 
v  203881.328125 443729.656250 20.022049 
# 4 vertices

vt 0.0 1.000000 0.0
vt 0.000024 0.000112 0.0
vt 0.999978 0.999881 0.0
vt 1.000000 0.0 0.0
# 4 texture vertices

vn  0.920967 0.389640 0.0 
# 1 normals

usemtl surface__27

o IndexedFaceSet__44_0
g IndexedFaceSet__44_0

s off
f 184/171/46 186/172/46 183/173/46
f 185/174/46 183/173/46 186/172/46
# 2 polygons

# Coordinates for object 'IndexedFaceSet #45'
v  203881.062500 443729.562500 18.786444 
v  203881.062500 443729.562500 20.022049 
v  203881.328125 443729.656250 18.786444 
v  203881.328125 443729.656250 20.022049 
# 4 vertices

vt 0.0 1.000000 0.0
vt 0.0 0.0 0.0
vt 0.999995 0.999983 0.0
vt 1.000000 0.0 0.0
# 4 texture vertices

vn  0.332820 -0.942990 0.0 
# 1 normals

usemtl surface__26

o IndexedFaceSet__45_0
g IndexedFaceSet__45_0

s off
f 190/176/47 188/175/47 187/177/47
f 187/177/47 189/178/47 190/176/47
# 2 polygons
