# Converted by Daum Communications 
# Date/time of export: 08/22/2013 14:53:23
#
# Bounding box of geometry = (203026,443457,-0.725614) to (203040,443469,15.3983).

mtllib 3726685.mtl

# Coordinates for object 'IndexedFaceSet'
v  203029.140625 443457.031250 13.812387 
v  203029.140625 443457.031250 15.398292 
v  203032.046875 443458.187500 13.812387 
v  203032.046875 443458.187500 15.398292 
# 4 vertices

vt 0.0 1.000000 0.0
vt 0.002208 0.000098 0.0
vt 0.999980 0.0 0.0
vt 1.000000 0.999905 0.0
# 4 texture vertices

vn  0.369667 -0.929164 0.0 
# 1 normals

usemtl surface

o IndexedFaceSet
g IndexedFaceSet

s off
f 4/4/1 2/1/1 1/2/1
f 1/2/1 3/3/1 4/4/1
# 2 polygons

# Coordinates for object 'IndexedFaceSet #1'
v  203026.281250 443464.312500 15.398289 
v  203026.343750 443464.312500 -0.725613 
v  203029.203125 443465.437500 13.812384 
v  203029.203125 443465.437500 15.398287 
v  203037.234375 443468.593750 -0.725614 
v  203037.234375 443468.593750 13.812385 
# 6 vertices

vt 0.0 0.0 0.0
vt 0.0 0.266007 0.0
vt 0.098362 0.265999 0.0
vt 0.098382 1.000000 0.0
vt 0.999972 0.005884 0.0
vt 1.000000 0.999930 0.0
# 6 texture vertices

vn  -0.365859 0.930670 -0.000060 
vn  -0.365764 0.930707 0.0 
vn  -0.359973 0.932962 -0.001395 
vn  -0.359313 0.933217 0.0 
# 4 normals

usemtl surface__2

o IndexedFaceSet__1_0
g IndexedFaceSet__1_0

s off
f 9/10/3 7/7/3 10/8/3
f 7/7/2 9/10/2 6/9/2
f 7/7/5 5/5/5 8/6/5
f 5/5/4 7/7/4 6/9/4
# 4 polygons

# Coordinates for object 'IndexedFaceSet #2'
v  203037.234375 443468.593750 -0.725614 
v  203037.234375 443468.593750 13.812385 
v  203040.093750 443461.343750 -0.725610 
v  203040.093750 443461.343750 13.812387 
# 4 vertices

vt 0.0 1.000000 0.0
vt 0.0 0.0 0.0
vt 0.999998 0.999999 0.0
vt 1.000000 0.005375 0.0
# 4 texture vertices

vn  0.930263 0.366893 0.0 
# 1 normals

usemtl surface__3

o IndexedFaceSet__2_0
g IndexedFaceSet__2_0

s off
f 12/12/6 14/11/6 13/13/6
f 13/13/6 11/14/6 12/12/6
# 2 polygons

# Coordinates for object 'IndexedFaceSet #3'
v  203029.203125 443465.437500 13.812384 
v  203032.046875 443458.187500 13.812387 
v  203037.234375 443468.593750 13.812385 
v  203040.093750 443461.343750 13.812387 
# 4 vertices

vt 0.0 0.0 0.0
vt 0.0 1.000000 0.0
vt 1.000000 0.0 0.0
vt 1.000000 1.000000 0.0
# 4 texture vertices

vn  0.0 0.0 1.0 
# 1 normals

usemtl surface__4

o IndexedFaceSet__3_0
g IndexedFaceSet__3_0

s off
f 17/15/7 15/17/7 16/18/7
f 16/18/7 18/16/7 17/15/7
# 2 polygons

# Coordinates for object 'IndexedFaceSet #4'
v  203029.203125 443465.437500 13.812384 
v  203029.203125 443465.437500 15.398287 
v  203032.046875 443458.187500 13.812387 
v  203032.046875 443458.187500 15.398292 
# 4 vertices

vt 0.0 0.666667 0.0
vt 0.0 1.000000 0.0
vt 1.000000 0.666666 0.0
vt 1.000000 1.000000 0.0
# 4 texture vertices

vn  0.930946 0.365156 0.0 
# 1 normals

usemtl surface__5

o IndexedFaceSet__4_0
g IndexedFaceSet__4_0

s off
f 22/20/8 21/19/8 19/21/8
f 19/21/8 20/22/8 22/20/8
# 2 polygons

# Coordinates for object 'IndexedFaceSet #5'
v  203026.281250 443464.312500 15.398289 
v  203029.140625 443457.031250 15.398292 
v  203029.203125 443465.437500 15.398287 
v  203032.046875 443458.187500 15.398292 
# 4 vertices

vt 0.0 0.666667 0.0
vt 0.0 1.000000 0.0
vt 1.000000 0.666667 0.0
vt 1.000000 1.000000 0.0
# 4 texture vertices

vn  0.0 0.0 1.0 
# 1 normals

usemtl surface__4

o IndexedFaceSet__5_0
g IndexedFaceSet__5_0

s off
f 25/25/9 23/26/9 26/23/9
f 24/24/9 26/23/9 23/26/9
# 2 polygons

# Coordinates for object 'IndexedFaceSet #6'
v  203026.281250 443464.312500 15.398289 
v  203026.343750 443464.312500 -0.725613 
v  203029.140625 443457.031250 15.398292 
v  203029.203125 443457.062500 -0.725610 
# 4 vertices

vt 0.0 1.000000 0.0
vt 0.0 0.0 0.0
vt 0.999998 0.999999 0.0
vt 1.000000 0.005375 0.0
# 4 texture vertices

vn  -0.930791 -0.365525 -0.004316 
vn  -0.930257 -0.366890 -0.003606 
# 2 normals

usemtl surface__3

o IndexedFaceSet__6_0
g IndexedFaceSet__6_0

s off
f 29/27/10 27/28/10 30/29/10
f 28/30/11 30/29/11 27/28/11
# 2 polygons

# Coordinates for object 'IndexedFaceSet #7'
v  203029.140625 443457.031250 13.812387 
v  203029.203125 443457.062500 -0.725610 
v  203040.093750 443461.343750 -0.725610 
v  203040.093750 443461.343750 13.812387 
# 4 vertices

vt 0.0 1.000000 0.0
vt 0.0 0.0 0.0
vt 0.999998 0.999999 0.0
vt 1.000000 0.005375 0.0
# 4 texture vertices

vn  0.365859 -0.930670 0.0 
vn  0.366350 -0.930477 -0.000425 
# 2 normals

usemtl surface__3

o IndexedFaceSet__7_0
g IndexedFaceSet__7_0

s off
f 34/31/13 31/32/13 32/34/13
f 32/34/12 33/33/12 34/31/12
# 2 polygons
