# Converted by Daum Communications 
# Date/time of export: 08/22/2013 14:53:22
#
# Bounding box of geometry = (203471,443636,-1.23719) to (203498,443654,31.577).

mtllib 3726670.mtl

# Coordinates for object 'IndexedFaceSet'
v  203472.437500 443645.375000 25.313042 
v  203475.250000 443637.312500 25.313042 
v  203494.546875 443644.031250 25.313044 
v  203494.750000 443653.125000 25.313046 
v  203494.875000 443643.062500 25.313046 
v  203497.875000 443644.125000 25.313044 
# 6 vertices

vt 0.0 1.000000 0.0
vt 0.000461 0.105224 0.0
vt 0.865226 0.0 0.0
vt 0.865226 0.105223 0.0
vt 1.000000 0.0 0.0
vt 1.000000 0.999999 0.0
# 6 texture vertices

vn  0.0 0.0 1.0 
# 1 normals

usemtl surface

o IndexedFaceSet
g IndexedFaceSet

s off
f 1/1/1 2/2/1 3/4/1
f 3/4/1 6/5/1 4/6/1
f 6/5/1 3/4/1 5/3/1
f 3/4/1 4/6/1 1/1/1
# 4 polygons

# Coordinates for object 'IndexedFaceSet #1'
v  203494.875000 443643.062500 25.313046 
v  203494.875000 443643.062500 27.984482 
v  203497.875000 443644.125000 25.313044 
v  203497.875000 443644.125000 27.984484 
# 4 vertices

vt 0.0 1.000000 0.0
vt 0.0 0.000046 0.0
vt 0.997563 0.999960 0.0
vt 1.000000 0.0 0.0
# 4 texture vertices

vn  0.333847 -0.942627 0.0 
# 1 normals

usemtl surface__2

o IndexedFaceSet__1_0
g IndexedFaceSet__1_0

s off
f 8/7/2 7/8/2 10/9/2
f 9/10/2 10/9/2 7/8/2
# 2 polygons

# Coordinates for object 'IndexedFaceSet #2'
v  203472.437500 443645.375000 -1.212089 
v  203472.437500 443645.375000 25.313042 
v  203494.750000 443653.125000 -1.212086 
v  203494.750000 443653.125000 25.313046 
# 4 vertices

vt 0.0 1.000000 0.0
vt 0.000236 0.0 0.0
vt 0.999713 0.999970 0.0
vt 1.000000 0.000074 0.0
# 4 texture vertices

vn  -0.328110 0.944640 0.0 
# 1 normals

usemtl surface__3

o IndexedFaceSet__2_0
g IndexedFaceSet__2_0

s off
f 13/14/3 11/12/3 12/11/3
f 12/11/3 14/13/3 13/14/3
# 2 polygons

# Coordinates for object 'IndexedFaceSet #3'
v  203494.750000 443653.125000 -1.212086 
v  203494.750000 443653.125000 25.313046 
v  203497.875000 443644.125000 -1.212088 
v  203497.875000 443644.125000 25.313044 
# 4 vertices

vt 0.0 1.000000 0.0
vt 0.000236 0.0 0.0
vt 0.999713 0.999970 0.0
vt 1.000000 0.000074 0.0
# 4 texture vertices

vn  0.944674 0.328012 0.0 
# 1 normals

usemtl surface__3

o IndexedFaceSet__3_0
g IndexedFaceSet__3_0

s off
f 18/15/4 17/16/4 15/18/4
f 15/18/4 16/17/4 18/15/4
# 2 polygons

# Coordinates for object 'IndexedFaceSet #4'
v  203494.875000 443643.062500 -1.212088 
v  203494.875000 443643.062500 25.313046 
v  203497.875000 443644.125000 -1.212088 
v  203497.875000 443644.125000 25.313044 
# 4 vertices

vt 0.0 0.999994 0.0
vt 0.000289 0.0 0.0
vt 0.999710 1.000000 0.0
vt 1.000000 0.0 0.0
# 4 texture vertices

vn  0.333847 -0.942627 0.0 
# 1 normals

usemtl surface__4

o IndexedFaceSet__4_0
g IndexedFaceSet__4_0

s off
f 20/19/5 19/20/5 22/21/5
f 21/22/5 22/21/5 19/20/5
# 2 polygons

# Coordinates for object 'IndexedFaceSet #5'
v  203494.546875 443644.031250 -1.212087 
v  203494.546875 443644.031250 25.313044 
v  203494.875000 443643.062500 -1.212088 
v  203494.875000 443643.062500 25.313046 
# 4 vertices

vt 0.0 1.000000 0.0
vt 0.000033 0.0 0.0
vt 0.999924 0.999997 0.0
vt 1.000000 0.0 0.0
# 4 texture vertices

vn  -0.947145 -0.320807 0.0 
# 1 normals

usemtl surface__5

o IndexedFaceSet__5_0
g IndexedFaceSet__5_0

s off
f 26/25/6 24/23/6 25/26/6
f 23/24/6 25/26/6 24/23/6
# 2 polygons

# Coordinates for object 'IndexedFaceSet #6'
v  203475.250000 443637.312500 -1.212090 
v  203475.250000 443637.312500 25.313042 
v  203494.546875 443644.031250 -1.212087 
v  203494.546875 443644.031250 25.313044 
# 4 vertices

vt 0.0 0.999985 0.0
vt 0.000086 0.0 0.0
vt 0.999922 1.000000 0.0
vt 1.000000 0.000013 0.0
# 4 texture vertices

vn  0.328817 -0.944394 0.0 
# 1 normals

usemtl surface__6

o IndexedFaceSet__6_0
g IndexedFaceSet__6_0

s off
f 28/27/7 27/28/7 30/29/7
f 29/30/7 30/29/7 27/28/7
# 2 polygons

# Coordinates for object 'IndexedFaceSet #7'
v  203472.437500 443645.375000 -1.212089 
v  203472.437500 443645.375000 25.313042 
v  203475.250000 443637.312500 -1.212090 
v  203475.250000 443637.312500 25.313042 
# 4 vertices

vt 0.0 1.000000 0.0
vt 0.000361 0.000053 0.0
vt 0.999706 0.999850 0.0
vt 1.000000 0.0 0.0
# 4 texture vertices

vn  -0.944200 -0.329372 0.0 
# 1 normals

usemtl surface__7

o IndexedFaceSet__7_0
g IndexedFaceSet__7_0

s off
f 32/31/8 31/32/8 34/33/8
f 33/34/8 34/33/8 31/32/8
# 2 polygons

# Coordinates for object 'IndexedFaceSet #8'
v  203476.656250 443637.812500 21.816420 
v  203476.984375 443636.875000 21.816420 
v  203491.781250 443642.031250 21.816422 
v  203492.031250 443642.312500 21.816420 
v  203492.218750 443642.656250 21.816418 
v  203492.234375 443643.218750 21.834028 
# 6 vertices

vt 0.0 0.024122 0.0
vt 0.036688 0.0 0.0
vt 0.065678 0.0 0.0
vt 0.095338 0.005108 0.0
vt 0.948750 1.000000 0.0
vt 1.000000 0.929976 0.0
# 6 texture vertices

vn  0.0 0.0 1.0 
vn  0.004627 -0.016590 0.999852 
vn  0.029217 -0.025964 0.999236 
vn  0.060345 -0.032910 0.997635 
# 4 normals

usemtl surface__8

o IndexedFaceSet__8_0
g IndexedFaceSet__8_0

s off
f 37/38/11 38/37/11 40/35/11
f 39/36/12 40/35/12 38/37/12
f 40/35/10 35/39/10 37/38/10
f 37/38/9 35/39/9 36/40/9
# 4 polygons

# Coordinates for object 'IndexedFaceSet #9'
v  203492.218750 443642.656250 5.261146 
v  203492.218750 443642.656250 21.816418 
v  203492.234375 443643.218750 5.278754 
v  203492.234375 443643.218750 21.834028 
# 4 vertices

vt 0.0 0.0 0.0
vt 0.473321 1.000000 0.0
vt 0.526681 0.0 0.0
vt 1.000000 1.000000 0.0
# 4 texture vertices

vn  0.999614 -0.027767 0.0 
# 1 normals

usemtl surface__9

o IndexedFaceSet__9_0
g IndexedFaceSet__9_0

s off
f 41/41/13 43/43/13 42/42/13
f 44/44/13 42/42/13 43/43/13
# 2 polygons

# Coordinates for object 'IndexedFaceSet #10'
v  203492.031250 443642.312500 5.261147 
v  203492.031250 443642.312500 21.816420 
v  203492.218750 443642.656250 5.261146 
v  203492.218750 443642.656250 21.816418 
# 4 vertices

vt 0.0 0.999999 0.0
vt 0.000560 0.0 0.0
vt 0.999474 1.000000 0.0
vt 1.000000 0.0 0.0
# 4 texture vertices

vn  0.877896 -0.478852 0.0 
# 1 normals

usemtl surface__10

o IndexedFaceSet__10_0
g IndexedFaceSet__10_0

s off
f 45/46/14 47/48/14 48/47/14
f 48/47/14 46/45/14 45/46/14
# 2 polygons

# Coordinates for object 'IndexedFaceSet #11'
v  203491.781250 443642.031250 5.261150 
v  203491.781250 443642.031250 21.816422 
v  203492.031250 443642.312500 5.261147 
v  203492.031250 443642.312500 21.816420 
# 4 vertices

vt 0.0 0.999998 0.0
vt 0.001860 0.0 0.0
vt 0.998128 1.000000 0.0
vt 1.000000 0.0 0.0
# 4 texture vertices

vn  0.747409 -0.664364 0.0 
# 1 normals

usemtl surface__11

o IndexedFaceSet__11_0
g IndexedFaceSet__11_0

s off
f 49/50/15 51/52/15 52/51/15
f 52/51/15 50/49/15 49/50/15
# 2 polygons

# Coordinates for object 'IndexedFaceSet #12'
v  203476.984375 443636.875000 5.261149 
v  203476.984375 443636.875000 21.816420 
v  203491.781250 443642.031250 5.261150 
v  203491.781250 443642.031250 21.816422 
# 4 vertices

vt 0.0 0.999988 0.0
vt 0.000068 0.0 0.0
vt 0.999934 1.000000 0.0
vt 1.000000 0.000012 0.0
# 4 texture vertices

vn  0.329062 -0.944308 0.0 
# 1 normals

usemtl surface__12

o IndexedFaceSet__12_0
g IndexedFaceSet__12_0

s off
f 54/53/16 53/54/16 56/55/16
f 55/56/16 56/55/16 53/54/16
# 2 polygons

# Coordinates for object 'IndexedFaceSet #13'
v  203476.656250 443637.812500 5.261149 
v  203476.656250 443637.812500 21.816420 
v  203476.984375 443636.875000 5.261149 
v  203476.984375 443636.875000 21.816420 
# 4 vertices

vt 0.0 1.000000 0.0
vt 0.001321 0.0 0.0
vt 0.998641 0.999988 0.0
vt 1.000000 0.0 0.0
# 4 texture vertices

vn  -0.943858 -0.330350 0.0 
# 1 normals

usemtl surface__13

o IndexedFaceSet__13_0
g IndexedFaceSet__13_0

s off
f 60/59/17 58/57/17 59/60/17
f 57/58/17 59/60/17 58/57/17
# 2 polygons

# Coordinates for object 'IndexedFaceSet #14'
v  203491.375000 443653.125000 25.313046 
v  203491.734375 443652.093750 25.313046 
v  203494.390625 443654.156250 25.313046 
v  203494.750000 443653.125000 25.313046 
# 4 vertices

vt 0.0 0.000116 0.0
vt 0.002806 1.000000 0.0
vt 0.997259 0.0 0.0
vt 1.000000 0.976669 0.0
# 4 texture vertices

vn  0.0 0.0 1.0 
# 1 normals

usemtl surface__14

o IndexedFaceSet__14_0
g IndexedFaceSet__14_0

s off
f 62/63/18 64/61/18 63/62/18
f 63/62/18 61/64/18 62/63/18
# 2 polygons

# Coordinates for object 'IndexedFaceSet #15'
v  203475.250000 443637.312500 5.505646 
v  203475.625000 443636.468750 5.505645 
v  203476.203125 443636.250000 5.505646 
v  203494.546875 443644.031250 5.549558 
v  203494.875000 443643.062500 5.551017 
# 5 vertices

vt 0.0 0.945304 0.0
vt 0.041544 1.000000 0.0
vt 0.920034 0.0 0.0
vt 0.958270 0.0 0.0
vt 1.000000 0.045539 0.0
# 5 texture vertices

vn  -0.002652 0.000608 0.999996 
vn  -0.001734 -0.001556 0.999997 
vn  -0.000004 -0.000003 1.0 
# 3 normals

usemtl surface__15

o IndexedFaceSet__15_0
g IndexedFaceSet__15_0

s off
f 65/69/20 67/67/20 68/66/20
f 69/65/19 68/66/19 67/67/19
f 67/67/21 65/69/21 66/68/21
# 3 polygons

# Coordinates for object 'IndexedFaceSet #16'
v  203494.546875 443644.031250 -1.193273 
v  203494.546875 443644.031250 5.549558 
v  203494.875000 443643.062500 -1.191814 
v  203494.875000 443643.062500 5.551017 
# 4 vertices

vt 0.0 0.999992 0.0
vt 0.009926 0.0 0.0
vt 0.990060 1.000000 0.0
vt 1.000000 0.000013 0.0
# 4 texture vertices

vn  0.947145 0.320807 0.0 
# 1 normals

usemtl surface__16

o IndexedFaceSet__16_0
g IndexedFaceSet__16_0

s off
f 73/70/22 72/71/22 71/72/22
f 70/73/22 71/72/22 72/71/22
# 2 polygons

# Coordinates for object 'IndexedFaceSet #17'
v  203476.203125 443636.250000 -1.237186 
v  203476.203125 443636.250000 5.505646 
v  203494.875000 443643.062500 -1.191814 
v  203494.875000 443643.062500 5.551017 
# 4 vertices

vt 0.0 0.0 0.0
vt 0.000756 0.999991 0.0
vt 0.999244 0.0 0.0
vt 1.000000 1.000000 0.0
# 4 texture vertices

vn  0.342753 -0.939426 0.0 
# 1 normals

usemtl surface__17

o IndexedFaceSet__17_0
g IndexedFaceSet__17_0

s off
f 75/75/23 74/74/23 76/76/23
f 76/76/23 77/77/23 75/75/23
# 2 polygons

# Coordinates for object 'IndexedFaceSet #18'
v  203475.625000 443636.468750 -1.237186 
v  203475.625000 443636.468750 5.505645 
v  203476.203125 443636.250000 -1.237186 
v  203476.203125 443636.250000 5.505646 
# 4 vertices

vt 0.0 1.000000 0.0
vt 0.000027 0.0 0.0
vt 0.999992 0.999999 0.0
vt 1.000000 0.0 0.0
# 4 texture vertices

vn  -0.353892 -0.935286 0.0 
# 1 normals

usemtl surface__18

o IndexedFaceSet__18_0
g IndexedFaceSet__18_0

s off
f 79/78/24 78/79/24 80/81/24
f 80/81/24 81/80/24 79/78/24
# 2 polygons

# Coordinates for object 'IndexedFaceSet #19'
v  203475.250000 443637.312500 -1.237185 
v  203475.250000 443637.312500 5.505646 
v  203475.625000 443636.468750 -1.237186 
v  203475.625000 443636.468750 5.505645 
# 4 vertices

vt 0.0 1.000000 0.0
vt 0.000105 0.000026 0.0
vt 0.999890 0.999970 0.0
vt 1.000000 0.0 0.0
# 4 texture vertices

vn  -0.913812 -0.406138 0.0 
# 1 normals

usemtl surface__19

o IndexedFaceSet__19_0
g IndexedFaceSet__19_0

s off
f 85/84/25 83/82/25 82/83/25
f 82/83/25 84/85/25 85/84/25
# 2 polygons

# Coordinates for object 'IndexedFaceSet #20'
v  203491.375000 443653.125000 -1.218712 
v  203491.375000 443653.125000 25.313046 
v  203491.734375 443652.093750 -1.218711 
v  203491.734375 443652.093750 25.313046 
# 4 vertices

vt 0.0 1.000000 0.0
vt 0.001968 0.0 0.0
vt 0.997971 0.999993 0.0
vt 1.000000 0.0 0.0
# 4 texture vertices

vn  -0.944304 -0.329076 0.0 
# 1 normals

usemtl surface__20

o IndexedFaceSet__20_0
g IndexedFaceSet__20_0

s off
f 89/88/26 87/86/26 86/87/26
f 86/87/26 88/89/26 89/88/26
# 2 polygons

# Coordinates for object 'IndexedFaceSet #21'
v  203491.375000 443653.125000 -1.218712 
v  203491.375000 443653.125000 25.313046 
v  203494.390625 443654.156250 -1.218711 
v  203494.390625 443654.156250 25.313046 
# 4 vertices

vt 0.0 0.999994 0.0
vt 0.000289 0.0 0.0
vt 0.999710 1.000000 0.0
vt 1.000000 0.0 0.0
# 4 texture vertices

vn  -0.323572 0.946203 0.0 
# 1 normals

usemtl surface__4

o IndexedFaceSet__21_0
g IndexedFaceSet__21_0

s off
f 92/93/27 90/91/27 93/92/27
f 91/90/27 93/92/27 90/91/27
# 2 polygons

# Coordinates for object 'IndexedFaceSet #22'
v  203494.390625 443654.156250 -1.218711 
v  203494.390625 443654.156250 25.313046 
v  203494.750000 443653.125000 -1.218711 
v  203494.750000 443653.125000 25.313046 
# 4 vertices

vt 0.0 1.000000 0.0
vt 0.002521 0.0 0.0
vt 0.997419 0.999997 0.0
vt 1.000000 0.0 0.0
# 4 texture vertices

vn  0.944304 0.329076 0.0 
# 1 normals

usemtl surface__21

o IndexedFaceSet__22_0
g IndexedFaceSet__22_0

s off
f 96/95/28 94/97/28 95/96/28
f 95/96/28 97/94/28 96/95/28
# 2 polygons

# Coordinates for object 'IndexedFaceSet #23'
v  203491.375000 443653.125000 25.313046 
v  203491.375000 443653.125000 27.984486 
v  203494.375000 443654.156250 27.984486 
v  203494.390625 443654.156250 25.313046 
# 4 vertices

vt 0.0 1.000000 0.0
vt 0.0 0.000046 0.0
vt 0.997563 0.999960 0.0
vt 1.000000 0.0 0.0
# 4 texture vertices

vn  -0.325080 0.945687 0.0 
vn  -0.323572 0.946202 -0.001893 
# 2 normals

usemtl surface__2

o IndexedFaceSet__23_0
g IndexedFaceSet__23_0

s off
f 101/101/30 98/99/30 100/100/30
f 99/98/29 100/100/29 98/99/29
# 2 polygons

# Coordinates for object 'IndexedFaceSet #24'
v  203491.375000 443653.125000 25.313046 
v  203491.375000 443653.125000 27.984486 
v  203494.875000 443643.062500 25.313046 
v  203494.875000 443643.062500 27.984482 
# 4 vertices

vt 0.0 1.000000 0.0
vt 0.0 0.001292 0.0
vt 0.999994 0.998667 0.0
vt 1.000000 0.0 0.0
# 4 texture vertices

vn  -0.944497 -0.328521 0.0 
# 1 normals

usemtl surface__22

o IndexedFaceSet__24_0
g IndexedFaceSet__24_0

s off
f 103/102/31 102/103/31 105/104/31
f 104/105/31 105/104/31 102/103/31
# 2 polygons

# Coordinates for object 'IndexedFaceSet #25'
v  203491.375000 443653.125000 27.984486 
v  203494.375000 443654.156250 27.984486 
v  203494.875000 443643.062500 27.984482 
v  203497.875000 443644.125000 27.984484 
# 4 vertices

vt 0.0 0.0 0.0
vt 0.0 1.000000 0.0
vt 1.000000 0.0 0.0
vt 1.000000 0.999998 0.0
# 4 texture vertices

vn  0.0 0.0 1.0 
# 1 normals

usemtl surface__23

o IndexedFaceSet__25_0
g IndexedFaceSet__25_0

s off
f 106/106/32 108/108/32 109/109/32
f 109/109/32 107/107/32 106/106/32
# 2 polygons

# Coordinates for object 'IndexedFaceSet #26'
v  203494.375000 443654.156250 27.984486 
v  203494.390625 443654.156250 25.313046 
v  203497.875000 443644.125000 25.313044 
v  203497.875000 443644.125000 27.984484 
# 4 vertices

vt 0.0 0.999544 0.0
vt 0.0 0.0 0.0
vt 1.000000 0.000451 0.0
vt 1.000000 1.000000 0.0
# 4 texture vertices

vn  0.944165 0.329428 0.005522 
vn  0.944636 0.328121 0.0 
# 2 normals

usemtl surface__24

o IndexedFaceSet__26_0
g IndexedFaceSet__26_0

s off
f 113/110/34 112/111/34 111/112/34
f 111/112/33 110/113/33 113/110/33
# 2 polygons

# Coordinates for object 'IndexedFaceSet #27'
v  203494.234375 443645.218750 27.991470 
v  203494.234375 443645.218750 30.285017 
v  203497.140625 443646.250000 27.984486 
v  203497.140625 443646.250000 30.285015 
# 4 vertices

vt 0.0 1.000000 0.0
vt 0.000012 0.000142 0.0
vt 0.999988 0.999805 0.0
vt 1.000000 0.0 0.0
# 4 texture vertices

vn  0.334410 -0.942428 0.0 
# 1 normals

usemtl surface__25

o IndexedFaceSet__27_0
g IndexedFaceSet__27_0

s off
f 115/114/35 114/115/35 117/116/35
f 116/117/35 117/116/35 114/115/35
# 2 polygons

# Coordinates for object 'IndexedFaceSet #28'
v  203491.468750 443653.156250 27.991472 
v  203491.468750 443653.156250 30.285017 
v  203494.375000 443654.156250 27.984486 
v  203494.375000 443654.156250 30.285017 
# 4 vertices

vt 0.0 1.000000 0.0
vt 0.000012 0.000142 0.0
vt 0.999988 0.999805 0.0
vt 1.000000 0.0 0.0
# 4 texture vertices

vn  -0.325364 0.945589 0.0 
# 1 normals

usemtl surface__25

o IndexedFaceSet__28_0
g IndexedFaceSet__28_0

s off
f 120/121/36 118/119/36 121/120/36
f 119/118/36 121/120/36 118/119/36
# 2 polygons

# Coordinates for object 'IndexedFaceSet #29'
v  203494.375000 443654.156250 27.984486 
v  203494.375000 443654.156250 30.285017 
v  203497.140625 443646.250000 27.984486 
v  203497.140625 443646.250000 30.285015 
# 4 vertices

vt 0.0 1.000000 0.0
vt 0.000012 0.000142 0.0
vt 0.999988 0.999805 0.0
vt 1.000000 0.0 0.0
# 4 texture vertices

vn  0.943916 0.330184 0.0 
# 1 normals

usemtl surface__25

o IndexedFaceSet__29_0
g IndexedFaceSet__29_0

s off
f 125/122/37 124/123/37 122/125/37
f 122/125/37 123/124/37 125/122/37
# 2 polygons

# Coordinates for object 'IndexedFaceSet #30'
v  203491.468750 443653.156250 30.285017 
v  203494.234375 443645.218750 30.285017 
v  203494.375000 443654.156250 30.285017 
v  203497.140625 443646.250000 30.285015 
# 4 vertices

vt 0.0 0.0 0.0
vt 0.0 1.000000 0.0
vt 1.000000 0.0 0.0
vt 1.000000 1.000000 0.0
# 4 texture vertices

vn  0.0 0.0 1.0 
# 1 normals

usemtl surface__23

o IndexedFaceSet__30_0
g IndexedFaceSet__30_0

s off
f 126/127/38 127/126/38 128/129/38
f 129/128/38 128/129/38 127/126/38
# 2 polygons

# Coordinates for object 'IndexedFaceSet #31'
v  203491.468750 443653.156250 27.991472 
v  203491.468750 443653.156250 30.285017 
v  203494.234375 443645.218750 27.991470 
v  203494.234375 443645.218750 30.285017 
# 4 vertices

vt 0.0 1.000000 0.0
vt 0.000018 0.001261 0.0
vt 0.999985 0.998695 0.0
vt 1.000000 0.0 0.0
# 4 texture vertices

vn  -0.944321 -0.329025 0.0 
# 1 normals

usemtl surface__26

o IndexedFaceSet__31_0
g IndexedFaceSet__31_0

s off
f 131/130/39 130/131/39 132/133/39
f 132/133/39 133/132/39 131/130/39
# 2 polygons

# Coordinates for object 'IndexedFaceSet #32'
v  203471.156250 443649.031250 -1.209056 
v  203471.156250 443649.031250 15.304319 
v  203472.437500 443645.375000 -1.212089 
v  203472.437500 443645.375000 15.304319 
# 4 vertices

vt 0.0 0.999870 0.0
vt 0.004044 0.0 0.0
vt 0.996012 1.000000 0.0
vt 1.000000 0.0 0.0
# 4 texture vertices

vn  -0.943733 -0.330710 0.0 
# 1 normals

usemtl surface__27

o IndexedFaceSet__32_0
g IndexedFaceSet__32_0

s off
f 135/134/40 134/135/40 137/136/40
f 136/137/40 137/136/40 134/135/40
# 2 polygons

# Coordinates for object 'IndexedFaceSet #33'
v  203494.375000 443654.156250 30.285017 
v  203494.375000 443654.156250 31.577045 
v  203495.687500 443650.375000 30.285017 
v  203495.687500 443650.375000 31.577045 
# 4 vertices

vt 0.0 1.000000 0.0
vt 0.0 0.000056 0.0
vt 0.999095 0.0 0.0
vt 1.000000 0.999938 0.0
# 4 texture vertices

vn  0.944707 0.327915 0.0 
# 1 normals

usemtl surface__28

o IndexedFaceSet__33_0
g IndexedFaceSet__33_0

s off
f 141/138/41 140/139/41 138/140/41
f 138/140/41 139/141/41 141/138/41
# 2 polygons

# Coordinates for object 'IndexedFaceSet #34'
v  203491.468750 443653.156250 30.285017 
v  203491.468750 443653.156250 31.577045 
v  203492.781250 443649.375000 30.285017 
v  203492.781250 443649.375000 31.577047 
# 4 vertices

vt 0.0 1.000000 0.0
vt 0.000955 0.000594 0.0
vt 0.999987 0.999363 0.0
vt 1.000000 0.0 0.0
# 4 texture vertices

vn  -0.944707 -0.327915 0.0 
# 1 normals

usemtl surface__29

o IndexedFaceSet__34_0
g IndexedFaceSet__34_0

s off
f 143/142/42 142/143/42 145/144/42
f 144/145/42 145/144/42 142/143/42
# 2 polygons

# Coordinates for object 'IndexedFaceSet #35'
v  203491.468750 443653.156250 30.285017 
v  203491.468750 443653.156250 31.577045 
v  203494.375000 443654.156250 30.285017 
v  203494.375000 443654.156250 31.577045 
# 4 vertices

vt 0.0 1.000000 0.0
vt 0.0 0.000056 0.0
vt 0.999095 0.0 0.0
vt 1.000000 0.999938 0.0
# 4 texture vertices

vn  -0.325364 0.945589 0.0 
# 1 normals

usemtl surface__28

o IndexedFaceSet__35_0
g IndexedFaceSet__35_0

s off
f 148/148/43 146/147/43 147/146/43
f 147/146/43 149/149/43 148/148/43
# 2 polygons

# Coordinates for object 'IndexedFaceSet #36'
v  203491.468750 443653.156250 31.577045 
v  203492.781250 443649.375000 31.577047 
v  203494.375000 443654.156250 31.577045 
v  203495.687500 443650.375000 31.577045 
# 4 vertices

vt 0.0 0.0 0.0
vt 0.0 1.000000 0.0
vt 1.000000 0.0 0.0
vt 1.000000 1.000000 0.0
# 4 texture vertices

vn  0.0 0.0 1.0 
# 1 normals

usemtl surface__23

o IndexedFaceSet__36_0
g IndexedFaceSet__36_0

s off
f 150/153/44 151/151/44 153/150/44
f 153/150/44 152/152/44 150/153/44
# 2 polygons

# Coordinates for object 'IndexedFaceSet #37'
v  203492.781250 443649.375000 30.285017 
v  203492.781250 443649.375000 31.577047 
v  203495.687500 443650.375000 30.285017 
v  203495.687500 443650.375000 31.577045 
# 4 vertices

vt 0.0 1.000000 0.0
vt 0.000012 0.000142 0.0
vt 0.999988 0.999805 0.0
vt 1.000000 0.0 0.0
# 4 texture vertices

vn  0.325364 -0.945589 0.0 
# 1 normals

usemtl surface__25

o IndexedFaceSet__37_0
g IndexedFaceSet__37_0

s off
f 155/154/45 154/155/45 156/157/45
f 156/157/45 157/156/45 155/154/45
# 2 polygons

# Coordinates for object 'IndexedFaceSet #38'
v  203479.218750 443651.843750 -1.209056 
v  203479.218750 443651.843750 15.304319 
v  203480.500000 443648.156250 -1.212088 
v  203480.500000 443648.156250 15.304319 
# 4 vertices

vt 0.0 0.999870 0.0
vt 0.004044 0.0 0.0
vt 0.996012 1.000000 0.0
vt 1.000000 0.0 0.0
# 4 texture vertices

vn  0.944605 0.328210 0.0 
# 1 normals

usemtl surface__27

o IndexedFaceSet__38_0
g IndexedFaceSet__38_0

s off
f 161/160/46 160/161/46 158/159/46
f 158/159/46 159/158/46 161/160/46
# 2 polygons

# Coordinates for object 'IndexedFaceSet #39'
v  203471.156250 443649.031250 15.304319 
v  203472.437500 443645.375000 15.304319 
v  203479.218750 443651.843750 15.304319 
v  203480.500000 443648.156250 15.304319 
# 4 vertices

vt 0.0 0.0 0.0
vt 0.0 1.000000 0.0
vt 1.000000 0.0 0.0
vt 1.000000 1.000000 0.0
# 4 texture vertices

vn  0.0 0.0 1.0 
# 1 normals

usemtl surface__23

o IndexedFaceSet__39_0
g IndexedFaceSet__39_0

s off
f 162/164/47 163/165/47 164/162/47
f 165/163/47 164/162/47 163/165/47
# 2 polygons

# Coordinates for object 'IndexedFaceSet #40'
v  203471.156250 443649.031250 -1.209056 
v  203471.156250 443649.031250 15.304319 
v  203479.218750 443651.843750 -1.209056 
v  203479.218750 443651.843750 15.304319 
# 4 vertices

vt 0.0 0.999870 0.0
vt 0.004044 0.0 0.0
vt 0.996012 1.000000 0.0
vt 1.000000 0.0 0.0
# 4 texture vertices

vn  -0.329372 0.944200 0.0 
# 1 normals

usemtl surface__27

o IndexedFaceSet__40_0
g IndexedFaceSet__40_0

s off
f 168/167/48 166/169/48 167/168/48
f 167/168/48 169/166/48 168/167/48
# 2 polygons
