# Converted by Daum Communications 
# Date/time of export: 08/22/2013 14:53:26
#
# Bounding box of geometry = (202939,443034,-0.774203) to (202977,443083,84.0543).

mtllib 3730525.mtl

# Coordinates for object 'IndexedFaceSet'
v  202939.812500 443073.437500 -0.768338 
v  202939.812500 443073.437500 83.995941 
v  202953.671875 443035.156250 -0.768329 
v  202953.671875 443035.156250 84.054314 
# 4 vertices

vt 0.0 1.000000 0.0
vt 0.000663 0.000157 0.0
vt 0.999997 0.0 0.0
vt 1.000000 0.999826 0.0
# 4 texture vertices

vn  -0.940274 -0.340418 0.0 
# 1 normals

usemtl surface

o IndexedFaceSet
g IndexedFaceSet

s off
f 4/1/1 2/2/1 3/4/1
f 1/3/1 3/4/1 2/2/1
# 2 polygons

# Coordinates for object 'IndexedFaceSet #1'
v  202962.359375 443081.593750 -0.768349 
v  202962.359375 443081.593750 83.995926 
v  202976.234375 443043.343750 -0.768339 
v  202976.234375 443043.343750 84.054306 
# 4 vertices

vt 0.0 1.000000 0.0
vt 0.000663 0.000157 0.0
vt 0.999997 0.0 0.0
vt 1.000000 0.999826 0.0
# 4 texture vertices

vn  0.940062 0.341003 0.0 
# 1 normals

usemtl surface

o IndexedFaceSet__1_0
g IndexedFaceSet__1_0

s off
f 7/8/2 5/7/2 6/6/2
f 6/6/2 8/5/2 7/8/2
# 2 polygons

# Coordinates for object 'IndexedFaceSet #2'
v  202939.812500 443073.437500 -0.768338 
v  202939.812500 443073.437500 83.995941 
v  202962.359375 443081.593750 -0.768349 
v  202962.359375 443081.593750 83.995926 
# 4 vertices

vt 0.0 1.000000 0.0
vt 0.000317 0.000778 0.0
vt 0.999928 0.0 0.0
vt 1.000000 0.999504 0.0
# 4 texture vertices

vn  -0.340173 0.940363 0.0 
# 1 normals

usemtl surface__2

o IndexedFaceSet__2_0
g IndexedFaceSet__2_0

s off
f 10/9/3 12/10/3 11/11/3
f 11/11/3 9/12/3 10/9/3
# 2 polygons

# Coordinates for object 'IndexedFaceSet #3'
v  202953.671875 443035.156250 -0.768329 
v  202953.671875 443035.156250 84.054314 
v  202976.234375 443043.343750 -0.768339 
v  202976.234375 443043.343750 84.054306 
# 4 vertices

vt 0.0 1.000000 0.0
vt 0.000383 0.000417 0.0
vt 0.999997 0.999202 0.0
vt 1.000000 0.0 0.0
# 4 texture vertices

vn  0.341116 -0.940021 0.0 
# 1 normals

usemtl surface__3

o IndexedFaceSet__3_0
g IndexedFaceSet__3_0

s off
f 16/13/4 14/14/4 15/15/4
f 13/16/4 15/15/4 14/14/4
# 2 polygons

# Coordinates for object 'IndexedFaceSet #4'
v  202939.468750 443074.343750 83.995941 
v  202954.000000 443034.250000 84.054314 
v  202962.031250 443082.531250 83.995926 
v  202976.562500 443042.437500 84.054337 
# 4 vertices

vt 0.0 0.0 0.0
vt 0.000295 1.000000 0.0
vt 0.999998 0.0 0.0
vt 1.000000 1.000000 0.0
# 4 texture vertices

vn  -0.000467 0.001288 0.999999 
# 1 normals

usemtl surface__4

o IndexedFaceSet__4_0
g IndexedFaceSet__4_0

s off
f 20/20/5 19/18/5 17/17/5
f 17/17/5 18/19/5 20/20/5
# 2 polygons

# Coordinates for object 'IndexedFaceSet #5'
v  202953.671875 443035.156250 -0.768329 
v  202953.671875 443035.156250 13.806533 
v  202953.875000 443034.593750 -0.756898 
v  202953.875000 443034.625000 13.355177 
v  202954.093750 443034.000000 13.806531 
# 5 vertices

vt 0.0 0.187553 0.0
vt 0.001657 1.000000 0.0
vt 0.031721 0.553295 0.0
vt 1.000000 0.0 0.0
vt 1.000000 0.384927 0.0
# 5 texture vertices

vn  -0.940558 -0.339631 0.000752 
vn  -0.939247 -0.342698 -0.019333 
vn  -0.934052 -0.357137 0.0 
# 3 normals

usemtl surface__5

o IndexedFaceSet__5_0
g IndexedFaceSet__5_0

s off
f 25/22/7 22/21/7 24/23/7
f 24/23/6 21/24/6 23/25/6
f 21/24/8 24/23/8 22/21/8
# 3 polygons

# Coordinates for object 'IndexedFaceSet #6'
v  202976.234375 443043.343750 -0.768354 
v  202976.234375 443043.343750 13.806507 
v  202976.421875 443042.812500 13.355153 
v  202976.437500 443042.781250 -0.756923 
v  202976.656250 443042.156250 13.806507 
# 5 vertices

vt 0.0 0.187553 0.0
vt 0.001657 1.000000 0.0
vt 0.031721 0.553295 0.0
vt 1.000000 0.0 0.0
vt 1.000000 0.384927 0.0
# 5 texture vertices

vn  0.940552 0.339650 0.000289 
vn  0.942299 0.334764 -0.002575 
vn  0.942990 0.332820 0.0 
# 3 normals

usemtl surface__5

o IndexedFaceSet__6_0
g IndexedFaceSet__6_0

s off
f 29/30/9 26/29/9 28/28/9
f 28/28/10 27/26/10 30/27/10
f 27/26/11 28/28/11 26/29/11
# 3 polygons

# Coordinates for object 'IndexedFaceSet #7'
v  202953.875000 443034.593750 -0.756898 
v  202953.875000 443034.625000 13.355177 
v  202976.421875 443042.812500 13.355153 
v  202976.437500 443042.781250 -0.756923 
# 4 vertices

vt 0.0 1.000000 0.0
vt 0.001103 0.000018 0.0
vt 0.999054 0.999966 0.0
vt 1.000000 0.0 0.0
# 4 texture vertices

vn  0.341115 -0.940018 0.002459 
vn  0.341324 -0.939943 0.002081 
# 2 normals

usemtl surface__6

o IndexedFaceSet__7_0
g IndexedFaceSet__7_0

s off
f 33/31/13 32/32/13 31/34/13
f 31/34/12 34/33/12 33/31/12
# 2 polygons

# Coordinates for object 'IndexedFaceSet #8'
v  202953.875000 443034.625000 13.355177 
v  202954.093750 443034.000000 13.806531 
v  202976.421875 443042.812500 13.355153 
v  202976.656250 443042.156250 13.806507 
# 4 vertices

vt 0.0 0.979141 0.0
vt 0.0 0.0 0.0
vt 0.999998 1.000000 0.0
vt 1.000000 0.020848 0.0
# 4 texture vertices

vn  0.184817 -0.511259 -0.839319 
vn  0.192251 -0.529427 -0.826285 
# 2 normals

usemtl surface__7

o IndexedFaceSet__8_0
g IndexedFaceSet__8_0

s off
f 36/35/15 35/36/15 37/38/15
f 37/38/14 38/37/14 36/35/14
# 2 polygons

# Coordinates for object 'IndexedFaceSet #9'
v  202953.671875 443035.156250 13.806533 
v  202954.093750 443034.000000 13.806531 
v  202976.234375 443043.343750 13.806507 
v  202976.656250 443042.156250 13.806507 
# 4 vertices

vt 0.0 0.979141 0.0
vt 0.0 0.0 0.0
vt 0.999998 1.000000 0.0
vt 1.000000 0.020848 0.0
# 4 texture vertices

vn  0.0 0.0 1.0 
# 1 normals

usemtl surface__7

o IndexedFaceSet__9_0
g IndexedFaceSet__9_0

s off
f 42/41/16 41/42/16 40/39/16
f 39/40/16 40/39/16 41/42/16
# 2 polygons

# Coordinates for object 'IndexedFaceSet #10'
v  202939.500000 443074.250000 13.821687 
v  202939.656250 443073.843750 -0.774200 
v  202939.656250 443073.843750 13.307908 
v  202939.812500 443073.437500 -0.768338 
v  202939.828125 443073.375000 13.821686 
# 5 vertices

vt 0.0 0.0 0.0
vt 0.000874 1.000000 0.0
vt 0.035598 0.473691 0.0
vt 0.999999 0.268670 0.0
vt 1.000000 0.728525 0.0
# 5 texture vertices

vn  -0.938709 -0.344710 -0.000471 
vn  -0.936305 -0.351115 -0.007119 
vn  -0.933346 -0.358979 0.0 
# 3 normals

usemtl surface__8

o IndexedFaceSet__10_0
g IndexedFaceSet__10_0

s off
f 47/44/18 43/43/18 45/45/18
f 45/45/19 44/46/19 46/47/19
f 45/45/17 46/47/17 47/44/17
# 3 polygons

# Coordinates for object 'IndexedFaceSet #11'
v  202962.062500 443082.437500 13.821682 
v  202962.218750 443082.000000 -0.774203 
v  202962.218750 443082.000000 13.307903 
v  202962.359375 443081.593750 -0.768340 
v  202962.375000 443081.562500 13.821681 
# 5 vertices

vt 0.0 0.0 0.0
vt 0.000874 1.000000 0.0
vt 0.035598 0.473691 0.0
vt 0.999999 0.268670 0.0
vt 1.000000 0.728525 0.0
# 5 texture vertices

vn  0.941742 0.336336 0.0 
vn  0.941849 0.336035 -0.000289 
vn  0.944986 0.327111 0.0 
# 3 normals

usemtl surface__8

o IndexedFaceSet__11_0
g IndexedFaceSet__11_0

s off
f 51/52/22 49/51/22 50/50/22
f 50/50/20 48/48/20 52/49/20
f 50/50/21 52/49/21 51/52/21
# 3 polygons

# Coordinates for object 'IndexedFaceSet #12'
v  202939.500000 443074.250000 13.821687 
v  202939.828125 443073.375000 13.821686 
v  202962.062500 443082.437500 13.821682 
v  202962.375000 443081.562500 13.821681 
# 4 vertices

vt 0.0 0.010474 0.0
vt 0.0 1.000000 0.0
vt 0.999997 0.0 0.0
vt 1.000000 0.989842 0.0
# 4 texture vertices

vn  0.0 0.0 1.0 
# 1 normals

usemtl surface__9

o IndexedFaceSet__12_0
g IndexedFaceSet__12_0

s off
f 56/55/23 55/53/23 53/54/23
f 53/54/23 54/56/23 56/55/23
# 2 polygons

# Coordinates for object 'IndexedFaceSet #13'
v  202939.500000 443074.250000 13.821687 
v  202939.656250 443073.843750 13.307908 
v  202962.062500 443082.437500 13.821682 
v  202962.218750 443082.000000 13.307903 
# 4 vertices

vt 0.0 0.010474 0.0
vt 0.0 1.000000 0.0
vt 0.999997 0.0 0.0
vt 1.000000 0.989842 0.0
# 4 texture vertices

vn  -0.259416 0.717617 -0.646320 
vn  -0.253020 0.697254 -0.670684 
# 2 normals

usemtl surface__9

o IndexedFaceSet__13_0
g IndexedFaceSet__13_0

s off
f 58/59/24 57/60/24 60/57/24
f 59/58/25 60/57/25 57/60/25
# 2 polygons

# Coordinates for object 'IndexedFaceSet #14'
v  202939.656250 443073.843750 -0.774200 
v  202939.656250 443073.843750 13.307908 
v  202962.218750 443082.000000 -0.774203 
v  202962.218750 443082.000000 13.307903 
# 4 vertices

vt 0.0 0.001396 0.0
vt 0.000122 1.000000 0.0
vt 0.999900 0.0 0.0
vt 1.000000 0.999006 0.0
# 4 texture vertices

vn  -0.339965 0.940438 0.0 
# 1 normals

usemtl surface__10

o IndexedFaceSet__14_0
g IndexedFaceSet__14_0

s off
f 62/64/26 64/62/26 61/63/26
f 63/61/26 61/63/26 64/62/26
# 2 polygons

# Coordinates for object 'IndexedFaceSet #15'
v  202953.671875 443035.156250 82.888672 
v  202953.671875 443035.156250 84.054314 
v  202954.000000 443034.250000 84.054314 
# 3 vertices

vt 0.0 0.0 0.0
vt 0.597075 0.999995 0.0
vt 1.000000 0.0 0.0
# 3 texture vertices

vn  -0.940266 -0.340441 0.0 
# 1 normals

usemtl surface__11

o IndexedFaceSet__15_0
g IndexedFaceSet__15_0

s off
f 66/66/27 65/65/27 67/67/27
# 1 polygons

# Coordinates for object 'IndexedFaceSet #16'
v  202976.234375 443043.343750 82.888695 
v  202976.234375 443043.343750 84.054337 
v  202976.562500 443042.437500 84.054337 
# 3 vertices

vt 0.0 0.0 0.0
vt 0.402924 0.999998 0.0
vt 0.999999 0.0 0.0
# 3 texture vertices

vn  0.940266 0.340441 0.0 
# 1 normals

usemtl surface__11

o IndexedFaceSet__16_0
g IndexedFaceSet__16_0

s off
f 68/70/28 69/69/28 70/68/28
# 1 polygons

# Coordinates for object 'IndexedFaceSet #17'
v  202953.671875 443035.156250 82.888672 
v  202954.000000 443034.250000 84.054314 
v  202976.234375 443043.343750 82.888695 
v  202976.562500 443042.437500 84.054337 
# 4 vertices

vt 0.0 0.0 0.0
vt 0.0 1.000000 0.0
vt 1.000000 0.0 0.0
vt 1.000000 0.999995 0.0
# 4 texture vertices

vn  0.262888 -0.724445 -0.637236 
# 1 normals

usemtl surface__11

o IndexedFaceSet__17_0
g IndexedFaceSet__17_0

s off
f 72/72/29 71/71/29 74/74/29
f 73/73/29 74/74/29 71/71/29
# 2 polygons

# Coordinates for object 'IndexedFaceSet #18'
v  202939.468750 443074.343750 83.995941 
v  202939.812500 443073.437500 82.967239 
v  202939.812500 443073.437500 83.995941 
# 3 vertices

vt 0.0 0.0 0.0
vt 0.471594 0.999999 0.0
vt 1.000000 0.0 0.0
# 3 texture vertices

vn  -0.934997 -0.354654 0.0 
# 1 normals

usemtl surface__11

o IndexedFaceSet__18_0
g IndexedFaceSet__18_0

s off
f 75/75/30 76/77/30 77/76/30
# 1 polygons

# Coordinates for object 'IndexedFaceSet #19'
v  202962.031250 443082.531250 83.995926 
v  202962.359375 443081.593750 82.967232 
v  202962.359375 443081.593750 83.995926 
# 3 vertices

vt 0.0 0.0 0.0
vt 0.528406 0.999997 0.0
vt 1.000000 0.0 0.0
# 3 texture vertices

vn  0.943858 0.330350 0.0 
# 1 normals

usemtl surface__11

o IndexedFaceSet__19_0
g IndexedFaceSet__19_0

s off
f 79/78/31 78/80/31 80/79/31
# 1 polygons

# Coordinates for object 'IndexedFaceSet #20'
v  202939.468750 443074.343750 83.995941 
v  202939.812500 443073.437500 82.967239 
v  202962.031250 443082.531250 83.995926 
v  202962.359375 443081.593750 82.967232 
# 4 vertices

vt 0.0 0.0 0.0
vt 0.0 1.000000 0.0
vt 1.000000 0.0 0.0
vt 1.000000 1.000000 0.0
# 4 texture vertices

vn  -0.247600 0.684457 -0.685720 
vn  -0.245402 0.676260 -0.694586 
# 2 normals

usemtl surface__11

o IndexedFaceSet__20_0
g IndexedFaceSet__20_0

s off
f 82/83/32 81/84/32 84/81/32
f 83/82/33 84/81/33 81/84/33
# 2 polygons
