# Converted by Daum Communications 
# Date/time of export: 08/22/2013 14:53:27
#
# Bounding box of geometry = (203739,443653,-0.261787) to (203767,443688,28.4045).

mtllib 3733791.mtl

# Coordinates for object 'IndexedFaceSet'
v  203741.062500 443683.093750 -0.261780 
v  203741.062500 443683.093750 22.528067 
v  203753.515625 443687.781250 22.528069 
v  203753.609375 443687.812500 -0.261782 
# 4 vertices

vt 0.0 0.992312 0.0
vt 0.002667 0.000073 0.0
vt 0.997316 1.000000 0.0
vt 1.000000 0.0 0.0
# 4 texture vertices

vn  -0.352281 0.935894 0.0 
vn  -0.352017 0.935993 -0.000165 
# 2 normals

usemtl surface

o IndexedFaceSet
g IndexedFaceSet

s off
f 2/1/1 3/2/1 1/3/1
f 4/4/2 1/3/2 3/2/2
# 2 polygons

# Coordinates for object 'IndexedFaceSet #1'
v  203747.140625 443666.968750 -0.261784 
v  203747.140625 443666.968750 22.528063 
v  203759.578125 443671.625000 22.528061 
v  203759.671875 443671.656250 -0.261787 
# 4 vertices

vt 0.0 0.992312 0.0
vt 0.002667 0.000073 0.0
vt 0.997316 1.000000 0.0
vt 1.000000 0.0 0.0
# 4 texture vertices

vn  0.350355 -0.936617 0.000157 
vn  0.350608 -0.936522 0.0 
# 2 normals

usemtl surface

o IndexedFaceSet__1_0
g IndexedFaceSet__1_0

s off
f 8/8/3 7/6/3 5/7/3
f 6/5/4 5/7/4 7/6/4
# 2 polygons

# Coordinates for object 'IndexedFaceSet #2'
v  203738.796875 443682.250000 -0.245196 
v  203738.796875 443682.250000 7.610682 
v  203739.109375 443682.343750 -0.245198 
v  203739.109375 443682.343750 6.747633 
v  203741.062500 443683.093750 6.747634 
v  203741.062500 443683.093750 7.610681 
# 6 vertices

vt 0.0 0.0 0.0
vt 0.000436 1.000000 0.0
vt 0.109812 0.0 0.0
vt 0.110188 0.861120 0.0
vt 0.999940 0.856902 0.0
vt 1.000000 0.995253 0.0
# 6 texture vertices

vn  -0.358479 0.933538 0.0 
vn  -0.348892 0.936841 -0.024564 
vn  -0.287348 0.957826 0.0 
# 3 normals

usemtl surface__2

o IndexedFaceSet__2_0
g IndexedFaceSet__2_0

s off
f 10/10/6 14/9/6 12/12/6
f 12/12/5 14/9/5 13/11/5
f 12/12/7 11/13/7 9/14/7
f 12/12/7 9/14/7 10/10/7
# 4 polygons

# Coordinates for object 'IndexedFaceSet #3'
v  203741.062500 443683.093750 -0.261780 
v  203741.062500 443683.093750 22.528067 
v  203747.140625 443666.968750 -0.261784 
v  203747.140625 443666.968750 22.528063 
# 4 vertices

vt 0.0 1.000000 0.0
vt 0.000011 0.000059 0.0
vt 0.999957 0.0 0.0
vt 1.000000 0.999957 0.0
# 4 texture vertices

vn  -0.935732 -0.352713 0.0 
# 1 normals

usemtl surface__3

o IndexedFaceSet__3_0
g IndexedFaceSet__3_0

s off
f 18/16/8 16/15/8 15/18/8
f 15/18/8 17/17/8 18/16/8
# 2 polygons

# Coordinates for object 'IndexedFaceSet #4'
v  203741.062500 443683.093750 22.528067 
v  203747.140625 443666.968750 22.528063 
v  203753.515625 443687.781250 22.528069 
v  203759.578125 443671.625000 22.528061 
# 4 vertices

vt 0.0 0.0 0.0
vt 0.0 1.000000 0.0
vt 0.999999 1.000000 0.0
vt 1.000000 0.0 0.0
# 4 texture vertices

vn  0.0 0.0 1.0 
# 1 normals

usemtl surface__4

o IndexedFaceSet__4_0
g IndexedFaceSet__4_0

s off
f 20/19/9 22/22/9 21/21/9
f 21/21/9 19/20/9 20/19/9
# 2 polygons

# Coordinates for object 'IndexedFaceSet #5'
v  203753.515625 443687.781250 22.528069 
v  203753.609375 443687.812500 -0.261782 
v  203759.578125 443671.625000 22.528061 
v  203759.671875 443671.656250 -0.261787 
# 4 vertices

vt 0.0 1.000000 0.0
vt 0.000011 0.000059 0.0
vt 0.999957 0.0 0.0
vt 1.000000 0.999957 0.0
# 4 texture vertices

vn  0.936246 0.351319 0.004333 
# 1 normals

usemtl surface__3

o IndexedFaceSet__5_0
g IndexedFaceSet__5_0

s off
f 23/23/10 25/24/10 24/26/10
f 26/25/10 24/26/10 25/24/10
# 2 polygons

# Coordinates for object 'IndexedFaceSet #6'
v  203750.546875 443682.812500 22.523420 
v  203750.546875 443682.812500 28.404474 
v  203754.781250 443684.406250 22.528067 
v  203754.781250 443684.406250 28.404474 
# 4 vertices

vt 0.0 1.000000 0.0
vt 0.0 0.0 0.0
vt 0.999211 0.0 0.0
vt 1.000000 0.999994 0.0
# 4 texture vertices

vn  -0.352259 0.935903 0.0 
# 1 normals

usemtl surface__5

o IndexedFaceSet__6_0
g IndexedFaceSet__6_0

s off
f 28/27/11 30/28/11 29/29/11
f 29/29/11 27/30/11 28/27/11
# 2 polygons

# Coordinates for object 'IndexedFaceSet #7'
v  203755.359375 443670.031250 22.523420 
v  203755.359375 443670.031250 28.270617 
v  203759.578125 443671.625000 22.528067 
v  203759.578125 443671.625000 28.270617 
# 4 vertices

vt 0.0 1.000000 0.0
vt 0.0 0.0 0.0
vt 0.999211 0.0 0.0
vt 1.000000 0.999994 0.0
# 4 texture vertices

vn  0.353401 -0.935472 0.0 
# 1 normals

usemtl surface__5

o IndexedFaceSet__7_0
g IndexedFaceSet__7_0

s off
f 33/33/12 34/32/12 32/31/12
f 32/31/12 31/34/12 33/33/12
# 2 polygons

# Coordinates for object 'IndexedFaceSet #8'
v  203750.546875 443682.812500 22.523420 
v  203750.546875 443682.812500 28.404474 
v  203755.359375 443670.031250 22.523420 
v  203755.359375 443670.031250 28.270617 
# 4 vertices

vt 0.0 1.000000 0.0
vt 0.022816 0.000025 0.0
vt 0.999984 0.0 0.0
vt 1.000000 0.999978 0.0
# 4 texture vertices

vn  -0.935858 -0.352377 0.0 
# 1 normals

usemtl surface__6

o IndexedFaceSet__8_0
g IndexedFaceSet__8_0

s off
f 38/36/13 36/35/13 35/38/13
f 35/38/13 37/37/13 38/36/13
# 2 polygons

# Coordinates for object 'IndexedFaceSet #9'
v  203750.546875 443682.812500 28.404474 
v  203754.781250 443684.406250 28.404474 
v  203755.359375 443670.031250 28.270617 
v  203759.578125 443671.625000 28.270617 
# 4 vertices

vt 0.0 0.0 0.0
vt 0.0 1.000000 0.0
vt 0.500000 0.0 0.0
vt 0.500000 1.000000 0.0
# 4 texture vertices

vn  0.003452 -0.009173 0.999952 
vn  0.003465 -0.009172 0.999952 
# 2 normals

usemtl surface__7

o IndexedFaceSet__9_0
g IndexedFaceSet__9_0

s off
f 41/39/15 42/41/15 40/42/15
f 40/42/14 39/40/14 41/39/14
# 2 polygons

# Coordinates for object 'IndexedFaceSet #10'
v  203754.781250 443684.406250 22.528067 
v  203754.781250 443684.406250 28.404474 
v  203759.578125 443671.625000 22.528067 
v  203759.578125 443671.625000 28.270617 
# 4 vertices

vt 0.0 1.000000 0.0
vt 0.022816 0.000025 0.0
vt 0.999984 0.0 0.0
vt 1.000000 0.999978 0.0
# 4 texture vertices

vn  0.936235 0.351374 0.0 
# 1 normals

usemtl surface__6

o IndexedFaceSet__10_0
g IndexedFaceSet__10_0

s off
f 44/43/16 46/44/16 43/46/16
f 45/45/16 43/46/16 46/44/16
# 2 polygons

# Coordinates for object 'IndexedFaceSet #11'
v  203739.281250 443680.968750 -0.245197 
v  203739.281250 443680.968750 7.610681 
v  203739.593750 443681.062500 -0.245197 
v  203739.593750 443681.062500 6.747634 
v  203741.546875 443681.812500 6.747634 
v  203741.546875 443681.812500 7.610682 
# 6 vertices

vt 0.0 0.0 0.0
vt 0.000436 1.000000 0.0
vt 0.109812 0.0 0.0
vt 0.110188 0.861120 0.0
vt 0.999940 0.856902 0.0
vt 1.000000 0.995253 0.0
# 6 texture vertices

vn  0.287348 -0.957826 0.0 
vn  0.348892 -0.936841 0.024564 
vn  0.358479 -0.933538 0.0 
# 3 normals

usemtl surface__2

o IndexedFaceSet__11_0
g IndexedFaceSet__11_0

s off
f 51/49/19 52/47/19 50/50/19
f 50/50/18 52/47/18 48/48/18
f 50/50/17 47/52/17 49/51/17
f 47/52/17 50/50/17 48/48/17
# 4 polygons

# Coordinates for object 'IndexedFaceSet #12'
v  203747.125000 443667.000000 24.221195 
v  203752.453125 443652.812500 24.221193 
v  203753.718750 443669.468750 24.221197 
v  203755.843750 443663.812500 24.221193 
v  203763.546875 443666.718750 24.221191 
v  203766.765625 443658.218750 24.221193 
# 6 vertices

vt 0.0 0.0 0.0
vt 0.0 0.460418 0.0
vt 0.398677 0.460418 0.0
vt 0.398677 0.999465 0.0
vt 0.999999 0.0 0.0
vt 1.000000 1.000000 0.0
# 6 texture vertices

vn  0.0 0.0 1.0 
# 1 normals

usemtl surface__7

o IndexedFaceSet__12_0
g IndexedFaceSet__12_0

s off
f 54/57/20 58/58/20 56/55/20
f 56/55/20 58/58/20 57/56/20
f 54/57/20 56/55/20 53/53/20
f 55/54/20 53/53/20 56/55/20
# 4 polygons

# Coordinates for object 'IndexedFaceSet #13'
v  203739.109375 443682.343750 6.747633 
v  203739.593750 443681.062500 6.747634 
v  203741.062500 443683.093750 6.747634 
v  203741.546875 443681.812500 6.747634 
# 4 vertices

vt 0.0 1.000000 0.0
vt 0.000264 0.000072 0.0
vt 0.999696 0.999882 0.0
vt 1.000000 0.0 0.0
# 4 texture vertices

vn  0.0 0.0 -1.0 
# 1 normals

usemtl surface__8

o IndexedFaceSet__13_0
g IndexedFaceSet__13_0

s off
f 59/59/21 61/60/21 62/62/21
f 62/62/21 60/61/21 59/59/21
# 2 polygons

# Coordinates for object 'IndexedFaceSet #14'
v  203752.453125 443652.812500 -0.005338 
v  203752.453125 443652.812500 24.221193 
v  203766.765625 443658.218750 -0.005340 
v  203766.765625 443658.218750 24.221193 
# 4 vertices

vt 0.0 1.000000 0.0
vt 0.000032 0.000467 0.0
vt 0.999990 0.0 0.0
vt 1.000000 0.999572 0.0
# 4 texture vertices

vn  0.353361 -0.935487 0.0 
# 1 normals

usemtl surface__9

o IndexedFaceSet__14_0
g IndexedFaceSet__14_0

s off
f 65/66/22 66/63/22 64/64/22
f 64/64/22 63/65/22 65/66/22
# 2 polygons

# Coordinates for object 'IndexedFaceSet #15'
v  203747.125000 443667.000000 -0.005335 
v  203747.125000 443667.000000 24.221195 
v  203752.453125 443652.812500 -0.005338 
v  203752.453125 443652.812500 24.221193 
# 4 vertices

vt 0.0 1.000000 0.0
vt 0.000099 0.000649 0.0
vt 0.999972 0.0 0.0
vt 1.000000 0.999429 0.0
# 4 texture vertices

vn  -0.936160 -0.351575 0.0 
# 1 normals

usemtl surface__10

o IndexedFaceSet__15_0
g IndexedFaceSet__15_0

s off
f 70/68/23 68/67/23 67/70/23
f 67/70/23 69/69/23 70/68/23
# 2 polygons

# Coordinates for object 'IndexedFaceSet #16'
v  203747.125000 443667.000000 -0.005335 
v  203747.125000 443667.000000 24.221195 
v  203753.718750 443669.468750 -0.005340 
v  203753.718750 443669.468750 24.221197 
# 4 vertices

vt 0.0 1.000000 0.0
vt 0.0 0.000157 0.0
vt 0.999996 0.999839 0.0
vt 1.000000 0.0 0.0
# 4 texture vertices

vn  -0.350637 0.936511 0.0 
# 1 normals

usemtl surface__11

o IndexedFaceSet__16_0
g IndexedFaceSet__16_0

s off
f 72/71/24 74/72/24 73/74/24
f 73/74/24 71/73/24 72/71/24
# 2 polygons

# Coordinates for object 'IndexedFaceSet #17'
v  203753.718750 443669.468750 -0.005340 
v  203753.718750 443669.468750 24.221197 
v  203755.843750 443663.812500 -0.005341 
v  203755.843750 443663.812500 24.221193 
# 4 vertices

vt 0.0 1.000000 0.0
vt 0.0 0.000277 0.0
vt 0.999985 0.0 0.0
vt 1.000000 0.999747 0.0
# 4 texture vertices

vn  0.936116 0.351690 0.0 
# 1 normals

usemtl surface__12

o IndexedFaceSet__17_0
g IndexedFaceSet__17_0

s off
f 76/75/25 78/76/25 77/77/25
f 77/77/25 75/78/25 76/75/25
# 2 polygons

# Coordinates for object 'IndexedFaceSet #18'
v  203755.843750 443663.812500 -0.005341 
v  203755.843750 443663.812500 24.221193 
v  203763.546875 443666.718750 -0.005343 
v  203763.546875 443666.718750 24.221191 
# 4 vertices

vt 0.0 1.000000 0.0
vt 0.0 0.000154 0.0
vt 0.999994 0.999846 0.0
vt 1.000000 0.0 0.0
# 4 texture vertices

vn  -0.352995 0.935625 0.0 
# 1 normals

usemtl surface__13

o IndexedFaceSet__18_0
g IndexedFaceSet__18_0

s off
f 80/79/26 82/80/26 79/81/26
f 81/82/26 79/81/26 82/80/26
# 2 polygons

# Coordinates for object 'IndexedFaceSet #19'
v  203763.546875 443666.718750 -0.005343 
v  203763.546875 443666.718750 24.221191 
v  203766.765625 443658.218750 -0.005340 
v  203766.765625 443658.218750 24.221193 
# 4 vertices

vt 0.0 1.000000 0.0
vt 0.000099 0.000649 0.0
vt 0.999972 0.0 0.0
vt 1.000000 0.999429 0.0
# 4 texture vertices

vn  0.935194 0.354136 0.0 
# 1 normals

usemtl surface__10

o IndexedFaceSet__19_0
g IndexedFaceSet__19_0

s off
f 84/83/27 86/84/27 85/85/27
f 85/85/27 83/86/27 84/83/27
# 2 polygons

# Coordinates for object 'IndexedFaceSet #20'
v  203759.578125 443671.625000 26.886402 
v  203759.578125 443671.625000 28.270617 
v  203764.750000 443657.906250 26.886396 
v  203764.750000 443657.906250 28.270613 
# 4 vertices

vt 0.0 1.000000 0.0
vt 0.003431 0.000028 0.0
vt 0.996819 0.999737 0.0
vt 1.000000 0.0 0.0
# 4 texture vertices

vn  0.935715 0.352758 0.0 
# 1 normals

usemtl surface__14

o IndexedFaceSet__20_0
g IndexedFaceSet__20_0

s off
f 87/89/28 88/87/28 90/88/28
f 90/88/28 89/90/28 87/89/28
# 2 polygons

# Coordinates for object 'IndexedFaceSet #21'
v  203759.125000 443671.437500 28.270617 
v  203759.140625 443671.437500 26.886402 
v  203764.296875 443657.718750 26.886396 
v  203764.296875 443657.718750 28.270617 
# 4 vertices

vt 0.0 1.000000 0.0
vt 0.003675 0.000028 0.0
vt 0.996584 0.999756 0.0
vt 1.000000 0.0 0.0
# 4 texture vertices

vn  -0.936066 -0.351824 0.0 
vn  -0.935662 -0.352738 -0.010562 
# 2 normals

usemtl surface__15

o IndexedFaceSet__21_0
g IndexedFaceSet__21_0

s off
f 91/91/30 92/93/30 94/92/30
f 93/94/29 94/92/29 92/93/29
# 2 polygons

# Coordinates for object 'IndexedFaceSet #22'
v  203759.125000 443671.437500 28.270617 
v  203759.578125 443671.625000 28.270617 
v  203764.296875 443657.718750 28.270617 
v  203764.750000 443657.906250 28.270613 
# 4 vertices

vt 0.0 0.0 0.0
vt 0.0 1.000000 0.0
vt 1.000000 0.0 0.0
vt 1.000000 0.999954 0.0
# 4 texture vertices

vn  0.000007 0.000003 1.0 
# 1 normals

usemtl surface__16

o IndexedFaceSet__22_0
g IndexedFaceSet__22_0

s off
f 97/96/31 98/95/31 96/97/31
f 96/97/31 95/98/31 97/96/31
# 2 polygons

# Coordinates for object 'IndexedFaceSet #23'
v  203764.296875 443657.718750 26.886396 
v  203764.296875 443657.718750 28.270617 
v  203764.750000 443657.906250 26.886396 
v  203764.750000 443657.906250 28.270613 
# 4 vertices

vt 0.0 1.000000 0.0
vt 0.0 0.000117 0.0
vt 0.999974 0.999873 0.0
vt 1.000000 0.0 0.0
# 4 texture vertices

vn  0.382352 -0.924017 0.0 
# 1 normals

usemtl surface__17

o IndexedFaceSet__23_0
g IndexedFaceSet__23_0

s off
f 102/100/32 100/99/32 99/101/32
f 99/101/32 101/102/32 102/100/32
# 2 polygons

# Coordinates for object 'IndexedFaceSet #24'
v  203759.140625 443671.437500 26.886402 
v  203759.578125 443671.625000 26.886402 
v  203764.296875 443657.718750 26.886396 
v  203764.750000 443657.906250 26.886396 
# 4 vertices

vt 0.0 0.996719 0.0
vt 0.0 0.0 0.0
vt 0.999996 1.000000 0.0
vt 1.000000 0.003357 0.0
# 4 texture vertices

vn  0.0 0.0 -1.0 
# 1 normals

usemtl surface__18

o IndexedFaceSet__24_0
g IndexedFaceSet__24_0

s off
f 103/103/33 104/104/33 106/106/33
f 106/106/33 105/105/33 103/103/33
# 2 polygons

# Coordinates for object 'IndexedFaceSet #25'
v  203739.109375 443682.343750 -0.245198 
v  203739.109375 443682.343750 6.747633 
v  203739.593750 443681.062500 -0.245197 
v  203739.593750 443681.062500 6.747634 
# 4 vertices

vt 0.0 0.000177 0.0
vt 0.000030 1.000000 0.0
vt 0.999967 0.0 0.0
vt 1.000000 0.999826 0.0
# 4 texture vertices

vn  0.935388 0.353622 0.0 
# 1 normals

usemtl surface__19

o IndexedFaceSet__25_0
g IndexedFaceSet__25_0

s off
f 108/108/34 110/107/34 109/109/34
f 109/109/34 107/110/34 108/108/34
# 2 polygons

# Coordinates for object 'IndexedFaceSet #26'
v  203738.796875 443682.250000 -0.245196 
v  203738.796875 443682.250000 7.610682 
v  203739.281250 443680.968750 -0.245197 
v  203739.281250 443680.968750 7.610681 
# 4 vertices

vt 0.0 0.000177 0.0
vt 0.000030 1.000000 0.0
vt 0.999967 0.0 0.0
vt 1.000000 0.999826 0.0
# 4 texture vertices

vn  -0.935388 -0.353622 0.0 
# 1 normals

usemtl surface__19

o IndexedFaceSet__26_0
g IndexedFaceSet__26_0

s off
f 114/111/35 112/112/35 113/113/35
f 111/114/35 113/113/35 112/112/35
# 2 polygons

# Coordinates for object 'IndexedFaceSet #27'
v  203761.500000 443665.312500 24.000330 
v  203761.500000 443665.312500 26.886400 
v  203761.671875 443665.375000 24.000332 
v  203761.671875 443665.375000 26.886400 
# 4 vertices

vt 0.0 1.000000 0.0
vt 0.000011 0.000518 0.0
vt 0.999994 0.999556 0.0
vt 1.000000 0.0 0.0
# 4 texture vertices

vn  0.341743 -0.939793 0.0 
# 1 normals

usemtl surface__20

o IndexedFaceSet__27_0
g IndexedFaceSet__27_0

s off
f 118/118/36 116/117/36 117/116/36
f 115/115/36 117/116/36 116/117/36
# 2 polygons

# Coordinates for object 'IndexedFaceSet #28'
v  203761.375000 443665.656250 24.000328 
v  203761.375000 443665.656250 26.886400 
v  203761.500000 443665.312500 24.000330 
v  203761.500000 443665.312500 26.886400 
# 4 vertices

vt 0.0 0.000218 0.0
vt 0.0 1.000000 0.0
vt 0.999994 0.999782 0.0
vt 1.000000 0.0 0.0
# 4 texture vertices

vn  -0.939793 -0.341743 0.0 
# 1 normals

usemtl surface__21

o IndexedFaceSet__28_0
g IndexedFaceSet__28_0

s off
f 122/121/37 120/120/37 121/122/37
f 119/119/37 121/122/37 120/120/37
# 2 polygons

# Coordinates for object 'IndexedFaceSet #29'
v  203761.375000 443665.656250 24.000328 
v  203761.375000 443665.656250 26.886400 
v  203761.546875 443665.718750 24.000332 
v  203761.546875 443665.718750 26.886400 
# 4 vertices

vt 0.0 1.000000 0.0
vt 0.0 0.000098 0.0
vt 0.999999 0.999890 0.0
vt 1.000000 0.0 0.0
# 4 texture vertices

vn  -0.341743 0.939793 0.0 
# 1 normals

usemtl surface__22

o IndexedFaceSet__29_0
g IndexedFaceSet__29_0

s off
f 124/123/38 126/124/38 125/126/38
f 125/126/38 123/125/38 124/123/38
# 2 polygons

# Coordinates for object 'IndexedFaceSet #30'
v  203761.546875 443665.718750 24.000332 
v  203761.546875 443665.718750 26.886400 
v  203761.671875 443665.375000 24.000332 
v  203761.671875 443665.375000 26.886400 
# 4 vertices

vt 0.0 0.000560 0.0
vt 0.0 1.000000 0.0
vt 0.999992 0.0 0.0
vt 1.000000 0.999447 0.0
# 4 texture vertices

vn  0.939793 0.341743 0.0 
# 1 normals

usemtl surface__23

o IndexedFaceSet__30_0
g IndexedFaceSet__30_0

s off
f 128/128/39 130/127/39 127/130/39
f 129/129/39 127/130/39 130/127/39
# 2 polygons

# Coordinates for object 'IndexedFaceSet #31'
v  203738.796875 443682.250000 7.610682 
v  203739.281250 443680.968750 7.610681 
v  203741.062500 443683.093750 7.610681 
v  203741.546875 443681.812500 7.610682 
# 4 vertices

vt 0.0 1.000000 0.0
vt 0.000264 0.000072 0.0
vt 0.999696 0.999882 0.0
vt 1.000000 0.0 0.0
# 4 texture vertices

vn  0.0 0.0 1.0 
# 1 normals

usemtl surface__8

o IndexedFaceSet__31_0
g IndexedFaceSet__31_0

s off
f 132/133/40 134/134/40 133/132/40
f 133/132/40 131/131/40 132/133/40
# 2 polygons

# Coordinates for object 'IndexedFaceSet #32'
v  203739.843750 443682.625000 2.669117 
v  203739.843750 443682.625000 4.186202 
v  203741.062500 443683.093750 2.669117 
v  203741.062500 443683.093750 4.186202 
# 4 vertices

vt 0.0 0.000013 0.0
vt 0.001546 1.000000 0.0
vt 0.998465 0.0 0.0
vt 1.000000 0.997920 0.0
# 4 texture vertices

vn  -0.358979 0.933346 0.0 
# 1 normals

usemtl surface__24

o IndexedFaceSet__32_0
g IndexedFaceSet__32_0

s off
f 136/136/41 138/135/41 137/137/41
f 137/137/41 135/138/41 136/136/41
# 2 polygons

# Coordinates for object 'IndexedFaceSet #33'
v  203740.046875 443682.093750 2.669118 
v  203740.046875 443682.093750 4.186202 
v  203741.265625 443682.562500 2.669118 
v  203741.265625 443682.562500 4.186202 
# 4 vertices

vt 0.0 0.000013 0.0
vt 0.001546 1.000000 0.0
vt 0.998465 0.0 0.0
vt 1.000000 0.997920 0.0
# 4 texture vertices

vn  0.358979 -0.933346 0.0 
# 1 normals

usemtl surface__24

o IndexedFaceSet__33_0
g IndexedFaceSet__33_0

s off
f 141/141/42 142/139/42 140/140/42
f 140/140/42 139/142/42 141/141/42
# 2 polygons

# Coordinates for object 'IndexedFaceSet #34'
v  203739.843750 443682.625000 2.669117 
v  203740.046875 443682.093750 2.669118 
v  203741.062500 443683.093750 2.669117 
v  203741.265625 443682.562500 2.669118 
# 4 vertices

vt 0.0 0.000158 0.0
vt 0.000047 1.000000 0.0
vt 0.999949 0.0 0.0
vt 1.000000 0.999843 0.0
# 4 texture vertices

vn  0.0 -0.000002 -1.0 
# 1 normals

usemtl surface__25

o IndexedFaceSet__34_0
g IndexedFaceSet__34_0

s off
f 143/143/43 145/145/43 146/146/43
f 146/146/43 144/144/43 143/143/43
# 2 polygons

# Coordinates for object 'IndexedFaceSet #35'
v  203739.843750 443682.625000 2.669117 
v  203739.843750 443682.625000 4.186202 
v  203740.046875 443682.093750 2.669118 
v  203740.046875 443682.093750 4.186202 
# 4 vertices

vt 0.0 0.000158 0.0
vt 0.000047 1.000000 0.0
vt 0.999949 0.0 0.0
vt 1.000000 0.999843 0.0
# 4 texture vertices

vn  -0.934052 -0.357137 0.0 
# 1 normals

usemtl surface__25

o IndexedFaceSet__35_0
g IndexedFaceSet__35_0

s off
f 150/147/44 148/148/44 147/150/44
f 147/150/44 149/149/44 150/147/44
# 2 polygons

# Coordinates for object 'IndexedFaceSet #36'
v  203739.843750 443682.625000 4.186202 
v  203740.046875 443682.093750 4.186202 
v  203741.062500 443683.093750 4.186202 
v  203741.265625 443682.562500 4.186202 
# 4 vertices

vt 0.0 0.000158 0.0
vt 0.000047 1.000000 0.0
vt 0.999949 0.0 0.0
vt 1.000000 0.999843 0.0
# 4 texture vertices

vn  0.0 0.0 1.0 
# 1 normals

usemtl surface__25

o IndexedFaceSet__36_0
g IndexedFaceSet__36_0

s off
f 152/152/45 154/154/45 153/153/45
f 153/153/45 151/151/45 152/152/45
# 2 polygons

# Coordinates for object 'IndexedFaceSet #37'
v  203741.062500 443683.093750 2.669117 
v  203741.062500 443683.093750 4.186202 
v  203741.265625 443682.562500 2.669118 
v  203741.265625 443682.562500 4.186202 
# 4 vertices

vt 0.0 0.000158 0.0
vt 0.000047 1.000000 0.0
vt 0.999949 0.0 0.0
vt 1.000000 0.999843 0.0
# 4 texture vertices

vn  0.934052 0.357137 0.0 
# 1 normals

usemtl surface__25

o IndexedFaceSet__37_0
g IndexedFaceSet__37_0

s off
f 156/156/46 158/155/46 155/158/46
f 157/157/46 155/158/46 158/155/46
# 2 polygons
