# Converted by Daum Communications 
# Date/time of export: 08/22/2013 14:53:27
#
# Bounding box of geometry = (202717,443275,-0.313345) to (202736,443293,16.8763).

mtllib 3733543.mtl

# Coordinates for object 'IndexedFaceSet'
v  202717.156250 443287.312500 3.021784 
v  202717.156250 443287.312500 14.396981 
v  202731.062500 443292.593750 14.396979 
v  202731.109375 443292.593750 3.021784 
# 4 vertices

vt 0.0 0.000053 0.0
vt 0.002688 1.000000 0.0
vt 0.999986 0.999930 0.0
vt 1.000000 0.0 0.0
# 4 texture vertices

vn  -0.355034 0.934853 0.0 
vn  -0.353991 0.935248 -0.001459 
# 2 normals

usemtl surface

o IndexedFaceSet
g IndexedFaceSet

s off
f 3/2/2 4/1/2 1/4/2
f 1/4/1 2/3/1 3/2/1
# 2 polygons

# Coordinates for object 'IndexedFaceSet #1'
v  202721.765625 443275.156250 2.893600 
v  202721.765625 443275.156250 14.268795 
v  202735.671875 443280.437500 14.268794 
v  202735.703125 443280.437500 2.893599 
# 4 vertices

vt 0.0 0.0 0.0
vt 0.002711 1.000000 0.0
vt 0.999993 1.000000 0.0
vt 1.000000 0.0 0.0
# 4 texture vertices

vn  0.354338 -0.935117 0.000973 
vn  0.355034 -0.934853 0.0 
# 2 normals

usemtl surface__2

o IndexedFaceSet__1_0
g IndexedFaceSet__1_0

s off
f 5/8/3 8/5/3 7/6/3
f 7/6/4 6/7/4 5/8/4
# 2 polygons

# Coordinates for object 'IndexedFaceSet #2'
v  202717.156250 443287.312500 3.021784 
v  202721.765625 443275.156250 2.893600 
v  202731.109375 443292.593750 3.021784 
v  202735.703125 443280.437500 2.893599 
# 4 vertices

vt 0.0 0.0 0.0
vt 0.0 1.000000 0.0
vt 0.999999 0.0 0.0
vt 1.000000 0.999999 0.0
# 4 texture vertices

vn  -0.003495 0.009224 -0.999951 
# 1 normals

usemtl surface__3

o IndexedFaceSet__2_0
g IndexedFaceSet__2_0

s off
f 11/10/5 12/9/5 10/11/5
f 10/11/5 9/12/5 11/10/5
# 2 polygons

# Coordinates for object 'IndexedFaceSet #3'
v  202717.156250 443287.312500 3.021784 
v  202717.156250 443287.312500 14.396981 
v  202721.765625 443275.156250 2.893600 
v  202721.765625 443275.156250 14.268795 
# 4 vertices

vt 0.0 1.000000 0.0
vt 0.008635 0.0 0.0
vt 0.991322 0.999885 0.0
vt 1.000000 0.0 0.0
# 4 texture vertices

vn  -0.935039 -0.354546 0.0 
# 1 normals

usemtl surface__4

o IndexedFaceSet__3_0
g IndexedFaceSet__3_0

s off
f 14/13/6 13/14/6 16/15/6
f 15/16/6 16/15/6 13/14/6
# 2 polygons

# Coordinates for object 'IndexedFaceSet #4'
v  202717.156250 443287.312500 14.396981 
v  202721.765625 443275.156250 14.268795 
v  202731.062500 443292.593750 14.396979 
v  202735.671875 443280.437500 14.268794 
# 4 vertices

vt 0.0 0.0 0.0
vt 0.0 1.000000 0.0
vt 1.000000 0.0 0.0
vt 1.000000 1.000000 0.0
# 4 texture vertices

vn  0.003501 -0.009217 0.999951 
# 1 normals

usemtl surface__5

o IndexedFaceSet__4_0
g IndexedFaceSet__4_0

s off
f 20/19/7 19/20/7 17/18/7
f 17/18/7 18/17/7 20/19/7
# 2 polygons

# Coordinates for object 'IndexedFaceSet #5'
v  202731.062500 443292.593750 14.396979 
v  202731.109375 443292.593750 3.021784 
v  202735.671875 443280.437500 14.268794 
v  202735.703125 443280.437500 2.893599 
# 4 vertices

vt 0.0 0.000162 0.0
vt 0.008410 1.000000 0.0
vt 0.991512 0.0 0.0
vt 1.000000 0.999611 0.0
# 4 texture vertices

vn  0.935045 0.354507 0.003853 
vn  0.935443 0.353469 0.002570 
# 2 normals

usemtl surface__6

o IndexedFaceSet__5_0
g IndexedFaceSet__5_0

s off
f 23/22/9 24/21/9 22/23/9
f 22/23/8 21/24/8 23/22/8
# 2 polygons

# Coordinates for object 'IndexedFaceSet #6'
v  202717.750000 443286.156250 -0.180028 
v  202717.750000 443286.156250 3.232798 
v  202731.562500 443291.406250 -0.197948 
v  202731.562500 443291.406250 3.224104 
# 4 vertices

vt 0.0 0.0 0.0
vt 0.000279 1.000000 0.0
vt 0.999721 0.0 0.0
vt 1.000000 0.997309 0.0
# 4 texture vertices

vn  -0.355292 0.934756 0.0 
# 1 normals

usemtl surface__7

o IndexedFaceSet__6_0
g IndexedFaceSet__6_0

s off
f 28/26/10 27/25/10 25/27/10
f 25/27/10 26/28/10 28/26/10
# 2 polygons

# Coordinates for object 'IndexedFaceSet #7'
v  202721.890625 443275.250000 -0.295424 
v  202721.890625 443275.250000 3.117402 
v  202735.703125 443280.468750 -0.313345 
v  202735.703125 443280.468750 3.108708 
# 4 vertices

vt 0.0 1.000000 0.0
vt 0.0 0.0 0.0
vt 0.999999 0.000067 0.0
vt 1.000000 0.997187 0.0
# 4 texture vertices

vn  0.353442 -0.935457 0.0 
# 1 normals

usemtl surface__8

o IndexedFaceSet__7_0
g IndexedFaceSet__7_0

s off
f 29/31/11 31/30/11 32/29/11
f 32/29/11 30/32/11 29/31/11
# 2 polygons

# Coordinates for object 'IndexedFaceSet #8'
v  202731.562500 443291.406250 -0.197948 
v  202731.562500 443291.406250 3.224104 
v  202735.703125 443280.468750 -0.313345 
v  202735.703125 443280.468750 3.108708 
# 4 vertices

vt 0.0 0.000501 0.0
vt 0.002724 1.000000 0.0
vt 0.997213 0.0 0.0
vt 1.000000 0.998926 0.0
# 4 texture vertices

vn  0.935227 0.354050 0.0 
# 1 normals

usemtl surface__9

o IndexedFaceSet__8_0
g IndexedFaceSet__8_0

s off
f 36/34/12 35/33/12 33/35/12
f 33/35/12 34/36/12 36/34/12
# 2 polygons

# Coordinates for object 'IndexedFaceSet #9'
v  202717.750000 443286.156250 -0.180028 
v  202717.750000 443286.156250 3.232798 
v  202721.890625 443275.250000 -0.295424 
v  202721.890625 443275.250000 3.117402 
# 4 vertices

vt 0.0 0.999313 0.0
vt 0.002870 0.0 0.0
vt 0.997145 1.000000 0.0
vt 1.000000 0.000616 0.0
# 4 texture vertices

vn  -0.934890 -0.354937 0.0 
# 1 normals

usemtl surface__10

o IndexedFaceSet__9_0
g IndexedFaceSet__9_0

s off
f 38/37/13 37/38/13 40/39/13
f 39/40/13 40/39/13 37/38/13
# 2 polygons

# Coordinates for object 'IndexedFaceSet #10'
v  202731.078125 443292.656250 3.021786 
v  202731.078125 443292.656250 4.583855 
v  202731.109375 443292.593750 3.021784 
v  202731.109375 443292.593750 4.582797 
# 4 vertices

vt 0.0 0.0 0.0
vt 0.205985 0.995393 0.0
vt 0.781703 1.000000 0.0
vt 1.000000 0.0 0.0
# 4 texture vertices

vn  0.894427 0.447214 0.0 
# 1 normals

usemtl surface__11

o IndexedFaceSet__10_0
g IndexedFaceSet__10_0

s off
f 42/43/14 44/42/14 41/44/14
f 43/41/14 41/44/14 44/42/14
# 2 polygons

# Coordinates for object 'IndexedFaceSet #11'
v  202720.484375 443288.625000 3.021785 
v  202720.484375 443288.625000 4.583853 
v  202720.500000 443288.562500 3.021783 
v  202720.500000 443288.562500 4.582796 
# 4 vertices

vt 0.0 0.998639 0.0
vt 0.090223 0.0 0.0
vt 0.917682 0.0 0.0
vt 1.000000 1.000000 0.0
# 4 texture vertices

vn  -0.970142 -0.242536 0.0 
# 1 normals

usemtl surface__12

o IndexedFaceSet__11_0
g IndexedFaceSet__11_0

s off
f 45/46/15 47/47/15 48/48/15
f 48/48/15 46/45/15 45/46/15
# 2 polygons

# Coordinates for object 'IndexedFaceSet #12'
v  202720.484375 443288.625000 3.021785 
v  202720.500000 443288.562500 3.021783 
v  202731.078125 443292.656250 3.021786 
v  202731.109375 443292.593750 3.021784 
# 4 vertices

vt 0.0 1.000000 0.0
vt 0.0 0.032827 0.0
vt 1.000000 0.0 0.0
vt 1.000000 0.967296 0.0
# 4 texture vertices

vn  -0.000010 0.000026 -1.0 
# 1 normals

usemtl surface__13

o IndexedFaceSet__12_0
g IndexedFaceSet__12_0

s off
f 51/49/16 52/50/16 49/52/16
f 50/51/16 49/52/16 52/50/16
# 2 polygons

# Coordinates for object 'IndexedFaceSet #13'
v  202720.484375 443288.625000 3.021785 
v  202720.484375 443288.625000 4.583853 
v  202731.078125 443292.656250 3.021786 
v  202731.078125 443292.656250 4.583855 
# 4 vertices

vt 0.0 0.999951 0.0
vt 0.0 0.0 0.0
vt 0.999998 1.000000 0.0
vt 1.000000 0.000048 0.0
# 4 texture vertices

vn  -0.355651 0.934619 0.0 
# 1 normals

usemtl surface__14

o IndexedFaceSet__13_0
g IndexedFaceSet__13_0

s off
f 56/53/17 55/54/17 54/55/17
f 53/56/17 54/55/17 55/54/17
# 2 polygons

# Coordinates for object 'IndexedFaceSet #14'
v  202720.484375 443288.625000 4.583853 
v  202720.500000 443288.562500 4.582796 
v  202731.078125 443292.656250 4.583855 
v  202731.109375 443292.593750 4.582797 
# 4 vertices

vt 0.0 0.999951 0.0
vt 0.0 0.0 0.0
vt 0.999998 1.000000 0.0
vt 1.000000 0.000048 0.0
# 4 texture vertices

vn  0.005412 -0.014222 0.999884 
vn  0.005866 -0.015438 0.999864 
# 2 normals

usemtl surface__15

o IndexedFaceSet__14_0
g IndexedFaceSet__14_0

s off
f 60/60/18 59/58/18 57/57/18
f 57/57/19 58/59/19 60/60/19
# 2 polygons

# Coordinates for object 'IndexedFaceSet #15'
v  202716.640625 443288.500000 3.035088 
v  202716.640625 443288.500000 3.983730 
v  202717.109375 443287.281250 3.983729 
v  202717.125000 443287.250000 3.035088 
# 4 vertices

vt 0.0 0.999754 0.0
vt 0.000042 0.0 0.0
vt 0.979861 1.000000 0.0
vt 1.000000 0.000255 0.0
# 4 texture vertices

vn  -0.933346 -0.358979 0.0 
vn  -0.932436 -0.361319 -0.003456 
# 2 normals

usemtl surface__16

o IndexedFaceSet__15_0
g IndexedFaceSet__15_0

s off
f 62/61/20 61/62/20 63/63/20
f 64/64/21 63/63/21 61/62/21
# 2 polygons

# Coordinates for object 'IndexedFaceSet #16'
v  202720.031250 443289.781250 3.035088 
v  202720.031250 443289.781250 3.983730 
v  202720.500000 443288.562500 3.035088 
v  202720.500000 443288.562500 3.983729 
# 4 vertices

vt 0.0 0.000071 0.0
vt 0.020058 1.000000 0.0
vt 0.999970 0.999917 0.0
vt 1.000000 0.0 0.0
# 4 texture vertices

vn  0.933346 0.358979 0.0 
# 1 normals

usemtl surface__17

o IndexedFaceSet__16_0
g IndexedFaceSet__16_0

s off
f 68/66/22 67/65/22 65/68/22
f 65/68/22 66/67/22 68/66/22
# 2 polygons

# Coordinates for object 'IndexedFaceSet #17'
v  202716.640625 443288.500000 3.983730 
v  202717.109375 443287.281250 3.983729 
v  202720.031250 443289.781250 3.983730 
v  202720.500000 443288.562500 3.983729 
# 4 vertices

vt 0.0 0.001090 0.0
vt 0.000060 1.000000 0.0
vt 0.999782 0.0 0.0
vt 1.000000 0.998990 0.0
# 4 texture vertices

vn  0.0 0.0 1.0 
# 1 normals

usemtl surface__18

o IndexedFaceSet__17_0
g IndexedFaceSet__17_0

s off
f 72/69/23 71/70/23 69/72/23
f 69/72/23 70/71/23 72/69/23
# 2 polygons

# Coordinates for object 'IndexedFaceSet #18'
v  202716.640625 443288.500000 3.035088 
v  202716.640625 443288.500000 3.983730 
v  202720.031250 443289.781250 3.035088 
v  202720.031250 443289.781250 3.983730 
# 4 vertices

vt 0.0 1.000000 0.0
vt 0.000024 0.0 0.0
vt 0.999976 0.999995 0.0
vt 1.000000 0.0 0.0
# 4 texture vertices

vn  -0.353484 0.935440 0.0 
# 1 normals

usemtl surface__19

o IndexedFaceSet__18_0
g IndexedFaceSet__18_0

s off
f 76/73/24 75/74/24 73/76/24
f 73/76/24 74/75/24 76/73/24
# 2 polygons

# Coordinates for object 'IndexedFaceSet #19'
v  202716.640625 443288.500000 3.035088 
v  202717.125000 443287.250000 3.035088 
v  202720.031250 443289.781250 3.035088 
v  202720.500000 443288.562500 3.035088 
# 4 vertices

vt 0.0 0.001090 0.0
vt 0.000060 1.000000 0.0
vt 0.999782 0.0 0.0
vt 1.000000 0.998990 0.0
# 4 texture vertices

vn  0.0 0.0 -1.0 
# 1 normals

usemtl surface__18

o IndexedFaceSet__19_0
g IndexedFaceSet__19_0

s off
f 79/78/25 80/77/25 78/79/25
f 78/79/25 77/80/25 79/78/25
# 2 polygons

# Coordinates for object 'IndexedFaceSet #20'
v  202719.156250 443282.000000 14.354741 
v  202719.156250 443282.000000 16.876259 
v  202721.375000 443282.843750 14.356370 
v  202721.375000 443282.843750 16.876259 
# 4 vertices

vt 0.0 1.000000 0.0
vt 0.003385 0.001440 0.0
vt 0.996569 0.998253 0.0
vt 1.000000 0.0 0.0
# 4 texture vertices

vn  -0.355448 0.934696 0.0 
# 1 normals

usemtl surface__20

o IndexedFaceSet__20_0
g IndexedFaceSet__20_0

s off
f 84/83/26 83/81/26 82/84/26
f 81/82/26 82/84/26 83/81/26
# 2 polygons

# Coordinates for object 'IndexedFaceSet #21'
v  202721.750000 443275.156250 14.250635 
v  202721.750000 443275.156250 16.804020 
v  202723.968750 443276.000000 14.252264 
v  202723.968750 443276.000000 16.804018 
# 4 vertices

vt 0.0 1.000000 0.0
vt 0.003385 0.001440 0.0
vt 0.996569 0.998253 0.0
vt 1.000000 0.0 0.0
# 4 texture vertices

vn  0.355448 -0.934696 0.0 
# 1 normals

usemtl surface__20

o IndexedFaceSet__21_0
g IndexedFaceSet__21_0

s off
f 85/86/27 87/85/27 86/88/27
f 88/87/27 86/88/27 87/85/27
# 2 polygons

# Coordinates for object 'IndexedFaceSet #22'
v  202719.156250 443282.000000 14.354741 
v  202719.156250 443282.000000 16.876259 
v  202721.750000 443275.156250 14.250635 
v  202721.750000 443275.156250 16.804020 
# 4 vertices

vt 0.0 0.989186 0.0
vt 0.005026 0.001377 0.0
vt 0.994870 1.000000 0.0
vt 1.000000 0.0 0.0
# 4 texture vertices

vn  -0.935095 -0.354397 0.0 
# 1 normals

usemtl surface__21

o IndexedFaceSet__22_0
g IndexedFaceSet__22_0

s off
f 90/89/28 89/90/28 92/91/28
f 91/92/28 92/91/28 89/90/28
# 2 polygons

# Coordinates for object 'IndexedFaceSet #23'
v  202719.156250 443282.000000 16.876259 
v  202721.375000 443282.843750 16.876259 
v  202721.750000 443275.156250 16.804020 
v  202723.968750 443276.000000 16.804018 
# 4 vertices

vt 0.0 0.0 0.0
vt 0.0 1.000000 0.0
vt 0.499999 0.0 0.0
vt 0.500000 1.000000 0.0
# 4 texture vertices

vn  0.003508 -0.009226 0.999951 
# 1 normals

usemtl surface__22

o IndexedFaceSet__23_0
g IndexedFaceSet__23_0

s off
f 94/96/29 93/94/29 96/95/29
f 95/93/29 96/95/29 93/94/29
# 2 polygons

# Coordinates for object 'IndexedFaceSet #24'
v  202721.375000 443282.843750 14.356370 
v  202721.375000 443282.843750 16.876259 
v  202723.968750 443276.000000 14.252264 
v  202723.968750 443276.000000 16.804018 
# 4 vertices

vt 0.0 1.000000 0.0
vt 0.003385 0.001440 0.0
vt 0.996569 0.998253 0.0
vt 1.000000 0.0 0.0
# 4 texture vertices

vn  0.935095 0.354397 0.0 
# 1 normals

usemtl surface__20

o IndexedFaceSet__24_0
g IndexedFaceSet__24_0

s off
f 100/99/30 99/100/30 97/98/30
f 97/98/30 98/97/30 100/99/30
# 2 polygons
