# Converted by Daum Communications 
# Date/time of export: 08/22/2013 14:53:27
#
# Bounding box of geometry = (202601,443733,-0.678124) to (202616,443748,21.1547).

mtllib 3733544.mtl

# Coordinates for object 'IndexedFaceSet'
v  202601.109375 443741.562500 14.407351 
v  202604.546875 443733.062500 14.407351 
v  202611.937500 443748.187500 14.407356 
v  202614.906250 443735.875000 14.407356 
v  202615.578125 443738.843750 14.407356 
# 5 vertices

vt 0.0 0.136803 0.0
vt 0.090960 0.989628 0.0
vt 0.201228 0.0 0.0
vt 0.820833 1.000000 0.0
vt 1.000000 0.0 0.0
# 5 texture vertices

vn  0.0 0.0 1.0 
# 1 normals

usemtl surface

o IndexedFaceSet
g IndexedFaceSet

s off
f 1/4/1 2/2/1 5/3/1
f 5/3/1 3/5/1 1/4/1
f 5/3/1 2/2/1 4/1/1
# 3 polygons

# Coordinates for object 'IndexedFaceSet #1'
v  202604.546875 443733.062500 14.407351 
v  202604.625000 443733.093750 5.619113 
v  202614.906250 443735.875000 5.586147 
v  202614.906250 443735.875000 14.407356 
# 4 vertices

vt 0.0 0.997552 0.0
vt 0.003236 0.0 0.0
vt 0.999348 0.008815 0.0
vt 1.000000 1.000000 0.0
# 4 texture vertices

vn  0.261131 -0.965303 0.0 
vn  0.262009 -0.965065 -0.001102 
# 2 normals

usemtl surface__2

o IndexedFaceSet__1_0
g IndexedFaceSet__1_0

s off
f 9/6/3 6/7/3 7/8/3
f 7/8/2 8/9/2 9/6/2
# 2 polygons

# Coordinates for object 'IndexedFaceSet #2'
v  202614.906250 443735.875000 5.586147 
v  202614.906250 443735.875000 14.407356 
v  202615.578125 443738.843750 14.407356 
v  202615.625000 443738.843750 5.580175 
# 4 vertices

vt 0.0 0.0 0.0
vt 0.000760 0.993197 0.0
vt 0.999905 0.005374 0.0
vt 1.000000 1.000000 0.0
# 4 texture vertices

vn  0.971910 -0.235294 0.005161 
vn  0.975334 -0.220734 0.0 
# 2 normals

usemtl surface__3

o IndexedFaceSet__2_0
g IndexedFaceSet__2_0

s off
f 12/11/5 11/10/5 10/12/5
f 10/12/4 13/13/4 12/11/4
# 2 polygons

# Coordinates for object 'IndexedFaceSet #3'
v  202601.109375 443741.562500 -0.655774 
v  202601.109375 443741.562500 14.407351 
v  202604.546875 443733.062500 -0.655774 
v  202604.546875 443733.062500 14.407351 
# 4 vertices

vt 0.0 0.0 0.0
vt 0.000056 0.999940 0.0
vt 0.999941 0.000072 0.0
vt 1.000000 1.000000 0.0
# 4 texture vertices

vn  -0.927060 -0.374914 0.0 
# 1 normals

usemtl surface__4

o IndexedFaceSet__3_0
g IndexedFaceSet__3_0

s off
f 14/14/6 16/15/6 17/17/6
f 17/17/6 15/16/6 14/14/6
# 2 polygons

# Coordinates for object 'IndexedFaceSet #4'
v  202601.109375 443741.562500 -0.655774 
v  202601.109375 443741.562500 14.407351 
v  202611.937500 443748.187500 -0.655774 
v  202611.937500 443748.187500 14.407356 
# 4 vertices

vt 0.0 0.0 0.0
vt 0.000056 0.999940 0.0
vt 0.999941 0.000072 0.0
vt 1.000000 1.000000 0.0
# 4 texture vertices

vn  -0.521898 0.853008 0.0 
# 1 normals

usemtl surface__4

o IndexedFaceSet__4_0
g IndexedFaceSet__4_0

s off
f 19/21/7 21/20/7 18/19/7
f 20/18/7 18/19/7 21/20/7
# 2 polygons

# Coordinates for object 'IndexedFaceSet #5'
v  202611.937500 443748.187500 -0.655774 
v  202611.937500 443748.187500 14.407356 
v  202613.000000 443745.593750 -0.655774 
v  202613.437500 443744.437500 4.375089 
v  202613.625000 443743.968750 5.188519 
v  202613.875000 443743.343750 5.415235 
v  202615.578125 443738.843750 14.407356 
v  202615.625000 443738.843750 5.580175 
# 8 vertices

vt 0.0 1.000000 0.0
vt 0.003199 0.001472 0.0
vt 0.586864 0.0 0.0
vt 0.597464 0.479845 0.0
vt 0.612452 0.547146 0.0
vt 0.666374 0.596395 0.0
vt 0.999997 0.995435 0.0
vt 1.000000 0.718464 0.0
# 8 texture vertices

vn  0.925349 0.379059 0.006648 
vn  0.928477 0.371391 0.0 
vn  0.931758 0.363043 0.005204 
vn  0.931932 0.362599 0.004949 
# 4 normals

usemtl surface__5

o IndexedFaceSet__5_0
g IndexedFaceSet__5_0

s off
f 28/23/11 29/24/11 27/25/11
f 23/22/9 27/25/9 26/26/9
f 27/25/10 23/22/10 28/23/10
f 25/27/9 22/28/9 23/22/9
f 24/29/8 22/28/8 25/27/8
f 25/27/9 23/22/9 26/26/9
# 6 polygons

# Coordinates for object 'IndexedFaceSet #6'
v  202608.453125 443735.156250 14.115393 
v  202608.453125 443735.156250 21.154716 
v  202609.843750 443736.500000 14.115395 
v  202609.843750 443736.500000 21.154718 
v  202610.984375 443737.843750 14.115396 
v  202610.984375 443737.843750 21.154720 
v  202611.875000 443739.281250 14.115397 
v  202611.875000 443739.281250 21.154720 
v  202612.703125 443740.906250 14.115398 
v  202612.703125 443740.906250 21.154722 
v  202613.687500 443743.625000 14.115398 
v  202613.687500 443743.625000 21.154724 
# 12 vertices

vt 0.0 0.0 0.0
vt 0.000040 0.899577 0.0
vt 0.170939 0.024286 0.0
vt 0.170959 0.940041 0.0
vt 0.340503 0.970524 0.0
vt 0.340509 0.042580 0.0
vt 0.509783 0.053191 0.0
vt 0.509814 0.988211 0.0
vt 0.700156 0.060235 0.0
vt 0.700188 1.000000 0.0
vt 0.999968 0.060081 0.0
vt 1.000000 0.999842 0.0
# 12 texture vertices

vn  0.694883 -0.719123 0.0 
vn  0.762377 -0.647134 0.0 
vn  0.850068 -0.526673 0.0 
vn  0.890974 -0.454054 0.0 
vn  0.940266 -0.340441 0.0 
# 5 normals

usemtl surface__6

o IndexedFaceSet__6_0
g IndexedFaceSet__6_0

s off
f 34/35/13 35/34/13 33/33/13
f 36/36/14 37/37/14 35/34/14
f 38/38/16 41/41/16 39/39/16
f 37/37/15 38/38/15 39/39/15
f 32/32/12 33/33/12 31/31/12
f 32/32/13 34/35/13 33/33/13
f 30/30/12 32/32/12 31/31/12
f 38/38/16 40/40/16 41/41/16
f 36/36/15 38/38/15 37/37/15
f 34/35/14 36/36/14 35/34/14
# 10 polygons

# Coordinates for object 'IndexedFaceSet #7'
v  202607.953125 443735.468750 14.115396 
v  202607.953125 443735.468750 21.154720 
v  202609.343750 443736.812500 14.115397 
v  202609.343750 443736.812500 21.154720 
v  202610.484375 443738.187500 14.115397 
v  202610.484375 443738.187500 21.154722 
v  202611.375000 443739.593750 14.115399 
v  202611.375000 443739.593750 21.154722 
v  202612.203125 443741.218750 14.115400 
v  202612.203125 443741.218750 21.154724 
v  202613.171875 443743.937500 14.115402 
v  202613.171875 443743.937500 21.154726 
# 12 vertices

vt 0.0 0.0 0.0
vt 0.0 1.000000 0.0
vt 0.147854 0.0 0.0
vt 0.147855 1.000000 0.0
vt 0.241237 0.0 0.0
vt 0.241237 1.000000 0.0
vt 0.325039 0.0 0.0
vt 0.325040 0.999999 0.0
vt 0.410659 0.0 0.0
vt 0.410659 0.999999 0.0
vt 0.500000 0.0 0.0
vt 0.500000 0.999998 0.0
# 12 texture vertices

vn  -0.941987 0.335650 0.0 
vn  -0.890974 0.454054 0.0 
vn  -0.844819 0.535052 0.0 
vn  -0.769653 0.638462 0.0 
vn  -0.694883 0.719123 0.0 
# 5 normals

usemtl surface__7

o IndexedFaceSet__7_0
g IndexedFaceSet__7_0

s off
f 51/45/18 50/44/18 49/47/18
f 47/49/19 49/47/19 48/46/19
f 45/51/21 44/50/21 43/53/21
f 47/49/20 44/50/20 45/51/20
f 53/43/17 50/44/17 51/45/17
f 50/44/18 48/46/18 49/47/18
f 52/42/17 50/44/17 53/43/17
f 44/50/21 42/52/21 43/53/21
f 44/50/20 47/49/20 46/48/20
f 46/48/19 47/49/19 48/46/19
# 10 polygons

# Coordinates for object 'IndexedFaceSet #8'
v  202611.718750 443745.375000 -0.655776 
v  202612.187500 443744.187500 4.375086 
v  202612.375000 443743.718750 5.188518 
v  202612.593750 443743.125000 5.415234 
v  202614.125000 443739.187500 -0.678124 
v  202614.187500 443739.031250 5.580174 
# 6 vertices

vt 0.0 0.000026 0.0
vt 0.041939 0.659774 0.0
vt 0.079696 0.753361 0.0
vt 0.208795 0.829027 0.0
vt 0.979024 0.0 0.0
vt 1.000000 1.000000 0.0
# 6 texture vertices

vn  0.931874 0.362781 -0.000249 
vn  0.932002 0.362450 -0.001285 
vn  0.933258 0.359198 0.002414 
vn  0.940807 0.338232 -0.021951 
# 4 normals

usemtl surface__8

o IndexedFaceSet__8_0
g IndexedFaceSet__8_0

s off
f 57/55/25 55/57/25 56/56/25
f 58/58/22 57/55/22 59/54/22
f 55/57/23 58/58/23 54/59/23
f 58/58/24 55/57/24 57/55/24
# 4 polygons

# Coordinates for object 'IndexedFaceSet #9'
v  202609.343750 443736.812500 21.154720 
v  202609.843750 443736.500000 21.154718 
v  202610.484375 443738.187500 21.154722 
v  202610.984375 443737.843750 21.154720 
# 4 vertices

vt 0.0 1.000000 0.0
vt 0.020219 0.0 0.0
vt 0.479781 1.000000 0.0
vt 0.500000 0.0 0.0
# 4 texture vertices

vn  0.000002 -0.000003 1.0 
# 1 normals

usemtl surface__7

o IndexedFaceSet__9_0
g IndexedFaceSet__9_0

s off
f 60/63/26 61/62/26 62/61/26
f 63/60/26 62/61/26 61/62/26
# 2 polygons

# Coordinates for object 'IndexedFaceSet #10'
v  202610.484375 443738.187500 21.154722 
v  202610.984375 443737.843750 21.154720 
v  202611.375000 443739.593750 21.154722 
v  202611.875000 443739.281250 21.154720 
# 4 vertices

vt 0.0 0.0 0.0
vt 0.002993 1.000000 0.0
vt 0.497006 0.0 0.0
vt 0.499999 1.000000 0.0
# 4 texture vertices

vn  0.000003 -0.000002 1.0 
# 1 normals

usemtl surface__7

o IndexedFaceSet__10_0
g IndexedFaceSet__10_0

s off
f 64/66/27 65/67/27 67/65/27
f 67/65/27 66/64/27 64/66/27
# 2 polygons

# Coordinates for object 'IndexedFaceSet #11'
v  202611.375000 443739.593750 21.154722 
v  202611.875000 443739.281250 21.154720 
v  202612.203125 443741.218750 21.154724 
v  202612.703125 443740.906250 21.154722 
# 4 vertices

vt 0.0 0.0 0.0
vt 0.016148 0.999997 0.0
vt 0.483852 0.0 0.0
vt 0.500000 1.000000 0.0
# 4 texture vertices

vn  0.000002 -0.000002 1.0 
# 1 normals

usemtl surface__7

o IndexedFaceSet__11_0
g IndexedFaceSet__11_0

s off
f 68/70/28 69/71/28 71/69/28
f 71/69/28 70/68/28 68/70/28
# 2 polygons

# Coordinates for object 'IndexedFaceSet #12'
v  202611.718750 443745.375000 -0.655776 
v  202612.187500 443744.187500 4.375086 
v  202612.953125 443745.593750 -0.655774 
v  202613.406250 443744.437500 4.375088 
# 4 vertices

vt 0.0 1.000000 0.0
vt 0.303385 0.0 0.0
vt 0.696615 1.000000 0.0
vt 1.000000 0.0 0.0
# 4 texture vertices

vn  0.169339 -0.955554 -0.241330 
vn  0.195251 -0.951848 -0.236351 
# 2 normals

usemtl surface

o IndexedFaceSet__12_0
g IndexedFaceSet__12_0

s off
f 75/74/30 73/72/30 74/75/30
f 72/73/29 74/75/29 73/72/29
# 2 polygons

# Coordinates for object 'IndexedFaceSet #13'
v  202612.187500 443744.187500 4.375086 
v  202612.375000 443743.718750 5.188518 
v  202613.406250 443744.437500 4.375088 
v  202613.578125 443743.968750 5.188519 
# 4 vertices

vt 0.0 1.000000 0.0
vt 0.148558 0.0 0.0
vt 0.851442 1.000000 0.0
vt 1.000000 0.0 0.0
# 4 texture vertices

vn  0.171485 -0.835983 -0.521273 
vn  0.173900 -0.836890 -0.519013 
# 2 normals

usemtl surface

o IndexedFaceSet__13_0
g IndexedFaceSet__13_0

s off
f 78/79/32 79/78/32 77/76/32
f 77/76/31 76/77/31 78/79/31
# 2 polygons

# Coordinates for object 'IndexedFaceSet #14'
v  202612.375000 443743.718750 5.188518 
v  202612.593750 443743.125000 5.415234 
v  202613.578125 443743.968750 5.188519 
v  202613.828125 443743.343750 5.415236 
# 4 vertices

vt 0.0 1.000000 0.0
vt 0.192250 0.0 0.0
vt 0.807750 1.000000 0.0
vt 1.000000 0.0 0.0
# 4 texture vertices

vn  0.056765 -0.320311 -0.945610 
vn  0.069295 -0.333477 -0.940208 
# 2 normals

usemtl surface

o IndexedFaceSet__14_0
g IndexedFaceSet__14_0

s off
f 82/83/33 83/82/33 81/80/33
f 81/80/34 80/81/34 82/83/34
# 2 polygons

# Coordinates for object 'IndexedFaceSet #15'
v  202612.593750 443743.125000 5.415234 
v  202613.828125 443743.343750 5.415236 
v  202614.187500 443739.031250 5.580174 
v  202615.578125 443738.843750 5.580175 
# 4 vertices

vt 0.0 1.000000 0.0
vt 0.370551 1.000000 0.0
vt 0.629449 0.0 0.0
vt 1.000000 0.0 0.0
# 4 texture vertices

vn  -0.005211 -0.038652 -0.999239 
vn  0.006676 -0.037662 -0.999268 
# 2 normals

usemtl surface

o IndexedFaceSet__15_0
g IndexedFaceSet__15_0

s off
f 85/87/35 87/85/35 86/84/35
f 86/84/36 84/86/36 85/87/36
# 2 polygons

# Coordinates for object 'IndexedFaceSet #16'
v  202613.500000 443736.062500 5.586143 
v  202614.187500 443739.031250 5.580174 
v  202614.906250 443735.875000 5.586147 
v  202615.578125 443738.843750 5.580175 
# 4 vertices

vt 0.0 0.0 0.0
vt 0.140371 1.000000 0.0
vt 0.859631 0.0 0.0
vt 1.000000 0.999999 0.0
# 4 texture vertices

vn  -0.000263 -0.001952 -0.999998 
# 1 normals

usemtl surface

o IndexedFaceSet__16_0
g IndexedFaceSet__16_0

s off
f 89/88/37 91/90/37 90/91/37
f 90/91/37 88/89/37 89/88/37
# 2 polygons

# Coordinates for object 'IndexedFaceSet #17'
v  202604.593750 443733.656250 5.619114 
v  202604.625000 443733.093750 5.619113 
v  202613.500000 443736.062500 5.586143 
v  202614.906250 443735.875000 5.586147 
# 4 vertices

vt 0.0 0.0 0.0
vt 0.142913 0.0 0.0
vt 0.988421 0.999999 0.0
vt 1.000000 0.867131 0.0
# 4 texture vertices

vn  -0.003648 -0.000201 -0.999993 
vn  -0.001057 -0.007946 -0.999968 
# 2 normals

usemtl surface

o IndexedFaceSet__17_0
g IndexedFaceSet__17_0

s off
f 94/92/39 95/93/39 93/95/39
f 93/95/38 92/94/38 94/92/38
# 2 polygons

# Coordinates for object 'IndexedFaceSet #18'
v  202604.531250 443733.625000 -0.655774 
v  202604.546875 443733.062500 -0.655774 
v  202604.593750 443733.656250 5.619114 
v  202604.625000 443733.093750 5.619113 
# 4 vertices

vt 0.0 1.000000 0.0
vt 0.024268 0.0 0.0
vt 0.975721 1.000000 0.0
vt 0.999988 0.0 0.0
# 4 texture vertices

vn  0.998408 0.055467 -0.010221 
vn  0.999535 0.027765 -0.012583 
# 2 normals

usemtl surface

o IndexedFaceSet__18_0
g IndexedFaceSet__18_0

s off
f 98/98/40 99/96/40 96/99/40
f 97/97/41 96/99/41 99/96/41
# 2 polygons

# Coordinates for object 'IndexedFaceSet #19'
v  202612.203125 443741.218750 21.154724 
v  202612.703125 443740.906250 21.154722 
v  202613.171875 443743.937500 21.154726 
v  202613.687500 443743.625000 21.154724 
# 4 vertices

vt 0.0 1.000000 0.0
vt 0.239013 1.000000 0.0
vt 0.260987 0.0 0.0
vt 0.500001 0.0 0.0
# 4 texture vertices

vn  0.000003 -0.000002 1.0 
# 1 normals

usemtl surface__7

o IndexedFaceSet__19_0
g IndexedFaceSet__19_0

s off
f 100/101/42 101/100/42 103/102/42
f 103/102/42 102/103/42 100/101/42
# 2 polygons

# Coordinates for object 'IndexedFaceSet #20'
v  202613.171875 443743.937500 14.115402 
v  202613.171875 443743.937500 21.154726 
v  202613.687500 443743.625000 14.115398 
v  202613.687500 443743.625000 21.154724 
# 4 vertices

vt 0.0 1.000000 0.0
vt 0.0 0.001168 0.0
vt 0.999978 0.999869 0.0
vt 1.000000 0.0 0.0
# 4 texture vertices

vn  0.518302 0.855198 0.0 
# 1 normals

usemtl surface__9

o IndexedFaceSet__20_0
g IndexedFaceSet__20_0

s off
f 105/104/43 107/105/43 106/107/43
f 106/107/43 104/106/43 105/104/43
# 2 polygons

# Coordinates for object 'IndexedFaceSet #21'
v  202612.953125 443745.593750 -0.655774 
v  202613.000000 443745.593750 -0.655774 
v  202613.406250 443744.437500 4.375088 
v  202613.437500 443744.437500 4.375089 
# 4 vertices

vt 0.0 0.001131 0.0
vt 0.000941 1.000000 0.0
vt 0.999056 0.0 0.0
vt 1.000000 0.998169 0.0
# 4 texture vertices

vn  -0.000007 0.974591 0.223992 
# 1 normals

usemtl surface__10

o IndexedFaceSet__21_0
g IndexedFaceSet__21_0

s off
f 110/109/44 111/108/44 109/110/44
f 109/110/44 108/111/44 110/109/44
# 2 polygons

# Coordinates for object 'IndexedFaceSet #22'
v  202613.406250 443744.437500 4.375088 
v  202613.437500 443744.437500 4.375089 
v  202613.578125 443743.968750 5.188519 
v  202613.625000 443743.968750 5.188519 
# 4 vertices

vt 0.0 0.999921 0.0
vt 0.145986 1.000000 0.0
vt 0.855125 0.0 0.0
vt 1.000000 0.000053 0.0
# 4 texture vertices

vn  -0.000015 0.866432 0.499296 
vn  0.0 0.866433 0.499294 
# 2 normals

usemtl surface__11

o IndexedFaceSet__22_0
g IndexedFaceSet__22_0

s off
f 114/114/46 115/115/46 113/113/46
f 113/113/45 112/112/45 114/114/45
# 2 polygons

# Coordinates for object 'IndexedFaceSet #23'
v  202613.578125 443743.968750 5.188519 
v  202613.625000 443743.968750 5.188519 
v  202613.828125 443743.343750 5.415236 
v  202613.875000 443743.343750 5.415235 
# 4 vertices

vt 0.0 0.999944 0.0
vt 0.110517 1.000000 0.0
vt 0.891815 0.000373 0.0
vt 1.000000 0.0 0.0
# 4 texture vertices

vn  0.0 0.341005 0.940062 
vn  0.000019 0.341010 0.940060 
# 2 normals

usemtl surface__12

o IndexedFaceSet__23_0
g IndexedFaceSet__23_0

s off
f 118/117/48 119/116/48 117/118/48
f 117/118/47 116/119/47 118/117/47
# 2 polygons

# Coordinates for object 'IndexedFaceSet #24'
v  202613.828125 443743.343750 5.415236 
v  202613.875000 443743.343750 5.415235 
v  202615.578125 443738.843750 5.580175 
v  202615.625000 443738.843750 5.580175 
# 4 vertices

vt 0.0 0.999984 0.0
vt 0.017055 1.000000 0.0
vt 0.982854 0.0 0.0
vt 1.000000 0.0 0.0
# 4 texture vertices

vn  0.0 0.036629 0.999329 
vn  0.000020 0.036636 0.999329 
# 2 normals

usemtl surface__13

o IndexedFaceSet__24_0
g IndexedFaceSet__24_0

s off
f 121/122/50 120/123/50 122/121/50
f 122/121/49 123/120/49 121/122/49
# 2 polygons

# Coordinates for object 'IndexedFaceSet #25'
v  202614.906250 443735.875000 5.586147 
v  202614.937500 443735.843750 5.586146 
v  202615.578125 443738.843750 5.580175 
v  202615.625000 443738.843750 5.580175 
# 4 vertices

vt 0.0 0.0 0.0
vt 0.153453 0.0 0.0
vt 0.844335 1.000000 0.0
vt 1.000000 0.999896 0.0
# 4 texture vertices

vn  0.0 0.001990 0.999998 
vn  0.001665 0.001635 0.999997 
# 2 normals

usemtl surface__14

o IndexedFaceSet__25_0
g IndexedFaceSet__25_0

s off
f 124/127/52 125/126/52 126/125/52
f 127/124/51 126/125/51 125/126/51
# 2 polygons

# Coordinates for object 'IndexedFaceSet #26'
v  202604.625000 443733.093750 5.619113 
v  202604.656250 443733.062500 5.619113 
v  202614.906250 443735.875000 5.586147 
v  202614.937500 443735.843750 5.586146 
# 4 vertices

vt 0.0 0.000094 0.0
vt 0.004267 0.0 0.0
vt 0.995769 1.000000 0.0
vt 1.000000 0.999965 0.0
# 4 texture vertices

vn  0.002524 0.002524 0.999994 
vn  0.002530 0.002500 0.999994 
# 2 normals

usemtl surface__15

o IndexedFaceSet__26_0
g IndexedFaceSet__26_0

s off
f 128/131/53 129/130/53 130/129/53
f 131/128/54 130/129/54 129/130/54
# 2 polygons

# Coordinates for object 'IndexedFaceSet #27'
v  202604.546875 443733.062500 -0.655774 
v  202604.593750 443733.062500 -0.655775 
v  202604.625000 443733.093750 5.619113 
v  202604.656250 443733.062500 5.619113 
# 4 vertices

vt 0.0 0.596592 0.0
vt 0.0 1.000000 0.0
vt 0.999996 0.0 0.0
vt 1.000000 0.402886 0.0
# 4 texture vertices

vn  -0.707089 -0.707089 0.007043 
vn  0.0 -0.999988 0.004980 
# 2 normals

usemtl surface__16

o IndexedFaceSet__27_0
g IndexedFaceSet__27_0

s off
f 135/133/55 134/132/55 133/135/55
f 132/134/56 133/135/56 134/132/56
# 2 polygons

# Coordinates for object 'IndexedFaceSet #28'
v  202607.953125 443735.468750 14.115396 
v  202607.953125 443735.468750 21.154720 
v  202608.453125 443735.156250 14.115393 
v  202608.453125 443735.156250 21.154716 
# 4 vertices

vt 0.0 1.000000 0.0
vt 0.000078 0.000311 0.0
vt 0.999953 0.998718 0.0
vt 1.000000 0.0 0.0
# 4 texture vertices

vn  -0.529999 -0.847998 0.0 
# 1 normals

usemtl surface__17

o IndexedFaceSet__28_0
g IndexedFaceSet__28_0

s off
f 139/137/57 137/136/57 138/139/57
f 136/138/57 138/139/57 137/136/57
# 2 polygons

# Coordinates for object 'IndexedFaceSet #29'
v  202607.953125 443735.468750 21.154720 
v  202608.453125 443735.156250 21.154716 
v  202609.343750 443736.812500 21.154720 
v  202609.843750 443736.500000 21.154718 
# 4 vertices

vt 0.0 0.999997 0.0
vt 0.032037 0.0 0.0
vt 0.467965 0.999986 0.0
vt 0.500001 0.0 0.0
# 4 texture vertices

vn  0.000005 -0.000005 1.0 
# 1 normals

usemtl surface__7

o IndexedFaceSet__29_0
g IndexedFaceSet__29_0

s off
f 140/143/58 141/142/58 142/141/58
f 143/140/58 142/141/58 141/142/58
# 2 polygons

# Coordinates for object 'IndexedFaceSet #30'
v  202604.531250 443733.625000 -0.655774 
v  202604.593750 443733.656250 5.619114 
v  202613.390625 443736.218750 -0.655771 
v  202613.500000 443736.062500 5.586143 
# 4 vertices

vt 0.0 1.000000 0.0
vt 0.017349 0.000056 0.0
vt 0.989296 0.973756 0.0
vt 1.000000 0.0 0.0
# 4 texture vertices

vn  0.260617 -0.965015 -0.028723 
vn  0.280974 -0.959713 0.001981 
# 2 normals

usemtl surface__18

o IndexedFaceSet__30_0
g IndexedFaceSet__30_0

s off
f 147/147/59 145/146/59 146/145/59
f 144/144/60 146/145/60 145/146/60
# 2 polygons

# Coordinates for object 'IndexedFaceSet #31'
v  202613.390625 443736.218750 -0.655771 
v  202613.500000 443736.062500 5.586143 
v  202614.125000 443739.187500 -0.678124 
v  202614.187500 443739.031250 5.580174 
# 4 vertices

vt 0.0 0.000159 0.0
vt 0.010143 0.996396 0.0
vt 0.987013 0.0 0.0
vt 1.000000 1.000000 0.0
# 4 texture vertices

vn  0.970594 -0.240212 -0.015690 
vn  0.973957 -0.225594 -0.022713 
# 2 normals

usemtl surface__19

o IndexedFaceSet__31_0
g IndexedFaceSet__31_0

s off
f 151/149/62 149/148/62 148/150/62
f 148/150/61 150/151/61 151/149/61
# 2 polygons
