# Converted by Daum Communications 
# Date/time of export: 08/22/2013 14:53:33
#
# Bounding box of geometry = (203052,443467,-0.279786) to (203070,443482,19.367).

mtllib 3741778.mtl

# Coordinates for object 'IndexedFaceSet'
v  203052.078125 443476.031250 19.367008 
v  203055.921875 443466.687500 19.367020 
v  203059.609375 443468.656250 19.367018 
v  203059.765625 443468.250000 19.367018 
v  203065.968750 443471.250000 19.367016 
v  203066.125000 443470.875000 19.367014 
v  203066.156250 443481.781250 19.367010 
v  203069.968750 443472.437500 19.367016 
# 8 vertices

vt -1.000000 2.000000 0.0
vt -0.998548 1.000000 0.0
vt -0.725328 1.041095 0.0
vt -0.725327 1.000000 0.0
vt -0.273464 1.000899 0.0
vt -0.273464 1.041095 0.0
vt 0.0 1.000899 0.0
vt 0.0 2.000000 0.0
# 8 texture vertices

vn  0.0 0.0 1.0 
# 1 normals

usemtl surface

o IndexedFaceSet
g IndexedFaceSet

s off
f 1/1/1 3/3/1 7/8/1
f 3/3/1 1/1/1 2/2/1
f 7/8/1 5/6/1 8/7/1
f 5/6/1 7/8/1 3/3/1
f 6/5/1 8/7/1 5/6/1
f 4/4/1 3/3/1 2/2/1
# 6 polygons

# Coordinates for object 'IndexedFaceSet #1'
v  203052.078125 443476.031250 -0.279786 
v  203052.078125 443476.031250 19.367008 
v  203066.156250 443481.781250 -0.279785 
v  203066.156250 443481.781250 19.367010 
# 4 vertices

vt 0.0 0.000018 0.0
vt 0.0 1.000000 0.0
vt 1.000000 0.0 0.0
vt 1.000000 0.999982 0.0
# 4 texture vertices

vn  -0.378113 0.925760 0.0 
# 1 normals

usemtl surface__2

o IndexedFaceSet__1_0
g IndexedFaceSet__1_0

s off
f 11/12/2 9/11/2 10/9/2
f 10/9/2 12/10/2 11/12/2
# 2 polygons

# Coordinates for object 'IndexedFaceSet #2'
v  203066.156250 443481.781250 -0.279785 
v  203066.156250 443481.781250 19.367010 
v  203069.968750 443472.437500 -0.279781 
v  203069.968750 443472.437500 19.367016 
# 4 vertices

vt 0.0 1.000000 0.0
vt 0.000216 0.000132 0.0
vt 0.999945 0.999827 0.0
vt 1.000000 0.0 0.0
# 4 texture vertices

vn  0.925892 0.377789 0.0 
# 1 normals

usemtl surface__3

o IndexedFaceSet__2_0
g IndexedFaceSet__2_0

s off
f 14/13/3 16/14/3 15/16/3
f 15/16/3 13/15/3 14/13/3
# 2 polygons

# Coordinates for object 'IndexedFaceSet #3'
v  203065.968750 443471.250000 -0.279780 
v  203065.968750 443471.250000 19.367016 
v  203066.125000 443470.875000 -0.279780 
v  203066.125000 443470.875000 19.367014 
# 4 vertices

vt 0.0 1.000000 0.0
vt 0.0 0.000436 0.0
vt 0.999999 0.0 0.0
vt 1.000000 0.999561 0.0
# 4 texture vertices

vn  -0.923077 -0.384615 0.0 
# 1 normals

usemtl surface__4

o IndexedFaceSet__3_0
g IndexedFaceSet__3_0

s off
f 20/17/4 18/18/4 19/20/4
f 17/19/4 19/20/4 18/18/4
# 2 polygons

# Coordinates for object 'IndexedFaceSet #4'
v  203059.609375 443468.656250 -0.279779 
v  203059.609375 443468.656250 19.367018 
v  203065.968750 443471.250000 -0.279780 
v  203065.968750 443471.250000 19.367016 
# 4 vertices

vt 0.0 1.000000 0.0
vt 0.0 0.000178 0.0
vt 0.999999 0.999811 0.0
vt 1.000000 0.0 0.0
# 4 texture vertices

vn  0.377658 -0.925945 0.0 
# 1 normals

usemtl surface__5

o IndexedFaceSet__4_0
g IndexedFaceSet__4_0

s off
f 24/21/5 22/22/5 21/24/5
f 21/24/5 23/23/5 24/21/5
# 2 polygons

# Coordinates for object 'IndexedFaceSet #5'
v  203059.609375 443468.656250 -0.279779 
v  203059.609375 443468.656250 19.367018 
v  203059.765625 443468.250000 -0.279778 
v  203059.765625 443468.250000 19.367018 
# 4 vertices

vt 0.0 1.000000 0.0
vt 0.0 0.001162 0.0
vt 0.999999 0.998828 0.0
vt 1.000000 0.0 0.0
# 4 texture vertices

vn  0.933346 0.358979 0.0 
# 1 normals

usemtl surface__6

o IndexedFaceSet__5_0
g IndexedFaceSet__5_0

s off
f 26/25/6 28/26/6 27/28/6
f 27/28/6 25/27/6 26/25/6
# 2 polygons

# Coordinates for object 'IndexedFaceSet #6'
v  203055.921875 443466.687500 -0.279776 
v  203055.921875 443466.687500 19.367020 
v  203059.765625 443468.250000 -0.279778 
v  203059.765625 443468.250000 19.367018 
# 4 vertices

vt 0.0 1.000000 0.0
vt 0.0 0.000061 0.0
vt 0.999998 0.999936 0.0
vt 1.000000 0.0 0.0
# 4 texture vertices

vn  0.376579 -0.926385 0.0 
# 1 normals

usemtl surface__7

o IndexedFaceSet__6_0
g IndexedFaceSet__6_0

s off
f 32/29/7 30/30/7 29/32/7
f 29/32/7 31/31/7 32/29/7
# 2 polygons

# Coordinates for object 'IndexedFaceSet #7'
v  203052.078125 443476.031250 -0.279786 
v  203052.078125 443476.031250 19.367008 
v  203055.921875 443466.687500 -0.279776 
v  203055.921875 443466.687500 19.367020 
# 4 vertices

vt 0.0 0.000033 0.0
vt 0.000057 1.000000 0.0
vt 0.999920 0.0 0.0
vt 1.000000 0.999973 0.0
# 4 texture vertices

vn  -0.924806 -0.380439 0.0 
# 1 normals

usemtl surface__8

o IndexedFaceSet__7_0
g IndexedFaceSet__7_0

s off
f 36/34/8 34/33/8 35/36/8
f 33/35/8 35/36/8 34/33/8
# 2 polygons

# Coordinates for object 'IndexedFaceSet #8'
v  203065.718750 443471.875000 -0.279781 
v  203065.718750 443471.875000 2.388403 
v  203068.953125 443473.187500 -0.279780 
v  203068.953125 443473.187500 2.387718 
# 4 vertices

vt 0.0 0.0 0.0
vt 0.000223 1.000000 0.0
vt 0.999967 1.000000 0.0
vt 1.000000 0.0 0.0
# 4 texture vertices

vn  0.376017 -0.926613 0.0 
# 1 normals

usemtl surface__9

o IndexedFaceSet__8_0
g IndexedFaceSet__8_0

s off
f 40/38/9 38/37/9 37/40/9
f 37/40/9 39/39/9 40/38/9
# 2 polygons

# Coordinates for object 'IndexedFaceSet #9'
v  203068.953125 443473.187500 -0.279780 
v  203068.953125 443473.187500 2.387718 
v  203069.359375 443472.187500 -0.279780 
v  203069.359375 443472.187500 2.387718 
# 4 vertices

vt 0.0 0.000164 0.0
vt 0.000057 1.000000 0.0
vt 0.999932 0.0 0.0
vt 1.000000 0.999841 0.0
# 4 texture vertices

vn  -0.926467 -0.376377 0.0 
# 1 normals

usemtl surface__10

o IndexedFaceSet__9_0
g IndexedFaceSet__9_0

s off
f 44/42/10 42/41/10 41/43/10
f 41/43/10 43/44/10 44/42/10
# 2 polygons

# Coordinates for object 'IndexedFaceSet #10'
v  203065.718750 443471.875000 2.388403 
v  203066.125000 443470.875000 2.388402 
v  203068.953125 443473.187500 2.387718 
v  203069.359375 443472.187500 2.387718 
# 4 vertices

vt 0.0 0.000032 0.0
vt 0.000095 1.000000 0.0
vt 0.999903 0.0 0.0
vt 1.000000 0.999969 0.0
# 4 texture vertices

vn  -0.000182 -0.000073 -1.0 
# 1 normals

usemtl surface__11

o IndexedFaceSet__10_0
g IndexedFaceSet__10_0

s off
f 48/46/11 46/48/11 45/47/11
f 45/47/11 47/45/11 48/46/11
# 2 polygons

# Coordinates for object 'IndexedFaceSet #11'
v  203065.718750 443471.875000 -0.279781 
v  203065.718750 443471.875000 2.388403 
v  203066.125000 443470.875000 -0.279780 
v  203066.125000 443470.875000 2.388402 
# 4 vertices

vt 0.0 1.000000 0.0
vt 0.000079 0.000374 0.0
vt 0.999883 0.999621 0.0
vt 1.000000 0.0 0.0
# 4 texture vertices

vn  0.926467 0.376377 0.0 
# 1 normals

usemtl surface__12

o IndexedFaceSet__11_0
g IndexedFaceSet__11_0

s off
f 50/52/12 52/51/12 51/49/12
f 51/49/12 49/50/12 50/52/12
# 2 polygons

# Coordinates for object 'IndexedFaceSet #12'
v  203066.125000 443470.875000 2.388402 
v  203066.125000 443470.875000 19.367014 
v  203069.359375 443472.187500 -0.279780 
v  203069.359375 443472.187500 2.387718 
v  203069.968750 443472.437500 -0.279781 
v  203069.968750 443472.437500 19.367016 
# 6 vertices

vt 0.0 0.000015 0.0
vt 0.0 1.000000 0.0
vt 0.864192 0.0 0.0
vt 0.864227 0.840679 0.0
vt 1.000000 0.840677 0.0
vt 1.000000 0.999982 0.0
# 6 texture vertices

vn  0.376017 -0.926613 0.0 
vn  0.376579 -0.926384 0.000125 
vn  0.379556 -0.925169 0.0 
# 3 normals

usemtl surface__13

o IndexedFaceSet__12_0
g IndexedFaceSet__12_0

s off
f 58/54/14 54/53/14 56/56/14
f 56/56/13 54/53/13 53/55/13
f 56/56/15 55/57/15 57/58/15
f 56/56/15 57/58/15 58/54/15
# 4 polygons
