# Converted by Daum Communications 
# Date/time of export: 08/22/2013 14:53:31
#
# Bounding box of geometry = (203583,443609,-1.28697) to (203613,443630,24.1161).

mtllib 3741698.mtl

# Coordinates for object 'IndexedFaceSet'
v  203584.078125 443623.843750 24.116138 
v  203594.500000 443611.156250 24.106834 
v  203600.203125 443629.687500 24.116140 
v  203606.781250 443626.656250 24.116137 
v  203613.281250 443608.937500 24.116135 
# 5 vertices

vt 0.0 0.0 0.0
vt 0.190123 0.836699 0.0
vt 0.406930 1.000000 0.0
vt 0.546293 0.0 0.0
vt 1.000000 0.678185 0.0
# 5 texture vertices

vn  -0.000518 -0.000190 1.000000 
vn  -0.000202 -0.000440 1.000000 
vn  0.000205 -0.000565 1.000000 
# 3 normals

usemtl surface

o IndexedFaceSet
g IndexedFaceSet

s off
f 2/4/1 5/5/1 4/3/1
f 2/4/3 3/2/3 1/1/3
f 3/2/2 2/4/2 4/3/2
# 3 polygons

# Coordinates for object 'IndexedFaceSet #1'
v  203606.250000 443626.406250 -1.102981 
v  203606.781250 443626.656250 24.116137 
v  203612.796875 443608.750000 -1.102984 
v  203613.281250 443608.937500 24.116135 
# 4 vertices

vt 0.0 0.998482 0.0
vt 0.000872 0.000015 0.0
vt 0.999872 0.0 0.0
vt 1.000000 1.000000 0.0
# 4 texture vertices

vn  0.937420 0.347592 -0.020589 
vn  0.938570 0.344308 -0.023184 
# 2 normals

usemtl surface__2

o IndexedFaceSet__1_0
g IndexedFaceSet__1_0

s off
f 7/6/5 9/7/5 6/9/5
f 8/8/4 6/9/4 9/7/4
# 2 polygons

# Coordinates for object 'IndexedFaceSet #2'
v  203593.421875 443610.281250 -1.286966 
v  203594.500000 443611.156250 24.106834 
v  203612.796875 443608.750000 -1.102984 
v  203613.281250 443608.937500 24.116135 
# 4 vertices

vt 0.0 1.000000 0.0
vt 0.000012 0.000039 0.0
vt 0.999988 0.0 0.0
vt 1.000000 0.999970 0.0
# 4 texture vertices

vn  -0.117320 -0.993047 0.009636 
vn  -0.079086 -0.996155 0.037682 
# 2 normals

usemtl surface__3

o IndexedFaceSet__2_0
g IndexedFaceSet__2_0

s off
f 13/11/6 11/10/6 12/12/6
f 10/13/7 12/12/7 11/10/7
# 2 polygons

# Coordinates for object 'IndexedFaceSet #3'
v  203582.906250 443622.906250 -1.102982 
v  203584.078125 443623.843750 24.116138 
v  203593.421875 443610.281250 -1.286966 
v  203594.500000 443611.156250 24.106834 
# 4 vertices

vt 0.0 1.000000 0.0
vt 0.000012 0.000039 0.0
vt 0.999988 0.0 0.0
vt 1.000000 0.999970 0.0
# 4 texture vertices

vn  -0.771341 -0.633645 0.059398 
vn  -0.766840 -0.639512 0.054593 
# 2 normals

usemtl surface__3

o IndexedFaceSet__3_0
g IndexedFaceSet__3_0

s off
f 17/15/8 15/14/8 14/17/8
f 14/17/9 16/16/9 17/15/9
# 2 polygons

# Coordinates for object 'IndexedFaceSet #4'
v  203582.906250 443622.906250 -1.102982 
v  203584.078125 443623.843750 24.116138 
v  203599.750000 443629.843750 -1.102979 
v  203600.203125 443629.687500 24.116140 
# 4 vertices

vt 0.0 0.000063 0.0
vt 0.001986 0.991294 0.0
vt 0.990427 0.0 0.0
vt 1.000000 1.000000 0.0
# 4 texture vertices

vn  -0.380783 0.924514 -0.016674 
vn  -0.340694 0.940098 0.011946 
# 2 normals

usemtl surface__4

o IndexedFaceSet__4_0
g IndexedFaceSet__4_0

s off
f 19/19/11 21/18/11 20/20/11
f 20/20/10 18/21/10 19/19/10
# 2 polygons

# Coordinates for object 'IndexedFaceSet #5'
v  203599.750000 443629.843750 -1.102979 
v  203600.203125 443629.687500 24.116140 
v  203606.250000 443626.406250 -1.102981 
v  203606.781250 443626.656250 24.116137 
# 4 vertices

vt 0.0 0.000018 0.0
vt 0.007554 0.987499 0.0
vt 0.995577 0.0 0.0
vt 1.000000 1.000000 0.0
# 4 texture vertices

vn  0.418444 0.908068 -0.017816 
vn  0.467495 0.883991 -0.002923 
# 2 normals

usemtl surface__5

o IndexedFaceSet__5_0
g IndexedFaceSet__5_0

s off
f 23/23/12 25/22/12 24/24/12
f 24/24/13 22/25/13 23/23/13
# 2 polygons
