# Converted by Daum Communications 
# Date/time of export: 08/22/2013 14:53:28
#
# Bounding box of geometry = (202878,443191,-0.282104) to (202908,443216,26.8441).

mtllib 3741432.mtl

# Coordinates for object 'IndexedFaceSet'
v  202878.296875 443212.843750 -0.282097 
v  202878.375000 443212.625000 26.844088 
v  202880.671875 443206.968750 -0.282098 
v  202880.671875 443206.968750 22.129967 
v  202882.000000 443203.687500 22.129967 
v  202882.000000 443203.687500 26.844088 
# 6 vertices

vt 0.0 1.000000 0.0
vt 0.0 0.022979 0.0
vt 0.173786 0.640809 0.0
vt 0.173786 0.999972 0.0
vt 0.999999 0.0 0.0
vt 1.000000 0.640693 0.0
# 6 texture vertices

vn  -0.927110 -0.374789 0.0 
vn  -0.926947 -0.375193 0.0 
vn  -0.926678 -0.375855 -0.000537 
vn  -0.926628 -0.375980 -0.000363 
# 4 normals

usemtl surface

o IndexedFaceSet
g IndexedFaceSet

s off
f 2/2/3 4/3/3 6/1/3
f 4/3/4 2/2/4 1/5/4
f 6/1/2 4/3/2 5/4/2
f 3/6/1 4/3/1 1/5/1
# 4 polygons

# Coordinates for object 'IndexedFaceSet #1'
v  202886.000000 443209.125000 22.129961 
v  202886.031250 443209.031250 26.844084 
v  202887.328125 443205.843750 22.129963 
v  202887.328125 443205.843750 26.844082 
# 4 vertices

vt 0.0 0.028023 0.0
vt 0.000014 1.000000 0.0
vt 0.999998 0.0 0.0
vt 1.000000 0.999814 0.0
# 4 texture vertices

vn  0.926269 0.376864 0.0 
vn  0.926946 0.375192 0.001317 
# 2 normals

usemtl surface__2

o IndexedFaceSet__1_0
g IndexedFaceSet__1_0

s off
f 8/7/6 9/10/6 7/9/6
f 9/10/5 8/7/5 10/8/5
# 2 polygons

# Coordinates for object 'IndexedFaceSet #2'
v  202880.671875 443206.968750 22.129967 
v  202882.000000 443203.687500 22.129967 
v  202882.968750 443207.906250 22.129965 
v  202884.296875 443204.625000 22.129965 
# 4 vertices

vt 0.0 1.000000 0.0
vt 0.001913 0.0 0.0
vt 0.999681 0.999989 0.0
vt 1.000000 0.0 0.0
# 4 texture vertices

vn  0.0 0.0 -1.0 
# 1 normals

usemtl surface__3

o IndexedFaceSet__2_0
g IndexedFaceSet__2_0

s off
f 12/13/7 11/11/7 13/12/7
f 13/12/7 14/14/7 12/13/7
# 2 polygons

# Coordinates for object 'IndexedFaceSet #3'
v  202880.671875 443206.968750 -0.282098 
v  202880.671875 443206.968750 22.129967 
v  202888.296875 443210.062500 -0.282104 
v  202888.781250 443210.250000 22.129963 
# 4 vertices

vt 0.0 0.0 0.0
vt 0.000130 0.999670 0.0
vt 0.940975 0.000219 0.0
vt 1.000000 1.000000 0.0
# 4 texture vertices

vn  0.375083 -0.926991 -0.000351 
vn  0.375970 -0.926632 0.0 
# 2 normals

usemtl surface__4

o IndexedFaceSet__3_0
g IndexedFaceSet__3_0

s off
f 18/18/8 16/16/8 17/17/8
f 15/15/9 17/17/9 16/16/9
# 2 polygons

# Coordinates for object 'IndexedFaceSet #4'
v  202878.375000 443212.625000 26.844088 
v  202882.000000 443203.687500 26.844088 
v  202886.031250 443209.031250 26.844084 
v  202886.500000 443215.906250 26.844082 
v  202887.328125 443205.843750 26.844082 
v  202888.812500 443210.156250 26.844084 
# 6 vertices

vt 0.0 0.343116 0.0
vt 0.0 1.000000 0.0
vt 0.357372 0.0 0.0
vt 0.357372 0.343115 0.0
vt 1.000000 0.0 0.0
vt 1.000000 1.000000 0.0
# 6 texture vertices

vn  0.0 0.0 1.0 
# 1 normals

usemtl surface__5

o IndexedFaceSet__4_0
g IndexedFaceSet__4_0

s off
f 22/23/10 21/22/10 24/21/10
f 21/22/10 22/23/10 19/24/10
f 21/22/10 20/20/10 23/19/10
f 20/20/10 21/22/10 19/24/10
# 4 polygons

# Coordinates for object 'IndexedFaceSet #5'
v  202885.937500 443215.906250 -0.282102 
v  202886.500000 443215.906250 26.844082 
v  202888.296875 443210.062500 -0.282104 
v  202888.812500 443210.156250 26.844084 
# 4 vertices

vt 0.0 1.000000 0.0
vt 0.058739 0.000032 0.0
vt 0.999898 0.0 0.0
vt 1.000000 0.999988 0.0
# 4 texture vertices

vn  0.927104 0.374312 -0.019225 
vn  0.927613 0.373062 -0.018922 
# 2 normals

usemtl surface__6

o IndexedFaceSet__5_0
g IndexedFaceSet__5_0

s off
f 27/26/11 25/27/11 26/28/11
f 26/28/12 28/25/12 27/26/12
# 2 polygons

# Coordinates for object 'IndexedFaceSet #6'
v  202886.000000 443209.125000 22.129961 
v  202886.031250 443209.031250 26.844084 
v  202888.781250 443210.250000 22.129963 
v  202888.812500 443210.156250 26.844084 
# 4 vertices

vt 0.0 0.0 0.0
vt 0.000016 0.999658 0.0
vt 0.999984 0.000306 0.0
vt 1.000000 1.000000 0.0
# 4 texture vertices

vn  0.374898 -0.926830 -0.020917 
# 1 normals

usemtl surface__7

o IndexedFaceSet__6_0
g IndexedFaceSet__6_0

s off
f 32/32/13 30/30/13 29/29/13
f 29/29/13 31/31/13 32/32/13
# 2 polygons

# Coordinates for object 'IndexedFaceSet #7'
v  202878.296875 443212.843750 -0.282097 
v  202878.375000 443212.625000 26.844088 
v  202885.937500 443215.906250 -0.282102 
v  202886.500000 443215.906250 26.844082 
# 4 vertices

vt 0.0 1.000000 0.0
vt 0.058739 0.000032 0.0
vt 0.999898 0.0 0.0
vt 1.000000 0.999988 0.0
# 4 texture vertices

vn  -0.374452 0.927214 0.007765 
vn  -0.372032 0.928181 0.008556 
# 2 normals

usemtl surface__6

o IndexedFaceSet__7_0
g IndexedFaceSet__7_0

s off
f 34/36/14 36/33/14 35/34/14
f 35/34/15 33/35/15 34/36/15
# 2 polygons

# Coordinates for object 'IndexedFaceSet #8'
v  202882.984375 443207.906250 -0.272255 
v  202882.984375 443207.906250 24.216885 
v  202887.843750 443195.875000 -0.272257 
v  202887.843750 443195.875000 24.216885 
# 4 vertices

vt 0.0 1.000000 0.0
vt 0.0 0.000126 0.0
vt 0.999998 0.0 0.0
vt 1.000000 0.999868 0.0
# 4 texture vertices

vn  -0.927226 -0.374503 0.0 
# 1 normals

usemtl surface__8

o IndexedFaceSet__8_0
g IndexedFaceSet__8_0

s off
f 40/37/16 38/38/16 37/39/16
f 37/39/16 39/40/16 40/37/16
# 2 polygons

# Coordinates for object 'IndexedFaceSet #9'
v  202885.328125 443194.218750 -0.252272 
v  202885.328125 443194.218750 20.565527 
v  202888.062500 443195.343750 -0.272257 
v  202888.062500 443195.343750 20.565527 
# 4 vertices

vt 0.0 0.954947 0.0
vt 0.001070 0.0 0.0
vt 0.999933 1.000000 0.0
vt 1.000000 0.045192 0.0
# 4 texture vertices

vn  0.380484 -0.924788 0.0 
# 1 normals

usemtl surface__9

o IndexedFaceSet__9_0
g IndexedFaceSet__9_0

s off
f 44/41/17 42/42/17 41/44/17
f 41/44/17 43/43/17 44/41/17
# 2 polygons

# Coordinates for object 'IndexedFaceSet #10'
v  202882.000000 443203.687500 22.129967 
v  202882.000000 443203.687500 26.844088 
v  202887.328125 443205.843750 22.129963 
v  202887.328125 443205.843750 26.844082 
# 4 vertices

vt 0.0 0.999984 0.0
vt 0.000771 0.0 0.0
vt 0.999231 1.000000 0.0
vt 1.000000 0.000012 0.0
# 4 texture vertices

vn  0.375137 -0.926969 0.0 
# 1 normals

usemtl surface__10

o IndexedFaceSet__10_0
g IndexedFaceSet__10_0

s off
f 48/45/18 46/46/18 47/47/18
f 45/48/18 47/47/18 46/46/18
# 2 polygons

# Coordinates for object 'IndexedFaceSet #11'
v  202887.843750 443195.875000 24.216885 
v  202888.296875 443195.031250 24.216881 
v  202888.953125 443194.093750 24.153154 
v  202890.125000 443193.500000 24.083080 
v  202890.937500 443193.625000 24.083084 
v  202893.656250 443198.218750 24.216879 
v  202894.812500 443195.343750 24.107796 
# 7 vertices

vt 0.0 0.644961 0.0
vt 0.045668 0.427400 0.0
vt 0.120705 0.181523 0.0
vt 0.278414 0.0 0.0
vt 0.400208 0.0 0.0
vt 0.893455 1.000000 0.0
vt 1.000000 0.270555 0.0
# 7 texture vertices

vn  0.000002 -0.000003 1.0 
vn  0.008864 -0.034353 0.999370 
vn  0.013866 -0.090160 0.995831 
vn  0.023031 -0.051744 0.998395 
vn  0.026696 -0.044885 0.998635 
# 5 normals

usemtl surface__11

o IndexedFaceSet__11_0
g IndexedFaceSet__11_0

s off
f 54/54/20 53/53/20 55/55/20
f 53/53/23 54/54/23 50/50/23
f 51/51/22 53/53/22 50/50/22
f 52/52/21 53/53/21 51/51/21
f 50/50/19 54/54/19 49/49/19
# 5 polygons

# Coordinates for object 'IndexedFaceSet #12'
v  202882.984375 443207.906250 24.216885 
v  202887.843750 443195.875000 24.216885 
v  202888.781250 443210.250000 24.216881 
v  202893.656250 443198.218750 24.216879 
# 4 vertices

vt 0.0 0.0 0.0
vt 0.0 1.000000 0.0
vt 1.000000 0.0 0.0
vt 1.000000 1.000000 0.0
# 4 texture vertices

vn  0.0 0.0 1.0 
# 1 normals

usemtl surface__11

o IndexedFaceSet__12_0
g IndexedFaceSet__12_0

s off
f 59/56/24 58/58/24 56/59/24
f 56/59/24 57/57/24 59/56/24
# 2 polygons

# Coordinates for object 'IndexedFaceSet #13'
v  202888.296875 443210.062500 -0.282104 
v  202888.781250 443210.250000 24.216881 
v  202891.562500 443203.375000 -0.267868 
v  202891.578125 443203.343750 24.216879 
# 4 vertices

vt 0.0 0.0 0.0
vt 0.000175 1.000000 0.0
vt 0.989983 0.998840 0.0
vt 1.000000 0.000027 0.0
# 4 texture vertices

vn  0.898404 0.438662 -0.021120 
vn  0.926877 0.375364 -0.000112 
# 2 normals

usemtl surface__12

o IndexedFaceSet__13_0
g IndexedFaceSet__13_0

s off
f 62/63/25 60/60/25 61/61/25
f 61/61/26 63/62/26 62/63/26
# 2 polygons

# Coordinates for object 'IndexedFaceSet #14'
v  202887.843750 443195.875000 -0.260460 
v  202887.843750 443195.875000 24.216885 
v  202888.296875 443195.031250 -0.260460 
v  202888.296875 443195.031250 24.216881 
# 4 vertices

vt 0.0 0.002534 0.0
vt 0.0 1.000000 0.0
vt 0.999998 0.997454 0.0
vt 1.000000 0.0 0.0
# 4 texture vertices

vn  -0.880994 -0.473127 0.0 
# 1 normals

usemtl surface__13

o IndexedFaceSet__14_0
g IndexedFaceSet__14_0

s off
f 67/65/27 65/64/27 64/67/27
f 64/67/27 66/66/27 67/65/27
# 2 polygons

# Coordinates for object 'IndexedFaceSet #15'
v  202888.296875 443195.031250 -0.260460 
v  202888.296875 443195.031250 24.216881 
v  202888.953125 443194.093750 -0.260460 
v  202888.953125 443194.093750 24.153154 
# 4 vertices

vt 0.0 0.001121 0.0
vt 0.002602 1.000000 0.0
vt 0.999996 0.998909 0.0
vt 1.000000 0.0 0.0
# 4 texture vertices

vn  -0.819232 -0.573462 0.0 
# 1 normals

usemtl surface__14

o IndexedFaceSet__15_0
g IndexedFaceSet__15_0

s off
f 71/69/28 69/68/28 68/71/28
f 68/71/28 70/70/28 71/69/28
# 2 polygons

# Coordinates for object 'IndexedFaceSet #16'
v  202881.531250 443203.593750 -0.252273 
v  202881.531250 443203.593750 20.565529 
v  202884.281250 443204.687500 -0.272257 
v  202884.281250 443204.687500 20.565529 
# 4 vertices

vt 0.0 0.046138 0.0
vt 0.000973 1.000000 0.0
vt 0.999951 0.0 0.0
vt 1.000000 0.954043 0.0
# 4 texture vertices

vn  -0.369569 0.929203 0.0 
# 1 normals

usemtl surface__15

o IndexedFaceSet__16_0
g IndexedFaceSet__16_0

s off
f 73/73/29 75/72/29 72/75/29
f 74/74/29 72/75/29 75/72/29
# 2 polygons

# Coordinates for object 'IndexedFaceSet #17'
v  202881.531250 443203.593750 20.565529 
v  202884.281250 443204.687500 20.565529 
v  202885.328125 443194.218750 20.565527 
v  202888.062500 443195.343750 20.565527 
# 4 vertices

vt 0.0 0.500000 0.0
vt 0.0 1.000000 0.0
vt 1.000000 0.500000 0.0
vt 1.000000 1.000000 0.0
# 4 texture vertices

vn  0.0 0.0 1.0 
# 1 normals

usemtl surface__16

o IndexedFaceSet__17_0
g IndexedFaceSet__17_0

s off
f 79/79/30 77/77/30 76/76/30
f 76/76/30 78/78/30 79/79/30
# 2 polygons

# Coordinates for object 'IndexedFaceSet #18'
v  202881.531250 443203.593750 -0.252273 
v  202881.531250 443203.593750 20.565529 
v  202885.328125 443194.218750 -0.252272 
v  202885.328125 443194.218750 20.565527 
# 4 vertices

vt 0.0 0.000177 0.0
vt 0.0 1.000000 0.0
vt 0.999997 0.0 0.0
vt 1.000000 0.999815 0.0
# 4 texture vertices

vn  -0.926870 -0.375382 0.0 
# 1 normals

usemtl surface__17

o IndexedFaceSet__18_0
g IndexedFaceSet__18_0

s off
f 83/81/31 81/80/31 82/83/31
f 80/82/31 82/83/31 81/80/31
# 2 polygons

# Coordinates for object 'IndexedFaceSet #19'
v  202884.281250 443204.687500 -0.272257 
v  202884.281250 443204.687500 20.565529 
v  202888.062500 443195.343750 -0.272257 
v  202888.062500 443195.343750 20.565527 
# 4 vertices

vt 0.0 0.000305 0.0
vt 0.0 1.000000 0.0
vt 0.999994 0.0 0.0
vt 1.000000 0.999682 0.0
# 4 texture vertices

vn  0.926973 0.375129 0.0 
# 1 normals

usemtl surface__18

o IndexedFaceSet__19_0
g IndexedFaceSet__19_0

s off
f 86/87/32 84/86/32 87/85/32
f 85/84/32 87/85/32 84/86/32
# 2 polygons

# Coordinates for object 'IndexedFaceSet #20'
v  202891.578125 443203.343750 24.216879 
v  202894.812500 443195.343750 24.107796 
v  202903.093750 443207.937500 24.075197 
v  202906.312500 443200.000000 24.075197 
# 4 vertices

vt 0.0 0.0 0.0
vt 0.0 0.999938 0.0
vt 0.991340 0.0 0.0
vt 1.000000 1.000000 0.0
# 4 texture vertices

vn  0.002435 0.000987 0.999997 
vn  0.015276 -0.007457 0.999856 
# 2 normals

usemtl surface__11

o IndexedFaceSet__20_0
g IndexedFaceSet__20_0

s off
f 91/88/33 90/90/33 89/89/33
f 88/91/34 89/89/34 90/90/34
# 2 polygons

# Coordinates for object 'IndexedFaceSet #21'
v  202903.093750 443207.937500 24.075197 
v  202903.218750 443207.968750 -0.251300 
v  202906.312500 443200.000000 24.075197 
v  202906.421875 443200.031250 -0.251302 
# 4 vertices

vt 0.0 0.0 0.0
vt 0.000175 1.000000 0.0
vt 0.989983 0.998840 0.0
vt 1.000000 0.000027 0.0
# 4 texture vertices

vn  0.926692 0.375785 0.005244 
vn  0.927329 0.374218 0.004650 
# 2 normals

usemtl surface__12

o IndexedFaceSet__21_0
g IndexedFaceSet__21_0

s off
f 95/95/36 93/92/36 94/94/36
f 92/93/35 94/94/35 93/92/35
# 2 polygons

# Coordinates for object 'IndexedFaceSet #22'
v  202894.812500 443195.343750 -0.251296 
v  202894.812500 443195.343750 24.107796 
v  202906.312500 443200.000000 24.075197 
v  202906.421875 443200.031250 -0.251302 
# 4 vertices

vt 0.0 0.0 0.0
vt 0.000175 1.000000 0.0
vt 0.989983 0.998840 0.0
vt 1.000000 0.000027 0.0
# 4 texture vertices

vn  0.374401 -0.927267 0.000492 
vn  0.375296 -0.926905 0.0 
# 2 normals

usemtl surface__12

o IndexedFaceSet__22_0
g IndexedFaceSet__22_0

s off
f 98/98/38 97/97/38 96/96/38
f 96/96/37 99/99/37 98/98/37
# 2 polygons

# Coordinates for object 'IndexedFaceSet #23'
v  202891.562500 443203.375000 -0.267868 
v  202891.578125 443203.343750 24.216879 
v  202903.093750 443207.937500 24.075197 
v  202903.218750 443207.968750 -0.251300 
# 4 vertices

vt 0.0 0.0 0.0
vt 0.000175 1.000000 0.0
vt 0.989983 0.998840 0.0
vt 1.000000 0.000027 0.0
# 4 texture vertices

vn  -0.370506 0.928829 0.001422 
vn  -0.366654 0.930357 -0.000689 
# 2 normals

usemtl surface__12

o IndexedFaceSet__23_0
g IndexedFaceSet__23_0

s off
f 101/101/39 102/102/39 100/100/39
f 103/103/40 100/100/40 102/102/40
# 2 polygons

# Coordinates for object 'IndexedFaceSet #24'
v  202888.953125 443194.093750 -0.260460 
v  202888.953125 443194.093750 24.153154 
v  202890.125000 443193.500000 -0.260460 
v  202890.125000 443193.500000 24.083080 
# 4 vertices

vt 0.0 0.000066 0.0
vt 0.002866 0.999916 0.0
vt 0.999993 1.000000 0.0
vt 1.000000 0.0 0.0
# 4 texture vertices

vn  -0.451965 -0.892036 0.0 
# 1 normals

usemtl surface__19

o IndexedFaceSet__24_0
g IndexedFaceSet__24_0

s off
f 107/105/41 105/104/41 104/107/41
f 104/107/41 106/106/41 107/105/41
# 2 polygons

# Coordinates for object 'IndexedFaceSet #25'
v  202890.125000 443193.500000 -0.260460 
v  202890.125000 443193.500000 24.083080 
v  202890.937500 443193.625000 -0.260459 
v  202890.937500 443193.625000 24.083084 
# 4 vertices

vt 0.0 0.999994 0.0
vt 0.000027 0.0 0.0
vt 0.999976 1.000000 0.0
vt 1.000000 0.0 0.0
# 4 texture vertices

vn  0.152057 -0.988372 0.0 
# 1 normals

usemtl surface__20

o IndexedFaceSet__25_0
g IndexedFaceSet__25_0

s off
f 111/108/42 109/109/42 110/110/42
f 108/111/42 110/110/42 109/109/42
# 2 polygons

# Coordinates for object 'IndexedFaceSet #26'
v  202890.937500 443193.625000 -0.260459 
v  202890.937500 443193.625000 24.083084 
v  202894.812500 443195.343750 -0.260463 
v  202894.812500 443195.343750 24.107796 
# 4 vertices

vt 0.0 0.0 0.0
vt 0.000444 0.998847 0.0
vt 0.999307 0.000061 0.0
vt 1.000000 1.000000 0.0
# 4 texture vertices

vn  0.405454 -0.914115 0.0 
# 1 normals

usemtl surface__21

o IndexedFaceSet__26_0
g IndexedFaceSet__26_0

s off
f 115/115/43 113/113/43 114/114/43
f 112/112/43 114/114/43 113/113/43
# 2 polygons

# Coordinates for object 'IndexedFaceSet #27'
v  202885.328125 443194.218750 14.290252 
v  202887.218750 443192.062500 14.290252 
v  202888.515625 443191.250000 14.290251 
v  202890.000000 443190.968750 14.290251 
v  202890.984375 443199.718750 14.290251 
v  202891.218750 443190.843750 14.290251 
v  202894.171875 443191.843750 14.290251 
# 7 vertices

vt 0.0 0.0 0.0
vt 0.021491 0.426900 0.0
vt 0.087698 0.574847 0.0
vt 0.183469 0.748259 0.0
vt 0.329063 0.870279 0.0
vt 0.649768 1.000000 0.0
vt 1.000000 0.0 0.0
# 7 texture vertices

vn  0.0 0.0 1.0 
# 1 normals

usemtl surface__16

o IndexedFaceSet__27_0
g IndexedFaceSet__27_0

s off
f 120/122/44 121/117/44 122/116/44
f 121/117/44 120/122/44 119/118/44
f 117/120/44 119/118/44 120/122/44
f 118/119/44 119/118/44 117/120/44
f 117/120/44 120/122/44 116/121/44
# 5 polygons

# Coordinates for object 'IndexedFaceSet #28'
v  202885.328125 443194.218750 -0.218626 
v  202885.328125 443194.218750 14.290252 
v  202887.218750 443192.062500 -0.218626 
v  202887.218750 443192.062500 14.290252 
# 4 vertices

vt 0.0 1.000000 0.0
vt 0.000050 0.000044 0.0
vt 0.999955 0.999943 0.0
vt 1.000000 0.0 0.0
# 4 texture vertices

vn  -0.751901 -0.659276 0.0 
# 1 normals

usemtl surface__22

o IndexedFaceSet__28_0
g IndexedFaceSet__28_0

s off
f 126/123/45 124/124/45 125/125/45
f 123/126/45 125/125/45 124/124/45
# 2 polygons

# Coordinates for object 'IndexedFaceSet #29'
v  202887.218750 443192.062500 -0.218626 
v  202887.218750 443192.062500 14.290252 
v  202888.515625 443191.250000 -0.218626 
v  202888.515625 443191.250000 14.290251 
# 4 vertices

vt 0.0 1.000000 0.0
vt 0.000017 0.001077 0.0
vt 0.999991 0.998888 0.0
vt 1.000000 0.0 0.0
# 4 texture vertices

vn  -0.530916 -0.847424 0.0 
# 1 normals

usemtl surface__23

o IndexedFaceSet__29_0
g IndexedFaceSet__29_0

s off
f 130/127/46 128/128/46 129/129/46
f 127/130/46 129/129/46 128/128/46
# 2 polygons

# Coordinates for object 'IndexedFaceSet #30'
v  202888.515625 443191.250000 -0.218626 
v  202888.515625 443191.250000 14.290251 
v  202890.000000 443190.968750 -0.218627 
v  202890.000000 443190.968750 14.290251 
# 4 vertices

vt 0.0 1.000000 0.0
vt 0.000040 0.000257 0.0
vt 0.999967 0.999723 0.0
vt 1.000000 0.0 0.0
# 4 texture vertices

vn  -0.186162 -0.982519 0.0 
# 1 normals

usemtl surface__24

o IndexedFaceSet__30_0
g IndexedFaceSet__30_0

s off
f 134/131/47 132/132/47 131/134/47
f 131/134/47 133/133/47 134/131/47
# 2 polygons

# Coordinates for object 'IndexedFaceSet #31'
v  202890.000000 443190.968750 -0.218627 
v  202890.000000 443190.968750 14.290251 
v  202891.218750 443190.843750 -0.218628 
v  202891.218750 443190.843750 14.290251 
# 4 vertices

vt 0.0 1.000000 0.0
vt 0.000053 0.001365 0.0
vt 0.999966 0.998589 0.0
vt 1.000000 0.0 0.0
# 4 texture vertices

vn  -0.102029 -0.994781 0.0 
# 1 normals

usemtl surface__25

o IndexedFaceSet__31_0
g IndexedFaceSet__31_0

s off
f 138/135/48 136/136/48 135/138/48
f 135/138/48 137/137/48 138/135/48
# 2 polygons

# Coordinates for object 'IndexedFaceSet #32'
v  202891.218750 443190.843750 -0.218628 
v  202891.218750 443190.843750 14.290251 
v  202894.171875 443191.843750 -0.218628 
v  202894.171875 443191.843750 14.290251 
# 4 vertices

vt 0.0 1.000000 0.0
vt 0.000203 0.000742 0.0
vt 0.999871 0.999190 0.0
vt 1.000000 0.0 0.0
# 4 texture vertices

vn  0.320735 -0.947169 0.0 
# 1 normals

usemtl surface__26

o IndexedFaceSet__32_0
g IndexedFaceSet__32_0

s off
f 142/139/49 140/140/49 141/141/49
f 139/142/49 141/141/49 140/140/49
# 2 polygons

# Coordinates for object 'IndexedFaceSet #33'
v  202906.421875 443200.031250 -0.251302 
v  202906.421875 443200.031250 14.290244 
v  202907.546875 443197.250000 -0.218636 
v  202907.546875 443197.250000 14.290242 
# 4 vertices

vt 0.0 1.000000 0.0
vt 0.000053 0.001365 0.0
vt 0.999966 0.998589 0.0
vt 1.000000 0.0 0.0
# 4 texture vertices

vn  0.927033 0.374980 0.0 
# 1 normals

usemtl surface__25

o IndexedFaceSet__33_0
g IndexedFaceSet__33_0

s off
f 145/145/50 143/146/50 144/144/50
f 144/144/50 146/143/50 145/145/50
# 2 polygons

# Coordinates for object 'IndexedFaceSet #34'
v  202890.984375 443199.718750 14.290251 
v  202894.171875 443191.843750 14.290251 
v  202904.359375 443205.125000 14.290242 
v  202907.546875 443197.250000 14.290242 
# 4 vertices

vt 0.0 0.0 0.0
vt 0.0 1.000000 0.0
vt 1.000000 0.0 0.0
vt 1.000000 1.000000 0.0
# 4 texture vertices

vn  0.0 0.0 1.0 
# 1 normals

usemtl surface__16

o IndexedFaceSet__34_0
g IndexedFaceSet__34_0

s off
f 150/147/51 149/149/51 147/150/51
f 147/150/51 148/148/51 150/147/51
# 2 polygons

# Coordinates for object 'IndexedFaceSet #35'
v  202894.171875 443191.843750 -0.218628 
v  202894.171875 443191.843750 14.290251 
v  202907.546875 443197.250000 -0.218636 
v  202907.546875 443197.250000 14.290242 
# 4 vertices

vt 0.0 1.000000 0.0
vt 0.000450 0.000012 0.0
vt 0.999608 0.999976 0.0
vt 1.000000 0.0 0.0
# 4 texture vertices

vn  0.374750 -0.927126 0.0 
# 1 normals

usemtl surface__27

o IndexedFaceSet__35_0
g IndexedFaceSet__35_0

s off
f 154/151/52 152/152/52 153/153/52
f 151/154/52 153/153/52 152/152/52
# 2 polygons
