# Converted by Daum Communications 
# Date/time of export: 08/22/2013 14:53:34
#
# Bounding box of geometry = (203799,443684,-1.03601) to (203819,443711,15.3724).

mtllib 3741779.mtl

# Coordinates for object 'IndexedFaceSet'
v  203809.906250 443710.593750 15.372432 
v  203809.984375 443710.687500 2.259255 
v  203810.640625 443709.093750 2.248141 
v  203810.656250 443709.093750 -0.722653 
v  203818.812500 443688.531250 15.221301 
v  203818.906250 443688.656250 -0.862670 
# 6 vertices

vt 0.0 0.0 0.0
vt 0.0 0.815295 0.0
vt 0.073542 0.815295 0.0
vt 0.073542 1.000000 0.0
vt 1.000000 0.0 0.0
vt 1.000000 1.000000 0.0
# 6 texture vertices

vn  0.924667 0.380688 0.008231 
vn  0.927278 0.374264 0.009111 
vn  0.927299 0.374289 0.004877 
vn  0.927459 0.373831 0.008311 
# 4 normals

usemtl surface

o IndexedFaceSet
g IndexedFaceSet

s off
f 2/2/1 1/1/1 3/3/1
f 3/3/2 1/1/2 5/5/2
f 3/3/3 6/6/3 4/4/3
f 6/6/4 3/3/4 5/5/4
# 4 polygons

# Coordinates for object 'IndexedFaceSet #1'
v  203806.437500 443709.468750 14.329679 
v  203806.562500 443709.562500 3.492001 
v  203809.125000 443710.531250 14.374517 
v  203809.250000 443710.656250 3.534955 
# 4 vertices

vt 0.0 0.0 0.0
vt 0.000171 1.000000 0.0
vt 0.999998 1.000000 0.0
vt 1.000000 0.0 0.0
# 4 texture vertices

vn  -0.377002 0.926205 0.003664 
vn  -0.367745 0.929904 0.006483 
# 2 normals

usemtl surface__2

o IndexedFaceSet__1_0
g IndexedFaceSet__1_0

s off
f 7/8/6 9/7/6 10/10/6
f 10/10/5 8/9/5 7/8/5
# 2 polygons

# Coordinates for object 'IndexedFaceSet #2'
v  203809.125000 443710.531250 14.374517 
v  203809.218750 443710.312500 14.372946 
v  203809.250000 443710.656250 3.534955 
v  203809.343750 443710.437500 3.533384 
# 4 vertices

vt 0.0 0.0 0.0
vt 0.0 1.000000 0.0
vt 0.999950 1.000000 0.0
vt 1.000000 0.0 0.0
# 4 texture vertices

vn  0.919079 0.393782 0.015140 
# 1 normals

usemtl surface__3

o IndexedFaceSet__2_0
g IndexedFaceSet__2_0

s off
f 11/13/7 12/12/7 14/11/7
f 14/11/7 13/14/7 11/13/7
# 2 polygons

# Coordinates for object 'IndexedFaceSet #3'
v  203806.562500 443709.562500 3.492001 
v  203806.656250 443709.343750 3.490431 
v  203809.250000 443710.656250 3.534955 
v  203809.343750 443710.437500 3.533384 
# 4 vertices

vt 0.0 0.0 0.0
vt 0.0 1.000000 0.0
vt 1.000000 0.0 0.0
vt 1.000000 0.999999 0.0
# 4 texture vertices

vn  0.011119 0.011946 -0.999867 
# 1 normals

usemtl surface__3

o IndexedFaceSet__3_0
g IndexedFaceSet__3_0

s off
f 17/17/8 18/18/8 15/15/8
f 16/16/8 15/15/8 18/18/8
# 2 polygons

# Coordinates for object 'IndexedFaceSet #4'
v  203806.437500 443709.468750 14.329679 
v  203806.531250 443709.218750 14.328108 
v  203806.562500 443709.562500 3.492001 
v  203806.656250 443709.343750 3.490431 
# 4 vertices

vt 0.0 1.000000 0.0
vt 0.000015 0.012035 0.0
vt 0.999993 0.987809 0.0
vt 1.000000 0.0 0.0
# 4 texture vertices

vn  -0.936257 -0.351003 -0.014847 
vn  -0.919091 -0.393796 -0.014007 
# 2 normals

usemtl surface__4

o IndexedFaceSet__4_0
g IndexedFaceSet__4_0

s off
f 20/19/9 19/20/9 22/21/9
f 21/22/10 22/21/10 19/20/10
# 2 polygons

# Coordinates for object 'IndexedFaceSet #5'
v  203806.437500 443709.468750 14.329679 
v  203806.531250 443709.218750 14.328108 
v  203809.125000 443710.531250 14.374517 
v  203809.218750 443710.312500 14.372946 
# 4 vertices

vt 0.0 0.0 0.0
vt 0.0 1.000000 0.0
vt 0.999983 1.000000 0.0
vt 0.999987 0.0 0.0
# 4 texture vertices

vn  -0.012255 -0.010877 0.999866 
vn  -0.011836 -0.012256 0.999855 
# 2 normals

usemtl surface__3

o IndexedFaceSet__5_0
g IndexedFaceSet__5_0

s off
f 23/23/11 24/26/11 26/25/11
f 26/25/12 25/24/12 23/23/12
# 2 polygons

# Coordinates for object 'IndexedFaceSet #6'
v  203798.921875 443706.281250 15.198537 
v  203798.953125 443706.312500 13.097652 
v  203801.656250 443707.406250 13.131859 
v  203801.656250 443707.406250 13.632823 
v  203802.390625 443707.687500 15.254033 
v  203802.421875 443707.718750 13.644934 
# 6 vertices

vt 0.0 0.238314 0.0
vt 0.001343 1.000000 0.0
vt 0.217511 0.0 0.0
vt 0.217930 0.237135 0.0
vt 0.998249 0.000112 0.0
vt 1.000000 0.994585 0.0
# 6 texture vertices

vn  -0.378020 0.925736 0.010637 
vn  -0.376462 0.926396 0.008180 
vn  -0.375819 0.926645 0.009482 
vn  -0.375083 0.926991 0.0 
# 4 normals

usemtl surface__5

o IndexedFaceSet__6_0
g IndexedFaceSet__6_0

s off
f 27/32/15 31/28/15 30/30/15
f 30/30/13 31/28/13 32/27/13
f 30/30/16 29/29/16 28/31/16
f 30/30/14 28/31/14 27/32/14
# 4 polygons

# Coordinates for object 'IndexedFaceSet #7'
v  203798.921875 443706.281250 15.198537 
v  203798.968750 443706.156250 15.197733 
v  203802.390625 443707.687500 15.254033 
v  203802.437500 443707.562500 15.253227 
# 4 vertices

vt 0.0 0.0 0.0
vt 0.000821 0.999997 0.0
vt 0.998945 0.0 0.0
vt 1.000000 1.000000 0.0
# 4 texture vertices

vn  -0.011623 -0.010789 0.999874 
vn  -0.011617 -0.010802 0.999874 
# 2 normals

usemtl surface__6

o IndexedFaceSet__7_0
g IndexedFaceSet__7_0

s off
f 33/34/17 34/36/17 35/33/17
f 36/35/18 35/33/18 34/36/18
# 2 polygons

# Coordinates for object 'IndexedFaceSet #8'
v  203802.390625 443707.687500 15.254033 
v  203802.421875 443707.718750 13.644934 
v  203802.437500 443707.562500 15.253227 
v  203802.468750 443707.593750 13.644130 
# 4 vertices

vt 0.0 1.000000 0.0
vt 0.0 0.000991 0.0
vt 0.999999 0.999005 0.0
vt 1.000000 0.0 0.0
# 4 texture vertices

vn  0.936090 0.350872 0.024994 
# 1 normals

usemtl surface__7

o IndexedFaceSet__8_0
g IndexedFaceSet__8_0

s off
f 37/37/19 39/38/19 38/39/19
f 40/40/19 38/39/19 39/38/19
# 2 polygons

# Coordinates for object 'IndexedFaceSet #9'
v  203801.656250 443707.406250 13.632823 
v  203801.703125 443707.281250 13.632020 
v  203802.421875 443707.718750 13.644934 
v  203802.468750 443707.593750 13.644130 
# 4 vertices

vt 0.0 1.000000 0.0
vt 0.000015 0.000295 0.0
vt 0.999980 0.999696 0.0
vt 1.000000 0.0 0.0
# 4 texture vertices

vn  0.011439 0.010720 -0.999877 
# 1 normals

usemtl surface__8

o IndexedFaceSet__9_0
g IndexedFaceSet__9_0

s off
f 43/41/20 44/42/20 42/44/20
f 42/44/20 41/43/20 43/41/20
# 2 polygons

# Coordinates for object 'IndexedFaceSet #10'
v  203801.656250 443707.406250 13.131859 
v  203801.656250 443707.406250 13.632823 
v  203801.703125 443707.281250 13.131055 
v  203801.703125 443707.281250 13.632020 
# 4 vertices

vt 0.0 0.000063 0.0
vt 0.000054 1.000000 0.0
vt 0.999937 0.0 0.0
vt 1.000000 0.999883 0.0
# 4 texture vertices

vn  0.936329 0.351123 0.0 
# 1 normals

usemtl surface__9

o IndexedFaceSet__10_0
g IndexedFaceSet__10_0

s off
f 46/46/21 48/45/21 47/47/21
f 47/47/21 45/48/21 46/46/21
# 2 polygons

# Coordinates for object 'IndexedFaceSet #11'
v  203798.953125 443706.312500 13.097652 
v  203799.000000 443706.187500 13.096849 
v  203801.656250 443707.406250 13.131859 
v  203801.703125 443707.281250 13.131055 
# 4 vertices

vt 0.0 0.0 0.0
vt 0.000821 0.999997 0.0
vt 0.998945 0.0 0.0
vt 1.000000 1.000000 0.0
# 4 texture vertices

vn  0.008727 0.009704 -0.999915 
# 1 normals

usemtl surface__6

o IndexedFaceSet__11_0
g IndexedFaceSet__11_0

s off
f 51/49/22 52/51/22 50/52/22
f 50/52/22 49/50/22 51/49/22
# 2 polygons

# Coordinates for object 'IndexedFaceSet #12'
v  203798.921875 443706.281250 15.198537 
v  203798.953125 443706.312500 13.097652 
v  203798.968750 443706.156250 15.197733 
v  203799.000000 443706.187500 13.096849 
# 4 vertices

vt 0.0 1.000000 0.0
vt 0.0 0.000991 0.0
vt 0.999999 0.999005 0.0
vt 1.000000 0.0 0.0
# 4 texture vertices

vn  -0.936198 -0.350951 -0.019146 
# 1 normals

usemtl surface__7

o IndexedFaceSet__12_0
g IndexedFaceSet__12_0

s off
f 55/54/23 53/53/23 54/55/23
f 54/55/23 56/56/23 55/54/23
# 2 polygons

# Coordinates for object 'IndexedFaceSet #13'
v  203807.046875 443707.625000 2.203895 
v  203807.078125 443707.656250 -0.779932 
v  203810.640625 443709.093750 2.248141 
v  203810.656250 443709.093750 -0.722653 
# 4 vertices

vt 0.0 0.000015 0.0
vt 0.002950 1.000000 0.0
vt 0.992640 0.0 0.0
vt 1.000000 0.995601 0.0
# 4 texture vertices

vn  -0.378298 0.925682 -0.001990 
vn  -0.372861 0.927869 0.005813 
# 2 normals

usemtl surface__10

o IndexedFaceSet__13_0
g IndexedFaceSet__13_0

s off
f 57/58/24 59/57/24 60/59/24
f 60/59/25 58/60/25 57/58/25
# 2 polygons

# Coordinates for object 'IndexedFaceSet #14'
v  203806.390625 443709.250000 2.215009 
v  203806.421875 443709.281250 -0.768818 
v  203807.046875 443707.625000 2.203895 
v  203807.078125 443707.656250 -0.779932 
# 4 vertices

vt 0.0 0.000109 0.0
vt 0.000081 1.000000 0.0
vt 0.999899 0.0 0.0
vt 1.000000 0.999894 0.0
# 4 texture vertices

vn  0.927188 0.374348 0.013631 
# 1 normals

usemtl surface__11

o IndexedFaceSet__14_0
g IndexedFaceSet__14_0

s off
f 61/62/26 63/61/26 64/63/26
f 64/63/26 62/64/26 61/62/26
# 2 polygons

# Coordinates for object 'IndexedFaceSet #15'
v  203806.390625 443709.250000 2.215009 
v  203807.046875 443707.625000 2.203895 
v  203809.984375 443710.687500 2.259255 
v  203810.640625 443709.093750 2.248141 
# 4 vertices

vt 0.0 0.0 0.0
vt 0.0 1.000000 0.0
vt 1.000000 0.0 0.0
vt 1.000000 1.000000 0.0
# 4 texture vertices

vn  0.008098 0.010307 -0.999914 
vn  0.008244 0.010168 -0.999914 
# 2 normals

usemtl surface__12

o IndexedFaceSet__15_0
g IndexedFaceSet__15_0

s off
f 65/66/28 67/65/28 66/68/28
f 68/67/27 66/68/27 67/65/27
# 2 polygons

# Coordinates for object 'IndexedFaceSet #16'
v  203807.875000 443684.093750 15.046602 
v  203808.062500 443684.281250 -1.036009 
v  203818.812500 443688.531250 15.221301 
v  203818.906250 443688.656250 -0.862670 
# 4 vertices

vt 0.0 0.000092 0.0
vt 0.004171 1.000000 0.0
vt 0.995862 0.0 0.0
vt 1.000000 0.992127 0.0
# 4 texture vertices

vn  0.374235 -0.927312 -0.006448 
vn  0.376015 -0.926600 -0.005010 
# 2 normals

usemtl surface__13

o IndexedFaceSet__16_0
g IndexedFaceSet__16_0

s off
f 71/69/30 69/70/30 72/71/30
f 70/72/29 72/71/29 69/70/29
# 2 polygons

# Coordinates for object 'IndexedFaceSet #17'
v  203798.968750 443706.156250 15.197733 
v  203799.156250 443706.343750 -0.884878 
v  203807.875000 443684.093750 15.046602 
v  203808.062500 443684.281250 -1.036009 
# 4 vertices

vt -1.000000 1.000000 0.0
vt -1.000000 2.000000 0.0
vt 0.0 1.000000 0.0
vt 0.0 2.000000 0.0
# 4 texture vertices

vn  -0.927224 -0.374200 -0.015173 
# 1 normals

usemtl surface__14

o IndexedFaceSet__17_0
g IndexedFaceSet__17_0

s off
f 75/73/31 73/75/31 76/74/31
f 74/76/31 76/74/31 73/75/31
# 2 polygons

# Coordinates for object 'IndexedFaceSet #18'
v  203798.968750 443706.156250 15.197733 
v  203807.875000 443684.093750 15.046602 
v  203809.906250 443710.593750 15.372432 
v  203818.812500 443688.531250 15.221301 
# 4 vertices

vt 0.0 0.0 0.0
vt 0.0 1.000000 0.0
vt 1.000000 0.0 0.0
vt 1.000000 1.000000 0.0
# 4 texture vertices

vn  -0.011335 -0.011425 0.999870 
# 1 normals

usemtl surface__15

o IndexedFaceSet__18_0
g IndexedFaceSet__18_0

s off
f 78/80/32 80/78/32 79/77/32
f 79/77/32 77/79/32 78/80/32
# 2 polygons

# Coordinates for object 'IndexedFaceSet #19'
v  203799.000000 443706.187500 13.096849 
v  203799.156250 443706.343750 -0.884878 
v  203801.703125 443707.281250 13.131055 
v  203801.703125 443707.281250 13.632020 
v  203802.437500 443707.562500 15.253227 
v  203802.468750 443707.593750 13.644130 
v  203806.390625 443709.250000 2.215009 
v  203806.421875 443709.281250 -0.768818 
v  203809.906250 443710.593750 15.372432 
v  203809.984375 443710.687500 2.259255 
# 10 vertices

vt 0.0 0.000076 0.0
vt 0.002846 0.683066 0.0
vt 0.102481 0.682277 0.0
vt 0.102770 0.751665 0.0
vt 0.133790 0.751419 0.0
vt 0.134257 1.000000 0.0
vt 0.811921 0.0 0.0
vt 0.812472 0.329631 0.0
vt 0.997229 0.328170 0.0
vt 1.000000 0.993150 0.0
# 10 texture vertices

vn  -0.379991 0.924983 0.003651 
vn  -0.377897 0.925848 0.0 
vn  -0.376190 0.926481 0.010687 
vn  -0.375186 0.926933 0.005582 
vn  -0.375143 0.926946 0.006167 
vn  -0.375031 0.926992 0.006143 
vn  -0.374899 0.927048 0.005783 
vn  -0.371434 0.928449 0.004425 
# 8 normals

usemtl surface__16

o IndexedFaceSet__19_0
g IndexedFaceSet__19_0

s off
f 89/81/35 86/83/35 85/82/35
f 83/85/33 86/83/33 87/88/33
f 84/84/34 86/83/34 83/85/34
f 86/83/36 89/81/36 87/88/36
f 83/85/37 82/90/37 81/86/37
f 83/85/38 87/88/38 82/90/38
f 82/90/39 87/88/39 88/89/39
f 87/88/40 89/81/40 90/87/40
# 8 polygons
