# Converted by Daum Communications 
# Date/time of export: 08/22/2013 14:53:28
#
# Bounding box of geometry = (202422,444152,-0.501386) to (202456,444179,20.7279).

mtllib 3741445.mtl

# Coordinates for object 'IndexedFaceSet'
v  202450.109375 444178.781250 -0.501386 
v  202450.109375 444178.781250 20.727919 
v  202450.406250 444178.031250 -0.500375 
v  202450.406250 444178.031250 5.936225 
v  202455.640625 444164.531250 -0.483544 
v  202455.640625 444164.531250 5.936227 
v  202456.171875 444163.156250 -0.483544 
v  202456.171875 444163.156250 20.727917 
# 8 vertices

vt 0.0 0.000176 0.0
vt 0.0 1.000000 0.0
vt 0.696759 0.089139 0.0
vt 0.696764 0.951904 0.0
vt 0.999156 0.089084 0.0
vt 0.999157 0.0 0.0
vt 0.999951 0.951796 0.0
vt 1.000000 0.999814 0.0
# 8 texture vertices

vn  0.929807 0.368048 0.0 
vn  0.932284 0.361726 0.000142 
vn  0.932369 0.361509 0.000383 
vn  0.932798 0.360399 0.0 
# 4 normals

usemtl surface

o IndexedFaceSet
g IndexedFaceSet

s off
f 8/1/2 6/3/2 2/2/2
f 6/3/4 8/1/4 7/6/4
f 2/2/1 4/4/1 1/8/1
f 4/4/3 2/2/3 6/3/3
f 7/6/4 5/5/4 6/3/4
f 3/7/1 1/8/1 4/4/1
# 6 polygons

# Coordinates for object 'IndexedFaceSet #1'
v  202428.156250 444152.281250 -0.483533 
v  202428.156250 444152.281250 17.718054 
v  202449.703125 444160.625000 17.718044 
v  202449.703125 444160.625000 20.727917 
v  202456.171875 444163.156250 -0.483544 
v  202456.171875 444163.156250 20.727917 
# 6 vertices

vt 0.0 0.000194 0.0
vt 0.000629 1.000000 0.0
vt 0.857920 0.999701 0.0
vt 0.858076 0.231352 0.0
vt 0.999926 0.231319 0.0
vt 1.000000 0.0 0.0
# 6 texture vertices

vn  0.361108 -0.932524 0.0 
vn  0.361869 -0.932228 -0.001036 
vn  0.364399 -0.931243 0.0 
# 3 normals

usemtl surface__2

o IndexedFaceSet__1_0
g IndexedFaceSet__1_0

s off
f 14/14/7 12/13/7 11/12/7
f 14/14/7 11/12/7 13/9/7
f 9/10/6 13/9/6 11/12/6
f 9/10/5 11/12/5 10/11/5
# 4 polygons

# Coordinates for object 'IndexedFaceSet #2'
v  202443.640625 444176.250000 20.727919 
v  202449.703125 444160.625000 20.727917 
v  202450.109375 444178.781250 20.727919 
v  202456.171875 444163.156250 20.727917 
# 4 vertices

vt 0.0 0.0 0.0
vt 0.0 1.000000 0.0
vt 0.500000 0.0 0.0
vt 0.500000 1.000000 0.0
# 4 texture vertices

vn  0.0 0.0 1.0 
# 1 normals

usemtl surface__3

o IndexedFaceSet__2_0
g IndexedFaceSet__2_0

s off
f 15/16/8 16/15/8 18/17/8
f 18/17/8 17/18/8 15/16/8
# 2 polygons

# Coordinates for object 'IndexedFaceSet #3'
v  202422.093750 444167.906250 -0.501373 
v  202422.093750 444167.906250 17.719805 
v  202443.640625 444176.250000 17.719793 
v  202443.640625 444176.250000 20.727919 
v  202450.109375 444178.781250 -0.501386 
v  202450.109375 444178.781250 20.727919 
# 6 vertices

vt 0.0 0.000194 0.0
vt 0.000629 1.000000 0.0
vt 0.857920 0.999701 0.0
vt 0.858076 0.231352 0.0
vt 0.999926 0.231319 0.0
vt 1.000000 0.0 0.0
# 6 texture vertices

vn  -0.364399 0.931243 0.0 
vn  -0.361869 0.932228 0.001035 
vn  -0.361108 0.932524 0.0 
# 3 normals

usemtl surface__2

o IndexedFaceSet__3_0
g IndexedFaceSet__3_0

s off
f 24/24/9 21/22/9 22/23/9
f 21/22/9 24/24/9 23/19/9
f 21/22/11 19/20/11 20/21/11
f 19/20/10 21/22/10 23/19/10
# 4 polygons

# Coordinates for object 'IndexedFaceSet #4'
v  202443.640625 444176.250000 17.719793 
v  202443.640625 444176.250000 20.727919 
v  202449.703125 444160.625000 17.718044 
v  202449.703125 444160.625000 20.727917 
# 4 vertices

vt 0.0 0.0 0.0
vt 0.0 0.999419 0.0
vt 0.999982 0.999999 0.0
vt 1.000000 0.0 0.0
# 4 texture vertices

vn  -0.932284 -0.361726 0.0 
# 1 normals

usemtl surface__4

o IndexedFaceSet__4_0
g IndexedFaceSet__4_0

s off
f 25/25/12 27/28/12 28/27/12
f 28/27/12 26/26/12 25/25/12
# 2 polygons

# Coordinates for object 'IndexedFaceSet #5'
v  202422.093750 444167.906250 -0.501373 
v  202422.093750 444167.906250 17.719805 
v  202428.156250 444152.281250 -0.483533 
v  202428.156250 444152.281250 17.718054 
# 4 vertices

vt 0.0 0.000093 0.0
vt 0.0 0.997890 0.0
vt 0.999997 0.0 0.0
vt 1.000000 1.000000 0.0
# 4 texture vertices

vn  -0.932284 -0.361726 0.0 
# 1 normals

usemtl surface__5

o IndexedFaceSet__5_0
g IndexedFaceSet__5_0

s off
f 29/32/13 31/31/13 30/30/13
f 32/29/13 30/30/13 31/31/13
# 2 polygons

# Coordinates for object 'IndexedFaceSet #6'
v  202422.093750 444167.906250 17.719805 
v  202428.156250 444152.281250 17.718054 
v  202443.640625 444176.250000 17.719793 
v  202449.703125 444160.625000 17.718044 
# 4 vertices

vt 0.0 0.0 0.0
vt 0.0 1.000000 0.0
vt 0.999999 0.0 0.0
vt 1.000000 1.000000 0.0
# 4 texture vertices

vn  0.000038 -0.000097 1.0 
# 1 normals

usemtl surface__6

o IndexedFaceSet__6_0
g IndexedFaceSet__6_0

s off
f 33/34/14 34/33/14 36/35/14
f 36/35/14 35/36/14 33/34/14
# 2 polygons

# Coordinates for object 'IndexedFaceSet #7'
v  202441.828125 444174.687500 -0.500368 
v  202441.828125 444174.687500 5.936234 
v  202447.062500 444161.218750 -0.483535 
v  202447.062500 444161.218750 5.936234 
# 4 vertices

vt 0.0 0.997387 0.0
vt 0.000468 0.000041 0.0
vt 0.999583 1.000000 0.0
vt 1.000000 0.0 0.0
# 4 texture vertices

vn  0.932086 0.362238 0.0 
# 1 normals

usemtl surface__7

o IndexedFaceSet__7_0
g IndexedFaceSet__7_0

s off
f 38/39/15 40/37/15 39/38/15
f 39/38/15 37/40/15 38/39/15
# 2 polygons

# Coordinates for object 'IndexedFaceSet #8'
v  202441.828125 444174.687500 -0.500368 
v  202441.828125 444174.687500 5.936234 
v  202450.406250 444178.031250 -0.500375 
v  202450.406250 444178.031250 5.936225 
# 4 vertices

vt 0.0 0.000560 0.0
vt 0.000125 1.000000 0.0
vt 0.999882 0.0 0.0
vt 1.000000 0.999583 0.0
# 4 texture vertices

vn  0.363183 -0.931718 0.0 
# 1 normals

usemtl surface__8

o IndexedFaceSet__8_0
g IndexedFaceSet__8_0

s off
f 44/44/16 42/42/16 43/43/16
f 41/41/16 43/43/16 42/42/16
# 2 polygons

# Coordinates for object 'IndexedFaceSet #9'
v  202441.828125 444174.687500 5.936234 
v  202447.062500 444161.218750 5.936234 
v  202450.406250 444178.031250 5.936225 
v  202455.640625 444164.531250 5.936227 
# 4 vertices

vt 0.0 0.0 0.0
vt 0.0 1.000000 0.0
vt 1.000000 0.0 0.0
vt 1.000000 1.000000 0.0
# 4 texture vertices

vn  0.0 0.0 -1.0 
# 1 normals

usemtl surface__4

o IndexedFaceSet__9_0
g IndexedFaceSet__9_0

s off
f 47/45/17 48/47/17 45/46/17
f 46/48/17 45/46/17 48/47/17
# 2 polygons

# Coordinates for object 'IndexedFaceSet #10'
v  202447.062500 444161.218750 -0.483535 
v  202447.062500 444161.218750 5.936234 
v  202455.640625 444164.531250 -0.483544 
v  202455.640625 444164.531250 5.936227 
# 4 vertices

vt 0.0 0.0 0.0
vt 0.000107 0.999378 0.0
vt 0.999928 0.000483 0.0
vt 1.000000 1.000000 0.0
# 4 texture vertices

vn  -0.360231 0.932863 0.0 
# 1 normals

usemtl surface__9

o IndexedFaceSet__10_0
g IndexedFaceSet__10_0

s off
f 50/52/18 52/50/18 49/51/18
f 51/49/18 49/51/18 52/50/18
# 2 polygons
