# Converted by Daum Communications 
# Date/time of export: 08/22/2013 14:53:33
#
# Bounding box of geometry = (203908,443808,-0.47952) to (203930,443831,21.7913).

mtllib 3741769.mtl

# Coordinates for object 'IndexedFaceSet'
v  203907.671875 443825.343750 21.046610 
v  203913.140625 443809.093750 21.046600 
v  203913.312500 443808.875000 21.046604 
v  203913.500000 443808.812500 21.046600 
v  203913.687500 443808.843750 21.046608 
v  203922.453125 443830.750000 21.046608 
v  203928.875000 443814.375000 21.046600 
v  203928.984375 443814.500000 21.046600 
v  203929.062500 443814.625000 21.046600 
v  203929.078125 443814.750000 21.046600 
# 10 vertices

vt 0.0 0.0 0.0
vt 0.0 0.956802 0.0
vt 0.976163 0.0 0.0
vt 0.983567 1.000000 0.0
vt 0.990731 0.996255 0.0
vt 0.990994 0.005456 0.0
vt 0.996232 0.989395 0.0
vt 0.997719 0.014759 0.0
vt 1.000000 0.024929 0.0
vt 1.000000 0.980755 0.0
# 10 texture vertices

vn  -0.000034 -0.000043 1.0 
vn  -0.000006 0.000018 1.0 
vn  0.0 0.0 1.0 
vn  0.000035 0.000045 1.0 
# 4 normals

usemtl surface

o IndexedFaceSet
g IndexedFaceSet

s off
f 2/3/4 3/6/4 4/8/4
f 2/3/3 6/2/3 1/1/3
f 7/10/3 6/2/3 2/3/3
f 5/9/1 2/3/1 4/8/1
f 7/10/3 10/4/3 6/2/3
f 10/4/3 8/7/3 9/5/3
f 8/7/3 10/4/3 7/10/3
f 7/10/2 2/3/2 5/9/2
# 8 polygons

# Coordinates for object 'IndexedFaceSet #1'
v  203911.609375 443812.218750 21.791256 
v  203912.234375 443812.437500 21.791256 
v  203913.093750 443808.125000 21.791254 
v  203928.296875 443818.125000 21.791254 
v  203929.734375 443814.187500 21.791254 
# 5 vertices

vt 0.0 0.0 0.0
vt 0.0 1.000000 0.0
vt 0.038278 1.000000 0.0
vt 1.000000 0.0 0.0
vt 1.000000 0.963698 0.0
# 5 texture vertices

vn  0.0 0.0 1.0 
# 1 normals

usemtl surface__2

o IndexedFaceSet__1_0
g IndexedFaceSet__1_0

s off
f 12/13/5 11/12/5 13/11/5
f 15/14/5 14/15/5 12/13/5
f 15/14/5 12/13/5 13/11/5
# 3 polygons

# Coordinates for object 'IndexedFaceSet #2'
v  203913.312500 443808.875000 -0.479517 
v  203913.312500 443808.875000 21.046604 
v  203913.500000 443808.812500 -0.479519 
v  203913.500000 443808.812500 21.046600 
# 4 vertices

vt 0.0 0.000337 0.0
vt 0.0 1.000000 0.0
vt 1.000000 0.0 0.0
vt 1.000000 0.999626 0.0
# 4 texture vertices

vn  -0.316228 -0.948683 0.0 
# 1 normals

usemtl surface__3

o IndexedFaceSet__2_0
g IndexedFaceSet__2_0

s off
f 19/17/6 17/16/6 16/18/6
f 16/18/6 18/19/6 19/17/6
# 2 polygons

# Coordinates for object 'IndexedFaceSet #3'
v  203913.140625 443809.093750 -0.479519 
v  203913.140625 443809.093750 21.046600 
v  203913.312500 443808.875000 -0.479517 
v  203913.312500 443808.875000 21.046604 
# 4 vertices

vt 0.0 0.000337 0.0
vt 0.0 1.000000 0.0
vt 1.000000 0.0 0.0
vt 1.000000 0.999626 0.0
# 4 texture vertices

vn  -0.786318 -0.617822 0.0 
# 1 normals

usemtl surface__3

o IndexedFaceSet__3_0
g IndexedFaceSet__3_0

s off
f 23/21/7 21/20/7 20/22/7
f 20/22/7 22/23/7 23/21/7
# 2 polygons

# Coordinates for object 'IndexedFaceSet #4'
v  203907.671875 443825.343750 -0.479507 
v  203907.671875 443825.343750 21.046610 
v  203913.140625 443809.093750 -0.479519 
v  203913.140625 443809.093750 21.046600 
# 4 vertices

vt 0.0 1.000000 0.0
vt 0.000513 0.000228 0.0
vt 0.999950 0.999482 0.0
vt 1.000000 0.0 0.0
# 4 texture vertices

vn  -0.947768 -0.318960 0.0 
# 1 normals

usemtl surface__4

o IndexedFaceSet__4_0
g IndexedFaceSet__4_0

s off
f 27/25/8 25/24/8 24/26/8
f 24/26/8 26/27/8 27/25/8
# 2 polygons

# Coordinates for object 'IndexedFaceSet #5'
v  203907.671875 443825.343750 -0.479507 
v  203907.671875 443825.343750 21.046610 
v  203922.453125 443830.750000 -0.479514 
v  203922.453125 443830.750000 21.046608 
# 4 vertices

vt 0.0 0.0 0.0
vt 0.0 1.000000 0.0
vt 0.999992 0.0 0.0
vt 1.000000 1.000000 0.0
# 4 texture vertices

vn  -0.343496 0.939154 0.0 
# 1 normals

usemtl surface__2

o IndexedFaceSet__5_0
g IndexedFaceSet__5_0

s off
f 31/30/9 30/31/9 28/29/9
f 28/29/9 29/28/9 31/30/9
# 2 polygons

# Coordinates for object 'IndexedFaceSet #6'
v  203922.453125 443830.750000 -0.479514 
v  203922.453125 443830.750000 21.046608 
v  203929.078125 443814.750000 -0.479520 
v  203929.078125 443814.750000 21.046600 
# 4 vertices

vt 0.0 1.000000 0.0
vt 0.000513 0.000228 0.0
vt 0.999950 0.999482 0.0
vt 1.000000 0.0 0.0
# 4 texture vertices

vn  0.923929 0.382564 0.0 
# 1 normals

usemtl surface__4

o IndexedFaceSet__6_0
g IndexedFaceSet__6_0

s off
f 33/32/10 35/33/10 32/34/10
f 34/35/10 32/34/10 35/33/10
# 2 polygons

# Coordinates for object 'IndexedFaceSet #7'
v  203929.062500 443814.625000 -0.479519 
v  203929.062500 443814.625000 21.046600 
v  203929.078125 443814.750000 -0.479520 
v  203929.078125 443814.750000 21.046600 
# 4 vertices

vt 0.0 0.004864 0.0
vt 0.0 1.000000 0.0
vt 0.999999 0.0 0.0
vt 1.000000 0.995129 0.0
# 4 texture vertices

vn  0.992278 -0.124035 0.0 
# 1 normals

usemtl surface__5

o IndexedFaceSet__7_0
g IndexedFaceSet__7_0

s off
f 39/37/11 37/36/11 36/38/11
f 36/38/11 38/39/11 39/37/11
# 2 polygons

# Coordinates for object 'IndexedFaceSet #8'
v  203928.984375 443814.500000 -0.479520 
v  203928.984375 443814.500000 21.046600 
v  203929.062500 443814.625000 -0.479519 
v  203929.062500 443814.625000 21.046600 
# 4 vertices

vt 0.0 0.003582 0.0
vt 0.0 1.000000 0.0
vt 0.999999 0.0 0.0
vt 1.000000 0.996338 0.0
# 4 texture vertices

vn  0.847998 -0.529999 0.0 
# 1 normals

usemtl surface__6

o IndexedFaceSet__8_0
g IndexedFaceSet__8_0

s off
f 43/41/12 41/40/12 42/43/12
f 40/42/12 42/43/12 41/40/12
# 2 polygons

# Coordinates for object 'IndexedFaceSet #9'
v  203928.875000 443814.375000 -0.479520 
v  203928.875000 443814.375000 21.046600 
v  203928.984375 443814.500000 -0.479520 
v  203928.984375 443814.500000 21.046600 
# 4 vertices

vt 0.0 0.007946 0.0
vt 0.0 1.000000 0.0
vt 0.999999 0.0 0.0
vt 1.000000 0.992062 0.0
# 4 texture vertices

vn  0.752577 -0.658505 0.0 
# 1 normals

usemtl surface__7

o IndexedFaceSet__9_0
g IndexedFaceSet__9_0

s off
f 47/45/13 45/44/13 44/46/13
f 44/46/13 46/47/13 47/45/13
# 2 polygons

# Coordinates for object 'IndexedFaceSet #10'
v  203911.921875 443812.312500 21.039762 
v  203912.234375 443812.437500 21.039762 
v  203913.281250 443808.593750 21.039762 
v  203927.921875 443818.000000 21.039762 
v  203929.234375 443814.406250 21.039761 
# 5 vertices

vt 0.0 1.000000 0.0
vt 0.000061 0.0 0.0
vt 0.960221 0.999992 0.0
vt 1.000000 0.0 0.0
vt 1.000000 0.020077 0.0
# 5 texture vertices

vn  0.0 0.0 -1.0 
# 1 normals

usemtl surface__8

o IndexedFaceSet__10_0
g IndexedFaceSet__10_0

s off
f 51/50/14 52/48/14 49/52/14
f 50/49/14 48/51/14 49/52/14
f 50/49/14 49/52/14 52/48/14
# 3 polygons

# Coordinates for object 'IndexedFaceSet #11'
v  203913.500000 443808.812500 -0.479519 
v  203913.500000 443808.812500 21.046600 
v  203913.687500 443808.843750 -0.479514 
v  203913.687500 443808.843750 21.046608 
# 4 vertices

vt 0.0 1.000000 0.0
vt 0.0 0.006282 0.0
vt 0.999999 0.993684 0.0
vt 1.000000 0.0 0.0
# 4 texture vertices

vn  0.164399 -0.986394 0.0 
# 1 normals

usemtl surface__9

o IndexedFaceSet__11_0
g IndexedFaceSet__11_0

s off
f 56/53/15 54/54/15 55/55/15
f 53/56/15 55/55/15 54/54/15
# 2 polygons

# Coordinates for object 'IndexedFaceSet #12'
v  203927.921875 443818.000000 21.039762 
v  203928.296875 443818.125000 21.791254 
v  203929.234375 443814.406250 21.039761 
v  203929.734375 443814.187500 21.791254 
# 4 vertices

vt 0.0 0.0 0.0
vt 0.377803 0.000016 0.0
vt 0.683080 1.000000 0.0
vt 1.000000 0.910890 0.0
# 4 texture vertices

vn  0.831398 0.303641 -0.465380 
vn  0.831647 0.303617 -0.464951 
# 2 normals

usemtl surface__10

o IndexedFaceSet__12_0
g IndexedFaceSet__12_0

s off
f 60/57/17 59/58/17 58/59/17
f 57/60/16 58/59/16 59/58/16
# 2 polygons

# Coordinates for object 'IndexedFaceSet #13'
v  203916.562500 443810.750000 -0.479512 
v  203916.562500 443810.750000 5.232701 
v  203918.281250 443811.375000 -0.479515 
v  203918.281250 443811.375000 5.232700 
# 4 vertices

vt 0.0 1.000000 0.0
vt 0.0 0.000323 0.0
vt 0.999994 0.998980 0.0
vt 1.000000 0.0 0.0
# 4 texture vertices

vn  0.341743 -0.939793 0.0 
# 1 normals

usemtl surface__11

o IndexedFaceSet__13_0
g IndexedFaceSet__13_0

s off
f 64/62/18 62/61/18 63/64/18
f 61/63/18 63/64/18 62/61/18
# 2 polygons

# Coordinates for object 'IndexedFaceSet #14'
v  203918.281250 443811.375000 -0.479515 
v  203918.281250 443811.375000 5.232700 
v  203918.546875 443810.625000 -0.479515 
v  203918.546875 443810.625000 5.232700 
# 4 vertices

vt 0.0 0.000901 0.0
vt 0.000020 1.000000 0.0
vt 0.999976 0.0 0.0
vt 1.000000 0.999078 0.0
# 4 texture vertices

vn  -0.942627 -0.333847 0.0 
# 1 normals

usemtl surface__12

o IndexedFaceSet__14_0
g IndexedFaceSet__14_0

s off
f 68/66/19 66/65/19 65/67/19
f 65/67/19 67/68/19 68/66/19
# 2 polygons

# Coordinates for object 'IndexedFaceSet #15'
v  203916.562500 443810.750000 5.232701 
v  203916.843750 443810.000000 5.232701 
v  203918.281250 443811.375000 5.232700 
v  203918.546875 443810.625000 5.232700 
# 4 vertices

vt 0.0 0.999972 0.0
vt 0.000103 0.0 0.0
vt 0.999899 1.000000 0.0
vt 1.000000 0.000038 0.0
# 4 texture vertices

vn  0.0 0.0 -1.0 
# 1 normals

usemtl surface__13

o IndexedFaceSet__15_0
g IndexedFaceSet__15_0

s off
f 72/69/20 70/70/20 69/72/20
f 69/72/20 71/71/20 72/69/20
# 2 polygons

# Coordinates for object 'IndexedFaceSet #16'
v  203916.562500 443810.750000 -0.479512 
v  203916.562500 443810.750000 5.232701 
v  203916.843750 443810.000000 -0.479513 
v  203916.843750 443810.000000 5.232701 
# 4 vertices

vt 0.0 1.000000 0.0
vt 0.000012 0.000189 0.0
vt 0.999989 0.999804 0.0
vt 1.000000 0.0 0.0
# 4 texture vertices

vn  0.936329 0.351123 0.0 
# 1 normals

usemtl surface__14

o IndexedFaceSet__16_0
g IndexedFaceSet__16_0

s off
f 74/73/21 76/74/21 73/75/21
f 75/76/21 73/75/21 76/74/21
# 2 polygons

# Coordinates for object 'IndexedFaceSet #17'
v  203913.093750 443808.125000 21.791254 
v  203913.281250 443808.593750 21.039762 
v  203929.234375 443814.406250 21.039761 
v  203929.734375 443814.187500 21.791254 
# 4 vertices

vt 0.0 0.0 0.0
vt 0.125035 0.0 0.0
vt 0.913151 1.000000 0.0
vt 1.000000 0.958183 0.0
# 4 texture vertices

vn  0.306017 -0.839970 -0.448111 
vn  0.306112 -0.840163 -0.447684 
# 2 normals

usemtl surface__15

o IndexedFaceSet__17_0
g IndexedFaceSet__17_0

s off
f 79/80/22 80/79/22 77/77/22
f 77/77/23 78/78/23 79/80/23
# 2 polygons

# Coordinates for object 'IndexedFaceSet #18'
v  203913.687500 443808.843750 -0.479514 
v  203913.687500 443808.843750 21.046608 
v  203916.843750 443810.000000 -0.479513 
v  203916.843750 443810.000000 5.232701 
v  203918.546875 443810.625000 -0.479515 
v  203918.546875 443810.625000 5.232700 
v  203928.875000 443814.375000 -0.479520 
v  203928.875000 443814.375000 21.046600 
# 8 vertices

vt 0.0 1.000000 0.0
vt 0.000070 0.000075 0.0
vt 0.734659 0.320861 0.0
vt 0.734663 0.208170 0.0
vt 0.999983 0.999858 0.0
vt 0.999995 0.320757 0.0
vt 0.999996 0.208144 0.0
vt 1.000000 0.0 0.0
# 8 texture vertices

vn  0.341286 -0.939959 0.0 
vn  0.342209 -0.939624 -0.000682 
vn  0.343981 -0.938976 0.0 
vn  0.344508 -0.938783 0.000119 
# 4 normals

usemtl surface__16

o IndexedFaceSet__18_0
g IndexedFaceSet__18_0

s off
f 82/82/27 84/84/27 86/83/27
f 84/84/26 82/82/26 81/88/26
f 88/81/24 86/83/24 87/85/24
f 86/83/25 88/81/25 82/82/25
f 81/88/26 83/87/26 84/84/26
f 87/85/24 86/83/24 85/86/24
# 6 polygons

# Coordinates for object 'IndexedFaceSet #19'
v  203911.609375 443812.218750 21.791256 
v  203911.921875 443812.312500 21.039762 
v  203913.093750 443808.125000 21.791254 
v  203913.281250 443808.593750 21.039762 
# 4 vertices

vt 0.0 1.000000 0.0
vt 0.000225 0.0 0.0
vt 0.999741 0.999996 0.0
vt 1.000000 0.0 0.0
# 4 texture vertices

vn  -0.861764 -0.315015 -0.397653 
vn  -0.858205 -0.311181 -0.408228 
# 2 normals

usemtl surface__17

o IndexedFaceSet__19_0
g IndexedFaceSet__19_0

s off
f 92/92/29 91/90/29 89/89/29
f 89/89/28 90/91/28 92/92/28
# 2 polygons

# Coordinates for object 'IndexedFaceSet #20'
v  203911.609375 443812.218750 21.791256 
v  203911.921875 443812.312500 21.039762 
v  203912.234375 443812.437500 21.039762 
v  203912.234375 443812.437500 21.791256 
# 4 vertices

vt 0.0 0.0 0.0
# 1 texture vertices

vn  -0.371391 0.928477 0.0 
vn  -0.330287 0.943677 -0.019621 
# 2 normals

usemtl surface__18

o IndexedFaceSet__20_0
g IndexedFaceSet__20_0

s off
f 96/93/30 95/93/30 94/93/30
f 94/93/31 93/93/31 96/93/31
# 2 polygons

# Coordinates for object 'IndexedFaceSet #21'
v  203912.234375 443812.437500 21.039762 
v  203912.234375 443812.437500 21.791256 
v  203927.921875 443818.000000 21.039762 
v  203928.296875 443818.125000 21.791254 
# 4 vertices

vt 0.0 1.000000 0.0
vt 0.000661 0.0 0.0
vt 0.999344 0.999997 0.0
vt 1.000000 0.0 0.0
# 4 texture vertices

vn  -0.334195 0.942504 0.0 
vn  -0.333763 0.942606 0.009761 
# 2 normals

usemtl surface__19

o IndexedFaceSet__21_0
g IndexedFaceSet__21_0

s off
f 100/94/33 99/96/33 98/95/33
f 97/97/32 98/95/32 99/96/32
# 2 polygons
