# Converted by Daum Communications 
# Date/time of export: 08/22/2013 14:53:36
#
# Bounding box of geometry = (201962,445588,-1.14782) to (201992,445631,17.3281).

mtllib 4465940.mtl

# Coordinates for object 'IndexedFaceSet'
v  201961.734375 445624.250000 -1.092893 
v  201961.734375 445624.250000 16.955822 
v  201974.968750 445587.968750 -1.147810 
v  201974.968750 445587.968750 17.328058 
# 4 vertices

vt 0.0 1.000000 0.0
vt 0.020147 0.0 0.0
vt 0.997024 0.0 0.0
vt 1.000000 0.999989 0.0
# 4 texture vertices

vn  -0.939450 -0.342685 0.0 
# 1 normals

usemtl surface

o IndexedFaceSet
g IndexedFaceSet

s off
f 4/1/1 2/2/1 3/4/1
f 1/3/1 3/4/1 2/2/1
# 2 polygons

# Coordinates for object 'IndexedFaceSet #1'
v  201979.187500 445630.625000 -1.092905 
v  201979.187500 445630.625000 16.955812 
v  201992.421875 445594.343750 -1.147818 
v  201992.421875 445594.343750 17.328049 
# 4 vertices

vt 0.0 0.997032 0.0
vt 0.000673 0.0 0.0
vt 0.999333 1.000000 0.0
vt 1.000000 0.0 0.0
# 4 texture vertices

vn  0.939450 0.342685 0.0 
# 1 normals

usemtl surface__2

o IndexedFaceSet__1_0
g IndexedFaceSet__1_0

s off
f 7/8/2 5/6/2 6/5/2
f 6/5/2 8/7/2 7/8/2
# 2 polygons

# Coordinates for object 'IndexedFaceSet #2'
v  201974.968750 445587.968750 -1.147810 
v  201974.968750 445587.968750 17.328058 
v  201992.421875 445594.343750 -1.147818 
v  201992.421875 445594.343750 17.328049 
# 4 vertices

vt 0.0 1.000000 0.0
vt 0.000352 0.000014 0.0
vt 0.999710 0.999977 0.0
vt 1.000000 0.0 0.0
# 4 texture vertices

vn  0.343093 -0.939301 0.0 
# 1 normals

usemtl surface__3

o IndexedFaceSet__2_0
g IndexedFaceSet__2_0

s off
f 12/9/3 10/10/3 9/12/3
f 9/12/3 11/11/3 12/9/3
# 2 polygons

# Coordinates for object 'IndexedFaceSet #3'
v  201961.734375 445624.250000 16.955822 
v  201974.968750 445587.968750 17.328058 
v  201979.187500 445630.625000 16.955812 
v  201992.421875 445594.343750 17.328049 
# 4 vertices

vt 0.0 0.0 0.0
vt 0.0 1.000000 0.0
vt 1.000000 0.0 0.0
vt 1.000000 1.000000 0.0
# 4 texture vertices

vn  -0.003306 0.009053 0.999954 
# 1 normals

usemtl surface__4

o IndexedFaceSet__3_0
g IndexedFaceSet__3_0

s off
f 16/13/4 15/15/4 13/16/4
f 13/16/4 14/14/4 16/13/4
# 2 polygons

# Coordinates for object 'IndexedFaceSet #4'
v  201961.734375 445624.250000 -1.092893 
v  201961.734375 445624.250000 16.955822 
v  201979.187500 445630.625000 -1.092905 
v  201979.187500 445630.625000 16.955812 
# 4 vertices

vt 0.0 0.0 0.0
vt 0.000141 1.000000 0.0
vt 0.999796 0.000281 0.0
vt 1.000000 0.999895 0.0
# 4 texture vertices

vn  -0.343093 0.939301 0.0 
# 1 normals

usemtl surface__5

o IndexedFaceSet__4_0
g IndexedFaceSet__4_0

s off
f 18/17/5 20/19/5 17/18/5
f 19/20/5 17/18/5 20/19/5
# 2 polygons
