# Converted by Daum Communications 
# Date/time of export: 08/22/2013 14:53:35
#
# Bounding box of geometry = (202161,445082,-1.00898) to (202186,445102,12.0067).

mtllib 4465537.mtl

# Coordinates for object 'IndexedFaceSet'
v  202161.109375 445094.218750 -1.008965 
v  202161.109375 445094.218750 10.169513 
v  202165.984375 445081.843750 -1.001006 
v  202165.984375 445081.843750 10.169511 
# 4 vertices

vt 0.0 0.000046 0.0
vt 0.0 1.000000 0.0
vt 0.999290 0.999936 0.0
vt 1.000000 0.0 0.0
# 4 texture vertices

vn  -0.930408 -0.366525 0.0 
# 1 normals

usemtl surface

o IndexedFaceSet
g IndexedFaceSet

s off
f 4/2/1 2/1/1 3/3/1
f 1/4/1 3/3/1 2/1/1
# 2 polygons

# Coordinates for object 'IndexedFaceSet #1'
v  202181.312500 445102.187500 -1.008976 
v  202181.312500 445102.187500 10.169501 
v  202186.187500 445089.812500 -1.001016 
v  202186.187500 445089.812500 10.169499 
# 4 vertices

vt 0.0 0.000046 0.0
vt 0.0 1.000000 0.0
vt 0.999290 0.999936 0.0
vt 1.000000 0.0 0.0
# 4 texture vertices

vn  0.930408 0.366525 0.0 
# 1 normals

usemtl surface

o IndexedFaceSet__1_0
g IndexedFaceSet__1_0

s off
f 7/7/2 5/8/2 6/5/2
f 6/5/2 8/6/2 7/7/2
# 2 polygons

# Coordinates for object 'IndexedFaceSet #2'
v  202165.984375 445081.843750 -1.001006 
v  202165.984375 445081.843750 10.169511 
v  202186.187500 445089.812500 -1.001016 
v  202186.187500 445089.812500 10.169499 
# 4 vertices

vt 0.0 0.0 0.0
vt 0.000036 0.998877 0.0
vt 0.999931 0.000888 0.0
vt 1.000000 1.000000 0.0
# 4 texture vertices

vn  0.366921 -0.930252 0.0 
# 1 normals

usemtl surface__2

o IndexedFaceSet__2_0
g IndexedFaceSet__2_0

s off
f 12/12/3 10/10/3 9/9/3
f 9/9/3 11/11/3 12/12/3
# 2 polygons

# Coordinates for object 'IndexedFaceSet #3'
v  202161.109375 445094.218750 10.169513 
v  202165.984375 445081.843750 10.169511 
v  202181.312500 445102.187500 10.169501 
v  202186.187500 445089.812500 10.169499 
# 4 vertices

vt 0.0 0.0 0.0
vt 0.0 1.000000 0.0
vt 0.500000 0.0 0.0
vt 0.500000 1.000000 0.0
# 4 texture vertices

vn  0.0 0.0 1.0 
# 1 normals

usemtl surface__3

o IndexedFaceSet__3_0
g IndexedFaceSet__3_0

s off
f 16/13/4 15/15/4 13/16/4
f 13/16/4 14/14/4 16/13/4
# 2 polygons

# Coordinates for object 'IndexedFaceSet #4'
v  202161.109375 445094.218750 -1.008965 
v  202161.109375 445094.218750 10.169513 
v  202181.312500 445102.187500 -1.008976 
v  202181.312500 445102.187500 10.169501 
# 4 vertices

vt 0.0 0.001210 0.0
vt 0.000124 1.000000 0.0
vt 0.999914 0.0 0.0
vt 1.000000 0.999079 0.0
# 4 texture vertices

vn  -0.366921 0.930252 0.0 
# 1 normals

usemtl surface__4

o IndexedFaceSet__4_0
g IndexedFaceSet__4_0

s off
f 18/20/5 20/18/5 19/17/5
f 19/17/5 17/19/5 18/20/5
# 2 polygons

# Coordinates for object 'IndexedFaceSet #5'
v  202165.046875 445094.750000 12.006659 
v  202165.500000 445093.593750 12.006659 
v  202166.187500 445095.250000 12.006659 
v  202166.656250 445094.062500 12.006658 
# 4 vertices

vt 0.0 0.0 0.0
vt 0.0 0.972143 0.0
vt 1.000000 0.0 0.0
vt 1.000000 1.000000 0.0
# 4 texture vertices

vn  0.0 0.0 1.0 
# 1 normals

usemtl surface__5

o IndexedFaceSet__5_0
g IndexedFaceSet__5_0

s off
f 24/23/6 23/24/6 21/22/6
f 21/22/6 22/21/6 24/23/6
# 2 polygons

# Coordinates for object 'IndexedFaceSet #6'
v  202166.187500 445095.250000 9.920433 
v  202166.187500 445095.250000 12.006659 
v  202166.656250 445094.062500 9.920432 
v  202166.656250 445094.062500 12.006658 
# 4 vertices

vt 0.0 1.000000 0.0
vt 0.000012 0.000156 0.0
vt 1.000000 0.0 0.0
vt 1.000000 0.999844 0.0
# 4 texture vertices

vn  0.930155 0.367167 0.0 
# 1 normals

usemtl surface__6

o IndexedFaceSet__6_0
g IndexedFaceSet__6_0

s off
f 27/28/7 25/27/7 28/25/7
f 26/26/7 28/25/7 25/27/7
# 2 polygons

# Coordinates for object 'IndexedFaceSet #7'
v  202165.500000 445093.593750 9.920432 
v  202165.500000 445093.593750 12.006659 
v  202166.656250 445094.062500 9.920432 
v  202166.656250 445094.062500 12.006658 
# 4 vertices

vt 0.0 0.0 0.0
vt 0.000161 0.999467 0.0
vt 0.999831 0.000514 0.0
vt 1.000000 1.000000 0.0
# 4 texture vertices

vn  0.375705 -0.926739 0.0 
# 1 normals

usemtl surface__7

o IndexedFaceSet__7_0
g IndexedFaceSet__7_0

s off
f 32/32/8 30/30/8 31/31/8
f 29/29/8 31/31/8 30/30/8
# 2 polygons

# Coordinates for object 'IndexedFaceSet #8'
v  202165.046875 445094.750000 9.920433 
v  202165.046875 445094.750000 12.006659 
v  202165.500000 445093.593750 9.920432 
v  202165.500000 445093.593750 12.006659 
# 4 vertices

vt 0.0 1.000000 0.0
vt 0.000012 0.000156 0.0
vt 1.000000 0.0 0.0
vt 1.000000 0.999844 0.0
# 4 texture vertices

vn  -0.931057 -0.364874 0.0 
# 1 normals

usemtl surface__6

o IndexedFaceSet__8_0
g IndexedFaceSet__8_0

s off
f 36/33/9 34/34/9 35/36/9
f 33/35/9 35/36/9 34/34/9
# 2 polygons

# Coordinates for object 'IndexedFaceSet #9'
v  202165.046875 445094.750000 9.920433 
v  202165.046875 445094.750000 12.006659 
v  202166.187500 445095.250000 9.920433 
v  202166.187500 445095.250000 12.006659 
# 4 vertices

vt 0.0 0.000198 0.0
vt 0.000269 1.000000 0.0
vt 0.999731 0.0 0.0
vt 1.000000 0.999828 0.0
# 4 texture vertices

vn  -0.401477 0.915869 0.0 
# 1 normals

usemtl surface__8

o IndexedFaceSet__9_0
g IndexedFaceSet__9_0

s off
f 38/40/10 40/38/10 37/39/10
f 39/37/10 37/39/10 40/38/10
# 2 polygons
