# Converted by Daum Communications 
# Date/time of export: 08/22/2013 14:53:36
#
# Bounding box of geometry = (201901,445563,-0.496995) to (201920,445580,47.2116).

mtllib 4465807.mtl

# Coordinates for object 'IndexedFaceSet'
v  201908.203125 445568.312500 45.907146 
v  201910.078125 445563.593750 45.914490 
v  201910.265625 445577.875000 45.942867 
v  201913.281250 445570.406250 45.941883 
v  201914.906250 445579.812500 45.914478 
v  201919.875000 445567.656250 45.914490 
# 6 vertices

vt 0.0 0.991471 0.0
vt 0.004515 0.516842 0.0
vt 0.612988 0.519697 0.0
vt 0.617913 0.0 0.0
vt 0.990515 1.000000 0.0
vt 1.000000 0.0 0.0
# 6 texture vertices

vn  -0.006429 -0.000998 0.999979 
vn  0.002071 -0.004995 0.999985 
vn  0.005009 0.002048 0.999985 
vn  0.005282 0.002001 0.999984 
# 4 normals

usemtl surface

o IndexedFaceSet
g IndexedFaceSet

s off
f 2/6/1 4/3/1 1/4/1
f 4/3/2 2/6/2 6/5/2
f 4/3/4 5/1/4 3/2/4
f 5/1/3 4/3/3 6/5/3
# 4 polygons

# Coordinates for object 'IndexedFaceSet #1'
v  201910.140625 445578.031250 -0.477981 
v  201910.265625 445577.875000 45.942867 
v  201914.906250 445579.812500 45.914478 
v  201915.125000 445580.093750 -0.477977 
# 4 vertices

vt 0.0 0.0 0.0
vt 0.057828 0.999231 0.0
vt 0.988745 1.000000 0.0
vt 1.000000 0.000083 0.0
# 4 texture vertices

vn  -0.385252 0.922802 0.004143 
vn  -0.382349 0.924010 0.003799 
# 2 normals

usemtl surface__2

o IndexedFaceSet__1_0
g IndexedFaceSet__1_0

s off
f 8/9/5 9/8/5 7/10/5
f 10/7/6 7/10/6 9/8/6
# 2 polygons

# Coordinates for object 'IndexedFaceSet #2'
v  201908.140625 445568.281250 -0.477988 
v  201908.203125 445568.312500 45.907146 
v  201910.078125 445563.593750 45.914490 
v  201910.140625 445563.468750 -0.496995 
# 4 vertices

vt 0.0 0.000512 0.0
vt 0.0 1.000000 0.0
vt 0.999997 0.0 0.0
vt 1.000000 0.999464 0.0
# 4 texture vertices

vn  -0.929323 -0.369265 0.001501 
vn  -0.923432 -0.383763 -0.000210 
# 2 normals

usemtl surface__3

o IndexedFaceSet__2_0
g IndexedFaceSet__2_0

s off
f 11/14/8 14/13/8 13/11/8
f 13/11/7 12/12/7 11/14/7
# 2 polygons

# Coordinates for object 'IndexedFaceSet #3'
v  201914.906250 445579.812500 45.914478 
v  201915.125000 445580.093750 -0.477977 
v  201915.375000 445579.468750 -0.478910 
v  201915.375000 445579.500000 6.222422 
v  201915.390625 445579.468750 7.121979 
v  201915.390625 445579.468750 9.474995 
v  201917.046875 445575.437500 -0.496990 
v  201917.046875 445575.437500 6.222421 
v  201917.328125 445574.750000 -0.486129 
v  201917.328125 445574.781250 7.121980 
v  201919.875000 445567.656250 45.914490 
v  201920.281250 445567.656250 9.474997 
# 12 vertices

vt 0.0 0.974103 0.0
vt 0.006293 0.000093 0.0
vt 0.785433 0.947642 0.0
vt 0.787110 0.0 0.0
vt 0.836099 0.948185 0.0
vt 0.836696 0.570595 0.0
vt 0.855449 0.949730 0.0
vt 0.855940 0.624479 0.0
vt 0.999230 1.000000 0.0
vt 0.999300 0.951003 0.0
vt 0.999821 0.572493 0.0
vt 1.000000 0.626635 0.0
# 12 texture vertices

vn  0.874888 0.484274 0.007061 
vn  0.919941 0.392053 -0.001610 
vn  0.920331 0.391141 0.0 
vn  0.923893 0.382511 0.010300 
vn  0.924118 0.381969 -0.010273 
vn  0.924748 0.380569 -0.002842 
vn  0.925547 0.378633 0.0 
vn  0.925625 0.378340 0.008735 
vn  0.928474 0.371392 -0.001732 
vn  0.937809 0.347126 -0.004230 
# 10 normals

usemtl surface__4

o IndexedFaceSet__3_0
g IndexedFaceSet__3_0

s off
f 20/17/12 25/16/12 26/18/12
f 16/23/9 15/15/9 20/17/9
f 20/17/16 15/15/16 25/16/16
f 16/23/11 20/17/11 19/19/11
f 24/20/13 22/22/13 19/19/13
f 22/22/15 23/25/15 21/26/15
f 23/25/10 22/22/10 24/20/10
f 18/21/17 17/24/17 16/23/17
f 18/21/18 16/23/18 19/19/18
f 22/22/14 18/21/14 19/19/14
# 10 polygons

# Coordinates for object 'IndexedFaceSet #4'
v  201910.078125 445563.593750 45.914490 
v  201910.140625 445563.468750 -0.496995 
v  201915.125000 445565.531250 -0.496993 
v  201915.125000 445565.531250 9.474995 
v  201919.875000 445567.656250 45.914490 
v  201920.281250 445567.656250 9.474997 
# 6 vertices

vt 0.0 0.000020 0.0
vt 0.002391 0.999956 0.0
vt 0.489491 0.215122 0.0
vt 0.492897 0.0 0.0
vt 0.970294 1.000000 0.0
vt 1.000000 0.215112 0.0
# 6 texture vertices

vn  0.377216 -0.926121 0.003002 
vn  0.381028 -0.924554 0.004248 
vn  0.382352 -0.924017 0.0 
vn  0.383043 -0.923722 0.003937 
# 4 normals

usemtl surface__5

o IndexedFaceSet__4_0
g IndexedFaceSet__4_0

s off
f 32/32/20 31/31/20 30/29/20
f 30/29/22 31/31/22 27/28/22
f 30/29/21 28/27/21 29/30/21
f 28/27/19 30/29/19 27/28/19
# 4 polygons

# Coordinates for object 'IndexedFaceSet #5'
v  201900.796875 445574.156250 -0.449044 
v  201900.859375 445573.968750 47.211563 
v  201905.000000 445575.906250 -0.477981 
v  201910.140625 445578.031250 -0.477981 
v  201910.265625 445577.875000 47.211571 
# 5 vertices

vt 0.0 0.999768 0.0
vt 0.005870 0.0 0.0
vt 0.552722 0.000059 0.0
vt 0.999534 0.000711 0.0
vt 1.000000 1.000000 0.0
# 5 texture vertices

vn  -0.384344 0.923181 0.004136 
vn  -0.383522 0.923522 0.004221 
vn  -0.382018 0.924146 0.004029 
# 3 normals

usemtl surface__6

o IndexedFaceSet__5_0
g IndexedFaceSet__5_0

s off
f 34/37/24 37/33/24 35/35/24
f 35/35/23 33/36/23 34/37/23
f 35/35/25 37/33/25 36/34/25
# 3 polygons

# Coordinates for object 'IndexedFaceSet #6'
v  201903.937500 445566.531250 -0.449046 
v  201903.937500 445566.531250 47.211555 
v  201908.140625 445568.281250 -0.477988 
v  201913.281250 445570.406250 -0.477988 
v  201913.343750 445570.437500 47.211559 
# 5 vertices

vt 0.0 0.000670 0.0
vt 0.000112 1.000000 0.0
vt 0.446699 0.000036 0.0
vt 0.993689 0.0 0.0
vt 1.000000 0.999956 0.0
# 5 texture vertices

vn  0.382021 -0.924154 0.000105 
vn  0.383526 -0.923530 -0.000087 
vn  0.384372 -0.923178 0.0 
# 3 normals

usemtl surface__7

o IndexedFaceSet__6_0
g IndexedFaceSet__6_0

s off
f 42/42/27 39/39/27 40/40/27
f 42/42/26 40/40/26 41/41/26
f 40/40/28 39/39/28 38/38/28
# 3 polygons

# Coordinates for object 'IndexedFaceSet #7'
v  201900.796875 445574.156250 -0.449044 
v  201900.859375 445573.968750 47.211563 
v  201903.937500 445566.531250 -0.449046 
v  201903.937500 445566.531250 47.211555 
# 4 vertices

vt 0.0 0.000512 0.0
vt 0.0 1.000000 0.0
vt 0.999997 0.0 0.0
vt 1.000000 0.999464 0.0
# 4 texture vertices

vn  -0.924639 -0.380845 -0.000286 
vn  -0.923993 -0.382409 0.0 
# 2 normals

usemtl surface__3

o IndexedFaceSet__7_0
g IndexedFaceSet__7_0

s off
f 43/46/29 45/45/29 44/44/29
f 46/43/30 44/44/30 45/45/30
# 2 polygons

# Coordinates for object 'IndexedFaceSet #8'
v  201900.859375 445573.968750 47.211563 
v  201903.937500 445566.531250 47.211555 
v  201910.265625 445577.875000 47.211571 
v  201913.343750 445570.437500 47.211559 
# 4 vertices

vt 0.0 0.0 0.0
vt 0.0 1.000000 0.0
vt 1.000000 0.0 0.0
vt 1.000000 1.000000 0.0
# 4 texture vertices

vn  0.0 -0.000001 1.0 
# 1 normals

usemtl surface__8

o IndexedFaceSet__8_0
g IndexedFaceSet__8_0

s off
f 47/48/31 48/47/31 49/50/31
f 50/49/31 49/50/31 48/47/31
# 2 polygons

# Coordinates for object 'IndexedFaceSet #9'
v  201910.265625 445577.875000 45.411354 
v  201910.265625 445577.875000 47.211571 
v  201913.343750 445570.437500 45.662567 
v  201913.343750 445570.437500 47.211559 
# 4 vertices

vt 0.0 1.000000 0.0
vt 0.000066 0.0 0.0
vt 0.860283 0.000011 0.0
vt 1.000000 0.999247 0.0
# 4 texture vertices

vn  0.923993 0.382409 0.0 
# 1 normals

usemtl surface__9

o IndexedFaceSet__9_0
g IndexedFaceSet__9_0

s off
f 52/51/32 54/52/32 53/53/32
f 53/53/32 51/54/32 52/51/32
# 2 polygons

# Coordinates for object 'IndexedFaceSet #10'
v  201910.875000 445577.625000 -0.478913 
v  201910.875000 445577.625000 6.222419 
v  201912.546875 445573.562500 -0.496992 
v  201912.546875 445573.562500 6.222418 
# 4 vertices

vt 0.0 0.006480 0.0
vt 0.002703 1.000000 0.0
vt 0.999969 0.0 0.0
vt 1.000000 0.992724 0.0
# 4 texture vertices

vn  0.924752 0.380571 0.0 
# 1 normals

usemtl surface__10

o IndexedFaceSet__10_0
g IndexedFaceSet__10_0

s off
f 56/55/33 58/56/33 55/57/33
f 57/58/33 55/57/33 58/56/33
# 2 polygons

# Coordinates for object 'IndexedFaceSet #11'
v  201910.875000 445577.625000 -0.478913 
v  201910.875000 445577.625000 6.222419 
v  201915.375000 445579.468750 -0.478910 
v  201915.375000 445579.500000 6.222422 
# 4 vertices

vt 0.0 0.000088 0.0
vt 0.000197 1.000000 0.0
vt 0.999827 0.0 0.0
vt 1.000000 0.999991 0.0
# 4 texture vertices

vn  0.379130 -0.925333 0.004315 
vn  0.384615 -0.923077 0.0 
# 2 normals

usemtl surface__11

o IndexedFaceSet__11_0
g IndexedFaceSet__11_0

s off
f 62/62/35 60/60/35 59/59/35
f 59/59/34 61/61/34 62/62/34
# 2 polygons

# Coordinates for object 'IndexedFaceSet #12'
v  201910.875000 445577.625000 6.222419 
v  201912.546875 445573.562500 6.222418 
v  201915.375000 445579.500000 6.222422 
v  201917.046875 445575.437500 6.222421 
# 4 vertices

vt 0.0 0.001449 0.0
vt 0.000092 1.000000 0.0
vt 0.999851 0.0 0.0
vt 1.000000 0.997846 0.0
# 4 texture vertices

vn  0.0 0.0 -1.0 
# 1 normals

usemtl surface__12

o IndexedFaceSet__12_0
g IndexedFaceSet__12_0

s off
f 65/64/36 66/63/36 64/65/36
f 64/65/36 63/66/36 65/64/36
# 2 polygons

# Coordinates for object 'IndexedFaceSet #13'
v  201912.546875 445573.562500 -0.496992 
v  201912.546875 445573.562500 6.222418 
v  201917.046875 445575.437500 -0.496990 
v  201917.046875 445575.437500 6.222421 
# 4 vertices

vt 0.0 0.0 0.0
vt 0.000197 0.999829 0.0
vt 0.999778 0.000062 0.0
vt 1.000000 1.000000 0.0
# 4 texture vertices

vn  -0.384615 0.923077 0.0 
# 1 normals

usemtl surface__13

o IndexedFaceSet__13_0
g IndexedFaceSet__13_0

s off
f 68/70/37 70/68/37 69/67/37
f 69/67/37 67/69/37 68/70/37
# 2 polygons

# Coordinates for object 'IndexedFaceSet #14'
v  201914.921875 445566.000000 9.474994 
v  201914.937500 445566.000000 -0.496994 
v  201919.718750 445567.968750 -0.496991 
v  201919.718750 445567.968750 9.474997 
# 4 vertices

vt 0.0 0.0 0.0
vt 0.000333 1.000000 0.0
vt 0.999643 0.000569 0.0
vt 1.000000 0.999841 0.0
# 4 texture vertices

vn  0.379689 -0.925114 0.000595 
vn  0.380750 -0.924678 0.0 
# 2 normals

usemtl surface__14

o IndexedFaceSet__14_0
g IndexedFaceSet__14_0

s off
f 74/72/38 71/71/38 72/73/38
f 72/73/39 73/74/39 74/72/39
# 2 polygons

# Coordinates for object 'IndexedFaceSet #15'
v  201914.921875 445566.000000 9.474994 
v  201915.125000 445565.531250 9.474995 
v  201919.718750 445567.968750 9.474997 
v  201920.281250 445567.656250 9.474997 
# 4 vertices

vt 0.0 0.0 0.0
vt 0.0 1.000000 0.0
vt 1.000000 0.0 0.0
vt 1.000000 1.000000 0.0
# 4 texture vertices

vn  0.0 0.0 -1.0 
# 1 normals

usemtl surface__15

o IndexedFaceSet__15_0
g IndexedFaceSet__15_0

s off
f 77/76/40 78/75/40 76/77/40
f 76/77/40 75/78/40 77/76/40
# 2 polygons

# Coordinates for object 'IndexedFaceSet #16'
v  201914.921875 445566.000000 9.474994 
v  201914.937500 445566.000000 -0.496994 
v  201915.125000 445565.531250 -0.496993 
v  201915.125000 445565.531250 9.474995 
# 4 vertices

vt 0.0 0.0 0.0
vt 0.0 1.000000 0.0
vt 1.000000 0.0 0.0
vt 1.000000 1.000000 0.0
# 4 texture vertices

vn  0.917555 0.397607 0.001438 
vn  0.928477 0.371391 0.0 
# 2 normals

usemtl surface__8

o IndexedFaceSet__16_0
g IndexedFaceSet__16_0

s off
f 79/82/41 82/80/41 80/81/41
f 81/79/42 80/81/42 82/80/42
# 2 polygons

# Coordinates for object 'IndexedFaceSet #17'
v  201915.000000 445579.312500 7.121979 
v  201915.000000 445579.312500 9.474995 
v  201916.953125 445574.593750 -0.486129 
v  201916.953125 445574.625000 7.121979 
v  201919.703125 445567.968750 -0.496990 
v  201919.703125 445567.968750 9.474996 
# 6 vertices

vt 0.0 0.0 0.0
vt 0.001306 1.000000 0.0
vt 0.584414 0.0 0.0
vt 0.586175 0.762948 0.0
vt 0.999707 0.762173 0.0
vt 1.000000 0.998128 0.0
# 6 texture vertices

vn  0.923077 0.384615 0.0 
vn  0.923590 0.383379 -0.001575 
vn  0.923746 0.382986 0.003802 
vn  0.924228 0.381841 0.0 
# 4 normals

usemtl surface__16

o IndexedFaceSet__17_0
g IndexedFaceSet__17_0

s off
f 88/84/45 86/86/45 84/88/45
f 86/86/46 88/84/46 87/83/46
f 84/88/43 86/86/43 83/87/43
f 85/85/44 86/86/44 87/83/44
# 4 polygons

# Coordinates for object 'IndexedFaceSet #18'
v  201916.953125 445574.593750 -0.486129 
v  201916.953125 445574.625000 7.121979 
v  201917.328125 445574.750000 -0.486129 
v  201917.328125 445574.781250 7.121980 
# 4 vertices

vt 0.0 0.0 0.0
vt 0.0 1.000000 0.0
vt 0.999991 1.000000 0.0
vt 1.000000 0.0 0.0
# 4 texture vertices

vn  0.384613 -0.923070 0.003791 
# 1 normals

usemtl surface__8

o IndexedFaceSet__18_0
g IndexedFaceSet__18_0

s off
f 92/90/47 90/91/47 91/89/47
f 89/92/47 91/89/47 90/91/47
# 2 polygons

# Coordinates for object 'IndexedFaceSet #19'
v  201915.000000 445579.312500 7.121979 
v  201915.390625 445579.468750 7.121979 
v  201916.953125 445574.625000 7.121979 
v  201917.328125 445574.781250 7.121980 
# 4 vertices

vt 0.0 0.0 0.0
vt 0.0 1.000000 0.0
vt 1.000000 0.0 0.0
vt 1.000000 1.000000 0.0
# 4 texture vertices

vn  -0.000002 0.0 1.0 
# 1 normals

usemtl surface__8

o IndexedFaceSet__19_0
g IndexedFaceSet__19_0

s off
f 95/93/48 96/94/48 93/95/48
f 94/96/48 93/95/48 96/94/48
# 2 polygons

# Coordinates for object 'IndexedFaceSet #20'
v  201915.000000 445579.312500 7.121979 
v  201915.000000 445579.312500 9.474995 
v  201915.390625 445579.468750 7.121979 
v  201915.390625 445579.468750 9.474995 
# 4 vertices

vt 0.0 0.0 0.0
vt 0.0 1.000000 0.0
vt 1.000000 0.0 0.0
vt 1.000000 1.000000 0.0
# 4 texture vertices

vn  0.371391 -0.928477 0.0 
# 1 normals

usemtl surface__8

o IndexedFaceSet__20_0
g IndexedFaceSet__20_0

s off
f 100/98/49 98/100/49 97/99/49
f 97/99/49 99/97/49 100/98/49
# 2 polygons

# Coordinates for object 'IndexedFaceSet #21'
v  201915.000000 445579.312500 9.474995 
v  201915.390625 445579.468750 9.474995 
v  201919.703125 445567.968750 9.474996 
v  201920.281250 445567.656250 9.474997 
# 4 vertices

vt 0.0 0.000115 0.0
vt 0.0 1.000000 0.0
vt 1.000000 0.0 0.0
vt 1.000000 0.999885 0.0
# 4 texture vertices

vn  0.000002 0.0 -1.0 
# 1 normals

usemtl surface__17

o IndexedFaceSet__21_0
g IndexedFaceSet__21_0

s off
f 102/103/50 104/101/50 103/102/50
f 103/102/50 101/104/50 102/103/50
# 2 polygons
