# Converted by Daum Communications 
# Date/time of export: 08/22/2013 14:53:36
#
# Bounding box of geometry = (202071,445119,-1.703) to (202088,445139,22.2813).

mtllib 4465951.mtl

# Coordinates for object 'IndexedFaceSet'
v  202070.625000 445134.843750 19.061951 
v  202081.609375 445119.218750 19.061956 
v  202083.062500 445139.062500 19.061956 
v  202087.640625 445127.625000 19.061956 
# 4 vertices

vt 0.0 0.0 0.0
vt 0.194412 1.000000 0.0
vt 0.821601 0.775850 0.0
vt 1.000000 0.0 0.0
# 4 texture vertices

vn  0.0 0.0 1.0 
# 1 normals

usemtl surface

o IndexedFaceSet
g IndexedFaceSet

s off
f 1/1/1 2/4/1 4/3/1
f 4/3/1 3/2/1 1/1/1
# 2 polygons

# Coordinates for object 'IndexedFaceSet #1'
v  202070.625000 445134.843750 -1.703000 
v  202070.625000 445134.843750 19.061951 
v  202083.062500 445139.062500 -1.702999 
v  202083.062500 445139.062500 19.061956 
# 4 vertices

vt 0.0 0.000237 0.0
vt 0.000033 1.000000 0.0
vt 0.999859 0.0 0.0
vt 1.000000 0.999804 0.0
# 4 texture vertices

vn  -0.321220 0.947005 0.0 
# 1 normals

usemtl surface__2

o IndexedFaceSet__1_0
g IndexedFaceSet__1_0

s off
f 6/5/2 8/6/2 7/8/2
f 7/8/2 5/7/2 6/5/2
# 2 polygons

# Coordinates for object 'IndexedFaceSet #2'
v  202070.625000 445134.843750 -1.703000 
v  202070.625000 445134.843750 19.061951 
v  202081.609375 445119.218750 -1.703000 
v  202081.609375 445119.218750 19.061956 
# 4 vertices

vt 0.0 0.000068 0.0
vt 0.0 1.000000 0.0
vt 0.999999 0.0 0.0
vt 1.000000 0.999931 0.0
# 4 texture vertices

vn  -0.818077 -0.575108 0.0 
# 1 normals

usemtl surface__3

o IndexedFaceSet__2_0
g IndexedFaceSet__2_0

s off
f 11/11/3 12/9/3 9/12/3
f 10/10/3 9/12/3 12/9/3
# 2 polygons

# Coordinates for object 'IndexedFaceSet #3'
v  202081.609375 445119.218750 -1.703000 
v  202081.609375 445119.218750 19.061956 
v  202087.640625 445127.625000 -1.702999 
v  202087.640625 445127.625000 19.061956 
# 4 vertices

vt 0.0 0.000237 0.0
vt 0.000033 1.000000 0.0
vt 0.999859 0.0 0.0
vt 1.000000 0.999804 0.0
# 4 texture vertices

vn  0.812507 -0.582951 0.0 
# 1 normals

usemtl surface__2

o IndexedFaceSet__3_0
g IndexedFaceSet__3_0

s off
f 16/14/4 14/13/4 13/15/4
f 13/15/4 15/16/4 16/14/4
# 2 polygons

# Coordinates for object 'IndexedFaceSet #4'
v  202083.062500 445139.062500 -1.702999 
v  202083.062500 445139.062500 19.061956 
v  202087.640625 445127.625000 -1.702999 
v  202087.640625 445127.625000 19.061956 
# 4 vertices

vt 0.0 0.000068 0.0
vt 0.0 1.000000 0.0
vt 0.999999 0.0 0.0
vt 1.000000 0.999931 0.0
# 4 texture vertices

vn  0.928389 0.371609 0.0 
# 1 normals

usemtl surface__3

o IndexedFaceSet__4_0
g IndexedFaceSet__4_0

s off
f 18/18/5 20/17/5 17/20/5
f 19/19/5 17/20/5 20/17/5
# 2 polygons

# Coordinates for object 'IndexedFaceSet #5'
v  202081.609375 445119.218750 19.061956 
v  202081.609375 445119.218750 22.281263 
v  202084.968750 445123.906250 19.061956 
v  202084.968750 445123.906250 22.281004 
# 4 vertices

vt 0.0 0.000018 0.0
vt 0.000523 0.999990 0.0
vt 0.999549 0.0 0.0
vt 1.000000 1.000000 0.0
# 4 texture vertices

vn  0.812817 -0.582519 0.0 
# 1 normals

usemtl surface__4

o IndexedFaceSet__5_0
g IndexedFaceSet__5_0

s off
f 24/22/6 22/21/6 21/23/6
f 21/23/6 23/24/6 24/22/6
# 2 polygons

# Coordinates for object 'IndexedFaceSet #6'
v  202080.234375 445121.281250 19.061956 
v  202080.234375 445121.281250 22.281267 
v  202083.078125 445125.250000 19.061956 
v  202083.078125 445125.250000 22.281004 
# 4 vertices

vt 0.0 0.999040 0.0
vt 0.000588 0.0 0.0
vt 0.998798 1.000000 0.0
vt 1.000000 0.000011 0.0
# 4 texture vertices

vn  -0.812868 0.582448 0.0 
# 1 normals

usemtl surface__5

o IndexedFaceSet__6_0
g IndexedFaceSet__6_0

s off
f 26/28/7 28/27/7 25/26/7
f 27/25/7 25/26/7 28/27/7
# 2 polygons

# Coordinates for object 'IndexedFaceSet #7'
v  202080.234375 445121.281250 19.061956 
v  202080.234375 445121.281250 22.281267 
v  202081.609375 445119.218750 19.061956 
v  202081.609375 445119.218750 22.281263 
# 4 vertices

vt 0.0 1.000000 0.0
vt 0.000199 0.000082 0.0
vt 0.999830 0.999911 0.0
vt 1.000000 0.0 0.0
# 4 texture vertices

vn  -0.832050 -0.554700 0.0 
# 1 normals

usemtl surface__6

o IndexedFaceSet__7_0
g IndexedFaceSet__7_0

s off
f 31/32/8 32/30/8 30/29/8
f 30/29/8 29/31/8 31/32/8
# 2 polygons

# Coordinates for object 'IndexedFaceSet #8'
v  202080.234375 445121.281250 22.281267 
v  202081.609375 445119.218750 22.281263 
v  202083.078125 445125.250000 22.281004 
v  202084.968750 445123.906250 22.281004 
# 4 vertices

vt 0.0 0.0 0.0
vt 0.0 1.000000 0.0
vt 0.999997 0.0 0.0
vt 1.000000 0.849005 0.0
# 4 texture vertices

vn  0.000031 0.000044 1.0 
vn  0.000041 0.000026 1.0 
# 2 normals

usemtl surface__7

o IndexedFaceSet__8_0
g IndexedFaceSet__8_0

s off
f 33/36/10 34/34/10 36/33/10
f 36/33/9 35/35/9 33/36/9
# 2 polygons

# Coordinates for object 'IndexedFaceSet #9'
v  202083.078125 445125.250000 19.061956 
v  202083.078125 445125.250000 22.281004 
v  202084.968750 445123.906250 19.061956 
v  202084.968750 445123.906250 22.281004 
# 4 vertices

vt 0.0 1.000000 0.0
vt 0.000199 0.000082 0.0
vt 0.999830 0.999911 0.0
vt 1.000000 0.0 0.0
# 4 texture vertices

vn  0.579325 0.815097 0.0 
# 1 normals

usemtl surface__6

o IndexedFaceSet__9_0
g IndexedFaceSet__9_0

s off
f 38/37/11 40/38/11 39/40/11
f 39/40/11 37/39/11 38/37/11
# 2 polygons
