# Converted by Daum Communications 
# Date/time of export: 08/22/2013 14:53:38
#
# Bounding box of geometry = (202086,445087,-1.16255) to (202102,445109,50.3363).

mtllib 4466118.mtl

# Coordinates for object 'IndexedFaceSet'
v  202095.828125 445108.812500 -1.116253 
v  202095.828125 445108.812500 47.852345 
v  202102.000000 445090.343750 -1.162546 
v  202102.000000 445090.343750 47.852356 
# 4 vertices

vt 0.0 0.000320 0.0
vt 0.0 1.000000 0.0
vt 0.999057 0.999670 0.0
vt 1.000000 0.0 0.0
# 4 texture vertices

vn  0.948442 0.316950 0.0 
# 1 normals

usemtl surface

o IndexedFaceSet
g IndexedFaceSet

s off
f 2/2/1 4/1/1 1/3/1
f 3/4/1 1/3/1 4/1/1
# 2 polygons

# Coordinates for object 'IndexedFaceSet #1'
v  202085.921875 445100.343750 -1.116250 
v  202085.921875 445100.343750 47.852367 
v  202090.656250 445086.562500 -1.162549 
v  202090.656250 445086.562500 47.852375 
# 4 vertices

vt 0.0 0.006115 0.0
vt 0.000961 1.000000 0.0
vt 0.999998 0.0 0.0
vt 1.000000 0.993908 0.0
# 4 texture vertices

vn  -0.945748 -0.324900 0.0 
# 1 normals

usemtl surface__2

o IndexedFaceSet__1_0
g IndexedFaceSet__1_0

s off
f 5/8/2 7/7/2 8/5/2
f 8/5/2 6/6/2 5/8/2
# 2 polygons

# Coordinates for object 'IndexedFaceSet #2'
v  202085.921875 445100.343750 47.852367 
v  202090.656250 445086.562500 47.852375 
v  202093.125000 445107.906250 47.852352 
v  202095.828125 445108.812500 47.852345 
v  202102.000000 445090.343750 47.852356 
# 5 vertices

vt 0.0 0.0 0.0
vt 0.0 0.988776 0.0
vt 0.747702 1.000000 0.0
vt 1.000000 0.0 0.0
vt 1.000000 0.235281 0.0
# 5 texture vertices

vn  0.000001 0.000001 1.0 
# 1 normals

usemtl surface__3

o IndexedFaceSet__2_0
g IndexedFaceSet__2_0

s off
f 9/11/3 10/10/3 13/9/3
f 11/13/3 13/9/3 12/12/3
f 13/9/3 11/13/3 9/11/3
# 3 polygons

# Coordinates for object 'IndexedFaceSet #3'
v  202095.828125 445108.812500 47.852345 
v  202095.843750 445108.750000 50.336273 
v  202100.531250 445094.718750 50.336262 
v  202100.578125 445094.718750 47.867107 
# 4 vertices

vt 0.0 0.992874 0.0
vt 0.052419 0.000051 0.0
vt 0.968399 1.000000 0.0
vt 1.000000 0.0 0.0
# 4 texture vertices

vn  0.947625 0.319379 0.002075 
vn  0.948318 0.316810 0.018003 
# 2 normals

usemtl surface__4

o IndexedFaceSet__3_0
g IndexedFaceSet__3_0

s off
f 15/14/5 16/15/5 17/17/5
f 17/17/4 14/16/4 15/14/4
# 2 polygons

# Coordinates for object 'IndexedFaceSet #4'
v  202090.656250 445086.562500 -1.162549 
v  202090.656250 445086.562500 47.852375 
v  202102.000000 445090.343750 -1.162546 
v  202102.000000 445090.343750 47.852356 
# 4 vertices

vt 0.0 0.000589 0.0
vt 0.000171 1.000000 0.0
vt 0.999966 0.999225 0.0
vt 1.000000 0.0 0.0
# 4 texture vertices

vn  0.316228 -0.948683 0.0 
# 1 normals

usemtl surface__5

o IndexedFaceSet__4_0
g IndexedFaceSet__4_0

s off
f 21/21/6 19/20/6 18/19/6
f 18/19/6 20/18/6 21/21/6
# 2 polygons

# Coordinates for object 'IndexedFaceSet #5'
v  202093.562500 445108.093750 47.881760 
v  202093.609375 445108.000000 50.336273 
v  202098.296875 445093.968750 47.867111 
v  202098.296875 445093.968750 50.336266 
# 4 vertices

vt 0.0 0.000025 0.0
vt 0.001262 1.000000 0.0
vt 0.999987 0.0 0.0
vt 1.000000 0.999876 0.0
# 4 texture vertices

vn  -0.948472 -0.316861 0.0 
vn  -0.948139 -0.317800 0.005969 
# 2 normals

usemtl surface__6

o IndexedFaceSet__5_0
g IndexedFaceSet__5_0

s off
f 22/24/8 24/22/8 23/25/8
f 25/23/7 23/25/7 24/22/7
# 2 polygons

# Coordinates for object 'IndexedFaceSet #6'
v  202093.125000 445107.906250 -1.116255 
v  202093.125000 445107.906250 47.852352 
v  202095.828125 445108.812500 -1.116253 
v  202095.828125 445108.812500 47.852345 
# 4 vertices

vt 0.0 1.000000 0.0
vt 0.000035 0.001170 0.0
vt 0.999999 0.998752 0.0
vt 1.000000 0.0 0.0
# 4 texture vertices

vn  -0.317871 0.948134 0.0 
# 1 normals

usemtl surface__7

o IndexedFaceSet__6_0
g IndexedFaceSet__6_0

s off
f 27/26/9 29/27/9 28/29/9
f 28/29/9 26/28/9 27/26/9
# 2 polygons

# Coordinates for object 'IndexedFaceSet #7'
v  202085.921875 445100.343750 -1.116250 
v  202085.921875 445100.343750 47.852367 
v  202093.125000 445107.906250 -1.116255 
v  202093.125000 445107.906250 47.852352 
# 4 vertices

vt 0.0 0.999608 0.0
vt 0.000103 0.0 0.0
vt 0.999928 1.000000 0.0
vt 1.000000 0.000210 0.0
# 4 texture vertices

vn  -0.724102 0.689693 0.0 
# 1 normals

usemtl surface__8

o IndexedFaceSet__7_0
g IndexedFaceSet__7_0

s off
f 31/33/10 33/32/10 32/30/10
f 32/30/10 30/31/10 31/33/10
# 2 polygons

# Coordinates for object 'IndexedFaceSet #8'
v  202093.562500 445108.093750 47.881760 
v  202093.609375 445108.000000 50.336273 
v  202095.828125 445108.812500 47.852345 
v  202095.843750 445108.750000 50.336273 
# 4 vertices

vt 0.0 0.972320 0.0
vt 0.006089 0.0 0.0
vt 0.993989 0.001057 0.0
vt 1.000000 1.000000 0.0
# 4 texture vertices

vn  -0.317932 0.947172 0.042249 
vn  -0.301983 0.952962 0.025878 
# 2 normals

usemtl surface__9

o IndexedFaceSet__8_0
g IndexedFaceSet__8_0

s off
f 35/35/11 37/36/11 34/34/11
f 36/37/12 34/34/12 37/36/12
# 2 polygons

# Coordinates for object 'IndexedFaceSet #9'
v  202093.609375 445108.000000 50.336273 
v  202095.843750 445108.750000 50.336273 
v  202098.296875 445093.968750 50.336266 
v  202100.531250 445094.718750 50.336262 
# 4 vertices

vt 0.0 0.750000 0.0
vt 0.0 1.000000 0.0
vt 1.000000 0.750001 0.0
vt 1.000000 1.000000 0.0
# 4 texture vertices

vn  0.000002 0.0 1.0 
# 1 normals

usemtl surface__10

o IndexedFaceSet__9_0
g IndexedFaceSet__9_0

s off
f 38/41/13 40/39/13 41/38/13
f 41/38/13 39/40/13 38/41/13
# 2 polygons

# Coordinates for object 'IndexedFaceSet #10'
v  202098.296875 445093.968750 47.867111 
v  202098.296875 445093.968750 50.336266 
v  202100.531250 445094.718750 50.336262 
v  202100.578125 445094.718750 47.867107 
# 4 vertices

vt 0.0 0.0 0.0
vt 0.011202 1.000000 0.0
vt 0.989080 0.0 0.0
vt 1.000000 0.987830 0.0
# 4 texture vertices

vn  0.312316 -0.949960 0.005929 
vn  0.318216 -0.948018 0.0 
# 2 normals

usemtl surface__11

o IndexedFaceSet__10_0
g IndexedFaceSet__10_0

s off
f 44/44/15 43/45/15 42/43/15
f 42/43/14 45/42/14 44/44/14
# 2 polygons
