# Converted by Daum Communications 
# Date/time of export: 08/22/2013 14:53:37
#
# Bounding box of geometry = (202081,445280,-0.937339) to (202108,445315,45.6783).

mtllib 4466071.mtl

# Coordinates for object 'IndexedFaceSet'
v  202080.968750 445307.156250 -0.826914 
v  202080.968750 445307.156250 28.947853 
v  202090.765625 445280.218750 -0.907603 
v  202090.765625 445280.218750 28.947853 
# 4 vertices

vt 0.0 0.997307 0.0
vt 0.002763 0.0 0.0
vt 0.997246 1.000000 0.0
vt 1.000000 0.0 0.0
# 4 texture vertices

vn  -0.939777 -0.341787 0.0 
# 1 normals

usemtl surface

o IndexedFaceSet
g IndexedFaceSet

s off
f 4/3/1 2/1/1 1/2/1
f 1/2/1 3/4/1 4/3/1
# 2 polygons

# Coordinates for object 'IndexedFaceSet #1'
v  202090.765625 445280.218750 -0.907603 
v  202090.765625 445280.218750 28.947853 
v  202107.671875 445286.343750 -0.907593 
v  202107.671875 445286.343750 28.947863 
# 4 vertices

vt 0.0 0.000250 0.0
vt 0.000403 1.000000 0.0
vt 0.999946 0.0 0.0
vt 1.000000 0.999648 0.0
# 4 texture vertices

vn  0.340627 -0.940199 0.0 
# 1 normals

usemtl surface__2

o IndexedFaceSet__1_0
g IndexedFaceSet__1_0

s off
f 8/8/2 6/7/2 7/6/2
f 5/5/2 7/6/2 6/7/2
# 2 polygons

# Coordinates for object 'IndexedFaceSet #2'
v  202080.968750 445307.156250 28.947853 
v  202090.765625 445280.218750 28.947853 
v  202097.875000 445313.312500 28.947859 
v  202107.671875 445286.343750 28.947863 
# 4 vertices

vt 0.0 0.0 0.0
vt 0.0 1.000000 0.0
vt 1.000000 0.0 0.0
vt 1.000000 1.000000 0.0
# 4 texture vertices

vn  0.0 0.0 1.0 
# 1 normals

usemtl surface__3

o IndexedFaceSet__2_0
g IndexedFaceSet__2_0

s off
f 12/12/3 11/10/3 9/9/3
f 9/9/3 10/11/3 12/12/3
# 2 polygons

# Coordinates for object 'IndexedFaceSet #3'
v  202090.343750 445312.156250 -0.937338 
v  202090.343750 445312.156250 31.592815 
v  202098.015625 445314.937500 -0.937339 
v  202098.015625 445314.937500 31.673309 
# 4 vertices

vt 0.0 0.000187 0.0
vt 0.000040 1.000000 0.0
vt 0.997490 0.0 0.0
vt 1.000000 0.999909 0.0
# 4 texture vertices

vn  -0.340820 0.940128 0.0 
# 1 normals

usemtl surface__4

o IndexedFaceSet__3_0
g IndexedFaceSet__3_0

s off
f 14/15/4 16/16/4 15/14/4
f 15/14/4 13/13/4 14/15/4
# 2 polygons

# Coordinates for object 'IndexedFaceSet #4'
v  202092.109375 445307.250000 -0.937337 
v  202092.109375 445307.250000 31.592819 
v  202099.796875 445310.031250 -0.937337 
v  202099.796875 445310.031250 31.673309 
# 4 vertices

vt 0.0 1.000000 0.0
vt 0.002649 0.000034 0.0
vt 0.999872 0.999872 0.0
vt 1.000000 0.0 0.0
# 4 texture vertices

vn  0.340208 -0.940350 0.0 
# 1 normals

usemtl surface__5

o IndexedFaceSet__4_0
g IndexedFaceSet__4_0

s off
f 20/17/5 18/18/5 19/19/5
f 17/20/5 19/19/5 18/18/5
# 2 polygons

# Coordinates for object 'IndexedFaceSet #5'
v  202090.343750 445312.156250 -0.937338 
v  202090.343750 445312.156250 31.592815 
v  202092.109375 445307.250000 -0.937337 
v  202092.109375 445307.250000 31.592819 
# 4 vertices

vt 0.0 0.000211 0.0
vt 0.0 1.000000 0.0
vt 0.999999 0.0 0.0
vt 1.000000 0.999782 0.0
# 4 texture vertices

vn  -0.940926 -0.338613 0.0 
# 1 normals

usemtl surface__6

o IndexedFaceSet__5_0
g IndexedFaceSet__5_0

s off
f 24/22/6 22/21/6 21/23/6
f 21/23/6 23/24/6 24/22/6
# 2 polygons

# Coordinates for object 'IndexedFaceSet #6'
v  202080.968750 445307.156250 -0.826914 
v  202080.968750 445307.156250 28.947853 
v  202097.875000 445313.312500 -0.826904 
v  202097.875000 445313.312500 28.947859 
# 4 vertices

vt 0.0 0.000250 0.0
vt 0.000403 1.000000 0.0
vt 0.999946 0.0 0.0
vt 1.000000 0.999648 0.0
# 4 texture vertices

vn  -0.342161 0.939641 0.0 
# 1 normals

usemtl surface__2

o IndexedFaceSet__6_0
g IndexedFaceSet__6_0

s off
f 26/27/7 28/28/7 27/26/7
f 27/26/7 25/25/7 26/27/7
# 2 polygons

# Coordinates for object 'IndexedFaceSet #7'
v  202098.015625 445314.937500 -0.937339 
v  202098.015625 445314.937500 31.673309 
v  202099.796875 445310.031250 -0.937337 
v  202099.796875 445310.031250 31.673309 
# 4 vertices

vt 0.0 1.000000 0.0
vt 0.0 0.000398 0.0
vt 1.000000 0.0 0.0
vt 1.000000 0.999597 0.0
# 4 texture vertices

vn  0.939968 0.341262 0.0 
# 1 normals

usemtl surface__7

o IndexedFaceSet__7_0
g IndexedFaceSet__7_0

s off
f 31/32/8 29/31/8 32/29/8
f 30/30/8 32/29/8 29/31/8
# 2 polygons

# Coordinates for object 'IndexedFaceSet #8'
v  202090.343750 445312.156250 31.592815 
v  202092.109375 445307.250000 31.592819 
v  202098.015625 445314.937500 31.673309 
v  202099.796875 445310.031250 31.673309 
# 4 vertices

vt 0.0 0.0 0.0
vt 0.0 1.000000 0.0
vt 1.000000 0.0 0.0
vt 1.000000 1.000000 0.0
# 4 texture vertices

vn  -0.009271 -0.003366 0.999951 
vn  -0.009264 -0.003333 0.999952 
# 2 normals

usemtl surface__8

o IndexedFaceSet__8_0
g IndexedFaceSet__8_0

s off
f 36/36/9 35/34/9 33/33/9
f 33/33/10 34/35/10 36/36/10
# 2 polygons

# Coordinates for object 'IndexedFaceSet #9'
v  202097.875000 445313.312500 -0.826904 
v  202097.875000 445313.312500 28.947859 
v  202107.671875 445286.343750 -0.907593 
v  202107.671875 445286.343750 28.947863 
# 4 vertices

vt 0.0 0.997307 0.0
vt 0.002763 0.0 0.0
vt 0.997246 1.000000 0.0
vt 1.000000 0.0 0.0
# 4 texture vertices

vn  0.939905 0.341437 0.0 
# 1 normals

usemtl surface

o IndexedFaceSet__9_0
g IndexedFaceSet__9_0

s off
f 39/38/11 37/40/11 40/37/11
f 38/39/11 40/37/11 37/40/11
# 2 polygons

# Coordinates for object 'IndexedFaceSet #10'
v  202085.250000 445302.843750 37.570229 
v  202085.250000 445302.843750 45.678265 
v  202089.203125 445291.937500 37.570225 
v  202089.203125 445291.937500 45.666603 
# 4 vertices

vt 0.0 0.0 0.0
vt 0.000027 1.000000 0.0
vt 0.999968 0.0 0.0
vt 1.000000 0.998493 0.0
# 4 texture vertices

vn  -0.940147 -0.340770 0.0 
# 1 normals

usemtl surface__9

o IndexedFaceSet__10_0
g IndexedFaceSet__10_0

s off
f 44/44/12 42/42/12 41/41/12
f 41/41/12 43/43/12 44/44/12
# 2 polygons

# Coordinates for object 'IndexedFaceSet #11'
v  202098.687500 445307.718750 37.570248 
v  202098.687500 445307.718750 45.678280 
v  202102.656250 445296.812500 37.570240 
v  202102.656250 445296.812500 45.666618 
# 4 vertices

vt 0.0 0.0 0.0
vt 0.000027 1.000000 0.0
vt 0.999968 0.0 0.0
vt 1.000000 0.998493 0.0
# 4 texture vertices

vn  0.939715 0.341959 0.0 
# 1 normals

usemtl surface__9

o IndexedFaceSet__11_0
g IndexedFaceSet__11_0

s off
f 47/47/13 45/45/13 48/48/13
f 46/46/13 48/48/13 45/45/13
# 2 polygons

# Coordinates for object 'IndexedFaceSet #12'
v  202085.250000 445302.843750 37.570229 
v  202085.250000 445302.843750 45.678265 
v  202098.687500 445307.718750 37.570248 
v  202098.687500 445307.718750 45.678280 
# 4 vertices

vt 0.0 0.000780 0.0
vt 0.000060 1.000000 0.0
vt 0.999986 0.0 0.0
vt 1.000000 0.999364 0.0
# 4 texture vertices

vn  -0.341041 0.940048 0.0 
# 1 normals

usemtl surface__10

o IndexedFaceSet__12_0
g IndexedFaceSet__12_0

s off
f 50/52/14 52/50/14 51/49/14
f 51/49/14 49/51/14 50/52/14
# 2 polygons

# Coordinates for object 'IndexedFaceSet #13'
v  202085.250000 445302.843750 37.570229 
v  202089.203125 445291.937500 37.570225 
v  202098.687500 445307.718750 37.570248 
v  202102.656250 445296.812500 37.570240 
# 4 vertices

vt 0.0 1.000000 0.0
vt 0.000800 0.0 0.0
vt 0.999117 0.999998 0.0
vt 1.000000 0.0 0.0
# 4 texture vertices

vn  0.0 0.0 -1.0 
# 1 normals

usemtl surface__11

o IndexedFaceSet__13_0
g IndexedFaceSet__13_0

s off
f 54/54/15 53/56/15 56/53/15
f 55/55/15 56/53/15 53/56/15
# 2 polygons

# Coordinates for object 'IndexedFaceSet #14'
v  202089.203125 445291.937500 37.570225 
v  202089.203125 445291.937500 45.666603 
v  202102.656250 445296.812500 37.570240 
v  202102.656250 445296.812500 45.666618 
# 4 vertices

vt 0.0 0.0 0.0
vt 0.000029 0.997968 0.0
vt 0.999908 1.000000 0.0
vt 1.000000 0.002065 0.0
# 4 texture vertices

vn  0.340691 -0.940175 0.0 
# 1 normals

usemtl surface__12

o IndexedFaceSet__14_0
g IndexedFaceSet__14_0

s off
f 60/59/16 58/58/16 57/57/16
f 57/57/16 59/60/16 60/59/16
# 2 polygons

# Coordinates for object 'IndexedFaceSet #15'
v  202085.250000 445302.843750 45.678265 
v  202089.203125 445291.937500 45.666603 
v  202098.687500 445307.718750 45.678280 
v  202102.656250 445296.812500 45.666618 
# 4 vertices

vt 0.0 0.0 0.0
vt 0.0 1.000000 0.0
vt 1.000000 0.0 0.0
vt 1.000000 1.000000 0.0
# 4 texture vertices

vn  0.000341 -0.000945 1.000000 
# 1 normals

usemtl surface__13

o IndexedFaceSet__15_0
g IndexedFaceSet__15_0

s off
f 64/63/17 63/64/17 62/61/17
f 61/62/17 62/61/17 63/64/17
# 2 polygons

# Coordinates for object 'IndexedFaceSet #16'
v  202084.265625 445308.375000 28.947853 
v  202084.281250 445308.375000 32.108452 
v  202087.734375 445309.625000 28.947857 
v  202087.734375 445309.625000 32.108452 
# 4 vertices

vt 0.0 0.000057 0.0
vt 0.000019 1.000000 0.0
vt 0.999978 0.0 0.0
vt 1.000000 0.999934 0.0
# 4 texture vertices

vn  -0.340376 0.940289 0.0 
vn  -0.339019 0.940778 0.001676 
# 2 normals

usemtl surface__14

o IndexedFaceSet__16_0
g IndexedFaceSet__16_0

s off
f 66/67/19 67/66/19 65/65/19
f 67/66/18 66/67/18 68/68/18
# 2 polygons

# Coordinates for object 'IndexedFaceSet #17'
v  202091.078125 445289.625000 28.947842 
v  202091.093750 445289.625000 32.108437 
v  202094.546875 445290.875000 28.947842 
v  202094.546875 445290.875000 32.108440 
# 4 vertices

vt 0.0 0.0 0.0
vt 0.005471 0.999602 0.0
vt 0.999979 0.000240 0.0
vt 1.000000 1.000000 0.0
# 4 texture vertices

vn  0.339019 -0.940778 -0.001676 
vn  0.340376 -0.940289 0.0 
# 2 normals

usemtl surface__15

o IndexedFaceSet__17_0
g IndexedFaceSet__17_0

s off
f 72/72/21 70/70/21 71/71/21
f 69/69/20 71/71/20 70/70/20
# 2 polygons

# Coordinates for object 'IndexedFaceSet #18'
v  202087.734375 445309.625000 28.947857 
v  202087.734375 445309.625000 32.108452 
v  202094.546875 445290.875000 28.947842 
v  202094.546875 445290.875000 32.108440 
# 4 vertices

vt 0.0 0.000057 0.0
vt 0.000019 1.000000 0.0
vt 0.999978 0.0 0.0
vt 1.000000 0.999934 0.0
# 4 texture vertices

vn  0.939885 0.341491 0.0 
# 1 normals

usemtl surface__14

o IndexedFaceSet__18_0
g IndexedFaceSet__18_0

s off
f 76/76/22 75/75/22 73/73/22
f 73/73/22 74/74/22 76/76/22
# 2 polygons

# Coordinates for object 'IndexedFaceSet #19'
v  202084.281250 445308.375000 32.108452 
v  202087.734375 445309.625000 32.108452 
v  202091.093750 445289.625000 32.108437 
v  202094.546875 445290.875000 32.108440 
# 4 vertices

vt 0.0 0.0 0.0
vt 0.0 1.000000 0.0
vt 0.999995 0.0 0.0
vt 1.000000 1.000000 0.0
# 4 texture vertices

vn  0.0 0.0 1.0 
# 1 normals

usemtl surface__8

o IndexedFaceSet__19_0
g IndexedFaceSet__19_0

s off
f 80/79/23 78/80/23 77/78/23
f 77/78/23 79/77/23 80/79/23
# 2 polygons

# Coordinates for object 'IndexedFaceSet #20'
v  202084.265625 445308.375000 28.947853 
v  202084.281250 445308.375000 32.108452 
v  202091.078125 445289.625000 28.947842 
v  202091.093750 445289.625000 32.108437 
# 4 vertices

vt 0.0 0.000057 0.0
vt 0.000019 1.000000 0.0
vt 0.999978 0.0 0.0
vt 1.000000 0.999934 0.0
# 4 texture vertices

vn  -0.939875 -0.341488 0.004646 
# 1 normals

usemtl surface__14

o IndexedFaceSet__20_0
g IndexedFaceSet__20_0

s off
f 84/84/24 82/82/24 83/83/24
f 81/81/24 83/83/24 82/82/24
# 2 polygons

# Coordinates for object 'IndexedFaceSet #21'
v  202086.390625 445303.250000 28.687689 
v  202086.390625 445303.250000 37.570232 
v  202096.750000 445307.000000 28.687689 
v  202096.750000 445307.000000 37.570244 
# 4 vertices

vt 0.0 0.000126 0.0
vt 0.000125 1.000000 0.0
vt 0.999914 0.0 0.0
vt 1.000000 0.999990 0.0
# 4 texture vertices

vn  -0.340376 0.940289 0.0 
# 1 normals

usemtl surface__16

o IndexedFaceSet__21_0
g IndexedFaceSet__21_0

s off
f 86/88/25 88/86/25 85/87/25
f 87/85/25 85/87/25 88/86/25
# 2 polygons

# Coordinates for object 'IndexedFaceSet #22'
v  202096.750000 445307.000000 28.687689 
v  202096.750000 445307.000000 37.570244 
v  202100.703125 445296.093750 28.687689 
v  202100.703125 445296.093750 37.570232 
# 4 vertices

vt 0.0 0.000126 0.0
vt 0.000125 1.000000 0.0
vt 0.999914 0.0 0.0
vt 1.000000 0.999990 0.0
# 4 texture vertices

vn  0.940147 0.340770 0.0 
# 1 normals

usemtl surface__16

o IndexedFaceSet__22_0
g IndexedFaceSet__22_0

s off
f 91/89/26 89/91/26 92/90/26
f 90/92/26 92/90/26 89/91/26
# 2 polygons

# Coordinates for object 'IndexedFaceSet #23'
v  202090.343750 445292.343750 28.687677 
v  202090.343750 445292.343750 37.570229 
v  202100.703125 445296.093750 28.687689 
v  202100.703125 445296.093750 37.570232 
# 4 vertices

vt 0.0 0.999122 0.0
vt 0.000036 0.0 0.0
vt 0.999908 0.000668 0.0
vt 1.000000 1.000000 0.0
# 4 texture vertices

vn  0.340376 -0.940289 0.0 
# 1 normals

usemtl surface__17

o IndexedFaceSet__23_0
g IndexedFaceSet__23_0

s off
f 96/96/27 94/93/27 95/95/27
f 93/94/27 95/95/27 94/93/27
# 2 polygons

# Coordinates for object 'IndexedFaceSet #24'
v  202086.390625 445303.250000 28.687689 
v  202086.390625 445303.250000 37.570232 
v  202090.343750 445292.343750 28.687677 
v  202090.343750 445292.343750 37.570229 
# 4 vertices

vt 0.0 0.0 0.0
vt 0.000081 1.000000 0.0
vt 0.999919 0.0 0.0
vt 1.000000 0.999975 0.0
# 4 texture vertices

vn  -0.940147 -0.340770 0.0 
# 1 normals

usemtl surface__18

o IndexedFaceSet__24_0
g IndexedFaceSet__24_0

s off
f 100/100/28 98/98/28 97/97/28
f 97/97/28 99/99/28 100/100/28
# 2 polygons
