# Converted by Daum Communications 
# Date/time of export: 08/22/2013 14:53:37
#
# Bounding box of geometry = (201869,445644,-1.65445) to (201889,445666,35.4681).

mtllib 4466034.mtl

# Coordinates for object 'IndexedFaceSet'
v  201869.453125 445661.625000 24.297071 
v  201875.859375 445643.625000 24.297068 
v  201882.703125 445665.531250 24.297075 
v  201882.984375 445666.437500 24.297075 
v  201883.062500 445666.187500 24.297075 
v  201888.531250 445649.156250 24.297068 
v  201889.203125 445648.656250 24.297068 
v  201889.296875 445648.375000 24.297068 
# 8 vertices

vt 0.0 0.0 0.0
vt 0.0 1.000000 0.0
vt 0.021240 1.000000 0.0
vt 0.046426 0.960544 0.0
vt 0.949208 0.960544 0.0
vt 0.984406 0.992682 0.0
vt 0.999338 0.0 0.0
vt 1.000000 0.992682 0.0
# 8 texture vertices

vn  0.0 0.0 1.0 
# 1 normals

usemtl surface

o IndexedFaceSet
g IndexedFaceSet

s off
f 6/2/1 8/7/1 7/1/1
f 8/7/1 6/2/1 2/8/1
f 1/6/1 2/8/1 6/2/1
f 6/2/1 3/3/1 1/6/1
f 5/4/1 4/5/1 3/3/1
f 3/3/1 4/5/1 1/6/1
# 6 polygons

# Coordinates for object 'IndexedFaceSet #1'
v  201869.453125 445661.625000 -1.654448 
v  201869.453125 445661.625000 24.297071 
v  201875.859375 445643.625000 -1.654449 
v  201875.859375 445643.625000 24.297068 
# 4 vertices

vt 0.0 1.000000 0.0
vt 0.0 0.000064 0.0
vt 0.999993 0.999914 0.0
vt 1.000000 0.0 0.0
# 4 texture vertices

vn  -0.942111 -0.335300 0.0 
# 1 normals

usemtl surface__2

o IndexedFaceSet__1_0
g IndexedFaceSet__1_0

s off
f 9/11/2 11/12/2 10/9/2
f 12/10/2 10/9/2 11/12/2
# 2 polygons

# Coordinates for object 'IndexedFaceSet #2'
v  201869.453125 445661.625000 -1.654448 
v  201869.453125 445661.625000 24.297071 
v  201882.984375 445666.437500 -1.654443 
v  201882.984375 445666.437500 24.297075 
# 4 vertices

vt 0.0 0.0 0.0
vt 0.000174 0.999326 0.0
vt 0.999669 0.000391 0.0
vt 1.000000 1.000000 0.0
# 4 texture vertices

vn  -0.335096 0.942184 0.0 
# 1 normals

usemtl surface__3

o IndexedFaceSet__2_0
g IndexedFaceSet__2_0

s off
f 14/16/3 16/14/3 13/15/3
f 15/13/3 13/15/3 16/14/3
# 2 polygons

# Coordinates for object 'IndexedFaceSet #3'
v  201882.984375 445666.437500 -1.654443 
v  201882.984375 445666.437500 24.297075 
v  201883.062500 445666.187500 -1.654443 
v  201883.062500 445666.187500 24.297075 
# 4 vertices

vt 0.0 0.004493 0.0
vt 0.0 1.000000 0.0
vt 0.999999 0.0 0.0
vt 1.000000 0.995471 0.0
# 4 texture vertices

vn  0.954480 0.298275 0.0 
# 1 normals

usemtl surface__4

o IndexedFaceSet__3_0
g IndexedFaceSet__3_0

s off
f 18/18/4 20/17/4 19/19/4
f 19/19/4 17/20/4 18/18/4
# 2 polygons

# Coordinates for object 'IndexedFaceSet #4'
v  201882.703125 445665.531250 -1.654442 
v  201882.703125 445665.531250 24.297075 
v  201883.062500 445666.187500 -1.654443 
v  201883.062500 445666.187500 24.297075 
# 4 vertices

vt 0.0 0.000851 0.0
vt 0.000011 1.000000 0.0
vt 0.999991 0.0 0.0
vt 1.000000 0.999155 0.0
# 4 texture vertices

vn  0.877096 -0.480315 0.0 
# 1 normals

usemtl surface__5

o IndexedFaceSet__4_0
g IndexedFaceSet__4_0

s off
f 24/22/5 22/21/5 23/24/5
f 21/23/5 23/24/5 22/21/5
# 2 polygons

# Coordinates for object 'IndexedFaceSet #5'
v  201882.703125 445665.531250 -1.654442 
v  201882.703125 445665.531250 24.297075 
v  201888.531250 445649.156250 -1.654450 
v  201888.531250 445649.156250 24.297068 
# 4 vertices

vt 0.0 1.000000 0.0
vt 0.0 0.000064 0.0
vt 0.999993 0.999914 0.0
vt 1.000000 0.0 0.0
# 4 texture vertices

vn  0.942107 0.335311 0.0 
# 1 normals

usemtl surface__2

o IndexedFaceSet__5_0
g IndexedFaceSet__5_0

s off
f 26/25/6 28/26/6 27/28/6
f 27/28/6 25/27/6 26/25/6
# 2 polygons

# Coordinates for object 'IndexedFaceSet #6'
v  201888.531250 445649.156250 -1.654450 
v  201888.531250 445649.156250 24.297068 
v  201889.203125 445648.656250 -1.654449 
v  201889.203125 445648.656250 24.297068 
# 4 vertices

vt 0.0 1.000000 0.0
vt 0.0 0.001295 0.0
vt 0.999999 0.0 0.0
vt 1.000000 0.998677 0.0
# 4 texture vertices

vn  0.597011 0.802233 0.0 
# 1 normals

usemtl surface__6

o IndexedFaceSet__6_0
g IndexedFaceSet__6_0

s off
f 30/29/7 32/30/7 31/31/7
f 31/31/7 29/32/7 30/29/7
# 2 polygons

# Coordinates for object 'IndexedFaceSet #7'
v  201889.203125 445648.656250 -1.654449 
v  201889.203125 445648.656250 24.297068 
v  201889.296875 445648.375000 -1.654450 
v  201889.296875 445648.375000 24.297068 
# 4 vertices

vt 0.0 0.011919 0.0
vt 0.0 1.000000 0.0
vt 0.999996 0.0 0.0
vt 1.000000 0.988126 0.0
# 4 texture vertices

vn  0.948683 0.316228 0.0 
# 1 normals

usemtl surface__7

o IndexedFaceSet__7_0
g IndexedFaceSet__7_0

s off
f 34/34/8 36/33/8 33/36/8
f 35/35/8 33/36/8 36/33/8
# 2 polygons

# Coordinates for object 'IndexedFaceSet #8'
v  201875.859375 445643.625000 -1.654449 
v  201875.859375 445643.625000 24.297068 
v  201889.296875 445648.375000 -1.654450 
v  201889.296875 445648.375000 24.297068 
# 4 vertices

vt 0.0 0.000097 0.0
vt 0.000093 1.000000 0.0
vt 0.999856 0.0 0.0
vt 1.000000 0.999954 0.0
# 4 texture vertices

vn  0.333279 -0.942828 0.0 
# 1 normals

usemtl surface__8

o IndexedFaceSet__8_0
g IndexedFaceSet__8_0

s off
f 40/38/9 38/37/9 37/39/9
f 37/39/9 39/40/9 40/38/9
# 2 polygons

# Coordinates for object 'IndexedFaceSet #9'
v  201884.468750 445657.906250 27.353455 
v  201884.468750 445657.906250 35.071133 
v  201885.046875 445656.281250 27.353456 
v  201885.046875 445656.281250 35.032101 
# 4 vertices

vt 0.0 1.000000 0.0
vt 0.005082 0.000410 0.0
vt 0.999986 0.999730 0.0
vt 1.000000 0.0 0.0
# 4 texture vertices

vn  0.942151 0.335188 0.0 
# 1 normals

usemtl surface__9

o IndexedFaceSet__9_0
g IndexedFaceSet__9_0

s off
f 42/41/10 44/42/10 41/43/10
f 43/44/10 41/43/10 44/42/10
# 2 polygons

# Coordinates for object 'IndexedFaceSet #10'
v  201871.859375 445653.406250 27.353456 
v  201871.859375 445653.406250 35.468143 
v  201872.437500 445651.781250 27.353460 
v  201872.437500 445651.781250 35.429108 
# 4 vertices

vt 0.0 1.000000 0.0
vt 0.005082 0.000410 0.0
vt 0.999986 0.999730 0.0
vt 1.000000 0.0 0.0
# 4 texture vertices

vn  -0.942151 -0.335188 0.0 
# 1 normals

usemtl surface__9

o IndexedFaceSet__10_0
g IndexedFaceSet__10_0

s off
f 45/47/11 47/48/11 48/46/11
f 48/46/11 46/45/11 45/47/11
# 2 polygons

# Coordinates for object 'IndexedFaceSet #11'
v  201872.437500 445651.781250 27.353460 
v  201872.437500 445651.781250 35.429108 
v  201885.046875 445656.281250 27.353456 
v  201885.046875 445656.281250 35.032101 
# 4 vertices

vt 0.0 0.0 0.0
vt 0.000148 1.000000 0.0
vt 0.999942 0.000330 0.0
vt 1.000000 0.951452 0.0
# 4 texture vertices

vn  0.336115 -0.941821 0.0 
# 1 normals

usemtl surface__10

o IndexedFaceSet__11_0
g IndexedFaceSet__11_0

s off
f 52/52/12 50/50/12 49/49/12
f 49/49/12 51/51/12 52/52/12
# 2 polygons

# Coordinates for object 'IndexedFaceSet #12'
v  201871.859375 445653.406250 27.353456 
v  201872.437500 445651.781250 27.353460 
v  201884.468750 445657.906250 27.353455 
v  201885.046875 445656.281250 27.353456 
# 4 vertices

vt 0.0 0.0 0.0
vt 0.0 1.000000 0.0
vt 1.000000 0.0 0.0
vt 1.000000 0.999999 0.0
# 4 texture vertices

vn  0.0 -0.000001 -1.0 
# 1 normals

usemtl surface

o IndexedFaceSet__12_0
g IndexedFaceSet__12_0

s off
f 55/55/13 56/56/13 53/53/13
f 54/54/13 53/53/13 56/56/13
# 2 polygons

# Coordinates for object 'IndexedFaceSet #13'
v  201871.859375 445653.406250 27.353456 
v  201871.859375 445653.406250 35.468143 
v  201884.468750 445657.906250 27.353455 
v  201884.468750 445657.906250 35.071133 
# 4 vertices

vt 0.0 0.0 0.0
vt 0.000058 0.948988 0.0
vt 0.999885 0.001921 0.0
vt 1.000000 1.000000 0.0
# 4 texture vertices

vn  -0.336115 0.941821 0.0 
# 1 normals

usemtl surface__11

o IndexedFaceSet__13_0
g IndexedFaceSet__13_0

s off
f 58/60/14 60/58/14 57/59/14
f 59/57/14 57/59/14 60/58/14
# 2 polygons

# Coordinates for object 'IndexedFaceSet #14'
v  201871.859375 445653.406250 35.468143 
v  201872.437500 445651.781250 35.429108 
v  201884.468750 445657.906250 35.071133 
v  201885.046875 445656.281250 35.032101 
# 4 vertices

vt 0.0 0.0 0.0
vt 0.0 1.000000 0.0
vt 1.000000 0.0 0.0
vt 1.000000 1.000000 0.0
# 4 texture vertices

vn  0.035521 -0.011368 0.999304 
# 1 normals

usemtl surface

o IndexedFaceSet__14_0
g IndexedFaceSet__14_0

s off
f 61/62/15 62/61/15 63/64/15
f 64/63/15 63/64/15 62/61/15
# 2 polygons

# Coordinates for object 'IndexedFaceSet #15'
v  201874.125000 445652.406250 23.978336 
v  201874.125000 445652.406250 27.353456 
v  201883.953125 445655.906250 23.978338 
v  201883.953125 445655.906250 27.353456 
# 4 vertices

vt 0.0 0.000949 0.0
vt 0.000036 1.000000 0.0
vt 0.999974 0.0 0.0
vt 1.000000 0.999101 0.0
# 4 texture vertices

vn  0.335482 -0.942046 0.0 
# 1 normals

usemtl surface__12

o IndexedFaceSet__15_0
g IndexedFaceSet__15_0

s off
f 68/68/16 66/66/16 67/67/16
f 65/65/16 67/67/16 66/66/16
# 2 polygons

# Coordinates for object 'IndexedFaceSet #16'
v  201873.546875 445654.031250 23.978336 
v  201873.546875 445654.031250 27.353455 
v  201874.125000 445652.406250 23.978336 
v  201874.125000 445652.406250 27.353456 
# 4 vertices

vt 0.0 0.000110 0.0
vt 0.0 1.000000 0.0
vt 1.000000 0.0 0.0
vt 1.000000 0.999885 0.0
# 4 texture vertices

vn  -0.942151 -0.335188 0.0 
# 1 normals

usemtl surface__13

o IndexedFaceSet__16_0
g IndexedFaceSet__16_0

s off
f 69/72/17 71/71/17 72/69/17
f 72/69/17 70/70/17 69/72/17
# 2 polygons

# Coordinates for object 'IndexedFaceSet #17'
v  201873.546875 445654.031250 23.978336 
v  201873.546875 445654.031250 27.353455 
v  201883.421875 445657.531250 23.978336 
v  201883.421875 445657.531250 27.353455 
# 4 vertices

vt 0.0 0.000949 0.0
vt 0.000036 1.000000 0.0
vt 0.999974 0.0 0.0
vt 1.000000 0.999101 0.0
# 4 texture vertices

vn  -0.334068 0.942549 0.0 
# 1 normals

usemtl surface__12

o IndexedFaceSet__17_0
g IndexedFaceSet__17_0

s off
f 74/74/18 76/76/18 73/73/18
f 75/75/18 73/73/18 76/76/18
# 2 polygons

# Coordinates for object 'IndexedFaceSet #18'
v  201883.421875 445657.531250 23.978336 
v  201883.421875 445657.531250 27.353455 
v  201883.953125 445655.906250 23.978338 
v  201883.953125 445655.906250 27.353456 
# 4 vertices

vt 0.0 0.000110 0.0
vt 0.0 1.000000 0.0
vt 1.000000 0.0 0.0
vt 1.000000 0.999885 0.0
# 4 texture vertices

vn  0.950495 0.310739 0.0 
# 1 normals

usemtl surface__13

o IndexedFaceSet__18_0
g IndexedFaceSet__18_0

s off
f 78/78/19 80/77/19 79/79/19
f 79/79/19 77/80/19 78/78/19
# 2 polygons
