# Converted by Daum Communications 
# Date/time of export: 08/22/2013 14:53:36
#
# Bounding box of geometry = (201798,445740,-0.526002) to (201848,445773,44.8851).

mtllib 4466026.mtl

# Coordinates for object 'IndexedFaceSet'
v  201842.140625 445773.062500 -0.526002 
v  201842.171875 445772.968750 35.468426 
v  201848.234375 445755.937500 -0.526002 
v  201848.234375 445755.937500 35.468418 
# 4 vertices

vt 0.0 0.000032 0.0
vt 0.000013 0.994334 0.0
vt 0.999995 0.0 0.0
vt 1.000000 1.000000 0.0
# 4 texture vertices

vn  0.942093 0.335351 0.0 
vn  0.942130 0.335247 0.000055 
# 2 normals

usemtl surface

o IndexedFaceSet
g IndexedFaceSet

s off
f 2/2/1 4/1/1 3/3/1
f 3/3/2 1/4/2 2/2/2
# 2 polygons

# Coordinates for object 'IndexedFaceSet #1'
v  201797.968750 445757.343750 -0.526001 
v  201798.000000 445757.250000 35.468426 
v  201804.062500 445740.218750 -0.525998 
v  201804.062500 445740.218750 35.468418 
# 4 vertices

vt 0.0 0.000084 0.0
vt 0.000021 0.994380 0.0
vt 0.999992 0.0 0.0
vt 1.000000 1.000000 0.0
# 4 texture vertices

vn  -0.942130 -0.335247 -0.000055 
vn  -0.942093 -0.335351 0.0 
# 2 normals

usemtl surface__2

o IndexedFaceSet__1_0
g IndexedFaceSet__1_0

s off
f 5/8/3 7/7/3 6/6/3
f 8/5/4 6/6/4 7/7/4
# 2 polygons

# Coordinates for object 'IndexedFaceSet #2'
v  201798.000000 445757.250000 35.468426 
v  201804.062500 445740.218750 35.468418 
v  201842.171875 445772.968750 35.468426 
v  201848.234375 445755.937500 35.468418 
# 4 vertices

vt 0.0 0.0 0.0
vt 0.0 1.000000 0.0
vt 1.000000 0.0 0.0
vt 1.000000 1.000000 0.0
# 4 texture vertices

vn  0.0 0.0 1.0 
# 1 normals

usemtl surface__3

o IndexedFaceSet__2_0
g IndexedFaceSet__2_0

s off
f 9/10/5 10/9/5 12/11/5
f 12/11/5 11/12/5 9/10/5
# 2 polygons

# Coordinates for object 'IndexedFaceSet #3'
v  201804.062500 445740.218750 -0.525998 
v  201804.062500 445740.218750 35.468418 
v  201848.234375 445755.937500 -0.526002 
v  201848.234375 445755.937500 35.468418 
# 4 vertices

vt 0.0 1.000000 0.0
vt 0.000099 0.000058 0.0
vt 0.999844 0.0 0.0
vt 1.000000 0.999973 0.0
# 4 texture vertices

vn  0.335259 -0.942126 0.0 
# 1 normals

usemtl surface__4

o IndexedFaceSet__3_0
g IndexedFaceSet__3_0

s off
f 16/13/6 14/14/6 13/15/6
f 13/15/6 15/16/6 16/13/6
# 2 polygons

# Coordinates for object 'IndexedFaceSet #4'
v  201833.937500 445750.843750 2.254007 
v  201833.937500 445750.843750 2.980693 
v  201834.984375 445747.875000 2.254007 
v  201834.984375 445747.875000 3.002691 
# 4 vertices

vt 0.0 0.000070 0.0
vt 0.0 1.000000 0.0
vt 0.999988 0.970519 0.0
vt 1.000000 0.0 0.0
# 4 texture vertices

vn  0.943082 0.332560 0.0 
# 1 normals

usemtl surface__5

o IndexedFaceSet__4_0
g IndexedFaceSet__4_0

s off
f 18/19/7 20/18/7 19/17/7
f 19/17/7 17/20/7 18/19/7
# 2 polygons

# Coordinates for object 'IndexedFaceSet #5'
v  201797.968750 445757.343750 -0.526001 
v  201798.000000 445757.250000 35.468426 
v  201842.140625 445773.062500 -0.526002 
v  201842.171875 445772.968750 35.468426 
# 4 vertices

vt 0.0 1.000000 0.0
vt 0.000954 0.000029 0.0
vt 0.999378 0.999917 0.0
vt 1.000000 0.0 0.0
# 4 texture vertices

vn  -0.335258 0.942122 0.002745 
# 1 normals

usemtl surface__6

o IndexedFaceSet__5_0
g IndexedFaceSet__5_0

s off
f 22/21/8 24/22/8 23/24/8
f 23/24/8 21/23/8 22/21/8
# 2 polygons

# Coordinates for object 'IndexedFaceSet #6'
v  201834.750000 445755.562500 35.468456 
v  201834.750000 445755.562500 44.885124 
v  201845.484375 445759.375000 44.876255 
v  201845.546875 445759.375000 35.459579 
# 4 vertices

vt 0.0 0.0 0.0
vt 0.005991 0.999056 0.0
vt 0.999364 0.000929 0.0
vt 1.000000 1.000000 0.0
# 4 texture vertices

vn  0.332964 -0.942937 0.002210 
vn  0.334685 -0.942330 0.0 
# 2 normals

usemtl surface__7

o IndexedFaceSet__6_0
g IndexedFaceSet__6_0

s off
f 27/26/10 26/28/10 25/27/10
f 25/27/9 28/25/9 27/26/9
# 2 polygons

# Coordinates for object 'IndexedFaceSet #7'
v  201830.312500 445768.031250 44.885101 
v  201834.750000 445755.562500 44.885124 
v  201841.046875 445771.843750 44.876225 
v  201845.484375 445759.375000 44.876255 
# 4 vertices

vt 0.0 0.0 0.0
vt 0.0 0.999999 0.0
vt 0.999999 1.000000 0.0
vt 1.000000 0.0 0.0
# 4 texture vertices

vn  0.000733 0.000263 1.000000 
# 1 normals

usemtl surface__8

o IndexedFaceSet__7_0
g IndexedFaceSet__7_0

s off
f 29/31/11 30/30/11 32/29/11
f 32/29/11 31/32/11 29/31/11
# 2 polygons

# Coordinates for object 'IndexedFaceSet #8'
v  201822.671875 445746.843750 2.254028 
v  201822.671875 445746.843750 2.980715 
v  201823.734375 445743.875000 2.254028 
v  201823.734375 445743.875000 3.002711 
# 4 vertices

vt 0.0 0.000070 0.0
vt 0.0 1.000000 0.0
vt 0.999988 0.970519 0.0
vt 1.000000 0.0 0.0
# 4 texture vertices

vn  -0.941517 -0.336964 0.0 
# 1 normals

usemtl surface__5

o IndexedFaceSet__8_0
g IndexedFaceSet__8_0

s off
f 34/35/12 33/36/12 35/33/12
f 35/33/12 36/34/12 34/35/12
# 2 polygons

# Coordinates for object 'IndexedFaceSet #9'
v  201830.312500 445768.031250 35.468430 
v  201830.312500 445768.031250 44.885101 
v  201834.750000 445755.562500 35.468456 
v  201834.750000 445755.562500 44.885124 
# 4 vertices

vt 0.0 0.0 0.0
vt 0.000094 1.000000 0.0
vt 0.999906 0.0 0.0
vt 1.000000 0.999952 0.0
# 4 texture vertices

vn  -0.942115 -0.335289 0.0 
# 1 normals

usemtl surface__9

o IndexedFaceSet__9_0
g IndexedFaceSet__9_0

s off
f 37/37/13 39/39/13 38/38/13
f 40/40/13 38/38/13 39/39/13
# 2 polygons

# Coordinates for object 'IndexedFaceSet #10'
v  201823.734375 445743.875000 2.254028 
v  201823.734375 445743.875000 3.002711 
v  201834.984375 445747.875000 2.254007 
v  201834.984375 445747.875000 3.002691 
# 4 vertices

vt 0.0 0.000119 0.0
vt 0.000018 1.000000 0.0
vt 1.000000 0.0 0.0
vt 1.000000 0.999886 0.0
# 4 texture vertices

vn  0.335010 -0.942215 0.0 
# 1 normals

usemtl surface__10

o IndexedFaceSet__10_0
g IndexedFaceSet__10_0

s off
f 43/43/14 44/44/14 42/42/14
f 42/42/14 41/41/14 43/43/14
# 2 polygons

# Coordinates for object 'IndexedFaceSet #11'
v  201830.312500 445768.031250 35.468430 
v  201830.312500 445768.031250 44.885101 
v  201841.046875 445771.843750 44.876225 
v  201841.109375 445771.875000 35.459557 
# 4 vertices

vt 0.0 0.0 0.0
vt 0.005991 0.999056 0.0
vt 0.999364 0.000929 0.0
vt 1.000000 1.000000 0.0
# 4 texture vertices

vn  -0.335385 0.942081 0.000900 
vn  -0.334685 0.942330 0.0 
# 2 normals

usemtl surface__7

o IndexedFaceSet__11_0
g IndexedFaceSet__11_0

s off
f 46/48/16 47/46/16 45/47/16
f 48/45/15 45/47/15 47/46/15
# 2 polygons

# Coordinates for object 'IndexedFaceSet #12'
v  201814.953125 445763.281250 35.468433 
v  201814.953125 445763.281250 38.533817 
v  201830.078125 445768.656250 35.468426 
v  201830.078125 445768.656250 39.241737 
# 4 vertices

vt 0.0 0.0 0.0
vt 0.000031 1.000000 0.0
vt 0.999839 0.002447 0.0
vt 1.000000 0.815122 0.0
# 4 texture vertices

vn  -0.334856 0.942269 0.0 
# 1 normals

usemtl surface__11

o IndexedFaceSet__12_0
g IndexedFaceSet__12_0

s off
f 52/50/17 51/49/17 50/52/17
f 49/51/17 50/52/17 51/49/17
# 2 polygons

# Coordinates for object 'IndexedFaceSet #13'
v  201816.781250 445758.156250 35.468437 
v  201816.781250 445758.156250 38.533821 
v  201831.906250 445763.531250 35.468433 
v  201831.906250 445763.531250 39.241737 
# 4 vertices

vt 0.0 0.0 0.0
vt 0.000020 1.000000 0.0
vt 0.999962 0.004613 0.0
vt 1.000000 0.817144 0.0
# 4 texture vertices

vn  0.334856 -0.942269 0.0 
# 1 normals

usemtl surface__12

o IndexedFaceSet__13_0
g IndexedFaceSet__13_0

s off
f 56/54/18 54/56/18 55/53/18
f 53/55/18 55/53/18 54/56/18
# 2 polygons

# Coordinates for object 'IndexedFaceSet #14'
v  201822.671875 445746.843750 2.254028 
v  201823.734375 445743.875000 2.254028 
v  201833.937500 445750.843750 2.254007 
v  201834.984375 445747.875000 2.254007 
# 4 vertices

vt 0.0 0.000070 0.0
vt 0.0 1.000000 0.0
vt 0.999988 0.970519 0.0
vt 1.000000 0.0 0.0
# 4 texture vertices

vn  -0.000002 0.0 -1.0 
# 1 normals

usemtl surface__5

o IndexedFaceSet__14_0
g IndexedFaceSet__14_0

s off
f 59/60/19 60/59/19 58/58/19
f 58/58/19 57/57/19 59/60/19
# 2 polygons

# Coordinates for object 'IndexedFaceSet #15'
v  201814.953125 445763.281250 35.468433 
v  201814.953125 445763.281250 38.533817 
v  201816.781250 445758.156250 35.468437 
v  201816.781250 445758.156250 38.533821 
# 4 vertices

vt 0.0 0.0 0.0
vt 0.000020 1.000000 0.0
vt 0.999962 0.004613 0.0
vt 1.000000 0.817144 0.0
# 4 texture vertices

vn  -0.941872 -0.335973 0.0 
# 1 normals

usemtl surface__12

o IndexedFaceSet__15_0
g IndexedFaceSet__15_0

s off
f 61/61/20 63/62/20 64/64/20
f 64/64/20 62/63/20 61/61/20
# 2 polygons

# Coordinates for object 'IndexedFaceSet #16'
v  201814.953125 445763.281250 38.533817 
v  201816.781250 445758.156250 38.533821 
v  201830.078125 445768.656250 39.241737 
v  201831.906250 445763.531250 39.241737 
# 4 vertices

vt 0.0 0.0 0.0
vt 0.0 1.000000 0.0
vt 1.000000 0.0 0.0
vt 1.000000 1.000000 0.0
# 4 texture vertices

vn  -0.041499 -0.014802 0.999029 
# 1 normals

usemtl surface__3

o IndexedFaceSet__16_0
g IndexedFaceSet__16_0

s off
f 65/65/21 66/67/21 67/66/21
f 68/68/21 67/66/21 66/67/21
# 2 polygons

# Coordinates for object 'IndexedFaceSet #17'
v  201822.671875 445746.843750 2.980715 
v  201823.734375 445743.875000 3.002711 
v  201833.937500 445750.843750 2.980693 
v  201834.984375 445747.875000 3.002691 
# 4 vertices

vt 0.0 0.000119 0.0
vt 0.000018 1.000000 0.0
vt 1.000000 0.0 0.0
vt 1.000000 0.999886 0.0
# 4 texture vertices

vn  -0.002339 0.006585 0.999976 
vn  -0.002332 0.006574 0.999976 
# 2 normals

usemtl surface__10

o IndexedFaceSet__17_0
g IndexedFaceSet__17_0

s off
f 69/69/23 70/70/23 71/71/23
f 72/72/22 71/71/22 70/70/22
# 2 polygons

# Coordinates for object 'IndexedFaceSet #18'
v  201841.046875 445771.843750 44.876225 
v  201841.109375 445771.875000 35.459557 
v  201845.484375 445759.375000 44.876255 
v  201845.546875 445759.375000 35.459579 
# 4 vertices

vt 0.0 0.0 0.0
vt 0.000094 1.000000 0.0
vt 0.999906 0.0 0.0
vt 1.000000 0.999952 0.0
# 4 texture vertices

vn  0.942090 0.335280 0.007365 
vn  0.942361 0.334538 0.006255 
# 2 normals

usemtl surface__9

o IndexedFaceSet__18_0
g IndexedFaceSet__18_0

s off
f 73/74/24 75/76/24 74/73/24
f 76/75/25 74/73/25 75/76/25
# 2 polygons

# Coordinates for object 'IndexedFaceSet #19'
v  201830.078125 445768.656250 35.468426 
v  201830.078125 445768.656250 39.241737 
v  201830.312500 445768.031250 35.468430 
v  201830.312500 445768.031250 39.223309 
# 4 vertices

vt 0.0 1.000000 0.0
vt 0.004834 0.000894 0.0
vt 1.000000 0.0 0.0
vt 1.000000 0.999350 0.0
# 4 texture vertices

vn  0.936329 0.351123 0.0 
# 1 normals

usemtl surface__13

o IndexedFaceSet__19_0
g IndexedFaceSet__19_0

s off
f 78/77/26 80/78/26 77/80/26
f 79/79/26 77/80/26 80/78/26
# 2 polygons
