# Converted by Daum Communications 
# Date/time of export: 08/22/2013 14:53:39
#
# Bounding box of geometry = (201850,445676,-0.936618) to (201872,445696,20.4307).

mtllib 4466243.mtl

# Coordinates for object 'IndexedFaceSet'
v  201863.234375 445695.218750 -0.839959 
v  201863.234375 445695.218750 20.430691 
v  201864.734375 445695.500000 -0.839958 
v  201864.734375 445695.500000 20.430691 
# 4 vertices

vt 0.0 1.000000 0.0
vt 0.000063 0.000112 0.0
vt 0.999938 0.999849 0.0
vt 1.000000 0.0 0.0
# 4 texture vertices

vn  -0.184289 0.982872 0.0 
# 1 normals

usemtl surface

o IndexedFaceSet
g IndexedFaceSet

s off
f 2/1/1 4/2/1 1/3/1
f 3/4/1 1/3/1 4/2/1
# 2 polygons

# Coordinates for object 'IndexedFaceSet #1'
v  201849.765625 445690.125000 20.430687 
v  201855.328125 445675.812500 20.430689 
v  201863.234375 445695.218750 20.430691 
v  201864.734375 445695.500000 20.430691 
v  201865.484375 445695.093750 20.430696 
v  201868.921875 445680.750000 20.430696 
v  201870.296875 445681.343750 20.430693 
v  201870.390625 445682.187500 20.430695 
# 8 vertices

vt 0.0 0.0 0.0
vt 0.007428 0.875316 0.0
vt 0.026262 0.966669 0.0
vt 0.066762 1.000000 0.0
vt 0.948542 0.993937 0.0
vt 0.979335 0.0 0.0
vt 0.997345 0.969678 0.0
vt 1.000000 0.879161 0.0
# 8 texture vertices

vn  -0.000002 0.000010 1.0 
vn  0.0 0.0 1.0 
# 2 normals

usemtl surface__2

o IndexedFaceSet__1_0
g IndexedFaceSet__1_0

s off
f 7/6/3 6/10/3 10/12/3
f 7/6/3 5/5/3 6/10/3
f 10/12/3 11/11/3 12/9/3
f 9/8/3 7/6/3 10/12/3
f 8/7/2 7/6/2 9/8/2
f 9/8/3 10/12/3 12/9/3
# 6 polygons

# Coordinates for object 'IndexedFaceSet #2'
v  201849.765625 445690.125000 -0.813340 
v  201849.765625 445690.125000 20.430687 
v  201863.234375 445695.218750 -0.839959 
v  201863.234375 445695.218750 20.430691 
# 4 vertices

vt 0.0 0.000032 0.0
vt 0.002950 1.000000 0.0
vt 0.996955 0.0 0.0
vt 1.000000 0.998979 0.0
# 4 texture vertices

vn  -0.353738 0.935344 0.0 
# 1 normals

usemtl surface__3

o IndexedFaceSet__2_0
g IndexedFaceSet__2_0

s off
f 14/16/4 16/14/4 13/15/4
f 15/13/4 13/15/4 16/14/4
# 2 polygons

# Coordinates for object 'IndexedFaceSet #3'
v  201849.765625 445690.125000 -0.813340 
v  201849.765625 445690.125000 20.430687 
v  201855.328125 445675.812500 -0.813340 
v  201855.328125 445675.812500 20.430689 
# 4 vertices

vt 0.0 0.000182 0.0
vt 0.0 1.000000 0.0
vt 0.999995 0.0 0.0
vt 1.000000 0.999807 0.0
# 4 texture vertices

vn  -0.932081 -0.362250 0.0 
# 1 normals

usemtl surface__4

o IndexedFaceSet__3_0
g IndexedFaceSet__3_0

s off
f 17/20/5 19/19/5 20/17/5
f 20/17/5 18/18/5 17/20/5
# 2 polygons

# Coordinates for object 'IndexedFaceSet #4'
v  201855.328125 445675.812500 -0.813340 
v  201855.328125 445675.812500 20.430689 
v  201868.921875 445680.750000 -0.724944 
v  201868.921875 445680.750000 20.430696 
# 4 vertices

vt 0.0 0.000322 0.0
vt 0.009427 1.000000 0.0
vt 0.990698 0.0 0.0
vt 1.000000 0.995936 0.0
# 4 texture vertices

vn  0.341396 -0.939920 0.0 
# 1 normals

usemtl surface__5

o IndexedFaceSet__4_0
g IndexedFaceSet__4_0

s off
f 24/24/6 22/22/6 23/23/6
f 21/21/6 23/23/6 22/22/6
# 2 polygons

# Coordinates for object 'IndexedFaceSet #5'
v  201868.921875 445680.750000 -0.724944 
v  201868.921875 445680.750000 20.430696 
v  201870.296875 445681.343750 -0.724947 
v  201870.296875 445681.343750 20.430693 
# 4 vertices

vt 0.0 0.000012 0.0
vt 0.002218 0.999996 0.0
vt 0.997605 0.0 0.0
vt 1.000000 1.000000 0.0
# 4 texture vertices

vn  0.396436 -0.918062 0.0 
# 1 normals

usemtl surface__6

o IndexedFaceSet__5_0
g IndexedFaceSet__5_0

s off
f 28/28/7 26/26/7 25/25/7
f 25/25/7 27/27/7 28/28/7
# 2 polygons

# Coordinates for object 'IndexedFaceSet #6'
v  201870.296875 445681.343750 -0.724947 
v  201870.296875 445681.343750 20.430693 
v  201870.390625 445682.187500 -0.936618 
v  201870.390625 445682.187500 20.430695 
# 4 vertices

vt 0.0 0.000609 0.0
vt 0.0 1.000000 0.0
vt 0.990090 0.0 0.0
vt 1.000000 0.999358 0.0
# 4 texture vertices

vn  0.993884 -0.110432 0.0 
# 1 normals

usemtl surface__7

o IndexedFaceSet__6_0
g IndexedFaceSet__6_0

s off
f 32/30/8 30/29/8 29/31/8
f 29/31/8 31/32/8 32/30/8
# 2 polygons

# Coordinates for object 'IndexedFaceSet #7'
v  201865.484375 445695.093750 -0.936618 
v  201865.484375 445695.093750 20.430696 
v  201870.390625 445682.187500 -0.936618 
v  201870.390625 445682.187500 20.430695 
# 4 vertices

vt 0.0 0.000182 0.0
vt 0.0 1.000000 0.0
vt 0.999995 0.0 0.0
vt 1.000000 0.999807 0.0
# 4 texture vertices

vn  0.934738 0.355336 0.0 
# 1 normals

usemtl surface__4

o IndexedFaceSet__7_0
g IndexedFaceSet__7_0

s off
f 34/34/9 36/33/9 33/36/9
f 35/35/9 33/36/9 36/33/9
# 2 polygons

# Coordinates for object 'IndexedFaceSet #8'
v  201864.734375 445695.500000 -0.839958 
v  201864.734375 445695.500000 20.430691 
v  201865.484375 445695.093750 -0.936618 
v  201865.484375 445695.093750 20.430696 
# 4 vertices

vt 0.0 1.000000 0.0
vt 0.000028 0.000880 0.0
vt 0.995460 0.999282 0.0
vt 1.000000 0.0 0.0
# 4 texture vertices

vn  0.476283 0.879292 0.0 
# 1 normals

usemtl surface__8

o IndexedFaceSet__8_0
g IndexedFaceSet__8_0

s off
f 38/37/10 40/38/10 37/39/10
f 39/40/10 37/39/10 40/38/10
# 2 polygons

# Coordinates for object 'IndexedFaceSet #9'
v  201866.250000 445696.250000 -0.715370 
v  201866.250000 445696.250000 7.506725 
v  201866.734375 445695.625000 -0.669172 
v  201866.734375 445695.625000 7.506728 
# 4 vertices

vt 0.0 1.000000 0.0
vt 0.000011 0.001063 0.0
vt 0.994389 0.0 0.0
vt 1.000000 0.999003 0.0
# 4 texture vertices

vn  0.790415 0.612572 0.0 
# 1 normals

usemtl surface__9

o IndexedFaceSet__9_0
g IndexedFaceSet__9_0

s off
f 42/41/11 44/42/11 43/43/11
f 43/43/11 41/44/11 42/41/11
# 2 polygons

# Coordinates for object 'IndexedFaceSet #10'
v  201863.796875 445695.312500 7.506725 
v  201866.250000 445696.250000 7.506725 
v  201866.734375 445695.625000 7.506728 
v  201869.265625 445680.937500 7.506725 
v  201871.671875 445682.656250 7.506727 
v  201871.687500 445681.875000 7.506726 
# 6 vertices

vt 0.0 0.0 0.0
vt 0.0 1.000000 0.0
vt 0.301589 0.0 0.0
vt 0.304820 1.000000 0.0
vt 0.332240 0.952282 0.0
vt 0.333332 0.048805 0.0
# 6 texture vertices

vn  0.0 0.0 1.0 
# 1 normals

usemtl surface__10

o IndexedFaceSet__10_0
g IndexedFaceSet__10_0

s off
f 45/46/12 48/45/12 49/50/12
f 49/50/12 48/45/12 50/47/12
f 47/49/12 46/48/12 45/46/12
f 47/49/12 45/46/12 49/50/12
# 4 polygons

# Coordinates for object 'IndexedFaceSet #11'
v  201863.796875 445695.312500 -0.715372 
v  201863.796875 445695.312500 7.506725 
v  201866.250000 445696.250000 -0.715370 
v  201866.250000 445696.250000 7.506725 
# 4 vertices

vt 0.0 0.0 0.0
vt 0.000217 0.999980 0.0
vt 0.999780 0.0 0.0
vt 1.000000 1.000000 0.0
# 4 texture vertices

vn  -0.356985 0.934110 0.0 
# 1 normals

usemtl surface__11

o IndexedFaceSet__11_0
g IndexedFaceSet__11_0

s off
f 52/54/13 54/52/13 53/51/13
f 53/51/13 51/53/13 52/54/13
# 2 polygons

# Coordinates for object 'IndexedFaceSet #12'
v  201869.265625 445680.937500 -0.682309 
v  201869.265625 445680.937500 7.506725 
v  201871.687500 445681.875000 -0.682310 
v  201871.687500 445681.875000 7.506726 
# 4 vertices

vt 0.0 1.000000 0.0
vt 0.000082 0.000076 0.0
vt 0.999941 0.0 0.0
vt 1.000000 0.999927 0.0
# 4 texture vertices

vn  0.360994 -0.932568 0.0 
# 1 normals

usemtl surface__12

o IndexedFaceSet__12_0
g IndexedFaceSet__12_0

s off
f 58/58/14 56/55/14 55/56/14
f 55/56/14 57/57/14 58/58/14
# 2 polygons

# Coordinates for object 'IndexedFaceSet #13'
v  201871.671875 445682.656250 -0.669175 
v  201871.671875 445682.656250 7.506727 
v  201871.687500 445681.875000 -0.682310 
v  201871.687500 445681.875000 7.506726 
# 4 vertices

vt 0.0 0.001596 0.0
vt 0.000028 1.000000 0.0
vt 0.998427 0.998788 0.0
vt 1.000000 0.0 0.0
# 4 texture vertices

vn  0.999800 0.019996 0.0 
# 1 normals

usemtl surface__13

o IndexedFaceSet__13_0
g IndexedFaceSet__13_0

s off
f 60/60/15 62/59/15 59/61/15
f 61/62/15 59/61/15 62/59/15
# 2 polygons

# Coordinates for object 'IndexedFaceSet #14'
v  201866.734375 445695.625000 -0.669172 
v  201866.734375 445695.625000 7.506728 
v  201871.671875 445682.656250 -0.669175 
v  201871.671875 445682.656250 7.506727 
# 4 vertices

vt 0.0 0.000014 0.0
vt 0.000016 1.000000 0.0
vt 0.999984 0.0 0.0
vt 1.000000 0.999981 0.0
# 4 texture vertices

vn  0.934559 0.355808 0.0 
# 1 normals

usemtl surface__14

o IndexedFaceSet__14_0
g IndexedFaceSet__14_0

s off
f 64/64/16 66/63/16 63/66/16
f 65/65/16 63/66/16 66/63/16
# 2 polygons
