# Converted by Daum Communications 
# Date/time of export: 08/22/2013 14:53:41
#
# Bounding box of geometry = (202170,445061,-0.552459) to (202196,445082,20.6281).

mtllib 4485177.mtl

# Coordinates for object 'IndexedFaceSet'
v  202170.234375 445074.500000 -0.552459 
v  202170.234375 445074.500000 20.628101 
v  202175.078125 445061.468750 -0.537138 
v  202175.078125 445061.468750 20.628098 
# 4 vertices

vt 0.0 0.0 0.0
vt 0.000019 0.999973 0.0
vt 0.999291 1.000000 0.0
vt 1.000000 0.0 0.0
# 4 texture vertices

vn  -0.937341 -0.348412 0.0 
# 1 normals

usemtl surface

o IndexedFaceSet
g IndexedFaceSet

s off
f 4/2/1 2/1/1 3/3/1
f 1/4/1 3/3/1 2/1/1
# 2 polygons

# Coordinates for object 'IndexedFaceSet #1'
v  202191.312500 445082.343750 20.628113 
v  202191.593750 445082.437500 -0.552445 
v  202196.437500 445069.406250 -0.537124 
v  202196.437500 445069.406250 20.628109 
# 4 vertices

vt 0.0 0.0 0.0
vt 0.000019 0.999973 0.0
vt 0.999291 1.000000 0.0
vt 1.000000 0.0 0.0
# 4 texture vertices

vn  0.929711 0.368291 0.0 
vn  0.937244 0.348393 0.013987 
# 2 normals

usemtl surface

o IndexedFaceSet__1_0
g IndexedFaceSet__1_0

s off
f 7/7/3 6/8/3 5/5/3
f 5/5/2 8/6/2 7/7/2
# 2 polygons

# Coordinates for object 'IndexedFaceSet #2'
v  202175.078125 445061.468750 -0.537138 
v  202175.078125 445061.468750 20.628098 
v  202196.437500 445069.406250 -0.537124 
v  202196.437500 445069.406250 20.628109 
# 4 vertices

vt 0.0 0.000198 0.0
vt 0.000488 1.000000 0.0
vt 0.999746 0.986843 0.0
vt 1.000000 0.0 0.0
# 4 texture vertices

vn  0.348341 -0.937368 0.0 
# 1 normals

usemtl surface__2

o IndexedFaceSet__2_0
g IndexedFaceSet__2_0

s off
f 12/11/4 10/12/4 11/10/4
f 9/9/4 11/10/4 10/12/4
# 2 polygons

# Coordinates for object 'IndexedFaceSet #3'
v  202170.234375 445074.500000 20.628101 
v  202175.078125 445061.468750 20.628098 
v  202191.312500 445082.343750 20.628113 
v  202196.437500 445069.406250 20.628109 
# 4 vertices

vt 0.0 0.0 0.0
vt 0.0 0.987213 0.0
vt 0.999999 0.0 0.0
vt 1.000000 1.000000 0.0
# 4 texture vertices

vn  0.0 0.0 1.0 
# 1 normals

usemtl surface__3

o IndexedFaceSet__3_0
g IndexedFaceSet__3_0

s off
f 16/16/5 15/14/5 14/15/5
f 13/13/5 14/15/5 15/14/5
# 2 polygons

# Coordinates for object 'IndexedFaceSet #4'
v  202170.234375 445074.500000 -0.552459 
v  202170.234375 445074.500000 20.628101 
v  202191.312500 445082.343750 20.628113 
v  202191.593750 445082.437500 -0.552445 
# 4 vertices

vt 0.0 0.000198 0.0
vt 0.000488 1.000000 0.0
vt 0.999746 0.986843 0.0
vt 1.000000 0.0 0.0
# 4 texture vertices

vn  -0.348762 0.937211 0.0 
vn  -0.348341 0.937368 -0.000477 
# 2 normals

usemtl surface__2

o IndexedFaceSet__4_0
g IndexedFaceSet__4_0

s off
f 18/20/6 19/19/6 17/17/6
f 20/18/7 17/17/7 19/19/7
# 2 polygons
