# Converted by Daum Communications 
# Date/time of export: 08/22/2013 14:53:40
#
# Bounding box of geometry = (202264,444808,-0.926372) to (202283,444834,23.3933).

mtllib 4485025.mtl

# Coordinates for object 'IndexedFaceSet'
v  202264.156250 444829.406250 -0.926325 
v  202264.156250 444829.406250 19.514179 
v  202271.812500 444809.000000 -0.926337 
v  202271.812500 444809.000000 19.514179 
# 4 vertices

vt 0.0 0.000132 0.0
vt 0.000795 1.000000 0.0
vt 0.999215 0.0 0.0
vt 1.000000 0.999164 0.0
# 4 texture vertices

vn  -0.936270 -0.351281 0.0 
# 1 normals

usemtl surface

o IndexedFaceSet
g IndexedFaceSet

s off
f 4/2/1 2/1/1 1/3/1
f 1/3/1 3/4/1 4/2/1
# 2 polygons

# Coordinates for object 'IndexedFaceSet #1'
v  202277.437500 444827.218750 19.514149 
v  202277.453125 444827.156250 -0.926355 
v  202282.390625 444812.968750 -0.926372 
v  202282.390625 444812.968750 19.514145 
# 4 vertices

vt 0.0 0.000132 0.0
vt 0.000795 1.000000 0.0
vt 0.999215 0.0 0.0
vt 1.000000 0.999164 0.0
# 4 texture vertices

vn  0.944441 0.328682 0.0 
vn  0.944567 0.328320 -0.000282 
# 2 normals

usemtl surface

o IndexedFaceSet__1_0
g IndexedFaceSet__1_0

s off
f 7/8/2 6/7/2 8/6/2
f 5/5/3 8/6/3 6/7/3
# 2 polygons

# Coordinates for object 'IndexedFaceSet #2'
v  202264.937500 444829.718750 21.702175 
v  202266.015625 444826.843750 21.702175 
v  202275.046875 444833.500000 21.702179 
v  202276.125000 444830.656250 21.702173 
# 4 vertices

vt 0.0 1.000000 0.0
vt 0.000946 0.500000 0.0
vt 0.999055 1.000000 0.0
vt 1.000000 0.499999 0.0
# 4 texture vertices

vn  0.0 -0.000002 1.0 
# 1 normals

usemtl surface__2

o IndexedFaceSet__2_0
g IndexedFaceSet__2_0

s off
f 12/12/4 11/11/4 10/10/4
f 9/9/4 10/10/4 11/11/4
# 2 polygons

# Coordinates for object 'IndexedFaceSet #3'
v  202271.812500 444809.000000 -0.926337 
v  202271.812500 444809.000000 19.514179 
v  202282.390625 444812.968750 -0.926372 
v  202282.390625 444812.968750 19.514145 
# 4 vertices

vt 0.0 1.000000 0.0
vt 0.000226 0.000213 0.0
vt 0.999639 0.999841 0.0
vt 1.000000 0.0 0.0
# 4 texture vertices

vn  0.351275 -0.936272 0.0 
# 1 normals

usemtl surface__3

o IndexedFaceSet__3_0
g IndexedFaceSet__3_0

s off
f 16/16/5 14/15/5 13/13/5
f 13/13/5 15/14/5 16/16/5
# 2 polygons

# Coordinates for object 'IndexedFaceSet #4'
v  202264.156250 444829.406250 21.482422 
v  202264.937500 444829.718750 21.473793 
v  202266.015625 444826.843750 21.473791 
v  202266.968750 444827.218750 21.473789 
v  202272.046875 444808.343750 21.482422 
v  202273.828125 444809.062500 21.482388 
# 6 vertices

vt 0.0 0.000139 0.0
vt 0.005808 1.000000 0.0
vt 0.446977 0.0 0.0
vt 0.453153 0.135457 0.0
vt 0.979877 0.135476 0.0
vt 1.000000 0.998948 0.0
# 6 texture vertices

vn  -0.009596 -0.003595 -0.999947 
vn  0.000149 -0.000418 -1.000000 
vn  0.000160 -0.000413 -1.000000 
# 3 normals

usemtl surface__4

o IndexedFaceSet__4_0
g IndexedFaceSet__4_0

s off
f 21/18/6 17/17/6 19/20/6
f 19/20/6 17/17/6 18/19/6
f 21/18/7 19/20/7 22/22/7
f 20/21/8 22/22/8 19/20/8
# 4 polygons

# Coordinates for object 'IndexedFaceSet #5'
v  202275.046875 444833.500000 23.393267 
v  202276.796875 444834.156250 23.393265 
v  202277.437500 444827.218750 23.393265 
v  202279.156250 444827.843750 23.393265 
# 4 vertices

vt 0.0 0.987955 0.0
vt 0.000203 0.0 0.0
vt 1.000000 0.0 0.0
vt 1.000000 0.999998 0.0
# 4 texture vertices

vn  0.0 0.0 1.0 
# 1 normals

usemtl surface__5

o IndexedFaceSet__5_0
g IndexedFaceSet__5_0

s off
f 26/24/9 24/25/9 25/23/9
f 23/26/9 25/23/9 24/25/9
# 2 polygons

# Coordinates for object 'IndexedFaceSet #6'
v  202264.156250 444829.406250 -0.926325 
v  202264.156250 444829.406250 19.514179 
v  202276.781250 444834.125000 -0.926361 
v  202276.796875 444834.156250 19.514149 
# 4 vertices

vt 0.0 1.000000 0.0
vt 0.000016 0.0 0.0
vt 0.999920 0.001567 0.0
vt 1.000000 0.999871 0.0
# 4 texture vertices

vn  -0.351757 0.936091 -0.001162 
vn  -0.350107 0.936710 0.0 
# 2 normals

usemtl surface__6

o IndexedFaceSet__6_0
g IndexedFaceSet__6_0

s off
f 28/27/10 30/28/10 29/29/10
f 29/29/11 27/30/11 28/27/11
# 2 polygons

# Coordinates for object 'IndexedFaceSet #7'
v  202276.781250 444834.125000 -0.926361 
v  202276.796875 444834.156250 19.514149 
v  202279.140625 444827.843750 -0.926353 
v  202279.156250 444827.843750 19.514149 
# 4 vertices

vt 0.0 0.000132 0.0
vt 0.000795 1.000000 0.0
vt 0.999215 0.0 0.0
vt 1.000000 0.999164 0.0
# 4 texture vertices

vn  0.936137 0.351634 -0.000716 
vn  0.936709 0.350107 -0.001251 
# 2 normals

usemtl surface

o IndexedFaceSet__7_0
g IndexedFaceSet__7_0

s off
f 33/34/12 31/33/12 34/32/12
f 32/31/13 34/32/13 31/33/13
# 2 polygons

# Coordinates for object 'IndexedFaceSet #8'
v  202277.437500 444827.218750 19.514149 
v  202277.453125 444827.156250 -0.926355 
v  202279.140625 444827.843750 -0.926353 
v  202279.156250 444827.843750 19.514149 
# 4 vertices

vt 0.0 1.000000 0.0
vt 0.001209 0.0 0.0
vt 0.999935 0.967628 0.0
vt 1.000000 0.016810 0.0
# 4 texture vertices

vn  0.341743 -0.939793 -0.000261 
vn  0.377295 -0.926088 0.003120 
# 2 normals

usemtl surface__7

o IndexedFaceSet__8_0
g IndexedFaceSet__8_0

s off
f 38/35/14 35/36/14 37/37/14
f 36/38/15 37/37/15 35/36/15
# 2 polygons

# Coordinates for object 'IndexedFaceSet #9'
v  202276.796875 444834.156250 19.514149 
v  202276.796875 444834.156250 23.393265 
v  202279.156250 444827.843750 19.514149 
v  202279.156250 444827.843750 23.393265 
# 4 vertices

vt 0.0 0.0 0.0
vt 0.000057 0.999999 0.0
vt 0.999946 0.0 0.0
vt 1.000000 1.000000 0.0
# 4 texture vertices

vn  0.936710 0.350107 0.0 
# 1 normals

usemtl surface__8

o IndexedFaceSet__9_0
g IndexedFaceSet__9_0

s off
f 41/42/16 39/41/16 40/39/16
f 40/39/16 42/40/16 41/42/16
# 2 polygons

# Coordinates for object 'IndexedFaceSet #10'
v  202275.046875 444833.500000 19.514153 
v  202275.046875 444833.500000 23.393267 
v  202276.796875 444834.156250 19.514149 
v  202276.796875 444834.156250 23.393265 
# 4 vertices

vt 0.0 1.000000 0.0
vt 0.000119 0.000076 0.0
vt 0.999898 0.999590 0.0
vt 1.000000 0.0 0.0
# 4 texture vertices

vn  -0.351123 0.936329 0.0 
# 1 normals

usemtl surface__9

o IndexedFaceSet__10_0
g IndexedFaceSet__10_0

s off
f 44/43/17 46/44/17 43/45/17
f 45/46/17 43/45/17 46/44/17
# 2 polygons

# Coordinates for object 'IndexedFaceSet #11'
v  202275.046875 444833.500000 19.514153 
v  202275.046875 444833.500000 23.393267 
v  202277.437500 444827.218750 19.514149 
v  202277.437500 444827.218750 23.393265 
# 4 vertices

vt 0.0 0.0 0.0
vt 0.000057 0.999999 0.0
vt 0.999946 0.0 0.0
vt 1.000000 1.000000 0.0
# 4 texture vertices

vn  -0.934598 -0.355705 0.0 
# 1 normals

usemtl surface__10

o IndexedFaceSet__11_0
g IndexedFaceSet__11_0

s off
f 50/50/18 48/48/18 47/47/18
f 47/47/18 49/49/18 50/50/18
# 2 polygons

# Coordinates for object 'IndexedFaceSet #12'
v  202277.437500 444827.218750 19.514149 
v  202277.437500 444827.218750 23.393265 
v  202279.156250 444827.843750 19.514149 
v  202279.156250 444827.843750 23.393265 
# 4 vertices

vt 0.0 0.999969 0.0
vt 0.000185 0.0 0.0
vt 0.999829 1.000000 0.0
vt 1.000000 0.000031 0.0
# 4 texture vertices

vn  0.341743 -0.939793 0.0 
# 1 normals

usemtl surface__11

o IndexedFaceSet__12_0
g IndexedFaceSet__12_0

s off
f 54/51/19 52/52/19 53/53/19
f 51/54/19 53/53/19 52/52/19
# 2 polygons

# Coordinates for object 'IndexedFaceSet #13'
v  202264.937500 444829.718750 19.514177 
v  202264.937500 444829.718750 21.702175 
v  202275.046875 444833.500000 19.514153 
v  202275.046875 444833.500000 21.702179 
# 4 vertices

vt 0.0 0.001107 0.0
vt 0.000071 1.000000 0.0
vt 0.999808 0.999163 0.0
vt 1.000000 0.0 0.0
# 4 texture vertices

vn  -0.350330 0.936626 0.0 
# 1 normals

usemtl surface__12

o IndexedFaceSet__13_0
g IndexedFaceSet__13_0

s off
f 56/57/20 58/56/20 57/55/20
f 57/55/20 55/58/20 56/57/20
# 2 polygons

# Coordinates for object 'IndexedFaceSet #14'
v  202266.015625 444826.843750 19.514175 
v  202266.015625 444826.843750 21.702175 
v  202276.125000 444830.656250 19.514149 
v  202276.125000 444830.656250 21.702173 
# 4 vertices

vt 0.0 0.0 0.0
vt 0.000012 0.998300 0.0
vt 0.999717 1.000000 0.0
vt 1.000000 0.001426 0.0
# 4 texture vertices

vn  0.352866 -0.935674 0.0 
# 1 normals

usemtl surface__13

o IndexedFaceSet__14_0
g IndexedFaceSet__14_0

s off
f 62/60/21 60/61/21 61/59/21
f 59/62/21 61/59/21 60/61/21
# 2 polygons

# Coordinates for object 'IndexedFaceSet #15'
v  202264.156250 444829.406250 21.710806 
v  202264.937500 444829.718750 21.702175 
v  202266.015625 444826.843750 21.702175 
v  202266.968750 444827.218750 21.702173 
v  202272.062500 444808.343750 21.710806 
v  202273.828125 444809.062500 21.710772 
# 6 vertices

vt 0.0 0.998960 0.0
vt 0.005038 0.135457 0.0
vt 0.111000 0.135457 0.0
vt 0.112071 0.0 0.0
vt 0.199987 1.000000 0.0
vt 0.199999 0.0 0.0
# 6 texture vertices

vn  -0.000160 0.000413 1.000000 
vn  -0.000150 0.000417 1.000000 
vn  0.009606 0.003602 0.999947 
vn  0.009616 0.003610 0.999947 
# 4 normals

usemtl surface__2

o IndexedFaceSet__15_0
g IndexedFaceSet__15_0

s off
f 68/63/22 66/64/22 65/65/22
f 65/65/25 63/68/25 67/67/25
f 63/68/24 65/65/24 64/66/24
f 65/65/23 67/67/23 68/63/23
# 4 polygons

# Coordinates for object 'IndexedFaceSet #16'
v  202264.937500 444829.718750 19.514177 
v  202264.937500 444829.718750 21.702175 
v  202266.015625 444826.843750 19.514175 
v  202266.015625 444826.843750 21.702175 
# 4 vertices

vt 0.0 0.0 0.0
vt 0.000046 0.999991 0.0
vt 0.999954 0.0 0.0
vt 1.000000 1.000000 0.0
# 4 texture vertices

vn  -0.936329 -0.351123 0.0 
# 1 normals

usemtl surface__14

o IndexedFaceSet__16_0
g IndexedFaceSet__16_0

s off
f 72/72/26 70/70/26 71/71/26
f 69/69/26 71/71/26 70/70/26
# 2 polygons

# Coordinates for object 'IndexedFaceSet #17'
v  202275.046875 444833.500000 19.514153 
v  202275.046875 444833.500000 21.702179 
v  202276.125000 444830.656250 19.514149 
v  202276.125000 444830.656250 21.702173 
# 4 vertices

vt 0.0 0.0 0.0
vt 0.000120 0.999993 0.0
vt 0.999886 0.0 0.0
vt 1.000000 1.000000 0.0
# 4 texture vertices

vn  0.935056 0.354499 0.0 
# 1 normals

usemtl surface__15

o IndexedFaceSet__17_0
g IndexedFaceSet__17_0

s off
f 75/75/27 73/73/27 74/74/27
f 74/74/27 76/76/27 75/75/27
# 2 polygons

# Coordinates for object 'IndexedFaceSet #18'
v  202264.156250 444829.406250 21.482422 
v  202264.156250 444829.406250 21.710806 
v  202264.937500 444829.718750 21.473793 
v  202264.937500 444829.718750 21.702175 
# 4 vertices

vt 0.0 0.002372 0.0
vt 0.001413 1.000000 0.0
vt 0.998947 0.0 0.0
vt 1.000000 0.998694 0.0
# 4 texture vertices

vn  -0.371391 0.928477 0.0 
# 1 normals

usemtl surface__16

o IndexedFaceSet__18_0
g IndexedFaceSet__18_0

s off
f 78/80/28 80/78/28 77/79/28
f 79/77/28 77/79/28 80/78/28
# 2 polygons

# Coordinates for object 'IndexedFaceSet #19'
v  202264.156250 444829.406250 21.482422 
v  202264.156250 444829.406250 21.710806 
v  202272.046875 444808.343750 21.482422 
v  202272.062500 444808.343750 21.710806 
# 4 vertices

vt 0.0 0.0 0.0
vt 0.022580 1.000000 0.0
vt 0.977812 0.0 0.0
vt 1.000000 0.999995 0.0
# 4 texture vertices

vn  -0.936215 -0.351428 0.0 
vn  -0.934527 -0.350101 0.063936 
# 2 normals

usemtl surface__17

o IndexedFaceSet__19_0
g IndexedFaceSet__19_0

s off
f 84/82/29 82/81/29 81/83/29
f 81/83/30 83/84/30 84/82/30
# 2 polygons

# Coordinates for object 'IndexedFaceSet #20'
v  202273.281250 444810.500000 21.482050 
v  202273.296875 444810.500000 21.710772 
v  202273.828125 444809.062500 21.710772 
v  202273.843750 444809.031250 21.480421 
# 4 vertices

vt 0.0 0.0 0.0
vt 0.003606 0.985780 0.0
vt 0.996789 1.000000 0.0
vt 1.000000 0.0 0.0
# 4 texture vertices

vn  -0.937865 -0.346602 -0.016596 
vn  -0.931939 -0.356983 0.063665 
# 2 normals

usemtl surface__18

o IndexedFaceSet__20_0
g IndexedFaceSet__20_0

s off
f 87/87/31 86/86/31 88/88/31
f 85/85/32 88/88/32 86/86/32
# 2 polygons

# Coordinates for object 'IndexedFaceSet #21'
v  202282.468750 444813.968750 21.398914 
v  202282.468750 444813.968750 21.627638 
v  202283.015625 444812.500000 21.397287 
v  202283.015625 444812.500000 21.627640 
# 4 vertices

vt 0.0 0.0 0.0
vt 0.003606 0.985780 0.0
vt 0.996789 1.000000 0.0
vt 1.000000 0.0 0.0
# 4 texture vertices

vn  0.937146 0.348937 0.0 
# 1 normals

usemtl surface__18

o IndexedFaceSet__21_0
g IndexedFaceSet__21_0

s off
f 92/91/33 91/92/33 90/90/33
f 89/89/33 90/90/33 91/92/33
# 2 polygons

# Coordinates for object 'IndexedFaceSet #22'
v  202273.296875 444810.500000 21.710772 
v  202273.828125 444809.062500 21.710772 
v  202282.468750 444813.968750 21.627638 
v  202283.015625 444812.500000 21.627640 
# 4 vertices

vt 0.0 1.000000 0.0
vt 0.002632 0.0 0.0
vt 0.330698 1.000000 0.0
vt 0.333330 0.0 0.0
# 4 texture vertices

vn  0.007944 0.002959 0.999964 
vn  0.007949 0.002938 0.999964 
# 2 normals

usemtl surface__2

o IndexedFaceSet__22_0
g IndexedFaceSet__22_0

s off
f 96/94/34 95/96/34 93/95/34
f 93/95/35 94/93/35 96/94/35
# 2 polygons

# Coordinates for object 'IndexedFaceSet #23'
v  202272.046875 444808.343750 21.482422 
v  202272.062500 444808.343750 21.710806 
v  202273.828125 444809.062500 21.482388 
v  202273.828125 444809.062500 21.710772 
# 4 vertices

vt 0.0 0.0 0.0
vt 0.000610 1.000000 0.0
vt 0.999390 0.0 0.0
vt 1.000000 0.999970 0.0
# 4 texture vertices

vn  0.374071 -0.927047 -0.025592 
vn  0.377037 -0.926198 0.0 
# 2 normals

usemtl surface__19

o IndexedFaceSet__23_0
g IndexedFaceSet__23_0

s off
f 98/98/36 97/97/36 99/99/36
f 99/99/37 100/100/37 98/98/37
# 2 polygons

# Coordinates for object 'IndexedFaceSet #24'
v  202273.281250 444810.500000 21.482050 
v  202273.296875 444810.500000 21.710772 
v  202282.468750 444813.968750 21.398914 
v  202282.468750 444813.968750 21.627638 
# 4 vertices

vt 0.0 0.999505 0.0
vt 0.000164 0.0 0.0
vt 0.999828 1.000000 0.0
vt 1.000000 0.000469 0.0
# 4 texture vertices

vn  -0.353741 0.935343 0.0 
vn  -0.352921 0.935342 0.024110 
# 2 normals

usemtl surface__20

o IndexedFaceSet__24_0
g IndexedFaceSet__24_0

s off
f 101/104/39 102/103/39 103/102/39
f 104/101/38 103/102/38 102/103/38
# 2 polygons

# Coordinates for object 'IndexedFaceSet #25'
v  202273.281250 444810.500000 21.482050 
v  202273.843750 444809.031250 21.480421 
v  202282.468750 444813.968750 21.398914 
v  202283.015625 444812.500000 21.397287 
# 4 vertices

vt 0.0 0.0 0.0
vt 0.000031 0.989138 0.0
vt 0.999998 0.011339 0.0
vt 1.000000 1.000000 0.0
# 4 texture vertices

vn  -0.008312 -0.001987 -0.999963 
vn  -0.008271 -0.002059 -0.999964 
# 2 normals

usemtl surface__21

o IndexedFaceSet__25_0
g IndexedFaceSet__25_0

s off
f 106/106/41 105/105/41 107/107/41
f 107/107/40 108/108/40 106/106/40
# 2 polygons

# Coordinates for object 'IndexedFaceSet #26'
v  202273.828125 444809.062500 21.710772 
v  202273.843750 444809.031250 21.480421 
v  202283.015625 444812.500000 21.397287 
v  202283.015625 444812.500000 21.627640 
# 4 vertices

vt 0.0 1.000000 0.0
vt 0.000198 0.000109 0.0
vt 0.999802 0.999890 0.0
vt 1.000000 0.0 0.0
# 4 texture vertices

vn  0.347688 -0.925669 0.149163 
vn  0.353741 -0.935343 0.0 
# 2 normals

usemtl surface__22

o IndexedFaceSet__26_0
g IndexedFaceSet__26_0

s off
f 109/109/42 110/110/42 112/111/42
f 111/112/43 112/111/43 110/110/43
# 2 polygons

# Coordinates for object 'IndexedFaceSet #27'
v  202264.156250 444829.406250 19.514179 
v  202264.937500 444829.718750 19.514177 
v  202266.015625 444826.843750 19.514175 
v  202271.812500 444809.000000 19.514179 
v  202276.125000 444830.656250 19.514149 
v  202282.390625 444812.968750 19.514145 
# 6 vertices

vt 0.0 0.966725 0.0
vt 0.009264 0.0 0.0
vt 0.860295 0.922924 0.0
vt 0.869139 0.0 0.0
vt 0.999314 1.000000 0.0
vt 1.000000 0.928449 0.0
# 6 texture vertices

vn  0.000002 0.0 1.0 
# 1 normals

usemtl surface__23

o IndexedFaceSet__27_0
g IndexedFaceSet__27_0

s off
f 118/114/44 117/116/44 115/115/44
f 115/115/44 113/117/44 116/113/44
f 113/117/44 115/115/44 114/118/44
f 115/115/44 116/113/44 118/114/44
# 4 polygons

# Coordinates for object 'IndexedFaceSet #28'
v  202266.968750 444827.218750 21.473789 
v  202266.968750 444827.218750 21.702173 
v  202273.828125 444809.062500 21.482388 
v  202273.828125 444809.062500 21.710772 
# 4 vertices

vt 0.0 0.999999 0.0
vt 0.0 0.0 0.0
vt 0.999985 1.000000 0.0
vt 1.000000 0.000481 0.0
# 4 texture vertices

vn  0.935466 0.353416 0.0 
# 1 normals

usemtl surface__24

o IndexedFaceSet__28_0
g IndexedFaceSet__28_0

s off
f 122/119/45 121/121/45 120/120/45
f 119/122/45 120/120/45 121/121/45
# 2 polygons

# Coordinates for object 'IndexedFaceSet #29'
v  202266.015625 444826.843750 21.473791 
v  202266.015625 444826.843750 21.702175 
v  202266.968750 444827.218750 21.473789 
v  202266.968750 444827.218750 21.702173 
# 4 vertices

vt 0.0 1.000000 0.0
vt 0.000752 0.001862 0.0
vt 0.998700 0.998513 0.0
vt 1.000000 0.0 0.0
# 4 texture vertices

vn  -0.366124 0.930566 0.0 
# 1 normals

usemtl surface__25

o IndexedFaceSet__29_0
g IndexedFaceSet__29_0

s off
f 124/125/46 126/123/46 125/124/46
f 125/124/46 123/126/46 124/125/46
# 2 polygons

# Coordinates for object 'IndexedFaceSet #30'
v  202264.937500 444829.718750 21.473793 
v  202264.937500 444829.718750 21.702175 
v  202266.015625 444826.843750 21.473791 
v  202266.015625 444826.843750 21.702175 
# 4 vertices

vt 0.0 0.0 0.0
vt 0.000716 0.995938 0.0
vt 0.999953 0.006126 0.0
vt 1.000000 1.000000 0.0
# 4 texture vertices

vn  0.936329 0.351123 0.0 
# 1 normals

usemtl surface__26

o IndexedFaceSet__30_0
g IndexedFaceSet__30_0

s off
f 130/128/47 129/127/47 127/129/47
f 127/129/47 128/130/47 130/128/47
# 2 polygons
