# Converted by Daum Communications 
# Date/time of export: 08/22/2013 14:53:40
#
# Bounding box of geometry = (202266,444574,-1.43434) to (202297,444612,32.0934).

mtllib 4485017.mtl

# Coordinates for object 'IndexedFaceSet'
v  202284.296875 444611.781250 -1.418939 
v  202285.140625 444612.093750 31.548908 
v  202296.078125 444580.687500 -1.434344 
v  202296.890625 444581.062500 31.533550 
# 4 vertices

vt 0.0 0.997615 0.0
vt 0.002435 0.000026 0.0
vt 0.997547 1.000000 0.0
vt 1.000000 0.0 0.0
# 4 texture vertices

vn  0.934779 0.354196 -0.027067 
vn  0.934849 0.353995 -0.027281 
# 2 normals

usemtl surface

o IndexedFaceSet
g IndexedFaceSet

s off
f 2/1/2 4/2/2 1/3/2
f 3/4/1 1/3/1 4/2/1
# 2 polygons

# Coordinates for object 'IndexedFaceSet #1'
v  202265.828125 444604.781250 -0.874457 
v  202266.687500 444605.093750 32.093391 
v  202277.609375 444573.687500 -0.889861 
v  202278.437500 444574.062500 32.078033 
# 4 vertices

vt 0.0 0.000017 0.0
vt 0.002459 1.000000 0.0
vt 0.999955 0.0 0.0
vt 1.000000 0.999980 0.0
# 4 texture vertices

vn  -0.934838 -0.353991 0.027724 
vn  -0.934768 -0.354192 0.027509 
# 2 normals

usemtl surface__2

o IndexedFaceSet__1_0
g IndexedFaceSet__1_0

s off
f 5/7/4 7/5/4 8/6/4
f 8/6/3 6/8/3 5/7/3
# 2 polygons

# Coordinates for object 'IndexedFaceSet #2'
v  202265.828125 444604.781250 -0.874457 
v  202266.687500 444605.093750 32.093391 
v  202284.296875 444611.781250 -1.418939 
v  202285.140625 444612.093750 31.548908 
# 4 vertices

vt 0.0 1.000000 0.0
vt 0.000168 0.0 0.0
vt 0.999861 0.999985 0.0
vt 1.000000 0.0 0.0
# 4 texture vertices

vn  -0.354673 0.934991 0.000214 
vn  -0.354406 0.935092 0.000375 
# 2 normals

usemtl surface__3

o IndexedFaceSet__2_0
g IndexedFaceSet__2_0

s off
f 10/9/5 12/10/5 11/12/5
f 11/12/6 9/11/6 10/9/6
# 2 polygons

# Coordinates for object 'IndexedFaceSet #3'
v  202266.687500 444605.093750 32.093391 
v  202278.437500 444574.062500 32.078033 
v  202285.140625 444612.093750 31.548908 
v  202296.890625 444581.062500 31.533550 
# 4 vertices

vt 0.0 0.0 0.0
vt 0.0 1.000000 0.0
vt 1.000000 0.0 0.0
vt 1.000000 1.000000 0.0
# 4 texture vertices

vn  0.025955 0.009333 0.999620 
# 1 normals

usemtl surface__4

o IndexedFaceSet__3_0
g IndexedFaceSet__3_0

s off
f 13/15/7 14/16/7 15/13/7
f 16/14/7 15/13/7 14/16/7
# 2 polygons

# Coordinates for object 'IndexedFaceSet #4'
v  202277.609375 444573.687500 -0.889861 
v  202278.437500 444574.062500 32.078033 
v  202296.078125 444580.687500 -1.434344 
v  202296.890625 444581.062500 31.533550 
# 4 vertices

vt 0.0 0.000063 0.0
vt 0.000021 1.000000 0.0
vt 0.999974 0.0 0.0
vt 1.000000 0.999957 0.0
# 4 texture vertices

vn  0.354460 -0.935070 0.001732 
vn  0.354726 -0.934968 0.001893 
# 2 normals

usemtl surface__5

o IndexedFaceSet__4_0
g IndexedFaceSet__4_0

s off
f 20/20/9 18/18/9 19/19/9
f 17/17/8 19/19/8 18/18/8
# 2 polygons
