# Converted by Daum Communications 
# Date/time of export: 08/22/2013 14:53:41
#
# Bounding box of geometry = (202353,444579,-1.24402) to (202395,444611,48.1085).

mtllib 4498550.mtl

# Coordinates for object 'IndexedFaceSet'
v  202352.625000 444597.437500 -1.244019 
v  202352.750000 444597.125000 36.768375 
v  202359.625000 444579.000000 -1.244024 
v  202359.625000 444579.000000 36.768375 
# 4 vertices

vt 0.0 0.983381 0.0
vt 0.004431 0.000198 0.0
vt 0.995491 1.000000 0.0
vt 1.000000 0.0 0.0
# 4 texture vertices

vn  -0.934997 -0.354654 0.0 
vn  -0.934889 -0.354941 0.000156 
# 2 normals

usemtl surface

o IndexedFaceSet
g IndexedFaceSet

s off
f 4/1/1 2/2/1 3/3/1
f 1/4/2 3/3/2 2/2/2
# 2 polygons

# Coordinates for object 'IndexedFaceSet #1'
v  202359.625000 444579.000000 -1.244024 
v  202359.625000 444579.000000 36.768375 
v  202386.375000 444589.156250 22.028341 
v  202386.375000 444589.156250 36.768379 
v  202395.156250 444592.500000 -1.244022 
v  202395.156250 444592.500000 22.028336 
# 6 vertices

vt 0.0 0.752694 0.0
vt 0.000396 0.0 0.0
vt 0.387526 1.000000 0.0
vt 0.387651 0.752682 0.0
vt 0.999537 0.999981 0.0
vt 1.000000 0.0 0.0
# 6 texture vertices

vn  0.354951 -0.934885 0.0 
vn  0.355175 -0.934800 -0.000295 
vn  0.355857 -0.934540 0.0 
# 3 normals

usemtl surface__2

o IndexedFaceSet__1_0
g IndexedFaceSet__1_0

s off
f 6/6/3 7/8/3 8/5/3
f 7/8/3 6/6/3 5/10/3
f 7/8/5 9/9/5 10/7/5
f 9/9/4 7/8/4 5/10/4
# 4 polygons

# Coordinates for object 'IndexedFaceSet #2'
v  202352.625000 444597.437500 -1.244019 
v  202352.750000 444597.125000 36.768375 
v  202379.375000 444607.593750 22.028345 
v  202379.500000 444607.281250 36.768375 
v  202388.218750 444610.750000 -1.244022 
v  202388.218750 444610.750000 22.028336 
# 6 vertices

vt 0.0 0.251068 0.0
vt 0.004094 1.000000 0.0
vt 0.384038 0.237502 0.0
vt 0.385942 0.0 0.0
vt 0.999226 0.009401 0.0
vt 1.000000 0.996974 0.0
# 6 texture vertices

vn  -0.361659 0.932268 0.008853 
vn  -0.354858 0.934642 0.022824 
vn  -0.350306 0.936616 -0.006094 
vn  -0.336126 0.941817 0.0 
# 4 normals

usemtl surface__3

o IndexedFaceSet__2_0
g IndexedFaceSet__2_0

s off
f 12/12/7 14/11/7 13/13/7
f 12/12/6 13/13/6 11/16/6
f 15/15/8 11/16/8 13/13/8
f 15/15/9 13/13/9 16/14/9
# 4 polygons

# Coordinates for object 'IndexedFaceSet #3'
v  202379.375000 444607.593750 22.028345 
v  202379.500000 444607.281250 36.768375 
v  202386.375000 444589.156250 22.028341 
v  202386.375000 444589.156250 36.768379 
# 4 vertices

vt 0.0 0.0 0.0
vt 0.0 1.000000 0.0
vt 0.983149 0.999999 0.0
vt 1.000000 0.0 0.0
# 4 texture vertices

vn  0.934889 0.354941 -0.000403 
vn  0.934997 0.354654 0.0 
# 2 normals

usemtl surface__4

o IndexedFaceSet__3_0
g IndexedFaceSet__3_0

s off
f 19/17/10 17/20/10 18/19/10
f 18/19/11 20/18/11 19/17/11
# 2 polygons

# Coordinates for object 'IndexedFaceSet #4'
v  202352.750000 444597.125000 36.768375 
v  202359.625000 444579.000000 36.768375 
v  202379.500000 444607.281250 36.768375 
v  202386.375000 444589.156250 36.768379 
# 4 vertices

vt 0.0 0.0 0.0
vt 0.0 1.000000 0.0
vt 1.000000 0.0 0.0
vt 1.000000 1.000000 0.0
# 4 texture vertices

vn  0.0 0.0 1.0 
# 1 normals

usemtl surface__5

o IndexedFaceSet__4_0
g IndexedFaceSet__4_0

s off
f 24/24/12 23/22/12 21/21/12
f 21/21/12 22/23/12 24/24/12
# 2 polygons

# Coordinates for object 'IndexedFaceSet #5'
v  202379.375000 444607.593750 22.028345 
v  202386.375000 444589.156250 22.028341 
v  202388.218750 444610.750000 22.028336 
v  202395.156250 444592.500000 22.028336 
# 4 vertices

vt 0.0 0.500000 0.0
vt 0.0 1.000000 0.0
vt 0.990779 0.500000 0.0
vt 1.000000 1.000000 0.0
# 4 texture vertices

vn  0.0 0.0 1.0 
# 1 normals

usemtl surface__5

o IndexedFaceSet__5_0
g IndexedFaceSet__5_0

s off
f 28/25/13 27/27/13 26/26/13
f 25/28/13 26/26/13 27/27/13
# 2 polygons

# Coordinates for object 'IndexedFaceSet #6'
v  202388.218750 444610.750000 -1.244022 
v  202388.218750 444610.750000 22.028336 
v  202395.156250 444592.500000 -1.244022 
v  202395.156250 444592.500000 22.028336 
# 4 vertices

vt 0.0 0.000100 0.0
vt 0.0 1.000000 0.0
vt 0.999999 0.999898 0.0
vt 1.000000 0.0 0.0
# 4 texture vertices

vn  0.934741 0.355330 0.0 
# 1 normals

usemtl surface__6

o IndexedFaceSet__6_0
g IndexedFaceSet__6_0

s off
f 31/31/14 29/32/14 30/29/14
f 30/29/14 32/30/14 31/31/14
# 2 polygons

# Coordinates for object 'IndexedFaceSet #7'
v  202355.187500 444596.187500 36.768372 
v  202355.187500 444596.187500 38.934547 
v  202360.562500 444581.968750 36.729694 
v  202360.562500 444581.968750 38.934555 
# 4 vertices

vt 0.0 0.982399 0.0
vt 0.000335 0.000030 0.0
vt 0.999644 1.000000 0.0
vt 1.000000 0.0 0.0
# 4 texture vertices

vn  -0.935397 -0.353600 0.0 
# 1 normals

usemtl surface__7

o IndexedFaceSet__7_0
g IndexedFaceSet__7_0

s off
f 36/35/15 34/33/15 33/34/15
f 33/34/15 35/36/15 36/35/15
# 2 polygons

# Coordinates for object 'IndexedFaceSet #8'
v  202367.562500 444600.875000 36.768387 
v  202367.562500 444600.875000 38.934563 
v  202372.953125 444586.656250 36.729710 
v  202372.953125 444586.656250 38.934566 
# 4 vertices

vt 0.0 0.983061 0.0
vt 0.000341 0.0 0.0
vt 0.999626 1.000000 0.0
vt 1.000000 0.000043 0.0
# 4 texture vertices

vn  0.935056 0.354499 0.0 
# 1 normals

usemtl surface__8

o IndexedFaceSet__8_0
g IndexedFaceSet__8_0

s off
f 39/40/16 37/38/16 40/39/16
f 38/37/16 40/39/16 37/38/16
# 2 polygons

# Coordinates for object 'IndexedFaceSet #9'
v  202360.562500 444581.968750 36.729694 
v  202360.562500 444581.968750 38.934555 
v  202372.953125 444586.656250 36.729710 
v  202372.953125 444586.656250 38.934566 
# 4 vertices

vt 0.0 0.0 0.0
vt 0.000015 0.993040 0.0
vt 0.999979 0.006809 0.0
vt 1.000000 1.000000 0.0
# 4 texture vertices

vn  0.353836 -0.935307 0.0 
# 1 normals

usemtl surface__9

o IndexedFaceSet__9_0
g IndexedFaceSet__9_0

s off
f 42/42/17 41/41/17 44/44/17
f 43/43/17 44/44/17 41/41/17
# 2 polygons

# Coordinates for object 'IndexedFaceSet #10'
v  202355.187500 444596.187500 38.934547 
v  202360.562500 444581.968750 38.934555 
v  202367.562500 444600.875000 38.934563 
v  202372.953125 444586.656250 38.934566 
# 4 vertices

vt 0.0 0.0 0.0
vt 0.000011 0.999530 0.0
vt 0.999986 0.000296 0.0
vt 1.000000 1.000000 0.0
# 4 texture vertices

vn  0.0 0.0 1.0 
# 1 normals

usemtl surface__10

o IndexedFaceSet__10_0
g IndexedFaceSet__10_0

s off
f 48/45/18 47/46/18 46/47/18
f 45/48/18 46/47/18 47/46/18
# 2 polygons

# Coordinates for object 'IndexedFaceSet #11'
v  202355.187500 444596.187500 36.768372 
v  202355.187500 444596.187500 38.934547 
v  202367.562500 444600.875000 36.768387 
v  202367.562500 444600.875000 38.934563 
# 4 vertices

vt 0.0 0.0 0.0
vt 0.000013 0.999839 0.0
vt 0.999989 0.000073 0.0
vt 1.000000 1.000000 0.0
# 4 texture vertices

vn  -0.354227 0.935159 0.0 
# 1 normals

usemtl surface__11

o IndexedFaceSet__11_0
g IndexedFaceSet__11_0

s off
f 49/51/19 50/52/19 52/50/19
f 52/50/19 51/49/19 49/51/19
# 2 polygons

# Coordinates for object 'IndexedFaceSet #12'
v  202354.390625 444595.843750 48.108536 
v  202359.875000 444580.875000 48.108536 
v  202366.859375 444600.625000 48.108536 
v  202372.531250 444585.687500 48.108536 
# 4 vertices

vt 0.0 0.985700 0.0
vt 0.011871 0.0 0.0
vt 0.989839 1.000000 0.0
vt 1.000000 0.0 0.0
# 4 texture vertices

vn  0.0 0.0 1.0 
# 1 normals

usemtl surface__12

o IndexedFaceSet__12_0
g IndexedFaceSet__12_0

s off
f 56/55/20 55/53/20 53/54/20
f 53/54/20 54/56/20 56/55/20
# 2 polygons

# Coordinates for object 'IndexedFaceSet #13'
v  202366.859375 444600.625000 38.934551 
v  202366.859375 444600.625000 48.108536 
v  202372.531250 444585.687500 38.934547 
v  202372.531250 444585.687500 48.108536 
# 4 vertices

vt 0.0 0.000014 0.0
vt 0.000019 0.999968 0.0
vt 0.999981 0.0 0.0
vt 1.000000 1.000000 0.0
# 4 texture vertices

vn  0.934874 0.354978 0.0 
# 1 normals

usemtl surface__13

o IndexedFaceSet__13_0
g IndexedFaceSet__13_0

s off
f 59/59/21 57/57/21 60/60/21
f 58/58/21 60/60/21 57/57/21
# 2 polygons

# Coordinates for object 'IndexedFaceSet #14'
v  202359.875000 444580.875000 38.934551 
v  202359.875000 444580.875000 48.108536 
v  202372.531250 444585.687500 38.934547 
v  202372.531250 444585.687500 48.108536 
# 4 vertices

vt 0.0 0.000014 0.0
vt 0.000019 0.999968 0.0
vt 0.999981 0.0 0.0
vt 1.000000 1.000000 0.0
# 4 texture vertices

vn  0.355419 -0.934707 0.0 
# 1 normals

usemtl surface__13

o IndexedFaceSet__14_0
g IndexedFaceSet__14_0

s off
f 64/62/22 62/64/22 61/63/22
f 61/63/22 63/61/22 64/62/22
# 2 polygons

# Coordinates for object 'IndexedFaceSet #15'
v  202354.390625 444595.843750 38.934547 
v  202354.390625 444595.843750 48.108536 
v  202359.875000 444580.875000 38.934551 
v  202359.875000 444580.875000 48.108536 
# 4 vertices

vt 0.0 0.000014 0.0
vt 0.000019 0.999968 0.0
vt 0.999981 0.0 0.0
vt 1.000000 1.000000 0.0
# 4 texture vertices

vn  -0.938961 -0.344024 0.0 
# 1 normals

usemtl surface__13

o IndexedFaceSet__15_0
g IndexedFaceSet__15_0

s off
f 68/68/23 66/66/23 65/65/23
f 65/65/23 67/67/23 68/68/23
# 2 polygons

# Coordinates for object 'IndexedFaceSet #16'
v  202354.390625 444595.843750 38.934547 
v  202354.390625 444595.843750 48.108536 
v  202366.859375 444600.625000 38.934551 
v  202366.859375 444600.625000 48.108536 
# 4 vertices

vt 0.0 0.000014 0.0
vt 0.000019 0.999968 0.0
vt 0.999981 0.0 0.0
vt 1.000000 1.000000 0.0
# 4 texture vertices

vn  -0.358038 0.933707 0.0 
# 1 normals

usemtl surface__13

o IndexedFaceSet__16_0
g IndexedFaceSet__16_0

s off
f 70/72/24 72/70/24 71/69/24
f 71/69/24 69/71/24 70/72/24
# 2 polygons

# Coordinates for object 'IndexedFaceSet #17'
v  202359.828125 444599.812500 36.768375 
v  202359.828125 444599.812500 38.727974 
v  202360.453125 444598.187500 36.758675 
v  202360.453125 444598.187500 38.728977 
# 4 vertices

vt 0.0 0.994453 0.0
vt 0.006023 0.0 0.0
vt 0.993989 1.000000 0.0
vt 1.000000 0.0 0.0
# 4 texture vertices

vn  -0.933346 -0.358979 0.0 
# 1 normals

usemtl surface__14

o IndexedFaceSet__17_0
g IndexedFaceSet__17_0

s off
f 76/75/25 74/73/25 73/74/25
f 73/74/25 75/76/25 76/75/25
# 2 polygons

# Coordinates for object 'IndexedFaceSet #18'
v  202374.484375 444605.343750 36.768375 
v  202374.484375 444605.343750 38.727978 
v  202375.921875 444601.562500 36.752033 
v  202375.921875 444601.562500 38.722336 
# 4 vertices

vt 0.0 0.0 0.0
vt 0.000013 0.999839 0.0
vt 0.999989 0.000073 0.0
vt 1.000000 1.000000 0.0
# 4 texture vertices

vn  0.934732 0.355353 0.0 
# 1 normals

usemtl surface__11

o IndexedFaceSet__18_0
g IndexedFaceSet__18_0

s off
f 79/79/26 77/77/26 80/80/26
f 78/78/26 80/80/26 77/77/26
# 2 polygons

# Coordinates for object 'IndexedFaceSet #19'
v  202368.375000 444598.718750 36.761745 
v  202368.406250 444598.718750 38.722336 
v  202375.921875 444601.562500 36.752033 
v  202375.921875 444601.562500 38.722336 
# 4 vertices

vt 0.0 0.0 0.0
vt 0.005446 0.997562 0.0
vt 0.998944 1.000000 0.0
vt 1.000000 0.001203 0.0
# 4 texture vertices

vn  0.352597 -0.935758 -0.005620 
vn  0.353892 -0.935286 0.0 
# 2 normals

usemtl surface__15

o IndexedFaceSet__19_0
g IndexedFaceSet__19_0

s off
f 84/83/28 82/82/28 83/84/28
f 81/81/27 83/84/27 82/82/27
# 2 polygons

# Coordinates for object 'IndexedFaceSet #20'
v  202359.828125 444599.812500 36.768375 
v  202359.828125 444599.812500 38.727974 
v  202374.484375 444605.343750 36.768375 
v  202374.484375 444605.343750 38.727978 
# 4 vertices

vt 0.0 0.000194 0.0
vt 0.000032 0.999767 0.0
vt 0.999974 0.0 0.0
vt 1.000000 1.000000 0.0
# 4 texture vertices

vn  -0.353090 0.935589 0.0 
# 1 normals

usemtl surface__16

o IndexedFaceSet__20_0
g IndexedFaceSet__20_0

s off
f 85/87/29 86/88/29 87/85/29
f 88/86/29 87/85/29 86/88/29
# 2 polygons

# Coordinates for object 'IndexedFaceSet #21'
v  202359.828125 444599.812500 38.727974 
v  202360.453125 444598.187500 38.728977 
v  202367.593750 444600.875000 38.728981 
v  202368.406250 444598.718750 38.722336 
v  202374.484375 444605.343750 38.727978 
v  202375.921875 444601.562500 38.722336 
# 6 vertices

vt 0.0 0.565845 0.0
vt 0.0 1.000000 0.0
vt 0.487538 0.0 0.0
vt 0.487642 0.565846 0.0
vt 0.999829 0.0 0.0
vt 1.000000 1.000000 0.0
# 6 texture vertices

vn  -0.000203 0.000538 1.000000 
vn  0.000893 -0.001153 0.999999 
vn  0.001021 -0.002697 0.999996 
# 3 normals

usemtl surface__17

o IndexedFaceSet__21_0
g IndexedFaceSet__21_0

s off
f 93/94/31 91/92/31 94/93/31
f 91/92/30 93/94/30 89/90/30
f 94/93/32 91/92/32 92/91/32
f 90/89/30 91/92/30 89/90/30
# 4 polygons

# Coordinates for object 'IndexedFaceSet #22'
v  202367.562500 444600.875000 36.768387 
v  202367.593750 444600.875000 38.728981 
v  202368.375000 444598.718750 36.761745 
v  202368.406250 444598.718750 38.722336 
# 4 vertices

vt 0.0 0.0 0.0
vt 0.002528 1.000000 0.0
vt 0.997346 0.000029 0.0
vt 1.000000 1.000000 0.0
# 4 texture vertices

vn  -0.935651 -0.352610 0.014913 
# 1 normals

usemtl surface__18

o IndexedFaceSet__22_0
g IndexedFaceSet__22_0

s off
f 98/98/33 96/96/33 97/97/33
f 95/95/33 97/97/33 96/96/33
# 2 polygons
