# Converted by Daum Communications 
# Date/time of export: 08/22/2013 14:53:42
#
# Bounding box of geometry = (202209,444952,-1.08986) to (202240,444980,31.1965).

mtllib 4527408.mtl

# Coordinates for object 'IndexedFaceSet'
v  202208.765625 444970.687500 31.196516 
v  202208.796875 444970.625000 -1.089841 
v  202210.203125 444966.750000 26.596361 
v  202210.203125 444966.750000 30.118603 
v  202210.875000 444964.906250 30.118601 
v  202210.875000 444964.906250 31.196510 
v  202215.562500 444952.125000 -1.089863 
v  202215.562500 444952.125000 26.596350 
# 8 vertices

vt 0.0 0.0 0.0
vt 0.0 0.310671 0.0
vt 0.033386 0.210832 0.0
vt 0.033389 0.310665 0.0
vt 0.142480 0.210842 0.0
vt 0.142482 1.000000 0.0
vt 0.999994 0.002796 0.0
vt 1.000000 0.999857 0.0
# 8 texture vertices

vn  -0.939561 -0.342382 0.0 
vn  -0.939450 -0.342686 -0.000246 
vn  -0.939422 -0.342762 -0.000736 
vn  -0.939357 -0.342940 0.0 
vn  -0.939166 -0.343462 -0.000369 
vn  -0.938941 -0.344078 0.0 
# 6 normals

usemtl surface

o IndexedFaceSet
g IndexedFaceSet

s off
f 1/1/3 4/3/3 6/2/3
f 4/3/4 1/1/4 3/5/4
f 5/4/1 6/2/1 4/3/1
f 3/5/5 2/7/5 7/8/5
f 2/7/2 3/5/2 1/1/2
f 7/8/6 8/6/6 3/5/6
# 6 polygons

# Coordinates for object 'IndexedFaceSet #1'
v  202233.531250 444979.718750 31.196541 
v  202233.562500 444979.687500 -1.089818 
v  202234.968750 444975.812500 26.596386 
v  202234.968750 444975.812500 30.118626 
v  202235.640625 444973.968750 30.118624 
v  202235.640625 444973.968750 31.196531 
v  202240.328125 444961.156250 -1.089839 
v  202240.328125 444961.156250 26.596375 
# 8 vertices

vt 0.0 0.0 0.0
vt 0.0 0.310697 0.0
vt 0.033396 0.310694 0.0
vt 0.033397 0.210859 0.0
vt 0.142493 0.210843 0.0
vt 0.142498 1.000000 0.0
vt 0.999994 0.002724 0.0
vt 1.000000 0.999775 0.0
# 8 texture vertices

vn  0.938471 0.345357 0.0 
vn  0.938690 0.344761 0.000575 
vn  0.938814 0.344402 0.003920 
vn  0.939178 0.343431 0.0 
vn  0.939353 0.342951 0.000288 
vn  0.939561 0.342382 0.0 
# 6 normals

usemtl surface__2

o IndexedFaceSet__1_0
g IndexedFaceSet__1_0

s off
f 10/15/11 11/13/11 15/16/11
f 11/13/8 10/15/8 9/9/8
f 16/14/10 15/16/10 11/13/10
f 12/12/9 9/9/9 14/10/9
f 9/9/7 12/12/7 11/13/7
f 14/10/12 13/11/12 12/12/12
# 6 polygons

# Coordinates for object 'IndexedFaceSet #2'
v  202215.562500 444952.125000 -1.089863 
v  202215.562500 444952.125000 26.596350 
v  202240.328125 444961.156250 -1.089839 
v  202240.328125 444961.156250 26.596375 
# 4 vertices

vt 0.0 1.000000 0.0
vt 0.000287 0.000237 0.0
vt 0.999830 0.0 0.0
vt 1.000000 0.999837 0.0
# 4 texture vertices

vn  0.342600 -0.939481 0.0 
# 1 normals

usemtl surface__3

o IndexedFaceSet__2_0
g IndexedFaceSet__2_0

s off
f 20/18/13 18/17/13 19/19/13
f 17/20/13 19/19/13 18/17/13
# 2 polygons

# Coordinates for object 'IndexedFaceSet #3'
v  202210.203125 444966.750000 26.596361 
v  202214.781250 444951.687500 26.597269 
v  202234.968750 444975.812500 26.596386 
v  202240.375000 444961.031250 26.597292 
# 4 vertices

vt 0.0 0.500000 0.0
vt 0.0 1.000000 0.0
vt 0.967834 0.500000 0.0
vt 1.000000 1.000000 0.0
# 4 texture vertices

vn  -0.000021 0.000054 1.0 
# 1 normals

usemtl surface__4

o IndexedFaceSet__3_0
g IndexedFaceSet__3_0

s off
f 24/22/14 23/21/14 21/23/14
f 21/23/14 22/24/14 24/22/14
# 2 polygons

# Coordinates for object 'IndexedFaceSet #4'
v  202210.203125 444966.750000 26.596361 
v  202210.203125 444966.750000 30.118603 
v  202234.968750 444975.812500 26.596386 
v  202234.968750 444975.812500 30.118626 
# 4 vertices

vt 0.0 0.0 0.0
vt 0.0 1.000000 0.0
vt 0.200000 0.0 0.0
vt 0.200000 0.999995 0.0
# 4 texture vertices

vn  0.343645 -0.939100 0.0 
# 1 normals

usemtl surface__5

o IndexedFaceSet__4_0
g IndexedFaceSet__4_0

s off
f 26/26/15 25/25/15 27/27/15
f 27/27/15 28/28/15 26/26/15
# 2 polygons

# Coordinates for object 'IndexedFaceSet #5'
v  202210.203125 444966.750000 30.118603 
v  202210.875000 444964.906250 30.118601 
v  202234.968750 444975.812500 30.118626 
v  202235.640625 444973.968750 30.118624 
# 4 vertices

vt 0.0 0.999883 0.0
vt 0.0 0.0 0.0
vt 0.999994 0.000302 0.0
vt 1.000000 1.000000 0.0
# 4 texture vertices

vn  0.0 0.000001 -1.0 
# 1 normals

usemtl surface__6

o IndexedFaceSet__5_0
g IndexedFaceSet__5_0

s off
f 30/29/16 29/30/16 32/32/16
f 31/31/16 32/32/16 29/30/16
# 2 polygons

# Coordinates for object 'IndexedFaceSet #6'
v  202210.875000 444964.906250 30.118601 
v  202210.875000 444964.906250 31.196510 
v  202235.640625 444973.968750 30.118624 
v  202235.640625 444973.968750 31.196531 
# 4 vertices

vt 0.0 0.500000 0.0
vt 0.0 1.000000 0.0
vt 1.000000 0.500007 0.0
vt 1.000000 1.000000 0.0
# 4 texture vertices

vn  0.343645 -0.939100 0.0 
# 1 normals

usemtl surface__7

o IndexedFaceSet__6_0
g IndexedFaceSet__6_0

s off
f 34/34/17 33/33/17 36/36/17
f 35/35/17 36/36/17 33/33/17
# 2 polygons

# Coordinates for object 'IndexedFaceSet #7'
v  202208.765625 444970.687500 31.196516 
v  202210.875000 444964.906250 31.196510 
v  202233.531250 444979.718750 31.196541 
v  202235.640625 444973.968750 31.196531 
# 4 vertices

vt 0.0 0.500000 0.0
vt 0.0 1.000000 0.0
vt 1.000000 0.500001 0.0
vt 1.000000 1.000000 0.0
# 4 texture vertices

vn  0.0 -0.000002 1.0 
# 1 normals

usemtl surface__8

o IndexedFaceSet__7_0
g IndexedFaceSet__7_0

s off
f 40/39/18 39/40/18 37/38/18
f 37/38/18 38/37/18 40/39/18
# 2 polygons

# Coordinates for object 'IndexedFaceSet #8'
v  202208.765625 444970.687500 31.196516 
v  202208.796875 444970.625000 -1.089841 
v  202233.531250 444979.718750 31.196541 
v  202233.562500 444979.687500 -1.089818 
# 4 vertices

vt 0.0 1.000000 0.0
vt 0.000287 0.000237 0.0
vt 0.999830 0.0 0.0
vt 1.000000 0.999837 0.0
# 4 texture vertices

vn  -0.343645 0.939099 -0.001242 
vn  -0.342599 0.939479 -0.002150 
# 2 normals

usemtl surface__3

o IndexedFaceSet__8_0
g IndexedFaceSet__8_0

s off
f 41/41/20 43/42/20 42/44/20
f 44/43/19 42/44/19 43/42/19
# 2 polygons

# Coordinates for object 'IndexedFaceSet #9'
v  202210.203125 444966.750000 25.332809 
v  202210.203125 444966.750000 26.596361 
v  202214.781250 444951.687500 25.332809 
v  202214.781250 444951.687500 26.597269 
# 4 vertices

vt 0.0 0.000054 0.0
vt 0.000011 0.999221 0.0
vt 0.999993 0.0 0.0
vt 1.000000 1.000000 0.0
# 4 texture vertices

vn  -0.956782 -0.290806 0.0 
# 1 normals

usemtl surface__9

o IndexedFaceSet__9_0
g IndexedFaceSet__9_0

s off
f 48/48/21 46/46/21 47/47/21
f 45/45/21 47/47/21 46/46/21
# 2 polygons

# Coordinates for object 'IndexedFaceSet #10'
v  202210.203125 444966.750000 25.332809 
v  202214.781250 444951.687500 25.332809 
v  202215.609375 444951.968750 25.332809 
# 3 vertices

vt 0.0 0.001096 0.0
vt 0.003036 1.000000 0.0
vt 1.000000 0.0 0.0
# 3 texture vertices

vn  0.0 0.0 -1.0 
# 1 normals

usemtl surface__10

o IndexedFaceSet__10_0
g IndexedFaceSet__10_0

s off
f 50/49/22 49/51/22 51/50/22
# 1 polygons

# Coordinates for object 'IndexedFaceSet #11'
v  202214.781250 444951.687500 25.332809 
v  202214.781250 444951.687500 26.597269 
v  202215.609375 444951.968750 25.332809 
v  202215.609375 444951.968750 26.597265 
# 4 vertices

vt 0.0 0.0 0.0
vt 0.0 1.000000 0.0
vt 0.199997 0.999998 0.0
vt 0.200000 0.0 0.0
# 4 texture vertices

vn  0.321582 -0.946882 0.0 
# 1 normals

usemtl surface__7

o IndexedFaceSet__11_0
g IndexedFaceSet__11_0

s off
f 55/54/23 53/53/23 52/52/23
f 52/52/23 54/55/23 55/54/23
# 2 polygons

# Coordinates for object 'IndexedFaceSet #12'
v  202215.562500 444952.125000 25.332809 
v  202215.562500 444952.125000 26.596350 
v  202215.609375 444951.968750 25.332809 
v  202215.609375 444951.968750 26.597265 
# 4 vertices

vt 0.0 1.000000 0.0
vt 0.000689 0.001696 0.0
vt 0.999962 0.0 0.0
vt 1.000000 0.998135 0.0
# 4 texture vertices

vn  -0.957826 -0.287348 0.0 
# 1 normals

usemtl surface__11

o IndexedFaceSet__12_0
g IndexedFaceSet__12_0

s off
f 59/56/24 57/57/24 58/59/24
f 56/58/24 58/59/24 57/57/24
# 2 polygons

# Coordinates for object 'IndexedFaceSet #13'
v  202240.328125 444961.156250 25.332838 
v  202240.328125 444961.156250 26.596375 
v  202240.375000 444961.031250 25.332838 
v  202240.375000 444961.031250 26.597292 
# 4 vertices

vt 0.0 1.000000 0.0
vt 0.000689 0.001696 0.0
vt 0.999962 0.0 0.0
vt 1.000000 0.998135 0.0
# 4 texture vertices

vn  0.936329 0.351123 0.0 
# 1 normals

usemtl surface__11

o IndexedFaceSet__13_0
g IndexedFaceSet__13_0

s off
f 62/63/25 60/62/25 61/61/25
f 61/61/25 63/60/25 62/63/25
# 2 polygons

# Coordinates for object 'IndexedFaceSet #14'
v  202215.562500 444952.125000 25.332809 
v  202215.609375 444951.968750 25.332809 
v  202240.328125 444961.156250 25.332838 
v  202240.375000 444961.031250 25.332838 
# 4 vertices

vt 0.0 0.0 0.0
vt 0.0 0.924027 0.0
vt 0.999999 0.075322 0.0
vt 1.000000 1.000000 0.0
# 4 texture vertices

vn  -0.000001 0.0 1.0 
# 1 normals

usemtl surface__12

o IndexedFaceSet__14_0
g IndexedFaceSet__14_0

s off
f 65/66/26 67/64/26 66/65/26
f 66/65/26 64/67/26 65/66/26
# 2 polygons

# Coordinates for object 'IndexedFaceSet #15'
v  202215.609375 444951.968750 25.332809 
v  202215.609375 444951.968750 26.597265 
v  202240.375000 444961.031250 25.332838 
v  202240.375000 444961.031250 26.597292 
# 4 vertices

vt 0.0 0.500000 0.0
vt 0.0 1.000000 0.0
vt 0.999999 1.000000 0.0
vt 1.000000 0.500011 0.0
# 4 texture vertices

vn  0.343645 -0.939100 0.0 
# 1 normals

usemtl surface__7

o IndexedFaceSet__15_0
g IndexedFaceSet__15_0

s off
f 69/69/27 68/68/27 71/70/27
f 70/71/27 71/70/27 68/68/27
# 2 polygons

# Coordinates for object 'IndexedFaceSet #16'
v  202214.750000 444951.812500 25.332809 
v  202214.781250 444951.687500 25.332809 
v  202240.328125 444961.156250 25.332838 
v  202240.375000 444961.031250 25.332838 
# 4 vertices

vt 0.0 0.898353 0.0
vt 0.000247 0.003454 0.0
vt 0.999991 1.000000 0.0
vt 1.000000 0.0 0.0
# 4 texture vertices

vn  0.000001 0.0 -1.0 
# 1 normals

usemtl surface__13

o IndexedFaceSet__16_0
g IndexedFaceSet__16_0

s off
f 73/72/28 72/73/28 75/74/28
f 74/75/28 75/74/28 72/73/28
# 2 polygons

# Coordinates for object 'IndexedFaceSet #17'
v  202215.562500 444952.125000 22.252010 
v  202215.609375 444951.968750 22.252010 
v  202240.328125 444961.156250 22.252039 
v  202240.375000 444961.031250 22.252037 
# 4 vertices

vt 0.0 0.0 0.0
vt 0.0 0.999312 0.0
vt 1.000000 0.000688 0.0
vt 1.000000 1.000000 0.0
# 4 texture vertices

vn  -0.000001 0.0 1.0 
vn  0.000004 -0.000014 1.0 
# 2 normals

usemtl surface__14

o IndexedFaceSet__17_0
g IndexedFaceSet__17_0

s off
f 79/77/30 78/76/30 77/79/30
f 76/78/29 77/79/29 78/76/29
# 2 polygons

# Coordinates for object 'IndexedFaceSet #18'
v  202210.984375 444964.625000 22.413612 
v  202214.718750 444951.656250 22.252010 
v  202215.609375 444951.968750 22.252010 
# 3 vertices

vt 0.0 0.0 0.0
vt 0.999976 1.000000 0.0
vt 1.000000 0.0 0.0
# 3 texture vertices

vn  0.003971 -0.011317 0.999928 
# 1 normals

usemtl surface__15

o IndexedFaceSet__18_0
g IndexedFaceSet__18_0

s off
f 80/81/31 81/80/31 82/82/31
# 1 polygons

# Coordinates for object 'IndexedFaceSet #19'
v  202210.984375 444964.625000 8.618011 
v  202214.718750 444951.656250 8.669307 
v  202215.609375 444951.968750 8.669308 
# 3 vertices

vt 0.0 0.004423 0.0
vt 0.004932 1.000000 0.0
vt 1.000000 0.0 0.0
# 3 texture vertices

vn  0.001261 -0.003592 -0.999993 
# 1 normals

usemtl surface__16

o IndexedFaceSet__19_0
g IndexedFaceSet__19_0

s off
f 84/83/32 83/85/32 85/84/32
# 1 polygons

# Coordinates for object 'IndexedFaceSet #20'
v  202214.718750 444951.656250 8.669307 
v  202214.718750 444951.656250 22.252010 
v  202215.609375 444951.968750 8.669308 
v  202215.609375 444951.968750 22.252010 
# 4 vertices

vt 0.0 0.0 0.0
vt 0.0 1.000000 0.0
vt 0.200000 0.0 0.0
vt 0.200000 1.000000 0.0
# 4 texture vertices

vn  0.331088 -0.943600 0.0 
# 1 normals

usemtl surface__7

o IndexedFaceSet__20_0
g IndexedFaceSet__20_0

s off
f 89/89/33 87/87/33 88/88/33
f 86/86/33 88/88/33 87/87/33
# 2 polygons

# Coordinates for object 'IndexedFaceSet #21'
v  202215.562500 444952.125000 8.669308 
v  202215.609375 444951.968750 8.669308 
v  202240.328125 444961.156250 8.669334 
v  202240.375000 444961.031250 8.669334 
# 4 vertices

vt 0.0 0.109242 0.0
vt 0.0 1.000000 0.0
vt 0.999997 0.0 0.0
vt 1.000000 0.893107 0.0
# 4 texture vertices

vn  0.0 0.0 -1.0 
# 1 normals

usemtl surface__17

o IndexedFaceSet__21_0
g IndexedFaceSet__21_0

s off
f 91/92/34 90/93/34 93/90/34
f 92/91/34 93/90/34 90/93/34
# 2 polygons

# Coordinates for object 'IndexedFaceSet #22'
v  202215.562500 444952.125000 8.669308 
v  202215.562500 444952.125000 22.252010 
v  202215.609375 444951.968750 8.669308 
v  202215.609375 444951.968750 22.252010 
# 4 vertices

vt 0.0 0.0 0.0
vt 0.0 0.991090 0.0
vt 0.999997 1.000000 0.0
vt 1.000000 0.008951 0.0
# 4 texture vertices

vn  0.957826 0.287348 0.0 
# 1 normals

usemtl surface__18

o IndexedFaceSet__22_0
g IndexedFaceSet__22_0

s off
f 96/97/35 94/96/35 97/94/35
f 95/95/35 97/94/35 94/96/35
# 2 polygons

# Coordinates for object 'IndexedFaceSet #23'
v  202240.328125 444961.156250 8.669334 
v  202240.328125 444961.156250 22.252039 
v  202240.375000 444961.031250 8.669334 
v  202240.375000 444961.031250 22.252037 
# 4 vertices

vt 0.0 1.000000 0.0
vt 0.0 0.009787 0.0
vt 0.999998 0.0 0.0
vt 1.000000 0.990170 0.0
# 4 texture vertices

vn  0.936329 0.351123 0.0 
# 1 normals

usemtl surface__19

o IndexedFaceSet__23_0
g IndexedFaceSet__23_0

s off
f 100/101/36 98/100/36 101/98/36
f 99/99/36 101/98/36 98/100/36
# 2 polygons

# Coordinates for object 'IndexedFaceSet #24'
v  202215.609375 444951.968750 8.669308 
v  202215.609375 444951.968750 22.252010 
v  202240.375000 444961.031250 8.669334 
v  202240.375000 444961.031250 22.252037 
# 4 vertices

vt 0.0 0.500000 0.0
vt 0.0 1.000000 0.0
vt 1.000000 0.500000 0.0
vt 1.000000 1.000000 0.0
# 4 texture vertices

vn  0.343645 -0.939100 0.0 
# 1 normals

usemtl surface__7

o IndexedFaceSet__24_0
g IndexedFaceSet__24_0

s off
f 105/105/37 103/103/37 104/104/37
f 102/102/37 104/104/37 103/103/37
# 2 polygons

# Coordinates for object 'IndexedFaceSet #25'
v  202210.984375 444964.625000 8.618011 
v  202210.984375 444964.625000 22.413612 
v  202214.718750 444951.656250 8.669307 
v  202214.718750 444951.656250 22.252010 
# 4 vertices

vt 0.0 0.0 0.0
vt 0.003957 1.000000 0.0
vt 0.996159 0.0 0.0
vt 1.000000 0.984564 0.0
# 4 texture vertices

vn  -0.960954 -0.276708 0.0 
# 1 normals

usemtl surface__20

o IndexedFaceSet__25_0
g IndexedFaceSet__25_0

s off
f 109/109/38 107/107/38 106/106/38
f 106/106/38 108/108/38 109/109/38
# 2 polygons
