# Converted by Daum Communications 
# Date/time of export: 08/22/2013 14:53:42
#
# Bounding box of geometry = (202283,444756,-0.833691) to (202310,444786,34.0691).

mtllib 4527503.mtl

# Coordinates for object 'IndexedFaceSet'
v  202282.578125 444779.531250 -0.833679 
v  202282.609375 444779.500000 31.687767 
v  202290.734375 444755.906250 -0.833691 
v  202290.734375 444755.906250 31.687757 
# 4 vertices

vt 0.0 0.997793 0.0
vt 0.001342 0.000061 0.0
vt 0.998662 1.000000 0.0
vt 1.000000 0.0 0.0
# 4 texture vertices

vn  -0.945506 -0.325605 0.0 
vn  -0.945253 -0.326337 0.000595 
# 2 normals

usemtl surface

o IndexedFaceSet
g IndexedFaceSet

s off
f 4/1/1 2/2/1 3/3/1
f 1/4/2 3/3/2 2/2/2
# 2 polygons

# Coordinates for object 'IndexedFaceSet #1'
v  202301.406250 444786.031250 -0.833671 
v  202301.421875 444786.000000 31.687777 
v  202309.562500 444762.406250 -0.833683 
v  202309.562500 444762.406250 31.687765 
# 4 vertices

vt 0.0 0.997793 0.0
vt 0.001342 0.000061 0.0
vt 0.998662 1.000000 0.0
vt 1.000000 0.0 0.0
# 4 texture vertices

vn  0.945253 0.326337 -0.000141 
vn  0.945313 0.326164 0.0 
# 2 normals

usemtl surface

o IndexedFaceSet__1_0
g IndexedFaceSet__1_0

s off
f 7/7/3 5/8/3 6/6/3
f 6/6/4 8/5/4 7/7/4
# 2 polygons

# Coordinates for object 'IndexedFaceSet #2'
v  202288.828125 444781.656250 31.687767 
v  202288.828125 444781.656250 34.069069 
v  202290.078125 444778.031250 31.705135 
v  202290.078125 444778.031250 34.069073 
# 4 vertices

vt 0.0 0.000816 0.0
vt 0.000022 1.000000 0.0
vt 0.999979 0.0 0.0
vt 1.000000 0.999186 0.0
# 4 texture vertices

vn  -0.945373 -0.325991 0.0 
# 1 normals

usemtl surface__2

o IndexedFaceSet__2_0
g IndexedFaceSet__2_0

s off
f 12/12/5 10/10/5 11/11/5
f 9/9/5 11/11/5 10/10/5
# 2 polygons

# Coordinates for object 'IndexedFaceSet #3'
v  202290.734375 444755.906250 -0.833691 
v  202290.734375 444755.906250 31.687757 
v  202309.562500 444762.406250 -0.833683 
v  202309.562500 444762.406250 31.687765 
# 4 vertices

vt 0.0 0.000261 0.0
vt 0.0 1.000000 0.0
vt 0.999723 0.0 0.0
vt 1.000000 0.999803 0.0
# 4 texture vertices

vn  0.326329 -0.945256 0.0 
# 1 normals

usemtl surface__3

o IndexedFaceSet__3_0
g IndexedFaceSet__3_0

s off
f 16/13/6 14/14/6 13/16/6
f 13/16/6 15/15/6 16/13/6
# 2 polygons

# Coordinates for object 'IndexedFaceSet #4'
v  202282.609375 444779.500000 31.687767 
v  202290.734375 444755.906250 31.687757 
v  202301.421875 444786.000000 31.687777 
v  202309.562500 444762.406250 31.687765 
# 4 vertices

vt 0.0 0.0 0.0
vt 0.0 1.000000 0.0
vt 1.000000 0.0 0.0
vt 1.000000 1.000000 0.0
# 4 texture vertices

vn  0.0 0.0 1.0 
# 1 normals

usemtl surface__4

o IndexedFaceSet__4_0
g IndexedFaceSet__4_0

s off
f 20/19/7 19/20/7 18/17/7
f 17/18/7 18/17/7 19/20/7
# 2 polygons

# Coordinates for object 'IndexedFaceSet #5'
v  202282.578125 444779.531250 -0.833679 
v  202282.609375 444779.500000 31.687767 
v  202301.406250 444786.031250 -0.833671 
v  202301.421875 444786.000000 31.687777 
# 4 vertices

vt 0.0 1.000000 0.0
vt 0.000035 0.000259 0.0
vt 0.999766 0.0 0.0
vt 1.000000 0.999808 0.0
# 4 texture vertices

vn  -0.326571 0.945172 0.001222 
vn  -0.326329 0.945256 0.001065 
# 2 normals

usemtl surface__5

o IndexedFaceSet__5_0
g IndexedFaceSet__5_0

s off
f 22/21/8 24/22/8 21/24/8
f 23/23/9 21/24/9 24/22/9
# 2 polygons

# Coordinates for object 'IndexedFaceSet #6'
v  202292.078125 444782.750000 31.687761 
v  202292.078125 444782.750000 34.069061 
v  202293.312500 444779.156250 31.705130 
v  202293.312500 444779.156250 34.069065 
# 4 vertices

vt 0.0 0.000816 0.0
vt 0.000022 1.000000 0.0
vt 0.999979 0.0 0.0
vt 1.000000 0.999186 0.0
# 4 texture vertices

vn  0.945766 0.324850 0.0 
# 1 normals

usemtl surface__2

o IndexedFaceSet__6_0
g IndexedFaceSet__6_0

s off
f 27/27/10 25/25/10 26/26/10
f 26/26/10 28/28/10 27/27/10
# 2 polygons

# Coordinates for object 'IndexedFaceSet #7'
v  202290.078125 444778.031250 31.705135 
v  202290.078125 444778.031250 34.069073 
v  202293.312500 444779.156250 31.705130 
v  202293.312500 444779.156250 34.069065 
# 4 vertices

vt 0.0 0.000816 0.0
vt 0.000022 1.000000 0.0
vt 0.999979 0.0 0.0
vt 1.000000 0.999186 0.0
# 4 texture vertices

vn  0.328521 -0.944497 0.0 
# 1 normals

usemtl surface__2

o IndexedFaceSet__7_0
g IndexedFaceSet__7_0

s off
f 32/32/11 30/31/11 31/30/11
f 29/29/11 31/30/11 30/31/11
# 2 polygons

# Coordinates for object 'IndexedFaceSet #8'
v  202288.828125 444781.656250 34.069069 
v  202290.078125 444778.031250 34.069073 
v  202292.078125 444782.750000 34.069061 
v  202293.312500 444779.156250 34.069065 
# 4 vertices

vt 0.0 0.0 0.0
vt 0.0 1.000000 0.0
vt 1.000000 0.0 0.0
vt 1.000000 1.000000 0.0
# 4 texture vertices

vn  0.000002 0.000002 1.0 
# 1 normals

usemtl surface__6

o IndexedFaceSet__8_0
g IndexedFaceSet__8_0

s off
f 36/33/12 35/35/12 34/34/12
f 33/36/12 34/34/12 35/35/12
# 2 polygons

# Coordinates for object 'IndexedFaceSet #9'
v  202288.828125 444781.656250 31.687767 
v  202288.828125 444781.656250 34.069069 
v  202292.078125 444782.750000 31.687761 
v  202292.078125 444782.750000 34.069061 
# 4 vertices

vt 0.0 0.000816 0.0
vt 0.000022 1.000000 0.0
vt 0.999979 0.0 0.0
vt 1.000000 0.999186 0.0
# 4 texture vertices

vn  -0.318960 0.947768 0.0 
# 1 normals

usemtl surface__2

o IndexedFaceSet__9_0
g IndexedFaceSet__9_0

s off
f 38/39/13 40/40/13 37/37/13
f 39/38/13 37/37/13 40/40/13
# 2 polygons
