# Converted by Daum Communications 
# Date/time of export: 08/22/2013 14:53:44
#
# Bounding box of geometry = (201771,446194,-0.805609) to (201792,446237,17.303).

mtllib 4551528.mtl

# Coordinates for object 'IndexedFaceSet'
v  201771.328125 446232.093750 -0.805606 
v  201771.328125 446232.093750 14.690638 
v  201774.218750 446220.218750 14.690638 
v  201774.218750 446220.218750 17.303032 
v  201776.859375 446209.437500 14.729941 
v  201776.859375 446209.437500 17.303032 
v  201780.531250 446194.406250 -0.798208 
v  201780.531250 446194.406250 14.729941 
# 8 vertices

vt 0.0 0.601256 0.0
vt 0.000016 0.314642 0.0
vt 0.142070 1.000000 0.0
vt 0.142090 0.601246 0.0
vt 0.144272 0.314634 0.0
vt 0.144291 0.000051 0.0
vt 0.999548 0.999933 0.0
vt 1.000000 0.0 0.0
# 8 texture vertices

vn  -0.971628 -0.236515 0.0 
vn  -0.971455 -0.237225 -0.000082 
vn  -0.971435 -0.237305 0.0 
vn  -0.971291 -0.237896 0.0 
vn  -0.971289 -0.237900 -0.001124 
# 5 normals

usemtl surface

o IndexedFaceSet
g IndexedFaceSet

s off
f 3/5/1 2/6/1 1/8/1
f 5/4/4 6/1/4 4/2/4
f 4/2/4 3/5/4 5/4/4
f 5/4/2 1/8/2 7/7/2
f 1/8/5 5/4/5 3/5/5
f 7/7/3 8/3/3 5/4/3
# 6 polygons

# Coordinates for object 'IndexedFaceSet #1'
v  201781.859375 446237.312500 -0.805609 
v  201781.859375 446237.312500 14.690635 
v  201785.375000 446222.937500 14.690635 
v  201785.375000 446222.937500 17.303030 
v  201788.000000 446212.156250 14.729939 
v  201788.000000 446212.156250 17.303028 
v  201791.671875 446197.125000 -0.798211 
v  201791.671875 446197.125000 14.729939 
# 8 vertices

vt 0.0 0.601261 0.0
vt 0.000011 0.314644 0.0
vt 0.146062 1.000000 0.0
vt 0.146074 0.601248 0.0
vt 0.148241 0.314637 0.0
vt 0.148254 0.000055 0.0
vt 0.999569 0.999934 0.0
vt 1.000000 0.0 0.0
# 8 texture vertices

vn  0.971372 0.237564 0.0 
vn  0.971435 0.237305 0.0 
vn  0.971461 0.237200 0.000108 
vn  0.971615 0.236567 0.0 
vn  0.971615 0.236564 -0.000983 
# 5 normals

usemtl surface__2

o IndexedFaceSet__1_0
g IndexedFaceSet__1_0

s off
f 9/16/6 10/14/6 11/13/6
f 13/12/10 9/16/10 11/13/10
f 9/16/8 13/12/8 15/15/8
f 12/10/9 14/9/9 13/12/9
f 13/12/7 16/11/7 15/15/7
f 12/10/9 13/12/9 11/13/9
# 6 polygons

# Coordinates for object 'IndexedFaceSet #2'
v  201780.531250 446194.406250 -0.798208 
v  201780.531250 446194.406250 14.729941 
v  201791.671875 446197.125000 -0.798211 
v  201791.671875 446197.125000 14.729939 
# 4 vertices

vt 0.0 1.000000 0.0
vt 0.000337 0.000392 0.0
vt 0.999326 0.999701 0.0
vt 1.000000 0.0 0.0
# 4 texture vertices

vn  0.237082 -0.971490 0.0 
# 1 normals

usemtl surface__3

o IndexedFaceSet__2_0
g IndexedFaceSet__2_0

s off
f 20/20/11 18/19/11 19/18/11
f 17/17/11 19/18/11 18/19/11
# 2 polygons

# Coordinates for object 'IndexedFaceSet #3'
v  201776.859375 446209.437500 14.729941 
v  201780.531250 446194.406250 14.729941 
v  201788.000000 446212.156250 14.729939 
v  201791.671875 446197.125000 14.729939 
# 4 vertices

vt 0.0 0.0 0.0
vt 0.0 1.000000 0.0
vt 1.000000 0.0 0.0
vt 1.000000 1.000000 0.0
# 4 texture vertices

vn  0.0 0.0 1.0 
# 1 normals

usemtl surface__4

o IndexedFaceSet__3_0
g IndexedFaceSet__3_0

s off
f 24/21/12 23/23/12 22/22/12
f 21/24/12 22/22/12 23/23/12
# 2 polygons

# Coordinates for object 'IndexedFaceSet #4'
v  201776.859375 446209.437500 14.729941 
v  201776.859375 446209.437500 17.303032 
v  201788.000000 446212.156250 14.729939 
v  201788.000000 446212.156250 17.303028 
# 4 vertices

vt 0.0 0.999976 0.0
vt 0.003240 0.000091 0.0
vt 0.996475 1.000000 0.0
vt 1.000000 0.0 0.0
# 4 texture vertices

vn  0.237082 -0.971490 0.0 
# 1 normals

usemtl surface__5

o IndexedFaceSet__4_0
g IndexedFaceSet__4_0

s off
f 26/27/13 25/25/13 28/28/13
f 27/26/13 28/28/13 25/25/13
# 2 polygons

# Coordinates for object 'IndexedFaceSet #5'
v  201774.218750 446220.218750 17.303032 
v  201776.859375 446209.437500 17.303032 
v  201785.375000 446222.937500 17.303030 
v  201788.000000 446212.156250 17.303028 
# 4 vertices

vt 0.0 0.0 0.0
vt 0.0 1.000000 0.0
vt 1.000000 0.0 0.0
vt 1.000000 1.000000 0.0
# 4 texture vertices

vn  0.0 0.0 1.0 
# 1 normals

usemtl surface__6

o IndexedFaceSet__5_0
g IndexedFaceSet__5_0

s off
f 32/31/14 31/32/14 29/30/14
f 29/30/14 30/29/14 32/31/14
# 2 polygons

# Coordinates for object 'IndexedFaceSet #6'
v  201774.218750 446220.218750 14.690638 
v  201774.218750 446220.218750 17.303032 
v  201785.375000 446222.937500 14.690635 
v  201785.375000 446222.937500 17.303030 
# 4 vertices

vt 0.0 0.000038 0.0
vt 0.001053 1.000000 0.0
vt 0.998804 0.0 0.0
vt 1.000000 0.999965 0.0
# 4 texture vertices

vn  -0.236768 0.971566 0.0 
# 1 normals

usemtl surface__7

o IndexedFaceSet__6_0
g IndexedFaceSet__6_0

s off
f 34/34/15 36/33/15 33/36/15
f 35/35/15 33/36/15 36/33/15
# 2 polygons

# Coordinates for object 'IndexedFaceSet #7'
v  201771.328125 446232.093750 14.690638 
v  201774.218750 446220.218750 14.690638 
v  201781.859375 446237.312500 14.690635 
v  201785.375000 446222.937500 14.690635 
# 4 vertices

vt 0.0 0.0 0.0
vt 0.0 1.000000 0.0
vt 0.825035 0.999999 0.0
vt 1.000000 0.0 0.0
# 4 texture vertices

vn  0.0 0.0 1.0 
# 1 normals

usemtl surface__4

o IndexedFaceSet__7_0
g IndexedFaceSet__7_0

s off
f 40/37/16 39/40/16 37/39/16
f 37/39/16 38/38/16 40/37/16
# 2 polygons

# Coordinates for object 'IndexedFaceSet #8'
v  201771.328125 446232.093750 -0.805606 
v  201771.328125 446232.093750 14.690638 
v  201781.859375 446237.312500 -0.805609 
v  201781.859375 446237.312500 14.690635 
# 4 vertices

vt 0.0 0.000272 0.0
vt 0.000402 1.000000 0.0
vt 0.999390 0.0 0.0
vt 1.000000 0.999783 0.0
# 4 texture vertices

vn  -0.444020 0.896017 0.0 
# 1 normals

usemtl surface__8

o IndexedFaceSet__8_0
g IndexedFaceSet__8_0

s off
f 42/42/17 44/41/17 43/43/17
f 43/43/17 41/44/17 42/42/17
# 2 polygons

# Coordinates for object 'IndexedFaceSet #9'
v  201771.328125 446232.093750 -0.805606 
v  201780.531250 446194.406250 -0.798208 
v  201781.859375 446237.312500 -0.805609 
v  201791.671875 446197.125000 -0.798211 
# 4 vertices

vt 0.0 0.0 0.0
# 1 texture vertices

vn  0.000045 -0.000185 -1.0 
vn  0.000081 -0.000164 -1.0 
# 2 normals

usemtl surface__9

o IndexedFaceSet__9_0
g IndexedFaceSet__9_0

s off
f 46/45/18 45/45/18 48/45/18
f 47/45/19 48/45/19 45/45/19
# 2 polygons
