# Converted by Daum Communications 
# Date/time of export: 08/22/2013 14:53:44
#
# Bounding box of geometry = (202291,444710,-1.55742) to (202321,444757,30.2956).

mtllib 4569384.mtl

# Coordinates for object 'IndexedFaceSet'
v  202290.875000 444749.593750 30.295565 
v  202291.000000 444751.125000 30.162792 
v  202291.250000 444751.781250 29.982651 
v  202291.437500 444751.312500 30.131424 
v  202291.484375 444749.843750 30.162792 
v  202304.953125 444711.875000 30.295570 
v  202305.578125 444712.125000 30.295570 
v  202305.703125 444757.093750 30.295580 
v  202306.156250 444710.531250 30.295570 
v  202306.593750 444710.718750 30.295567 
v  202306.734375 444710.312500 30.295567 
v  202321.171875 444715.687500 30.295565 
# 12 vertices

vt 0.0 0.047499 0.0
vt 0.0 0.956217 0.0
vt 0.040201 0.956595 0.0
vt 0.040201 0.988065 0.0
vt 0.040203 0.009750 0.0
vt 0.040203 0.047499 0.0
vt 0.067942 0.988089 0.0
vt 0.067942 1.000000 0.0
vt 0.067945 0.0 0.0
vt 0.067945 0.009750 0.0
vt 0.999997 0.998184 0.0
vt 1.000000 0.0 0.0
# 12 texture vertices

vn  -0.115657 0.258157 0.959155 
vn  -0.019897 0.020713 0.999587 
vn  -0.009352 0.000026 0.999956 
vn  0.0 0.0 1.0 
vn  0.061568 0.023276 0.997831 
vn  0.183969 0.072191 0.980277 
# 6 normals

usemtl surface

o IndexedFaceSet
g IndexedFaceSet

s off
f 12/12/4 8/11/4 7/6/4
f 7/6/3 8/11/3 5/3/3
f 12/12/4 7/6/4 10/10/4
f 10/10/4 11/9/4 12/12/4
f 9/5/4 10/10/4 7/6/4
f 3/8/1 4/7/1 8/11/1
f 4/7/5 2/4/5 5/3/5
f 7/6/4 1/2/4 6/1/4
f 7/6/6 5/3/6 1/2/6
f 5/3/2 8/11/2 4/7/2
# 10 polygons

# Coordinates for object 'IndexedFaceSet #1'
v  202304.953125 444711.875000 -1.557406 
v  202304.953125 444711.875000 30.295570 
v  202305.578125 444712.125000 -1.557407 
v  202305.578125 444712.125000 30.295570 
# 4 vertices

vt 0.0 0.0 0.0
vt 0.007322 0.999990 0.0
vt 0.993820 0.0 0.0
vt 1.000000 1.000000 0.0
# 4 texture vertices

vn  0.371391 -0.928477 0.0 
# 1 normals

usemtl surface__2

o IndexedFaceSet__1_0
g IndexedFaceSet__1_0

s off
f 16/16/7 14/14/7 13/13/7
f 13/13/7 15/15/7 16/16/7
# 2 polygons

# Coordinates for object 'IndexedFaceSet #2'
v  202305.578125 444712.125000 -1.557407 
v  202305.578125 444712.125000 30.295570 
v  202306.156250 444710.531250 -1.557408 
v  202306.156250 444710.531250 30.295570 
# 4 vertices

vt 0.0 0.000310 0.0
vt 0.0 1.000000 0.0
vt 0.999999 0.0 0.0
vt 1.000000 0.999686 0.0
# 4 texture vertices

vn  -0.940062 -0.341003 0.0 
# 1 normals

usemtl surface__3

o IndexedFaceSet__2_0
g IndexedFaceSet__2_0

s off
f 20/18/8 18/17/8 17/19/8
f 17/19/8 19/20/8 20/18/8
# 2 polygons

# Coordinates for object 'IndexedFaceSet #3'
v  202306.156250 444710.531250 -1.557408 
v  202306.156250 444710.531250 30.295570 
v  202306.593750 444710.718750 -1.557406 
v  202306.593750 444710.718750 30.295567 
# 4 vertices

vt 0.0 0.0 0.0
vt 0.009506 0.999981 0.0
vt 0.990468 0.0 0.0
vt 1.000000 1.000000 0.0
# 4 texture vertices

vn  0.393919 -0.919145 0.0 
# 1 normals

usemtl surface__4

o IndexedFaceSet__3_0
g IndexedFaceSet__3_0

s off
f 24/24/9 22/22/9 21/21/9
f 21/21/9 23/23/9 24/24/9
# 2 polygons

# Coordinates for object 'IndexedFaceSet #4'
v  202306.593750 444710.718750 -1.557406 
v  202306.593750 444710.718750 30.295567 
v  202306.734375 444710.312500 30.295567 
v  202306.750000 444710.312500 -1.557407 
# 4 vertices

vt 0.0 0.001035 0.0
vt 0.0 1.000000 0.0
vt 0.999998 0.998925 0.0
vt 1.000000 0.0 0.0
# 4 texture vertices

vn  -0.944986 -0.327111 -0.000464 
vn  -0.933346 -0.358979 0.0 
# 2 normals

usemtl surface__5

o IndexedFaceSet__4_0
g IndexedFaceSet__4_0

s off
f 27/26/10 26/25/10 28/27/10
f 25/28/11 28/27/11 26/25/11
# 2 polygons

# Coordinates for object 'IndexedFaceSet #5'
v  202306.734375 444710.312500 30.295567 
v  202306.750000 444710.312500 -1.557407 
v  202321.171875 444715.687500 -1.557416 
v  202321.171875 444715.687500 30.295565 
# 4 vertices

vt 0.0 0.0 0.0
vt 0.000014 0.999575 0.0
vt 0.999960 0.000356 0.0
vt 1.000000 1.000000 0.0
# 4 texture vertices

vn  0.348899 -0.937160 0.000171 
vn  0.349231 -0.937037 0.0 
# 2 normals

usemtl surface__6

o IndexedFaceSet__5_0
g IndexedFaceSet__5_0

s off
f 32/32/12 29/30/12 30/29/12
f 30/29/13 31/31/13 32/32/13
# 2 polygons

# Coordinates for object 'IndexedFaceSet #6'
v  202305.703125 444757.093750 -1.557399 
v  202305.703125 444757.093750 30.295580 
v  202321.171875 444715.687500 -1.557416 
v  202321.171875 444715.687500 30.295565 
# 4 vertices

vt 0.0 0.000016 0.0
vt 0.000077 1.000000 0.0
vt 0.999913 0.0 0.0
vt 1.000000 0.999972 0.0
# 4 texture vertices

vn  0.936764 0.349961 0.0 
# 1 normals

usemtl surface__7

o IndexedFaceSet__6_0
g IndexedFaceSet__6_0

s off
f 35/35/14 33/33/14 36/36/14
f 34/34/14 36/36/14 33/33/14
# 2 polygons

# Coordinates for object 'IndexedFaceSet #7'
v  202291.250000 444751.781250 -1.557387 
v  202291.250000 444751.781250 29.982651 
v  202305.703125 444757.093750 -1.557399 
v  202305.703125 444757.093750 30.295580 
# 4 vertices

vt 0.0 0.000230 0.0
vt 0.000292 1.000000 0.0
vt 0.990079 0.0 0.0
vt 1.000000 0.999725 0.0
# 4 texture vertices

vn  -0.345000 0.938603 0.0 
# 1 normals

usemtl surface__8

o IndexedFaceSet__7_0
g IndexedFaceSet__7_0

s off
f 38/39/15 40/40/15 39/38/15
f 39/38/15 37/37/15 38/39/15
# 2 polygons

# Coordinates for object 'IndexedFaceSet #8'
v  202291.250000 444751.781250 -1.557387 
v  202291.250000 444751.781250 29.982651 
v  202291.437500 444751.312500 -1.557390 
v  202291.437500 444751.312500 30.131424 
# 4 vertices

vt 0.0 1.000000 0.0
vt 0.004689 0.001518 0.0
vt 0.999999 0.0 0.0
vt 1.000000 0.998693 0.0
# 4 texture vertices

vn  -0.928477 -0.371391 0.0 
# 1 normals

usemtl surface__9

o IndexedFaceSet__8_0
g IndexedFaceSet__8_0

s off
f 44/41/16 42/42/16 43/44/16
f 41/43/16 43/44/16 42/42/16
# 2 polygons

# Coordinates for object 'IndexedFaceSet #9'
v  202291.000000 444751.125000 -1.557388 
v  202291.000000 444751.125000 30.162792 
v  202291.437500 444751.312500 -1.557390 
v  202291.437500 444751.312500 30.131424 
# 4 vertices

vt 0.0 0.003044 0.0
vt 0.0 1.000000 0.0
vt 0.999015 0.995894 0.0
vt 1.000000 0.0 0.0
# 4 texture vertices

vn  -0.393919 0.919145 0.0 
# 1 normals

usemtl surface__10

o IndexedFaceSet__9_0
g IndexedFaceSet__9_0

s off
f 46/48/17 48/47/17 45/45/17
f 47/46/17 45/45/17 48/47/17
# 2 polygons

# Coordinates for object 'IndexedFaceSet #10'
v  202291.000000 444751.125000 -1.557388 
v  202291.000000 444751.125000 30.162792 
v  202291.484375 444749.843750 -1.557389 
v  202291.484375 444749.843750 30.162792 
# 4 vertices

vt 0.0 0.000207 0.0
vt 0.0 1.000000 0.0
vt 0.999999 0.0 0.0
vt 1.000000 0.999782 0.0
# 4 texture vertices

vn  -0.935388 -0.353622 0.0 
# 1 normals

usemtl surface__11

o IndexedFaceSet__10_0
g IndexedFaceSet__10_0

s off
f 52/50/18 50/49/18 49/51/18
f 49/51/18 51/52/18 52/50/18
# 2 polygons

# Coordinates for object 'IndexedFaceSet #11'
v  202290.875000 444749.593750 -1.557413 
v  202290.875000 444749.593750 30.295565 
v  202291.484375 444749.843750 -1.557389 
v  202291.484375 444749.843750 30.162792 
# 4 vertices

vt 0.0 0.0 0.0
vt 0.002819 0.995831 0.0
vt 0.996519 0.0 0.0
vt 1.000000 1.000000 0.0
# 4 texture vertices

vn  -0.379556 0.925169 0.0 
# 1 normals

usemtl surface__12

o IndexedFaceSet__11_0
g IndexedFaceSet__11_0

s off
f 54/56/19 56/54/19 53/55/19
f 55/53/19 53/55/19 56/54/19
# 2 polygons

# Coordinates for object 'IndexedFaceSet #12'
v  202290.875000 444749.593750 -1.557413 
v  202290.875000 444749.593750 30.295565 
v  202304.953125 444711.875000 -1.557406 
v  202304.953125 444711.875000 30.295570 
# 4 vertices

vt 0.0 0.000021 0.0
vt 0.0 1.000000 0.0
vt 0.999997 0.0 0.0
vt 1.000000 0.999978 0.0
# 4 texture vertices

vn  -0.936870 -0.349677 0.0 
# 1 normals

usemtl surface__13

o IndexedFaceSet__12_0
g IndexedFaceSet__12_0

s off
f 60/58/20 58/57/20 59/60/20
f 57/59/20 59/60/20 58/57/20
# 2 polygons
