# Converted by Daum Communications 
# Date/time of export: 08/22/2013 14:53:48
#
# Bounding box of geometry = (201972,445358,-0.426005) to (201997,445379,19.3724).

mtllib 4593479.mtl

# Coordinates for object 'IndexedFaceSet'
v  201992.437500 445378.937500 -0.426002 
v  201992.437500 445378.937500 18.049332 
v  201997.390625 445365.156250 -0.426005 
v  201997.390625 445365.156250 18.049335 
# 4 vertices

vt 0.0 0.000840 0.0
vt 0.0 1.000000 0.0
vt 0.999996 0.0 0.0
vt 1.000000 0.999838 0.0
# 4 texture vertices

vn  0.941064 0.338228 0.0 
# 1 normals

usemtl surface

o IndexedFaceSet
g IndexedFaceSet

s off
f 2/2/1 4/1/1 1/4/1
f 3/3/1 1/4/1 4/1/1
# 2 polygons

# Coordinates for object 'IndexedFaceSet #1'
v  201972.093750 445371.625000 -0.426000 
v  201972.093750 445371.625000 18.049330 
v  201977.062500 445357.843750 -0.426003 
v  201977.062500 445357.843750 18.049332 
# 4 vertices

vt 0.0 0.000834 0.0
vt 0.0 1.000000 0.0
vt 0.999999 0.0 0.0
vt 1.000000 0.999831 0.0
# 4 texture vertices

vn  -0.940724 -0.339173 0.0 
# 1 normals

usemtl surface__2

o IndexedFaceSet__1_0
g IndexedFaceSet__1_0

s off
f 5/8/2 7/7/2 8/5/2
f 8/5/2 6/6/2 5/8/2
# 2 polygons

# Coordinates for object 'IndexedFaceSet #2'
v  201972.093750 445371.625000 -0.426000 
v  201972.093750 445371.625000 18.049330 
v  201992.437500 445378.937500 -0.426002 
v  201992.437500 445378.937500 18.049332 
# 4 vertices

vt 0.0 0.000840 0.0
vt 0.0 1.000000 0.0
vt 0.999996 0.0 0.0
vt 1.000000 0.999838 0.0
# 4 texture vertices

vn  -0.338259 0.941053 0.0 
# 1 normals

usemtl surface

o IndexedFaceSet__2_0
g IndexedFaceSet__2_0

s off
f 10/10/3 12/9/3 11/11/3
f 11/11/3 9/12/3 10/10/3
# 2 polygons

# Coordinates for object 'IndexedFaceSet #3'
v  201972.093750 445371.625000 18.049330 
v  201977.062500 445357.843750 18.049332 
v  201992.437500 445378.937500 18.049332 
v  201997.390625 445365.156250 18.049335 
# 4 vertices

vt 0.0 0.0 0.0
vt 0.0 0.999999 0.0
vt 0.999999 1.000000 0.0
vt 1.000000 0.0 0.0
# 4 texture vertices

vn  0.0 0.0 1.0 
# 1 normals

usemtl surface__3

o IndexedFaceSet__3_0
g IndexedFaceSet__3_0

s off
f 13/16/4 14/15/4 15/13/4
f 16/14/4 15/13/4 14/15/4
# 2 polygons

# Coordinates for object 'IndexedFaceSet #4'
v  201977.062500 445357.843750 -0.426003 
v  201977.062500 445357.843750 18.049332 
v  201997.390625 445365.156250 -0.426005 
v  201997.390625 445365.156250 18.049335 
# 4 vertices

vt 0.0 0.000840 0.0
vt 0.0 1.000000 0.0
vt 0.999996 0.0 0.0
vt 1.000000 0.999838 0.0
# 4 texture vertices

vn  0.338489 -0.940970 0.0 
# 1 normals

usemtl surface

o IndexedFaceSet__4_0
g IndexedFaceSet__4_0

s off
f 20/17/5 18/18/5 19/19/5
f 17/20/5 19/19/5 18/18/5
# 2 polygons

# Coordinates for object 'IndexedFaceSet #5'
v  201991.718750 445378.687500 18.049232 
v  201991.718750 445378.687500 18.413031 
v  201992.171875 445377.406250 18.413029 
v  201994.156250 445371.937500 19.372261 
v  201996.171875 445366.343750 18.398729 
v  201996.671875 445364.906250 18.049236 
v  201996.671875 445364.906250 18.398729 
# 7 vertices

vt 0.0 0.000031 0.0
vt 0.0 0.264183 0.0
vt 0.102765 0.264135 0.0
vt 0.509135 1.000000 0.0
vt 0.907899 0.274971 0.0
vt 0.999642 0.0 0.0
vt 1.000000 0.274960 0.0
# 7 texture vertices

vn  -0.944497 -0.328521 0.0 
vn  -0.942778 -0.333421 0.0 
vn  -0.940388 -0.340036 0.006787 
vn  -0.940120 -0.337889 0.044794 
vn  -0.940102 -0.339890 -0.026115 
# 5 normals

usemtl surface__4

o IndexedFaceSet__5_0
g IndexedFaceSet__5_0

s off
f 21/26/7 23/25/7 22/27/7
f 23/25/10 21/26/10 25/23/10
f 26/21/6 27/22/6 25/23/6
f 24/24/8 23/25/8 25/23/8
f 25/23/9 21/26/9 26/21/9
# 5 polygons

# Coordinates for object 'IndexedFaceSet #6'
v  201992.421875 445378.937500 18.413126 
v  201992.437500 445378.937500 18.049332 
v  201992.890625 445377.656250 18.413126 
v  201994.859375 445372.187500 19.372360 
v  201996.875000 445366.593750 18.398829 
v  201997.390625 445365.156250 18.049335 
v  201997.390625 445365.156250 18.398829 
# 7 vertices

vt 0.0 0.000031 0.0
vt 0.0 0.264183 0.0
vt 0.102765 0.264135 0.0
vt 0.509135 1.000000 0.0
vt 0.907899 0.274971 0.0
vt 0.999642 0.0 0.0
vt 1.000000 0.274960 0.0
# 7 texture vertices

vn  0.938360 0.343302 0.040303 
vn  0.940629 0.338758 0.021472 
vn  0.940837 0.338859 0.000902 
vn  0.941060 0.338227 -0.002767 
vn  0.941278 0.337632 0.0 
# 5 normals

usemtl surface__4

o IndexedFaceSet__6_0
g IndexedFaceSet__6_0

s off
f 32/30/15 34/29/15 33/28/15
f 31/31/13 32/30/13 30/32/13
f 32/30/12 29/33/12 30/32/12
f 29/33/14 32/30/14 33/28/14
f 29/33/11 28/34/11 30/32/11
# 5 polygons

# Coordinates for object 'IndexedFaceSet #7'
v  201991.718750 445378.687500 18.049232 
v  201991.718750 445378.687500 18.413031 
v  201992.421875 445378.937500 18.413126 
v  201992.437500 445378.937500 18.049332 
# 4 vertices

vt 0.0 0.0 0.0
vt 0.000045 0.998986 0.0
vt 0.999949 0.001158 0.0
vt 1.000000 1.000000 0.0
# 4 texture vertices

vn  -0.335010 0.942215 0.0 
vn  -0.328486 0.944403 -0.014109 
# 2 normals

usemtl surface__5

o IndexedFaceSet__7_0
g IndexedFaceSet__7_0

s off
f 36/38/16 37/36/16 35/37/16
f 38/35/17 35/37/17 37/36/17
# 2 polygons

# Coordinates for object 'IndexedFaceSet #8'
v  201991.718750 445378.687500 18.413031 
v  201992.171875 445377.406250 18.413029 
v  201992.421875 445378.937500 18.413126 
v  201992.890625 445377.656250 18.413126 
# 4 vertices

vt 0.0 0.0 0.0
vt 0.0 1.000000 0.0
vt 0.999999 0.0 0.0
vt 1.000000 1.000000 0.0
# 4 texture vertices

vn  -0.000120 -0.000044 1.0 
# 1 normals

usemtl surface__6

o IndexedFaceSet__8_0
g IndexedFaceSet__8_0

s off
f 39/39/18 40/41/18 41/40/18
f 42/42/18 41/40/18 40/41/18
# 2 polygons

# Coordinates for object 'IndexedFaceSet #9'
v  201992.171875 445377.406250 18.413029 
v  201992.890625 445377.656250 18.413126 
v  201994.156250 445371.937500 19.372261 
v  201994.859375 445372.187500 19.372360 
# 4 vertices

vt 0.0 1.000000 0.0
vt 0.000145 0.0 0.0
vt 0.999836 1.000000 0.0
vt 0.999981 0.0 0.0
# 4 texture vertices

vn  -0.054674 0.153379 0.986654 
vn  -0.053569 0.153627 0.986676 
# 2 normals

usemtl surface__6

o IndexedFaceSet__9_0
g IndexedFaceSet__9_0

s off
f 45/45/19 46/43/19 44/44/19
f 44/44/20 43/46/20 45/45/20
# 2 polygons

# Coordinates for object 'IndexedFaceSet #10'
v  201994.156250 445371.937500 19.372261 
v  201994.859375 445372.187500 19.372360 
v  201996.171875 445366.343750 18.398729 
v  201996.875000 445366.593750 18.398829 
# 4 vertices

vt 0.0 0.0 0.0
vt 0.000168 1.000000 0.0
vt 0.999841 0.0 0.0
vt 1.000000 1.000000 0.0
# 4 texture vertices

vn  0.054009 -0.152291 0.986859 
# 1 normals

usemtl surface__6

o IndexedFaceSet__10_0
g IndexedFaceSet__10_0

s off
f 48/50/21 47/48/21 50/49/21
f 49/47/21 50/49/21 47/48/21
# 2 polygons

# Coordinates for object 'IndexedFaceSet #11'
v  201996.171875 445366.343750 18.398729 
v  201996.671875 445364.906250 18.398729 
v  201996.875000 445366.593750 18.398829 
v  201997.390625 445365.156250 18.398829 
# 4 vertices

vt 0.0 0.0 0.0
vt 0.0 1.000000 0.0
vt 1.000000 0.0 0.0
vt 1.000000 1.000000 0.0
# 4 texture vertices

vn  -0.000123 -0.000043 1.0 
# 1 normals

usemtl surface__6

o IndexedFaceSet__11_0
g IndexedFaceSet__11_0

s off
f 51/51/22 52/53/22 54/54/22
f 54/54/22 53/52/22 51/51/22
# 2 polygons

# Coordinates for object 'IndexedFaceSet #12'
v  201996.671875 445364.906250 18.049236 
v  201996.671875 445364.906250 18.398729 
v  201997.390625 445365.156250 18.049335 
v  201997.390625 445365.156250 18.398829 
# 4 vertices

vt 0.0 0.000961 0.0
vt 0.000294 1.000000 0.0
vt 0.999887 0.999454 0.0
vt 1.000000 0.0 0.0
# 4 texture vertices

vn  0.328521 -0.944497 0.0 
# 1 normals

usemtl surface__7

o IndexedFaceSet__12_0
g IndexedFaceSet__12_0

s off
f 58/57/23 56/56/23 55/55/23
f 55/55/23 57/58/23 58/57/23
# 2 polygons
