# Converted by Daum Communications 
# Date/time of export: 08/22/2013 14:53:45
#
# Bounding box of geometry = (202041,445402,-1.13765) to (202059,445418,16.7554).

mtllib 4593307.mtl

# Coordinates for object 'IndexedFaceSet'
v  202041.109375 445412.375000 -1.137636 
v  202041.109375 445412.375000 16.755430 
v  202045.062500 445402.156250 -1.137632 
v  202045.062500 445402.156250 16.755432 
# 4 vertices

vt 0.0 1.000000 0.0
vt 0.000011 0.001619 0.0
vt 0.999995 0.999895 0.0
vt 1.000000 0.0 0.0
# 4 texture vertices

vn  -0.932645 -0.360794 0.0 
# 1 normals

usemtl surface

o IndexedFaceSet
g IndexedFaceSet

s off
f 4/1/1 2/2/1 3/3/1
f 1/4/1 3/3/1 2/2/1
# 2 polygons

# Coordinates for object 'IndexedFaceSet #1'
v  202055.171875 445417.781250 16.755423 
v  202055.171875 445417.812500 -1.137645 
v  202059.109375 445407.562500 -1.137640 
v  202059.109375 445407.562500 16.755424 
# 4 vertices

vt 0.0 1.000000 0.0
vt 0.000011 0.001619 0.0
vt 0.999995 0.999895 0.0
vt 1.000000 0.0 0.0
# 4 texture vertices

vn  0.933125 0.359553 0.0 
vn  0.933492 0.358598 0.000626 
# 2 normals

usemtl surface

o IndexedFaceSet__1_0
g IndexedFaceSet__1_0

s off
f 7/7/3 6/8/3 5/6/3
f 5/6/2 8/5/2 7/7/2
# 2 polygons

# Coordinates for object 'IndexedFaceSet #2'
v  202045.062500 445402.156250 -1.137632 
v  202045.062500 445402.156250 16.755432 
v  202059.109375 445407.562500 -1.137640 
v  202059.109375 445407.562500 16.755424 
# 4 vertices

vt 0.0 1.000000 0.0
vt 0.000461 0.000227 0.0
vt 0.999956 0.999675 0.0
vt 1.000000 0.0 0.0
# 4 texture vertices

vn  0.359188 -0.933265 0.0 
# 1 normals

usemtl surface__2

o IndexedFaceSet__2_0
g IndexedFaceSet__2_0

s off
f 12/9/4 10/10/4 9/12/4
f 9/12/4 11/11/4 12/9/4
# 2 polygons

# Coordinates for object 'IndexedFaceSet #3'
v  202041.109375 445412.375000 16.755430 
v  202045.062500 445402.156250 16.755432 
v  202055.171875 445417.781250 16.755423 
v  202059.109375 445407.562500 16.755424 
# 4 vertices

vt 0.0 0.0 0.0
vt 0.0 1.000000 0.0
vt 1.000000 0.0 0.0
vt 1.000000 1.000000 0.0
# 4 texture vertices

vn  0.0 0.0 1.0 
# 1 normals

usemtl surface__3

o IndexedFaceSet__3_0
g IndexedFaceSet__3_0

s off
f 16/13/5 15/15/5 14/14/5
f 13/16/5 14/14/5 15/15/5
# 2 polygons

# Coordinates for object 'IndexedFaceSet #4'
v  202041.109375 445412.375000 -1.137636 
v  202041.109375 445412.375000 16.755430 
v  202055.171875 445417.781250 16.755423 
v  202055.171875 445417.812500 -1.137645 
# 4 vertices

vt 0.0 0.000219 0.0
vt 0.000029 1.000000 0.0
vt 0.999723 0.0 0.0
vt 1.000000 0.999851 0.0
# 4 texture vertices

vn  -0.360645 0.932703 0.0 
vn  -0.358840 0.933398 0.001630 
# 2 normals

usemtl surface__4

o IndexedFaceSet__4_0
g IndexedFaceSet__4_0

s off
f 18/18/7 19/17/7 20/19/7
f 20/19/6 17/20/6 18/18/6
# 2 polygons
