# Converted by Daum Communications 
# Date/time of export: 08/22/2013 14:53:45
#
# Bounding box of geometry = (201859,445667,-1.24036) to (201881,445682,11.8242).

mtllib 4593321.mtl

# Coordinates for object 'IndexedFaceSet'
v  201877.765625 445681.812500 -1.240359 
v  201877.765625 445681.812500 10.327747 
v  201880.734375 445674.312500 -1.240359 
v  201880.734375 445674.312500 10.327747 
# 4 vertices

vt 0.0 0.0 0.0
vt 0.000014 1.000000 0.0
vt 0.999986 0.000016 0.0
vt 1.000000 0.999552 0.0
# 4 texture vertices

vn  0.929807 0.368048 0.0 
# 1 normals

usemtl surface

o IndexedFaceSet
g IndexedFaceSet

s off
f 2/2/1 4/1/1 1/4/1
f 3/3/1 1/4/1 4/1/1
# 2 polygons

# Coordinates for object 'IndexedFaceSet #1'
v  201859.078125 445674.375000 -1.240357 
v  201859.078125 445674.375000 10.327751 
v  201862.046875 445666.875000 -1.240358 
v  201862.046875 445666.875000 10.327751 
# 4 vertices

vt 0.0 0.0 0.0
vt 0.000014 1.000000 0.0
vt 0.999986 0.000016 0.0
vt 1.000000 0.999552 0.0
# 4 texture vertices

vn  -0.929807 -0.368048 0.0 
# 1 normals

usemtl surface

o IndexedFaceSet__1_0
g IndexedFaceSet__1_0

s off
f 5/8/2 7/7/2 8/5/2
f 8/5/2 6/6/2 5/8/2
# 2 polygons

# Coordinates for object 'IndexedFaceSet #2'
v  201859.078125 445674.375000 10.327751 
v  201862.046875 445666.875000 10.327751 
v  201877.765625 445681.812500 10.327747 
v  201880.734375 445674.312500 10.327747 
# 4 vertices

vt 0.0 0.0 0.0
vt 0.0 1.000000 0.0
vt 0.500000 0.0 0.0
vt 0.500000 1.000000 0.0
# 4 texture vertices

vn  0.0 0.0 1.0 
# 1 normals

usemtl surface__2

o IndexedFaceSet__2_0
g IndexedFaceSet__2_0

s off
f 9/12/3 10/10/3 11/11/3
f 12/9/3 11/11/3 10/10/3
# 2 polygons

# Coordinates for object 'IndexedFaceSet #3'
v  201862.046875 445666.875000 -1.240358 
v  201862.046875 445666.875000 10.327751 
v  201880.734375 445674.312500 -1.240359 
v  201880.734375 445674.312500 10.327747 
# 4 vertices

vt 0.0 0.001273 0.0
vt 0.000235 1.000000 0.0
vt 0.999827 0.0 0.0
vt 1.000000 0.999448 0.0
# 4 texture vertices

vn  0.369783 -0.929118 0.0 
# 1 normals

usemtl surface__3

o IndexedFaceSet__3_0
g IndexedFaceSet__3_0

s off
f 16/16/4 14/14/4 13/13/4
f 13/13/4 15/15/4 16/16/4
# 2 polygons

# Coordinates for object 'IndexedFaceSet #4'
v  201859.078125 445674.375000 -1.240357 
v  201859.078125 445674.375000 10.327751 
v  201877.765625 445681.812500 -1.240359 
v  201877.765625 445681.812500 10.327747 
# 4 vertices

vt 0.0 0.000239 0.0
vt 0.000612 1.000000 0.0
vt 0.998556 0.0 0.0
vt 1.000000 0.999847 0.0
# 4 texture vertices

vn  -0.369783 0.929118 0.0 
# 1 normals

usemtl surface__4

o IndexedFaceSet__4_0
g IndexedFaceSet__4_0

s off
f 18/17/5 20/18/5 19/20/5
f 19/20/5 17/19/5 18/17/5
# 2 polygons

# Coordinates for object 'IndexedFaceSet #5'
v  201861.468750 445675.343750 10.326702 
v  201861.515625 445675.343750 11.754376 
v  201866.984375 445677.531250 10.327747 
v  201866.984375 445677.531250 11.824172 
# 4 vertices

vt 0.0 0.0 0.0
vt 0.000022 1.000000 0.0
vt 0.991628 0.957128 0.0
vt 1.000000 0.002953 0.0
# 4 texture vertices

vn  -0.371391 0.928477 0.0 
vn  -0.368640 0.929493 0.012104 
# 2 normals

usemtl surface__5

o IndexedFaceSet__5_0
g IndexedFaceSet__5_0

s off
f 24/22/6 23/21/6 22/23/6
f 21/24/7 22/23/7 23/21/7
# 2 polygons

# Coordinates for object 'IndexedFaceSet #6'
v  201864.453125 445667.843750 10.326700 
v  201864.500000 445667.875000 11.754375 
v  201869.953125 445670.031250 10.327749 
v  201869.953125 445670.031250 11.824174 
# 4 vertices

vt 0.0 0.0 0.0
vt 0.000022 1.000000 0.0
vt 0.991628 0.957128 0.0
vt 1.000000 0.002953 0.0
# 4 texture vertices

vn  0.367712 -0.929940 0.0 
vn  0.369556 -0.929172 0.008205 
# 2 normals

usemtl surface__5

o IndexedFaceSet__6_0
g IndexedFaceSet__6_0

s off
f 28/26/8 26/27/8 27/25/8
f 25/28/9 27/25/9 26/27/9
# 2 polygons

# Coordinates for object 'IndexedFaceSet #7'
v  201861.515625 445675.343750 11.754376 
v  201864.500000 445667.875000 11.754375 
v  201866.984375 445677.531250 11.824172 
v  201869.953125 445670.031250 11.824174 
# 4 vertices

vt 0.0 0.0 0.0
vt 0.0 1.000000 0.0
vt 1.000000 0.0 0.0
vt 1.000000 0.998772 0.0
# 4 texture vertices

vn  -0.011052 -0.004416 0.999929 
vn  -0.011017 -0.004361 0.999930 
# 2 normals

usemtl surface__6

o IndexedFaceSet__7_0
g IndexedFaceSet__7_0

s off
f 29/29/10 30/31/10 32/32/10
f 32/32/11 31/30/11 29/29/11
# 2 polygons

# Coordinates for object 'IndexedFaceSet #8'
v  201861.468750 445675.343750 10.326702 
v  201861.515625 445675.343750 11.754376 
v  201864.453125 445667.843750 10.326700 
v  201864.500000 445667.875000 11.754375 
# 4 vertices

vt 0.0 0.0 0.0
vt 0.000022 1.000000 0.0
vt 0.991628 0.957128 0.0
vt 1.000000 0.002953 0.0
# 4 texture vertices

vn  -0.928451 -0.369446 0.038571 
vn  -0.928179 -0.370883 0.030475 
# 2 normals

usemtl surface__5

o IndexedFaceSet__8_0
g IndexedFaceSet__8_0

s off
f 34/35/13 33/36/13 36/34/13
f 35/33/12 36/34/12 33/36/12
# 2 polygons

# Coordinates for object 'IndexedFaceSet #9'
v  201866.984375 445677.531250 10.327747 
v  201866.984375 445677.531250 11.824172 
v  201869.953125 445670.031250 10.327749 
v  201869.953125 445670.031250 11.824174 
# 4 vertices

vt 0.0 0.000102 0.0
vt 0.000018 1.000000 0.0
vt 0.999985 0.0 0.0
vt 1.000000 0.999903 0.0
# 4 texture vertices

vn  0.929807 0.368048 0.0 
# 1 normals

usemtl surface__7

o IndexedFaceSet__9_0
g IndexedFaceSet__9_0

s off
f 38/40/14 40/38/14 39/37/14
f 39/37/14 37/39/14 38/40/14
# 2 polygons

# Coordinates for object 'IndexedFaceSet #10'
v  201866.546875 445676.781250 11.347614 
v  201867.578125 445674.218750 11.347614 
v  201875.421875 445680.312500 11.347613 
v  201876.437500 445677.750000 11.347613 
# 4 vertices

vt 0.0 0.0 0.0
vt 0.0 0.999999 0.0
vt 0.499034 1.000000 0.0
vt 0.500000 0.0 0.0
# 4 texture vertices

vn  0.0 0.0 1.0 
# 1 normals

usemtl surface__8

o IndexedFaceSet__10_0
g IndexedFaceSet__10_0

s off
f 44/41/15 41/43/15 42/42/15
f 41/43/15 44/41/15 43/44/15
# 2 polygons

# Coordinates for object 'IndexedFaceSet #11'
v  201875.421875 445680.312500 10.292435 
v  201875.421875 445680.312500 11.347613 
v  201876.437500 445677.750000 10.292433 
v  201876.437500 445677.750000 11.347613 
# 4 vertices

vt 0.0 0.000032 0.0
vt 0.000018 1.000000 0.0
vt 0.999982 0.0 0.0
vt 1.000000 0.999978 0.0
# 4 texture vertices

vn  0.929645 0.368457 0.0 
# 1 normals

usemtl surface__9

o IndexedFaceSet__11_0
g IndexedFaceSet__11_0

s off
f 46/48/16 48/46/16 47/45/16
f 47/45/16 45/47/16 46/48/16
# 2 polygons

# Coordinates for object 'IndexedFaceSet #12'
v  201867.578125 445674.218750 10.292436 
v  201867.578125 445674.218750 11.347614 
v  201876.437500 445677.750000 10.292433 
v  201876.437500 445677.750000 11.347613 
# 4 vertices

vt 0.0 0.003190 0.0
vt 0.000021 1.000000 0.0
vt 0.999981 0.0 0.0
vt 1.000000 0.997020 0.0
# 4 texture vertices

vn  0.370261 -0.928928 0.0 
# 1 normals

usemtl surface__10

o IndexedFaceSet__12_0
g IndexedFaceSet__12_0

s off
f 51/51/17 52/52/17 49/49/17
f 50/50/17 49/49/17 52/52/17
# 2 polygons

# Coordinates for object 'IndexedFaceSet #13'
v  201866.546875 445676.781250 10.292436 
v  201866.546875 445676.781250 11.347614 
v  201875.421875 445680.312500 10.292435 
v  201875.421875 445680.312500 11.347613 
# 4 vertices

vt 0.0 0.995134 0.0
vt 0.0 0.0 0.0
vt 1.000000 0.004832 0.0
vt 1.000000 1.000000 0.0
# 4 texture vertices

vn  -0.369698 0.929152 0.0 
# 1 normals

usemtl surface__11

o IndexedFaceSet__13_0
g IndexedFaceSet__13_0

s off
f 56/53/18 55/54/18 53/55/18
f 53/55/18 54/56/18 56/53/18
# 2 polygons
