# Converted by Daum Communications 
# Date/time of export: 08/22/2013 14:53:47
#
# Bounding box of geometry = (201792,446184,-0.929353) to (201810,446199,24.4044).

mtllib 4593381.mtl

# Coordinates for object 'IndexedFaceSet'
v  201794.265625 446183.968750 -0.909431 
v  201794.281250 446183.968750 21.184061 
v  201810.421875 446187.406250 -0.929349 
v  201810.437500 446187.406250 21.184071 
# 4 vertices

vt 0.0 0.0 0.0
vt 0.0 0.999732 0.0
vt 0.999999 0.000182 0.0
vt 1.000000 1.000000 0.0
# 4 texture vertices

vn  0.208108 -0.978106 -0.000147 
# 1 normals

usemtl surface

o IndexedFaceSet
g IndexedFaceSet

s off
f 4/1/1 2/2/1 3/3/1
f 1/4/1 3/3/1 2/2/1
# 2 polygons

# Coordinates for object 'IndexedFaceSet #1'
v  201792.125000 446195.156250 -0.909428 
v  201792.140625 446195.156250 21.184063 
v  201807.953125 446198.625000 -0.929353 
v  201807.984375 446198.625000 21.184069 
# 4 vertices

vt 0.0 0.0 0.0
vt 0.0 0.999732 0.0
vt 0.999999 0.000182 0.0
vt 1.000000 1.000000 0.0
# 4 texture vertices

vn  -0.214071 0.976818 0.000151 
vn  -0.213869 0.976862 0.000302 
# 2 normals

usemtl surface

o IndexedFaceSet__1_0
g IndexedFaceSet__1_0

s off
f 6/6/3 8/5/3 7/7/3
f 7/7/2 5/8/2 6/6/2
# 2 polygons

# Coordinates for object 'IndexedFaceSet #2'
v  201791.937500 446194.031250 21.184063 
v  201791.953125 446192.468750 21.184063 
v  201792.140625 446195.156250 21.184063 
v  201792.437500 446189.125000 21.184063 
v  201793.171875 446186.562500 21.184061 
v  201793.796875 446184.750000 21.184063 
v  201794.281250 446183.968750 21.184061 
v  201807.984375 446198.625000 21.184069 
v  201810.437500 446187.406250 21.184071 
# 9 vertices

vt 0.0 0.102514 0.0
vt 0.074857 0.071542 0.0
vt 0.142317 1.000000 0.0
vt 0.186801 0.043887 0.0
vt 0.436192 0.008274 0.0
vt 0.636940 0.0 0.0
vt 0.780922 0.0 0.0
vt 0.847972 0.011203 0.0
vt 1.000000 0.925263 0.0
# 9 texture vertices

vn  0.0 0.0 1.0 
vn  0.000013 0.000005 1.0 
# 2 normals

usemtl surface__2

o IndexedFaceSet__2_0
g IndexedFaceSet__2_0

s off
f 10/12/4 16/11/4 11/9/4
f 9/10/4 10/12/4 11/9/4
f 16/11/4 12/13/4 17/17/4
f 13/14/4 17/17/4 12/13/4
f 15/16/5 13/14/5 14/15/5
f 15/16/4 17/17/4 13/14/4
f 12/13/4 16/11/4 10/12/4
# 7 polygons

# Coordinates for object 'IndexedFaceSet #3'
v  201807.953125 446198.625000 -0.929353 
v  201807.984375 446198.625000 21.184069 
v  201810.421875 446187.406250 -0.929349 
v  201810.437500 446187.406250 21.184071 
# 4 vertices

vt 0.0 0.0 0.0
vt 0.0 1.000000 0.0
vt 0.999985 0.0 0.0
vt 1.000000 0.999994 0.0
# 4 texture vertices

vn  0.976632 0.214913 -0.001380 
vn  0.976918 0.213616 -0.000690 
# 2 normals

usemtl surface__3

o IndexedFaceSet__3_0
g IndexedFaceSet__3_0

s off
f 20/21/6 18/20/6 19/18/6
f 19/18/7 21/19/7 20/21/7
# 2 polygons

# Coordinates for object 'IndexedFaceSet #4'
v  201792.140625 446195.156250 21.184063 
v  201792.140625 446195.156250 24.404404 
v  201792.640625 446192.875000 21.181076 
v  201792.640625 446192.875000 24.404404 
# 4 vertices

vt 0.0 0.998418 0.0
vt 0.000991 0.0 0.0
vt 0.999990 0.001696 0.0
vt 1.000000 1.000000 0.0
# 4 texture vertices

vn  -0.976813 -0.214096 0.0 
# 1 normals

usemtl surface__4

o IndexedFaceSet__4_0
g IndexedFaceSet__4_0

s off
f 25/22/8 23/23/8 22/24/8
f 22/24/8 24/25/8 25/22/8
# 2 polygons

# Coordinates for object 'IndexedFaceSet #5'
v  201791.937500 446194.031250 19.618685 
v  201791.937500 446194.031250 21.184063 
v  201792.140625 446195.156250 19.618687 
v  201792.140625 446195.156250 21.184063 
# 4 vertices

vt 0.0 0.000110 0.0
vt 0.000118 1.000000 0.0
vt 0.999886 0.0 0.0
vt 1.000000 0.999888 0.0
# 4 texture vertices

vn  -0.984088 0.177683 0.0 
# 1 normals

usemtl surface__5

o IndexedFaceSet__5_0
g IndexedFaceSet__5_0

s off
f 27/27/9 29/26/9 28/28/9
f 28/28/9 26/29/9 27/27/9
# 2 polygons

# Coordinates for object 'IndexedFaceSet #6'
v  201791.937500 446194.031250 19.618685 
v  201791.937500 446194.031250 21.184063 
v  201791.953125 446192.468750 19.618685 
v  201791.953125 446192.468750 21.184063 
# 4 vertices

vt 0.0 0.000014 0.0
vt 0.000050 1.000000 0.0
vt 0.999872 0.0 0.0
vt 1.000000 0.999944 0.0
# 4 texture vertices

vn  -0.999950 -0.009999 0.0 
# 1 normals

usemtl surface__6

o IndexedFaceSet__6_0
g IndexedFaceSet__6_0

s off
f 33/33/10 31/31/10 30/30/10
f 30/30/10 32/32/10 33/33/10
# 2 polygons

# Coordinates for object 'IndexedFaceSet #7'
v  201791.953125 446192.468750 19.618685 
v  201791.953125 446192.468750 21.184063 
v  201792.437500 446189.125000 19.618685 
v  201792.437500 446189.125000 21.184063 
# 4 vertices

vt 0.0 0.000028 0.0
vt 0.000061 1.000000 0.0
vt 0.999939 0.0 0.0
vt 1.000000 0.999970 0.0
# 4 texture vertices

vn  -0.989670 -0.143363 0.0 
# 1 normals

usemtl surface__7

o IndexedFaceSet__7_0
g IndexedFaceSet__7_0

s off
f 37/37/11 35/35/11 36/36/11
f 34/34/11 36/36/11 35/35/11
# 2 polygons

# Coordinates for object 'IndexedFaceSet #8'
v  201792.437500 446189.125000 19.618685 
v  201792.437500 446189.125000 21.184063 
v  201793.171875 446186.562500 19.618683 
v  201793.171875 446186.562500 21.184061 
# 4 vertices

vt 0.0 0.0 0.0
vt 0.000035 0.999951 0.0
vt 0.999969 0.000045 0.0
vt 1.000000 1.000000 0.0
# 4 texture vertices

vn  -0.961302 -0.275495 0.0 
# 1 normals

usemtl surface__8

o IndexedFaceSet__8_0
g IndexedFaceSet__8_0

s off
f 41/41/12 39/39/12 38/38/12
f 38/38/12 40/40/12 41/41/12
# 2 polygons

# Coordinates for object 'IndexedFaceSet #9'
v  201799.625000 446196.812500 21.184067 
v  201799.625000 446196.812500 24.404404 
v  201800.125000 446194.500000 21.181080 
v  201800.125000 446194.500000 24.404404 
# 4 vertices

vt 0.0 0.998418 0.0
vt 0.000991 0.0 0.0
vt 0.999990 0.001696 0.0
vt 1.000000 1.000000 0.0
# 4 texture vertices

vn  0.977414 0.211333 0.0 
# 1 normals

usemtl surface__4

o IndexedFaceSet__9_0
g IndexedFaceSet__9_0

s off
f 44/45/13 42/44/13 45/42/13
f 43/43/13 45/42/13 42/44/13
# 2 polygons

# Coordinates for object 'IndexedFaceSet #10'
v  201793.171875 446186.562500 19.618683 
v  201793.171875 446186.562500 21.184061 
v  201793.796875 446184.750000 19.618685 
v  201793.796875 446184.750000 21.184063 
# 4 vertices

vt 0.0 0.0 0.0
vt 0.000067 0.999760 0.0
vt 0.999921 0.000087 0.0
vt 1.000000 1.000000 0.0
# 4 texture vertices

vn  -0.945373 -0.325991 0.0 
# 1 normals

usemtl surface__9

o IndexedFaceSet__10_0
g IndexedFaceSet__10_0

s off
f 49/49/14 47/47/14 48/48/14
f 46/46/14 48/48/14 47/47/14
# 2 polygons

# Coordinates for object 'IndexedFaceSet #11'
v  201793.796875 446184.750000 19.618685 
v  201793.796875 446184.750000 21.184063 
v  201794.281250 446183.968750 19.618683 
v  201794.281250 446183.968750 21.184061 
# 4 vertices

vt 0.0 0.000034 0.0
vt 0.000080 1.000000 0.0
vt 0.999972 0.999981 0.0
vt 1.000000 0.0 0.0
# 4 texture vertices

vn  -0.849903 -0.526940 0.0 
# 1 normals

usemtl surface__10

o IndexedFaceSet__11_0
g IndexedFaceSet__11_0

s off
f 53/51/15 51/50/15 52/52/15
f 50/53/15 52/52/15 51/50/15
# 2 polygons

# Coordinates for object 'IndexedFaceSet #12'
v  201792.640625 446192.875000 21.181076 
v  201792.640625 446192.875000 24.404404 
v  201800.125000 446194.500000 21.181080 
v  201800.125000 446194.500000 24.404404 
# 4 vertices

vt 0.0 0.0 0.0
vt 0.000111 0.999195 0.0
vt 0.999918 0.000601 0.0
vt 1.000000 1.000000 0.0
# 4 texture vertices

vn  0.212176 -0.977232 0.0 
# 1 normals

usemtl surface__11

o IndexedFaceSet__12_0
g IndexedFaceSet__12_0

s off
f 57/55/16 55/57/16 56/54/16
f 54/56/16 56/54/16 55/57/16
# 2 polygons

# Coordinates for object 'IndexedFaceSet #13'
v  201792.140625 446195.156250 24.404404 
v  201792.640625 446192.875000 24.404404 
v  201799.625000 446196.812500 24.404404 
v  201800.125000 446194.500000 24.404404 
# 4 vertices

vt 0.0 0.0 0.0
vt 0.0 1.000000 0.0
vt 0.999999 1.000000 0.0
vt 1.000000 0.0 0.0
# 4 texture vertices

vn  0.0 0.0 1.0 
# 1 normals

usemtl surface__12

o IndexedFaceSet__13_0
g IndexedFaceSet__13_0

s off
f 61/60/17 60/59/17 58/58/17
f 58/58/17 59/61/17 61/60/17
# 2 polygons

# Coordinates for object 'IndexedFaceSet #14'
v  201792.140625 446195.156250 21.184063 
v  201792.140625 446195.156250 24.404404 
v  201799.625000 446196.812500 21.184067 
v  201799.625000 446196.812500 24.404404 
# 4 vertices

vt 0.0 0.0 0.0
vt 0.000111 0.999195 0.0
vt 0.999918 0.000601 0.0
vt 1.000000 1.000000 0.0
# 4 texture vertices

vn  -0.216067 0.976379 0.0 
# 1 normals

usemtl surface__11

o IndexedFaceSet__14_0
g IndexedFaceSet__14_0

s off
f 63/65/18 65/63/18 64/62/18
f 64/62/18 62/64/18 63/65/18
# 2 polygons

# Coordinates for object 'IndexedFaceSet #15'
v  201792.125000 446195.156250 -0.909428 
v  201792.140625 446195.156250 19.618687 
v  201794.265625 446183.968750 -0.909431 
v  201794.281250 446183.968750 19.618683 
# 4 vertices

vt 0.0 0.0 0.0
vt 0.0 1.000000 0.0
vt 0.999985 0.0 0.0
vt 1.000000 0.999994 0.0
# 4 texture vertices

vn  -0.982182 -0.187931 0.000748 
# 1 normals

usemtl surface__3

o IndexedFaceSet__15_0
g IndexedFaceSet__15_0

s off
f 69/67/19 67/66/19 66/68/19
f 66/68/19 68/69/19 69/67/19
# 2 polygons

# Coordinates for object 'IndexedFaceSet #16'
v  201791.953125 446192.468750 19.618685 
v  201792.437500 446189.125000 19.618685 
v  201792.625000 446192.625000 19.618687 
v  201793.171875 446186.562500 19.618683 
v  201793.796875 446184.750000 19.618685 
v  201794.281250 446183.968750 19.618683 
# 6 vertices

vt 0.0 0.0 0.0
# 1 texture vertices

vn  -0.000002 0.0 1.0 
vn  0.000013 0.000005 1.0 
# 2 normals

usemtl surface__13

o IndexedFaceSet__16_0
g IndexedFaceSet__16_0

s off
f 75/70/20 72/70/20 73/70/20
f 71/70/20 72/70/20 70/70/20
f 75/70/21 73/70/21 74/70/21
f 73/70/20 72/70/20 71/70/20
# 4 polygons

# Coordinates for object 'IndexedFaceSet #17'
v  201791.937500 446192.468750 2.881114 
v  201792.421875 446189.125000 2.881117 
v  201792.609375 446192.625000 2.881114 
v  201793.156250 446186.562500 2.881114 
v  201793.781250 446184.750000 2.881114 
v  201794.265625 446183.968750 2.881114 
# 6 vertices

vt 0.0 1.000000 0.0
vt 0.095209 0.663420 0.0
vt 0.308942 0.330354 0.0
vt 0.610130 0.0 0.0
vt 0.994072 0.0 0.0
vt 1.000000 0.627168 0.0
# 6 texture vertices

vn  -0.000006 0.0 -1.0 
# 1 normals

usemtl surface__14

o IndexedFaceSet__17_0
g IndexedFaceSet__17_0

s off
f 79/73/22 77/74/22 78/76/22
f 78/76/22 77/74/22 76/75/22
f 79/73/22 81/71/22 80/72/22
f 81/71/22 79/73/22 78/76/22
# 4 polygons

# Coordinates for object 'IndexedFaceSet #18'
v  201791.937500 446192.468750 2.881114 
v  201791.953125 446192.468750 19.618685 
v  201792.421875 446189.125000 2.881117 
v  201792.437500 446189.125000 19.618685 
# 4 vertices

vt 0.0 0.0 0.0
vt 0.0 0.999732 0.0
vt 0.999999 0.000182 0.0
vt 1.000000 1.000000 0.0
# 4 texture vertices

vn  -0.989670 -0.143363 0.000924 
# 1 normals

usemtl surface

o IndexedFaceSet__18_0
g IndexedFaceSet__18_0

s off
f 85/78/23 83/77/23 82/79/23
f 82/79/23 84/80/23 85/78/23
# 2 polygons

# Coordinates for object 'IndexedFaceSet #19'
v  201792.421875 446189.125000 2.881117 
v  201792.437500 446189.125000 19.618685 
v  201793.156250 446186.562500 2.881114 
v  201793.171875 446186.562500 19.618683 
# 4 vertices

vt 0.0 0.001041 0.0
vt 0.0 1.000000 0.0
vt 0.999998 0.998936 0.0
vt 1.000000 0.0 0.0
# 4 texture vertices

vn  -0.961302 -0.275495 0.000897 
# 1 normals

usemtl surface__15

o IndexedFaceSet__19_0
g IndexedFaceSet__19_0

s off
f 89/82/24 87/81/24 88/83/24
f 86/84/24 88/83/24 87/81/24
# 2 polygons

# Coordinates for object 'IndexedFaceSet #20'
v  201793.156250 446186.562500 2.881114 
v  201793.171875 446186.562500 19.618683 
v  201793.781250 446184.750000 2.881114 
v  201793.796875 446184.750000 19.618685 
# 4 vertices

vt 0.0 0.001729 0.0
vt 0.0 1.000000 0.0
vt 0.999997 0.998404 0.0
vt 1.000000 0.0 0.0
# 4 texture vertices

vn  -0.945373 -0.325991 0.000883 
# 1 normals

usemtl surface__16

o IndexedFaceSet__20_0
g IndexedFaceSet__20_0

s off
f 93/86/25 91/85/25 92/87/25
f 90/88/25 92/87/25 91/85/25
# 2 polygons

# Coordinates for object 'IndexedFaceSet #21'
v  201793.781250 446184.750000 2.881114 
v  201793.796875 446184.750000 19.618685 
v  201794.265625 446183.968750 2.881114 
v  201794.281250 446183.968750 19.618683 
# 4 vertices

vt 0.0 1.000000 0.0
vt 0.0 0.009300 0.0
vt 0.999991 0.990416 0.0
vt 1.000000 0.0 0.0
# 4 texture vertices

vn  -0.849902 -0.526940 0.000793 
# 1 normals

usemtl surface__17

o IndexedFaceSet__21_0
g IndexedFaceSet__21_0

s off
f 97/89/26 95/90/26 96/91/26
f 94/92/26 96/91/26 95/90/26
# 2 polygons

# Coordinates for object 'IndexedFaceSet #22'
v  201791.937500 446192.468750 2.881114 
v  201791.953125 446192.468750 19.618685 
v  201792.609375 446192.625000 2.881114 
v  201792.625000 446192.625000 19.618687 
# 4 vertices

vt 0.0 0.0 0.0
vt 0.000023 0.982453 0.0
vt 0.999974 0.017507 0.0
vt 1.000000 1.000000 0.0
# 4 texture vertices

vn  -0.226513 0.974008 0.000211 
# 1 normals

usemtl surface__18

o IndexedFaceSet__22_0
g IndexedFaceSet__22_0

s off
f 99/94/27 101/93/27 100/95/27
f 100/95/27 98/96/27 99/94/27
# 2 polygons
