# Converted by Daum Communications 
# Date/time of export: 08/22/2013 14:53:47
#
# Bounding box of geometry = (201844,445917,-0.43017) to (201861,445936,20.7682).

mtllib 4593377.mtl

# Coordinates for object 'IndexedFaceSet'
v  201844.375000 445932.281250 20.550091 
v  201844.687500 445932.656250 -0.272936 
v  201849.859375 445917.000000 20.393200 
v  201850.171875 445917.343750 -0.430170 
# 4 vertices

vt 0.0 1.000000 0.0
vt 0.000088 0.0 0.0
vt 0.999915 0.997995 0.0
vt 1.000000 0.000152 0.0
# 4 texture vertices

vn  -0.941311 -0.336936 -0.020194 
vn  -0.941100 -0.337555 -0.019696 
# 2 normals

usemtl surface

o IndexedFaceSet
g IndexedFaceSet

s off
f 2/1/1 4/2/1 1/3/1
f 3/4/2 1/3/2 4/2/2
# 2 polygons

# Coordinates for object 'IndexedFaceSet #1'
v  201855.000000 445935.500000 20.768183 
v  201855.312500 445935.875000 -0.054851 
v  201860.187500 445921.000000 20.619133 
v  201860.515625 445921.312500 -0.204243 
# 4 vertices

vt 0.0 1.000000 0.0
vt 0.000088 0.0 0.0
vt 0.999915 0.997995 0.0
vt 1.000000 0.000152 0.0
# 4 texture vertices

vn  0.941437 0.336603 0.019886 
vn  0.941570 0.336212 0.020185 
# 2 normals

usemtl surface

o IndexedFaceSet__1_0
g IndexedFaceSet__1_0

s off
f 5/7/3 7/8/3 8/6/3
f 8/6/4 6/5/4 5/7/4
# 2 polygons

# Coordinates for object 'IndexedFaceSet #2'
v  201844.687500 445932.656250 -0.272936 
v  201850.171875 445917.343750 -0.430170 
v  201855.312500 445935.875000 -0.054851 
v  201860.515625 445921.312500 -0.204243 
# 4 vertices

vt 0.0 0.000386 0.0
vt 0.000014 1.000000 0.0
vt 0.999996 0.0 0.0
vt 1.000000 0.999576 0.0
# 4 texture vertices

vn  0.015706 0.015891 -0.999750 
vn  0.015743 0.015881 -0.999750 
# 2 normals

usemtl surface__2

o IndexedFaceSet__2_0
g IndexedFaceSet__2_0

s off
f 11/9/6 12/10/6 10/12/6
f 10/12/5 9/11/5 11/9/5
# 2 polygons

# Coordinates for object 'IndexedFaceSet #3'
v  201849.859375 445917.000000 20.393200 
v  201850.171875 445917.343750 -0.430170 
v  201860.187500 445921.000000 20.619133 
v  201860.515625 445921.312500 -0.204243 
# 4 vertices

vt 0.0 1.000000 0.0
vt 0.000011 0.000032 0.0
vt 0.999981 0.999914 0.0
vt 1.000000 0.0 0.0
# 4 texture vertices

vn  0.358396 -0.933516 -0.010032 
vn  0.361298 -0.932414 -0.008300 
# 2 normals

usemtl surface__3

o IndexedFaceSet__3_0
g IndexedFaceSet__3_0

s off
f 14/14/7 16/16/7 13/13/7
f 15/15/8 13/13/8 16/16/8
# 2 polygons

# Coordinates for object 'IndexedFaceSet #4'
v  201844.375000 445932.281250 20.550091 
v  201849.859375 445917.000000 20.393200 
v  201855.000000 445935.500000 20.768183 
v  201860.187500 445921.000000 20.619133 
# 4 vertices

vt 0.0 0.0 0.0
vt 0.033651 1.000000 0.0
vt 0.966349 0.0 0.0
vt 1.000000 1.000000 0.0
# 4 texture vertices

vn  -0.015704 -0.015901 0.999750 
# 1 normals

usemtl surface__4

o IndexedFaceSet__4_0
g IndexedFaceSet__4_0

s off
f 17/17/9 18/19/9 19/18/9
f 20/20/9 19/18/9 18/19/9
# 2 polygons

# Coordinates for object 'IndexedFaceSet #5'
v  201844.375000 445932.281250 20.550091 
v  201844.687500 445932.656250 -0.272936 
v  201855.000000 445935.500000 20.768183 
v  201855.312500 445935.875000 -0.054851 
# 4 vertices

vt 0.0 0.0 0.0
vt 0.000028 0.999945 0.0
vt 0.999953 0.000042 0.0
vt 1.000000 1.000000 0.0
# 4 texture vertices

vn  -0.290147 0.956895 0.012878 
# 1 normals

usemtl surface__5

o IndexedFaceSet__5_0
g IndexedFaceSet__5_0

s off
f 24/22/10 22/21/10 21/23/10
f 21/23/10 23/24/10 24/22/10
# 2 polygons
