# Converted by Daum Communications 
# Date/time of export: 08/22/2013 14:53:46
#
# Bounding box of geometry = (201799,446109,-2.02337) to (201813,446129,58.4149).

mtllib 4593368.mtl

# Coordinates for object 'IndexedFaceSet'
v  201798.578125 446126.250000 42.859615 
v  201802.156250 446113.312500 42.859612 
v  201803.515625 446113.687500 42.859615 
v  201804.812500 446108.968750 42.859615 
v  201808.468750 446129.000000 42.859612 
v  201813.359375 446111.312500 42.859608 
# 6 vertices

vt 0.0 0.0 0.0
vt 0.0 0.862646 0.0
vt 0.267628 0.862646 0.0
vt 0.267629 1.000000 0.0
vt 0.997716 0.999999 0.0
vt 1.000000 0.0 0.0
# 6 texture vertices

vn  0.0 0.0 1.0 
# 1 normals

usemtl surface

o IndexedFaceSet
g IndexedFaceSet

s off
f 5/6/1 3/3/1 6/1/1
f 3/3/1 5/6/1 1/5/1
f 6/1/1 3/3/1 4/2/1
f 2/4/1 3/3/1 1/5/1
# 4 polygons

# Coordinates for object 'IndexedFaceSet #1'
v  201808.468750 446129.000000 -2.023364 
v  201808.468750 446129.000000 42.859612 
v  201813.359375 446111.312500 -2.023367 
v  201813.359375 446111.312500 42.859608 
# 4 vertices

vt 0.0 1.000000 0.0
vt 0.000013 0.000100 0.0
vt 0.999999 0.0 0.0
vt 1.000000 0.999943 0.0
# 4 texture vertices

vn  0.963834 0.266502 0.0 
# 1 normals

usemtl surface__2

o IndexedFaceSet__1_0
g IndexedFaceSet__1_0

s off
f 9/10/2 7/9/2 8/8/2
f 8/8/2 10/7/2 9/10/2
# 2 polygons

# Coordinates for object 'IndexedFaceSet #2'
v  201804.812500 446108.968750 -2.023362 
v  201804.812500 446108.968750 42.859615 
v  201813.359375 446111.312500 -2.023367 
v  201813.359375 446111.312500 42.859608 
# 4 vertices

vt 0.0 0.001172 0.0
vt 0.0 1.000000 0.0
vt 0.999995 0.0 0.0
vt 1.000000 0.998790 0.0
# 4 texture vertices

vn  0.264460 -0.964397 0.0 
# 1 normals

usemtl surface__3

o IndexedFaceSet__2_0
g IndexedFaceSet__2_0

s off
f 14/12/3 12/11/3 11/13/3
f 11/13/3 13/14/3 14/12/3
# 2 polygons

# Coordinates for object 'IndexedFaceSet #3'
v  201803.515625 446113.687500 -2.023359 
v  201803.515625 446113.687500 42.859615 
v  201804.812500 446108.968750 -2.023362 
v  201804.812500 446108.968750 42.859615 
# 4 vertices

vt 0.0 0.001172 0.0
vt 0.0 1.000000 0.0
vt 0.999995 0.0 0.0
vt 1.000000 0.998790 0.0
# 4 texture vertices

vn  -0.964246 -0.265008 0.0 
# 1 normals

usemtl surface__3

o IndexedFaceSet__3_0
g IndexedFaceSet__3_0

s off
f 18/16/4 16/15/4 15/17/4
f 15/17/4 17/18/4 18/16/4
# 2 polygons

# Coordinates for object 'IndexedFaceSet #4'
v  201802.156250 446113.312500 -2.023361 
v  201802.156250 446113.312500 42.859612 
v  201803.515625 446113.687500 -2.023359 
v  201803.515625 446113.687500 42.859615 
# 4 vertices

vt 0.0 0.0 0.0
vt 0.005103 0.999974 0.0
vt 0.995249 0.0 0.0
vt 1.000000 1.000000 0.0
# 4 texture vertices

vn  0.265929 -0.963993 0.0 
# 1 normals

usemtl surface__4

o IndexedFaceSet__4_0
g IndexedFaceSet__4_0

s off
f 22/22/5 20/20/5 21/21/5
f 19/19/5 21/21/5 20/20/5
# 2 polygons

# Coordinates for object 'IndexedFaceSet #5'
v  201798.578125 446126.250000 -2.023359 
v  201798.578125 446126.250000 42.859615 
v  201802.156250 446113.312500 -2.023361 
v  201802.156250 446113.312500 42.859612 
# 4 vertices

vt 0.0 0.000469 0.0
vt 0.0 1.000000 0.0
vt 0.999997 0.0 0.0
vt 1.000000 0.999505 0.0
# 4 texture vertices

vn  -0.963817 -0.266563 0.0 
# 1 normals

usemtl surface__5

o IndexedFaceSet__5_0
g IndexedFaceSet__5_0

s off
f 26/24/6 24/23/6 25/26/6
f 23/25/6 25/26/6 24/23/6
# 2 polygons

# Coordinates for object 'IndexedFaceSet #6'
v  201798.578125 446126.250000 -2.023359 
v  201798.578125 446126.250000 42.859615 
v  201808.468750 446129.000000 -2.023364 
v  201808.468750 446129.000000 42.859612 
# 4 vertices

vt 0.0 0.000075 0.0
vt 0.000811 0.999922 0.0
vt 0.999370 0.0 0.0
vt 1.000000 1.000000 0.0
# 4 texture vertices

vn  -0.267879 0.963452 0.0 
# 1 normals

usemtl surface__6

o IndexedFaceSet__6_0
g IndexedFaceSet__6_0

s off
f 28/30/7 30/28/7 27/29/7
f 29/27/7 27/29/7 30/28/7
# 2 polygons

# Coordinates for object 'IndexedFaceSet #7'
v  201803.890625 446112.281250 48.389923 
v  201803.890625 446112.281250 50.562042 
v  201804.812500 446108.968750 48.389931 
v  201804.812500 446108.968750 50.562042 
# 4 vertices

vt 0.0 0.000304 0.0
vt 0.000098 0.999960 0.0
vt 0.999658 0.0 0.0
vt 1.000000 1.000000 0.0
# 4 texture vertices

vn  -0.963388 -0.268113 0.0 
# 1 normals

usemtl surface__7

o IndexedFaceSet__7_0
g IndexedFaceSet__7_0

s off
f 34/34/8 32/32/8 33/33/8
f 31/31/8 33/33/8 32/32/8
# 2 polygons

# Coordinates for object 'IndexedFaceSet #8'
v  201803.515625 446113.687500 48.389931 
v  201804.812500 446108.968750 48.389931 
v  201812.046875 446116.031250 48.389919 
v  201813.359375 446111.312500 48.389919 
# 4 vertices

vt 0.0 0.0 0.0
vt 0.0 0.999999 0.0
vt 0.997039 0.0 0.0
vt 1.000000 1.000000 0.0
# 4 texture vertices

vn  0.000001 0.0 1.0 
# 1 normals

usemtl surface__8

o IndexedFaceSet__8_0
g IndexedFaceSet__8_0

s off
f 38/35/9 37/37/9 36/36/9
f 35/38/9 36/36/9 37/37/9
# 2 polygons

# Coordinates for object 'IndexedFaceSet #9'
v  201812.046875 446116.031250 43.069386 
v  201812.046875 446116.031250 48.389919 
v  201813.359375 446111.312500 42.859608 
v  201813.359375 446111.312500 48.389919 
# 4 vertices

vt 0.0 0.0 0.0
vt 0.0 0.999996 0.0
vt 0.999997 0.0 0.0
vt 1.000000 1.000000 0.0
# 4 texture vertices

vn  0.963426 0.267973 0.0 
# 1 normals

usemtl surface__9

o IndexedFaceSet__9_0
g IndexedFaceSet__9_0

s off
f 41/42/10 39/41/10 42/40/10
f 40/39/10 42/40/10 39/41/10
# 2 polygons

# Coordinates for object 'IndexedFaceSet #10'
v  201804.812500 446108.968750 42.859615 
v  201804.812500 446108.968750 48.389931 
v  201813.359375 446111.312500 42.859608 
v  201813.359375 446111.312500 48.389919 
# 4 vertices

vt 0.0 0.999345 0.0
vt 0.000271 0.0 0.0
vt 0.999999 1.000000 0.0
vt 1.000000 0.000366 0.0
# 4 texture vertices

vn  0.264460 -0.964397 0.0 
# 1 normals

usemtl surface__10

o IndexedFaceSet__10_0
g IndexedFaceSet__10_0

s off
f 46/45/11 44/43/11 45/46/11
f 43/44/11 45/46/11 44/43/11
# 2 polygons

# Coordinates for object 'IndexedFaceSet #11'
v  201803.515625 446113.687500 42.859615 
v  201803.515625 446113.687500 48.389931 
v  201804.812500 446108.968750 42.859615 
v  201804.812500 446108.968750 48.389931 
# 4 vertices

vt 0.0 0.000134 0.0
vt 0.000030 1.000000 0.0
vt 0.999904 0.0 0.0
vt 1.000000 0.999869 0.0
# 4 texture vertices

vn  -0.964246 -0.265008 0.0 
# 1 normals

usemtl surface__11

o IndexedFaceSet__11_0
g IndexedFaceSet__11_0

s off
f 50/48/12 48/47/12 49/50/12
f 47/49/12 49/50/12 48/47/12
# 2 polygons

# Coordinates for object 'IndexedFaceSet #12'
v  201803.515625 446113.687500 42.859615 
v  201803.515625 446113.687500 48.389931 
v  201812.046875 446116.031250 43.069386 
v  201812.046875 446116.031250 48.389919 
# 4 vertices

vt 0.0 0.962066 0.0
vt 0.014015 0.0 0.0
vt 0.985433 0.999999 0.0
vt 1.000000 0.0 0.0
# 4 texture vertices

vn  -0.264910 0.964273 0.0 
# 1 normals

usemtl surface__12

o IndexedFaceSet__12_0
g IndexedFaceSet__12_0

s off
f 52/52/13 54/54/13 53/53/13
f 53/53/13 51/51/13 52/52/13
# 2 polygons

# Coordinates for object 'IndexedFaceSet #13'
v  201812.421875 446114.656250 48.389923 
v  201812.421875 446114.656250 50.562050 
v  201813.343750 446111.312500 48.389931 
v  201813.343750 446111.312500 50.562042 
# 4 vertices

vt 0.0 0.000304 0.0
vt 0.000098 0.999960 0.0
vt 0.999658 0.0 0.0
vt 1.000000 1.000000 0.0
# 4 texture vertices

vn  0.964032 0.265785 0.0 
# 1 normals

usemtl surface__7

o IndexedFaceSet__13_0
g IndexedFaceSet__13_0

s off
f 57/57/14 55/55/14 56/56/14
f 56/56/14 58/58/14 57/57/14
# 2 polygons

# Coordinates for object 'IndexedFaceSet #14'
v  201804.812500 446108.968750 48.389931 
v  201804.812500 446108.968750 50.562042 
v  201813.343750 446111.312500 48.389931 
v  201813.343750 446111.312500 50.562042 
# 4 vertices

vt 0.0 0.0 0.0
vt 0.000055 0.994072 0.0
vt 0.999947 0.005658 0.0
vt 1.000000 1.000000 0.0
# 4 texture vertices

vn  0.264910 -0.964273 0.0 
# 1 normals

usemtl surface__13

o IndexedFaceSet__14_0
g IndexedFaceSet__14_0

s off
f 60/60/15 59/59/15 62/62/15
f 61/61/15 62/62/15 59/59/15
# 2 polygons

# Coordinates for object 'IndexedFaceSet #15'
v  201803.890625 446112.281250 50.562042 
v  201804.812500 446108.968750 50.562042 
v  201812.421875 446114.656250 50.562050 
v  201813.343750 446111.312500 50.562042 
# 4 vertices

vt 0.0 0.0 0.0
vt 0.0 0.999138 0.0
vt 0.999932 1.000000 0.0
vt 1.000000 0.000995 0.0
# 4 texture vertices

vn  0.0 -0.000002 1.0 
# 1 normals

usemtl surface__14

o IndexedFaceSet__15_0
g IndexedFaceSet__15_0

s off
f 66/65/16 65/66/16 63/63/16
f 63/63/16 64/64/16 66/65/16
# 2 polygons

# Coordinates for object 'IndexedFaceSet #16'
v  201803.890625 446112.281250 48.389923 
v  201803.890625 446112.281250 50.562042 
v  201812.421875 446114.656250 48.389923 
v  201812.421875 446114.656250 50.562050 
# 4 vertices

vt 0.0 0.000756 0.0
vt 0.000032 1.000000 0.0
vt 0.999964 0.0 0.0
vt 1.000000 0.999312 0.0
# 4 texture vertices

vn  -0.268190 0.963366 0.0 
# 1 normals

usemtl surface__15

o IndexedFaceSet__16_0
g IndexedFaceSet__16_0

s off
f 68/70/17 70/68/17 69/67/17
f 69/67/17 67/69/17 68/70/17
# 2 polygons

# Coordinates for object 'IndexedFaceSet #17'
v  201804.031250 446111.812500 51.168468 
v  201804.031250 446111.812500 58.414860 
v  201804.109375 446111.500000 50.562042 
v  201804.109375 446111.500000 51.168468 
v  201804.484375 446110.156250 50.562042 
v  201804.484375 446110.156250 51.164185 
v  201804.562500 446109.843750 51.164185 
v  201804.562500 446109.843750 58.414852 
# 8 vertices

vt 0.0 1.000000 0.0
vt 0.000028 0.000465 0.0
vt 0.922725 0.0 0.0
vt 0.922758 0.166747 0.0
vt 0.923435 0.851414 0.0
vt 0.923445 0.999532 0.0
vt 0.999939 0.166561 0.0
vt 1.000000 0.845135 0.0
# 8 texture vertices

vn  -0.970142 -0.242536 0.0 
vn  -0.965467 -0.260523 0.000826 
vn  -0.963197 -0.268795 -0.001207 
vn  -0.963196 -0.268799 0.0 
# 4 normals

usemtl surface__16

o IndexedFaceSet__17_0
g IndexedFaceSet__17_0

s off
f 71/73/18 74/74/18 72/72/18
f 78/71/19 72/72/19 74/74/19
f 74/74/20 76/75/20 78/71/20
f 75/78/21 76/75/21 74/74/21
f 76/75/18 77/76/18 78/71/18
f 75/78/21 74/74/21 73/77/21
# 6 polygons

# Coordinates for object 'IndexedFaceSet #18'
v  201812.546875 446114.187500 51.168476 
v  201812.546875 446114.187500 58.414860 
v  201812.640625 446113.843750 50.562042 
v  201812.640625 446113.843750 51.168476 
v  201813.000000 446112.500000 50.562050 
v  201813.015625 446112.500000 51.164185 
v  201813.093750 446112.218750 51.164185 
v  201813.093750 446112.218750 58.414860 
# 8 vertices

vt 0.0 1.000000 0.0
vt 0.000028 0.000465 0.0
vt 0.922725 0.0 0.0
vt 0.922758 0.166747 0.0
vt 0.923435 0.851414 0.0
vt 0.923445 0.999532 0.0
vt 0.999939 0.166561 0.0
vt 1.000000 0.845135 0.0
# 8 texture vertices

vn  0.962875 0.268789 -0.024986 
vn  0.963196 0.268799 0.000048 
vn  0.963518 0.267644 -0.000231 
vn  0.963518 0.267644 0.0 
vn  0.964764 0.263117 0.0 
vn  0.966048 0.258362 0.0 
# 6 normals

usemtl surface__16

o IndexedFaceSet__18_0
g IndexedFaceSet__18_0

s off
f 84/83/22 83/86/22 82/82/22
f 85/84/25 84/83/25 86/79/25
f 83/86/27 81/85/27 82/82/27
f 82/82/26 79/81/26 80/80/26
f 80/80/24 86/79/24 82/82/24
f 82/82/23 86/79/23 84/83/23
# 6 polygons

# Coordinates for object 'IndexedFaceSet #19'
v  201804.484375 446110.156250 50.562042 
v  201804.484375 446110.156250 51.164185 
v  201813.000000 446112.500000 50.562050 
v  201813.015625 446112.500000 51.164185 
# 4 vertices

vt 0.0 0.981191 0.0
vt 0.000013 0.0 0.0
vt 0.999993 1.000000 0.0
vt 1.000000 0.018614 0.0
# 4 texture vertices

vn  0.264910 -0.964273 0.0 
vn  0.265356 -0.964126 -0.006886 
# 2 normals

usemtl surface__17

o IndexedFaceSet__19_0
g IndexedFaceSet__19_0

s off
f 88/87/28 87/88/28 90/89/28
f 89/90/29 90/89/29 87/88/29
# 2 polygons

# Coordinates for object 'IndexedFaceSet #20'
v  201804.484375 446110.156250 51.164185 
v  201804.562500 446109.843750 51.164185 
v  201813.015625 446112.500000 51.164185 
v  201813.093750 446112.218750 51.164185 
# 4 vertices

vt 0.0 0.989315 0.0
vt 0.0 0.0 0.0
vt 1.000000 0.010679 0.0
vt 1.000000 1.000000 0.0
# 4 texture vertices

vn  0.0 0.0 -1.0 
# 1 normals

usemtl surface__18

o IndexedFaceSet__20_0
g IndexedFaceSet__20_0

s off
f 92/93/30 91/94/30 94/92/30
f 93/91/30 94/92/30 91/94/30
# 2 polygons

# Coordinates for object 'IndexedFaceSet #21'
v  201804.562500 446109.843750 51.164185 
v  201804.562500 446109.843750 58.414852 
v  201813.093750 446112.218750 51.164185 
v  201813.093750 446112.218750 58.414860 
# 4 vertices

vt 0.0 0.0 0.0
vt 0.000247 0.998955 0.0
vt 0.999855 0.000804 0.0
vt 1.000000 1.000000 0.0
# 4 texture vertices

vn  0.268190 -0.963366 0.0 
# 1 normals

usemtl surface__19

o IndexedFaceSet__21_0
g IndexedFaceSet__21_0

s off
f 98/96/31 96/98/31 97/95/31
f 95/97/31 97/95/31 96/98/31
# 2 polygons

# Coordinates for object 'IndexedFaceSet #22'
v  201804.031250 446111.812500 58.414860 
v  201804.562500 446109.843750 58.414852 
v  201812.546875 446114.187500 58.414860 
v  201813.093750 446112.218750 58.414860 
# 4 vertices

vt 0.0 0.666667 0.0
vt 0.0 1.000000 0.0
vt 1.000000 0.666668 0.0
vt 1.000000 1.000000 0.0
# 4 texture vertices

vn  0.0 0.0 1.0 
# 1 normals

usemtl surface__20

o IndexedFaceSet__22_0
g IndexedFaceSet__22_0

s off
f 102/100/32 101/99/32 99/101/32
f 99/101/32 100/102/32 102/100/32
# 2 polygons

# Coordinates for object 'IndexedFaceSet #23'
v  201804.031250 446111.812500 51.168468 
v  201804.031250 446111.812500 58.414860 
v  201812.546875 446114.187500 51.168476 
v  201812.546875 446114.187500 58.414860 
# 4 vertices

vt 0.0 0.0 0.0
vt 0.000247 0.998955 0.0
vt 0.999855 0.000804 0.0
vt 1.000000 1.000000 0.0
# 4 texture vertices

vn  -0.268646 0.963239 0.0 
# 1 normals

usemtl surface__19

o IndexedFaceSet__23_0
g IndexedFaceSet__23_0

s off
f 104/106/33 106/104/33 105/103/33
f 105/103/33 103/105/33 104/106/33
# 2 polygons

# Coordinates for object 'IndexedFaceSet #24'
v  201804.031250 446111.812500 51.168468 
v  201804.109375 446111.500000 51.168468 
v  201812.546875 446114.187500 51.168476 
v  201812.640625 446113.843750 51.168476 
# 4 vertices

vt 0.0 0.992302 0.0
vt 0.0 0.0 0.0
vt 1.000000 0.007589 0.0
vt 1.000000 1.000000 0.0
# 4 texture vertices

vn  0.0 0.0 -1.0 
# 1 normals

usemtl surface__21

o IndexedFaceSet__24_0
g IndexedFaceSet__24_0

s off
f 108/109/34 107/110/34 110/108/34
f 109/107/34 110/108/34 107/110/34
# 2 polygons

# Coordinates for object 'IndexedFaceSet #25'
v  201804.109375 446111.500000 50.562042 
v  201804.109375 446111.500000 51.168468 
v  201812.640625 446113.843750 50.562042 
v  201812.640625 446113.843750 51.168476 
# 4 vertices

vt 0.0 0.003542 0.0
vt 0.0 1.000000 0.0
vt 0.999997 0.0 0.0
vt 1.000000 0.996452 0.0
# 4 texture vertices

vn  -0.264910 0.964273 0.0 
# 1 normals

usemtl surface__22

o IndexedFaceSet__25_0
g IndexedFaceSet__25_0

s off
f 111/113/35 112/114/35 114/112/35
f 114/112/35 113/111/35 111/113/35
# 2 polygons
