# Converted by Daum Communications 
# Date/time of export: 08/22/2013 14:53:46
#
# Bounding box of geometry = (201834,445941,-1.15079) to (201858,445977,73.3057).

mtllib 4593359.mtl

# Coordinates for object 'IndexedFaceSet'
v  201834.703125 445968.906250 -0.867121 
v  201834.703125 445968.906250 64.175209 
v  201842.437500 445941.281250 -0.863144 
v  201842.515625 445941.031250 64.179214 
# 4 vertices

vt 0.0 0.990459 0.0
vt 0.001846 0.0 0.0
vt 0.998138 1.000000 0.0
vt 1.000000 0.000179 0.0
# 4 texture vertices

vn  -0.962970 -0.269610 0.0 
vn  -0.962897 -0.269870 0.000119 
# 2 normals

usemtl surface

o IndexedFaceSet
g IndexedFaceSet

s off
f 1/1/1 3/2/1 2/3/1
f 4/4/2 2/3/2 3/2/2
# 2 polygons

# Coordinates for object 'IndexedFaceSet #1'
v  201850.187500 445973.250000 -0.867907 
v  201850.187500 445973.250000 64.174423 
v  201857.937500 445945.625000 -0.863927 
v  201858.015625 445945.375000 64.178436 
# 4 vertices

vt 0.0 0.990459 0.0
vt 0.001846 0.0 0.0
vt 0.998138 1.000000 0.0
vt 1.000000 0.000179 0.0
# 4 texture vertices

vn  0.962756 0.270370 -0.000117 
vn  0.962828 0.270115 0.0 
# 2 normals

usemtl surface

o IndexedFaceSet__1_0
g IndexedFaceSet__1_0

s off
f 6/7/3 8/8/3 7/6/3
f 7/6/4 5/5/4 6/7/4
# 2 polygons

# Coordinates for object 'IndexedFaceSet #2'
v  201834.703125 445968.906250 64.175209 
v  201842.515625 445941.031250 64.179214 
v  201850.187500 445973.250000 64.174423 
v  201858.015625 445945.375000 64.178436 
# 4 vertices

vt 0.0 0.0 0.0
vt 0.0 1.000000 0.0
vt 1.000000 0.0 0.0
vt 1.000000 1.000000 0.0
# 4 texture vertices

vn  0.000009 0.000146 1.0 
# 1 normals

usemtl surface__2

o IndexedFaceSet__2_0
g IndexedFaceSet__2_0

s off
f 9/9/5 10/11/5 12/12/5
f 12/12/5 11/10/5 9/9/5
# 2 polygons

# Coordinates for object 'IndexedFaceSet #3'
v  201834.703125 445968.906250 -0.867121 
v  201834.703125 445968.906250 64.175209 
v  201850.187500 445973.250000 -0.867907 
v  201850.187500 445973.250000 64.174423 
# 4 vertices

vt 0.0 0.999552 0.0
vt 0.000158 0.0 0.0
vt 0.999910 1.000000 0.0
vt 1.000000 0.000397 0.0
# 4 texture vertices

vn  -0.270098 0.962833 0.0 
# 1 normals

usemtl surface__3

o IndexedFaceSet__3_0
g IndexedFaceSet__3_0

s off
f 15/13/6 13/14/6 14/16/6
f 14/16/6 16/15/6 15/13/6
# 2 polygons

# Coordinates for object 'IndexedFaceSet #4'
v  201839.156250 445956.406250 63.822094 
v  201839.156250 445956.406250 70.015007 
v  201840.828125 445956.875000 70.014915 
v  201840.828125 445956.875000 72.537567 
v  201842.875000 445957.437500 73.074577 
v  201844.859375 445958.000000 73.305725 
v  201846.812500 445958.687500 73.255280 
v  201848.765625 445959.093750 72.951508 
v  201850.906250 445959.687500 69.078194 
v  201850.906250 445959.687500 72.146858 
v  201852.593750 445960.156250 63.716267 
v  201852.593750 445960.187500 69.078110 
# 12 vertices

vt 0.0 0.999973 0.0
vt 0.005121 0.0 0.0
vt 0.552910 0.874182 0.0
vt 0.553034 1.000000 0.0
vt 0.648204 0.000027 0.0
vt 0.648324 0.124964 0.0
vt 0.868006 0.874191 0.0
vt 0.907347 0.124987 0.0
vt 0.950450 0.714677 0.0
vt 0.962577 0.276405 0.0
vt 0.986490 0.424141 0.0
vt 1.000000 0.580064 0.0
# 12 texture vertices

vn  0.197341 -0.979474 -0.041084 
vn  0.264985 -0.964252 0.0 
vn  0.267281 -0.963619 0.0 
vn  0.268802 -0.963195 0.000393 
vn  0.268827 -0.963188 0.000331 
vn  0.269964 -0.962870 0.0 
vn  0.271734 -0.961696 0.036081 
vn  0.273366 -0.961891 -0.006040 
vn  0.284084 -0.958783 0.005588 
vn  0.329054 -0.940790 -0.081472 
# 10 normals

usemtl surface__4

o IndexedFaceSet__4_0
g IndexedFaceSet__4_0

s off
f 25/19/15 27/17/15 28/20/15
f 17/18/11 25/19/11 19/22/11
f 25/19/10 17/18/10 27/17/10
f 23/28/13 19/22/13 25/19/13
f 17/18/12 19/22/12 18/21/12
f 25/19/9 26/23/9 24/25/9
f 23/28/16 22/27/16 19/22/16
f 22/27/14 21/26/14 19/22/14
f 19/22/8 21/26/8 20/24/8
f 23/28/7 25/19/7 24/25/7
# 10 polygons

# Coordinates for object 'IndexedFaceSet #5'
v  201842.437500 445941.281250 -0.863144 
v  201842.515625 445941.031250 64.179214 
v  201857.937500 445945.625000 -0.863927 
v  201858.015625 445945.375000 64.178436 
# 4 vertices

vt 0.0 0.0 0.0
vt 0.000142 1.000000 0.0
vt 0.999797 0.000072 0.0
vt 1.000000 0.999998 0.0
# 4 texture vertices

vn  0.269844 -0.962896 -0.004025 
# 1 normals

usemtl surface__5

o IndexedFaceSet__5_0
g IndexedFaceSet__5_0

s off
f 29/30/17 31/29/17 30/32/17
f 32/31/17 30/32/17 31/29/17
# 2 polygons

# Coordinates for object 'IndexedFaceSet #6'
v  201834.375000 445973.437500 -1.150108 
v  201834.375000 445973.437500 70.013176 
v  201836.062500 445973.906250 70.013084 
v  201836.062500 445973.906250 72.535736 
v  201838.093750 445974.468750 73.072746 
v  201840.078125 445975.031250 73.303902 
v  201842.031250 445975.718750 73.253456 
v  201843.984375 445976.125000 72.949677 
v  201846.125000 445976.718750 69.076363 
v  201846.125000 445976.750000 72.145035 
v  201847.812500 445977.187500 -1.150792 
v  201847.812500 445977.218750 69.076279 
# 12 vertices

vt 0.0 0.999531 0.0
vt 0.000113 0.0 0.0
vt 0.941617 0.874231 0.0
vt 0.941633 1.000000 0.0
vt 0.954064 0.000410 0.0
vt 0.954079 0.125300 0.0
vt 0.982763 0.874239 0.0
vt 0.987903 0.125324 0.0
vt 0.993529 0.714787 0.0
vt 0.995114 0.276684 0.0
vt 0.998236 0.424363 0.0
vt 1.000000 0.580226 0.0
# 12 texture vertices

vn  -0.329129 0.940893 0.079966 
vn  -0.284088 0.958798 -0.000427 
vn  -0.283636 0.958882 -0.009765 
vn  -0.273205 0.961945 0.004528 
vn  -0.272159 0.961559 -0.036531 
vn  -0.269183 0.963089 0.000039 
vn  -0.268799 0.963196 -0.000030 
vn  -0.267644 0.963518 0.0 
vn  -0.266879 0.963730 0.0 
vn  -0.197341 0.979474 0.041084 
# 10 normals

usemtl surface__6

o IndexedFaceSet__6_0
g IndexedFaceSet__6_0

s off
f 41/35/24 43/33/24 33/34/24
f 35/38/25 33/34/25 34/37/25
f 41/35/23 33/34/23 35/38/23
f 41/35/19 44/36/19 43/33/19
f 40/41/20 42/39/20 41/35/20
f 41/35/22 35/38/22 39/44/22
f 36/40/26 37/42/26 35/38/26
f 37/42/21 38/43/21 35/38/21
f 39/44/27 40/41/27 41/35/27
f 35/38/18 38/43/18 39/44/18
# 10 polygons

# Coordinates for object 'IndexedFaceSet #7'
v  201838.093750 445974.468750 73.072746 
v  201840.078125 445975.031250 73.303902 
v  201842.875000 445957.437500 73.074577 
v  201844.859375 445958.000000 73.305725 
# 4 vertices

vt 0.0 0.750000 0.0
vt 0.0 1.000000 0.0
vt 0.999995 0.999999 0.0
vt 1.000000 0.750000 0.0
# 4 texture vertices

vn  -0.107254 -0.030003 0.993779 
# 1 normals

usemtl surface__7

o IndexedFaceSet__7_0
g IndexedFaceSet__7_0

s off
f 45/45/28 47/48/28 48/47/28
f 48/47/28 46/46/28 45/45/28
# 2 polygons

# Coordinates for object 'IndexedFaceSet #8'
v  201840.078125 445975.031250 73.303902 
v  201842.031250 445975.718750 73.253456 
v  201844.859375 445958.000000 73.305725 
v  201846.812500 445958.687500 73.255280 
# 4 vertices

vt 0.0 1.000000 0.0
vt 0.007316 0.750000 0.0
vt 0.992684 1.000000 0.0
vt 1.000000 0.750000 0.0
# 4 texture vertices

vn  0.023464 0.006694 0.999702 
# 1 normals

usemtl surface__7

o IndexedFaceSet__8_0
g IndexedFaceSet__8_0

s off
f 49/51/29 51/49/29 52/50/29
f 52/50/29 50/52/29 49/51/29
# 2 polygons

# Coordinates for object 'IndexedFaceSet #9'
v  201842.031250 445975.718750 73.253456 
v  201843.984375 445976.125000 72.949677 
v  201846.812500 445958.687500 73.255280 
v  201848.765625 445959.093750 72.951508 
# 4 vertices

vt 0.0 0.750000 0.0
vt 0.007309 1.000000 0.0
vt 0.992691 0.750000 0.0
vt 1.000000 1.000000 0.0
# 4 texture vertices

vn  0.145251 0.040883 0.988550 
# 1 normals

usemtl surface__7

o IndexedFaceSet__9_0
g IndexedFaceSet__9_0

s off
f 53/56/30 55/54/30 54/55/30
f 56/53/30 54/55/30 55/54/30
# 2 polygons

# Coordinates for object 'IndexedFaceSet #10'
v  201843.984375 445976.125000 72.949677 
v  201846.125000 445976.750000 72.145035 
v  201848.765625 445959.093750 72.951508 
v  201850.906250 445959.687500 72.146858 
# 4 vertices

vt 0.0 0.750000 0.0
vt 0.0 1.000000 0.0
vt 0.999998 1.000000 0.0
vt 1.000000 0.750000 0.0
# 4 texture vertices

vn  0.326808 0.091679 0.940634 
vn  0.327865 0.092144 0.940220 
# 2 normals

usemtl surface__7

o IndexedFaceSet__10_0
g IndexedFaceSet__10_0

s off
f 57/59/32 59/58/32 60/57/32
f 60/57/31 58/60/31 57/59/31
# 2 polygons

# Coordinates for object 'IndexedFaceSet #11'
v  201846.125000 445976.718750 69.076363 
v  201846.125000 445976.750000 72.145035 
v  201850.906250 445959.687500 69.078194 
v  201850.906250 445959.687500 72.146858 
# 4 vertices

vt 0.0 0.0 0.0
vt 0.000230 0.999984 0.0
vt 0.999788 0.000017 0.0
vt 1.000000 1.000000 0.0
# 4 texture vertices

vn  0.962780 0.270285 0.0 
vn  0.962905 0.269825 -0.002748 
# 2 normals

usemtl surface__8

o IndexedFaceSet__11_0
g IndexedFaceSet__11_0

s off
f 61/62/34 62/64/34 64/63/34
f 64/63/33 63/61/33 61/62/33
# 2 polygons

# Coordinates for object 'IndexedFaceSet #12'
v  201846.125000 445976.718750 69.076363 
v  201847.812500 445977.218750 69.076279 
v  201850.906250 445959.687500 69.078194 
v  201852.593750 445960.187500 69.078110 
# 4 vertices

vt 0.0 0.0 0.0
vt 0.000230 0.999984 0.0
vt 0.999788 0.000017 0.0
vt 1.000000 1.000000 0.0
# 4 texture vertices

vn  0.000017 0.000112 1.0 
# 1 normals

usemtl surface__8

o IndexedFaceSet__12_0
g IndexedFaceSet__12_0

s off
f 65/68/35 67/67/35 68/65/35
f 68/65/35 66/66/35 65/68/35
# 2 polygons

# Coordinates for object 'IndexedFaceSet #13'
v  201847.812500 445977.187500 -1.150792 
v  201847.812500 445977.218750 69.076279 
v  201852.593750 445960.156250 -1.148959 
v  201852.593750 445960.187500 69.078110 
# 4 vertices

vt 0.0 0.0 0.0
vt 0.0 0.999287 0.0
vt 0.999990 0.000739 0.0
vt 1.000000 1.000000 0.0
# 4 texture vertices

vn  0.962780 0.270285 -0.000120 
# 1 normals

usemtl surface__9

o IndexedFaceSet__13_0
g IndexedFaceSet__13_0

s off
f 70/72/36 72/71/36 69/70/36
f 71/69/36 69/70/36 72/71/36
# 2 polygons

# Coordinates for object 'IndexedFaceSet #14'
v  201834.375000 445973.437500 -1.150108 
v  201834.375000 445973.437500 70.013176 
v  201839.156250 445956.406250 -1.148277 
v  201839.156250 445956.406250 70.015007 
# 4 vertices

vt 0.0 0.0 0.0
vt 0.0 0.999287 0.0
vt 0.999990 0.000739 0.0
vt 1.000000 1.000000 0.0
# 4 texture vertices

vn  -0.962780 -0.270285 0.0 
# 1 normals

usemtl surface__9

o IndexedFaceSet__14_0
g IndexedFaceSet__14_0

s off
f 73/74/37 75/73/37 76/75/37
f 76/75/37 74/76/37 73/74/37
# 2 polygons

# Coordinates for object 'IndexedFaceSet #15'
v  201834.375000 445973.437500 70.013176 
v  201836.062500 445973.906250 70.013084 
v  201839.156250 445956.406250 70.015007 
v  201840.828125 445956.875000 70.014915 
# 4 vertices

vt 0.0 0.0 0.0
vt 0.000230 0.999984 0.0
vt 0.999788 0.000017 0.0
vt 1.000000 1.000000 0.0
# 4 texture vertices

vn  0.000023 0.000114 1.0 
# 1 normals

usemtl surface__8

o IndexedFaceSet__15_0
g IndexedFaceSet__15_0

s off
f 77/80/38 79/79/38 80/77/38
f 80/77/38 78/78/38 77/80/38
# 2 polygons

# Coordinates for object 'IndexedFaceSet #16'
v  201836.062500 445973.906250 70.013084 
v  201836.062500 445973.906250 72.535736 
v  201840.828125 445956.875000 70.014915 
v  201840.828125 445956.875000 72.537567 
# 4 vertices

vt 0.0 0.0 0.0
vt 0.000298 0.999985 0.0
vt 0.999721 0.000016 0.0
vt 1.000000 1.000000 0.0
# 4 texture vertices

vn  -0.963010 -0.269466 0.0 
# 1 normals

usemtl surface__10

o IndexedFaceSet__16_0
g IndexedFaceSet__16_0

s off
f 81/82/39 83/81/39 84/83/39
f 84/83/39 82/84/39 81/82/39
# 2 polygons

# Coordinates for object 'IndexedFaceSet #17'
v  201836.062500 445973.906250 72.535736 
v  201838.093750 445974.468750 73.072746 
v  201840.828125 445956.875000 72.537567 
v  201842.875000 445957.437500 73.074577 
# 4 vertices

vt 0.0 0.750000 0.0
vt 0.0 1.000000 0.0
vt 0.999977 0.750000 0.0
vt 1.000000 1.000000 0.0
# 4 texture vertices

vn  -0.237792 -0.066434 0.969041 
vn  -0.236153 -0.066192 0.969459 
# 2 normals

usemtl surface__7

o IndexedFaceSet__17_0
g IndexedFaceSet__17_0

s off
f 85/85/40 87/87/40 86/86/40
f 88/88/41 86/86/41 87/87/41
# 2 polygons

# Coordinates for object 'IndexedFaceSet #18'
v  201844.187500 445941.437500 58.826458 
v  201846.140625 445941.500000 58.826401 
v  201848.218750 445941.750000 58.826275 
v  201850.312500 445942.093750 58.826210 
v  201852.437500 445942.750000 58.825989 
v  201854.609375 445943.656250 58.825901 
v  201856.718750 445945.031250 58.825802 
# 7 vertices

vt 0.0 0.0 0.0
# 1 texture vertices

vn  -0.000052 0.000506 1.000000 
vn  0.000018 0.000354 1.000000 
vn  0.000029 0.000028 1.0 
vn  0.000043 0.000033 1.0 
vn  0.000087 -0.000082 1.0 
# 5 normals

usemtl surface__11

o IndexedFaceSet__18_0
g IndexedFaceSet__18_0

s off
f 89/89/43 90/89/43 91/89/43
f 89/89/45 91/89/45 95/89/45
f 93/89/46 95/89/46 91/89/46
f 94/89/44 95/89/44 93/89/44
f 93/89/42 91/89/42 92/89/42
# 5 polygons

# Coordinates for object 'IndexedFaceSet #19'
v  201844.187500 445941.437500 -0.511679 
v  201844.187500 445941.437500 58.826458 
v  201846.140625 445941.500000 -0.511739 
v  201846.140625 445941.500000 58.826401 
# 4 vertices

vt 0.0 0.0 0.0
vt 0.000019 0.998810 0.0
vt 0.999967 0.001376 0.0
vt 1.000000 1.000000 0.0
# 4 texture vertices

vn  0.031984 -0.999488 0.0 
# 1 normals

usemtl surface__12

o IndexedFaceSet__19_0
g IndexedFaceSet__19_0

s off
f 96/91/47 98/90/47 99/92/47
f 99/92/47 97/93/47 96/91/47
# 2 polygons

# Coordinates for object 'IndexedFaceSet #20'
v  201846.140625 445941.500000 -0.511739 
v  201846.140625 445941.500000 58.826401 
v  201848.218750 445941.718750 -0.511843 
v  201848.218750 445941.750000 58.826275 
# 4 vertices

vt 0.0 0.996543 0.0
vt 0.0 0.0 0.0
vt 0.999981 0.003573 0.0
vt 1.000000 1.000000 0.0
# 4 texture vertices

vn  0.104685 -0.994505 0.000524 
vn  0.119440 -0.992841 0.0 
# 2 normals

usemtl surface__13

o IndexedFaceSet__20_0
g IndexedFaceSet__20_0

s off
f 100/94/48 102/95/48 103/96/48
f 103/96/49 101/97/49 100/94/49
# 2 polygons

# Coordinates for object 'IndexedFaceSet #21'
v  201848.218750 445941.718750 -0.511843 
v  201848.218750 445941.750000 58.826275 
v  201850.312500 445942.062500 -0.511929 
v  201850.312500 445942.093750 58.826210 
# 4 vertices

vt 0.0 0.0 0.0
vt 0.000013 0.998085 0.0
vt 0.999975 0.002016 0.0
vt 1.000000 1.000000 0.0
# 4 texture vertices

vn  0.162010 -0.986789 0.000520 
# 1 normals

usemtl surface__14

o IndexedFaceSet__21_0
g IndexedFaceSet__21_0

s off
f 104/99/50 106/98/50 107/100/50
f 107/100/50 105/101/50 104/99/50
# 2 polygons

# Coordinates for object 'IndexedFaceSet #22'
v  201850.312500 445942.062500 -0.511929 
v  201850.312500 445942.093750 58.826210 
v  201852.437500 445942.750000 -0.512116 
v  201852.437500 445942.750000 58.825989 
# 4 vertices

vt 0.0 0.0 0.0
vt 0.000015 0.999291 0.0
vt 0.999975 0.000779 0.0
vt 1.000000 1.000000 0.0
# 4 texture vertices

vn  0.295073 -0.955475 0.000503 
vn  0.307820 -0.951445 0.0 
# 2 normals

usemtl surface__15

o IndexedFaceSet__22_0
g IndexedFaceSet__22_0

s off
f 108/103/52 110/102/52 111/104/52
f 111/104/51 109/105/51 108/103/51
# 2 polygons

# Coordinates for object 'IndexedFaceSet #23'
v  201852.437500 445942.750000 -0.512116 
v  201852.437500 445942.750000 58.825989 
v  201854.609375 445943.656250 -0.512231 
v  201854.609375 445943.656250 58.825901 
# 4 vertices

vt 0.0 1.000000 0.0
vt 0.000070 0.000020 0.0
vt 0.999927 0.999970 0.0
vt 1.000000 0.0 0.0
# 4 texture vertices

vn  0.385087 -0.922880 0.0 
# 1 normals

usemtl surface__16

o IndexedFaceSet__23_0
g IndexedFaceSet__23_0

s off
f 112/107/53 114/109/53 113/106/53
f 115/108/53 113/106/53 114/109/53
# 2 polygons

# Coordinates for object 'IndexedFaceSet #24'
v  201854.609375 445943.656250 -0.512231 
v  201854.609375 445943.656250 58.825901 
v  201856.718750 445945.031250 -0.512329 
v  201856.718750 445945.031250 58.825802 
# 4 vertices

vt 0.0 0.0 0.0
vt 0.0 0.998861 0.0
vt 1.000000 0.001015 0.0
vt 1.000000 1.000000 0.0
# 4 texture vertices

vn  0.546079 -0.837734 0.0 
# 1 normals

usemtl surface__17

o IndexedFaceSet__24_0
g IndexedFaceSet__24_0

s off
f 116/112/54 118/113/54 117/110/54
f 119/111/54 117/110/54 118/113/54
# 2 polygons

# Coordinates for object 'IndexedFaceSet #25'
v  201844.187500 445941.437500 -0.511679 
v  201844.187500 445941.437500 58.826458 
v  201856.718750 445945.031250 -0.512329 
v  201856.718750 445945.031250 58.825802 
# 4 vertices

vt 0.0 0.999104 0.0
vt 0.000053 0.0 0.0
vt 0.999914 0.000701 0.0
vt 1.000000 1.000000 0.0
# 4 texture vertices

vn  -0.275671 0.961252 0.0 
# 1 normals

usemtl surface__18

o IndexedFaceSet__25_0
g IndexedFaceSet__25_0

s off
f 122/114/55 120/115/55 121/116/55
f 121/116/55 123/117/55 122/114/55
# 2 polygons
