# Converted by Daum Communications 
# Date/time of export: 08/22/2013 14:53:47
#
# Bounding box of geometry = (201811,446070,-2.61832) to (201835,446091,27.5712).

mtllib 4593374.mtl

# Coordinates for object 'IndexedFaceSet'
v  201811.218750 446086.218750 -2.618320 
v  201811.234375 446086.187500 27.571169 
v  201814.734375 446070.437500 -2.618315 
v  201814.734375 446070.437500 27.571175 
# 4 vertices

vt 0.0 0.998530 0.0
vt 0.000466 0.000106 0.0
vt 0.999536 1.000000 0.0
vt 1.000000 0.0 0.0
# 4 texture vertices

vn  -0.976187 -0.216930 0.0 
vn  -0.976073 -0.217442 0.000280 
# 2 normals

usemtl surface

o IndexedFaceSet
g IndexedFaceSet

s off
f 4/1/1 2/2/1 3/3/1
f 1/4/2 3/3/2 2/2/2
# 2 polygons

# Coordinates for object 'IndexedFaceSet #1'
v  201831.218750 446090.625000 27.571184 
v  201831.218750 446090.656250 -2.618303 
v  201834.718750 446074.875000 -2.618299 
v  201834.718750 446074.875000 27.571190 
# 4 vertices

vt 0.0 0.998530 0.0
vt 0.000466 0.000106 0.0
vt 0.999536 1.000000 0.0
vt 1.000000 0.0 0.0
# 4 texture vertices

vn  0.976187 0.216930 0.0 
vn  0.976278 0.216521 0.000224 
# 2 normals

usemtl surface

o IndexedFaceSet__1_0
g IndexedFaceSet__1_0

s off
f 7/7/4 6/8/4 5/6/4
f 5/6/3 8/5/3 7/7/3
# 2 polygons

# Coordinates for object 'IndexedFaceSet #2'
v  201814.734375 446070.437500 -2.618315 
v  201814.734375 446070.437500 27.571175 
v  201834.718750 446074.875000 -2.618299 
v  201834.718750 446074.875000 27.571190 
# 4 vertices

vt 0.0 0.0 0.0
vt 0.000410 0.999300 0.0
vt 0.999393 0.000061 0.0
vt 1.000000 1.000000 0.0
# 4 texture vertices

vn  0.216769 -0.976223 0.0 
# 1 normals

usemtl surface__2

o IndexedFaceSet__2_0
g IndexedFaceSet__2_0

s off
f 12/12/5 10/10/5 11/11/5
f 9/9/5 11/11/5 10/10/5
# 2 polygons

# Coordinates for object 'IndexedFaceSet #3'
v  201811.234375 446086.187500 27.571169 
v  201814.734375 446070.437500 27.571175 
v  201831.218750 446090.625000 27.571184 
v  201834.718750 446074.875000 27.571190 
# 4 vertices

vt 0.0 0.0 0.0
vt 0.0 1.000000 0.0
vt 1.000000 0.0 0.0
vt 1.000000 1.000000 0.0
# 4 texture vertices

vn  0.0 0.0 1.0 
# 1 normals

usemtl surface__3

o IndexedFaceSet__3_0
g IndexedFaceSet__3_0

s off
f 16/16/6 15/14/6 13/13/6
f 13/13/6 14/15/6 16/16/6
# 2 polygons

# Coordinates for object 'IndexedFaceSet #4'
v  201811.218750 446086.218750 -2.618320 
v  201811.234375 446086.187500 27.571169 
v  201831.218750 446090.625000 27.571184 
v  201831.218750 446090.656250 -2.618303 
# 4 vertices

vt 0.0 0.0 0.0
vt 0.000410 0.999300 0.0
vt 0.999393 0.000061 0.0
vt 1.000000 1.000000 0.0
# 4 texture vertices

vn  -0.216769 0.976222 0.001011 
vn  -0.216607 0.976258 0.001123 
# 2 normals

usemtl surface__2

o IndexedFaceSet__4_0
g IndexedFaceSet__4_0

s off
f 18/18/7 19/20/7 20/19/7
f 20/19/8 17/17/8 18/18/8
# 2 polygons
