# Converted by Daum Communications 
# Date/time of export: 08/22/2013 14:53:49
#
# Bounding box of geometry = (202225,444718,-0.571193) to (202242,444735,20.5069).

mtllib 4612998.mtl

# Coordinates for object 'IndexedFaceSet'
v  202237.421875 444734.968750 14.085870 
v  202237.578125 444734.781250 -0.490372 
v  202241.906250 444723.156250 14.288833 
v  202242.078125 444722.968750 -0.287367 
# 4 vertices

vt 0.0 0.999959 0.0
vt 0.000162 0.000172 0.0
vt 0.999847 1.000000 0.0
vt 1.000000 0.0 0.0
# 4 texture vertices

vn  0.934432 0.356085 0.006438 
vn  0.934853 0.354992 0.005455 
# 2 normals

usemtl surface

o IndexedFaceSet
g IndexedFaceSet

s off
f 1/1/2 3/2/2 2/3/2
f 4/4/1 2/3/1 3/2/1
# 2 polygons

# Coordinates for object 'IndexedFaceSet #1'
v  202224.921875 444730.218750 14.005047 
v  202225.093750 444730.031250 -0.571193 
v  202229.421875 444718.406250 14.208011 
v  202229.578125 444718.218750 -0.368188 
# 4 vertices

vt 0.0 0.999959 0.0
vt 0.000162 0.000172 0.0
vt 0.999847 1.000000 0.0
vt 1.000000 0.0 0.0
# 4 texture vertices

vn  -0.934853 -0.354992 -0.005455 
vn  -0.934432 -0.356085 -0.006438 
# 2 normals

usemtl surface

o IndexedFaceSet__1_0
g IndexedFaceSet__1_0

s off
f 6/7/3 8/8/3 7/6/3
f 7/6/4 5/5/4 6/7/4
# 2 polygons

# Coordinates for object 'IndexedFaceSet #2'
v  202237.890625 444732.000000 13.473131 
v  202237.890625 444732.000000 20.506887 
v  202238.109375 444722.437500 13.473132 
v  202238.109375 444722.437500 20.506889 
# 4 vertices

vt 0.0 0.000141 0.0
vt 0.000230 1.000000 0.0
vt 0.999988 0.0 0.0
vt 1.000000 0.999851 0.0
# 4 texture vertices

vn  0.999738 0.022870 0.0 
# 1 normals

usemtl surface__2

o IndexedFaceSet__2_0
g IndexedFaceSet__2_0

s off
f 10/12/5 12/10/5 9/11/5
f 11/9/5 9/11/5 12/10/5
# 2 polygons

# Coordinates for object 'IndexedFaceSet #3'
v  202224.921875 444730.218750 14.005047 
v  202225.093750 444730.031250 -0.571193 
v  202237.421875 444734.968750 14.085870 
v  202237.578125 444734.781250 -0.490372 
# 4 vertices

vt 0.0 0.000075 0.0
vt 0.000636 1.000000 0.0
vt 0.999294 0.0 0.0
vt 1.000000 0.999938 0.0
# 4 texture vertices

vn  -0.355472 0.934553 -0.015832 
vn  -0.355080 0.934696 -0.016210 
# 2 normals

usemtl surface__3

o IndexedFaceSet__3_0
g IndexedFaceSet__3_0

s off
f 13/13/7 15/14/7 14/15/7
f 16/16/6 14/15/6 15/14/6
# 2 polygons

# Coordinates for object 'IndexedFaceSet #4'
v  202224.921875 444730.218750 14.005047 
v  202229.421875 444718.406250 14.208011 
v  202237.421875 444734.968750 14.085870 
v  202241.906250 444723.156250 14.288833 
# 4 vertices

vt 0.0 0.0 0.0
vt 0.0 1.000000 0.0
vt 0.999998 0.0 0.0
vt 1.000000 0.999998 0.0
# 4 texture vertices

vn  -0.011362 0.012851 0.999853 
vn  -0.011355 0.012869 0.999853 
# 2 normals

usemtl surface__4

o IndexedFaceSet__4_0
g IndexedFaceSet__4_0

s off
f 17/19/8 18/20/8 20/18/8
f 20/18/9 19/17/9 17/19/9
# 2 polygons

# Coordinates for object 'IndexedFaceSet #5'
v  202229.421875 444718.406250 14.208011 
v  202229.578125 444718.218750 -0.368188 
v  202241.906250 444723.156250 14.288833 
v  202242.078125 444722.968750 -0.287367 
# 4 vertices

vt 0.0 0.000055 0.0
vt 0.000617 1.000000 0.0
vt 0.999317 0.0 0.0
vt 1.000000 0.999923 0.0
# 4 texture vertices

vn  0.355080 -0.934696 0.016210 
vn  0.355472 -0.934553 0.015832 
# 2 normals

usemtl surface__5

o IndexedFaceSet__5_0
g IndexedFaceSet__5_0

s off
f 23/22/11 21/21/11 22/23/11
f 22/23/10 24/24/10 23/22/10
# 2 polygons

# Coordinates for object 'IndexedFaceSet #6'
v  202236.453125 444731.968750 13.473131 
v  202236.453125 444731.968750 20.506889 
v  202236.671875 444722.406250 13.473134 
v  202236.671875 444722.406250 20.506893 
# 4 vertices

vt 0.0 0.000141 0.0
vt 0.000230 1.000000 0.0
vt 0.999988 0.0 0.0
vt 1.000000 0.999851 0.0
# 4 texture vertices

vn  -0.999738 -0.022870 0.0 
# 1 normals

usemtl surface__2

o IndexedFaceSet__6_0
g IndexedFaceSet__6_0

s off
f 26/28/12 25/27/12 28/26/12
f 27/25/12 28/26/12 25/27/12
# 2 polygons

# Coordinates for object 'IndexedFaceSet #7'
v  202236.453125 444731.968750 13.473131 
v  202236.453125 444731.968750 20.506889 
v  202237.890625 444732.000000 13.473131 
v  202237.890625 444732.000000 20.506887 
# 4 vertices

vt 0.0 1.000000 0.0
vt 0.000160 0.000141 0.0
vt 0.999849 0.999835 0.0
vt 1.000000 0.0 0.0
# 4 texture vertices

vn  -0.021734 0.999764 0.0 
# 1 normals

usemtl surface__6

o IndexedFaceSet__7_0
g IndexedFaceSet__7_0

s off
f 30/29/13 32/30/13 31/32/13
f 31/32/13 29/31/13 30/29/13
# 2 polygons

# Coordinates for object 'IndexedFaceSet #8'
v  202236.453125 444731.968750 20.506889 
v  202236.671875 444722.406250 20.506893 
v  202237.890625 444732.000000 20.506887 
v  202238.109375 444722.437500 20.506889 
# 4 vertices

vt 0.0 0.0 0.0
vt 0.0 1.000000 0.0
vt 1.000000 0.0 0.0
vt 1.000000 1.000000 0.0
# 4 texture vertices

vn  0.000003 0.0 1.0 
# 1 normals

usemtl surface__7

o IndexedFaceSet__8_0
g IndexedFaceSet__8_0

s off
f 34/34/14 36/33/14 35/35/14
f 35/35/14 33/36/14 34/34/14
# 2 polygons

# Coordinates for object 'IndexedFaceSet #9'
v  202236.671875 444722.406250 13.473134 
v  202236.671875 444722.406250 20.506893 
v  202238.109375 444722.437500 13.473132 
v  202238.109375 444722.437500 20.506889 
# 4 vertices

vt 0.0 0.000729 0.0
vt 0.000043 1.000000 0.0
vt 0.999906 0.0 0.0
vt 1.000000 0.999691 0.0
# 4 texture vertices

vn  0.021734 -0.999764 0.0 
# 1 normals

usemtl surface__8

o IndexedFaceSet__9_0
g IndexedFaceSet__9_0

s off
f 40/38/15 38/37/15 37/39/15
f 37/39/15 39/40/15 40/38/15
# 2 polygons
