# Converted by Daum Communications 
# Date/time of export: 08/22/2013 14:53:49
#
# Bounding box of geometry = (202224,444685,-1.10412) to (202252,444711,63.0969).

mtllib 4612994.mtl

# Coordinates for object 'IndexedFaceSet'
v  202246.187500 444710.500000 -1.104116 
v  202246.218750 444710.406250 63.096924 
v  202252.234375 444693.468750 -1.104118 
v  202252.296875 444693.312500 63.096912 
# 4 vertices

vt 0.0 0.000314 0.0
vt 0.000786 1.000000 0.0
vt 0.999224 0.0 0.0
vt 1.000000 0.994701 0.0
# 4 texture vertices

vn  0.942209 0.335027 -0.000102 
vn  0.942366 0.334583 0.000030 
# 2 normals

usemtl surface

o IndexedFaceSet
g IndexedFaceSet

s off
f 2/2/1 4/1/1 3/3/1
f 3/3/2 1/4/2 2/2/2
# 2 polygons

# Coordinates for object 'IndexedFaceSet #1'
v  202224.156250 444702.656250 -1.104119 
v  202224.187500 444702.562500 63.096920 
v  202230.203125 444685.656250 -1.104121 
v  202230.265625 444685.468750 63.096912 
# 4 vertices

vt 0.0 0.000314 0.0
vt 0.000786 1.000000 0.0
vt 0.999224 0.0 0.0
vt 1.000000 0.994701 0.0
# 4 texture vertices

vn  -0.942209 -0.335027 -0.000061 
vn  -0.942172 -0.335129 -0.000031 
# 2 normals

usemtl surface

o IndexedFaceSet__1_0
g IndexedFaceSet__1_0

s off
f 5/8/4 7/7/4 6/6/4
f 8/5/3 6/6/3 7/7/3
# 2 polygons

# Coordinates for object 'IndexedFaceSet #2'
v  202224.156250 444702.656250 -1.104119 
v  202224.187500 444702.562500 63.096920 
v  202246.187500 444710.500000 -1.104116 
v  202246.218750 444710.406250 63.096924 
# 4 vertices

vt 0.0 1.000000 0.0
vt 0.000549 0.000465 0.0
vt 0.999984 0.999262 0.0
vt 1.000000 0.0 0.0
# 4 texture vertices

vn  -0.335405 0.942073 0.001539 
# 1 normals

usemtl surface__2

o IndexedFaceSet__2_0
g IndexedFaceSet__2_0

s off
f 10/9/5 12/10/5 11/12/5
f 11/12/5 9/11/5 10/9/5
# 2 polygons

# Coordinates for object 'IndexedFaceSet #3'
v  202224.187500 444702.562500 63.096920 
v  202230.265625 444685.468750 63.096912 
v  202246.218750 444710.406250 63.096924 
v  202252.296875 444693.312500 63.096912 
# 4 vertices

vt 0.0 0.0 0.0
vt 0.0 1.000000 0.0
vt 1.000000 0.0 0.0
vt 1.000000 1.000000 0.0
# 4 texture vertices

vn  0.0 0.0 1.0 
# 1 normals

usemtl surface__3

o IndexedFaceSet__3_0
g IndexedFaceSet__3_0

s off
f 13/16/6 14/14/6 16/13/6
f 16/13/6 15/15/6 13/16/6
# 2 polygons

# Coordinates for object 'IndexedFaceSet #4'
v  202230.203125 444685.656250 -1.104121 
v  202230.265625 444685.468750 63.096912 
v  202252.234375 444693.468750 -1.104118 
v  202252.296875 444693.312500 63.096912 
# 4 vertices

vt 0.0 1.000000 0.0
vt 0.000549 0.000465 0.0
vt 0.999984 0.999262 0.0
vt 1.000000 0.0 0.0
# 4 texture vertices

vn  0.334217 -0.942491 -0.003078 
vn  0.335404 -0.942071 -0.002619 
# 2 normals

usemtl surface__2

o IndexedFaceSet__4_0
g IndexedFaceSet__4_0

s off
f 20/18/8 18/17/8 19/20/8
f 17/19/7 19/20/7 18/17/7
# 2 polygons

# Coordinates for object 'IndexedFaceSet #5'
v  202247.218750 444707.562500 60.633118 
v  202247.234375 444707.562500 57.506783 
v  202247.765625 444707.750000 57.506786 
v  202247.765625 444707.750000 60.633125 
# 4 vertices

vt 0.0 1.000000 0.0
vt 0.000191 0.000194 0.0
vt 0.999415 0.989254 0.0
vt 1.000000 0.0 0.0
# 4 texture vertices

vn  -0.332820 0.942990 0.0 
vn  -0.324324 0.945945 -0.001621 
# 2 normals

usemtl surface__4

o IndexedFaceSet__5_0
g IndexedFaceSet__5_0

s off
f 21/21/10 24/22/10 22/23/10
f 23/24/9 22/23/9 24/22/9
# 2 polygons

# Coordinates for object 'IndexedFaceSet #6'
v  202251.312500 444696.062500 57.506783 
v  202251.312500 444696.062500 60.633118 
v  202251.843750 444696.250000 57.506775 
v  202251.843750 444696.250000 60.633118 
# 4 vertices

vt 0.0 1.000000 0.0
vt 0.000052 0.0 0.0
vt 0.999989 0.999234 0.0
vt 1.000000 0.011878 0.0
# 4 texture vertices

vn  0.332820 -0.942990 0.0 
# 1 normals

usemtl surface__5

o IndexedFaceSet__6_0
g IndexedFaceSet__6_0

s off
f 28/25/11 26/26/11 25/28/11
f 25/28/11 27/27/11 28/25/11
# 2 polygons

# Coordinates for object 'IndexedFaceSet #7'
v  202247.218750 444707.562500 60.633118 
v  202247.765625 444707.750000 60.633125 
v  202251.312500 444696.062500 60.633118 
v  202251.843750 444696.250000 60.633118 
# 4 vertices

vt 0.0 0.000037 0.0
vt 0.000032 1.000000 0.0
vt 0.999967 0.0 0.0
vt 1.000000 0.999965 0.0
# 4 texture vertices

vn  -0.000012 -0.000004 1.0 
vn  0.0 0.0 1.0 
# 2 normals

usemtl surface__6

o IndexedFaceSet__7_0
g IndexedFaceSet__7_0

s off
f 29/31/12 31/29/12 30/32/12
f 32/30/13 30/32/13 31/29/13
# 2 polygons

# Coordinates for object 'IndexedFaceSet #8'
v  202247.765625 444707.750000 57.506786 
v  202247.765625 444707.750000 60.633125 
v  202251.843750 444696.250000 57.506775 
v  202251.843750 444696.250000 60.633118 
# 4 vertices

vt 0.0 0.000034 0.0
vt 0.000030 1.000000 0.0
vt 0.999968 0.0 0.0
vt 1.000000 0.999965 0.0
# 4 texture vertices

vn  0.942493 0.334226 0.0 
# 1 normals

usemtl surface__7

o IndexedFaceSet__8_0
g IndexedFaceSet__8_0

s off
f 34/36/14 36/34/14 33/35/14
f 35/33/14 33/35/14 36/34/14
# 2 polygons

# Coordinates for object 'IndexedFaceSet #9'
v  202247.234375 444707.562500 57.506783 
v  202247.765625 444707.750000 57.506786 
v  202251.312500 444696.062500 57.506783 
v  202251.843750 444696.250000 57.506775 
# 4 vertices

vt 0.0 1.000000 0.0
vt 0.0 0.000180 0.0
vt 0.999987 0.999837 0.0
vt 1.000000 0.0 0.0
# 4 texture vertices

vn  -0.000013 -0.000005 -1.0 
vn  0.000006 0.000003 -1.0 
# 2 normals

usemtl surface__8

o IndexedFaceSet__9_0
g IndexedFaceSet__9_0

s off
f 38/38/16 40/40/16 37/37/16
f 39/39/15 37/37/15 40/40/15
# 2 polygons

# Coordinates for object 'IndexedFaceSet #10'
v  202240.843750 444709.250000 58.333992 
v  202240.843750 444709.250000 61.033268 
v  202241.078125 444708.593750 58.341015 
v  202241.078125 444708.593750 61.033268 
# 4 vertices

vt 0.0 0.964235 0.0
vt 0.002702 0.0 0.0
vt 0.999965 0.035560 0.0
vt 1.000000 1.000000 0.0
# 4 texture vertices

vn  0.941742 0.336336 0.0 
# 1 normals

usemtl surface__9

o IndexedFaceSet__10_0
g IndexedFaceSet__10_0

s off
f 42/41/17 44/42/17 43/43/17
f 43/43/17 41/44/17 42/41/17
# 2 polygons

# Coordinates for object 'IndexedFaceSet #11'
v  202228.796875 444704.968750 58.333992 
v  202228.796875 444704.968750 61.033268 
v  202229.031250 444704.312500 58.341015 
v  202229.031250 444704.312500 61.033268 
# 4 vertices

vt 0.0 0.964235 0.0
vt 0.002702 0.0 0.0
vt 0.999965 0.035560 0.0
vt 1.000000 1.000000 0.0
# 4 texture vertices

vn  -0.941742 -0.336336 0.0 
# 1 normals

usemtl surface__9

o IndexedFaceSet__11_0
g IndexedFaceSet__11_0

s off
f 45/48/18 47/47/18 46/45/18
f 48/46/18 46/45/18 47/47/18
# 2 polygons

# Coordinates for object 'IndexedFaceSet #12'
v  202228.796875 444704.968750 58.333992 
v  202228.796875 444704.968750 61.033268 
v  202240.843750 444709.250000 58.333992 
v  202240.843750 444709.250000 61.033268 
# 4 vertices

vt 0.0 0.0 0.0
vt 0.000018 0.993908 0.0
vt 0.999981 0.005845 0.0
vt 1.000000 1.000000 0.0
# 4 texture vertices

vn  -0.334865 0.942266 0.0 
# 1 normals

usemtl surface__10

o IndexedFaceSet__12_0
g IndexedFaceSet__12_0

s off
f 52/50/19 51/49/19 50/52/19
f 49/51/19 50/52/19 51/49/19
# 2 polygons

# Coordinates for object 'IndexedFaceSet #13'
v  202228.796875 444704.968750 61.033268 
v  202229.031250 444704.312500 61.033268 
v  202240.843750 444709.250000 61.033268 
v  202241.078125 444708.593750 61.033268 
# 4 vertices

vt 0.0 0.0 0.0
vt 0.000042 0.997824 0.0
vt 0.999965 0.001982 0.0
vt 1.000000 1.000000 0.0
# 4 texture vertices

vn  0.0 0.0 1.0 
# 1 normals

usemtl surface__11

o IndexedFaceSet__13_0
g IndexedFaceSet__13_0

s off
f 53/55/20 54/53/20 55/56/20
f 56/54/20 55/56/20 54/53/20
# 2 polygons

# Coordinates for object 'IndexedFaceSet #14'
v  202228.796875 444704.968750 58.333992 
v  202229.031250 444704.312500 58.341015 
v  202240.843750 444709.250000 58.333992 
v  202241.078125 444708.593750 58.341015 
# 4 vertices

vt 0.0 0.0 0.0
vt 0.0 0.997019 0.0
vt 1.000000 0.002838 0.0
vt 1.000000 1.000000 0.0
# 4 texture vertices

vn  0.003375 -0.009496 -0.999949 
# 1 normals

usemtl surface__12

o IndexedFaceSet__14_0
g IndexedFaceSet__14_0

s off
f 59/59/21 60/60/21 58/58/21
f 58/58/21 57/57/21 59/59/21
# 2 polygons
