# Converted by Daum Communications 
# Date/time of export: 08/22/2013 14:53:51
#
# Bounding box of geometry = (201723,446143,-1.05085) to (201736,446164,16.0691).

mtllib 4623323.mtl

# Coordinates for object 'IndexedFaceSet'
v  201732.171875 446164.406250 -1.050845 
v  201732.171875 446164.406250 14.001307 
v  201736.453125 446146.281250 -1.050845 
v  201736.453125 446146.281250 14.001308 
# 4 vertices

vt 0.0 0.0 0.0
vt 0.000305 1.000000 0.0
vt 0.999900 0.0 0.0
vt 1.000000 0.999996 0.0
# 4 texture vertices

vn  0.973219 0.229881 0.0 
# 1 normals

usemtl surface

o IndexedFaceSet
g IndexedFaceSet

s off
f 2/4/1 4/2/1 1/3/1
f 3/1/1 1/3/1 4/2/1
# 2 polygons

# Coordinates for object 'IndexedFaceSet #1'
v  201722.625000 446162.156250 -1.050845 
v  201722.625000 446162.156250 14.001307 
v  201726.906250 446144.000000 -1.050845 
v  201726.906250 446144.000000 14.001307 
# 4 vertices

vt 0.0 0.0 0.0
vt 0.000305 1.000000 0.0
vt 0.999900 0.0 0.0
vt 1.000000 0.999996 0.0
# 4 texture vertices

vn  -0.973307 -0.229506 0.0 
# 1 normals

usemtl surface

o IndexedFaceSet__1_0
g IndexedFaceSet__1_0

s off
f 5/7/2 7/5/2 8/6/2
f 8/6/2 6/8/2 5/7/2
# 2 polygons

# Coordinates for object 'IndexedFaceSet #2'
v  201722.984375 446148.312500 14.001307 
v  201724.156250 446143.343750 14.001307 
v  201725.765625 446148.968750 14.001304 
v  201726.906250 446144.000000 14.001307 
# 4 vertices

vt 0.0 0.992666 0.0
vt 0.002280 0.0 0.0
vt 0.997703 1.000000 0.0
vt 1.000000 0.0 0.0
# 4 texture vertices

vn  0.0 0.0 1.0 
# 1 normals

usemtl surface__2

o IndexedFaceSet__2_0
g IndexedFaceSet__2_0

s off
f 9/11/3 10/9/3 12/10/3
f 12/10/3 11/12/3 9/11/3
# 2 polygons

# Coordinates for object 'IndexedFaceSet #3'
v  201722.625000 446162.156250 -1.050845 
v  201722.625000 446162.156250 14.001307 
v  201732.171875 446164.406250 -1.050845 
v  201732.171875 446164.406250 14.001307 
# 4 vertices

vt 0.0 0.000277 0.0
vt 0.000427 1.000000 0.0
vt 0.999287 0.0 0.0
vt 1.000000 0.999790 0.0
# 4 texture vertices

vn  -0.229394 0.973334 0.0 
# 1 normals

usemtl surface__3

o IndexedFaceSet__3_0
g IndexedFaceSet__3_0

s off
f 14/13/4 16/14/4 13/15/4
f 15/16/4 13/15/4 16/14/4
# 2 polygons

# Coordinates for object 'IndexedFaceSet #4'
v  201722.625000 446162.156250 14.001307 
v  201726.906250 446144.000000 14.001307 
v  201732.171875 446164.406250 14.001307 
v  201736.453125 446146.281250 14.001308 
# 4 vertices

vt 0.0 0.0 0.0
vt 0.0 1.000000 0.0
vt 1.000000 0.0 0.0
vt 1.000000 1.000000 0.0
# 4 texture vertices

vn  0.0 0.0 1.0 
# 1 normals

usemtl surface__2

o IndexedFaceSet__4_0
g IndexedFaceSet__4_0

s off
f 17/20/5 18/18/5 19/19/5
f 20/17/5 19/19/5 18/18/5
# 2 polygons

# Coordinates for object 'IndexedFaceSet #5'
v  201726.906250 446144.000000 -1.050845 
v  201726.906250 446144.000000 14.001307 
v  201736.453125 446146.281250 -1.050845 
v  201736.453125 446146.281250 14.001308 
# 4 vertices

vt 0.0 0.000344 0.0
vt 0.000333 1.000000 0.0
vt 0.999445 0.0 0.0
vt 1.000000 0.999731 0.0
# 4 texture vertices

vn  0.232410 -0.972618 0.0 
# 1 normals

usemtl surface__4

o IndexedFaceSet__5_0
g IndexedFaceSet__5_0

s off
f 24/22/6 22/21/6 23/24/6
f 21/23/6 23/24/6 22/21/6
# 2 polygons

# Coordinates for object 'IndexedFaceSet #6'
v  201722.984375 446148.312500 -0.978109 
v  201724.156250 446143.343750 -0.978108 
v  201725.765625 446148.968750 -0.978114 
v  201726.906250 446144.000000 -0.978110 
# 4 vertices

vt 0.0 0.0 0.0
# 1 texture vertices

vn  -0.000002 -0.000001 -1.0 
# 1 normals

usemtl surface__5

o IndexedFaceSet__6_0
g IndexedFaceSet__6_0

s off
f 27/25/7 28/25/7 25/25/7
f 26/25/7 25/25/7 28/25/7
# 2 polygons

# Coordinates for object 'IndexedFaceSet #7'
v  201722.984375 446148.312500 -0.978109 
v  201722.984375 446148.312500 14.001307 
v  201725.765625 446148.968750 -0.978114 
v  201725.765625 446148.968750 14.001304 
# 4 vertices

vt 0.0 0.000277 0.0
vt 0.000427 1.000000 0.0
vt 0.999287 0.0 0.0
vt 1.000000 0.999790 0.0
# 4 texture vertices

vn  -0.229649 0.973274 0.0 
# 1 normals

usemtl surface__3

o IndexedFaceSet__7_0
g IndexedFaceSet__7_0

s off
f 30/26/8 32/27/8 29/28/8
f 31/29/8 29/28/8 32/27/8
# 2 polygons

# Coordinates for object 'IndexedFaceSet #8'
v  201722.984375 446148.312500 -0.978109 
v  201722.984375 446148.312500 14.001307 
v  201724.156250 446143.343750 -0.978108 
v  201724.156250 446143.343750 14.001307 
# 4 vertices

vt 0.0 0.000277 0.0
vt 0.000427 1.000000 0.0
vt 0.999287 0.0 0.0
vt 1.000000 0.999790 0.0
# 4 texture vertices

vn  -0.973297 -0.229551 0.0 
# 1 normals

usemtl surface__3

o IndexedFaceSet__8_0
g IndexedFaceSet__8_0

s off
f 33/33/9 35/32/9 36/30/9
f 36/30/9 34/31/9 33/33/9
# 2 polygons

# Coordinates for object 'IndexedFaceSet #9'
v  201730.218750 446163.937500 14.001307 
v  201730.218750 446163.937500 16.069120 
v  201730.984375 446160.718750 14.001307 
v  201730.984375 446160.718750 16.069120 
# 4 vertices

vt 0.0 0.0 0.0
vt 0.000096 1.000000 0.0
vt 0.999904 0.0 0.0
vt 1.000000 0.999974 0.0
# 4 texture vertices

vn  0.972857 0.231408 0.0 
# 1 normals

usemtl surface__6

o IndexedFaceSet__9_0
g IndexedFaceSet__9_0

s off
f 38/37/10 40/35/10 37/36/10
f 39/34/10 37/36/10 40/35/10
# 2 polygons

# Coordinates for object 'IndexedFaceSet #10'
v  201724.156250 446143.343750 -0.978108 
v  201724.156250 446143.343750 14.001307 
v  201726.906250 446144.000000 -0.978110 
v  201726.906250 446144.000000 14.001307 
# 4 vertices

vt 0.0 0.001476 0.0
vt 0.000032 1.000000 0.0
vt 0.999883 0.0 0.0
vt 1.000000 0.998500 0.0
# 4 texture vertices

vn  0.232119 -0.972687 0.0 
# 1 normals

usemtl surface__7

o IndexedFaceSet__10_0
g IndexedFaceSet__10_0

s off
f 44/39/11 42/38/11 43/41/11
f 41/40/11 43/41/11 42/38/11
# 2 polygons

# Coordinates for object 'IndexedFaceSet #11'
v  201722.625000 446162.156250 14.001307 
v  201722.625000 446162.156250 16.069118 
v  201723.390625 446158.937500 14.001307 
v  201723.390625 446158.937500 16.069120 
# 4 vertices

vt 0.0 0.0 0.0
vt 0.000096 1.000000 0.0
vt 0.999904 0.0 0.0
vt 1.000000 0.999974 0.0
# 4 texture vertices

vn  -0.972857 -0.231408 0.0 
# 1 normals

usemtl surface__6

o IndexedFaceSet__11_0
g IndexedFaceSet__11_0

s off
f 45/44/12 47/42/12 46/45/12
f 48/43/12 46/45/12 47/42/12
# 2 polygons

# Coordinates for object 'IndexedFaceSet #12'
v  201722.625000 446162.156250 14.001307 
v  201722.625000 446162.156250 16.069118 
v  201730.218750 446163.937500 14.001307 
v  201730.218750 446163.937500 16.069120 
# 4 vertices

vt 0.0 0.000134 0.0
vt 0.000044 1.000000 0.0
vt 0.999953 0.0 0.0
vt 1.000000 0.999990 0.0
# 4 texture vertices

vn  -0.228369 0.973575 0.0 
# 1 normals

usemtl surface__8

o IndexedFaceSet__12_0
g IndexedFaceSet__12_0

s off
f 50/47/13 52/49/13 51/48/13
f 51/48/13 49/46/13 50/47/13
# 2 polygons

# Coordinates for object 'IndexedFaceSet #13'
v  201722.625000 446162.156250 16.069118 
v  201723.390625 446158.937500 16.069120 
v  201730.218750 446163.937500 16.069120 
v  201730.984375 446160.718750 16.069120 
# 4 vertices

vt 0.0 0.0 0.0
vt 0.0 1.000000 0.0
vt 0.999999 0.0 0.0
vt 0.999999 1.000000 0.0
# 4 texture vertices

vn  0.0 0.0 1.0 
# 1 normals

usemtl surface__9

o IndexedFaceSet__13_0
g IndexedFaceSet__13_0

s off
f 53/51/14 54/50/14 56/52/14
f 56/52/14 55/53/14 53/51/14
# 2 polygons

# Coordinates for object 'IndexedFaceSet #14'
v  201723.390625 446158.937500 14.001307 
v  201723.390625 446158.937500 16.069120 
v  201730.984375 446160.718750 14.001307 
v  201730.984375 446160.718750 16.069120 
# 4 vertices

vt 0.0 0.000134 0.0
vt 0.000044 1.000000 0.0
vt 0.999953 0.0 0.0
vt 1.000000 0.999990 0.0
# 4 texture vertices

vn  0.228369 -0.973575 0.0 
# 1 normals

usemtl surface__8

o IndexedFaceSet__14_0
g IndexedFaceSet__14_0

s off
f 60/57/15 58/55/15 59/56/15
f 57/54/15 59/56/15 58/55/15
# 2 polygons
