# Converted by Daum Communications 
# Date/time of export: 08/22/2013 14:53:50
#
# Bounding box of geometry = (201908,445530,-1.07148) to (201934,445558,12.2762).

mtllib 4623294.mtl

# Coordinates for object 'IndexedFaceSet'
v  201925.562500 445557.562500 -1.034369 
v  201925.562500 445557.562500 10.175068 
v  201933.906250 445534.812500 -1.034372 
v  201933.921875 445534.781250 10.175066 
# 4 vertices

vt 0.0 1.000000 0.0
vt 0.000607 0.000013 0.0
vt 0.999972 0.0 0.0
vt 1.000000 0.999984 0.0
# 4 texture vertices

vn  0.938793 0.344482 -0.000348 
vn  0.938848 0.344330 0.0 
# 2 normals

usemtl surface

o IndexedFaceSet
g IndexedFaceSet

s off
f 2/4/1 4/1/1 3/2/1
f 3/2/2 1/3/2 2/4/2
# 2 polygons

# Coordinates for object 'IndexedFaceSet #1'
v  201920.640625 445529.937500 -1.071483 
v  201920.640625 445529.937500 10.175056 
v  201933.906250 445534.812500 -1.034372 
v  201933.921875 445534.781250 10.175066 
# 4 vertices

vt 0.0 0.003367 0.0
vt 0.002922 1.000000 0.0
vt 0.999582 0.0 0.0
vt 1.000000 0.998593 0.0
# 4 texture vertices

vn  0.342629 -0.939466 -0.003097 
vn  0.344937 -0.938626 0.0 
# 2 normals

usemtl surface__2

o IndexedFaceSet__1_0
g IndexedFaceSet__1_0

s off
f 8/6/3 6/5/3 7/8/3
f 5/7/4 7/8/4 6/5/4
# 2 polygons

# Coordinates for object 'IndexedFaceSet #2'
v  201928.921875 445548.750000 -1.034371 
v  201928.921875 445548.750000 7.061624 
v  201934.078125 445534.656250 -1.056315 
v  201934.078125 445534.656250 7.061624 
# 4 vertices

vt 0.0 0.0 0.0
vt 0.000832 1.000000 0.0
vt 0.999794 0.0 0.0
vt 1.000000 0.997291 0.0
# 4 texture vertices

vn  0.939123 0.343582 0.0 
# 1 normals

usemtl surface__3

o IndexedFaceSet__2_0
g IndexedFaceSet__2_0

s off
f 10/12/5 12/10/5 9/11/5
f 11/9/5 9/11/5 12/10/5
# 2 polygons

# Coordinates for object 'IndexedFaceSet #3'
v  201907.578125 445550.968750 -1.062194 
v  201907.578125 445550.968750 11.989120 
v  201912.296875 445552.687500 10.175060 
v  201912.296875 445552.687500 11.989120 
v  201925.562500 445557.562500 -1.034369 
v  201925.562500 445557.562500 10.175068 
# 6 vertices

vt 0.0 0.858355 0.0
vt 0.000828 0.0 0.0
vt 0.736987 0.999302 0.0
vt 0.737078 0.860325 0.0
vt 0.999169 1.000000 0.0
vt 1.000000 0.000207 0.0
# 6 texture vertices

vn  -0.344937 0.938626 0.0 
vn  -0.344232 0.938884 0.000947 
vn  -0.342243 0.939612 0.0 
# 3 normals

usemtl surface__4

o IndexedFaceSet__3_0
g IndexedFaceSet__3_0

s off
f 16/15/8 15/16/8 14/17/8
f 15/16/7 17/14/7 13/18/7
f 17/14/6 15/16/6 18/13/6
f 15/16/8 13/18/8 14/17/8
# 4 polygons

# Coordinates for object 'IndexedFaceSet #4'
v  201912.296875 445552.687500 10.175060 
v  201920.640625 445529.937500 10.175056 
v  201925.562500 445557.562500 10.175068 
v  201933.921875 445534.781250 10.175066 
# 4 vertices

vt 0.0 0.0 0.0
vt 0.0 1.000000 0.0
vt 0.999815 1.000000 0.0
vt 1.000000 0.0 0.0
# 4 texture vertices

vn  0.0 0.0 1.0 
# 1 normals

usemtl surface__5

o IndexedFaceSet__4_0
g IndexedFaceSet__4_0

s off
f 19/19/9 20/22/9 22/21/9
f 22/21/9 21/20/9 19/19/9
# 2 polygons

# Coordinates for object 'IndexedFaceSet #5'
v  201915.734375 445543.312500 -1.071483 
v  201915.734375 445543.312500 10.175057 
v  201920.640625 445529.937500 -1.071483 
v  201920.640625 445529.937500 10.175056 
# 4 vertices

vt 0.0 1.000000 0.0
vt 0.000607 0.000013 0.0
vt 0.999972 0.0 0.0
vt 1.000000 0.999984 0.0
# 4 texture vertices

vn  -0.938829 -0.344384 0.0 
# 1 normals

usemtl surface

o IndexedFaceSet__5_0
g IndexedFaceSet__5_0

s off
f 23/25/10 25/24/10 24/26/10
f 26/23/10 24/26/10 25/24/10
# 2 polygons

# Coordinates for object 'IndexedFaceSet #6'
v  201926.828125 445550.781250 10.130170 
v  201926.828125 445550.781250 12.276239 
v  201927.765625 445548.250000 10.128325 
v  201927.765625 445548.250000 12.276237 
# 4 vertices

vt 0.0 0.0 0.0
vt 0.000631 1.000000 0.0
vt 0.999350 0.0 0.0
vt 1.000000 0.999130 0.0
# 4 texture vertices

vn  0.937749 0.347314 0.0 
# 1 normals

usemtl surface__6

o IndexedFaceSet__6_0
g IndexedFaceSet__6_0

s off
f 28/30/11 30/28/11 27/29/11
f 29/27/11 27/29/11 30/28/11
# 2 polygons

# Coordinates for object 'IndexedFaceSet #7'
v  201928.812500 445548.687500 7.061622 
v  201928.812500 445548.718750 -1.034372 
v  201928.921875 445548.750000 -1.034371 
v  201928.921875 445548.750000 7.061624 
# 4 vertices

vt 0.0 0.999980 0.0
vt 0.008188 0.0 0.0
vt 0.998397 1.000000 0.0
vt 1.000000 0.0 0.0
# 4 texture vertices

vn  -0.496139 0.868243 0.0 
vn  -0.274719 0.961517 0.003711 
# 2 normals

usemtl surface__7

o IndexedFaceSet__7_0
g IndexedFaceSet__7_0

s off
f 31/33/12 34/31/12 33/32/12
f 33/32/13 32/34/13 31/33/13
# 2 polygons

# Coordinates for object 'IndexedFaceSet #8'
v  201933.437500 445534.625000 -1.034374 
v  201933.453125 445534.625000 7.059653 
v  201933.515625 445534.437500 -1.056317 
v  201933.515625 445534.437500 7.061623 
# 4 vertices

vt 0.0 0.826453 0.0
vt 0.002760 1.000000 0.0
vt 0.999993 0.0 0.0
vt 1.000000 0.188818 0.0
# 4 texture vertices

vn  -0.948687 -0.316210 0.001831 
vn  -0.923077 -0.384615 0.0 
# 2 normals

usemtl surface__8

o IndexedFaceSet__8_0
g IndexedFaceSet__8_0

s off
f 35/38/15 37/37/15 38/35/15
f 38/35/14 36/36/14 35/38/14
# 2 polygons

# Coordinates for object 'IndexedFaceSet #9'
v  201928.812500 445548.687500 7.061622 
v  201928.921875 445548.750000 7.061624 
v  201933.984375 445534.625000 7.061622 
v  201934.078125 445534.656250 7.061624 
# 4 vertices

vt 0.0 0.999980 0.0
vt 0.008188 0.0 0.0
vt 0.998397 1.000000 0.0
vt 1.000000 0.0 0.0
# 4 texture vertices

vn  -0.000018 -0.000007 1.0 
# 1 normals

usemtl surface__7

o IndexedFaceSet__9_0
g IndexedFaceSet__9_0

s off
f 41/42/16 42/41/16 39/40/16
f 40/39/16 39/40/16 42/41/16
# 2 polygons

# Coordinates for object 'IndexedFaceSet #10'
v  201933.984375 445534.625000 -1.056317 
v  201933.984375 445534.625000 7.061622 
v  201934.078125 445534.656250 -1.056315 
v  201934.078125 445534.656250 7.061624 
# 4 vertices

vt 0.0 0.001748 0.0
vt 0.0 1.000000 0.0
vt 0.999998 0.995780 0.0
vt 1.000000 0.0 0.0
# 4 texture vertices

vn  0.316228 -0.948683 0.0 
# 1 normals

usemtl surface__9

o IndexedFaceSet__10_0
g IndexedFaceSet__10_0

s off
f 46/44/17 44/43/17 45/45/17
f 43/46/17 45/45/17 44/43/17
# 2 polygons

# Coordinates for object 'IndexedFaceSet #11'
v  201921.171875 445548.718750 10.130174 
v  201921.171875 445548.718750 12.276241 
v  201922.109375 445546.156250 10.128325 
v  201922.109375 445546.156250 12.276239 
# 4 vertices

vt 0.0 0.000015 0.0
vt 0.000568 1.000000 0.0
vt 0.999415 0.0 0.0
vt 1.000000 0.999093 0.0
# 4 texture vertices

vn  -0.939123 -0.343582 0.0 
# 1 normals

usemtl surface__10

o IndexedFaceSet__11_0
g IndexedFaceSet__11_0

s off
f 47/49/18 49/47/18 50/48/18
f 50/48/18 48/50/18 47/49/18
# 2 polygons

# Coordinates for object 'IndexedFaceSet #12'
v  201933.515625 445534.437500 -1.056317 
v  201933.515625 445534.437500 7.061623 
v  201933.984375 445534.625000 -1.056317 
v  201933.984375 445534.625000 7.061622 
# 4 vertices

vt 0.0 0.003733 0.0
vt 0.000021 1.000000 0.0
vt 0.999954 0.0 0.0
vt 1.000000 0.996891 0.0
# 4 texture vertices

vn  0.371391 -0.928477 0.0 
# 1 normals

usemtl surface__11

o IndexedFaceSet__12_0
g IndexedFaceSet__12_0

s off
f 54/52/19 52/51/19 51/53/19
f 51/53/19 53/54/19 54/52/19
# 2 polygons

# Coordinates for object 'IndexedFaceSet #13'
v  201921.171875 445548.718750 10.130174 
v  201921.171875 445548.718750 12.276241 
v  201926.828125 445550.781250 10.130170 
v  201926.828125 445550.781250 12.276239 
# 4 vertices

vt 0.0 0.001640 0.0
vt 0.000066 1.000000 0.0
vt 0.999942 0.0 0.0
vt 1.000000 0.998484 0.0
# 4 texture vertices

vn  -0.342576 0.939490 0.0 
# 1 normals

usemtl surface__12

o IndexedFaceSet__13_0
g IndexedFaceSet__13_0

s off
f 56/56/20 58/58/20 55/55/20
f 57/57/20 55/55/20 58/58/20
# 2 polygons

# Coordinates for object 'IndexedFaceSet #14'
v  201921.171875 445548.718750 12.276241 
v  201922.109375 445546.156250 12.276239 
v  201926.828125 445550.781250 12.276239 
v  201927.765625 445548.250000 12.276237 
# 4 vertices

vt 0.0 0.0 0.0
vt 0.0 1.000000 0.0
vt 0.999999 0.0 0.0
vt 1.000000 0.999999 0.0
# 4 texture vertices

vn  0.0 0.0 1.0 
# 1 normals

usemtl surface__13

o IndexedFaceSet__14_0
g IndexedFaceSet__14_0

s off
f 59/60/21 60/59/21 62/61/21
f 62/61/21 61/62/21 59/60/21
# 2 polygons

# Coordinates for object 'IndexedFaceSet #15'
v  201933.453125 445534.625000 7.059653 
v  201933.515625 445534.437500 7.061623 
v  201933.921875 445534.781250 7.059653 
v  201933.984375 445534.625000 7.061622 
# 4 vertices

vt 0.0 0.0 0.0
# 1 texture vertices

vn  -0.003707 0.009272 0.999950 
vn  -0.003707 0.011120 0.999931 
# 2 normals

usemtl surface__14

o IndexedFaceSet__15_0
g IndexedFaceSet__15_0

s off
f 63/63/22 64/63/22 66/63/22
f 66/63/23 65/63/23 63/63/23
# 2 polygons

# Coordinates for object 'IndexedFaceSet #16'
v  201922.109375 445546.156250 10.128325 
v  201922.109375 445546.156250 12.276239 
v  201927.765625 445548.250000 10.128325 
v  201927.765625 445548.250000 12.276237 
# 4 vertices

vt 0.0 1.000000 0.0
vt 0.000026 0.000174 0.0
vt 0.999932 0.999856 0.0
vt 1.000000 0.0 0.0
# 4 texture vertices

vn  0.347146 -0.937811 0.0 
# 1 normals

usemtl surface__15

o IndexedFaceSet__16_0
g IndexedFaceSet__16_0

s off
f 70/66/24 68/64/24 69/67/24
f 67/65/24 69/67/24 68/64/24
# 2 polygons

# Coordinates for object 'IndexedFaceSet #17'
v  201911.015625 445541.593750 -1.062198 
v  201911.015625 445541.593750 11.989119 
v  201915.734375 445543.312500 -1.071483 
v  201915.734375 445543.312500 10.175057 
v  201915.734375 445543.312500 11.989117 
# 5 vertices

vt 0.0 0.995724 0.0
vt 0.000758 0.0 0.0
vt 0.138883 0.996259 0.0
vt 0.999968 0.004296 0.0
vt 1.000000 1.000000 0.0
# 5 texture vertices

vn  0.342243 -0.939612 0.0 
# 1 normals

usemtl surface__16

o IndexedFaceSet__17_0
g IndexedFaceSet__17_0

s off
f 75/68/25 72/69/25 74/70/25
f 74/70/25 71/71/25 73/72/25
f 71/71/25 74/70/25 72/69/25
# 3 polygons

# Coordinates for object 'IndexedFaceSet #18'
v  201912.296875 445552.687500 10.175060 
v  201912.296875 445552.687500 11.989120 
v  201915.734375 445543.312500 10.175057 
v  201915.734375 445543.312500 11.989117 
# 4 vertices

vt 0.0 0.0 0.0
vt 0.000020 0.998869 0.0
vt 0.999996 1.000000 0.0
vt 1.000000 0.001311 0.0
# 4 texture vertices

vn  0.938876 0.344255 0.0 
# 1 normals

usemtl surface__17

o IndexedFaceSet__18_0
g IndexedFaceSet__18_0

s off
f 77/74/26 79/73/26 76/75/26
f 78/76/26 76/75/26 79/73/26
# 2 polygons

# Coordinates for object 'IndexedFaceSet #19'
v  201907.578125 445550.968750 11.989120 
v  201911.015625 445541.593750 11.989119 
v  201912.296875 445552.687500 11.989120 
v  201915.734375 445543.312500 11.989117 
# 4 vertices

vt 0.0 0.0 0.0
vt 0.0 1.000000 0.0
vt 0.999999 1.000000 0.0
vt 1.000000 0.0 0.0
# 4 texture vertices

vn  0.0 0.0 1.0 
# 1 normals

usemtl surface__13

o IndexedFaceSet__19_0
g IndexedFaceSet__19_0

s off
f 80/79/27 81/78/27 83/77/27
f 83/77/27 82/80/27 80/79/27
# 2 polygons

# Coordinates for object 'IndexedFaceSet #20'
v  201907.578125 445550.968750 -1.062194 
v  201907.578125 445550.968750 11.989120 
v  201911.015625 445541.593750 -1.062198 
v  201911.015625 445541.593750 11.989119 
# 4 vertices

vt 0.0 0.000179 0.0
vt 0.0 1.000000 0.0
vt 0.999998 0.0 0.0
vt 1.000000 0.999820 0.0
# 4 texture vertices

vn  -0.938876 -0.344255 0.0 
# 1 normals

usemtl surface__18

o IndexedFaceSet__20_0
g IndexedFaceSet__20_0

s off
f 84/84/28 86/83/28 85/82/28
f 87/81/28 85/82/28 86/83/28
# 2 polygons
