# Converted by Daum Communications 
# Date/time of export: 08/22/2013 14:53:51
#
# Bounding box of geometry = (202093,445019,-1.62765) to (202128,445042,10.8513).

mtllib 4623510.mtl

# Coordinates for object 'IndexedFaceSet'
v  202122.921875 445042.437500 -1.626863 
v  202122.921875 445042.437500 9.041352 
v  202126.640625 445032.562500 9.041350 
v  202126.640625 445032.562500 10.851288 
v  202127.609375 445029.968750 -1.626849 
v  202127.609375 445029.968750 10.851290 
# 6 vertices

vt 0.0 0.000071 0.0
vt 0.0 0.208358 0.0
vt 0.145048 0.207851 0.0
vt 0.145053 1.000000 0.0
vt 0.999996 0.0 0.0
vt 1.000000 0.999938 0.0
# 6 texture vertices

vn  0.935841 0.352421 0.0 
vn  0.936040 0.351895 -0.000557 
vn  0.936792 0.349886 0.0 
# 3 normals

usemtl surface

o IndexedFaceSet
g IndexedFaceSet

s off
f 6/1/3 3/3/3 4/2/3
f 3/3/3 6/1/3 5/5/3
f 3/3/1 1/6/1 2/4/1
f 1/6/2 3/3/2 5/5/2
# 4 polygons

# Coordinates for object 'IndexedFaceSet #1'
v  202114.953125 445039.437500 -1.626864 
v  202114.953125 445039.437500 9.041350 
v  202118.671875 445029.562500 9.041352 
v  202118.671875 445029.562500 10.851288 
v  202119.640625 445026.968750 -1.626851 
v  202119.640625 445026.968750 10.851288 
# 6 vertices

vt 0.0 0.000071 0.0
vt 0.0 0.208358 0.0
vt 0.145048 0.207851 0.0
vt 0.145053 1.000000 0.0
vt 0.999996 0.0 0.0
vt 1.000000 0.999938 0.0
# 6 texture vertices

vn  -0.936792 -0.349886 0.0 
vn  -0.936040 -0.351895 0.000557 
vn  -0.935841 -0.352421 0.0 
# 3 normals

usemtl surface

o IndexedFaceSet__1_0
g IndexedFaceSet__1_0

s off
f 8/10/6 7/12/6 9/9/6
f 9/9/5 7/12/5 11/11/5
f 9/9/4 12/7/4 10/8/4
f 12/7/4 9/9/4 11/11/4
# 4 polygons

# Coordinates for object 'IndexedFaceSet #2'
v  202118.671875 445029.562500 10.851288 
v  202119.640625 445026.968750 10.851288 
v  202126.640625 445032.562500 10.851288 
v  202127.609375 445029.968750 10.851290 
# 4 vertices

vt 0.0 0.0 0.0
vt 0.0 1.000000 0.0
vt 1.000000 0.0 0.0
vt 1.000000 1.000000 0.0
# 4 texture vertices

vn  0.0 0.0 1.0 
# 1 normals

usemtl surface__2

o IndexedFaceSet__2_0
g IndexedFaceSet__2_0

s off
f 13/15/7 14/16/7 16/14/7
f 16/14/7 15/13/7 13/15/7
# 2 polygons

# Coordinates for object 'IndexedFaceSet #3'
v  202119.640625 445026.968750 -1.626851 
v  202119.640625 445026.968750 10.851288 
v  202127.609375 445029.968750 -1.626849 
v  202127.609375 445029.968750 10.851290 
# 4 vertices

vt 0.0 1.000000 0.0
vt 0.000559 0.000444 0.0
vt 0.999807 0.999565 0.0
vt 1.000000 0.0 0.0
# 4 texture vertices

vn  0.352330 -0.935876 0.0 
# 1 normals

usemtl surface__3

o IndexedFaceSet__3_0
g IndexedFaceSet__3_0

s off
f 20/18/8 18/17/8 17/19/8
f 17/19/8 19/20/8 20/18/8
# 2 polygons

# Coordinates for object 'IndexedFaceSet #4'
v  202114.953125 445039.437500 -1.626864 
v  202114.953125 445039.437500 9.041350 
v  202122.921875 445042.437500 -1.626863 
v  202122.921875 445042.437500 9.041352 
# 4 vertices

vt 0.0 1.000000 0.0
vt 0.000559 0.000444 0.0
vt 0.999807 0.999565 0.0
vt 1.000000 0.0 0.0
# 4 texture vertices

vn  -0.352330 0.935876 0.0 
# 1 normals

usemtl surface__3

o IndexedFaceSet__4_0
g IndexedFaceSet__4_0

s off
f 22/21/9 24/22/9 21/23/9
f 23/24/9 21/23/9 24/22/9
# 2 polygons

# Coordinates for object 'IndexedFaceSet #5'
v  202114.953125 445039.437500 9.041350 
v  202118.671875 445029.562500 9.041352 
v  202122.921875 445042.437500 9.041352 
v  202126.640625 445032.562500 9.041350 
# 4 vertices

vt 0.0 0.500000 0.0
vt 0.0 1.000000 0.0
vt 1.000000 0.500000 0.0
vt 1.000000 1.000000 0.0
# 4 texture vertices

vn  0.0 0.0 1.0 
# 1 normals

usemtl surface__4

o IndexedFaceSet__5_0
g IndexedFaceSet__5_0

s off
f 25/28/10 26/26/10 28/25/10
f 28/25/10 27/27/10 25/28/10
# 2 polygons

# Coordinates for object 'IndexedFaceSet #6'
v  202118.671875 445029.562500 9.041352 
v  202118.671875 445029.562500 10.851288 
v  202126.640625 445032.562500 9.041350 
v  202126.640625 445032.562500 10.851288 
# 4 vertices

vt 0.0 0.998246 0.0
vt 0.0 0.0 0.0
vt 0.999998 1.000000 0.0
vt 1.000000 0.001756 0.0
# 4 texture vertices

vn  -0.352330 0.935876 0.0 
# 1 normals

usemtl surface__5

o IndexedFaceSet__6_0
g IndexedFaceSet__6_0

s off
f 30/31/11 32/29/11 29/32/11
f 31/30/11 29/32/11 32/29/11
# 2 polygons

# Coordinates for object 'IndexedFaceSet #7'
v  202126.609375 445032.625000 4.693731 
v  202127.171875 445032.843750 4.693731 
v  202127.562500 445030.031250 4.693731 
v  202128.156250 445030.250000 4.693731 
# 4 vertices

vt 0.0 0.0 0.0
# 1 texture vertices

vn  0.0 0.0 1.0 
# 1 normals

usemtl surface__6

o IndexedFaceSet__7_0
g IndexedFaceSet__7_0

s off
f 36/33/12 33/33/12 35/33/12
f 33/33/12 36/33/12 34/33/12
# 2 polygons

# Coordinates for object 'IndexedFaceSet #8'
v  202126.609375 445032.625000 2.682464 
v  202127.171875 445032.843750 2.682465 
v  202127.562500 445030.031250 2.682463 
v  202128.156250 445030.250000 2.682463 
# 4 vertices

vt 0.0 1.000000 0.0
vt 0.000101 0.000768 0.0
vt 0.999913 0.999251 0.0
vt 1.000000 0.0 0.0
# 4 texture vertices

vn  0.000002 0.000001 -1.0 
# 1 normals

usemtl surface__7

o IndexedFaceSet__8_0
g IndexedFaceSet__8_0

s off
f 38/34/13 40/35/13 37/36/13
f 39/37/13 37/36/13 40/35/13
# 2 polygons

# Coordinates for object 'IndexedFaceSet #9'
v  202126.609375 445032.625000 2.682464 
v  202126.609375 445032.625000 4.693731 
v  202127.171875 445032.843750 2.682465 
v  202127.171875 445032.843750 4.693731 
# 4 vertices

vt 0.0 1.000000 0.0
vt 0.000101 0.000768 0.0
vt 0.999913 0.999251 0.0
vt 1.000000 0.0 0.0
# 4 texture vertices

vn  -0.362446 0.932005 0.0 
# 1 normals

usemtl surface__7

o IndexedFaceSet__9_0
g IndexedFaceSet__9_0

s off
f 42/38/14 44/39/14 41/40/14
f 43/41/14 41/40/14 44/39/14
# 2 polygons

# Coordinates for object 'IndexedFaceSet #10'
v  202127.171875 445032.843750 2.682465 
v  202127.171875 445032.843750 4.693731 
v  202128.156250 445030.250000 2.682463 
v  202128.156250 445030.250000 4.693731 
# 4 vertices

vt 0.0 0.000014 0.0
vt 0.0 1.000000 0.0
vt 0.999995 0.0 0.0
vt 1.000000 0.999984 0.0
# 4 texture vertices

vn  0.934933 0.354824 0.0 
# 1 normals

usemtl surface__8

o IndexedFaceSet__10_0
g IndexedFaceSet__10_0

s off
f 46/45/15 48/43/15 45/44/15
f 47/42/15 45/44/15 48/43/15
# 2 polygons

# Coordinates for object 'IndexedFaceSet #11'
v  202127.562500 445030.031250 2.682463 
v  202127.562500 445030.031250 4.693731 
v  202128.156250 445030.250000 2.682463 
v  202128.156250 445030.250000 4.693731 
# 4 vertices

vt 0.0 0.000226 0.0
vt 0.000182 1.000000 0.0
vt 0.999805 0.0 0.0
vt 1.000000 0.999782 0.0
# 4 texture vertices

vn  0.345705 -0.938343 0.0 
# 1 normals

usemtl surface__9

o IndexedFaceSet__11_0
g IndexedFaceSet__11_0

s off
f 52/47/16 50/46/16 49/48/16
f 49/48/16 51/49/16 52/47/16
# 2 polygons

# Coordinates for object 'IndexedFaceSet #12'
v  202123.437500 445041.312500 8.077615 
v  202123.437500 445041.312500 8.574666 
v  202126.625000 445032.875000 8.077615 
v  202126.625000 445032.875000 8.574666 
# 4 vertices

vt 0.0 0.998784 0.0
vt 0.284518 0.000020 0.0
vt 0.715122 1.000000 0.0
vt 1.000000 0.0 0.0
# 4 texture vertices

vn  0.935472 0.353401 0.0 
# 1 normals

usemtl surface__10

o IndexedFaceSet__12_0
g IndexedFaceSet__12_0

s off
f 54/50/17 56/51/17 53/52/17
f 55/53/17 53/52/17 56/51/17
# 2 polygons

# Coordinates for object 'IndexedFaceSet #13'
v  202123.359375 445041.281250 8.077615 
v  202123.437500 445041.312500 8.077615 
v  202126.531250 445032.843750 8.077614 
v  202126.625000 445032.875000 8.077615 
# 4 vertices

vt 0.0 0.0 0.0
vt 0.000122 0.999998 0.0
vt 1.000000 0.0 0.0
vt 1.000000 1.000000 0.0
# 4 texture vertices

vn  0.0 0.0 -1.0 
# 1 normals

usemtl surface__11

o IndexedFaceSet__13_0
g IndexedFaceSet__13_0

s off
f 57/57/18 58/55/18 60/54/18
f 60/54/18 59/56/18 57/57/18
# 2 polygons

# Coordinates for object 'IndexedFaceSet #14'
v  202123.359375 445041.281250 8.077615 
v  202123.359375 445041.281250 8.574666 
v  202123.437500 445041.312500 8.077615 
v  202123.437500 445041.312500 8.574666 
# 4 vertices

vt 0.0 1.000000 0.0
vt 0.000191 0.000740 0.0
vt 0.999835 0.999157 0.0
vt 1.000000 0.0 0.0
# 4 texture vertices

vn  -0.371391 0.928477 0.0 
# 1 normals

usemtl surface__12

o IndexedFaceSet__14_0
g IndexedFaceSet__14_0

s off
f 62/58/19 64/59/19 61/60/19
f 63/61/19 61/60/19 64/59/19
# 2 polygons

# Coordinates for object 'IndexedFaceSet #15'
v  202123.359375 445041.281250 8.574666 
v  202123.437500 445041.312500 8.574666 
v  202126.531250 445032.843750 8.574665 
v  202126.625000 445032.875000 8.574666 
# 4 vertices

vt 0.0 0.0 0.0
vt 0.000122 0.999998 0.0
vt 1.000000 0.0 0.0
vt 1.000000 1.000000 0.0
# 4 texture vertices

vn  -0.000009 -0.000003 1.0 
# 1 normals

usemtl surface__11

o IndexedFaceSet__15_0
g IndexedFaceSet__15_0

s off
f 67/64/20 68/62/20 66/63/20
f 66/63/20 65/65/20 67/64/20
# 2 polygons

# Coordinates for object 'IndexedFaceSet #16'
v  202126.531250 445032.843750 8.077614 
v  202126.531250 445032.843750 8.574665 
v  202126.625000 445032.875000 8.077615 
v  202126.625000 445032.875000 8.574666 
# 4 vertices

vt 0.0 1.000000 0.0
vt 0.000191 0.000740 0.0
vt 0.999835 0.999157 0.0
vt 1.000000 0.0 0.0
# 4 texture vertices

vn  0.316228 -0.948683 0.0 
# 1 normals

usemtl surface__12

o IndexedFaceSet__16_0
g IndexedFaceSet__16_0

s off
f 72/67/21 70/66/21 69/68/21
f 69/68/21 71/69/21 72/67/21
# 2 polygons

# Coordinates for object 'IndexedFaceSet #17'
v  202092.906250 445030.562500 9.041348 
v  202097.156250 445032.156250 9.041349 
v  202097.421875 445018.593750 9.041347 
v  202098.984375 445027.312500 9.041350 
v  202116.968750 445034.093750 9.041350 
v  202119.640625 445026.968750 9.048028 
# 6 vertices

vt 0.0 0.702847 0.0
vt 0.0 0.999822 0.0
vt 0.808875 0.500000 0.0
vt 0.808876 0.702847 0.0
vt 1.000000 0.500000 0.0
vt 1.000000 1.000000 0.0
# 6 texture vertices

vn  -0.000322 0.000057 1.000000 
vn  -0.000310 0.000821 1.000000 
vn  0.0 0.0 1.0 
# 3 normals

usemtl surface__4

o IndexedFaceSet__17_0
g IndexedFaceSet__17_0

s off
f 75/75/24 76/73/24 73/74/24
f 76/73/22 75/75/22 78/71/22
f 73/74/24 76/73/24 74/72/24
f 77/70/23 76/73/23 78/71/23
# 4 polygons

# Coordinates for object 'IndexedFaceSet #18'
v  202097.421875 445018.593750 -1.627650 
v  202097.421875 445018.593750 9.041347 
v  202119.640625 445026.968750 -1.620966 
v  202119.640625 445026.968750 9.048028 
# 4 vertices

vt 0.0 0.0 0.0
vt 0.000014 0.999996 0.0
vt 0.998995 1.000000 0.0
vt 1.000000 0.0 0.0
# 4 texture vertices

vn  0.352709 -0.935733 0.0 
# 1 normals

usemtl surface__13

o IndexedFaceSet__18_0
g IndexedFaceSet__18_0

s off
f 82/78/25 80/77/25 81/79/25
f 79/76/25 81/79/25 80/77/25
# 2 polygons

# Coordinates for object 'IndexedFaceSet #19'
v  202092.906250 445030.531250 -1.627646 
v  202092.906250 445030.562500 9.041348 
v  202097.421875 445018.593750 -1.627650 
v  202097.421875 445018.593750 9.041347 
# 4 vertices

vt 0.0 0.0 0.0
vt 0.000014 0.999996 0.0
vt 0.998995 1.000000 0.0
vt 1.000000 0.0 0.0
# 4 texture vertices

vn  -0.935624 -0.352997 0.001034 
vn  -0.935319 -0.353805 0.0 
# 2 normals

usemtl surface__13

o IndexedFaceSet__19_0
g IndexedFaceSet__19_0

s off
f 84/81/26 83/82/26 86/80/26
f 85/83/27 86/80/27 83/82/27
# 2 polygons

# Coordinates for object 'IndexedFaceSet #20'
v  202092.906250 445030.531250 -1.627646 
v  202092.906250 445030.562500 9.041348 
v  202097.156250 445032.156250 -1.627648 
v  202097.156250 445032.156250 9.041349 
# 4 vertices

vt 0.0 1.000000 0.0
vt 0.000559 0.000444 0.0
vt 0.999807 0.999565 0.0
vt 1.000000 0.0 0.0
# 4 texture vertices

vn  -0.357137 0.934052 0.0 
vn  -0.351122 0.936326 -0.002743 
# 2 normals

usemtl surface__3

o IndexedFaceSet__20_0
g IndexedFaceSet__20_0

s off
f 88/84/29 90/85/29 87/86/29
f 89/87/28 87/86/28 90/85/28
# 2 polygons

# Coordinates for object 'IndexedFaceSet #21'
v  202097.156250 445032.156250 -1.627648 
v  202097.156250 445032.156250 9.041349 
v  202098.984375 445027.281250 -1.627647 
v  202098.984375 445027.312500 9.041350 
# 4 vertices

vt 0.0 1.000000 0.0
vt 0.0 0.000763 0.0
vt 1.000000 0.0 0.0
vt 1.000000 0.999258 0.0
# 4 texture vertices

vn  0.935583 0.353107 0.0 
vn  0.936329 0.351123 -0.001028 
# 2 normals

usemtl surface__14

o IndexedFaceSet__21_0
g IndexedFaceSet__21_0

s off
f 92/88/30 94/89/30 91/91/30
f 93/90/31 91/91/31 94/89/31
# 2 polygons

# Coordinates for object 'IndexedFaceSet #22'
v  202098.984375 445027.281250 -1.627647 
v  202098.984375 445027.312500 9.041350 
v  202116.968750 445034.062500 -1.627645 
v  202116.968750 445034.093750 9.041350 
# 4 vertices

vt 0.0 1.000000 0.0
vt 0.000559 0.000444 0.0
vt 0.999807 0.999565 0.0
vt 1.000000 0.0 0.0
# 4 texture vertices

vn  -0.352814 0.935689 -0.002741 
# 1 normals

usemtl surface__3

o IndexedFaceSet__22_0
g IndexedFaceSet__22_0

s off
f 96/92/32 98/93/32 95/94/32
f 97/95/32 95/94/32 98/93/32
# 2 polygons

# Coordinates for object 'IndexedFaceSet #23'
v  202097.328125 445031.687500 9.041348 
v  202097.328125 445031.687500 10.687409 
v  202098.093750 445029.656250 9.041348 
v  202098.093750 445029.656250 10.687409 
# 4 vertices

vt 0.0 0.0 0.0
vt 0.000014 0.999996 0.0
vt 0.998995 1.000000 0.0
vt 1.000000 0.0 0.0
# 4 texture vertices

vn  0.935736 0.352701 0.0 
# 1 normals

usemtl surface__13

o IndexedFaceSet__23_0
g IndexedFaceSet__23_0

s off
f 100/98/33 102/97/33 101/96/33
f 101/96/33 99/99/33 100/98/33
# 2 polygons

# Coordinates for object 'IndexedFaceSet #24'
v  202093.109375 445030.093750 9.041335 
v  202093.109375 445030.093750 10.687396 
v  202093.875000 445028.062500 9.041334 
v  202093.875000 445028.062500 10.687396 
# 4 vertices

vt 0.0 0.0 0.0
vt 0.0 1.000000 0.0
vt 0.999023 0.999978 0.0
vt 1.000000 0.0 0.0
# 4 texture vertices

vn  -0.935736 -0.352701 0.0 
# 1 normals

usemtl surface__15

o IndexedFaceSet__24_0
g IndexedFaceSet__24_0

s off
f 104/102/34 103/103/34 105/100/34
f 105/100/34 106/101/34 104/102/34
# 2 polygons

# Coordinates for object 'IndexedFaceSet #25'
v  202093.109375 445030.093750 9.041335 
v  202093.109375 445030.093750 10.687396 
v  202097.328125 445031.687500 9.041348 
v  202097.328125 445031.687500 10.687409 
# 4 vertices

vt 0.0 1.000000 0.0
vt 0.001137 0.000024 0.0
vt 0.998911 0.999971 0.0
vt 1.000000 0.0 0.0
# 4 texture vertices

vn  -0.353401 0.935472 0.0 
# 1 normals

usemtl surface__16

o IndexedFaceSet__25_0
g IndexedFaceSet__25_0

s off
f 108/104/35 110/105/35 109/107/35
f 109/107/35 107/106/35 108/104/35
# 2 polygons

# Coordinates for object 'IndexedFaceSet #26'
v  202093.109375 445030.093750 10.687396 
v  202093.875000 445028.062500 10.687396 
v  202097.328125 445031.687500 10.687409 
v  202098.093750 445029.656250 10.687409 
# 4 vertices

vt 0.0 0.0 0.0
vt 0.0 1.000000 0.0
vt 1.000000 0.0 0.0
vt 1.000000 1.000000 0.0
# 4 texture vertices

vn  -0.000003 -0.000001 1.0 
# 1 normals

usemtl surface__2

o IndexedFaceSet__26_0
g IndexedFaceSet__26_0

s off
f 111/108/36 112/110/36 113/109/36
f 114/111/36 113/109/36 112/110/36
# 2 polygons

# Coordinates for object 'IndexedFaceSet #27'
v  202093.875000 445028.062500 9.041334 
v  202093.875000 445028.062500 10.687396 
v  202098.093750 445029.656250 9.041348 
v  202098.093750 445029.656250 10.687409 
# 4 vertices

vt 0.0 1.000000 0.0
vt 0.000016 0.001286 0.0
vt 0.999923 0.0 0.0
vt 1.000000 0.998813 0.0
# 4 texture vertices

vn  0.353401 -0.935472 0.0 
# 1 normals

usemtl surface__17

o IndexedFaceSet__27_0
g IndexedFaceSet__27_0

s off
f 118/115/37 116/112/37 117/114/37
f 115/113/37 117/114/37 116/112/37
# 2 polygons
