# Converted by Daum Communications 
# Date/time of export: 08/22/2013 14:53:52
#
# Bounding box of geometry = (202027,445213,-0.650246) to (202053,445244,17.1804).

mtllib 4623522.mtl

# Coordinates for object 'IndexedFaceSet'
v  202043.421875 445244.218750 -0.642201 
v  202043.421875 445244.218750 14.903624 
v  202053.093750 445219.093750 -0.650246 
v  202053.093750 445219.093750 14.903624 
# 4 vertices

vt 0.0 0.000067 0.0
vt 0.0 1.000000 0.0
vt 0.999477 0.999925 0.0
vt 1.000000 0.0 0.0
# 4 texture vertices

vn  0.933241 0.359251 0.0 
# 1 normals

usemtl surface

o IndexedFaceSet
g IndexedFaceSet

s off
f 2/2/1 4/1/1 1/3/1
f 3/4/1 1/3/1 4/1/1
# 2 polygons

# Coordinates for object 'IndexedFaceSet #1'
v  202026.500000 445237.718750 -0.642182 
v  202026.500000 445237.718750 14.903635 
v  202036.171875 445212.562500 -0.650227 
v  202036.171875 445212.562500 14.903639 
# 4 vertices

vt 0.0 0.000067 0.0
vt 0.0 1.000000 0.0
vt 0.999477 0.999925 0.0
vt 1.000000 0.0 0.0
# 4 texture vertices

vn  -0.933390 -0.358863 0.0 
# 1 normals

usemtl surface

o IndexedFaceSet__1_0
g IndexedFaceSet__1_0

s off
f 5/7/2 7/8/2 8/5/2
f 8/5/2 6/6/2 5/7/2
# 2 polygons

# Coordinates for object 'IndexedFaceSet #2'
v  202026.500000 445237.718750 -0.642182 
v  202026.500000 445237.718750 14.903635 
v  202043.421875 445244.218750 -0.642201 
v  202043.421875 445244.218750 14.903624 
# 4 vertices

vt 0.0 0.0 0.0
vt 0.000025 0.999412 0.0
vt 0.999901 0.000481 0.0
vt 1.000000 1.000000 0.0
# 4 texture vertices

vn  -0.358575 0.933501 0.0 
# 1 normals

usemtl surface__2

o IndexedFaceSet__2_0
g IndexedFaceSet__2_0

s off
f 10/12/3 12/10/3 9/11/3
f 11/9/3 9/11/3 12/10/3
# 2 polygons

# Coordinates for object 'IndexedFaceSet #3'
v  202026.500000 445237.718750 14.903635 
v  202036.171875 445212.562500 14.903639 
v  202043.421875 445244.218750 14.903624 
v  202053.093750 445219.093750 14.903624 
# 4 vertices

vt 0.0 0.0 0.0
vt 0.0 1.000000 0.0
vt 1.000000 0.0 0.0
vt 1.000000 1.000000 0.0
# 4 texture vertices

vn  0.0 0.0 1.0 
# 1 normals

usemtl surface__3

o IndexedFaceSet__3_0
g IndexedFaceSet__3_0

s off
f 13/16/4 14/14/4 15/15/4
f 16/13/4 15/15/4 14/14/4
# 2 polygons

# Coordinates for object 'IndexedFaceSet #4'
v  202036.171875 445212.562500 -0.650227 
v  202036.171875 445212.562500 14.903639 
v  202053.093750 445219.093750 -0.650246 
v  202053.093750 445219.093750 14.903624 
# 4 vertices

vt 0.0 0.0 0.0
vt 0.000025 0.999412 0.0
vt 0.999901 0.000481 0.0
vt 1.000000 1.000000 0.0
# 4 texture vertices

vn  0.360076 -0.932923 0.0 
# 1 normals

usemtl surface__2

o IndexedFaceSet__4_0
g IndexedFaceSet__4_0

s off
f 20/18/5 18/20/5 17/19/5
f 17/19/5 19/17/5 20/18/5
# 2 polygons

# Coordinates for object 'IndexedFaceSet #5'
v  202031.765625 445239.750000 14.903632 
v  202031.765625 445239.750000 17.180441 
v  202043.421875 445244.218750 14.903624 
v  202043.421875 445244.218750 17.180439 
# 4 vertices

vt 0.0 0.0 0.0
vt 0.0 0.996435 0.0
vt 0.999607 0.003237 0.0
vt 1.000000 1.000000 0.0
# 4 texture vertices

vn  -0.357972 0.933732 0.0 
# 1 normals

usemtl surface__4

o IndexedFaceSet__5_0
g IndexedFaceSet__5_0

s off
f 24/22/6 23/21/6 21/23/6
f 21/23/6 22/24/6 24/22/6
# 2 polygons

# Coordinates for object 'IndexedFaceSet #6'
v  202032.812500 445237.000000 17.180441 
v  202032.828125 445237.000000 14.903631 
v  202044.468750 445241.468750 14.903624 
v  202044.468750 445241.468750 17.180439 
# 4 vertices

vt 0.0 1.000000 0.0
vt 0.000058 0.0 0.0
vt 0.999885 0.000161 0.0
vt 1.000000 0.999594 0.0
# 4 texture vertices

vn  0.357971 -0.933729 0.002457 
vn  0.358391 -0.933572 0.0 
# 2 normals

usemtl surface__5

o IndexedFaceSet__6_0
g IndexedFaceSet__6_0

s off
f 27/26/8 28/25/8 26/27/8
f 25/28/7 26/27/7 28/25/7
# 2 polygons

# Coordinates for object 'IndexedFaceSet #7'
v  202043.421875 445244.218750 14.903624 
v  202043.421875 445244.218750 17.180439 
v  202044.468750 445241.468750 14.903624 
v  202044.468750 445241.468750 17.180439 
# 4 vertices

vt 0.0 0.000079 0.0
vt 0.000023 1.000000 0.0
vt 0.999985 0.999919 0.0
vt 1.000000 0.0 0.0
# 4 texture vertices

vn  0.934572 0.355774 0.0 
# 1 normals

usemtl surface__6

o IndexedFaceSet__7_0
g IndexedFaceSet__7_0

s off
f 30/30/9 32/29/9 29/31/9
f 31/32/9 29/31/9 32/29/9
# 2 polygons

# Coordinates for object 'IndexedFaceSet #8'
v  202031.765625 445239.750000 17.180441 
v  202032.812500 445237.000000 17.180441 
v  202043.421875 445244.218750 17.180439 
v  202044.468750 445241.468750 17.180439 
# 4 vertices

vt 0.0 0.0 0.0
vt 0.0 1.000000 0.0
vt 0.499999 1.000000 0.0
vt 0.500000 0.0 0.0
# 4 texture vertices

vn  0.0 0.0 1.0 
# 1 normals

usemtl surface__7

o IndexedFaceSet__8_0
g IndexedFaceSet__8_0

s off
f 33/35/10 34/34/10 36/33/10
f 36/33/10 35/36/10 33/35/10
# 2 polygons

# Coordinates for object 'IndexedFaceSet #9'
v  202031.765625 445239.750000 14.903632 
v  202031.765625 445239.750000 17.180441 
v  202032.812500 445237.000000 17.180441 
v  202032.828125 445237.000000 14.903631 
# 4 vertices

vt 0.0 0.0 0.0
vt 0.000089 1.000000 0.0
vt 0.999909 0.0 0.0
vt 1.000000 0.999999 0.0
# 4 texture vertices

vn  -0.934553 -0.355767 -0.006414 
vn  -0.932798 -0.360399 0.0 
# 2 normals

usemtl surface__8

o IndexedFaceSet__9_0
g IndexedFaceSet__9_0

s off
f 37/39/12 40/37/12 38/40/12
f 39/38/11 38/40/11 40/37/11
# 2 polygons
