# Converted by Daum Communications 
# Date/time of export: 08/22/2013 14:53:49
#
# Bounding box of geometry = (201923,445719,-0.878749) to (201952,445739,44.3077).

mtllib 4623270.mtl

# Coordinates for object 'IndexedFaceSet'
v  201927.906250 445731.406250 33.570084 
v  201927.906250 445731.406250 36.324596 
v  201937.812500 445734.687500 33.562630 
v  201937.812500 445734.687500 36.317139 
# 4 vertices

vt 0.0 0.999965 0.0
vt 0.0 0.0 0.0
vt 0.999992 1.000000 0.0
vt 1.000000 0.000058 0.0
# 4 texture vertices

vn  -0.314430 0.949281 0.0 
# 1 normals

usemtl surface

o IndexedFaceSet
g IndexedFaceSet

s off
f 4/1/1 3/2/1 1/4/1
f 1/4/1 2/3/1 4/1/1
# 2 polygons

# Coordinates for object 'IndexedFaceSet #1'
v  201937.812500 445734.687500 33.562630 
v  201937.812500 445734.687500 36.317139 
v  201940.484375 445726.656250 33.596184 
v  201940.484375 445726.656250 36.350697 
# 4 vertices

vt 0.0 0.0 0.0
vt 0.0 0.999959 0.0
vt 0.999985 0.000042 0.0
vt 1.000000 1.000000 0.0
# 4 texture vertices

vn  0.948868 0.315674 0.0 
# 1 normals

usemtl surface__2

o IndexedFaceSet__1_0
g IndexedFaceSet__1_0

s off
f 8/7/2 7/5/2 5/6/2
f 5/6/2 6/8/2 8/7/2
# 2 polygons

# Coordinates for object 'IndexedFaceSet #2'
v  201930.640625 445723.375000 33.603588 
v  201930.640625 445723.406250 36.358101 
v  201940.484375 445726.656250 33.596184 
v  201940.484375 445726.656250 36.350697 
# 4 vertices

vt 0.0 0.999965 0.0
vt 0.0 0.0 0.0
vt 0.999992 1.000000 0.0
vt 1.000000 0.000058 0.0
# 4 texture vertices

vn  0.313513 -0.949584 0.0 
vn  0.316217 -0.948626 0.010762 
# 2 normals

usemtl surface

o IndexedFaceSet__2_0
g IndexedFaceSet__2_0

s off
f 11/10/3 12/9/3 10/11/3
f 10/11/4 9/12/4 11/10/4
# 2 polygons

# Coordinates for object 'IndexedFaceSet #3'
v  201927.906250 445731.406250 33.570084 
v  201927.906250 445731.406250 36.324596 
v  201930.640625 445723.375000 33.603588 
v  201930.640625 445723.406250 36.358101 
# 4 vertices

vt 0.0 0.0 0.0
vt 0.0 0.999959 0.0
vt 0.999985 0.000042 0.0
vt 1.000000 1.000000 0.0
# 4 texture vertices

vn  -0.946638 -0.322299 0.0 
vn  -0.946252 -0.323410 0.003669 
# 2 normals

usemtl surface__2

o IndexedFaceSet__3_0
g IndexedFaceSet__3_0

s off
f 13/14/5 15/13/5 14/16/5
f 16/15/6 14/16/6 15/13/6
# 2 polygons

# Coordinates for object 'IndexedFaceSet #4'
v  201923.593750 445726.875000 33.908409 
v  201925.968750 445719.718750 33.938236 
v  201926.375000 445732.437500 33.841160 
v  201946.718750 445739.156250 33.598454 
v  201950.453125 445727.875000 33.645550 
# 5 vertices

vt 0.0 1.000000 0.0
vt 0.004409 0.0 0.0
vt 0.608373 1.000000 0.0
vt 0.999998 0.0 0.0
vt 0.999999 0.853628 0.0
# 5 texture vertices

vn  0.009511 0.007323 0.999928 
vn  0.009522 0.007328 0.999928 
# 2 normals

usemtl surface__3

o IndexedFaceSet__4_0
g IndexedFaceSet__4_0

s off
f 17/19/8 18/17/8 19/21/8
f 19/21/7 21/18/7 20/20/7
f 21/18/7 19/21/7 18/17/7
# 3 polygons

# Coordinates for object 'IndexedFaceSet #5'
v  201923.265625 445726.593750 -0.551683 
v  201923.593750 445726.875000 33.908409 
v  201925.640625 445719.468750 -0.521847 
v  201925.968750 445719.718750 33.938236 
# 4 vertices

vt 0.0 0.0 0.0
vt 0.0 0.999723 0.0
vt 0.999999 1.000000 0.0
vt 1.000000 0.000283 0.0
# 4 texture vertices

vn  -0.949047 -0.314919 0.011607 
vn  -0.948637 -0.316165 0.011327 
# 2 normals

usemtl surface__4

o IndexedFaceSet__5_0
g IndexedFaceSet__5_0

s off
f 22/23/10 24/22/10 25/25/10
f 25/25/9 23/24/9 22/23/9
# 2 polygons

# Coordinates for object 'IndexedFaceSet #6'
v  201923.265625 445726.593750 -0.551683 
v  201923.593750 445726.875000 33.908409 
v  201926.046875 445732.187500 -0.618932 
v  201926.375000 445732.437500 33.841160 
# 4 vertices

vt 0.0 0.999793 0.0
vt 0.000038 0.0 0.0
vt 0.999960 1.000000 0.0
vt 1.000000 0.000213 0.0
# 4 texture vertices

vn  -0.895391 0.445253 0.004892 
vn  -0.894389 0.447258 0.005272 
# 2 normals

usemtl surface__5

o IndexedFaceSet__6_0
g IndexedFaceSet__6_0

s off
f 28/26/11 26/27/11 27/29/11
f 27/29/12 29/28/12 28/26/12
# 2 polygons

# Coordinates for object 'IndexedFaceSet #7'
v  201926.046875 445732.187500 -0.618932 
v  201926.375000 445732.437500 33.841160 
v  201946.718750 445739.156250 33.598454 
v  201947.828125 445739.375000 -0.878749 
# 4 vertices

vt 0.0 0.0 0.0
vt 0.065332 1.000000 0.0
vt 0.999615 0.999978 0.0
vt 1.000000 0.000303 0.0
# 4 texture vertices

vn  -0.313641 0.949534 -0.003902 
vn  -0.313406 0.949610 -0.004059 
# 2 normals

usemtl surface__6

o IndexedFaceSet__7_0
g IndexedFaceSet__7_0

s off
f 33/30/14 30/33/14 32/31/14
f 31/32/13 32/31/13 30/33/13
# 2 polygons

# Coordinates for object 'IndexedFaceSet #8'
v  201946.718750 445739.156250 33.598454 
v  201947.828125 445739.375000 -0.878749 
v  201950.453125 445727.875000 33.645550 
v  201951.562500 445728.093750 -0.831645 
# 4 vertices

vt 0.0 0.0 0.0
vt 0.0 0.999723 0.0
vt 0.999999 1.000000 0.0
vt 1.000000 0.000283 0.0
# 4 texture vertices

vn  0.948796 0.314211 0.032523 
# 1 normals

usemtl surface__4

o IndexedFaceSet__8_0
g IndexedFaceSet__8_0

s off
f 34/36/15 36/37/15 37/34/15
f 37/34/15 35/35/15 34/36/15
# 2 polygons

# Coordinates for object 'IndexedFaceSet #9'
v  201925.640625 445719.468750 -0.521847 
v  201925.968750 445719.718750 33.938236 
v  201950.453125 445727.875000 33.645550 
v  201951.562500 445728.093750 -0.831645 
# 4 vertices

vt 0.0 1.000000 0.0
vt 0.000274 0.000345 0.0
vt 0.943409 0.998088 0.0
vt 1.000000 0.0 0.0
# 4 texture vertices

vn  0.315755 -0.948832 0.004140 
vn  0.316085 -0.948723 0.003873 
# 2 normals

usemtl surface__7

o IndexedFaceSet__9_0
g IndexedFaceSet__9_0

s off
f 38/39/16 41/41/16 40/40/16
f 40/40/17 39/38/17 38/39/17
# 2 polygons

# Coordinates for object 'IndexedFaceSet #10'
v  201926.031250 445731.625000 36.340641 
v  201926.093750 445731.687500 44.263603 
v  201929.515625 445721.062500 36.384720 
v  201929.593750 445721.125000 44.307655 
# 4 vertices

vt 0.0 0.0 0.0
vt 0.000710 1.000000 0.0
vt 0.999281 0.000065 0.0
vt 1.000000 0.999704 0.0
# 4 texture vertices

vn  -0.949610 -0.313210 0.011834 
vn  -0.949209 -0.314489 0.009969 
# 2 normals

usemtl surface__8

o IndexedFaceSet__10_0
g IndexedFaceSet__10_0

s off
f 42/43/18 44/42/18 45/44/18
f 45/44/19 43/45/19 42/43/19
# 2 polygons

# Coordinates for object 'IndexedFaceSet #11'
v  201937.828125 445735.531250 36.202671 
v  201937.906250 445735.593750 44.125622 
v  201941.328125 445724.968750 36.246746 
v  201941.406250 445725.031250 44.169682 
# 4 vertices

vt 0.0 0.0 0.0
vt 0.000710 1.000000 0.0
vt 0.999281 0.000065 0.0
vt 1.000000 0.999704 0.0
# 4 texture vertices

vn  0.949192 0.314476 -0.011840 
# 1 normals

usemtl surface__8

o IndexedFaceSet__11_0
g IndexedFaceSet__11_0

s off
f 49/48/20 48/46/20 46/47/20
f 46/47/20 47/49/20 49/48/20
# 2 polygons

# Coordinates for object 'IndexedFaceSet #12'
v  201926.093750 445731.687500 44.263603 
v  201929.593750 445721.125000 44.307655 
v  201937.906250 445735.593750 44.125622 
v  201941.406250 445725.031250 44.169682 
# 4 vertices

vt 0.0 0.0 0.0
vt 0.0 1.000000 0.0
vt 0.999998 0.0 0.0
vt 1.000000 0.999999 0.0
# 4 texture vertices

vn  0.009284 0.007247 0.999931 
# 1 normals

usemtl surface__9

o IndexedFaceSet__12_0
g IndexedFaceSet__12_0

s off
f 50/53/21 51/51/21 52/52/21
f 53/50/21 52/52/21 51/51/21
# 2 polygons

# Coordinates for object 'IndexedFaceSet #13'
v  201926.031250 445731.625000 36.340641 
v  201926.093750 445731.687500 44.263603 
v  201937.828125 445735.531250 36.202671 
v  201937.906250 445735.593750 44.125622 
# 4 vertices

vt 0.0 0.999706 0.0
vt 0.000302 0.0 0.0
vt 0.999705 1.000000 0.0
vt 1.000000 0.000344 0.0
# 4 texture vertices

vn  -0.314390 0.949281 -0.005008 
vn  -0.314010 0.949410 -0.004393 
# 2 normals

usemtl surface__10

o IndexedFaceSet__13_0
g IndexedFaceSet__13_0

s off
f 56/55/22 54/57/22 55/56/22
f 55/56/23 57/54/23 56/55/23
# 2 polygons

# Coordinates for object 'IndexedFaceSet #14'
v  201926.031250 445731.625000 36.340641 
v  201929.515625 445721.062500 36.384720 
v  201937.828125 445735.531250 36.202671 
v  201941.328125 445724.968750 36.246746 
# 4 vertices

vt 0.0 0.0 0.0
vt 0.0 1.000000 0.0
vt 1.000000 0.0 0.0
vt 1.000000 0.999999 0.0
# 4 texture vertices

vn  -0.009297 -0.007240 -0.999931 
vn  -0.009283 -0.007248 -0.999931 
# 2 normals

usemtl surface__11

o IndexedFaceSet__14_0
g IndexedFaceSet__14_0

s off
f 60/58/25 61/60/25 59/61/25
f 59/61/24 58/59/24 60/58/24
# 2 polygons

# Coordinates for object 'IndexedFaceSet #15'
v  201929.515625 445721.062500 36.384720 
v  201929.593750 445721.125000 44.307655 
v  201941.328125 445724.968750 36.246746 
v  201941.406250 445725.031250 44.169682 
# 4 vertices

vt 0.0 0.999706 0.0
vt 0.000302 0.0 0.0
vt 0.999705 1.000000 0.0
vt 1.000000 0.000344 0.0
# 4 texture vertices

vn  0.314010 -0.949410 0.004393 
# 1 normals

usemtl surface__10

o IndexedFaceSet__15_0
g IndexedFaceSet__15_0

s off
f 62/65/26 64/63/26 63/64/26
f 65/62/26 63/64/26 64/63/26
# 2 polygons
