# Converted by Daum Communications 
# Date/time of export: 08/22/2013 14:53:50
#
# Bounding box of geometry = (201783,445846,-0.517218) to (201813,445876,25.6551).

mtllib 4623306.mtl

# Coordinates for object 'IndexedFaceSet'
v  201804.734375 445875.500000 -0.478206 
v  201804.734375 445875.500000 17.701527 
v  201806.500000 445870.937500 13.978082 
v  201806.500000 445870.937500 17.701527 
v  201813.046875 445853.875000 -0.517207 
v  201813.046875 445853.875000 13.978080 
# 6 vertices

vt 0.0 1.000000 0.0
vt 0.0 0.788522 0.0
vt 0.204372 0.000019 0.0
vt 0.204375 0.788516 0.0
vt 0.997873 0.999986 0.0
vt 1.000000 0.0 0.0
# 6 texture vertices

vn  0.932603 0.360904 0.0 
vn  0.933414 0.358799 -0.000764 
vn  0.933632 0.358234 0.0 
# 3 normals

usemtl surface

o IndexedFaceSet
g IndexedFaceSet

s off
f 2/1/1 4/2/1 3/4/1
f 3/4/2 5/6/2 1/5/2
f 5/6/3 3/4/3 6/3/3
f 3/4/1 1/5/1 2/1/1
# 4 polygons

# Coordinates for object 'IndexedFaceSet #1'
v  201790.796875 445869.062500 25.527069 
v  201790.875000 445869.093750 19.056095 
v  201791.437500 445867.375000 25.527069 
v  201791.515625 445867.406250 19.056099 
# 4 vertices

vt 0.0 1.000000 0.0
vt 0.0 0.000112 0.0
vt 0.999976 0.0 0.0
vt 1.000000 0.999892 0.0
# 4 texture vertices

vn  -0.934820 -0.354885 -0.013000 
# 1 normals

usemtl surface__2

o IndexedFaceSet__1_0
g IndexedFaceSet__1_0

s off
f 8/10/4 10/9/4 7/7/4
f 9/8/4 7/7/4 10/9/4
# 2 polygons

# Coordinates for object 'IndexedFaceSet #2'
v  201790.796875 445869.062500 25.527069 
v  201790.875000 445869.093750 19.056095 
v  201804.375000 445874.281250 25.655054 
v  201804.453125 445874.312500 19.184080 
# 4 vertices

vt 0.0 0.999919 0.0
vt 0.000034 0.0 0.0
vt 0.999976 0.000052 0.0
vt 1.000000 1.000000 0.0
# 4 texture vertices

vn  -0.358765 0.933428 0.000176 
# 1 normals

usemtl surface__3

o IndexedFaceSet__2_0
g IndexedFaceSet__2_0

s off
f 11/11/5 13/14/5 12/12/5
f 14/13/5 12/12/5 13/14/5
# 2 polygons

# Coordinates for object 'IndexedFaceSet #3'
v  201790.796875 445869.062500 25.527069 
v  201791.437500 445867.375000 25.527069 
v  201804.375000 445874.281250 25.655054 
v  201805.031250 445872.593750 25.655054 
# 4 vertices

vt 0.0 0.0 0.0
vt 0.0 1.000000 0.0
vt 0.999979 0.0 0.0
vt 1.000000 1.000000 0.0
# 4 texture vertices

vn  -0.008217 -0.003119 0.999961 
vn  -0.008200 -0.003189 0.999961 
# 2 normals

usemtl surface__4

o IndexedFaceSet__3_0
g IndexedFaceSet__3_0

s off
f 15/15/6 16/17/6 18/18/6
f 18/18/7 17/16/7 15/15/7
# 2 polygons

# Coordinates for object 'IndexedFaceSet #4'
v  201791.437500 445867.375000 25.527069 
v  201791.515625 445867.406250 19.056099 
v  201805.031250 445872.593750 25.655054 
v  201805.109375 445872.625000 19.184082 
# 4 vertices

vt 0.0 0.999828 0.0
vt 0.001774 0.0 0.0
vt 0.998211 1.000000 0.0
vt 1.000000 0.000079 0.0
# 4 texture vertices

vn  0.358405 -0.933566 -0.000181 
# 1 normals

usemtl surface__5

o IndexedFaceSet__4_0
g IndexedFaceSet__4_0

s off
f 21/21/8 19/19/8 20/20/8
f 20/20/8 22/22/8 21/21/8
# 2 polygons

# Coordinates for object 'IndexedFaceSet #5'
v  201790.875000 445869.093750 19.056095 
v  201791.515625 445867.406250 19.056099 
v  201804.453125 445874.312500 19.184080 
v  201805.109375 445872.625000 19.184082 
# 4 vertices

vt 0.0 0.997033 0.0
vt 0.0 0.0 0.0
vt 0.999984 1.000000 0.0
vt 1.000000 0.003093 0.0
# 4 texture vertices

vn  0.008200 0.003188 -0.999961 
vn  0.008218 0.003117 -0.999961 
# 2 normals

usemtl surface__6

o IndexedFaceSet__5_0
g IndexedFaceSet__5_0

s off
f 25/23/9 26/24/9 23/25/9
f 24/26/10 23/25/10 26/24/10
# 2 polygons

# Coordinates for object 'IndexedFaceSet #6'
v  201804.375000 445874.281250 25.655054 
v  201804.453125 445874.312500 19.184080 
v  201805.031250 445872.593750 25.655054 
v  201805.109375 445872.625000 19.184082 
# 4 vertices

vt 0.0 1.000000 0.0
vt 0.0 0.000112 0.0
vt 0.999976 0.0 0.0
vt 1.000000 0.999892 0.0
# 4 texture vertices

vn  0.931926 0.362416 0.013001 
# 1 normals

usemtl surface__2

o IndexedFaceSet__6_0
g IndexedFaceSet__6_0

s off
f 27/27/11 29/28/11 30/29/11
f 30/29/11 28/30/11 27/27/11
# 2 polygons

# Coordinates for object 'IndexedFaceSet #7'
v  201783.140625 445867.187500 -0.478214 
v  201783.140625 445867.187500 17.701521 
v  201784.906250 445862.625000 13.978073 
v  201784.906250 445862.625000 17.701519 
v  201791.453125 445845.562500 -0.517218 
v  201791.453125 445845.562500 13.978073 
# 6 vertices

vt 0.0 1.000000 0.0
vt 0.0 0.788522 0.0
vt 0.204372 0.000019 0.0
vt 0.204375 0.788516 0.0
vt 0.997873 0.999986 0.0
vt 1.000000 0.0 0.0
# 6 texture vertices

vn  -0.933632 -0.358234 0.0 
vn  -0.933414 -0.358799 0.000764 
vn  -0.932603 -0.360904 0.0 
# 3 normals

usemtl surface

o IndexedFaceSet__7_0
g IndexedFaceSet__7_0

s off
f 31/35/13 35/36/13 33/34/13
f 33/34/12 35/36/12 36/33/12
f 31/35/14 33/34/14 32/31/14
f 33/34/14 34/32/14 32/31/14
# 4 polygons

# Coordinates for object 'IndexedFaceSet #8'
v  201783.140625 445867.187500 -0.478214 
v  201783.140625 445867.187500 17.701521 
v  201804.734375 445875.500000 -0.478206 
v  201804.734375 445875.500000 17.701527 
# 4 vertices

vt 0.0 0.0 0.0
vt 0.000055 0.999051 0.0
vt 0.999906 0.000636 0.0
vt 1.000000 1.000000 0.0
# 4 texture vertices

vn  -0.359251 0.933241 0.0 
# 1 normals

usemtl surface__7

o IndexedFaceSet__8_0
g IndexedFaceSet__8_0

s off
f 38/40/15 40/38/15 37/39/15
f 39/37/15 37/39/15 40/38/15
# 2 polygons

# Coordinates for object 'IndexedFaceSet #9'
v  201783.140625 445867.187500 17.701521 
v  201784.906250 445862.625000 17.701519 
v  201804.734375 445875.500000 17.701527 
v  201806.500000 445870.937500 17.701527 
# 4 vertices

vt 0.0 0.0 0.0
vt 0.0 1.000000 0.0
vt 1.000000 0.0 0.0
vt 1.000000 1.000000 0.0
# 4 texture vertices

vn  0.0 0.0 1.0 
# 1 normals

usemtl surface__8

o IndexedFaceSet__9_0
g IndexedFaceSet__9_0

s off
f 41/41/16 42/43/16 43/42/16
f 44/44/16 43/42/16 42/43/16
# 2 polygons

# Coordinates for object 'IndexedFaceSet #10'
v  201784.906250 445862.625000 13.978073 
v  201784.906250 445862.625000 17.701519 
v  201806.500000 445870.937500 13.978082 
v  201806.500000 445870.937500 17.701527 
# 4 vertices

vt 0.0 0.001207 0.0
vt 0.000022 1.000000 0.0
vt 0.999979 0.0 0.0
vt 1.000000 0.999071 0.0
# 4 texture vertices

vn  0.359251 -0.933241 0.0 
# 1 normals

usemtl surface__9

o IndexedFaceSet__10_0
g IndexedFaceSet__10_0

s off
f 48/48/17 46/46/17 45/45/17
f 45/45/17 47/47/17 48/48/17
# 2 polygons

# Coordinates for object 'IndexedFaceSet #11'
v  201784.906250 445862.625000 13.978073 
v  201791.453125 445845.562500 13.978073 
v  201806.500000 445870.937500 13.978082 
v  201813.046875 445853.875000 13.978080 
# 4 vertices

vt 0.0 0.0 0.0
vt 0.0 1.000000 0.0
vt 1.000000 0.0 0.0
vt 1.000000 1.000000 0.0
# 4 texture vertices

vn  0.0 0.0 1.0 
# 1 normals

usemtl surface__8

o IndexedFaceSet__11_0
g IndexedFaceSet__11_0

s off
f 49/49/18 50/51/18 51/50/18
f 52/52/18 51/50/18 50/51/18
# 2 polygons

# Coordinates for object 'IndexedFaceSet #12'
v  201791.453125 445845.562500 -0.517218 
v  201791.453125 445845.562500 13.978073 
v  201813.046875 445853.875000 -0.517207 
v  201813.046875 445853.875000 13.978080 
# 4 vertices

vt 0.0 0.000852 0.0
vt 0.000105 1.000000 0.0
vt 0.999929 0.0 0.0
vt 1.000000 0.999589 0.0
# 4 texture vertices

vn  0.359251 -0.933241 0.0 
# 1 normals

usemtl surface__10

o IndexedFaceSet__12_0
g IndexedFaceSet__12_0

s off
f 56/56/19 54/54/19 53/53/19
f 53/53/19 55/55/19 56/56/19
# 2 polygons

# Coordinates for object 'IndexedFaceSet #13'
v  201793.437500 445868.562500 17.379932 
v  201793.437500 445868.562500 19.184082 
v  201803.781250 445872.531250 17.379932 
v  201803.781250 445872.531250 19.184080 
# 4 vertices

vt 0.0 0.002338 0.0
vt 0.0 1.000000 0.0
vt 0.999998 0.0 0.0
vt 1.000000 0.997657 0.0
# 4 texture vertices

vn  0.358223 -0.933636 0.0 
# 1 normals

usemtl surface__11

o IndexedFaceSet__13_0
g IndexedFaceSet__13_0

s off
f 60/60/20 58/58/20 59/59/20
f 57/57/20 59/59/20 58/58/20
# 2 polygons

# Coordinates for object 'IndexedFaceSet #14'
v  201793.062500 445869.531250 17.379932 
v  201793.062500 445869.531250 19.184082 
v  201793.437500 445868.562500 17.379932 
v  201793.437500 445868.562500 19.184082 
# 4 vertices

vt 0.0 0.000180 0.0
vt 0.0 1.000000 0.0
vt 0.999986 0.0 0.0
vt 1.000000 0.999813 0.0
# 4 texture vertices

vn  -0.932568 -0.360994 0.0 
# 1 normals

usemtl surface__12

o IndexedFaceSet__14_0
g IndexedFaceSet__14_0

s off
f 61/64/21 63/63/21 64/61/21
f 64/61/21 62/62/21 61/64/21
# 2 polygons

# Coordinates for object 'IndexedFaceSet #15'
v  201793.062500 445869.531250 17.379932 
v  201793.062500 445869.531250 19.184082 
v  201803.390625 445873.500000 17.379930 
v  201803.390625 445873.500000 19.184080 
# 4 vertices

vt 0.0 0.0 0.0
vt 0.000030 0.994600 0.0
vt 0.999959 0.005089 0.0
vt 1.000000 1.000000 0.0
# 4 texture vertices

vn  -0.358695 0.933455 0.0 
# 1 normals

usemtl surface__13

o IndexedFaceSet__15_0
g IndexedFaceSet__15_0

s off
f 68/66/22 67/65/22 66/68/22
f 65/67/22 66/68/22 67/65/22
# 2 polygons

# Coordinates for object 'IndexedFaceSet #16'
v  201803.390625 445873.500000 17.379930 
v  201803.390625 445873.500000 19.184080 
v  201803.781250 445872.531250 17.379932 
v  201803.781250 445872.531250 19.184080 
# 4 vertices

vt 0.0 0.000180 0.0
vt 0.0 1.000000 0.0
vt 0.999986 0.0 0.0
vt 1.000000 0.999813 0.0
# 4 texture vertices

vn  0.927441 0.373968 0.0 
# 1 normals

usemtl surface__12

o IndexedFaceSet__16_0
g IndexedFaceSet__16_0

s off
f 70/70/23 72/69/23 69/72/23
f 71/71/23 69/72/23 72/69/23
# 2 polygons
