# Converted by Daum Communications 
# Date/time of export: 08/22/2013 14:53:52
#
# Bounding box of geometry = (202053,445153,-0.631612) to (202076,445172,15.4619).

mtllib 4623511.mtl

# Coordinates for object 'IndexedFaceSet'
v  202072.000000 445171.593750 -0.631612 
v  202072.000000 445171.593750 15.461287 
v  202076.281250 445159.718750 -0.612032 
v  202076.281250 445159.718750 15.461288 
# 4 vertices

vt 0.0 0.998065 0.0
vt 0.001201 0.0 0.0
vt 0.999991 0.001942 0.0
vt 1.000000 1.000000 0.0
# 4 texture vertices

vn  0.940729 0.339158 0.0 
# 1 normals

usemtl surface

o IndexedFaceSet
g IndexedFaceSet

s off
f 2/1/1 4/2/1 3/3/1
f 3/3/1 1/4/1 2/1/1
# 2 polygons

# Coordinates for object 'IndexedFaceSet #1'
v  202072.000000 445171.593750 15.461287 
v  202072.109375 445171.656250 15.461288 
v  202076.312500 445159.625000 15.461873 
v  202076.421875 445159.656250 15.461873 
# 4 vertices

vt 0.0 0.0 0.0
# 1 texture vertices

vn  -0.000038 0.000035 1.0 
vn  -0.000013 0.000044 1.0 
# 2 normals

usemtl surface__2

o IndexedFaceSet__1_0
g IndexedFaceSet__1_0

s off
f 7/5/3 8/5/3 5/5/3
f 6/5/2 5/5/2 8/5/2
# 2 polygons

# Coordinates for object 'IndexedFaceSet #2'
v  202052.906250 445164.718750 -0.631605 
v  202052.906250 445164.718750 15.461291 
v  202057.187500 445152.843750 -0.612028 
v  202057.187500 445152.843750 15.461291 
# 4 vertices

vt 0.0 0.998065 0.0
vt 0.001201 0.0 0.0
vt 0.999991 0.001942 0.0
vt 1.000000 1.000000 0.0
# 4 texture vertices

vn  -0.940729 -0.339158 0.0 
# 1 normals

usemtl surface

o IndexedFaceSet__2_0
g IndexedFaceSet__2_0

s off
f 9/9/4 11/8/4 10/6/4
f 12/7/4 10/6/4 11/8/4
# 2 polygons

# Coordinates for object 'IndexedFaceSet #3'
v  202052.906250 445164.718750 -0.631605 
v  202052.906250 445164.718750 15.461291 
v  202072.000000 445171.593750 -0.631612 
v  202072.000000 445171.593750 15.461287 
# 4 vertices

vt 0.0 1.000000 0.0
vt 0.000846 0.0 0.0
vt 0.999205 0.999994 0.0
vt 1.000000 0.0 0.0
# 4 texture vertices

vn  -0.338774 0.940868 0.0 
# 1 normals

usemtl surface__3

o IndexedFaceSet__3_0
g IndexedFaceSet__3_0

s off
f 14/10/5 16/11/5 13/12/5
f 15/13/5 13/12/5 16/11/5
# 2 polygons

# Coordinates for object 'IndexedFaceSet #4'
v  202052.906250 445164.718750 15.461291 
v  202057.187500 445152.843750 15.461291 
v  202072.000000 445171.593750 15.461287 
v  202076.281250 445159.718750 15.461288 
# 4 vertices

vt 0.0 0.500000 0.0
vt 0.0 1.000000 0.0
vt 1.000000 0.500000 0.0
vt 1.000000 1.000000 0.0
# 4 texture vertices

vn  0.0 0.0 1.0 
# 1 normals

usemtl surface__4

o IndexedFaceSet__4_0
g IndexedFaceSet__4_0

s off
f 17/16/6 18/17/6 19/14/6
f 20/15/6 19/14/6 18/17/6
# 2 polygons

# Coordinates for object 'IndexedFaceSet #5'
v  202057.187500 445152.843750 -0.612028 
v  202057.187500 445152.843750 15.461291 
v  202076.281250 445159.718750 -0.612032 
v  202076.281250 445159.718750 15.461288 
# 4 vertices

vt 0.0 0.000116 0.0
vt 0.000402 1.000000 0.0
vt 0.999923 0.999823 0.0
vt 1.000000 0.0 0.0
# 4 texture vertices

vn  0.338774 -0.940868 0.0 
# 1 normals

usemtl surface__5

o IndexedFaceSet__5_0
g IndexedFaceSet__5_0

s off
f 24/21/7 22/20/7 23/18/7
f 21/19/7 23/18/7 22/20/7
# 2 polygons

# Coordinates for object 'IndexedFaceSet #6'
v  202057.234375 445152.750000 15.054233 
v  202057.234375 445152.750000 15.441570 
v  202076.312500 445159.625000 15.054228 
v  202076.312500 445159.625000 15.461873 
# 4 vertices

vt 0.0 0.0 0.0
vt 0.0 1.000000 0.0
vt 1.000000 0.0 0.0
vt 1.000000 0.950104 0.0
# 4 texture vertices

vn  0.339020 -0.940779 0.0 
# 1 normals

usemtl surface__6

o IndexedFaceSet__6_0
g IndexedFaceSet__6_0

s off
f 27/23/8 28/22/8 26/24/8
f 26/24/8 25/25/8 27/23/8
# 2 polygons

# Coordinates for object 'IndexedFaceSet #7'
v  202057.187500 445152.843750 15.461291 
v  202057.234375 445152.750000 15.441570 
v  202076.281250 445159.718750 15.461288 
v  202076.312500 445159.625000 15.461873 
# 4 vertices

vt 0.0 0.500005 0.0
vt 0.0 1.000000 0.0
vt 1.000000 0.499070 0.0
vt 1.000000 0.993212 0.0
# 4 texture vertices

vn  -0.002956 0.005250 0.999982 
vn  0.063065 -0.175148 0.982520 
# 2 normals

usemtl surface__4

o IndexedFaceSet__7_0
g IndexedFaceSet__7_0

s off
f 29/27/10 30/26/10 31/29/10
f 32/28/9 31/29/9 30/26/9
# 2 polygons

# Coordinates for object 'IndexedFaceSet #8'
v  202057.187500 445152.843750 15.046456 
v  202057.234375 445152.750000 15.054233 
v  202076.312500 445159.625000 15.054228 
# 3 vertices

vt 0.0 0.0 0.0
vt 0.999874 1.000000 0.0
vt 1.000000 0.000523 0.0
# 3 texture vertices

vn  -0.025257 0.070088 0.997221 
# 1 normals

usemtl surface__7

o IndexedFaceSet__8_0
g IndexedFaceSet__8_0

s off
f 34/31/11 35/30/11 33/32/11
# 1 polygons

# Coordinates for object 'IndexedFaceSet #9'
v  202057.187500 445152.843750 15.046456 
v  202057.187500 445152.843750 15.461291 
v  202057.234375 445152.750000 15.054233 
v  202057.234375 445152.750000 15.441570 
# 4 vertices

vt 0.0 0.833684 0.0
vt 0.066374 0.0 0.0
vt 0.999895 0.157122 0.0
vt 1.000000 1.000000 0.0
# 4 texture vertices

vn  0.894427 0.447214 0.0 
# 1 normals

usemtl surface__8

o IndexedFaceSet__9_0
g IndexedFaceSet__9_0

s off
f 37/33/12 39/34/12 36/36/12
f 38/35/12 36/36/12 39/34/12
# 2 polygons

# Coordinates for object 'IndexedFaceSet #10'
v  202072.109375 445171.656250 -0.631612 
v  202072.109375 445171.656250 15.461288 
v  202072.312500 445171.093750 -0.631612 
v  202072.312500 445171.093750 15.054228 
v  202076.390625 445159.781250 15.461288 
v  202076.421875 445159.656250 15.054230 
v  202076.421875 445159.656250 15.461873 
# 7 vertices

vt 0.0 0.974670 0.0
vt 0.0 1.000000 0.0
vt 0.010041 0.999963 0.0
vt 0.953814 0.0 0.0
vt 0.953816 0.974669 0.0
vt 0.999998 0.0 0.0
vt 1.000000 0.999963 0.0
# 7 texture vertices

vn  0.940554 0.339644 0.0 
vn  0.940631 0.337959 -0.031568 
vn  0.940729 0.339158 0.000760 
vn  0.970142 0.242536 0.0 
# 4 normals

usemtl surface__6

o IndexedFaceSet__10_0
g IndexedFaceSet__10_0

s off
f 44/39/16 46/38/16 45/37/16
f 41/43/15 44/39/15 43/41/15
f 45/37/14 43/41/14 44/39/14
f 42/40/13 40/42/13 43/41/13
f 43/41/13 40/42/13 41/43/13
# 5 polygons

# Coordinates for object 'IndexedFaceSet #11'
v  202072.203125 445171.062500 -0.631610 
v  202072.203125 445171.062500 15.054227 
v  202072.312500 445171.093750 -0.631612 
v  202072.312500 445171.093750 15.054228 
# 4 vertices

vt 0.0 1.000000 0.0
vt 0.000698 0.0 0.0
vt 0.998883 1.000000 0.0
vt 0.999583 0.0 0.0
# 4 texture vertices

vn  0.274721 -0.961524 0.0 
# 1 normals

usemtl surface__6

o IndexedFaceSet__11_0
g IndexedFaceSet__11_0

s off
f 50/46/17 48/44/17 47/45/17
f 47/45/17 49/47/17 50/46/17
# 2 polygons

# Coordinates for object 'IndexedFaceSet #12'
v  202072.203125 445171.062500 15.054227 
v  202072.312500 445171.093750 15.054228 
v  202076.312500 445159.625000 15.054228 
v  202076.421875 445159.656250 15.054230 
# 4 vertices

vt 0.0 0.0 0.0
vt 0.0 0.999289 0.0
vt 1.000000 0.000711 0.0
vt 1.000000 1.000000 0.0
# 4 texture vertices

vn  0.000008 0.000003 -1.0 
# 1 normals

usemtl surface__9

o IndexedFaceSet__12_0
g IndexedFaceSet__12_0

s off
f 51/50/18 52/51/18 54/49/18
f 54/49/18 53/48/18 51/50/18
# 2 polygons

# Coordinates for object 'IndexedFaceSet #13'
v  202076.312500 445159.625000 15.054228 
v  202076.312500 445159.625000 15.461873 
v  202076.421875 445159.656250 15.054230 
v  202076.421875 445159.656250 15.461873 
# 4 vertices

vt 0.0 0.0 0.0
vt 0.0 1.000000 0.0
vt 0.999985 0.0 0.0
vt 1.000000 0.999999 0.0
# 4 texture vertices

vn  0.274721 -0.961524 0.0 
# 1 normals

usemtl surface__6

o IndexedFaceSet__13_0
g IndexedFaceSet__13_0

s off
f 58/55/19 56/53/19 57/54/19
f 55/52/19 57/54/19 56/53/19
# 2 polygons

# Coordinates for object 'IndexedFaceSet #14'
v  202072.000000 445171.593750 -0.631612 
v  202072.000000 445171.593750 15.461287 
v  202072.109375 445171.656250 -0.631612 
v  202072.109375 445171.656250 15.461288 
# 4 vertices

vt 0.0 1.000000 0.0
vt 0.0 0.005426 0.0
vt 0.999989 0.987828 0.0
vt 1.000000 0.0 0.0
# 4 texture vertices

vn  -0.496139 0.868243 0.0 
# 1 normals

usemtl surface__10

o IndexedFaceSet__14_0
g IndexedFaceSet__14_0

s off
f 60/56/20 62/57/20 59/58/20
f 61/59/20 59/58/20 62/57/20
# 2 polygons
