# Converted by Daum Communications 
# Date/time of export: 08/22/2013 14:53:51
#
# Bounding box of geometry = (201969,445374,-1.07643) to (201994,445394,15.7965).

mtllib 4623508.mtl

# Coordinates for object 'IndexedFaceSet'
v  201989.687500 445394.281250 -1.076418 
v  201989.687500 445394.281250 15.796527 
v  201994.484375 445381.687500 -1.076423 
v  201994.484375 445381.687500 15.796528 
# 4 vertices

vt 0.0 0.0 0.0
vt 0.0 1.000000 0.0
vt 0.999985 0.000624 0.0
vt 1.000000 0.999837 0.0
# 4 texture vertices

vn  0.934506 0.355947 0.0 
# 1 normals

usemtl surface

o IndexedFaceSet
g IndexedFaceSet

s off
f 2/2/1 4/1/1 3/3/1
f 3/3/1 1/4/1 2/2/1
# 2 polygons

# Coordinates for object 'IndexedFaceSet #1'
v  201984.812500 445392.406250 13.221804 
v  201984.812500 445392.406250 15.796528 
v  201989.609375 445379.812500 13.221803 
v  201989.609375 445379.812500 15.796530 
# 4 vertices

vt 0.0 0.999999 0.0
vt 0.000102 0.0 0.0
vt 0.999879 0.0 0.0
vt 1.000000 0.999998 0.0
# 4 texture vertices

vn  -0.934506 -0.355947 0.0 
# 1 normals

usemtl surface__2

o IndexedFaceSet__1_0
g IndexedFaceSet__1_0

s off
f 6/5/2 5/6/2 7/7/2
f 7/7/2 8/8/2 6/5/2
# 2 polygons

# Coordinates for object 'IndexedFaceSet #2'
v  201984.812500 445392.406250 -1.076416 
v  201984.812500 445392.406250 15.796528 
v  201989.687500 445394.281250 -1.076418 
v  201989.687500 445394.281250 15.796527 
# 4 vertices

vt 0.0 1.000000 0.0
vt 0.000279 0.000295 0.0
vt 0.999803 0.999645 0.0
vt 1.000000 0.0 0.0
# 4 texture vertices

vn  -0.358979 0.933346 0.0 
# 1 normals

usemtl surface__3

o IndexedFaceSet__2_0
g IndexedFaceSet__2_0

s off
f 10/9/3 12/10/3 11/12/3
f 11/12/3 9/11/3 10/9/3
# 2 polygons

# Coordinates for object 'IndexedFaceSet #3'
v  201984.812500 445392.406250 15.796528 
v  201989.609375 445379.812500 15.796530 
v  201989.687500 445394.281250 15.796527 
v  201994.484375 445381.687500 15.796528 
# 4 vertices

vt 0.0 0.0 0.0
vt 0.0 1.000000 0.0
vt 1.000000 0.0 0.0
vt 1.000000 1.000000 0.0
# 4 texture vertices

vn  0.0 0.0 1.0 
# 1 normals

usemtl surface__4

o IndexedFaceSet__3_0
g IndexedFaceSet__3_0

s off
f 13/16/4 14/14/4 16/13/4
f 16/13/4 15/15/4 13/16/4
# 2 polygons

# Coordinates for object 'IndexedFaceSet #4'
v  201989.609375 445379.812500 15.796530 
v  201989.609375 445379.843750 -1.076421 
v  201994.484375 445381.687500 -1.076423 
v  201994.484375 445381.687500 15.796528 
# 4 vertices

vt 0.0 0.000166 0.0
vt 0.000211 1.000000 0.0
vt 0.999778 0.0 0.0
vt 1.000000 0.999887 0.0
# 4 texture vertices

vn  0.353750 -0.935338 -0.001732 
vn  0.358979 -0.933346 0.0 
# 2 normals

usemtl surface__5

o IndexedFaceSet__4_0
g IndexedFaceSet__4_0

s off
f 20/18/6 17/17/6 19/20/6
f 18/19/5 19/20/5 17/17/5
# 2 polygons

# Coordinates for object 'IndexedFaceSet #5'
v  201969.078125 445386.406250 -1.076422 
v  201969.078125 445386.406250 13.221806 
v  201973.875000 445373.812500 -1.076427 
v  201973.890625 445373.812500 13.221804 
# 4 vertices

vt 0.0 0.0 0.0
vt 0.0 1.000000 0.0
vt 0.999985 0.000624 0.0
vt 1.000000 0.999837 0.0
# 4 texture vertices

vn  -0.934506 -0.355947 0.0 
vn  -0.934120 -0.356959 0.001021 
# 2 normals

usemtl surface

o IndexedFaceSet__5_0
g IndexedFaceSet__5_0

s off
f 21/24/7 23/23/7 22/22/7
f 24/21/8 22/22/8 23/23/8
# 2 polygons

# Coordinates for object 'IndexedFaceSet #6'
v  201969.078125 445386.406250 -1.076422 
v  201969.078125 445386.406250 13.221806 
v  201984.812500 445392.406250 -1.076416 
v  201984.812500 445392.406250 13.221804 
# 4 vertices

vt 0.0 0.0 0.0
vt 0.0 1.000000 0.0
vt 0.999985 0.000624 0.0
vt 1.000000 0.999837 0.0
# 4 texture vertices

vn  -0.356304 0.934370 0.0 
# 1 normals

usemtl surface__6

o IndexedFaceSet__6_0
g IndexedFaceSet__6_0

s off
f 26/26/9 28/25/9 25/28/9
f 27/27/9 25/28/9 28/25/9
# 2 polygons

# Coordinates for object 'IndexedFaceSet #7'
v  201969.078125 445386.406250 13.221806 
v  201973.890625 445373.812500 13.221804 
v  201984.812500 445392.406250 13.221804 
v  201989.609375 445379.812500 13.221803 
# 4 vertices

vt 0.0 0.0 0.0
vt 0.0 1.000000 0.0
vt 1.000000 0.0 0.0
vt 1.000000 1.000000 0.0
# 4 texture vertices

vn  0.0 0.0 1.0 
# 1 normals

usemtl surface__7

o IndexedFaceSet__7_0
g IndexedFaceSet__7_0

s off
f 29/30/10 30/29/10 31/32/10
f 32/31/10 31/32/10 30/29/10
# 2 polygons

# Coordinates for object 'IndexedFaceSet #8'
v  201973.875000 445373.812500 -1.076427 
v  201973.890625 445373.812500 13.221804 
v  201989.609375 445379.812500 13.221803 
v  201989.609375 445379.843750 -1.076421 
# 4 vertices

vt 0.0 0.0 0.0
vt 0.0 1.000000 0.0
vt 0.999985 0.000624 0.0
vt 1.000000 0.999837 0.0
# 4 texture vertices

vn  0.356612 -0.934250 -0.002042 
vn  0.357923 -0.933751 -0.000391 
# 2 normals

usemtl surface

o IndexedFaceSet__8_0
g IndexedFaceSet__8_0

s off
f 35/33/11 34/34/11 36/35/11
f 33/36/12 36/35/12 34/34/12
# 2 polygons
