# Converted by Daum Communications 
# Date/time of export: 08/22/2013 14:53:52
#
# Bounding box of geometry = (201943,445440,-0.471632) to (201969,445458,13.5055).

mtllib 4623513.mtl

# Coordinates for object 'IndexedFaceSet'
v  201965.234375 445458.156250 -0.471632 
v  201965.234375 445458.156250 11.528114 
v  201968.968750 445448.468750 -0.459412 
v  201968.968750 445448.468750 11.528113 
# 4 vertices

vt 0.0 1.000000 0.0
vt 0.0 0.000094 0.0
vt 0.998987 0.0 0.0
vt 1.000000 0.999900 0.0
# 4 texture vertices

vn  0.933074 0.359685 0.0 
# 1 normals

usemtl surface

o IndexedFaceSet
g IndexedFaceSet

s off
f 2/1/1 4/2/1 3/3/1
f 3/3/1 1/4/1 2/1/1
# 2 polygons

# Coordinates for object 'IndexedFaceSet #1'
v  201956.171875 445445.031250 11.699231 
v  201956.171875 445445.031250 12.621962 
v  201959.343750 445446.250000 12.621962 
v  201959.343750 445446.250000 13.505540 
v  201962.421875 445447.437500 11.745068 
v  201962.421875 445447.437500 13.505541 
# 6 vertices

vt 0.0 0.986868 0.0
vt 0.001897 0.0 0.0
vt 0.491412 1.000000 0.0
vt 0.492374 0.504731 0.0
vt 0.999024 0.518259 0.0
vt 1.000000 0.000977 0.0
# 6 texture vertices

vn  0.358671 -0.933464 0.0 
vn  0.359307 -0.933216 -0.002513 
vn  0.359931 -0.932979 0.0 
# 3 normals

usemtl surface__2

o IndexedFaceSet__1_0
g IndexedFaceSet__1_0

s off
f 9/6/3 7/8/3 5/10/3
f 7/8/2 6/9/2 5/10/2
f 9/6/4 10/5/4 7/8/4
f 8/7/4 7/8/4 10/5/4
# 4 polygons

# Coordinates for object 'IndexedFaceSet #2'
v  201943.375000 445449.750000 -0.471628 
v  201943.375000 445449.750000 11.528120 
v  201947.109375 445440.031250 -0.459407 
v  201947.109375 445440.031250 11.528118 
# 4 vertices

vt 0.0 0.998802 0.0
vt 0.001025 0.0 0.0
vt 0.999997 1.000000 0.0
vt 1.000000 0.001213 0.0
# 4 texture vertices

vn  -0.933462 -0.358677 0.0 
# 1 normals

usemtl surface__3

o IndexedFaceSet__2_0
g IndexedFaceSet__2_0

s off
f 11/13/5 13/14/5 12/11/5
f 14/12/5 12/11/5 13/14/5
# 2 polygons

# Coordinates for object 'IndexedFaceSet #3'
v  201943.375000 445449.750000 -0.471628 
v  201943.375000 445449.750000 11.528120 
v  201965.234375 445458.156250 -0.471632 
v  201965.234375 445458.156250 11.528114 
# 4 vertices

vt 0.0 1.000000 0.0
vt 0.001549 0.000089 0.0
vt 0.999119 0.999845 0.0
vt 1.000000 0.0 0.0
# 4 texture vertices

vn  -0.358934 0.933363 0.0 
# 1 normals

usemtl surface__4

o IndexedFaceSet__3_0
g IndexedFaceSet__3_0

s off
f 16/15/6 18/16/6 17/18/6
f 17/18/6 15/17/6 16/15/6
# 2 polygons

# Coordinates for object 'IndexedFaceSet #4'
v  201943.375000 445449.750000 11.528120 
v  201947.109375 445440.031250 11.528118 
v  201965.234375 445458.156250 11.528114 
v  201968.968750 445448.468750 11.528113 
# 4 vertices

vt 0.0 0.0 0.0
vt 0.0 1.000000 0.0
vt 0.500000 0.0 0.0
vt 0.500000 1.000000 0.0
# 4 texture vertices

vn  0.0 0.0 1.0 
# 1 normals

usemtl surface__5

o IndexedFaceSet__4_0
g IndexedFaceSet__4_0

s off
f 19/22/7 20/20/7 21/21/7
f 22/19/7 21/21/7 20/20/7
# 2 polygons

# Coordinates for object 'IndexedFaceSet #5'
v  201947.109375 445440.031250 -0.459407 
v  201947.109375 445440.031250 11.528118 
v  201968.968750 445448.468750 -0.459412 
v  201968.968750 445448.468750 11.528113 
# 4 vertices

vt 0.0 0.000135 0.0
vt 0.000522 1.000000 0.0
vt 0.998934 0.0 0.0
vt 1.000000 0.999912 0.0
# 4 texture vertices

vn  0.360096 -0.932915 0.0 
# 1 normals

usemtl surface__6

o IndexedFaceSet__5_0
g IndexedFaceSet__5_0

s off
f 26/24/8 24/23/8 23/25/8
f 23/25/8 25/26/8 26/24/8
# 2 polygons

# Coordinates for object 'IndexedFaceSet #6'
v  201953.046875 445453.156250 11.699229 
v  201953.046875 445453.156250 12.621959 
v  201956.234375 445454.375000 12.621958 
v  201956.234375 445454.375000 13.505537 
v  201959.312500 445455.562500 11.745064 
v  201959.312500 445455.562500 13.505537 
# 6 vertices

vt 0.0 0.985507 0.0
vt 0.001711 0.0 0.0
vt 0.491567 1.000000 0.0
vt 0.492364 0.505300 0.0
vt 0.999250 0.520175 0.0
vt 1.000000 0.003448 0.0
# 6 texture vertices

vn  -0.359931 0.932979 0.0 
vn  -0.358541 0.933497 0.005581 
vn  -0.357137 0.934052 0.0 
# 3 normals

usemtl surface__7

o IndexedFaceSet__6_0
g IndexedFaceSet__6_0

s off
f 32/27/9 29/30/9 30/29/9
f 29/30/9 32/27/9 31/28/9
f 27/32/11 28/31/11 29/30/11
f 27/32/10 29/30/10 31/28/10
# 4 polygons

# Coordinates for object 'IndexedFaceSet #7'
v  201953.046875 445453.156250 11.699229 
v  201953.046875 445453.156250 12.621959 
v  201956.171875 445445.031250 11.699231 
v  201956.171875 445445.031250 12.621962 
# 4 vertices

vt 0.0 0.0 0.0
vt 0.0 0.999986 0.0
vt 0.999987 0.000022 0.0
vt 1.000000 1.000000 0.0
# 4 texture vertices

vn  -0.933346 -0.358979 0.0 
# 1 normals

usemtl surface__8

o IndexedFaceSet__7_0
g IndexedFaceSet__7_0

s off
f 33/36/12 35/35/12 36/33/12
f 36/33/12 34/34/12 33/36/12
# 2 polygons

# Coordinates for object 'IndexedFaceSet #8'
v  201953.046875 445453.156250 12.621959 
v  201956.171875 445445.031250 12.621962 
v  201956.234375 445454.375000 12.621958 
v  201959.343750 445446.250000 12.621962 
# 4 vertices

vt 0.0 0.0 0.0
vt 0.0 1.000000 0.0
vt 1.000000 0.0 0.0
vt 1.000000 1.000000 0.0
# 4 texture vertices

vn  0.0 0.0 1.0 
# 1 normals

usemtl surface__9

o IndexedFaceSet__8_0
g IndexedFaceSet__8_0

s off
f 37/39/13 38/40/13 39/37/13
f 40/38/13 39/37/13 38/40/13
# 2 polygons

# Coordinates for object 'IndexedFaceSet #9'
v  201956.234375 445454.375000 12.621958 
v  201956.234375 445454.375000 13.505537 
v  201959.343750 445446.250000 12.621962 
v  201959.343750 445446.250000 13.505540 
# 4 vertices

vt 0.0 0.0 0.0
vt 0.0 0.999986 0.0
vt 0.999987 0.000022 0.0
vt 1.000000 1.000000 0.0
# 4 texture vertices

vn  -0.933946 -0.357414 0.0 
# 1 normals

usemtl surface__8

o IndexedFaceSet__9_0
g IndexedFaceSet__9_0

s off
f 41/44/14 43/43/14 42/42/14
f 44/41/14 42/42/14 43/43/14
# 2 polygons

# Coordinates for object 'IndexedFaceSet #10'
v  201956.234375 445454.375000 13.505537 
v  201959.312500 445455.562500 13.505537 
v  201959.343750 445446.250000 13.505540 
v  201962.421875 445447.437500 13.505541 
# 4 vertices

vt 0.0 0.0 0.0
vt 0.0 1.000000 0.0
vt 0.999998 1.000000 0.0
vt 1.000000 0.0 0.0
# 4 texture vertices

vn  0.0 0.0 1.0 
# 1 normals

usemtl surface__9

o IndexedFaceSet__10_0
g IndexedFaceSet__10_0

s off
f 45/48/15 47/47/15 46/45/15
f 48/46/15 46/45/15 47/47/15
# 2 polygons

# Coordinates for object 'IndexedFaceSet #11'
v  201959.312500 445455.562500 11.745064 
v  201959.312500 445455.562500 13.505537 
v  201962.421875 445447.437500 11.745068 
v  201962.421875 445447.437500 13.505541 
# 4 vertices

vt 0.0 0.0 0.0
vt 0.0 0.999986 0.0
vt 0.999987 0.000022 0.0
vt 1.000000 1.000000 0.0
# 4 texture vertices

vn  0.933946 0.357414 0.0 
# 1 normals

usemtl surface__8

o IndexedFaceSet__11_0
g IndexedFaceSet__11_0

s off
f 50/52/16 52/50/16 51/49/16
f 51/49/16 49/51/16 50/52/16
# 2 polygons
