# Converted by Daum Communications 
# Date/time of export: 08/22/2013 14:53:52
#
# Bounding box of geometry = (202276,444783,-1.744) to (202307,444810,59.981).

mtllib 4656248.mtl

# Coordinates for object 'IndexedFaceSet'
v  202276.046875 444801.125000 49.725834 
v  202276.609375 444801.781250 49.724728 
v  202276.734375 444801.375000 49.725792 
v  202282.140625 444784.031250 49.773903 
v  202282.468750 444784.156250 49.773891 
v  202282.671875 444783.593750 49.775463 
v  202300.812500 444810.406250 49.723755 
v  202307.250000 444792.375000 49.774475 
# 8 vertices

vt 0.0 0.0 0.0
vt 0.0 0.999999 0.0
vt 0.971933 0.0 0.0
vt 0.971933 0.021075 0.0
vt 0.987162 0.968986 0.0
vt 0.987162 1.000000 0.0
vt 1.000000 0.021364 0.0
vt 1.000000 0.968986 0.0
# 8 texture vertices

vn  -0.000912 0.002487 0.999996 
vn  -0.000856 0.002507 0.999996 
vn  -0.000849 0.002488 0.999997 
vn  -0.000805 0.002372 0.999997 
# 4 normals

usemtl surface

o IndexedFaceSet
g IndexedFaceSet

s off
f 2/3/4 3/4/4 7/1/4
f 8/2/2 7/1/2 3/4/2
f 3/4/2 5/5/2 8/2/2
f 1/7/1 4/8/1 5/5/1
f 5/5/3 6/6/3 8/2/3
f 1/7/2 5/5/2 3/4/2
# 6 polygons

# Coordinates for object 'IndexedFaceSet #1'
v  202276.609375 444801.781250 49.724728 
v  202276.656250 444801.625000 -1.743023 
v  202276.734375 444801.375000 49.725792 
v  202276.781250 444801.250000 -1.741956 
# 4 vertices

vt 0.0 1.000000 0.0
vt 0.0 0.004671 0.0
vt 0.999999 0.995131 0.0
vt 1.000000 0.0 0.0
# 4 texture vertices

vn  -0.955779 -0.294086 0.000022 
vn  -0.948683 -0.316228 -0.000096 
# 2 normals

usemtl surface__2

o IndexedFaceSet__1_0
g IndexedFaceSet__1_0

s off
f 11/9/5 9/10/5 10/12/5
f 10/12/6 12/11/6 11/9/6
# 2 polygons

# Coordinates for object 'IndexedFaceSet #2'
v  202276.609375 444801.781250 49.724728 
v  202276.656250 444801.625000 -1.743023 
v  202300.812500 444810.406250 49.723755 
v  202300.859375 444810.281250 -1.743996 
# 4 vertices

vt 0.0 1.000000 0.0
vt 0.000749 0.001076 0.0
vt 0.999772 0.0 0.0
vt 1.000000 0.999323 0.0
# 4 texture vertices

vn  -0.336758 0.941586 -0.003165 
vn  -0.335680 0.941972 -0.002593 
# 2 normals

usemtl surface__3

o IndexedFaceSet__2_0
g IndexedFaceSet__2_0

s off
f 13/13/8 15/14/8 16/15/8
f 16/15/7 14/16/7 13/13/7
# 2 polygons

# Coordinates for object 'IndexedFaceSet #3'
v  202300.812500 444810.406250 49.723755 
v  202300.859375 444810.281250 -1.743996 
v  202307.250000 444792.375000 49.774475 
v  202307.296875 444792.250000 -1.693269 
# 4 vertices

vt 0.0 1.000000 0.0
vt 0.0 0.000041 0.0
vt 1.000000 0.0 0.0
vt 1.000000 0.999930 0.0
# 4 texture vertices

vn  0.941779 0.336233 0.000041 
# 1 normals

usemtl surface__4

o IndexedFaceSet__3_0
g IndexedFaceSet__3_0

s off
f 20/20/9 18/19/9 17/18/9
f 17/18/9 19/17/9 20/20/9
# 2 polygons

# Coordinates for object 'IndexedFaceSet #4'
v  202282.671875 444783.593750 49.775463 
v  202282.718750 444783.468750 -1.692283 
v  202307.250000 444792.375000 49.774475 
v  202307.296875 444792.250000 -1.693269 
# 4 vertices

vt 0.0 1.000000 0.0
vt 0.000749 0.001076 0.0
vt 0.999772 0.0 0.0
vt 1.000000 0.999323 0.0
# 4 texture vertices

vn  0.336449 -0.941698 0.002594 
# 1 normals

usemtl surface__3

o IndexedFaceSet__4_0
g IndexedFaceSet__4_0

s off
f 23/22/10 21/21/10 24/23/10
f 22/24/10 24/23/10 21/21/10
# 2 polygons

# Coordinates for object 'IndexedFaceSet #5'
v  202282.468750 444784.156250 49.773891 
v  202282.515625 444784.031250 -1.693856 
v  202282.671875 444783.593750 49.775463 
v  202282.718750 444783.468750 -1.692283 
# 4 vertices

vt 0.0 0.999531 0.0
vt 0.000013 0.0 0.0
vt 1.000000 0.000509 0.0
vt 1.000000 1.000000 0.0
# 4 texture vertices

vn  -0.940554 -0.339645 -0.000032 
# 1 normals

usemtl surface__5

o IndexedFaceSet__5_0
g IndexedFaceSet__5_0

s off
f 27/25/11 25/26/11 28/28/11
f 26/27/11 28/28/11 25/26/11
# 2 polygons

# Coordinates for object 'IndexedFaceSet #6'
v  202282.140625 444784.031250 49.773903 
v  202282.187500 444783.906250 -1.693844 
v  202282.468750 444784.156250 49.773891 
v  202282.515625 444784.031250 -1.693856 
# 4 vertices

vt 0.0 0.999531 0.0
vt 0.000013 0.0 0.0
vt 1.000000 0.000509 0.0
vt 1.000000 1.000000 0.0
# 4 texture vertices

vn  0.355994 -0.934485 0.002594 
# 1 normals

usemtl surface__5

o IndexedFaceSet__6_0
g IndexedFaceSet__6_0

s off
f 31/30/12 29/29/12 30/32/12
f 30/32/12 32/31/12 31/30/12
# 2 polygons

# Coordinates for object 'IndexedFaceSet #7'
v  202276.046875 444801.125000 49.725834 
v  202276.093750 444801.000000 -1.741915 
v  202282.140625 444784.031250 49.773903 
v  202282.187500 444783.906250 -1.693844 
# 4 vertices

vt 0.0 1.000000 0.0
vt 0.0 0.000041 0.0
vt 1.000000 0.0 0.0
vt 1.000000 0.999930 0.0
# 4 texture vertices

vn  -0.941936 -0.335791 -0.000042 
# 1 normals

usemtl surface__4

o IndexedFaceSet__7_0
g IndexedFaceSet__7_0

s off
f 35/33/13 33/34/13 36/36/13
f 34/35/13 36/36/13 33/34/13
# 2 polygons

# Coordinates for object 'IndexedFaceSet #8'
v  202276.046875 444801.125000 49.725834 
v  202276.093750 444801.000000 -1.741915 
v  202276.734375 444801.375000 49.725792 
v  202276.781250 444801.250000 -1.741956 
# 4 vertices

vt 0.0 0.008733 0.0
vt 0.0 1.000000 0.0
vt 0.999993 0.991054 0.0
vt 1.000000 0.0 0.0
# 4 texture vertices

vn  -0.341742 0.939790 -0.002594 
# 1 normals

usemtl surface__6

o IndexedFaceSet__8_0
g IndexedFaceSet__8_0

s off
f 37/40/14 39/39/14 38/37/14
f 40/38/14 38/37/14 39/39/14
# 2 polygons

# Coordinates for object 'IndexedFaceSet #9'
v  202275.546875 444801.343750 49.619007 
v  202275.546875 444801.343750 52.205276 
v  202282.031250 444783.156250 49.670082 
v  202282.031250 444783.187500 52.233402 
# 4 vertices

vt 0.0 0.000016 0.0
vt 0.000064 1.000000 0.0
vt 0.999960 0.0 0.0
vt 1.000000 0.991024 0.0
# 4 texture vertices

vn  -0.941921 -0.335811 0.004094 
vn  -0.941742 -0.336336 0.0 
# 2 normals

usemtl surface__7

o IndexedFaceSet__9_0
g IndexedFaceSet__9_0

s off
f 44/44/16 42/42/16 41/41/16
f 41/41/15 43/43/15 44/44/15
# 2 polygons

# Coordinates for object 'IndexedFaceSet #10'
v  202276.312500 444801.593750 49.618973 
v  202276.312500 444801.625000 52.205246 
v  202282.796875 444783.437500 49.670055 
v  202282.796875 444783.437500 52.233368 
# 4 vertices

vt 0.0 0.0 0.0
vt 0.0 0.994039 0.0
vt 0.999991 0.005768 0.0
vt 1.000000 1.000000 0.0
# 4 texture vertices

vn  0.941742 0.336336 0.0 
vn  0.941919 0.335815 -0.004058 
# 2 normals

usemtl surface__8

o IndexedFaceSet__10_0
g IndexedFaceSet__10_0

s off
f 48/46/17 47/45/17 45/47/17
f 45/47/18 46/48/18 48/46/18
# 2 polygons

# Coordinates for object 'IndexedFaceSet #11'
v  202275.546875 444801.343750 49.619007 
v  202275.546875 444801.343750 52.205276 
v  202298.015625 444809.343750 49.618076 
v  202298.015625 444809.375000 52.204342 
# 4 vertices

vt 0.0 0.000406 0.0
vt 0.000023 1.000000 0.0
vt 0.999978 0.0 0.0
vt 1.000000 0.999873 0.0
# 4 texture vertices

vn  -0.336564 0.941592 -0.011377 
vn  -0.335423 0.942068 0.0 
# 2 normals

usemtl surface__9

o IndexedFaceSet__11_0
g IndexedFaceSet__11_0

s off
f 49/51/20 50/52/20 51/49/20
f 52/50/19 51/49/19 50/52/19
# 2 polygons

# Coordinates for object 'IndexedFaceSet #12'
v  202275.546875 444801.343750 49.619007 
v  202275.546875 444801.343750 52.205276 
v  202276.312500 444801.593750 49.618973 
v  202276.312500 444801.625000 52.205246 
# 4 vertices

vt 0.0 0.000501 0.0
vt 0.000046 1.000000 0.0
vt 0.999993 0.0 0.0
vt 1.000000 0.999416 0.0
# 4 texture vertices

vn  -0.344796 0.938609 -0.011341 
vn  -0.310402 0.950605 0.0 
# 2 normals

usemtl surface__10

o IndexedFaceSet__12_0
g IndexedFaceSet__12_0

s off
f 54/54/21 56/53/21 55/55/21
f 55/55/22 53/56/22 54/54/22
# 2 polygons

# Coordinates for object 'IndexedFaceSet #13'
v  202275.546875 444801.343750 49.619007 
v  202276.312500 444801.593750 49.618973 
v  202282.031250 444783.156250 49.670082 
v  202282.796875 444783.437500 49.670055 
# 4 vertices

vt 0.0 1.000000 0.0
vt 0.000013 0.000089 0.0
vt 0.999984 0.999894 0.0
vt 1.000000 0.0 0.0
# 4 texture vertices

vn  0.000781 -0.002530 -0.999996 
vn  0.000883 -0.002498 -0.999996 
# 2 normals

usemtl surface__11

o IndexedFaceSet__13_0
g IndexedFaceSet__13_0

s off
f 59/58/23 57/60/23 58/59/23
f 58/59/24 60/57/24 59/58/24
# 2 polygons

# Coordinates for object 'IndexedFaceSet #14'
v  202282.031250 444783.156250 49.670082 
v  202282.031250 444783.187500 52.233402 
v  202282.796875 444783.437500 49.670055 
v  202282.796875 444783.437500 52.233368 
# 4 vertices

vt 0.0 0.997343 0.0
vt 0.0 0.0 0.0
vt 0.999999 0.002831 0.0
vt 1.000000 1.000000 0.0
# 4 texture vertices

vn  0.310402 -0.950605 0.0 
vn  0.344795 -0.938608 0.011443 
# 2 normals

usemtl surface__12

o IndexedFaceSet__14_0
g IndexedFaceSet__14_0

s off
f 64/61/25 62/62/25 63/64/25
f 61/63/26 63/64/26 62/62/26
# 2 polygons

# Coordinates for object 'IndexedFaceSet #15'
v  202275.546875 444801.343750 52.205276 
v  202276.312500 444801.625000 52.205246 
v  202282.031250 444783.187500 52.233402 
v  202282.796875 444783.437500 52.233368 
# 4 vertices

vt 0.0 0.0 0.0
vt 0.0 1.000000 0.0
vt 0.999973 1.000000 0.0
vt 0.999981 0.0 0.0
# 4 texture vertices

vn  -0.000468 0.001382 0.999999 
vn  -0.000412 0.001399 0.999999 
# 2 normals

usemtl surface__13

o IndexedFaceSet__15_0
g IndexedFaceSet__15_0

s off
f 68/66/28 66/65/28 67/67/28
f 65/68/27 67/67/27 66/65/27
# 2 polygons

# Coordinates for object 'IndexedFaceSet #16'
v  202275.781250 444800.687500 49.620865 
v  202275.781250 444800.687500 52.207127 
v  202298.250000 444808.687500 49.619934 
v  202298.250000 444808.687500 52.206203 
# 4 vertices

vt 0.0 0.0 0.0
vt 0.0 0.994039 0.0
vt 0.999991 0.005768 0.0
vt 1.000000 1.000000 0.0
# 4 texture vertices

vn  0.335423 -0.942068 0.0 
# 1 normals

usemtl surface__8

o IndexedFaceSet__16_0
g IndexedFaceSet__16_0

s off
f 70/70/29 69/69/29 72/72/29
f 71/71/29 72/72/29 69/69/29
# 2 polygons

# Coordinates for object 'IndexedFaceSet #17'
v  202275.546875 444801.343750 49.619007 
v  202275.546875 444801.343750 52.205276 
v  202275.781250 444800.687500 49.620865 
v  202275.781250 444800.687500 52.207127 
# 4 vertices

vt 0.0 0.000344 0.0
vt 0.0 1.000000 0.0
vt 0.999998 0.999637 0.0
vt 1.000000 0.0 0.0
# 4 texture vertices

vn  -0.941742 -0.336336 0.0 
# 1 normals

usemtl surface__14

o IndexedFaceSet__17_0
g IndexedFaceSet__17_0

s off
f 76/74/30 74/73/30 75/75/30
f 73/76/30 75/75/30 74/73/30
# 2 polygons

# Coordinates for object 'IndexedFaceSet #18'
v  202275.546875 444801.343750 52.205276 
v  202275.781250 444800.687500 52.207127 
v  202298.015625 444809.375000 52.204342 
v  202298.250000 444808.687500 52.206203 
# 4 vertices

vt 0.0 0.0 0.0
vt 0.0 1.000000 0.0
vt 1.000000 0.0 0.0
vt 1.000000 0.999993 0.0
# 4 texture vertices

vn  -0.000854 0.002514 0.999996 
vn  -0.000826 0.002426 0.999997 
# 2 normals

usemtl surface__13

o IndexedFaceSet__18_0
g IndexedFaceSet__18_0

s off
f 80/78/32 79/77/32 77/79/32
f 77/79/31 78/80/31 80/78/31
# 2 polygons

# Coordinates for object 'IndexedFaceSet #19'
v  202298.015625 444809.343750 49.618076 
v  202298.015625 444809.375000 52.204342 
v  202298.250000 444808.687500 49.619934 
v  202298.250000 444808.687500 52.206203 
# 4 vertices

vt 0.0 0.000344 0.0
vt 0.0 1.000000 0.0
vt 0.999998 0.999637 0.0
vt 1.000000 0.0 0.0
# 4 texture vertices

vn  0.941742 0.336336 0.0 
vn  0.946506 0.322662 -0.003899 
# 2 normals

usemtl surface__14

o IndexedFaceSet__19_0
g IndexedFaceSet__19_0

s off
f 83/83/33 81/84/33 84/82/33
f 82/81/34 84/82/34 81/84/34
# 2 polygons

# Coordinates for object 'IndexedFaceSet #20'
v  202275.546875 444801.343750 49.619007 
v  202275.781250 444800.687500 49.620865 
v  202298.015625 444809.343750 49.618076 
v  202298.250000 444808.687500 49.619934 
# 4 vertices

vt 0.0 0.997343 0.0
vt 0.0 0.0 0.0
vt 0.999999 0.002831 0.0
vt 1.000000 1.000000 0.0
# 4 texture vertices

vn  0.000857 -0.002525 -0.999996 
# 1 normals

usemtl surface__12

o IndexedFaceSet__20_0
g IndexedFaceSet__20_0

s off
f 86/85/35 85/86/35 88/88/35
f 87/87/35 88/88/35 85/86/35
# 2 polygons

# Coordinates for object 'IndexedFaceSet #21'
v  202277.265625 444799.718750 59.980991 
v  202277.265625 444799.750000 49.033150 
v  202282.328125 444785.125000 49.033154 
v  202282.328125 444785.125000 59.980972 
# 4 vertices

vt 0.0 0.0 0.0
vt 0.000611 1.000000 0.0
vt 0.999983 0.0 0.0
vt 1.000000 0.999988 0.0
# 4 texture vertices

vn  -0.944986 -0.327110 -0.000934 
vn  -0.944769 -0.327736 0.0 
# 2 normals

usemtl surface__15

o IndexedFaceSet__21_0
g IndexedFaceSet__21_0

s off
f 92/92/37 89/90/37 91/91/37
f 90/89/36 91/91/36 89/90/36
# 2 polygons

# Coordinates for object 'IndexedFaceSet #22'
v  202278.453125 444800.125000 59.980965 
v  202278.453125 444800.156250 49.033146 
v  202283.515625 444785.531250 49.033150 
v  202283.515625 444785.531250 59.980946 
# 4 vertices

vt 0.0 0.000016 0.0
vt 0.000687 0.999930 0.0
vt 0.999877 0.0 0.0
vt 1.000000 1.000000 0.0
# 4 texture vertices

vn  0.944769 0.327736 0.0 
vn  0.944986 0.327110 0.000934 
# 2 normals

usemtl surface__16

o IndexedFaceSet__22_0
g IndexedFaceSet__22_0

s off
f 95/95/39 94/93/39 93/94/39
f 93/94/38 96/96/38 95/95/38
# 2 polygons

# Coordinates for object 'IndexedFaceSet #23'
v  202282.328125 444785.125000 49.033154 
v  202282.328125 444785.125000 59.980972 
v  202283.515625 444785.531250 49.033150 
v  202283.515625 444785.531250 59.980946 
# 4 vertices

vt 0.0 0.0 0.0
vt 0.0 1.000000 0.0
vt 0.999991 0.999998 0.0
vt 0.999997 0.0 0.0
# 4 texture vertices

vn  0.323688 -0.946164 0.0 
# 1 normals

usemtl surface__13

o IndexedFaceSet__23_0
g IndexedFaceSet__23_0

s off
f 100/99/40 98/98/40 97/97/40
f 97/97/40 99/100/40 100/99/40
# 2 polygons

# Coordinates for object 'IndexedFaceSet #24'
v  202277.265625 444799.718750 59.980991 
v  202278.453125 444800.125000 59.980965 
v  202282.328125 444785.125000 59.980972 
v  202283.515625 444785.531250 59.980946 
# 4 vertices

vt 0.0 0.0 0.0
vt 0.0 0.999999 0.0
vt 1.000000 0.0 0.0
vt 1.000000 0.999975 0.0
# 4 texture vertices

vn  0.000021 0.000006 1.0 
# 1 normals

usemtl surface__13

o IndexedFaceSet__24_0
g IndexedFaceSet__24_0

s off
f 104/101/41 102/103/41 103/102/41
f 101/104/41 103/102/41 102/103/41
# 2 polygons

# Coordinates for object 'IndexedFaceSet #25'
v  202277.265625 444799.718750 59.980991 
v  202277.265625 444799.750000 49.033150 
v  202278.453125 444800.125000 59.980965 
v  202278.453125 444800.156250 49.033146 
# 4 vertices

vt 0.0 0.0 0.0
vt 0.0 0.999997 0.0
vt 0.999995 0.0 0.0
vt 0.999999 1.000000 0.0
# 4 texture vertices

vn  -0.323686 0.946161 0.002701 
# 1 normals

usemtl surface__13

o IndexedFaceSet__25_0
g IndexedFaceSet__25_0

s off
f 105/108/42 107/106/42 106/107/42
f 108/105/42 106/107/42 107/106/42
# 2 polygons
