# Converted by Daum Communications 
# Date/time of export: 08/22/2013 14:53:53
#
# Bounding box of geometry = (202001,445273,-3.04064) to (202029,445296,33.0445).

mtllib 4666432.mtl

# Coordinates for object 'IndexedFaceSet'
v  202023.671875 445296.375000 -3.019212 
v  202023.671875 445296.375000 33.044472 
v  202029.000000 445281.187500 -3.040633 
v  202029.000000 445281.187500 33.044464 
# 4 vertices

vt 0.0 0.000255 0.0
vt 0.000016 1.000000 0.0
vt 0.999420 0.999721 0.0
vt 1.000000 0.0 0.0
# 4 texture vertices

vn  0.943616 0.331042 0.0 
# 1 normals

usemtl surface

o IndexedFaceSet
g IndexedFaceSet

s off
f 2/2/1 4/1/1 1/3/1
f 3/4/1 1/3/1 4/1/1
# 2 polygons

# Coordinates for object 'IndexedFaceSet #1'
v  202000.703125 445288.312500 -3.019218 
v  202000.703125 445288.312500 33.044460 
v  202006.031250 445273.125000 -3.040642 
v  202006.031250 445273.125000 33.044460 
# 4 vertices

vt 0.0 0.000255 0.0
vt 0.000016 1.000000 0.0
vt 0.999420 0.999721 0.0
vt 1.000000 0.0 0.0
# 4 texture vertices

vn  -0.943616 -0.331042 0.0 
# 1 normals

usemtl surface

o IndexedFaceSet__1_0
g IndexedFaceSet__1_0

s off
f 5/7/2 7/8/2 8/5/2
f 8/5/2 6/6/2 5/7/2
# 2 polygons

# Coordinates for object 'IndexedFaceSet #2'
v  202000.703125 445288.312500 -3.019218 
v  202000.703125 445288.312500 33.044460 
v  202023.671875 445296.375000 -3.019212 
v  202023.671875 445296.375000 33.044472 
# 4 vertices

vt 0.0 0.999986 0.0
vt 0.000475 0.0 0.0
vt 0.999555 1.000000 0.0
vt 1.000000 0.000022 0.0
# 4 texture vertices

vn  -0.331208 0.943558 0.0 
# 1 normals

usemtl surface__2

o IndexedFaceSet__2_0
g IndexedFaceSet__2_0

s off
f 10/9/3 12/10/3 9/11/3
f 11/12/3 9/11/3 12/10/3
# 2 polygons

# Coordinates for object 'IndexedFaceSet #3'
v  202000.703125 445288.312500 33.044460 
v  202006.031250 445273.125000 33.044460 
v  202023.671875 445296.375000 33.044472 
v  202029.000000 445281.187500 33.044464 
# 4 vertices

vt 0.0 0.0 0.0
vt 0.0 1.000000 0.0
vt 0.500000 0.0 0.0
vt 0.500000 1.000000 0.0
# 4 texture vertices

vn  0.0 0.0 1.0 
# 1 normals

usemtl surface__3

o IndexedFaceSet__3_0
g IndexedFaceSet__3_0

s off
f 13/13/4 14/15/4 15/14/4
f 16/16/4 15/14/4 14/15/4
# 2 polygons

# Coordinates for object 'IndexedFaceSet #4'
v  202006.031250 445273.125000 -3.040642 
v  202006.031250 445273.125000 33.044460 
v  202029.000000 445281.187500 -3.040633 
v  202029.000000 445281.187500 33.044464 
# 4 vertices

vt 0.0 0.000343 0.0
vt 0.000542 1.000000 0.0
vt 0.999936 0.999464 0.0
vt 1.000000 0.0 0.0
# 4 texture vertices

vn  0.331208 -0.943558 0.0 
# 1 normals

usemtl surface__4

o IndexedFaceSet__4_0
g IndexedFaceSet__4_0

s off
f 20/20/5 18/19/5 19/17/5
f 17/18/5 19/17/5 18/19/5
# 2 polygons
