# Converted by Daum Communications 
# Date/time of export: 08/22/2013 14:53:57
#
# Bounding box of geometry = (202036,445414,-0.420214) to (202058,445432,24.2201).

mtllib 4666883.mtl

# Coordinates for object 'IndexedFaceSet'
v  202035.953125 445424.531250 -0.417580 
v  202035.953125 445424.531250 19.168619 
v  202039.484375 445415.875000 -0.417577 
v  202039.484375 445415.875000 19.164598 
# 4 vertices

vt 0.0 0.000204 0.0
vt 0.000219 1.000000 0.0
vt 0.999989 0.0 0.0
vt 1.000000 0.999777 0.0
# 4 texture vertices

vn  -0.925919 -0.377722 0.0 
# 1 normals

usemtl surface

o IndexedFaceSet
g IndexedFaceSet

s off
f 4/2/1 2/1/1 1/3/1
f 1/3/1 3/4/1 4/2/1
# 2 polygons

# Coordinates for object 'IndexedFaceSet #1'
v  202053.906250 445431.875000 -0.417594 
v  202053.906250 445431.875000 19.168615 
v  202057.453125 445423.218750 -0.417592 
v  202057.453125 445423.218750 19.164595 
# 4 vertices

vt 0.0 0.000199 0.0
vt 0.000220 1.000000 0.0
vt 0.999986 0.0 0.0
vt 1.000000 0.999782 0.0
# 4 texture vertices

vn  0.925334 0.379153 0.0 
# 1 normals

usemtl surface__2

o IndexedFaceSet__1_0
g IndexedFaceSet__1_0

s off
f 7/8/2 5/7/2 8/6/2
f 6/5/2 8/6/2 5/7/2
# 2 polygons

# Coordinates for object 'IndexedFaceSet #2'
v  202035.953125 445424.531250 -0.417580 
v  202035.953125 445424.531250 19.168619 
v  202053.906250 445431.875000 -0.417594 
v  202053.906250 445431.875000 19.168615 
# 4 vertices

vt 0.0 0.000212 0.0
vt 0.000611 1.000000 0.0
vt 0.999807 0.0 0.0
vt 1.000000 0.999679 0.0
# 4 texture vertices

vn  -0.378601 0.925560 0.0 
# 1 normals

usemtl surface__3

o IndexedFaceSet__2_0
g IndexedFaceSet__2_0

s off
f 10/11/3 12/12/3 9/9/3
f 11/10/3 9/9/3 12/12/3
# 2 polygons

# Coordinates for object 'IndexedFaceSet #3'
v  202042.859375 445417.250000 19.164604 
v  202042.890625 445417.250000 21.713278 
v  202057.453125 445423.218750 19.164595 
v  202057.468750 445423.218750 21.713289 
# 4 vertices

vt 0.0 1.000000 0.0
vt 0.000425 0.001005 0.0
vt 0.998454 0.999228 0.0
vt 1.000000 0.0 0.0
# 4 texture vertices

vn  -0.378902 0.925434 0.002323 
vn  -0.378552 0.925569 0.004642 
# 2 normals

usemtl surface__4

o IndexedFaceSet__3_0
g IndexedFaceSet__3_0

s off
f 13/16/5 14/15/5 15/14/5
f 16/13/4 15/14/4 14/15/4
# 2 polygons

# Coordinates for object 'IndexedFaceSet #4'
v  202035.953125 445424.531250 19.168619 
v  202039.484375 445415.875000 19.164598 
v  202053.906250 445431.875000 19.168615 
v  202057.453125 445423.218750 19.164595 
# 4 vertices

vt 0.0 0.0 0.0
vt 0.0 1.000000 0.0
vt 0.999999 1.000000 0.0
vt 1.000000 0.0 0.0
# 4 texture vertices

vn  0.000163 -0.000398 1.000000 
# 1 normals

usemtl surface__5

o IndexedFaceSet__4_0
g IndexedFaceSet__4_0

s off
f 20/20/6 19/19/6 18/17/6
f 17/18/6 18/17/6 19/19/6
# 2 polygons

# Coordinates for object 'IndexedFaceSet #5'
v  202040.859375 445416.437500 21.713274 
v  202040.859375 445416.437500 24.220053 
v  202041.656250 445414.437500 21.725845 
v  202041.656250 445414.437500 24.220051 
# 4 vertices

vt 0.0 0.007070 0.0
vt 0.005056 1.000000 0.0
vt 0.999954 0.0 0.0
vt 1.000000 0.992971 0.0
# 4 texture vertices

vn  0.928976 0.370139 0.0 
# 1 normals

usemtl surface__6

o IndexedFaceSet__5_0
g IndexedFaceSet__5_0

s off
f 22/21/7 23/24/7 21/23/7
f 23/24/7 22/21/7 24/22/7
# 2 polygons

# Coordinates for object 'IndexedFaceSet #6'
v  202039.187500 445415.750000 -0.417577 
v  202039.187500 445415.750000 24.220049 
v  202040.000000 445413.781250 -0.420214 
v  202040.000000 445413.781250 24.220047 
# 4 vertices

vt 0.0 0.986861 0.0
vt 0.000109 0.0 0.0
vt 0.999998 1.000000 0.0
vt 1.000000 0.013277 0.0
# 4 texture vertices

vn  -0.924374 -0.381488 0.0 
# 1 normals

usemtl surface__7

o IndexedFaceSet__6_0
g IndexedFaceSet__6_0

s off
f 28/25/8 26/26/8 25/28/8
f 25/28/8 27/27/8 28/25/8
# 2 polygons

# Coordinates for object 'IndexedFaceSet #7'
v  202040.000000 445413.781250 -0.420214 
v  202040.000000 445413.781250 24.220047 
v  202041.656250 445414.437500 -0.420206 
v  202041.656250 445414.437500 24.220051 
# 4 vertices

vt 0.0 1.000000 0.0
vt 0.000046 0.002022 0.0
vt 0.999993 0.997892 0.0
vt 1.000000 0.0 0.0
# 4 texture vertices

vn  0.368364 -0.929681 0.0 
# 1 normals

usemtl surface__8

o IndexedFaceSet__7_0
g IndexedFaceSet__7_0

s off
f 32/29/9 30/30/9 31/31/9
f 29/32/9 31/31/9 30/30/9
# 2 polygons

# Coordinates for object 'IndexedFaceSet #8'
v  202039.187500 445415.750000 24.220049 
v  202040.000000 445413.781250 24.220047 
v  202040.859375 445416.437500 24.220053 
v  202041.656250 445414.437500 24.220051 
# 4 vertices

vt 0.0 0.000086 0.0
vt 0.041050 1.000000 0.0
vt 0.999992 0.0 0.0
vt 1.000000 0.999959 0.0
# 4 texture vertices

vn  -0.000002 -0.000002 1.0 
# 1 normals

usemtl surface__9

o IndexedFaceSet__8_0
g IndexedFaceSet__8_0

s off
f 36/36/10 35/35/10 33/33/10
f 33/33/10 34/34/10 36/36/10
# 2 polygons

# Coordinates for object 'IndexedFaceSet #9'
v  202039.187500 445415.750000 -0.417577 
v  202039.187500 445415.750000 24.220049 
v  202040.859375 445416.437500 -0.417569 
v  202040.859375 445416.437500 24.220053 
# 4 vertices

vt 0.0 0.001004 0.0
vt 0.000041 1.000000 0.0
vt 0.999944 0.0 0.0
vt 1.000000 0.999153 0.0
# 4 texture vertices

vn  -0.380315 0.924857 0.0 
# 1 normals

usemtl surface__10

o IndexedFaceSet__9_0
g IndexedFaceSet__9_0

s off
f 38/38/11 40/37/11 39/39/11
f 39/39/11 37/40/11 38/38/11
# 2 polygons

# Coordinates for object 'IndexedFaceSet #10'
v  202057.468750 445423.218750 -0.417554 
v  202057.468750 445423.218750 21.713289 
v  202058.281250 445421.218750 -0.420191 
v  202058.281250 445421.218750 21.725859 
# 4 vertices

vt 0.0 0.988235 0.0
vt 0.000684 0.0 0.0
vt 1.000000 0.011777 0.0
vt 1.000000 1.000000 0.0
# 4 texture vertices

vn  0.926467 0.376377 0.0 
# 1 normals

usemtl surface__11

o IndexedFaceSet__10_0
g IndexedFaceSet__10_0

s off
f 43/44/12 41/43/12 42/42/12
f 42/42/12 44/41/12 43/44/12
# 2 polygons

# Coordinates for object 'IndexedFaceSet #11'
v  202041.656250 445414.437500 -0.420206 
v  202041.656250 445414.437500 21.725845 
v  202058.281250 445421.218750 -0.420191 
v  202058.281250 445421.218750 21.725859 
# 4 vertices

vt 0.0 1.000000 0.0
vt 0.000796 0.000146 0.0
vt 0.999505 0.999778 0.0
vt 1.000000 0.0 0.0
# 4 texture vertices

vn  0.377684 -0.925935 0.0 
# 1 normals

usemtl surface__12

o IndexedFaceSet__11_0
g IndexedFaceSet__11_0

s off
f 48/45/13 46/46/13 45/48/13
f 45/48/13 47/47/13 48/45/13
# 2 polygons

# Coordinates for object 'IndexedFaceSet #12'
v  202040.859375 445416.437500 21.713274 
v  202041.656250 445414.437500 21.725845 
v  202057.468750 445423.218750 21.713289 
v  202058.281250 445421.218750 21.725859 
# 4 vertices

vt 0.0 0.000086 0.0
vt 0.041050 1.000000 0.0
vt 0.999992 0.0 0.0
vt 1.000000 0.999959 0.0
# 4 texture vertices

vn  -0.002208 0.005406 0.999983 
vn  -0.002200 0.005391 0.999983 
# 2 normals

usemtl surface__9

o IndexedFaceSet__12_0
g IndexedFaceSet__12_0

s off
f 52/50/15 51/52/15 50/49/15
f 49/51/14 50/49/14 51/52/14
# 2 polygons

# Coordinates for object 'IndexedFaceSet #13'
v  202039.093750 445416.812500 24.220049 
v  202039.093750 445416.843750 19.165041 
v  202039.484375 445415.875000 19.164598 
v  202039.484375 445415.875000 24.220049 
# 4 vertices

vt 0.0 0.997881 0.0
vt 0.000091 0.016054 0.0
vt 1.000000 0.0 0.0
vt 1.000000 1.000000 0.0
# 4 texture vertices

vn  -0.927439 -0.373966 -0.002312 
vn  -0.923077 -0.384615 0.0 
# 2 normals

usemtl surface__13

o IndexedFaceSet__13_0
g IndexedFaceSet__13_0

s off
f 56/53/17 53/54/17 55/56/17
f 54/55/16 55/56/16 53/54/16
# 2 polygons

# Coordinates for object 'IndexedFaceSet #14'
v  202040.984375 445417.593750 24.220051 
v  202040.984375 445417.625000 19.165043 
v  202041.375000 445416.625000 24.220051 
v  202041.375000 445416.656250 19.164600 
# 4 vertices

vt 0.0 0.997881 0.0
vt 0.000091 0.016054 0.0
vt 1.000000 0.0 0.0
vt 1.000000 1.000000 0.0
# 4 texture vertices

vn  0.927439 0.373966 0.002312 
# 1 normals

usemtl surface__13

o IndexedFaceSet__14_0
g IndexedFaceSet__14_0

s off
f 60/60/18 58/59/18 57/58/18
f 57/58/18 59/57/18 60/60/18
# 2 polygons

# Coordinates for object 'IndexedFaceSet #15'
v  202039.484375 445415.875000 19.164598 
v  202039.484375 445415.875000 24.220049 
v  202041.375000 445416.625000 24.220051 
v  202041.375000 445416.656250 19.164600 
# 4 vertices

vt 0.0 0.996107 0.0
vt 0.000186 0.0 0.0
vt 0.999799 1.000000 0.0
vt 1.000000 0.003727 0.0
# 4 texture vertices

vn  0.368740 -0.929533 0.0 
vn  0.381896 -0.924188 -0.005713 
# 2 normals

usemtl surface__14

o IndexedFaceSet__15_0
g IndexedFaceSet__15_0

s off
f 63/61/19 62/62/19 61/64/19
f 61/64/20 64/63/20 63/61/20
# 2 polygons

# Coordinates for object 'IndexedFaceSet #16'
v  202039.093750 445416.812500 24.220049 
v  202039.484375 445415.875000 24.220049 
v  202040.984375 445417.593750 24.220051 
v  202041.375000 445416.625000 24.220051 
# 4 vertices

vt 0.0 0.000086 0.0
vt 0.041050 1.000000 0.0
vt 0.999992 0.0 0.0
vt 1.000000 0.999959 0.0
# 4 texture vertices

vn  0.0 0.0 1.0 
# 1 normals

usemtl surface__9

o IndexedFaceSet__16_0
g IndexedFaceSet__16_0

s off
f 68/66/21 67/68/21 65/67/21
f 65/67/21 66/65/21 68/66/21
# 2 polygons

# Coordinates for object 'IndexedFaceSet #17'
v  202039.093750 445416.812500 24.220049 
v  202039.093750 445416.843750 19.165041 
v  202040.984375 445417.593750 24.220051 
v  202040.984375 445417.625000 19.165043 
# 4 vertices

vt 0.0 0.004188 0.0
vt 0.000033 1.000000 0.0
vt 0.999923 0.0 0.0
vt 1.000000 0.995924 0.0
# 4 texture vertices

vn  -0.381896 0.924188 0.005713 
# 1 normals

usemtl surface__15

o IndexedFaceSet__17_0
g IndexedFaceSet__17_0

s off
f 69/70/22 71/69/22 70/72/22
f 72/71/22 70/72/22 71/69/22
# 2 polygons

# Coordinates for object 'IndexedFaceSet #18'
v  202040.609375 445418.437500 19.164598 
v  202040.640625 445418.437500 21.713274 
v  202042.125000 445419.062500 19.164604 
v  202042.156250 445419.062500 21.713278 
# 4 vertices

vt 0.0 0.000086 0.0
vt 0.041050 1.000000 0.0
vt 0.999992 0.0 0.0
vt 1.000000 0.999959 0.0
# 4 texture vertices

vn  -0.381225 0.924470 0.004674 
# 1 normals

usemtl surface__9

o IndexedFaceSet__18_0
g IndexedFaceSet__18_0

s off
f 74/73/23 76/74/23 75/76/23
f 75/76/23 73/75/23 74/73/23
# 2 polygons

# Coordinates for object 'IndexedFaceSet #19'
v  202040.609375 445418.437500 19.164598 
v  202040.640625 445418.437500 21.713274 
v  202041.343750 445416.625000 19.164598 
v  202041.375000 445416.625000 21.713278 
# 4 vertices

vt 0.0 0.000086 0.0
vt 0.041050 1.000000 0.0
vt 0.999992 0.0 0.0
vt 1.000000 0.999959 0.0
# 4 texture vertices

vn  -0.926755 -0.375495 0.011363 
# 1 normals

usemtl surface__9

o IndexedFaceSet__19_0
g IndexedFaceSet__19_0

s off
f 80/77/24 78/79/24 77/80/24
f 77/80/24 79/78/24 80/77/24
# 2 polygons

# Coordinates for object 'IndexedFaceSet #20'
v  202040.640625 445418.437500 21.713274 
v  202041.375000 445416.625000 21.713278 
v  202042.156250 445419.062500 21.713278 
v  202042.890625 445417.250000 21.713278 
# 4 vertices

vt 0.0 0.000086 0.0
vt 0.041050 1.000000 0.0
vt 0.999992 0.0 0.0
vt 1.000000 0.999959 0.0
# 4 texture vertices

vn  0.0 0.0 1.0 
# 1 normals

usemtl surface__9

o IndexedFaceSet__20_0
g IndexedFaceSet__20_0

s off
f 84/84/25 83/83/25 82/82/25
f 81/81/25 82/82/25 83/83/25
# 2 polygons

# Coordinates for object 'IndexedFaceSet #21'
v  202042.125000 445419.062500 19.164604 
v  202042.156250 445419.062500 21.713278 
v  202042.859375 445417.250000 19.164604 
v  202042.890625 445417.250000 21.713278 
# 4 vertices

vt 0.0 0.000086 0.0
vt 0.041050 1.000000 0.0
vt 0.999992 0.0 0.0
vt 1.000000 0.999959 0.0
# 4 texture vertices

vn  0.926755 0.375495 -0.011363 
# 1 normals

usemtl surface__9

o IndexedFaceSet__21_0
g IndexedFaceSet__21_0

s off
f 87/86/26 85/88/26 88/85/26
f 86/87/26 88/85/26 85/88/26
# 2 polygons
