# Converted by Daum Communications 
# Date/time of export: 08/22/2013 14:53:54
#
# Bounding box of geometry = (201793,446136,-0.544314) to (201805,446158,10.3309).

mtllib 4666503.mtl

# Coordinates for object 'IndexedFaceSet'
v  201792.718750 446156.062500 -0.544314 
v  201792.718750 446156.062500 10.330849 
v  201797.171875 446135.875000 -0.508576 
v  201797.171875 446135.875000 10.330853 
# 4 vertices

vt 0.0 0.000032 0.0
vt 0.000069 1.000000 0.0
vt 0.996777 0.999923 0.0
vt 1.000000 0.0 0.0
# 4 texture vertices

vn  -0.976524 -0.215410 0.0 
# 1 normals

usemtl surface

o IndexedFaceSet
g IndexedFaceSet

s off
f 4/2/1 2/1/1 3/3/1
f 1/4/1 3/3/1 2/1/1
# 2 polygons

# Coordinates for object 'IndexedFaceSet #1'
v  201800.484375 446157.781250 -0.544312 
v  201800.484375 446157.781250 10.330853 
v  201804.921875 446137.593750 -0.508573 
v  201804.921875 446137.593750 10.330854 
# 4 vertices

vt 0.0 0.000032 0.0
vt 0.000069 1.000000 0.0
vt 0.996777 0.999923 0.0
vt 1.000000 0.0 0.0
# 4 texture vertices

vn  0.976683 0.214689 0.0 
# 1 normals

usemtl surface

o IndexedFaceSet__1_0
g IndexedFaceSet__1_0

s off
f 7/7/2 5/8/2 6/5/2
f 6/5/2 8/6/2 7/7/2
# 2 polygons

# Coordinates for object 'IndexedFaceSet #2'
v  201797.171875 446135.875000 -0.508576 
v  201797.171875 446135.875000 10.330853 
v  201804.921875 446137.593750 -0.508573 
v  201804.921875 446137.593750 10.330854 
# 4 vertices

vt 0.0 1.000000 0.0
vt 0.000653 0.000255 0.0
vt 0.999496 0.999681 0.0
vt 1.000000 0.0 0.0
# 4 texture vertices

vn  0.216514 -0.976280 0.0 
# 1 normals

usemtl surface__2

o IndexedFaceSet__2_0
g IndexedFaceSet__2_0

s off
f 12/9/3 10/10/3 11/11/3
f 9/12/3 11/11/3 10/10/3
# 2 polygons

# Coordinates for object 'IndexedFaceSet #3'
v  201792.718750 446156.062500 10.330849 
v  201797.171875 446135.875000 10.330853 
v  201800.484375 446157.781250 10.330853 
v  201804.921875 446137.593750 10.330854 
# 4 vertices

vt 0.0 0.500000 0.0
vt 0.0 1.000000 0.0
vt 1.000000 0.500000 0.0
vt 1.000000 1.000000 0.0
# 4 texture vertices

vn  0.0 0.0 1.0 
# 1 normals

usemtl surface__3

o IndexedFaceSet__3_0
g IndexedFaceSet__3_0

s off
f 16/16/4 15/14/4 13/13/4
f 13/13/4 14/15/4 16/16/4
# 2 polygons

# Coordinates for object 'IndexedFaceSet #4'
v  201792.718750 446156.062500 -0.544314 
v  201792.718750 446156.062500 10.330849 
v  201800.484375 446157.781250 -0.544312 
v  201800.484375 446157.781250 10.330853 
# 4 vertices

vt 0.0 1.000000 0.0
vt 0.000653 0.000255 0.0
vt 0.999496 0.999681 0.0
vt 1.000000 0.0 0.0
# 4 texture vertices

vn  -0.216098 0.976372 0.0 
# 1 normals

usemtl surface__2

o IndexedFaceSet__4_0
g IndexedFaceSet__4_0

s off
f 18/18/5 20/17/5 19/19/5
f 19/19/5 17/20/5 18/18/5
# 2 polygons
