# Converted by Daum Communications 
# Date/time of export: 08/22/2013 14:53:57
#
# Bounding box of geometry = (202092,445254,-0.427903) to (202114,445282,20.4496).

mtllib 4666739.mtl

# Coordinates for object 'IndexedFaceSet'
v  202092.140625 445277.656250 -0.427898 
v  202092.265625 445277.343750 20.016449 
v  202101.218750 445254.718750 -0.427902 
v  202101.218750 445254.718750 20.016453 
# 4 vertices

vt 0.0 0.000023 0.0
vt 0.013885 1.000000 0.0
vt 0.999942 0.0 0.0
vt 1.000000 0.999972 0.0
# 4 texture vertices

vn  -0.929843 -0.367956 0.0 
vn  -0.929825 -0.368003 0.000060 
# 2 normals

usemtl surface

o IndexedFaceSet
g IndexedFaceSet

s off
f 4/4/1 2/2/1 3/3/1
f 1/1/2 3/3/2 2/2/2
# 2 polygons

# Coordinates for object 'IndexedFaceSet #1'
v  202104.062500 445282.375000 -0.427900 
v  202104.187500 445282.062500 20.016451 
v  202113.156250 445259.437500 -0.427903 
v  202113.156250 445259.437500 20.016451 
# 4 vertices

vt 0.0 0.000023 0.0
vt 0.013885 1.000000 0.0
vt 0.999942 0.0 0.0
vt 1.000000 0.999972 0.0
# 4 texture vertices

vn  0.929608 0.368550 -0.000050 
vn  0.929623 0.368511 0.0 
# 2 normals

usemtl surface

o IndexedFaceSet__1_0
g IndexedFaceSet__1_0

s off
f 7/7/3 5/5/3 6/6/3
f 6/6/4 8/8/4 7/7/4
# 2 polygons

# Coordinates for object 'IndexedFaceSet #2'
v  202101.218750 445254.718750 -0.427902 
v  202101.218750 445254.718750 20.016453 
v  202113.156250 445259.437500 -0.427903 
v  202113.156250 445259.437500 20.016451 
# 4 vertices

vt 0.0 0.999905 0.0
vt 0.000115 0.0 0.0
vt 0.999863 1.000000 0.0
vt 1.000000 0.000055 0.0
# 4 texture vertices

vn  0.367610 -0.929980 0.0 
# 1 normals

usemtl surface__2

o IndexedFaceSet__2_0
g IndexedFaceSet__2_0

s off
f 12/9/5 10/10/5 9/12/5
f 9/12/5 11/11/5 12/9/5
# 2 polygons

# Coordinates for object 'IndexedFaceSet #3'
v  202092.140625 445277.656250 -0.427898 
v  202092.265625 445277.343750 20.016449 
v  202104.062500 445282.375000 -0.427900 
v  202104.187500 445282.062500 20.016451 
# 4 vertices

vt 0.0 0.000256 0.0
vt 0.000167 1.000000 0.0
vt 0.999551 0.0 0.0
vt 1.000000 0.999801 0.0
# 4 texture vertices

vn  -0.367977 0.929689 0.016461 
# 1 normals

usemtl surface__3

o IndexedFaceSet__3_0
g IndexedFaceSet__3_0

s off
f 14/14/6 16/13/6 13/16/6
f 15/15/6 13/16/6 16/13/6
# 2 polygons

# Coordinates for object 'IndexedFaceSet #4'
v  202091.906250 445277.531250 20.449612 
v  202092.265625 445277.343750 20.016449 
v  202101.093750 445254.343750 20.449615 
v  202101.218750 445254.718750 20.016453 
# 4 vertices

vt 0.0 1.000000 0.0
vt 0.012916 0.000651 0.0
vt 0.988220 0.0 0.0
vt 1.000000 0.998863 0.0
# 4 texture vertices

vn  -0.801939 -0.317342 -0.506151 
vn  -0.793015 -0.314214 -0.521917 
# 2 normals

usemtl surface__4

o IndexedFaceSet__4_0
g IndexedFaceSet__4_0

s off
f 17/17/8 18/18/8 19/20/8
f 20/19/7 19/20/7 18/18/7
# 2 polygons

# Coordinates for object 'IndexedFaceSet #5'
v  202104.187500 445282.062500 20.016451 
v  202104.359375 445282.468750 20.449612 
v  202113.140625 445259.437500 20.016451 
v  202113.546875 445259.281250 20.449615 
# 4 vertices

vt 0.0 1.000000 0.0
vt 0.012910 0.0 0.0
vt 0.988230 0.000122 0.0
vt 1.000000 0.999863 0.0
# 4 texture vertices

vn  0.747683 0.295872 -0.594500 
vn  0.756483 0.299738 -0.581284 
# 2 normals

usemtl surface__5

o IndexedFaceSet__5_0
g IndexedFaceSet__5_0

s off
f 23/23/9 21/22/9 24/24/9
f 22/21/10 24/24/10 21/22/10
# 2 polygons

# Coordinates for object 'IndexedFaceSet #6'
v  202101.093750 445254.343750 20.449615 
v  202101.218750 445254.718750 20.016453 
v  202113.140625 445259.437500 20.016451 
v  202113.546875 445259.281250 20.449615 
# 4 vertices

vt 0.0 1.000000 0.0
vt 0.012910 0.0 0.0
vt 0.988230 0.000122 0.0
vt 1.000000 0.999863 0.0
# 4 texture vertices

vn  0.301674 -0.762178 -0.572781 
vn  0.304642 -0.768354 -0.562872 
# 2 normals

usemtl surface__5

o IndexedFaceSet__6_0
g IndexedFaceSet__6_0

s off
f 25/25/11 26/26/11 27/27/11
f 27/27/12 28/28/12 25/25/12
# 2 polygons

# Coordinates for object 'IndexedFaceSet #7'
v  202091.906250 445277.531250 20.449612 
v  202101.093750 445254.343750 20.449615 
v  202104.359375 445282.468750 20.449612 
v  202113.546875 445259.281250 20.449615 
# 4 vertices

vt 0.0 0.0 0.0
vt 0.0 1.000000 0.0
vt 0.500000 0.0 0.0
vt 0.500000 1.000000 0.0
# 4 texture vertices

vn  0.0 0.0 1.0 
# 1 normals

usemtl surface__6

o IndexedFaceSet__7_0
g IndexedFaceSet__7_0

s off
f 32/30/13 31/29/13 29/31/13
f 29/31/13 30/32/13 32/30/13
# 2 polygons

# Coordinates for object 'IndexedFaceSet #8'
v  202091.906250 445277.531250 20.449612 
v  202092.265625 445277.343750 20.016449 
v  202104.187500 445282.062500 20.016451 
v  202104.359375 445282.468750 20.449612 
# 4 vertices

vt 0.0 1.000000 0.0
vt 0.012910 0.0 0.0
vt 0.988230 0.000122 0.0
vt 1.000000 0.999863 0.0
# 4 texture vertices

vn  -0.300392 0.758937 -0.577737 
vn  -0.298316 0.752399 -0.587285 
# 2 normals

usemtl surface__5

o IndexedFaceSet__8_0
g IndexedFaceSet__8_0

s off
f 34/35/14 33/36/14 35/34/14
f 36/33/15 35/34/15 33/36/15
# 2 polygons
