# Converted by Daum Communications 
# Date/time of export: 08/22/2013 14:53:54
#
# Bounding box of geometry = (201831,445689,-0.524402) to (201870,445707,14.948).

mtllib 4666495.mtl

# Coordinates for object 'IndexedFaceSet'
v  201831.390625 445695.906250 12.263835 
v  201834.093750 445689.093750 12.263831 
v  201861.312500 445706.968750 12.263837 
v  201868.953125 445703.968750 12.263836 
v  201870.000000 445701.125000 12.263835 
# 5 vertices

vt 0.0 0.821951 0.0
vt 0.0 1.000000 0.0
vt 0.161228 0.500000 0.0
vt 0.995613 0.932035 0.0
vt 1.000000 0.500000 0.0
# 5 texture vertices

vn  0.0 0.0 1.0 
# 1 normals

usemtl surface

o IndexedFaceSet
g IndexedFaceSet

s off
f 1/5/1 2/4/1 3/3/1
f 3/3/1 5/2/1 4/1/1
f 5/2/1 3/3/1 2/4/1
# 3 polygons

# Coordinates for object 'IndexedFaceSet #1'
v  201831.390625 445695.906250 -0.524397 
v  201831.390625 445695.906250 12.263835 
v  201861.312500 445706.968750 -0.524392 
v  201861.312500 445706.968750 12.263837 
# 4 vertices

vt 0.0 0.0 0.0
vt 0.000045 0.998631 0.0
vt 0.999920 0.000902 0.0
vt 1.000000 1.000000 0.0
# 4 texture vertices

vn  -0.346772 0.937949 0.0 
# 1 normals

usemtl surface__2

o IndexedFaceSet__1_0
g IndexedFaceSet__1_0

s off
f 7/9/2 9/7/2 8/6/2
f 8/6/2 6/8/2 7/9/2
# 2 polygons

# Coordinates for object 'IndexedFaceSet #2'
v  201861.312500 445706.968750 -0.524392 
v  201861.312500 445706.968750 12.263837 
v  201868.953125 445703.968750 -0.524402 
v  201868.953125 445703.968750 12.263836 
# 4 vertices

vt 0.0 1.000000 0.0
vt 0.000364 0.000072 0.0
vt 0.999678 0.999906 0.0
vt 1.000000 0.0 0.0
# 4 texture vertices

vn  0.365476 0.930821 0.0 
# 1 normals

usemtl surface__3

o IndexedFaceSet__2_0
g IndexedFaceSet__2_0

s off
f 11/10/3 13/11/3 10/12/3
f 12/13/3 10/12/3 13/11/3
# 2 polygons

# Coordinates for object 'IndexedFaceSet #3'
v  201868.953125 445703.968750 -0.524402 
v  201868.953125 445703.968750 12.263836 
v  201870.000000 445701.125000 12.263835 
v  201870.031250 445701.062500 -0.524402 
# 4 vertices

vt 0.0 0.970800 0.0
vt 0.001680 0.0 0.0
vt 0.998264 1.000000 0.0
vt 1.000000 0.0 0.0
# 4 texture vertices

vn  0.937566 0.347807 0.000591 
vn  0.938431 0.345466 0.0 
# 2 normals

usemtl surface__4

o IndexedFaceSet__3_0
g IndexedFaceSet__3_0

s off
f 15/14/5 16/15/5 14/16/5
f 17/17/4 14/16/4 16/15/4
# 2 polygons

# Coordinates for object 'IndexedFaceSet #4'
v  201834.093750 445689.093750 12.263831 
v  201834.125000 445689.031250 -0.524397 
v  201870.000000 445701.125000 12.263835 
v  201870.031250 445701.062500 -0.524402 
# 4 vertices

vt 0.0 0.0 0.0
vt 0.000045 0.998631 0.0
vt 0.999920 0.000902 0.0
vt 1.000000 1.000000 0.0
# 4 texture vertices

vn  0.317708 -0.948173 0.005410 
# 1 normals

usemtl surface__2

o IndexedFaceSet__4_0
g IndexedFaceSet__4_0

s off
f 20/19/6 18/21/6 19/20/6
f 19/20/6 21/18/6 20/19/6
# 2 polygons

# Coordinates for object 'IndexedFaceSet #5'
v  201831.390625 445695.906250 -0.524397 
v  201831.390625 445695.906250 12.263835 
v  201834.093750 445689.093750 12.263831 
v  201834.125000 445689.031250 -0.524397 
# 4 vertices

vt 0.0 1.000000 0.0
vt 0.000364 0.000072 0.0
vt 0.999678 0.999906 0.0
vt 1.000000 0.0 0.0
# 4 texture vertices

vn  -0.929502 -0.368816 0.0 
vn  -0.929203 -0.369569 -0.000464 
# 2 normals

usemtl surface__3

o IndexedFaceSet__5_0
g IndexedFaceSet__5_0

s off
f 22/24/8 25/25/8 24/23/8
f 24/23/7 23/22/7 22/24/7
# 2 polygons

# Coordinates for object 'IndexedFaceSet #6'
v  201839.218750 445694.968750 14.948010 
v  201840.296875 445691.500000 14.948010 
v  201847.265625 445697.937500 14.948011 
v  201848.515625 445694.531250 14.948010 
# 4 vertices

vt 0.0 0.0 0.0
vt 0.0 1.000000 0.0
vt 1.000000 0.0 0.0
vt 1.000000 0.978609 0.0
# 4 texture vertices

vn  0.0 0.0 1.0 
# 1 normals

usemtl surface__5

o IndexedFaceSet__6_0
g IndexedFaceSet__6_0

s off
f 26/29/9 27/27/9 29/26/9
f 29/26/9 28/28/9 26/29/9
# 2 polygons

# Coordinates for object 'IndexedFaceSet #7'
v  201839.218750 445694.968750 11.391634 
v  201839.218750 445694.968750 14.948010 
v  201847.265625 445697.937500 11.391636 
v  201847.265625 445697.937500 14.948011 
# 4 vertices

vt 0.0 0.000013 0.0
vt 0.000077 1.000000 0.0
vt 0.999920 0.0 0.0
vt 1.000000 0.999977 0.0
# 4 texture vertices

vn  -0.346127 0.938187 0.0 
# 1 normals

usemtl surface__6

o IndexedFaceSet__7_0
g IndexedFaceSet__7_0

s off
f 31/31/10 33/33/10 32/32/10
f 32/32/10 30/30/10 31/31/10
# 2 polygons

# Coordinates for object 'IndexedFaceSet #8'
v  201847.265625 445697.937500 11.391636 
v  201847.265625 445697.937500 14.948011 
v  201848.515625 445694.531250 11.391634 
v  201848.515625 445694.531250 14.948010 
# 4 vertices

vt 0.0 0.000013 0.0
vt 0.000077 1.000000 0.0
vt 0.999920 0.0 0.0
vt 1.000000 0.999977 0.0
# 4 texture vertices

vn  0.938783 0.344508 0.0 
# 1 normals

usemtl surface__6

o IndexedFaceSet__8_0
g IndexedFaceSet__8_0

s off
f 35/37/11 37/35/11 36/34/11
f 36/34/11 34/36/11 35/37/11
# 2 polygons

# Coordinates for object 'IndexedFaceSet #9'
v  201840.296875 445691.500000 11.391634 
v  201840.296875 445691.500000 14.948010 
v  201848.515625 445694.531250 11.391634 
v  201848.515625 445694.531250 14.948010 
# 4 vertices

vt 0.0 0.000013 0.0
vt 0.000077 1.000000 0.0
vt 0.999920 0.0 0.0
vt 1.000000 0.999977 0.0
# 4 texture vertices

vn  0.346036 -0.938221 0.0 
# 1 normals

usemtl surface__6

o IndexedFaceSet__9_0
g IndexedFaceSet__9_0

s off
f 41/41/12 39/39/12 40/40/12
f 38/38/12 40/40/12 39/39/12
# 2 polygons

# Coordinates for object 'IndexedFaceSet #10'
v  201839.218750 445694.968750 11.391634 
v  201839.218750 445694.968750 14.948010 
v  201840.296875 445691.500000 11.391634 
v  201840.296875 445691.500000 14.948010 
# 4 vertices

vt 0.0 0.000013 0.0
vt 0.000077 1.000000 0.0
vt 0.999920 0.0 0.0
vt 1.000000 0.999977 0.0
# 4 texture vertices

vn  -0.954938 -0.296805 0.0 
# 1 normals

usemtl surface__6

o IndexedFaceSet__10_0
g IndexedFaceSet__10_0

s off
f 42/44/13 44/42/13 45/43/13
f 45/43/13 43/45/13 42/44/13
# 2 polygons
