# Converted by Daum Communications 
# Date/time of export: 08/22/2013 14:53:56
#
# Bounding box of geometry = (201880,445815,-0.39848) to (201903,445842,40.947).

mtllib 4666703.mtl

# Coordinates for object 'IndexedFaceSet'
v  201879.734375 445835.937500 -0.157784 
v  201879.875000 445835.531250 40.945034 
v  201887.734375 445814.875000 -0.398480 
v  201887.843750 445814.593750 40.705780 
# 4 vertices

vt 0.0 0.0 0.0
vt 0.001802 1.000000 0.0
vt 0.998209 0.000309 0.0
vt 1.000000 0.994281 0.0
# 4 texture vertices

vn  -0.934839 -0.355073 0.000058 
vn  -0.934599 -0.355702 -0.000318 
# 2 normals

usemtl surface

o IndexedFaceSet
g IndexedFaceSet

s off
f 1/2/1 3/1/1 4/3/1
f 4/3/2 2/4/2 1/2/2
# 2 polygons

# Coordinates for object 'IndexedFaceSet #1'
v  201895.109375 445841.781250 -0.155864 
v  201895.265625 445841.375000 40.946957 
v  201903.109375 445820.718750 -0.396560 
v  201903.218750 445820.437500 40.707695 
# 4 vertices

vt 0.0 0.0 0.0
vt 0.001802 1.000000 0.0
vt 0.998209 0.000309 0.0
vt 1.000000 0.994281 0.0
# 4 texture vertices

vn  0.934830 0.355096 -0.000044 
vn  0.934839 0.355073 -0.000058 
# 2 normals

usemtl surface

o IndexedFaceSet__1_0
g IndexedFaceSet__1_0

s off
f 6/8/3 8/7/3 5/6/3
f 7/5/4 5/6/4 8/7/4
# 2 polygons

# Coordinates for object 'IndexedFaceSet #2'
v  201879.875000 445835.531250 40.945034 
v  201887.843750 445814.593750 40.705780 
v  201895.265625 445841.375000 40.946957 
v  201903.218750 445820.437500 40.707695 
# 4 vertices

vt 0.0 0.0 0.0
vt 0.0 1.000000 0.0
vt 1.000000 0.0 0.0
vt 1.000000 1.000000 0.0
# 4 texture vertices

vn  0.003685 -0.010024 0.999943 
# 1 normals

usemtl surface__2

o IndexedFaceSet__2_0
g IndexedFaceSet__2_0

s off
f 9/9/5 10/11/5 12/12/5
f 12/12/5 11/10/5 9/9/5
# 2 polygons

# Coordinates for object 'IndexedFaceSet #3'
v  201879.734375 445835.937500 -0.157784 
v  201879.875000 445835.531250 40.945034 
v  201895.109375 445841.781250 -0.155864 
v  201895.265625 445841.375000 40.946957 
# 4 vertices

vt 0.0 0.999826 0.0
vt 0.000142 0.0 0.0
vt 0.999872 1.000000 0.0
vt 1.000000 0.000186 0.0
# 4 texture vertices

vn  -0.355266 0.934707 0.010454 
vn  -0.354950 0.934825 0.010589 
# 2 normals

usemtl surface__3

o IndexedFaceSet__3_0
g IndexedFaceSet__3_0

s off
f 15/14/6 13/16/6 14/15/6
f 14/15/7 16/13/7 15/14/7
# 2 polygons

# Coordinates for object 'IndexedFaceSet #4'
v  201887.734375 445814.875000 -0.398480 
v  201887.843750 445814.593750 40.705780 
v  201903.109375 445820.718750 -0.396560 
v  201903.218750 445820.437500 40.707695 
# 4 vertices

vt 0.0 1.000000 0.0
vt 0.000279 0.000211 0.0
vt 0.999556 0.999543 0.0
vt 1.000000 0.0 0.0
# 4 texture vertices

vn  0.355275 -0.934733 -0.007341 
# 1 normals

usemtl surface__4

o IndexedFaceSet__4_0
g IndexedFaceSet__4_0

s off
f 17/18/8 19/20/8 18/17/8
f 20/19/8 18/17/8 19/20/8
# 2 polygons
