# Converted by Daum Communications 
# Date/time of export: 08/22/2013 14:53:55
#
# Bounding box of geometry = (202016,445450,-0.404155) to (202065,445483,11.7373).

mtllib 4666676.mtl

# Coordinates for object 'IndexedFaceSet'
v  202016.046875 445467.656250 9.978905 
v  202016.062500 445467.593750 -0.404150 
v  202022.812500 445449.687500 -0.404153 
v  202022.812500 445449.687500 9.978908 
# 4 vertices

vt 0.0 0.999985 0.0
vt 0.003030 0.0 0.0
vt 0.999971 0.000012 0.0
vt 1.000000 1.000000 0.0
# 4 texture vertices

vn  -0.935860 -0.352372 0.000713 
vn  -0.935724 -0.352734 0.0 
# 2 normals

usemtl surface

o IndexedFaceSet
g IndexedFaceSet

s off
f 4/4/1 1/1/1 2/2/1
f 2/2/2 3/3/2 4/4/2
# 2 polygons

# Coordinates for object 'IndexedFaceSet #1'
v  202037.093750 445475.593750 9.978911 
v  202037.109375 445475.531250 -0.404155 
v  202043.875000 445457.625000 -0.404154 
v  202043.875000 445457.625000 9.978910 
# 4 vertices

vt 0.0 0.999985 0.0
vt 0.003030 0.0 0.0
vt 0.999971 0.000012 0.0
vt 1.000000 1.000000 0.0
# 4 texture vertices

vn  0.935454 0.353448 0.0 
vn  0.935591 0.353084 -0.000717 
# 2 normals

usemtl surface

o IndexedFaceSet__1_0
g IndexedFaceSet__1_0

s off
f 7/7/3 6/6/3 8/8/3
f 5/5/4 8/8/4 6/6/4
# 2 polygons

# Coordinates for object 'IndexedFaceSet #2'
v  202018.875000 445466.750000 9.978908 
v  202018.875000 445466.750000 11.737314 
v  202020.718750 445461.843750 9.978907 
v  202020.718750 445461.843750 11.737313 
# 4 vertices

vt 0.0 0.0 0.0
vt 0.000014 0.999987 0.0
vt 0.983706 0.0 0.0
vt 1.000000 1.000000 0.0
# 4 texture vertices

vn  -0.936084 -0.351777 0.0 
# 1 normals

usemtl surface__2

o IndexedFaceSet__2_0
g IndexedFaceSet__2_0

s off
f 12/10/5 10/9/5 11/12/5
f 9/11/5 11/12/5 10/9/5
# 2 polygons

# Coordinates for object 'IndexedFaceSet #3'
v  202022.812500 445449.687500 -0.404153 
v  202022.812500 445449.687500 9.978908 
v  202043.875000 445457.625000 -0.404154 
v  202043.875000 445457.625000 9.978910 
# 4 vertices

vt 0.0 0.000061 0.0
vt 0.000678 1.000000 0.0
vt 0.999222 0.0 0.0
vt 1.000000 0.999990 0.0
# 4 texture vertices

vn  0.352644 -0.935757 0.0 
# 1 normals

usemtl surface__3

o IndexedFaceSet__3_0
g IndexedFaceSet__3_0

s off
f 16/13/6 14/14/6 13/16/6
f 13/16/6 15/15/6 16/13/6
# 2 polygons

# Coordinates for object 'IndexedFaceSet #4'
v  202016.046875 445467.656250 9.978905 
v  202022.812500 445449.687500 9.978908 
v  202037.093750 445475.593750 9.978911 
v  202043.875000 445457.625000 9.978910 
# 4 vertices

vt 0.0 0.0 0.0
vt 0.0 1.000000 0.0
vt 1.000000 0.0 0.0
vt 1.000000 1.000000 0.0
# 4 texture vertices

vn  0.0 0.0 1.0 
# 1 normals

usemtl surface__4

o IndexedFaceSet__4_0
g IndexedFaceSet__4_0

s off
f 20/20/7 19/18/7 18/19/7
f 17/17/7 18/19/7 19/18/7
# 2 polygons

# Coordinates for object 'IndexedFaceSet #5'
v  202016.046875 445467.656250 9.978905 
v  202016.062500 445467.593750 -0.404150 
v  202037.093750 445475.593750 9.978911 
v  202037.109375 445475.531250 -0.404155 
# 4 vertices

vt 0.0 0.000061 0.0
vt 0.000678 1.000000 0.0
vt 0.999222 0.0 0.0
vt 1.000000 0.999990 0.0
# 4 texture vertices

vn  -0.352867 0.935653 -0.006163 
# 1 normals

usemtl surface__3

o IndexedFaceSet__5_0
g IndexedFaceSet__5_0

s off
f 21/22/8 23/21/8 24/23/8
f 24/23/8 22/24/8 21/22/8
# 2 polygons

# Coordinates for object 'IndexedFaceSet #6'
v  202037.093750 445475.593750 9.978911 
v  202039.390625 445469.500000 9.978911 
v  202057.390625 445483.250000 9.978916 
v  202059.671875 445477.156250 9.978916 
# 4 vertices

vt 0.0 0.0 0.0
vt 0.0 1.000000 0.0
vt 0.999999 1.000000 0.0
vt 1.000000 0.0 0.0
# 4 texture vertices

vn  0.0 0.0 1.0 
# 1 normals

usemtl surface__4

o IndexedFaceSet__6_0
g IndexedFaceSet__6_0

s off
f 28/27/9 27/26/9 25/25/9
f 25/25/9 26/28/9 28/27/9
# 2 polygons

# Coordinates for object 'IndexedFaceSet #7'
v  202037.093750 445475.593750 9.978911 
v  202037.109375 445475.531250 -0.404155 
v  202057.390625 445483.250000 9.978916 
v  202057.406250 445483.187500 -0.404150 
# 4 vertices

vt 0.0 0.000210 0.0
vt 0.000413 1.000000 0.0
vt 0.999054 0.0 0.0
vt 1.000000 0.999812 0.0
# 4 texture vertices

vn  -0.352932 0.935629 -0.006163 
# 1 normals

usemtl surface__5

o IndexedFaceSet__7_0
g IndexedFaceSet__7_0

s off
f 29/30/10 31/29/10 30/32/10
f 32/31/10 30/32/10 31/29/10
# 2 polygons

# Coordinates for object 'IndexedFaceSet #8'
v  202021.250000 445467.625000 9.978908 
v  202021.250000 445467.625000 11.737313 
v  202023.109375 445462.750000 9.978907 
v  202023.109375 445462.750000 11.737314 
# 4 vertices

vt 0.0 0.0 0.0
vt 0.000014 0.999987 0.0
vt 0.983706 0.0 0.0
vt 1.000000 1.000000 0.0
# 4 texture vertices

vn  0.934345 0.356369 0.0 
# 1 normals

usemtl surface__2

o IndexedFaceSet__8_0
g IndexedFaceSet__8_0

s off
f 35/36/11 33/35/11 34/33/11
f 34/33/11 36/34/11 35/36/11
# 2 polygons

# Coordinates for object 'IndexedFaceSet #9'
v  202039.375000 445469.531250 -0.404155 
v  202039.390625 445469.500000 9.978911 
v  202059.671875 445477.156250 9.978916 
v  202059.671875 445477.187500 -0.404153 
# 4 vertices

vt 0.0 0.000061 0.0
vt 0.000678 1.000000 0.0
vt 0.999222 0.0 0.0
vt 1.000000 0.999990 0.0
# 4 texture vertices

vn  0.352936 -0.935641 -0.003347 
vn  0.353175 -0.935553 -0.002816 
# 2 normals

usemtl surface__3

o IndexedFaceSet__9_0
g IndexedFaceSet__9_0

s off
f 39/37/13 38/38/13 40/39/13
f 37/40/12 40/39/12 38/38/12
# 2 polygons

# Coordinates for object 'IndexedFaceSet #10'
v  202061.546875 445481.593750 9.978918 
v  202061.562500 445481.531250 -0.404150 
v  202062.765625 445478.343750 -0.404150 
v  202062.781250 445478.343750 9.978917 
# 4 vertices

vt 0.0 1.000000 0.0
vt 0.0 0.0 0.0
vt 0.999999 0.995890 0.0
vt 1.000000 0.009043 0.0
# 4 texture vertices

vn  0.934843 0.355061 -0.000730 
vn  0.935572 0.353133 -0.001408 
# 2 normals

usemtl surface__6

o IndexedFaceSet__10_0
g IndexedFaceSet__10_0

s off
f 43/44/15 42/43/15 44/42/15
f 41/41/14 44/42/14 42/43/14
# 2 polygons

# Coordinates for object 'IndexedFaceSet #11'
v  202020.718750 445461.843750 9.978907 
v  202020.718750 445461.843750 11.737313 
v  202023.109375 445462.750000 9.978907 
v  202023.109375 445462.750000 11.737314 
# 4 vertices

vt 0.0 0.0 0.0
vt 0.000014 0.999987 0.0
vt 0.983706 0.0 0.0
vt 1.000000 1.000000 0.0
# 4 texture vertices

vn  0.354470 -0.935067 0.0 
# 1 normals

usemtl surface__2

o IndexedFaceSet__11_0
g IndexedFaceSet__11_0

s off
f 48/45/16 46/46/16 45/48/16
f 45/48/16 47/47/16 48/45/16
# 2 polygons

# Coordinates for object 'IndexedFaceSet #12'
v  202057.390625 445483.250000 9.978916 
v  202057.406250 445483.187500 -0.404150 
v  202061.546875 445481.593750 9.978918 
v  202061.562500 445481.531250 -0.404150 
# 4 vertices

vt 0.0 1.000000 0.0
vt 0.0 0.0 0.0
vt 0.999999 0.995890 0.0
vt 1.000000 0.009043 0.0
# 4 texture vertices

vn  0.370181 0.928946 -0.005035 
# 1 normals

usemtl surface__6

o IndexedFaceSet__12_0
g IndexedFaceSet__12_0

s off
f 49/49/17 51/50/17 50/51/17
f 52/52/17 50/51/17 51/50/17
# 2 polygons

# Coordinates for object 'IndexedFaceSet #13'
v  202057.390625 445483.250000 9.978916 
v  202059.671875 445477.156250 9.978916 
v  202061.546875 445481.593750 9.978918 
v  202062.781250 445478.343750 9.978917 
# 4 vertices

vt 0.0 0.0 0.0
vt 0.464222 1.000000 0.0
vt 1.000000 0.0 0.0
vt 1.000000 1.000000 0.0
# 4 texture vertices

vn  0.0 0.0 1.0 
# 1 normals

usemtl surface__4

o IndexedFaceSet__13_0
g IndexedFaceSet__13_0

s off
f 56/56/18 55/54/18 54/55/18
f 53/53/18 54/55/18 55/54/18
# 2 polygons

# Coordinates for object 'IndexedFaceSet #14'
v  202056.937500 445468.437500 -0.404153 
v  202057.031250 445468.437500 9.978915 
v  202065.312500 445471.593750 -0.404150 
v  202065.328125 445471.593750 9.978918 
# 4 vertices

vt 0.0 0.999985 0.0
vt 0.003030 0.0 0.0
vt 0.999971 0.000012 0.0
vt 1.000000 1.000000 0.0
# 4 texture vertices

vn  0.352652 -0.935749 -0.003184 
vn  0.355556 -0.934655 -0.000535 
# 2 normals

usemtl surface

o IndexedFaceSet__14_0
g IndexedFaceSet__14_0

s off
f 60/57/20 58/60/20 59/58/20
f 57/59/19 59/58/19 58/60/19
# 2 polygons

# Coordinates for object 'IndexedFaceSet #15'
v  202018.875000 445466.750000 11.737314 
v  202020.718750 445461.843750 11.737313 
v  202021.250000 445467.625000 11.737313 
v  202023.109375 445462.750000 11.737314 
# 4 vertices

vt 0.0 0.0 0.0
vt 0.0 1.000000 0.0
vt 1.000000 0.0 0.0
vt 1.000000 1.000000 0.0
# 4 texture vertices

vn  0.0 0.0 1.0 
# 1 normals

usemtl surface__7

o IndexedFaceSet__15_0
g IndexedFaceSet__15_0

s off
f 64/61/21 63/63/21 61/64/21
f 61/64/21 62/62/21 64/61/21
# 2 polygons

# Coordinates for object 'IndexedFaceSet #16'
v  202062.765625 445478.343750 -0.404150 
v  202062.781250 445478.343750 9.978917 
v  202065.312500 445471.593750 -0.404150 
v  202065.328125 445471.593750 9.978918 
# 4 vertices

vt 0.0 1.000000 0.0
vt 0.0 0.0 0.0
vt 0.999999 0.995890 0.0
vt 1.000000 0.009043 0.0
# 4 texture vertices

vn  0.935614 0.353021 -0.001408 
# 1 normals

usemtl surface__6

o IndexedFaceSet__16_0
g IndexedFaceSet__16_0

s off
f 67/68/22 65/67/22 66/65/22
f 66/65/22 68/66/22 67/68/22
# 2 polygons

# Coordinates for object 'IndexedFaceSet #17'
v  202054.484375 445475.218750 9.978913 
v  202057.031250 445468.437500 9.978915 
v  202062.781250 445478.343750 9.978917 
v  202065.328125 445471.593750 9.978918 
# 4 vertices

vt 0.0 0.0 0.0
vt 0.0 1.000000 0.0
vt 1.000000 0.0 0.0
vt 1.000000 1.000000 0.0
# 4 texture vertices

vn  0.0 0.0 1.0 
# 1 normals

usemtl surface__4

o IndexedFaceSet__17_0
g IndexedFaceSet__17_0

s off
f 72/72/23 71/70/23 70/71/23
f 69/69/23 70/71/23 71/70/23
# 2 polygons

# Coordinates for object 'IndexedFaceSet #18'
v  202054.390625 445475.187500 -0.404153 
v  202054.484375 445475.218750 9.978913 
v  202056.937500 445468.437500 -0.404153 
v  202057.031250 445468.437500 9.978915 
# 4 vertices

vt 0.0 1.000000 0.0
vt 0.0 0.003756 0.0
vt 0.999988 0.996257 0.0
vt 1.000000 0.0 0.0
# 4 texture vertices

vn  -0.936118 -0.351584 0.008452 
vn  -0.935573 -0.353006 0.009510 
# 2 normals

usemtl surface__8

o IndexedFaceSet__18_0
g IndexedFaceSet__18_0

s off
f 76/73/24 74/74/24 75/75/24
f 73/76/25 75/75/25 74/74/25
# 2 polygons

# Coordinates for object 'IndexedFaceSet #19'
v  202018.875000 445466.750000 9.978908 
v  202018.875000 445466.750000 11.737314 
v  202021.250000 445467.625000 9.978908 
v  202021.250000 445467.625000 11.737313 
# 4 vertices

vt 0.0 0.0 0.0
vt 0.000014 0.999987 0.0
vt 0.983706 0.0 0.0
vt 1.000000 1.000000 0.0
# 4 texture vertices

vn  -0.345705 0.938343 0.0 
# 1 normals

usemtl surface__2

o IndexedFaceSet__19_0
g IndexedFaceSet__19_0

s off
f 78/78/26 80/77/26 77/80/26
f 79/79/26 77/80/26 80/77/26
# 2 polygons

# Coordinates for object 'IndexedFaceSet #20'
v  202018.875000 445466.750000 9.978908 
v  202020.718750 445461.843750 9.978907 
v  202021.250000 445467.625000 9.978908 
v  202023.109375 445462.750000 9.978907 
# 4 vertices

vt 0.0 0.999916 0.0
vt 0.000045 0.0 0.0
vt 0.999974 1.000000 0.0
vt 1.000000 0.000025 0.0
# 4 texture vertices

vn  0.0 0.0 -1.0 
# 1 normals

usemtl surface__9

o IndexedFaceSet__20_0
g IndexedFaceSet__20_0

s off
f 82/84/27 81/83/27 84/82/27
f 83/81/27 84/82/27 81/83/27
# 2 polygons
