# Converted by Daum Communications 
# Date/time of export: 08/22/2013 14:53:57
#
# Bounding box of geometry = (202110,445220,-0.607383) to (202133,445242,20.6479).

mtllib 4666859.mtl

# Coordinates for object 'IndexedFaceSet'
v  202109.640625 445235.656250 -0.607382 
v  202109.640625 445235.656250 20.553705 
v  202114.890625 445220.156250 -0.607383 
v  202114.890625 445220.156250 20.647936 
# 4 vertices

vt 0.0 1.000000 0.0
vt 0.004417 0.000111 0.0
vt 0.999987 0.0 0.0
vt 1.000000 0.999873 0.0
# 4 texture vertices

vn  -0.947145 -0.320807 0.0 
# 1 normals

usemtl surface

o IndexedFaceSet
g IndexedFaceSet

s off
f 4/1/1 2/2/1 3/4/1
f 1/3/1 3/4/1 2/2/1
# 2 polygons

# Coordinates for object 'IndexedFaceSet #1'
v  202127.468750 445241.718750 -0.607378 
v  202127.468750 445241.718750 20.553709 
v  202132.718750 445226.218750 -0.607380 
v  202132.718750 445226.218750 20.647940 
# 4 vertices

vt 0.0 1.000000 0.0
vt 0.004417 0.000111 0.0
vt 0.999987 0.0 0.0
vt 1.000000 0.999873 0.0
# 4 texture vertices

vn  0.947145 0.320807 0.0 
# 1 normals

usemtl surface

o IndexedFaceSet__1_0
g IndexedFaceSet__1_0

s off
f 7/8/2 5/7/2 6/6/2
f 6/6/2 8/5/2 7/8/2
# 2 polygons

# Coordinates for object 'IndexedFaceSet #2'
v  202109.640625 445235.656250 -0.607382 
v  202109.640625 445235.656250 20.553705 
v  202127.468750 445241.718750 -0.607378 
v  202127.468750 445241.718750 20.553709 
# 4 vertices

vt 0.0 0.000069 0.0
vt 0.000580 1.000000 0.0
vt 0.999543 0.0 0.0
vt 1.000000 0.999900 0.0
# 4 texture vertices

vn  -0.321947 0.946758 0.0 
# 1 normals

usemtl surface__2

o IndexedFaceSet__2_0
g IndexedFaceSet__2_0

s off
f 10/11/3 12/12/3 11/10/3
f 11/10/3 9/9/3 10/11/3
# 2 polygons

# Coordinates for object 'IndexedFaceSet #3'
v  202114.890625 445220.156250 -0.607383 
v  202114.890625 445220.156250 20.647936 
v  202132.718750 445226.218750 -0.607380 
v  202132.718750 445226.218750 20.647940 
# 4 vertices

vt 0.0 1.000000 0.0
vt 0.000339 0.000179 0.0
vt 0.999987 0.999775 0.0
vt 1.000000 0.0 0.0
# 4 texture vertices

vn  0.321947 -0.946758 0.0 
# 1 normals

usemtl surface__3

o IndexedFaceSet__3_0
g IndexedFaceSet__3_0

s off
f 16/13/4 14/14/4 13/16/4
f 13/16/4 15/15/4 16/13/4
# 2 polygons

# Coordinates for object 'IndexedFaceSet #4'
v  202109.640625 445235.656250 20.553705 
v  202114.890625 445220.156250 20.647936 
v  202127.468750 445241.718750 20.553709 
v  202132.718750 445226.218750 20.647940 
# 4 vertices

vt 0.0 0.0 0.0
vt 0.0 1.000000 0.0
vt 0.999999 0.0 0.0
vt 1.000000 1.000000 0.0
# 4 texture vertices

vn  -0.001854 0.005451 0.999983 
# 1 normals

usemtl surface__4

o IndexedFaceSet__4_0
g IndexedFaceSet__4_0

s off
f 20/18/5 19/17/5 17/19/5
f 17/19/5 18/20/5 20/18/5
# 2 polygons
