# Converted by Daum Communications 
# Date/time of export: 08/22/2013 14:53:54
#
# Bounding box of geometry = (201767,445867,-0.511523) to (201787,445894,7.37049).

mtllib 4666501.mtl

# Coordinates for object 'IndexedFaceSet'
v  201778.390625 445894.093750 -0.480442 
v  201778.390625 445894.093750 7.370483 
v  201787.093750 445871.937500 -0.511523 
v  201787.093750 445871.937500 7.370483 
# 4 vertices

vt 0.0 1.000000 0.0
vt 0.000068 0.000023 0.0
vt 0.996014 0.999965 0.0
vt 1.000000 0.0 0.0
# 4 texture vertices

vn  0.930767 0.365612 0.0 
# 1 normals

usemtl surface

o IndexedFaceSet
g IndexedFaceSet

s off
f 2/1/1 4/2/1 1/3/1
f 3/4/1 1/3/1 4/2/1
# 2 polygons

# Coordinates for object 'IndexedFaceSet #1'
v  201766.593750 445889.468750 -0.480437 
v  201766.593750 445889.468750 7.370489 
v  201775.312500 445867.312500 -0.511518 
v  201775.312500 445867.312500 7.370488 
# 4 vertices

vt 0.0 1.000000 0.0
vt 0.000056 0.000021 0.0
vt 0.996088 0.999967 0.0
vt 1.000000 0.0 0.0
# 4 texture vertices

vn  -0.930544 -0.366180 0.0 
# 1 normals

usemtl surface__2

o IndexedFaceSet__1_0
g IndexedFaceSet__1_0

s off
f 7/8/2 8/6/2 5/7/2
f 6/5/2 5/7/2 8/6/2
# 2 polygons

# Coordinates for object 'IndexedFaceSet #2'
v  201766.593750 445889.468750 -0.480437 
v  201766.593750 445889.468750 7.370489 
v  201778.390625 445894.093750 -0.480442 
v  201778.390625 445894.093750 7.370483 
# 4 vertices

vt 0.0 1.000000 0.0
vt 0.001063 0.000276 0.0
vt 0.998542 0.999766 0.0
vt 1.000000 0.0 0.0
# 4 texture vertices

vn  -0.365004 0.931006 0.0 
# 1 normals

usemtl surface__3

o IndexedFaceSet__2_0
g IndexedFaceSet__2_0

s off
f 10/12/3 12/11/3 9/10/3
f 11/9/3 9/10/3 12/11/3
# 2 polygons

# Coordinates for object 'IndexedFaceSet #3'
v  201766.593750 445889.468750 7.370489 
v  201775.312500 445867.312500 7.370488 
v  201778.390625 445894.093750 7.370483 
v  201787.093750 445871.937500 7.370483 
# 4 vertices

vt 0.0 0.500000 0.0
vt 0.0 1.000000 0.0
vt 1.000000 0.500000 0.0
vt 1.000000 1.000000 0.0
# 4 texture vertices

vn  0.0 0.0 1.0 
# 1 normals

usemtl surface__4

o IndexedFaceSet__3_0
g IndexedFaceSet__3_0

s off
f 13/16/4 14/14/4 16/13/4
f 16/13/4 15/15/4 13/16/4
# 2 polygons

# Coordinates for object 'IndexedFaceSet #4'
v  201775.312500 445867.312500 -0.511518 
v  201775.312500 445867.312500 7.370488 
v  201787.093750 445871.937500 -0.511523 
v  201787.093750 445871.937500 7.370483 
# 4 vertices

vt 0.0 1.000000 0.0
vt 0.001326 0.000158 0.0
vt 0.998391 0.999878 0.0
vt 1.000000 0.0 0.0
# 4 texture vertices

vn  0.365423 -0.930842 0.0 
# 1 normals

usemtl surface__5

o IndexedFaceSet__4_0
g IndexedFaceSet__4_0

s off
f 20/19/5 18/20/5 19/17/5
f 17/18/5 19/17/5 18/20/5
# 2 polygons
