# Converted by Daum Communications 
# Date/time of export: 08/22/2013 14:53:55
#
# Bounding box of geometry = (202125,445205,-1.64655) to (202142,445224,12.6729).

mtllib 4666662.mtl

# Coordinates for object 'IndexedFaceSet'
v  202124.890625 445220.343750 -1.646539 
v  202124.890625 445220.343750 9.537868 
v  202130.421875 445204.812500 -1.646545 
v  202130.421875 445204.812500 9.566530 
# 4 vertices

vt 0.0 0.000038 0.0
vt 0.000038 0.997481 0.0
vt 0.999952 0.0 0.0
vt 1.000000 1.000000 0.0
# 4 texture vertices

vn  -0.942042 -0.335496 0.0 
# 1 normals

usemtl surface

o IndexedFaceSet
g IndexedFaceSet

s off
f 4/4/1 2/2/1 3/3/1
f 1/1/1 3/3/1 2/2/1
# 2 polygons

# Coordinates for object 'IndexedFaceSet #1'
v  202136.140625 445224.343750 -1.646542 
v  202136.140625 445224.343750 9.537862 
v  202141.656250 445208.812500 -1.646547 
v  202141.656250 445208.812500 9.566524 
# 4 vertices

vt 0.0 0.000038 0.0
vt 0.000038 0.997481 0.0
vt 0.999952 0.0 0.0
vt 1.000000 1.000000 0.0
# 4 texture vertices

vn  0.942341 0.334654 0.0 
# 1 normals

usemtl surface

o IndexedFaceSet__1_0
g IndexedFaceSet__1_0

s off
f 8/8/2 7/7/2 6/6/2
f 5/5/2 6/6/2 7/7/2
# 2 polygons

# Coordinates for object 'IndexedFaceSet #2'
v  202124.890625 445220.343750 -1.646539 
v  202124.890625 445220.343750 9.537868 
v  202136.140625 445224.343750 -1.646542 
v  202136.140625 445224.343750 9.537862 
# 4 vertices

vt 0.0 1.000000 0.0
vt 0.000270 0.000206 0.0
vt 0.999886 0.0 0.0
vt 1.000000 0.999884 0.0
# 4 texture vertices

vn  -0.335010 0.942215 0.0 
# 1 normals

usemtl surface__2

o IndexedFaceSet__2_0
g IndexedFaceSet__2_0

s off
f 10/10/3 12/9/3 9/11/3
f 11/12/3 9/11/3 12/9/3
# 2 polygons

# Coordinates for object 'IndexedFaceSet #3'
v  202130.421875 445204.812500 -1.646545 
v  202130.421875 445204.812500 9.566530 
v  202141.656250 445208.812500 -1.646547 
v  202141.656250 445208.812500 9.566524 
# 4 vertices

vt 0.0 1.000000 0.0
vt 0.000270 0.000206 0.0
vt 0.999886 0.0 0.0
vt 1.000000 0.999884 0.0
# 4 texture vertices

vn  0.335423 -0.942068 0.0 
# 1 normals

usemtl surface__2

o IndexedFaceSet__3_0
g IndexedFaceSet__3_0

s off
f 16/13/4 14/14/4 13/15/4
f 13/15/4 15/16/4 16/13/4
# 2 polygons

# Coordinates for object 'IndexedFaceSet #4'
v  202124.890625 445220.343750 9.537868 
v  202130.421875 445204.812500 9.566530 
v  202136.140625 445224.343750 9.537862 
v  202141.656250 445208.812500 9.566524 
# 4 vertices

vt 0.0 0.0 0.0
vt 0.0 1.000000 0.0
vt 1.000000 0.0 0.0
vt 1.000000 1.000000 0.0
# 4 texture vertices

vn  -0.000583 0.001638 0.999999 
# 1 normals

usemtl surface__3

o IndexedFaceSet__4_0
g IndexedFaceSet__4_0

s off
f 20/18/5 19/17/5 18/20/5
f 17/19/5 18/20/5 19/17/5
# 2 polygons

# Coordinates for object 'IndexedFaceSet #5'
v  202126.390625 445216.156250 10.629464 
v  202126.390625 445216.156250 12.672921 
v  202126.578125 445215.625000 9.544361 
v  202126.578125 445215.625000 10.629464 
v  202129.015625 445208.718750 9.559296 
v  202129.031250 445208.718750 10.661775 
v  202129.218750 445208.156250 10.661775 
v  202129.218750 445208.156250 12.672919 
# 8 vertices

vt 0.0 0.347092 0.0
vt 0.000513 1.000000 0.0
vt 0.066616 0.0 0.0
vt 0.066896 0.346717 0.0
vt 0.929941 0.0 0.0
vt 0.932103 0.352244 0.0
vt 0.999521 0.351871 0.0
vt 1.000000 0.994452 0.0
# 8 texture vertices

vn  -0.948683 -0.316228 0.0 
vn  -0.942990 -0.332820 0.0 
vn  -0.942807 -0.333297 -0.005322 
vn  -0.942320 -0.334713 0.000554 
vn  -0.942255 -0.334630 0.013354 
# 5 normals

usemtl surface__4

o IndexedFaceSet__5_0
g IndexedFaceSet__5_0

s off
f 22/22/7 21/21/7 24/24/7
f 26/26/9 22/22/9 24/24/9
f 22/22/8 26/26/8 28/28/8
f 25/25/10 26/26/10 24/24/10
f 26/26/6 27/27/6 28/28/6
f 25/25/7 24/24/7 23/23/7
# 6 polygons

# Coordinates for object 'IndexedFaceSet #6'
v  202126.750000 445216.281250 10.629465 
v  202126.750000 445216.281250 12.672921 
v  202126.937500 445215.750000 9.544362 
v  202126.937500 445215.750000 10.629464 
v  202129.390625 445208.843750 9.559297 
v  202129.390625 445208.843750 10.661775 
v  202129.578125 445208.312500 10.661775 
v  202129.578125 445208.312500 12.672920 
# 8 vertices

vt 0.0 0.347092 0.0
vt 0.000513 1.000000 0.0
vt 0.066616 0.0 0.0
vt 0.066896 0.346717 0.0
vt 0.929941 0.0 0.0
vt 0.932103 0.352244 0.0
vt 0.999521 0.351871 0.0
vt 1.000000 0.994452 0.0
# 8 texture vertices

vn  0.942319 0.334715 0.0 
vn  0.942320 0.334713 -0.000554 
vn  0.942409 0.334463 0.000488 
vn  0.942990 0.332820 0.0 
# 4 normals

usemtl surface__4

o IndexedFaceSet__6_0
g IndexedFaceSet__6_0

s off
f 34/34/11 33/33/11 32/32/11
f 36/36/14 35/35/14 34/34/14
f 34/34/13 30/30/13 36/36/13
f 32/32/12 30/30/12 34/34/12
f 30/30/14 32/32/14 29/29/14
f 31/31/11 32/32/11 33/33/11
# 6 polygons

# Coordinates for object 'IndexedFaceSet #7'
v  202129.015625 445208.718750 9.559296 
v  202129.031250 445208.718750 10.661775 
v  202129.390625 445208.843750 9.559297 
v  202129.390625 445208.843750 10.661775 
# 4 vertices

vt 0.0 1.000000 0.0
vt 0.000067 0.000282 0.0
vt 0.999943 0.999711 0.0
vt 1.000000 0.0 0.0
# 4 texture vertices

vn  0.316228 -0.948683 0.0 
vn  0.328517 -0.944487 -0.004656 
# 2 normals

usemtl surface__5

o IndexedFaceSet__7_0
g IndexedFaceSet__7_0

s off
f 40/37/16 38/38/16 37/40/16
f 37/40/15 39/39/15 40/37/15
# 2 polygons

# Coordinates for object 'IndexedFaceSet #8'
v  202129.031250 445208.718750 10.661775 
v  202129.218750 445208.156250 10.661775 
v  202129.390625 445208.843750 10.661775 
v  202129.578125 445208.312500 10.661775 
# 4 vertices

vt 0.0 0.999871 0.0
vt 0.000174 0.000031 0.0
vt 0.999826 1.000000 0.0
vt 1.000000 0.0 0.0
# 4 texture vertices

vn  0.0 0.0 -1.0 
# 1 normals

usemtl surface__6

o IndexedFaceSet__8_0
g IndexedFaceSet__8_0

s off
f 42/42/17 41/44/17 44/41/17
f 43/43/17 44/41/17 41/44/17
# 2 polygons

# Coordinates for object 'IndexedFaceSet #9'
v  202129.218750 445208.156250 10.661775 
v  202129.218750 445208.156250 12.672919 
v  202129.578125 445208.312500 10.661775 
v  202129.578125 445208.312500 12.672920 
# 4 vertices

vt 0.0 1.000000 0.0
vt 0.000144 0.000552 0.0
vt 0.999868 0.999491 0.0
vt 1.000000 0.0 0.0
# 4 texture vertices

vn  0.398726 -0.917070 0.0 
# 1 normals

usemtl surface__7

o IndexedFaceSet__9_0
g IndexedFaceSet__9_0

s off
f 48/45/18 46/46/18 45/48/18
f 45/48/18 47/47/18 48/45/18
# 2 polygons

# Coordinates for object 'IndexedFaceSet #10'
v  202126.390625 445216.156250 12.672921 
v  202126.750000 445216.281250 12.672921 
v  202129.218750 445208.156250 12.672919 
v  202129.578125 445208.312500 12.672920 
# 4 vertices

vt 0.0 1.000000 0.0
vt 0.000144 0.000552 0.0
vt 0.999868 0.999491 0.0
vt 1.000000 0.0 0.0
# 4 texture vertices

vn  0.0 0.0 1.0 
# 1 normals

usemtl surface__7

o IndexedFaceSet__10_0
g IndexedFaceSet__10_0

s off
f 50/51/19 49/49/19 51/50/19
f 51/50/19 52/52/19 50/51/19
# 2 polygons

# Coordinates for object 'IndexedFaceSet #11'
v  202126.390625 445216.156250 10.629464 
v  202126.390625 445216.156250 12.672921 
v  202126.750000 445216.281250 10.629465 
v  202126.750000 445216.281250 12.672921 
# 4 vertices

vt 0.0 0.000877 0.0
vt 0.000108 1.000000 0.0
vt 0.999892 0.0 0.0
vt 1.000000 0.999070 0.0
# 4 texture vertices

vn  -0.328521 0.944497 0.0 
# 1 normals

usemtl surface__8

o IndexedFaceSet__11_0
g IndexedFaceSet__11_0

s off
f 54/54/20 56/53/20 55/55/20
f 55/55/20 53/56/20 54/54/20
# 2 polygons

# Coordinates for object 'IndexedFaceSet #12'
v  202126.390625 445216.156250 10.629464 
v  202126.578125 445215.625000 10.629464 
v  202126.750000 445216.281250 10.629465 
v  202126.937500 445215.750000 10.629464 
# 4 vertices

vt 0.0 0.999874 0.0
vt 0.000105 0.000448 0.0
vt 0.999872 1.000000 0.0
vt 1.000000 0.0 0.0
# 4 texture vertices

vn  0.000002 0.0 -1.0 
# 1 normals

usemtl surface__9

o IndexedFaceSet__12_0
g IndexedFaceSet__12_0

s off
f 58/58/21 57/60/21 59/59/21
f 59/59/21 60/57/21 58/58/21
# 2 polygons

# Coordinates for object 'IndexedFaceSet #13'
v  202126.578125 445215.625000 9.544361 
v  202126.578125 445215.625000 10.629464 
v  202126.937500 445215.750000 9.544362 
v  202126.937500 445215.750000 10.629464 
# 4 vertices

vt 0.0 0.000255 0.0
vt 0.000211 1.000000 0.0
vt 0.999785 0.0 0.0
vt 1.000000 0.999756 0.0
# 4 texture vertices

vn  -0.328521 0.944497 0.0 
# 1 normals

usemtl surface__10

o IndexedFaceSet__13_0
g IndexedFaceSet__13_0

s off
f 62/62/22 64/61/22 61/64/22
f 63/63/22 61/64/22 64/61/22
# 2 polygons
