# Converted by Daum Communications 
# Date/time of export: 08/22/2013 14:53:53
#
# Bounding box of geometry = (201690,446159,-0.400272) to (201729,446186,20.3175).

mtllib 4666457.mtl

# Coordinates for object 'IndexedFaceSet'
v  201724.656250 446186.250000 -0.375282 
v  201724.656250 446186.250000 17.370546 
v  201728.921875 446166.625000 -0.400266 
v  201728.921875 446166.625000 17.370552 
# 4 vertices

vt 0.0 0.0 0.0
vt 0.001201 1.000000 0.0
vt 0.998795 0.0 0.0
vt 1.000000 0.998590 0.0
# 4 texture vertices

vn  0.977183 0.212397 0.0 
# 1 normals

usemtl surface

o IndexedFaceSet
g IndexedFaceSet

s off
f 2/4/1 4/2/1 1/3/1
f 3/1/1 1/3/1 4/2/1
# 2 polygons

# Coordinates for object 'IndexedFaceSet #1'
v  201689.671875 446178.656250 -0.375287 
v  201689.671875 446178.656250 17.370539 
v  201693.937500 446159.031250 -0.400272 
v  201693.937500 446159.031250 17.370546 
# 4 vertices

vt 0.0 0.0 0.0
vt 0.001201 1.000000 0.0
vt 0.998795 0.0 0.0
vt 1.000000 0.998590 0.0
# 4 texture vertices

vn  -0.977183 -0.212397 0.0 
# 1 normals

usemtl surface

o IndexedFaceSet__1_0
g IndexedFaceSet__1_0

s off
f 5/7/2 7/5/2 8/6/2
f 8/6/2 6/8/2 5/7/2
# 2 polygons

# Coordinates for object 'IndexedFaceSet #2'
v  201689.671875 446178.656250 -0.375287 
v  201689.671875 446178.656250 17.370539 
v  201724.656250 446186.250000 -0.375282 
v  201724.656250 446186.250000 17.370546 
# 4 vertices

vt 0.0 1.000000 0.0
vt 0.001498 0.000017 0.0
vt 0.998785 0.999956 0.0
vt 1.000000 0.0 0.0
# 4 texture vertices

vn  -0.212122 0.977243 0.0 
# 1 normals

usemtl surface__2

o IndexedFaceSet__2_0
g IndexedFaceSet__2_0

s off
f 10/9/3 12/10/3 9/11/3
f 11/12/3 9/11/3 12/10/3
# 2 polygons

# Coordinates for object 'IndexedFaceSet #3'
v  201689.671875 446178.656250 17.370539 
v  201693.937500 446159.031250 17.370546 
v  201724.656250 446186.250000 17.370546 
v  201728.921875 446166.625000 17.370552 
# 4 vertices

vt 0.0 0.500000 0.0
vt 0.0 1.000000 0.0
vt 1.000000 0.500000 0.0
vt 1.000000 1.000000 0.0
# 4 texture vertices

vn  0.0 0.0 1.0 
# 1 normals

usemtl surface__3

o IndexedFaceSet__3_0
g IndexedFaceSet__3_0

s off
f 13/15/4 14/16/4 15/13/4
f 16/14/4 15/13/4 14/16/4
# 2 polygons

# Coordinates for object 'IndexedFaceSet #4'
v  201693.937500 446159.031250 -0.400272 
v  201693.937500 446159.031250 17.370546 
v  201728.921875 446166.625000 -0.400266 
v  201728.921875 446166.625000 17.370552 
# 4 vertices

vt 0.0 1.000000 0.0
vt 0.001498 0.000017 0.0
vt 0.998785 0.999956 0.0
vt 1.000000 0.0 0.0
# 4 texture vertices

vn  0.212122 -0.977243 0.0 
# 1 normals

usemtl surface__2

o IndexedFaceSet__4_0
g IndexedFaceSet__4_0

s off
f 20/18/5 18/17/5 19/20/5
f 17/19/5 19/20/5 18/17/5
# 2 polygons

# Coordinates for object 'IndexedFaceSet #5'
v  201725.687500 446174.968750 16.578190 
v  201725.687500 446174.968750 19.404537 
v  201726.734375 446170.156250 16.589302 
v  201726.734375 446170.156250 19.404539 
# 4 vertices

vt 0.0 0.996061 0.0
vt 0.001266 0.0 0.0
vt 0.998753 1.000000 0.0
vt 1.000000 0.0 0.0
# 4 texture vertices

vn  0.977148 0.212561 0.0 
# 1 normals

usemtl surface__4

o IndexedFaceSet__5_0
g IndexedFaceSet__5_0

s off
f 22/23/6 24/21/6 23/22/6
f 23/22/6 21/24/6 22/23/6
# 2 polygons

# Coordinates for object 'IndexedFaceSet #6'
v  201711.015625 446171.781250 16.578175 
v  201711.015625 446171.781250 19.404520 
v  201712.062500 446166.968750 16.589285 
v  201712.062500 446166.968750 19.404522 
# 4 vertices

vt 0.0 0.996061 0.0
vt 0.001266 0.0 0.0
vt 0.998753 1.000000 0.0
vt 1.000000 0.0 0.0
# 4 texture vertices

vn  -0.977148 -0.212561 0.0 
# 1 normals

usemtl surface__4

o IndexedFaceSet__6_0
g IndexedFaceSet__6_0

s off
f 25/28/7 27/26/7 26/27/7
f 28/25/7 26/27/7 27/26/7
# 2 polygons

# Coordinates for object 'IndexedFaceSet #7'
v  201711.015625 446171.781250 16.578175 
v  201711.015625 446171.781250 19.404520 
v  201725.687500 446174.968750 16.578190 
v  201725.687500 446174.968750 19.404537 
# 4 vertices

vt 0.0 0.996061 0.0
vt 0.001266 0.0 0.0
vt 0.998753 1.000000 0.0
vt 1.000000 0.0 0.0
# 4 texture vertices

vn  -0.212300 0.977205 0.0 
# 1 normals

usemtl surface__4

o IndexedFaceSet__7_0
g IndexedFaceSet__7_0

s off
f 32/31/8 31/32/8 30/29/8
f 29/30/8 30/29/8 31/32/8
# 2 polygons

# Coordinates for object 'IndexedFaceSet #8'
v  201711.015625 446171.781250 19.404520 
v  201712.062500 446166.968750 19.404522 
v  201725.687500 446174.968750 19.404537 
v  201726.734375 446170.156250 19.404539 
# 4 vertices

vt 0.0 0.0 0.0
vt 0.0 1.000000 0.0
vt 0.500000 0.0 0.0
vt 0.500000 1.000000 0.0
# 4 texture vertices

vn  -0.000001 0.0 1.0 
# 1 normals

usemtl surface__5

o IndexedFaceSet__8_0
g IndexedFaceSet__8_0

s off
f 33/33/9 34/35/9 36/36/9
f 36/36/9 35/34/9 33/33/9
# 2 polygons

# Coordinates for object 'IndexedFaceSet #9'
v  201712.062500 446166.968750 16.589285 
v  201712.062500 446166.968750 19.404522 
v  201726.734375 446170.156250 16.589302 
v  201726.734375 446170.156250 19.404539 
# 4 vertices

vt 0.0 0.996061 0.0
vt 0.001266 0.0 0.0
vt 0.998753 1.000000 0.0
vt 1.000000 0.0 0.0
# 4 texture vertices

vn  0.212300 -0.977205 0.0 
# 1 normals

usemtl surface__4

o IndexedFaceSet__9_0
g IndexedFaceSet__9_0

s off
f 39/40/10 40/39/10 38/37/10
f 38/37/10 37/38/10 39/40/10
# 2 polygons

# Coordinates for object 'IndexedFaceSet #10'
v  201723.625000 446166.562500 17.175003 
v  201723.625000 446166.562500 20.317463 
v  201723.843750 446165.562500 17.173882 
v  201723.843750 446165.562500 20.317463 
# 4 vertices

vt 0.0 0.001544 0.0
vt 0.001000 1.000000 0.0
vt 0.999925 0.998500 0.0
vt 1.000000 0.0 0.0
# 4 texture vertices

vn  0.976900 0.213697 0.0 
# 1 normals

usemtl surface__6

o IndexedFaceSet__10_0
g IndexedFaceSet__10_0

s off
f 42/42/11 44/41/11 41/43/11
f 43/44/11 41/43/11 44/41/11
# 2 polygons

# Coordinates for object 'IndexedFaceSet #11'
v  201722.328125 446166.281250 17.175003 
v  201722.328125 446166.281250 20.317463 
v  201722.531250 446165.281250 17.173882 
v  201722.531250 446165.281250 20.317463 
# 4 vertices

vt 0.0 0.001544 0.0
vt 0.001000 1.000000 0.0
vt 0.999925 0.998500 0.0
vt 1.000000 0.0 0.0
# 4 texture vertices

vn  -0.979987 -0.199060 0.0 
# 1 normals

usemtl surface__6

o IndexedFaceSet__11_0
g IndexedFaceSet__11_0

s off
f 45/47/12 47/48/12 48/45/12
f 48/45/12 46/46/12 45/47/12
# 2 polygons

# Coordinates for object 'IndexedFaceSet #12'
v  201722.328125 446166.281250 17.175003 
v  201722.328125 446166.281250 20.317463 
v  201723.625000 446166.562500 17.175003 
v  201723.625000 446166.562500 20.317463 
# 4 vertices

vt 0.0 0.001544 0.0
vt 0.001000 1.000000 0.0
vt 0.999925 0.998500 0.0
vt 1.000000 0.0 0.0
# 4 texture vertices

vn  -0.211941 0.977283 0.0 
# 1 normals

usemtl surface__6

o IndexedFaceSet__12_0
g IndexedFaceSet__12_0

s off
f 50/49/13 52/50/13 51/51/13
f 51/51/13 49/52/13 50/49/13
# 2 polygons

# Coordinates for object 'IndexedFaceSet #13'
v  201722.328125 446166.281250 20.317463 
v  201722.531250 446165.281250 20.317463 
v  201723.625000 446166.562500 20.317463 
v  201723.843750 446165.562500 20.317463 
# 4 vertices

vt 0.0 0.0 0.0
vt 0.0 1.000000 0.0
vt 0.999999 0.0 0.0
vt 1.000000 1.000000 0.0
# 4 texture vertices

vn  0.0 0.0 1.0 
# 1 normals

usemtl surface__7

o IndexedFaceSet__13_0
g IndexedFaceSet__13_0

s off
f 53/55/14 54/56/14 56/54/14
f 56/54/14 55/53/14 53/55/14
# 2 polygons

# Coordinates for object 'IndexedFaceSet #14'
v  201722.531250 446165.281250 17.173882 
v  201722.531250 446165.281250 20.317463 
v  201723.843750 446165.562500 17.173882 
v  201723.843750 446165.562500 20.317463 
# 4 vertices

vt 0.0 0.001544 0.0
vt 0.001000 1.000000 0.0
vt 0.999925 0.998500 0.0
vt 1.000000 0.0 0.0
# 4 texture vertices

vn  0.209529 -0.977802 0.0 
# 1 normals

usemtl surface__6

o IndexedFaceSet__14_0
g IndexedFaceSet__14_0

s off
f 60/58/15 58/57/15 57/60/15
f 57/60/15 59/59/15 60/58/15
# 2 polygons
