# Converted by Daum Communications 
# Date/time of export: 08/22/2013 14:53:56
#
# Bounding box of geometry = (202025,445433,-0.498227) to (202073,445465,13.5759).

mtllib 4666677.mtl

# Coordinates for object 'IndexedFaceSet'
v  202025.343750 445448.250000 -0.498224 
v  202025.343750 445448.250000 10.929300 
v  202031.109375 445432.906250 -0.498223 
v  202031.109375 445432.906250 10.962081 
# 4 vertices

vt 0.0 0.0 0.0
vt 0.000092 0.997137 0.0
vt 0.999895 0.0 0.0
vt 1.000000 1.000000 0.0
# 4 texture vertices

vn  -0.936094 -0.351750 0.0 
# 1 normals

usemtl surface

o IndexedFaceSet
g IndexedFaceSet

s off
f 4/4/1 2/2/1 3/3/1
f 1/1/1 3/3/1 2/2/1
# 2 polygons

# Coordinates for object 'IndexedFaceSet #1'
v  202040.203125 445453.812500 -0.498227 
v  202040.203125 445453.812500 10.929300 
v  202043.031250 445446.312500 10.945331 
v  202043.046875 445446.250000 -0.498225 
# 4 vertices

vt 0.0 0.991562 0.0
vt 0.0 0.0 0.0
vt 0.999974 0.008446 0.0
vt 1.000000 1.000000 0.0
# 4 texture vertices

vn  0.935687 0.352832 0.0 
vn  0.936011 0.351971 -0.000644 
# 2 normals

usemtl surface__2

o IndexedFaceSet__1_0
g IndexedFaceSet__1_0

s off
f 8/8/3 5/7/3 7/5/3
f 6/6/2 7/5/2 5/7/2
# 2 polygons

# Coordinates for object 'IndexedFaceSet #2'
v  202025.343750 445448.250000 -0.498224 
v  202025.343750 445448.250000 10.929300 
v  202040.203125 445453.812500 -0.498227 
v  202040.203125 445453.812500 10.929300 
# 4 vertices

vt 0.0 0.0 0.0
vt 0.000050 0.999897 0.0
vt 0.999934 0.0 0.0
vt 1.000000 1.000000 0.0
# 4 texture vertices

vn  -0.350584 0.936531 0.0 
# 1 normals

usemtl surface__3

o IndexedFaceSet__2_0
g IndexedFaceSet__2_0

s off
f 10/10/4 12/12/4 9/9/4
f 11/11/4 9/9/4 12/12/4
# 2 polygons

# Coordinates for object 'IndexedFaceSet #3'
v  202031.109375 445432.906250 -0.498223 
v  202031.109375 445432.906250 10.962081 
v  202045.968750 445438.468750 -0.498223 
v  202045.968750 445438.468750 10.962079 
# 4 vertices

vt 0.0 0.0 0.0
vt 0.000050 0.999897 0.0
vt 0.999934 0.0 0.0
vt 1.000000 1.000000 0.0
# 4 texture vertices

vn  0.350584 -0.936531 0.0 
# 1 normals

usemtl surface__3

o IndexedFaceSet__3_0
g IndexedFaceSet__3_0

s off
f 16/16/5 14/14/5 13/13/5
f 13/13/5 15/15/5 16/16/5
# 2 polygons

# Coordinates for object 'IndexedFaceSet #4'
v  202025.343750 445448.250000 10.929300 
v  202031.109375 445432.906250 10.962081 
v  202040.203125 445453.812500 10.929300 
v  202045.968750 445438.468750 10.962079 
# 4 vertices

vt 0.0 0.0 0.0
vt 0.0 1.000000 0.0
vt 1.000000 0.0 0.0
vt 1.000000 1.000000 0.0
# 4 texture vertices

vn  -0.000701 0.001873 0.999998 
# 1 normals

usemtl surface__4

o IndexedFaceSet__4_0
g IndexedFaceSet__4_0

s off
f 20/18/6 19/17/6 17/19/6
f 17/19/6 18/20/6 20/18/6
# 2 polygons

# Coordinates for object 'IndexedFaceSet #5'
v  202043.031250 445446.312500 10.945331 
v  202043.046875 445446.250000 -0.498225 
v  202063.390625 445453.937500 10.945332 
v  202063.453125 445453.906250 -0.498223 
# 4 vertices

vt 0.0 0.000934 0.0
vt 0.002256 1.000000 0.0
vt 0.999923 0.0 0.0
vt 1.000000 0.999279 0.0
# 4 texture vertices

vn  -0.351277 0.936261 -0.004475 
vn  -0.350724 0.936462 -0.005593 
# 2 normals

usemtl surface__5

o IndexedFaceSet__5_0
g IndexedFaceSet__5_0

s off
f 21/24/8 23/22/8 22/23/8
f 24/21/7 22/23/7 23/22/7
# 2 polygons

# Coordinates for object 'IndexedFaceSet #6'
v  202070.531250 445456.625000 10.945332 
v  202070.562500 445456.562500 -0.498225 
v  202073.484375 445448.781250 -0.498223 
v  202073.484375 445448.781250 10.962082 
# 4 vertices

vt 0.0 1.000000 0.0
vt 0.001467 0.0 0.0
vt 0.999991 0.008864 0.0
vt 1.000000 0.999757 0.0
# 4 texture vertices

vn  0.935868 0.352350 0.000631 
vn  0.936175 0.351535 0.0 
# 2 normals

usemtl surface__6

o IndexedFaceSet__6_0
g IndexedFaceSet__6_0

s off
f 27/28/10 26/27/10 28/25/10
f 25/26/9 28/25/9 26/27/9
# 2 polygons

# Coordinates for object 'IndexedFaceSet #7'
v  202027.718750 445441.937500 10.942791 
v  202027.734375 445441.906250 13.269246 
v  202029.031250 445438.468750 10.950203 
v  202029.031250 445438.468750 13.269246 
# 4 vertices

vt 0.0 0.0 0.0
vt 0.005801 1.000000 0.0
vt 0.998724 0.000025 0.0
vt 1.000000 0.996829 0.0
# 4 texture vertices

vn  -0.935628 -0.352987 0.0 
vn  -0.935286 -0.353889 0.001528 
# 2 normals

usemtl surface__7

o IndexedFaceSet__7_0
g IndexedFaceSet__7_0

s off
f 32/32/11 30/30/11 31/31/11
f 29/29/12 31/31/12 30/30/12
# 2 polygons

# Coordinates for object 'IndexedFaceSet #8'
v  202045.968750 445438.468750 -0.498223 
v  202045.968750 445438.468750 10.962079 
v  202073.484375 445448.781250 -0.498223 
v  202073.484375 445448.781250 10.962082 
# 4 vertices

vt 0.0 1.000000 0.0
vt 0.001600 0.000119 0.0
vt 0.998931 0.999700 0.0
vt 1.000000 0.0 0.0
# 4 texture vertices

vn  0.350949 -0.936395 0.0 
# 1 normals

usemtl surface__8

o IndexedFaceSet__8_0
g IndexedFaceSet__8_0

s off
f 36/33/13 34/34/13 35/35/13
f 33/36/13 35/35/13 34/34/13
# 2 polygons

# Coordinates for object 'IndexedFaceSet #9'
v  202043.031250 445446.312500 10.945331 
v  202045.968750 445438.468750 10.962079 
v  202070.531250 445456.625000 10.945332 
v  202073.484375 445448.781250 10.962082 
# 4 vertices

vt 0.0 0.0 0.0
vt 0.0 1.000000 0.0
vt 1.000000 0.0 0.0
vt 1.000000 1.000000 0.0
# 4 texture vertices

vn  -0.000702 0.001871 0.999998 
# 1 normals

usemtl surface__9

o IndexedFaceSet__9_0
g IndexedFaceSet__9_0

s off
f 40/38/14 39/37/14 37/39/14
f 37/39/14 38/40/14 40/38/14
# 2 polygons

# Coordinates for object 'IndexedFaceSet #10'
v  202041.453125 445447.062500 13.269246 
v  202041.453125 445447.093750 10.942793 
v  202042.750000 445443.593750 10.950203 
v  202042.750000 445443.593750 13.269246 
# 4 vertices

vt 0.0 0.0 0.0
vt 0.005712 1.000000 0.0
vt 0.998721 0.0 0.0
vt 1.000000 0.996831 0.0
# 4 texture vertices

vn  0.936675 0.350199 0.0 
vn  0.937685 0.347456 0.004667 
# 2 normals

usemtl surface__10

o IndexedFaceSet__10_0
g IndexedFaceSet__10_0

s off
f 43/43/16 42/41/16 41/42/16
f 41/42/15 44/44/15 43/43/15
# 2 polygons

# Coordinates for object 'IndexedFaceSet #11'
v  202060.265625 445462.281250 10.945335 
v  202060.343750 445462.218750 -0.498223 
v  202067.406250 445464.968750 10.945334 
v  202067.437500 445464.875000 -0.498218 
# 4 vertices

vt 0.0 1.000000 0.0
vt 0.000041 0.000739 0.0
vt 0.999854 0.0 0.0
vt 1.000000 0.993164 0.0
# 4 texture vertices

vn  -0.352235 0.935881 -0.007516 
vn  -0.350658 0.936464 -0.008629 
# 2 normals

usemtl surface__11

o IndexedFaceSet__11_0
g IndexedFaceSet__11_0

s off
f 45/45/17 47/46/17 46/48/17
f 48/47/18 46/48/18 47/46/18
# 2 polygons

# Coordinates for object 'IndexedFaceSet #12'
v  202067.406250 445464.968750 10.945334 
v  202067.437500 445464.875000 -0.498218 
v  202070.531250 445456.625000 10.945332 
v  202070.562500 445456.562500 -0.498225 
# 4 vertices

vt 0.0 0.991562 0.0
vt 0.0 0.0 0.0
vt 0.999974 0.008446 0.0
vt 1.000000 1.000000 0.0
# 4 texture vertices

vn  0.936039 0.351895 0.000634 
vn  0.936473 0.350739 -0.000316 
# 2 normals

usemtl surface__2

o IndexedFaceSet__12_0
g IndexedFaceSet__12_0

s off
f 52/52/19 50/51/19 51/49/19
f 49/50/20 51/49/20 50/51/20
# 2 polygons

# Coordinates for object 'IndexedFaceSet #13'
v  202060.265625 445462.281250 10.945335 
v  202060.343750 445462.218750 -0.498223 
v  202063.390625 445453.937500 10.945332 
v  202063.453125 445453.906250 -0.498223 
# 4 vertices

vt 0.0 0.991541 0.0
vt 0.000014 0.0 0.0
vt 0.999985 0.008460 0.0
vt 1.000000 1.000000 0.0
# 4 texture vertices

vn  -0.936610 -0.350349 -0.004159 
vn  -0.936464 -0.350736 -0.004478 
# 2 normals

usemtl surface__12

o IndexedFaceSet__13_0
g IndexedFaceSet__13_0

s off
f 55/53/22 53/54/22 54/55/22
f 54/55/21 56/56/21 55/53/21
# 2 polygons

# Coordinates for object 'IndexedFaceSet #14'
v  202060.265625 445462.281250 10.945335 
v  202063.390625 445453.937500 10.945332 
v  202067.406250 445464.968750 10.945334 
v  202070.531250 445456.625000 10.945332 
# 4 vertices

vt 0.0 0.0 0.0
vt 0.0 1.000000 0.0
vt 1.000000 0.0 0.0
vt 1.000000 1.000000 0.0
# 4 texture vertices

vn  0.0 0.0 1.0 
# 1 normals

usemtl surface__9

o IndexedFaceSet__14_0
g IndexedFaceSet__14_0

s off
f 60/59/23 59/60/23 57/58/23
f 57/58/23 58/57/23 60/59/23
# 2 polygons

# Coordinates for object 'IndexedFaceSet #15'
v  202029.031250 445438.468750 10.950203 
v  202029.031250 445438.468750 13.269246 
v  202042.750000 445443.593750 10.950203 
v  202042.750000 445443.593750 13.269246 
# 4 vertices

vt 0.0 0.001505 0.0
vt 0.000045 1.000000 0.0
vt 0.999982 0.0 0.0
vt 1.000000 0.998796 0.0
# 4 texture vertices

vn  0.349954 -0.936767 0.0 
# 1 normals

usemtl surface__13

o IndexedFaceSet__15_0
g IndexedFaceSet__15_0

s off
f 62/64/24 61/63/24 64/62/24
f 63/61/24 64/62/24 61/63/24
# 2 polygons

# Coordinates for object 'IndexedFaceSet #16'
v  202027.734375 445441.906250 13.269246 
v  202029.031250 445438.468750 13.269246 
v  202041.453125 445447.062500 13.269246 
v  202042.750000 445443.593750 13.269246 
# 4 vertices

vt 0.0 0.0 0.0
vt 0.0 0.999999 0.0
vt 1.000000 0.0 0.0
vt 1.000000 1.000000 0.0
# 4 texture vertices

vn  0.0 0.0 1.0 
# 1 normals

usemtl surface__14

o IndexedFaceSet__16_0
g IndexedFaceSet__16_0

s off
f 68/67/25 67/68/25 65/66/25
f 65/66/25 66/65/25 68/67/25
# 2 polygons

# Coordinates for object 'IndexedFaceSet #17'
v  202027.718750 445441.937500 10.942791 
v  202027.734375 445441.906250 13.269246 
v  202041.453125 445447.062500 13.269246 
v  202041.453125 445447.093750 10.942793 
# 4 vertices

vt 0.0 0.001522 0.0
vt 0.000068 1.000000 0.0
vt 0.999966 0.0 0.0
vt 1.000000 0.998801 0.0
# 4 texture vertices

vn  -0.351797 0.935992 0.012573 
vn  -0.351434 0.936093 0.014934 
# 2 normals

usemtl surface__15

o IndexedFaceSet__17_0
g IndexedFaceSet__17_0

s off
f 69/71/27 70/72/27 72/69/27
f 71/70/26 72/69/26 70/72/26
# 2 polygons

# Coordinates for object 'IndexedFaceSet #18'
v  202025.984375 445446.562500 12.805243 
v  202026.000000 445446.500000 10.933008 
v  202026.375000 445445.531250 12.805243 
v  202026.375000 445445.531250 13.575937 
v  202026.718750 445444.593750 12.686451 
v  202026.718750 445444.593750 13.575937 
v  202027.156250 445443.437500 10.939569 
v  202027.156250 445443.437500 12.686449 
# 8 vertices

vt 0.0 0.709004 0.0
vt 0.014034 0.000017 0.0
vt 0.329868 0.708163 0.0
vt 0.330369 1.000000 0.0
vt 0.629872 0.662431 0.0
vt 0.630368 0.999232 0.0
vt 0.998847 0.0 0.0
vt 1.000000 0.661501 0.0
# 8 texture vertices

vn  -0.938876 -0.344255 0.0 
vn  -0.938454 -0.345279 0.009310 
vn  -0.935542 -0.353216 -0.000512 
vn  -0.935286 -0.353892 0.0 
vn  -0.935152 -0.354224 0.004020 
# 5 normals

usemtl surface__16

o IndexedFaceSet__18_0
g IndexedFaceSet__18_0

s off
f 75/75/32 73/73/32 74/74/32
f 78/78/28 76/76/28 75/75/28
f 75/75/28 77/77/28 78/78/28
f 77/77/30 74/74/30 79/79/30
f 74/74/29 77/77/29 75/75/29
f 79/79/31 80/80/31 77/77/31
# 6 polygons

# Coordinates for object 'IndexedFaceSet #19'
v  202028.562500 445447.531250 12.805244 
v  202028.593750 445447.468750 10.933007 
v  202028.953125 445446.500000 12.805243 
v  202028.953125 445446.500000 13.575937 
v  202029.312500 445445.562500 12.686451 
v  202029.312500 445445.562500 13.575938 
v  202029.734375 445444.406250 10.939569 
v  202029.734375 445444.406250 12.686449 
# 8 vertices

vt 0.0 0.709006 0.0
vt 0.014056 0.0 0.0
vt 0.329854 0.708177 0.0
vt 0.330398 1.000000 0.0
vt 0.629832 0.662438 0.0
vt 0.630405 0.999249 0.0
vt 0.998940 0.0 0.0
vt 1.000000 0.661496 0.0
# 8 texture vertices

vn  0.933746 0.357936 0.0 
vn  0.933969 0.357311 0.005608 
vn  0.935153 0.354225 0.003784 
vn  0.937106 0.349014 -0.004697 
vn  0.939422 0.342762 0.0 
# 5 normals

usemtl surface__17

o IndexedFaceSet__19_0
g IndexedFaceSet__19_0

s off
f 82/82/36 85/85/36 87/87/36
f 85/85/34 82/82/34 83/83/34
f 88/88/37 87/87/37 85/85/37
f 81/81/35 83/83/35 82/82/35
f 84/84/33 86/86/33 83/83/33
f 83/83/33 86/86/33 85/85/33
# 6 polygons

# Coordinates for object 'IndexedFaceSet #20'
v  202027.156250 445443.437500 10.939569 
v  202027.156250 445443.437500 12.686449 
v  202029.734375 445444.406250 10.939569 
v  202029.734375 445444.406250 12.686449 
# 4 vertices

vt 0.0 1.000000 0.0
vt 0.000608 0.000386 0.0
vt 0.999344 0.999854 0.0
vt 1.000000 0.0 0.0
# 4 texture vertices

vn  0.351745 -0.936096 0.0 
# 1 normals

usemtl surface__18

o IndexedFaceSet__20_0
g IndexedFaceSet__20_0

s off
f 92/89/38 90/90/38 91/91/38
f 89/92/38 91/91/38 90/90/38
# 2 polygons

# Coordinates for object 'IndexedFaceSet #21'
v  202026.718750 445444.593750 12.686451 
v  202027.156250 445443.437500 12.686449 
v  202029.312500 445445.562500 12.686451 
v  202029.734375 445444.406250 12.686449 
# 4 vertices

vt 0.0 1.000000 0.0
vt 0.000047 0.001215 0.0
vt 0.999971 0.998843 0.0
vt 1.000000 0.0 0.0
# 4 texture vertices

vn  0.0 -0.000001 1.0 
# 1 normals

usemtl surface__19

o IndexedFaceSet__21_0
g IndexedFaceSet__21_0

s off
f 96/93/39 95/94/39 94/95/39
f 93/96/39 94/95/39 95/94/39
# 2 polygons

# Coordinates for object 'IndexedFaceSet #22'
v  202026.718750 445444.593750 12.686451 
v  202026.718750 445444.593750 13.575937 
v  202029.312500 445445.562500 12.686451 
v  202029.312500 445445.562500 13.575938 
# 4 vertices

vt 0.0 1.000000 0.0
vt 0.000608 0.000386 0.0
vt 0.999344 0.999854 0.0
vt 1.000000 0.0 0.0
# 4 texture vertices

vn  0.349886 -0.936792 0.0 
# 1 normals

usemtl surface__18

o IndexedFaceSet__22_0
g IndexedFaceSet__22_0

s off
f 100/98/40 98/100/40 97/99/40
f 97/99/40 99/97/40 100/98/40
# 2 polygons

# Coordinates for object 'IndexedFaceSet #23'
v  202026.375000 445445.531250 13.575937 
v  202026.718750 445444.593750 13.575937 
v  202028.953125 445446.500000 13.575937 
v  202029.312500 445445.562500 13.575938 
# 4 vertices

vt 0.0 1.000000 0.0
vt 0.000047 0.001215 0.0
vt 0.999971 0.998843 0.0
vt 1.000000 0.0 0.0
# 4 texture vertices

vn  0.0 0.0 1.0 
# 1 normals

usemtl surface__19

o IndexedFaceSet__23_0
g IndexedFaceSet__23_0

s off
f 104/101/41 103/102/41 102/103/41
f 101/104/41 102/103/41 103/102/41
# 2 polygons

# Coordinates for object 'IndexedFaceSet #24'
v  202026.375000 445445.531250 12.805243 
v  202026.375000 445445.531250 13.575937 
v  202028.953125 445446.500000 12.805243 
v  202028.953125 445446.500000 13.575937 
# 4 vertices

vt 0.0 1.000000 0.0
vt 0.000062 0.001068 0.0
vt 0.999978 0.998892 0.0
vt 1.000000 0.0 0.0
# 4 texture vertices

vn  -0.351745 0.936096 0.0 
# 1 normals

usemtl surface__19

o IndexedFaceSet__24_0
g IndexedFaceSet__24_0

s off
f 106/107/42 108/105/42 107/106/42
f 107/106/42 105/108/42 106/107/42
# 2 polygons

# Coordinates for object 'IndexedFaceSet #25'
v  202025.984375 445446.562500 12.805243 
v  202026.375000 445445.531250 12.805243 
v  202028.562500 445447.531250 12.805244 
v  202028.953125 445446.500000 12.805243 
# 4 vertices

vt 0.0 1.000000 0.0
vt 0.000047 0.001215 0.0
vt 0.999971 0.998843 0.0
vt 1.000000 0.0 0.0
# 4 texture vertices

vn  0.0 -0.000002 1.0 
# 1 normals

usemtl surface__19

o IndexedFaceSet__25_0
g IndexedFaceSet__25_0

s off
f 112/109/43 111/110/43 109/112/43
f 109/112/43 110/111/43 112/109/43
# 2 polygons

# Coordinates for object 'IndexedFaceSet #26'
v  202025.984375 445446.562500 12.805243 
v  202026.000000 445446.500000 10.933008 
v  202028.562500 445447.531250 12.805244 
v  202028.593750 445447.468750 10.933007 
# 4 vertices

vt 0.0 1.000000 0.0
vt 0.000718 0.000142 0.0
vt 0.999344 0.999846 0.0
vt 1.000000 0.0 0.0
# 4 texture vertices

vn  -0.351503 0.935452 -0.037095 
vn  -0.349682 0.936245 -0.034173 
# 2 normals

usemtl surface__20

o IndexedFaceSet__26_0
g IndexedFaceSet__26_0

s off
f 113/114/44 115/113/44 116/115/44
f 116/115/45 114/116/45 113/114/45
# 2 polygons
