# Converted by Daum Communications 
# Date/time of export: 08/22/2013 14:53:53
#
# Bounding box of geometry = (201684,446319,-0.265687) to (201694,446344,19.5243).

mtllib 4666470.mtl

# Coordinates for object 'IndexedFaceSet'
v  201688.859375 446344.000000 -0.265685 
v  201688.859375 446344.000000 16.963167 
v  201689.656250 446340.500000 14.503261 
v  201689.656250 446340.500000 16.963167 
v  201690.359375 446337.468750 14.503261 
v  201690.359375 446337.468750 15.337903 
v  201694.312500 446320.187500 -0.264664 
v  201694.312500 446320.187500 15.337903 
# 8 vertices

vt 0.0 0.0 0.0
vt 0.0 0.905605 0.0
vt 0.724817 0.905650 0.0
vt 0.724824 0.857208 0.0
vt 0.853018 0.857212 0.0
vt 0.853028 0.999993 0.0
vt 0.999983 0.0 0.0
vt 1.000000 1.000000 0.0
# 8 texture vertices

vn  0.974136 0.225959 0.000988 
vn  0.974767 0.223224 -0.000286 
vn  0.974820 0.222992 0.0 
vn  0.975047 0.221997 0.0 
# 4 normals

usemtl surface

o IndexedFaceSet
g IndexedFaceSet

s off
f 6/3/3 8/2/3 5/4/3
f 3/5/4 2/8/4 4/6/4
f 5/4/2 7/1/2 1/7/2
f 7/1/3 5/4/3 8/2/3
f 3/5/4 1/7/4 2/8/4
f 1/7/1 3/5/1 5/4/1
# 6 polygons

# Coordinates for object 'IndexedFaceSet #1'
v  201683.750000 446342.843750 -0.265687 
v  201683.750000 446342.843750 16.963167 
v  201684.546875 446339.343750 14.503261 
v  201684.546875 446339.343750 16.963167 
v  201685.250000 446336.281250 14.503261 
v  201685.250000 446336.281250 15.337903 
v  201689.203125 446319.000000 15.337903 
v  201689.203125 446319.031250 -0.264665 
# 8 vertices

vt 0.0 0.0 0.0
vt 0.0 0.905605 0.0
vt 0.724817 0.905650 0.0
vt 0.724824 0.857208 0.0
vt 0.853018 0.857212 0.0
vt 0.853028 0.999993 0.0
vt 0.999983 0.0 0.0
vt 1.000000 1.000000 0.0
# 8 texture vertices

vn  -0.975047 -0.221997 0.0 
vn  -0.974820 -0.222992 0.0 
vn  -0.974815 -0.223013 -0.000447 
vn  -0.974767 -0.223224 -0.000187 
vn  -0.974642 -0.223770 -0.000442 
# 5 normals

usemtl surface

o IndexedFaceSet__1_0
g IndexedFaceSet__1_0

s off
f 16/9/7 15/10/7 13/12/7
f 9/15/9 13/12/9 11/13/9
f 13/12/8 9/15/8 16/9/8
f 15/10/6 14/11/6 13/12/6
f 11/13/5 10/16/5 9/15/5
f 10/16/5 11/13/5 12/14/5
# 6 polygons

# Coordinates for object 'IndexedFaceSet #2'
v  201683.750000 446342.843750 -0.265687 
v  201683.750000 446342.843750 16.963167 
v  201688.859375 446344.000000 -0.265685 
v  201688.859375 446344.000000 16.963167 
# 4 vertices

vt 0.0 0.000301 0.0
vt 0.000095 1.000000 0.0
vt 0.999814 0.0 0.0
vt 1.000000 0.999740 0.0
# 4 texture vertices

vn  -0.220719 0.975338 0.0 
# 1 normals

usemtl surface__2

o IndexedFaceSet__2_0
g IndexedFaceSet__2_0

s off
f 18/17/10 20/18/10 19/20/10
f 19/20/10 17/19/10 18/17/10
# 2 polygons

# Coordinates for object 'IndexedFaceSet #3'
v  201683.750000 446342.843750 16.963167 
v  201684.546875 446339.343750 16.963167 
v  201688.859375 446344.000000 16.963167 
v  201689.656250 446340.500000 16.963167 
# 4 vertices

vt 0.0 0.0 0.0
vt 0.0 1.000000 0.0
vt 0.999999 0.0 0.0
vt 1.000000 1.000000 0.0
# 4 texture vertices

vn  0.0 0.0 1.0 
# 1 normals

usemtl surface__3

o IndexedFaceSet__3_0
g IndexedFaceSet__3_0

s off
f 21/24/11 22/22/11 24/21/11
f 24/21/11 23/23/11 21/24/11
# 2 polygons

# Coordinates for object 'IndexedFaceSet #4'
v  201684.546875 446339.343750 14.503261 
v  201684.546875 446339.343750 16.963167 
v  201689.656250 446340.500000 14.503261 
v  201689.656250 446340.500000 16.963167 
# 4 vertices

vt 0.0 0.0 0.0
vt 0.0 1.000000 0.0
vt 1.000000 0.0 0.0
vt 1.000000 1.000000 0.0
# 4 texture vertices

vn  0.220719 -0.975338 0.0 
# 1 normals

usemtl surface__4

o IndexedFaceSet__4_0
g IndexedFaceSet__4_0

s off
f 28/28/12 26/26/12 27/27/12
f 25/25/12 27/27/12 26/26/12
# 2 polygons

# Coordinates for object 'IndexedFaceSet #5'
v  201684.546875 446339.343750 14.503261 
v  201685.250000 446336.281250 14.503261 
v  201689.656250 446340.500000 14.503261 
v  201690.359375 446337.468750 14.503261 
# 4 vertices

vt 0.0 0.0 0.0
vt 0.0 1.000000 0.0
vt 0.999999 0.0 0.0
vt 0.999999 1.000000 0.0
# 4 texture vertices

vn  0.0 0.0 1.0 
# 1 normals

usemtl surface__5

o IndexedFaceSet__5_0
g IndexedFaceSet__5_0

s off
f 29/32/13 30/30/13 31/31/13
f 32/29/13 31/31/13 30/30/13
# 2 polygons

# Coordinates for object 'IndexedFaceSet #6'
v  201685.250000 446336.281250 14.503261 
v  201685.250000 446336.281250 15.337903 
v  201690.359375 446337.468750 14.503261 
v  201690.359375 446337.468750 15.337903 
# 4 vertices

vt 0.0 0.0 0.0
vt 0.0 1.000000 0.0
vt 1.000000 0.0 0.0
vt 1.000000 0.999999 0.0
# 4 texture vertices

vn  -0.226382 0.974039 0.0 
# 1 normals

usemtl surface__4

o IndexedFaceSet__6_0
g IndexedFaceSet__6_0

s off
f 34/36/14 36/34/14 33/35/14
f 35/33/14 33/35/14 36/34/14
# 2 polygons

# Coordinates for object 'IndexedFaceSet #7'
v  201685.250000 446336.281250 15.337903 
v  201689.203125 446319.000000 15.337903 
v  201690.359375 446337.468750 15.337903 
v  201694.312500 446320.187500 15.337903 
# 4 vertices

vt 0.0 0.500000 0.0
vt 0.0 1.000000 0.0
vt 1.000000 0.500000 0.0
vt 1.000000 1.000000 0.0
# 4 texture vertices

vn  0.0 0.0 1.0 
# 1 normals

usemtl surface__6

o IndexedFaceSet__7_0
g IndexedFaceSet__7_0

s off
f 37/40/15 38/38/15 39/39/15
f 40/37/15 39/39/15 38/38/15
# 2 polygons

# Coordinates for object 'IndexedFaceSet #8'
v  201689.203125 446319.000000 15.337903 
v  201689.203125 446319.031250 -0.264665 
v  201694.312500 446320.187500 -0.264664 
v  201694.312500 446320.187500 15.337903 
# 4 vertices

vt 0.0 0.000301 0.0
vt 0.000095 1.000000 0.0
vt 0.999814 0.0 0.0
vt 1.000000 0.999740 0.0
# 4 texture vertices

vn  0.220718 -0.975336 -0.001953 
vn  0.226382 -0.974039 0.0 
# 2 normals

usemtl surface__2

o IndexedFaceSet__8_0
g IndexedFaceSet__8_0

s off
f 44/42/17 41/41/17 43/44/17
f 42/43/16 43/44/16 41/41/16
# 2 polygons

# Coordinates for object 'IndexedFaceSet #9'
v  201690.359375 446337.468750 15.337903 
v  201690.390625 446337.281250 16.897593 
v  201690.515625 446336.750000 17.978216 
v  201690.718750 446335.875000 18.867399 
v  201690.937500 446334.906250 19.279633 
v  201691.203125 446333.750000 19.426863 
v  201691.468750 446332.625000 19.524288 
v  201691.796875 446331.156250 19.455919 
v  201692.187500 446329.437500 19.223248 
v  201692.578125 446327.781250 18.890539 
v  201693.000000 446325.906250 18.303627 
v  201693.453125 446323.906250 17.593494 
v  201693.875000 446322.125000 15.337903 
v  201693.875000 446322.125000 16.890625 
# 14 vertices

vt 0.0 0.0 0.0
vt 0.000469 0.370884 0.0
vt 0.116690 0.538779 0.0
vt 0.246244 0.708405 0.0
vt 0.368306 0.848596 0.0
vt 0.477715 0.928073 0.0
vt 0.589197 0.983661 0.0
vt 0.685742 1.000000 0.0
vt 0.758669 0.976737 0.0
vt 0.834484 0.941563 0.0
vt 0.896956 0.843095 0.0
vt 0.954533 0.630712 0.0
vt 0.989464 0.372588 0.0
vt 1.000000 0.000037 0.0
# 14 texture vertices

vn  0.973030 0.230510 0.008857 
vn  0.973080 0.230466 0.0 
vn  0.973218 0.229742 0.008119 
vn  0.973752 0.227309 0.011695 
vn  0.974629 0.223826 -0.000594 
vn  0.974741 0.223337 0.000244 
vn  0.975116 0.221693 -0.000557 
vn  0.975521 0.219853 -0.004760 
vn  0.975865 0.218293 -0.006030 
vn  0.976059 0.217229 0.011011 
vn  0.976336 0.216006 -0.010473 
vn  0.976405 0.215538 0.013269 
# 12 normals

usemtl surface__7

o IndexedFaceSet__9_0
g IndexedFaceSet__9_0

s off
f 52/51/26 45/58/26 51/52/26
f 53/50/24 45/58/24 52/51/24
f 46/57/22 49/54/22 50/53/22
f 47/56/28 48/55/28 49/54/28
f 45/58/18 50/53/18 51/52/18
f 53/50/21 54/49/21 45/58/21
f 56/47/19 58/46/19 57/45/19
f 56/47/27 57/45/27 55/48/27
f 54/49/29 55/48/29 57/45/29
f 45/58/20 46/57/20 50/53/20
f 46/57/25 47/56/25 49/54/25
f 57/45/23 45/58/23 54/49/23
# 12 polygons

# Coordinates for object 'IndexedFaceSet #10'
v  201685.359375 446336.312500 15.337909 
v  201685.390625 446336.156250 16.897600 
v  201685.515625 446335.625000 17.978222 
v  201685.718750 446334.718750 18.867403 
v  201685.937500 446333.781250 19.279640 
v  201686.203125 446332.625000 19.426868 
v  201686.453125 446331.500000 19.524296 
v  201686.796875 446330.000000 19.455923 
v  201687.187500 446328.312500 19.223255 
v  201687.578125 446326.625000 18.890545 
v  201688.000000 446324.750000 18.303633 
v  201688.453125 446322.781250 17.593500 
v  201688.859375 446321.000000 16.890633 
v  201688.875000 446320.968750 15.337909 
# 14 vertices

vt 0.0 0.0 0.0
vt 0.000469 0.370884 0.0
vt 0.116690 0.538779 0.0
vt 0.246244 0.708405 0.0
vt 0.368306 0.848596 0.0
vt 0.477715 0.928073 0.0
vt 0.589197 0.983661 0.0
vt 0.685742 1.000000 0.0
vt 0.758669 0.976737 0.0
vt 0.834484 0.941563 0.0
vt 0.896956 0.843095 0.0
vt 0.954533 0.630712 0.0
vt 0.989464 0.372588 0.0
vt 1.000000 0.000037 0.0
# 14 texture vertices

vn  -0.976405 -0.215538 -0.013269 
vn  -0.976283 -0.216407 0.006295 
vn  -0.975521 -0.219853 0.004760 
vn  -0.975409 -0.220338 -0.005381 
vn  -0.974750 -0.223288 -0.002017 
vn  -0.974743 -0.223311 -0.002868 
vn  -0.974741 -0.223337 -0.000244 
vn  -0.974629 -0.223826 0.000594 
vn  -0.974413 -0.224724 -0.004232 
vn  -0.974369 -0.224909 -0.004635 
vn  -0.974034 -0.226379 -0.003163 
vn  -0.972078 -0.234077 -0.016509 
# 12 normals

usemtl surface__7

o IndexedFaceSet__10_0
g IndexedFaceSet__10_0

s off
f 72/59/33 71/60/33 70/61/33
f 72/59/35 70/61/35 69/62/35
f 72/59/36 68/63/36 59/72/36
f 68/63/38 67/64/38 59/72/38
f 72/59/30 69/62/30 68/63/30
f 59/72/39 67/64/39 66/65/39
f 59/72/31 65/66/31 64/67/31
f 60/71/37 64/67/37 63/68/37
f 59/72/40 64/67/40 60/71/40
f 60/71/32 63/68/32 61/70/32
f 63/68/41 62/69/41 61/70/41
f 65/66/34 59/72/34 66/65/34
# 12 polygons

# Coordinates for object 'IndexedFaceSet #11'
v  201685.359375 446336.312500 15.337909 
v  201685.390625 446336.156250 16.897600 
v  201690.359375 446337.468750 15.337903 
v  201690.390625 446337.281250 16.897593 
# 4 vertices

vt 0.0 0.0 0.0
vt 0.0 1.000000 0.0
vt 1.000000 0.0 0.0
vt 1.000000 0.999999 0.0
# 4 texture vertices

vn  -0.223656 0.967160 0.120749 
vn  -0.218376 0.970561 0.101606 
# 2 normals

usemtl surface__8

o IndexedFaceSet__11_0
g IndexedFaceSet__11_0

s off
f 74/74/43 76/73/43 73/76/43
f 75/75/42 73/76/42 76/73/42
# 2 polygons

# Coordinates for object 'IndexedFaceSet #12'
v  201685.390625 446336.156250 16.897600 
v  201685.515625 446335.625000 17.978222 
v  201690.390625 446337.281250 16.897593 
v  201690.515625 446336.750000 17.978216 
# 4 vertices

vt 0.0 0.0 0.0
vt 0.0 0.999999 0.0
vt 1.000000 0.0 0.0
vt 1.000000 0.999998 0.0
# 4 texture vertices

vn  -0.195942 0.870858 0.450792 
# 1 normals

usemtl surface__8

o IndexedFaceSet__12_0
g IndexedFaceSet__12_0

s off
f 77/80/44 78/78/44 79/79/44
f 80/77/44 79/79/44 78/78/44
# 2 polygons

# Coordinates for object 'IndexedFaceSet #13'
v  201685.515625 446335.625000 17.978222 
v  201685.718750 446334.718750 18.867403 
v  201690.515625 446336.750000 17.978216 
v  201690.718750 446335.875000 18.867399 
# 4 vertices

vt 0.0 0.0 0.0
vt 0.0 0.999996 0.0
vt 1.000000 0.0 0.0
vt 1.000000 0.999999 0.0
# 4 texture vertices

vn  -0.158502 0.685416 0.710691 
vn  -0.151805 0.674691 0.722321 
# 2 normals

usemtl surface__8

o IndexedFaceSet__13_0
g IndexedFaceSet__13_0

s off
f 81/84/46 82/82/46 83/83/46
f 84/81/45 83/83/45 82/82/45
# 2 polygons

# Coordinates for object 'IndexedFaceSet #14'
v  201685.718750 446334.718750 18.867403 
v  201685.937500 446333.781250 19.279640 
v  201690.718750 446335.875000 18.867399 
v  201690.937500 446334.906250 19.279633 
# 4 vertices

vt 0.0 0.0 0.0
vt 0.0 1.000000 0.0
vt 0.999999 0.0 0.0
vt 1.000000 1.000000 0.0
# 4 texture vertices

vn  -0.086411 0.384054 0.919258 
vn  -0.086374 0.373514 0.923594 
# 2 normals

usemtl surface__8

o IndexedFaceSet__14_0
g IndexedFaceSet__14_0

s off
f 85/88/47 86/86/47 88/85/47
f 88/85/48 87/87/48 85/88/48
# 2 polygons

# Coordinates for object 'IndexedFaceSet #15'
v  201685.937500 446333.781250 19.279640 
v  201686.203125 446332.625000 19.426868 
v  201690.937500 446334.906250 19.279633 
v  201691.203125 446333.750000 19.426863 
# 4 vertices

vt 0.0 0.0 0.0
vt 0.0 0.999996 0.0
vt 1.000000 0.0 0.0
vt 1.000000 1.000000 0.0
# 4 texture vertices

vn  -0.027033 0.120153 0.992387 
# 1 normals

usemtl surface__8

o IndexedFaceSet__15_0
g IndexedFaceSet__15_0

s off
f 89/92/49 90/90/49 92/89/49
f 92/89/49 91/91/49 89/92/49
# 2 polygons

# Coordinates for object 'IndexedFaceSet #16'
v  201686.203125 446332.625000 19.426868 
v  201686.453125 446331.500000 19.524296 
v  201691.203125 446333.750000 19.426863 
v  201691.468750 446332.625000 19.524288 
# 4 vertices

vt 0.0 0.0 0.0
vt 0.0 1.000000 0.0
vt 0.999999 0.0 0.0
vt 1.000000 0.999994 0.0
# 4 texture vertices

vn  -0.018436 0.081942 0.996467 
vn  -0.018435 0.082198 0.996446 
# 2 normals

usemtl surface__8

o IndexedFaceSet__16_0
g IndexedFaceSet__16_0

s off
f 93/96/51 94/94/51 96/93/51
f 96/93/50 95/95/50 93/96/50
# 2 polygons

# Coordinates for object 'IndexedFaceSet #17'
v  201686.453125 446331.500000 19.524296 
v  201686.796875 446330.000000 19.455923 
v  201691.468750 446332.625000 19.524288 
v  201691.796875 446331.156250 19.455919 
# 4 vertices

vt 0.0 0.0 0.0
vt 0.0 1.000000 0.0
vt 0.999999 0.0 0.0
vt 1.000000 0.999997 0.0
# 4 texture vertices

vn  0.009934 -0.044282 0.998970 
vn  0.010001 -0.043245 0.999014 
# 2 normals

usemtl surface__8

o IndexedFaceSet__17_0
g IndexedFaceSet__17_0

s off
f 97/100/53 98/98/53 100/97/53
f 100/97/52 99/99/52 97/100/52
# 2 polygons

# Coordinates for object 'IndexedFaceSet #18'
v  201686.796875 446330.000000 19.455923 
v  201687.187500 446328.312500 19.223255 
v  201691.796875 446331.156250 19.455919 
v  201692.187500 446329.437500 19.223248 
# 4 vertices

vt 0.0 0.0 0.0
vt 0.0 0.999997 0.0
vt 1.000000 0.0 0.0
vt 1.000000 0.999999 0.0
# 4 texture vertices

vn  0.028729 -0.127679 0.991399 
vn  0.029995 -0.129707 0.991099 
# 2 normals

usemtl surface__8

o IndexedFaceSet__18_0
g IndexedFaceSet__18_0

s off
f 101/104/55 102/102/55 103/103/55
f 104/101/54 103/103/54 102/102/54
# 2 polygons

# Coordinates for object 'IndexedFaceSet #19'
v  201687.187500 446328.312500 19.223255 
v  201687.578125 446326.625000 18.890545 
v  201692.187500 446329.437500 19.223248 
v  201692.578125 446327.781250 18.890539 
# 4 vertices

vt 0.0 0.0 0.0
vt 0.0 1.000000 0.0
vt 1.000000 0.0 0.0
vt 1.000000 1.000000 0.0
# 4 texture vertices

vn  0.042124 -0.187212 0.981416 
vn  0.042501 -0.183784 0.982047 
# 2 normals

usemtl surface__8

o IndexedFaceSet__19_0
g IndexedFaceSet__19_0

s off
f 105/108/57 106/106/57 108/105/57
f 108/105/56 107/107/56 105/108/56
# 2 polygons

# Coordinates for object 'IndexedFaceSet #20'
v  201687.578125 446326.625000 18.890545 
v  201688.000000 446324.750000 18.303633 
v  201692.578125 446327.781250 18.890539 
v  201693.000000 446325.906250 18.303627 
# 4 vertices

vt 0.0 0.0 0.0
vt 0.0 0.999998 0.0
vt 0.999999 1.000000 0.0
vt 1.000000 0.0 0.0
# 4 texture vertices

vn  0.065807 -0.284564 0.956396 
# 1 normals

usemtl surface__8

o IndexedFaceSet__20_0
g IndexedFaceSet__20_0

s off
f 109/111/58 110/110/58 112/109/58
f 112/109/58 111/112/58 109/111/58
# 2 polygons

# Coordinates for object 'IndexedFaceSet #21'
v  201688.000000 446324.750000 18.303633 
v  201688.453125 446322.781250 17.593500 
v  201693.000000 446325.906250 18.303627 
v  201693.453125 446323.906250 17.593494 
# 4 vertices

vt 0.0 0.0 0.0
vt 0.0 1.000000 0.0
vt 1.000000 0.0 0.0
vt 1.000000 1.000000 0.0
# 4 texture vertices

vn  0.071831 -0.319244 0.944946 
vn  0.074717 -0.323094 0.943413 
# 2 normals

usemtl surface__8

o IndexedFaceSet__21_0
g IndexedFaceSet__21_0

s off
f 113/116/60 114/114/60 115/115/60
f 116/113/59 115/115/59 114/114/59
# 2 polygons

# Coordinates for object 'IndexedFaceSet #22'
v  201688.453125 446322.781250 17.593500 
v  201688.859375 446321.000000 16.890633 
v  201693.453125 446323.906250 17.593494 
v  201693.875000 446322.125000 16.890625 
# 4 vertices

vt 0.0 0.0 0.0
vt 0.0 1.000000 0.0
vt 1.000000 0.0 0.0
vt 1.000000 1.000000 0.0
# 4 texture vertices

vn  0.078458 -0.349786 0.933538 
vn  0.078819 -0.350302 0.933314 
# 2 normals

usemtl surface__8

o IndexedFaceSet__22_0
g IndexedFaceSet__22_0

s off
f 117/120/62 118/118/62 119/119/62
f 120/117/61 119/119/61 118/118/61
# 2 polygons

# Coordinates for object 'IndexedFaceSet #23'
v  201688.859375 446321.000000 16.890633 
v  201688.875000 446320.968750 15.337909 
v  201693.875000 446322.125000 15.337903 
v  201693.875000 446322.125000 16.890625 
# 4 vertices

vt 0.0 0.001474 0.0
vt 0.0 1.000000 0.0
vt 0.999992 0.0 0.0
vt 1.000000 0.998557 0.0
# 4 texture vertices

vn  0.218809 -0.975523 0.021835 
vn  0.225304 -0.974288 0.0 
# 2 normals

usemtl surface__9

o IndexedFaceSet__23_0
g IndexedFaceSet__23_0

s off
f 124/124/63 121/122/63 122/121/63
f 122/121/64 123/123/64 124/124/64
# 2 polygons

# Coordinates for object 'IndexedFaceSet #24'
v  201685.359375 446336.312500 15.337909 
v  201688.875000 446320.968750 15.337909 
v  201690.359375 446337.468750 15.337903 
v  201693.875000 446322.125000 15.337903 
# 4 vertices

vt 0.0 0.0 0.0
vt 0.000507 0.999599 0.0
vt 0.999867 0.000354 0.0
vt 1.000000 1.000000 0.0
# 4 texture vertices

vn  -0.000001 0.0 -1.0 
# 1 normals

usemtl surface__10

o IndexedFaceSet__24_0
g IndexedFaceSet__24_0

s off
f 127/125/65 128/127/65 125/126/65
f 126/128/65 125/126/65 128/127/65
# 2 polygons
