# Converted by Daum Communications 
# Date/time of export: 08/22/2013 14:53:58
#
# Bounding box of geometry = (202150,444880,-0.548611) to (202179,444901,59.9199).

mtllib 4700116.mtl

# Coordinates for object 'IndexedFaceSet'
v  202176.265625 444897.968750 -0.548607 
v  202176.265625 444897.968750 55.359936 
v  202179.453125 444888.750000 -0.548609 
v  202179.453125 444888.750000 55.313709 
# 4 vertices

vt 0.0 1.000000 0.0
vt 0.000820 0.000300 0.0
vt 0.999999 0.0 0.0
vt 1.000000 0.999720 0.0
# 4 texture vertices

vn  0.945100 0.326780 0.0 
# 1 normals

usemtl surface

o IndexedFaceSet
g IndexedFaceSet

s off
f 2/1/1 4/2/1 1/4/1
f 3/3/1 1/4/1 4/2/1
# 2 polygons

# Coordinates for object 'IndexedFaceSet #1'
v  202151.750000 444889.468750 59.919899 
v  202151.750000 444889.500000 -0.548609 
v  202154.921875 444880.281250 59.919899 
v  202154.937500 444880.281250 -0.548611 
# 4 vertices

vt 0.0 1.000000 0.0
vt 0.000820 0.000300 0.0
vt 0.999999 0.0 0.0
vt 1.000000 0.999720 0.0
# 4 texture vertices

vn  -0.945253 -0.326337 -0.000244 
vn  -0.945100 -0.326780 -0.000169 
# 2 normals

usemtl surface

o IndexedFaceSet__1_0
g IndexedFaceSet__1_0

s off
f 6/8/3 8/7/3 5/5/3
f 7/6/2 5/5/2 8/7/2
# 2 polygons

# Coordinates for object 'IndexedFaceSet #2'
v  202154.921875 444880.281250 59.919899 
v  202154.937500 444880.281250 -0.548611 
v  202176.546875 444887.750000 55.313709 
v  202176.546875 444887.750000 59.919907 
v  202179.453125 444888.750000 -0.548609 
v  202179.453125 444888.750000 55.313709 
# 6 vertices

vt 0.0 1.000000 0.0
vt 0.000261 0.000204 0.0
vt 0.882020 0.923736 0.0
vt 0.882027 0.999894 0.0
vt 0.999941 0.0 0.0
vt 1.000000 0.923728 0.0
# 6 texture vertices

vn  0.325364 -0.945589 0.0 
vn  0.326454 -0.945213 0.0 
vn  0.326470 -0.945208 0.000084 
vn  0.326510 -0.945194 0.000067 
# 4 normals

usemtl surface__2

o IndexedFaceSet__2_0
g IndexedFaceSet__2_0

s off
f 11/11/5 12/12/5 9/9/5
f 11/11/7 10/10/7 13/13/7
f 10/10/6 11/11/6 9/9/6
f 11/11/4 13/13/4 14/14/4
# 4 polygons

# Coordinates for object 'IndexedFaceSet #3'
v  202151.421875 444889.375000 4.412910 
v  202151.750000 444889.468750 59.919899 
v  202173.375000 444896.937500 59.919907 
v  202173.437500 444896.968750 55.359932 
v  202176.265625 444897.968750 4.412913 
v  202176.265625 444897.968750 55.359936 
# 6 vertices

vt 0.0 0.0 0.0
vt 0.006156 0.918052 0.0
vt 0.120388 0.918116 0.0
vt 0.121509 0.999317 0.0
vt 0.995123 1.000000 0.0
vt 1.000000 0.000315 0.0
# 6 texture vertices

vn  -0.333365 0.942798 0.0 
vn  -0.326906 0.945057 0.000403 
vn  -0.326767 0.945105 0.000335 
vn  -0.326453 0.945211 0.002003 
# 4 normals

usemtl surface__3

o IndexedFaceSet__3_0
g IndexedFaceSet__3_0

s off
f 18/17/8 20/16/8 19/15/8
f 17/18/11 18/17/11 16/19/11
f 18/17/10 15/20/10 16/19/10
f 15/20/9 18/17/9 19/15/9
# 4 polygons

# Coordinates for object 'IndexedFaceSet #4'
v  202173.437500 444896.968750 55.359932 
v  202176.281250 444897.968750 55.359936 
v  202176.546875 444887.750000 55.313709 
v  202179.453125 444888.750000 55.313709 
# 4 vertices

vt 0.0 0.0 0.0
vt 0.011323 1.000000 0.0
vt 0.496854 0.0 0.0
vt 0.500000 1.000000 0.0
# 4 texture vertices

vn  0.001546 -0.004493 0.999989 
vn  0.001572 -0.004474 0.999989 
# 2 normals

usemtl surface__4

o IndexedFaceSet__4_0
g IndexedFaceSet__4_0

s off
f 21/22/12 23/21/12 24/23/12
f 24/23/13 22/24/13 21/22/13
# 2 polygons

# Coordinates for object 'IndexedFaceSet #5'
v  202175.062500 444901.437500 -0.548607 
v  202175.062500 444901.437500 4.334555 
v  202176.265625 444897.968750 -0.548607 
v  202176.265625 444897.968750 4.412913 
# 4 vertices

vt 0.0 0.000028 0.0
vt 0.015792 1.000000 0.0
vt 0.999993 0.999959 0.0
vt 1.000000 0.0 0.0
# 4 texture vertices

vn  0.944784 0.327695 0.0 
# 1 normals

usemtl surface__5

o IndexedFaceSet__5_0
g IndexedFaceSet__5_0

s off
f 26/26/14 28/25/14 27/28/14
f 27/28/14 25/27/14 26/26/14
# 2 polygons

# Coordinates for object 'IndexedFaceSet #6'
v  202150.234375 444892.843750 -0.548609 
v  202150.234375 444892.843750 4.334551 
v  202151.421875 444889.375000 -0.548610 
v  202151.421875 444889.375000 4.412910 
# 4 vertices

vt 0.0 0.000047 0.0
vt 0.015811 1.000000 0.0
vt 0.999976 0.0 0.0
vt 1.000000 0.999938 0.0
# 4 texture vertices

vn  -0.946095 -0.323888 0.0 
# 1 normals

usemtl surface__6

o IndexedFaceSet__6_0
g IndexedFaceSet__6_0

s off
f 29/32/15 31/31/15 30/30/15
f 32/29/15 30/30/15 31/31/15
# 2 polygons

# Coordinates for object 'IndexedFaceSet #7'
v  202150.234375 444892.843750 -0.548609 
v  202150.234375 444892.843750 4.334551 
v  202175.062500 444901.437500 -0.548607 
v  202175.062500 444901.437500 4.334555 
# 4 vertices

vt 0.0 0.0 0.0
vt 0.0 0.998113 0.0
vt 0.999978 0.001668 0.0
vt 1.000000 1.000000 0.0
# 4 texture vertices

vn  -0.327090 0.944993 0.0 
# 1 normals

usemtl surface__7

o IndexedFaceSet__7_0
g IndexedFaceSet__7_0

s off
f 36/34/16 35/33/16 33/35/16
f 33/35/16 34/36/16 36/34/16
# 2 polygons

# Coordinates for object 'IndexedFaceSet #8'
v  202150.234375 444892.843750 4.334551 
v  202151.421875 444889.375000 4.412910 
v  202175.062500 444901.437500 4.334555 
v  202176.265625 444897.968750 4.412913 
# 4 vertices

vt 0.0 0.666667 0.0
vt 0.0 1.000000 0.0
vt 1.000000 0.666667 0.0
vt 1.000000 1.000000 0.0
# 4 texture vertices

vn  -0.006989 0.020192 0.999772 
vn  -0.006975 0.020165 0.999772 
# 2 normals

usemtl surface__4

o IndexedFaceSet__8_0
g IndexedFaceSet__8_0

s off
f 37/39/17 38/40/17 39/37/17
f 40/38/18 39/37/18 38/40/18
# 2 polygons

# Coordinates for object 'IndexedFaceSet #9'
v  202173.375000 444896.937500 59.919907 
v  202173.437500 444896.968750 55.359932 
v  202176.546875 444887.750000 55.313709 
v  202176.546875 444887.750000 59.919907 
# 4 vertices

vt 0.0 0.000030 0.0
vt 0.004492 1.000000 0.0
vt 0.995436 0.0 0.0
vt 1.000000 0.993783 0.0
# 4 texture vertices

vn  0.945253 0.326337 0.0 
vn  0.947467 0.319493 0.015176 
# 2 normals

usemtl surface__8

o IndexedFaceSet__9_0
g IndexedFaceSet__9_0

s off
f 41/44/19 44/42/19 43/41/19
f 43/41/20 42/43/20 41/44/20
# 2 polygons

# Coordinates for object 'IndexedFaceSet #10'
v  202151.750000 444889.468750 59.919899 
v  202154.921875 444880.281250 59.919899 
v  202173.375000 444896.937500 59.919907 
v  202176.546875 444887.750000 59.919907 
# 4 vertices

vt 0.0 0.0 0.0
vt 0.0 1.000000 0.0
vt 0.999998 0.0 0.0
vt 1.000000 1.000000 0.0
# 4 texture vertices

vn  0.0 0.0 1.0 
# 1 normals

usemtl surface__9

o IndexedFaceSet__10_0
g IndexedFaceSet__10_0

s off
f 45/48/21 46/46/21 47/47/21
f 48/45/21 47/47/21 46/46/21
# 2 polygons
