# Converted by Daum Communications 
# Date/time of export: 08/22/2013 14:53:58
#
# Bounding box of geometry = (202742,443556,-0.500867) to (202770,443579,62.2461).

mtllib 4777053.mtl

# Coordinates for object 'IndexedFaceSet'
v  202742.328125 443570.750000 -0.500867 
v  202742.375000 443570.625000 58.654816 
v  202748.078125 443556.031250 -0.500865 
v  202748.078125 443556.031250 58.617035 
# 4 vertices

vt 0.0 0.009005 0.0
vt 0.000643 1.000000 0.0
vt 1.000000 0.0 0.0
vt 1.000000 0.999711 0.0
# 4 texture vertices

vn  -0.931447 -0.363877 0.0 
vn  -0.931405 -0.363986 -0.000031 
# 2 normals

usemtl surface

o IndexedFaceSet
g IndexedFaceSet

s off
f 4/2/2 2/1/2 1/3/2
f 1/3/1 3/4/1 4/2/1
# 2 polygons

# Coordinates for object 'IndexedFaceSet #1'
v  202764.562500 443579.437500 -0.500862 
v  202764.625000 443579.312500 58.654819 
v  202770.312500 443564.687500 -0.500859 
v  202770.312500 443564.687500 58.617039 
# 4 vertices

vt 0.0 0.009005 0.0
vt 0.000643 1.000000 0.0
vt 1.000000 0.0 0.0
vt 1.000000 0.999711 0.0
# 4 texture vertices

vn  0.931708 0.363208 0.0 
vn  0.932004 0.362447 -0.000219 
# 2 normals

usemtl surface

o IndexedFaceSet__1_0
g IndexedFaceSet__1_0

s off
f 7/8/3 5/7/3 8/6/3
f 6/5/4 8/6/4 5/7/4
# 2 polygons

# Coordinates for object 'IndexedFaceSet #2'
v  202742.328125 443570.750000 -0.500867 
v  202742.375000 443570.625000 58.654816 
v  202764.562500 443579.437500 -0.500862 
v  202764.625000 443579.312500 58.654819 
# 4 vertices

vt 0.0 0.000369 0.0
vt 0.000055 1.000000 0.0
vt 0.999737 0.0 0.0
vt 1.000000 0.999758 0.0
# 4 texture vertices

vn  -0.363929 0.931424 0.002353 
vn  -0.363708 0.931510 0.002257 
# 2 normals

usemtl surface__2

o IndexedFaceSet__2_0
g IndexedFaceSet__2_0

s off
f 10/10/6 12/9/6 9/12/6
f 11/11/5 9/12/5 12/9/5
# 2 polygons

# Coordinates for object 'IndexedFaceSet #3'
v  202748.078125 443556.031250 -0.500865 
v  202748.078125 443556.031250 58.617035 
v  202770.312500 443564.687500 -0.500859 
v  202770.312500 443564.687500 58.617039 
# 4 vertices

vt 0.0 0.000369 0.0
vt 0.000055 1.000000 0.0
vt 0.999737 0.0 0.0
vt 1.000000 0.999758 0.0
# 4 texture vertices

vn  0.362794 -0.931869 0.0 
# 1 normals

usemtl surface__2

o IndexedFaceSet__3_0
g IndexedFaceSet__3_0

s off
f 16/13/7 14/14/7 15/15/7
f 13/16/7 15/15/7 14/14/7
# 2 polygons

# Coordinates for object 'IndexedFaceSet #4'
v  202742.375000 443570.625000 58.654816 
v  202748.078125 443556.031250 58.617035 
v  202764.625000 443579.312500 58.654819 
v  202770.312500 443564.687500 58.617039 
# 4 vertices

vt 0.0 0.0 0.0
# 1 texture vertices

vn  0.000873 -0.002244 0.999997 
# 1 normals

usemtl surface__3

o IndexedFaceSet__4_0
g IndexedFaceSet__4_0

s off
f 20/17/8 19/17/8 18/17/8
f 17/17/8 18/17/8 19/17/8
# 2 polygons

# Coordinates for object 'IndexedFaceSet #5'
v  202742.375000 443570.625000 58.654816 
v  202742.375000 443570.625000 62.246071 
v  202748.078125 443556.031250 58.617035 
v  202748.078125 443556.031250 62.246067 
# 4 vertices

vt 0.0 0.989576 0.0
vt 0.000498 0.0 0.0
vt 0.998631 1.000000 0.0
vt 1.000000 0.000153 0.0
# 4 texture vertices

vn  -0.931405 -0.363986 0.0 
# 1 normals

usemtl surface__4

o IndexedFaceSet__5_0
g IndexedFaceSet__5_0

s off
f 24/20/9 22/18/9 21/19/9
f 21/19/9 23/21/9 24/20/9
# 2 polygons

# Coordinates for object 'IndexedFaceSet #6'
v  202764.609375 443579.312500 58.654819 
v  202764.609375 443579.312500 62.246078 
v  202770.312500 443564.687500 58.617039 
v  202770.312500 443564.718750 62.246071 
# 4 vertices

vt 0.0 0.989576 0.0
vt 0.000498 0.0 0.0
vt 0.998631 1.000000 0.0
vt 1.000000 0.000153 0.0
# 4 texture vertices

vn  0.931405 0.363986 0.0 
vn  0.931661 0.363316 -0.003129 
# 2 normals

usemtl surface__4

o IndexedFaceSet__6_0
g IndexedFaceSet__6_0

s off
f 27/25/11 25/23/11 28/24/11
f 26/22/10 28/24/10 25/23/10
# 2 polygons

# Coordinates for object 'IndexedFaceSet #7'
v  202748.078125 443556.031250 58.617035 
v  202748.078125 443556.031250 62.246067 
v  202770.312500 443564.687500 58.617039 
v  202770.312500 443564.718750 62.246071 
# 4 vertices

vt 0.0 0.989576 0.0
vt 0.000498 0.0 0.0
vt 0.998631 1.000000 0.0
vt 1.000000 0.000153 0.0
# 4 texture vertices

vn  0.362782 -0.931839 0.008024 
vn  0.363930 -0.931426 0.0 
# 2 normals

usemtl surface__4

o IndexedFaceSet__7_0
g IndexedFaceSet__7_0

s off
f 30/26/13 29/27/13 32/28/13
f 31/29/12 32/28/12 29/27/12
# 2 polygons

# Coordinates for object 'IndexedFaceSet #8'
v  202742.375000 443570.625000 62.246071 
v  202748.078125 443556.031250 62.246067 
v  202764.609375 443579.312500 62.246078 
v  202770.312500 443564.718750 62.246071 
# 4 vertices

vt 0.0 0.0 0.0
vt 0.0 1.000000 0.0
vt 0.999999 0.0 0.0
vt 1.000000 1.000000 0.0
# 4 texture vertices

vn  0.0 0.0 1.0 
# 1 normals

usemtl surface__5

o IndexedFaceSet__8_0
g IndexedFaceSet__8_0

s off
f 36/33/14 35/31/14 33/30/14
f 33/30/14 34/32/14 36/33/14
# 2 polygons

# Coordinates for object 'IndexedFaceSet #9'
v  202742.375000 443570.625000 58.654816 
v  202742.375000 443570.625000 62.246071 
v  202764.609375 443579.312500 58.654819 
v  202764.609375 443579.312500 62.246078 
# 4 vertices

vt 0.0 0.989576 0.0
vt 0.000498 0.0 0.0
vt 0.998631 1.000000 0.0
vt 1.000000 0.000153 0.0
# 4 texture vertices

vn  -0.363930 0.931426 0.0 
# 1 normals

usemtl surface__4

o IndexedFaceSet__9_0
g IndexedFaceSet__9_0

s off
f 37/35/15 38/34/15 39/37/15
f 40/36/15 39/37/15 38/34/15
# 2 polygons
